  0
SECTION
  2
HEADER
  9
$ACADVER
  1
AC1032
  9
$ACADMAINTVER
 90
4
  9
$DWGCODEPAGE
  3
ANSI_1252
  9
$LASTSAVEDBY
  1
ezdxf
  9
$REQUIREDVERSIONS
160
0
  9
$INSBASE
 10
0.0
 20
0.0
 30
0.0
  9
$EXTMIN
 10
1e+20
 20
1e+20
 30
1e+20
  9
$EXTMAX
 10
-1e+20
 20
-1e+20
 30
-1e+20
  9
$LIMMIN
 10
0.0
 20
0.0
  9
$LIMMAX
 10
420.0
 20
297.0
  9
$ORTHOMODE
 70
0
  9
$REGENMODE
 70
1
  9
$FILLMODE
 70
1
  9
$QTEXTMODE
 70
0
  9
$MIRRTEXT
 70
1
  9
$LTSCALE
 40
1.0
  9
$ATTMODE
 70
1
  9
$TEXTSIZE
 40
2.5
  9
$TRACEWID
 40
1.0
  9
$TEXTSTYLE
  7
Standard
  9
$CLAYER
  8
0
  9
$CELTYPE
  6
ByLayer
  9
$CECOLOR
 62
256
  9
$CELTSCALE
 40
1.0
  9
$DISPSILH
 70
0
  9
$DIMSCALE
 40
1.0
  9
$DIMASZ
 40
2.5
  9
$DIMEXO
 40
0.625
  9
$DIMDLI
 40
3.75
  9
$DIMRND
 40
0.0
  9
$DIMDLE
 40
0.0
  9
$DIMEXE
 40
1.25
  9
$DIMTP
 40
0.0
  9
$DIMTM
 40
0.0
  9
$DIMTXT
 40
2.5
  9
$DIMCEN
 40
2.5
  9
$DIMTSZ
 40
0.0
  9
$DIMTOL
 70
0
  9
$DIMLIM
 70
0
  9
$DIMTIH
 70
0
  9
$DIMTOH
 70
0
  9
$DIMSE1
 70
0
  9
$DIMSE2
 70
0
  9
$DIMTAD
 70
1
  9
$DIMZIN
 70
8
  9
$DIMBLK
  1

  9
$DIMASO
 70
1
  9
$DIMSHO
 70
1
  9
$DIMPOST
  1

  9
$DIMAPOST
  1

  9
$DIMALT
 70
0
  9
$DIMALTD
 70
3
  9
$DIMALTF
 40
0.03937007874
  9
$DIMLFAC
 40
1.0
  9
$DIMTOFL
 70
1
  9
$DIMTVP
 40
0.0
  9
$DIMTIX
 70
0
  9
$DIMSOXD
 70
0
  9
$DIMSAH
 70
0
  9
$DIMBLK1
  1

  9
$DIMBLK2
  1

  9
$DIMSTYLE
  2
ISO-25
  9
$DIMCLRD
 70
0
  9
$DIMCLRE
 70
0
  9
$DIMCLRT
 70
0
  9
$DIMTFAC
 40
1.0
  9
$DIMGAP
 40
0.625
  9
$DIMJUST
 70
0
  9
$DIMSD1
 70
0
  9
$DIMSD2
 70
0
  9
$DIMTOLJ
 70
0
  9
$DIMTZIN
 70
8
  9
$DIMALTZ
 70
0
  9
$DIMALTTZ
 70
0
  9
$DIMUPT
 70
0
  9
$DIMDEC
 70
2
  9
$DIMTDEC
 70
2
  9
$DIMALTU
 70
2
  9
$DIMALTTD
 70
3
  9
$DIMTXSTY
  7
Standard
  9
$DIMAUNIT
 70
0
  9
$DIMADEC
 70
0
  9
$DIMALTRND
 40
0.0
  9
$DIMAZIN
 70
0
  9
$DIMDSEP
 70
44
  9
$DIMATFIT
 70
3
  9
$DIMFRAC
 70
0
  9
$DIMLDRBLK
  1

  9
$DIMLUNIT
 70
2
  9
$DIMLWD
 70
-2
  9
$DIMLWE
 70
-2
  9
$DIMTMOVE
 70
0
  9
$DIMFXL
 40
1.0
  9
$DIMFXLON
 70
0
  9
$DIMJOGANG
 40
0.785398163397
  9
$DIMTFILL
 70
0
  9
$DIMTFILLCLR
 70
0
  9
$DIMARCSYM
 70
0
  9
$DIMLTYPE
  6

  9
$DIMLTEX1
  6

  9
$DIMLTEX2
  6

  9
$DIMTXTDIRECTION
 70
0
  9
$LUNITS
 70
2
  9
$LUPREC
 70
4
  9
$SKETCHINC
 40
1.0
  9
$FILLETRAD
 40
10.0
  9
$AUNITS
 70
0
  9
$AUPREC
 70
2
  9
$MENU
  1
.
  9
$ELEVATION
 40
0.0
  9
$PELEVATION
 40
0.0
  9
$THICKNESS
 40
0.0
  9
$LIMCHECK
 70
0
  9
$CHAMFERA
 40
0.0
  9
$CHAMFERB
 40
0.0
  9
$CHAMFERC
 40
0.0
  9
$CHAMFERD
 40
0.0
  9
$SKPOLY
 70
0
  9
$TDCREATE
 40
2461176.290208333
  9
$TDUCREATE
 40
2458532.153996898
  9
$TDUPDATE
 40
2461176.290208333
  9
$TDUUPDATE
 40
2458532.1544311
  9
$TDINDWG
 40
0.0
  9
$TDUSRTIMER
 40
0.0
  9
$USRTIMER
 70
1
  9
$ANGBASE
 50
0.0
  9
$ANGDIR
 70
0
  9
$PDMODE
 70
0
  9
$PDSIZE
 40
0.0
  9
$PLINEWID
 40
0.0
  9
$SPLFRAME
 70
0
  9
$SPLINETYPE
 70
6
  9
$SPLINESEGS
 70
8
  9
$HANDSEED
  5
1FE
  9
$SURFTAB1
 70
6
  9
$SURFTAB2
 70
6
  9
$SURFTYPE
 70
6
  9
$SURFU
 70
6
  9
$SURFV
 70
6
  9
$UCSBASE
  2

  9
$UCSNAME
  2

  9
$UCSORG
 10
0.0
 20
0.0
 30
0.0
  9
$UCSXDIR
 10
1.0
 20
0.0
 30
0.0
  9
$UCSYDIR
 10
0.0
 20
1.0
 30
0.0
  9
$UCSORTHOREF
  2

  9
$UCSORTHOVIEW
 70
0
  9
$UCSORGTOP
 10
0.0
 20
0.0
 30
0.0
  9
$UCSORGBOTTOM
 10
0.0
 20
0.0
 30
0.0
  9
$UCSORGLEFT
 10
0.0
 20
0.0
 30
0.0
  9
$UCSORGRIGHT
 10
0.0
 20
0.0
 30
0.0
  9
$UCSORGFRONT
 10
0.0
 20
0.0
 30
0.0
  9
$UCSORGBACK
 10
0.0
 20
0.0
 30
0.0
  9
$PUCSBASE
  2

  9
$PUCSNAME
  2

  9
$PUCSORG
 10
0.0
 20
0.0
 30
0.0
  9
$PUCSXDIR
 10
1.0
 20
0.0
 30
0.0
  9
$PUCSYDIR
 10
0.0
 20
1.0
 30
0.0
  9
$PUCSORTHOREF
  2

  9
$PUCSORTHOVIEW
 70
0
  9
$PUCSORGTOP
 10
0.0
 20
0.0
 30
0.0
  9
$PUCSORGBOTTOM
 10
0.0
 20
0.0
 30
0.0
  9
$PUCSORGLEFT
 10
0.0
 20
0.0
 30
0.0
  9
$PUCSORGRIGHT
 10
0.0
 20
0.0
 30
0.0
  9
$PUCSORGFRONT
 10
0.0
 20
0.0
 30
0.0
  9
$PUCSORGBACK
 10
0.0
 20
0.0
 30
0.0
  9
$USERI1
 70
0
  9
$USERI2
 70
0
  9
$USERI3
 70
0
  9
$USERI4
 70
0
  9
$USERI5
 70
0
  9
$USERR1
 40
0.0
  9
$USERR2
 40
0.0
  9
$USERR3
 40
0.0
  9
$USERR4
 40
0.0
  9
$USERR5
 40
0.0
  9
$WORLDVIEW
 70
1
  9
$SHADEDGE
 70
3
  9
$SHADEDIF
 70
70
  9
$TILEMODE
 70
1
  9
$MAXACTVP
 70
64
  9
$PINSBASE
 10
0.0
 20
0.0
 30
0.0
  9
$PLIMCHECK
 70
0
  9
$PEXTMIN
 10
1e+20
 20
1e+20
 30
1e+20
  9
$PEXTMAX
 10
-1e+20
 20
-1e+20
 30
-1e+20
  9
$PLIMMIN
 10
0.0
 20
0.0
  9
$PLIMMAX
 10
420.0
 20
297.0
  9
$UNITMODE
 70
0
  9
$VISRETAIN
 70
1
  9
$PLINEGEN
 70
0
  9
$PSLTSCALE
 70
1
  9
$TREEDEPTH
 70
3020
  9
$CMLSTYLE
  2
Standard
  9
$CMLJUST
 70
0
  9
$CMLSCALE
 40
20.0
  9
$PROXYGRAPHICS
 70
1
  9
$MEASUREMENT
 70
1
  9
$CELWEIGHT
370
-1
  9
$ENDCAPS
280
0
  9
$JOINSTYLE
280
0
  9
$LWDISPLAY
290
0
  9
$INSUNITS
 70
4
  9
$HYPERLINKBASE
  1

  9
$STYLESHEET
  1

  9
$XEDIT
290
1
  9
$CEPSNTYPE
380
0
  9
$PSTYLEMODE
290
1
  9
$FINGERPRINTGUID
  2
{C03A1FC3-E47E-4602-9C73-3253ECCBCEA7}
  9
$VERSIONGUID
  2
{3B363AA8-29B6-426D-A699-C3322E948BFD}
  9
$EXTNAMES
290
1
  9
$PSVPSCALE
 40
0.0
  9
$OLESTARTUP
290
0
  9
$SORTENTS
280
127
  9
$INDEXCTL
280
0
  9
$HIDETEXT
280
1
  9
$XCLIPFRAME
280
1
  9
$HALOGAP
280
0
  9
$OBSCOLOR
 70
257
  9
$OBSLTYPE
280
0
  9
$INTERSECTIONDISPLAY
280
0
  9
$INTERSECTIONCOLOR
 70
257
  9
$DIMASSOC
280
2
  9
$PROJECTNAME
  1

  9
$CAMERADISPLAY
290
0
  9
$LENSLENGTH
 40
50.0
  9
$CAMERAHEIGHT
 40
0.0
  9
$STEPSPERSEC
 40
24.0
  9
$STEPSIZE
 40
100.0
  9
$3DDWFPREC
 40
2.0
  9
$PSOLWIDTH
 40
0.005
  9
$PSOLHEIGHT
 40
0.08
  9
$LOFTANG1
 40
1.570796326795
  9
$LOFTANG2
 40
1.570796326795
  9
$LOFTMAG1
 40
0.0
  9
$LOFTMAG2
 40
0.0
  9
$LOFTPARAM
 70
7
  9
$LOFTNORMALS
280
1
  9
$LATITUDE
 40
37.795
  9
$LONGITUDE
 40
-122.394
  9
$NORTHDIRECTION
 40
0.0
  9
$TIMEZONE
 70
-8000
  9
$LIGHTGLYPHDISPLAY
280
1
  9
$TILEMODELIGHTSYNCH
280
1
  9
$CMATERIAL
347
20
  9
$SOLIDHIST
280
0
  9
$SHOWHIST
280
1
  9
$DWFFRAME
280
2
  9
$DGNFRAME
280
2
  9
$REALWORLDSCALE
290
1
  9
$INTERFERECOLOR
 62
256
  9
$CSHADOW
280
0
  9
$SHADOWPLANELOCATION
 40
0.0
  0
ENDSEC
  0
SECTION
  2
CLASSES
  0
CLASS
  1
ACDBDICTIONARYWDFLT
  2
AcDbDictionaryWithDefault
  3
ObjectDBX Classes
 90
0
 91
0
280
0
281
0
  0
CLASS
  1
SUN
  2
AcDbSun
  3
SCENEOE
 90
1153
 91
0
280
0
281
0
  0
CLASS
  1
VISUALSTYLE
  2
AcDbVisualStyle
  3
ObjectDBX Classes
 90
4095
 91
0
280
0
281
0
  0
CLASS
  1
MATERIAL
  2
AcDbMaterial
  3
ObjectDBX Classes
 90
1153
 91
0
280
0
281
0
  0
CLASS
  1
SCALE
  2
AcDbScale
  3
ObjectDBX Classes
 90
1153
 91
0
280
0
281
0
  0
CLASS
  1
TABLESTYLE
  2
AcDbTableStyle
  3
ObjectDBX Classes
 90
4095
 91
0
280
0
281
0
  0
CLASS
  1
MLEADERSTYLE
  2
AcDbMLeaderStyle
  3
ACDB_MLEADERSTYLE_CLASS
 90
4095
 91
0
280
0
281
0
  0
CLASS
  1
DICTIONARYVAR
  2
AcDbDictionaryVar
  3
ObjectDBX Classes
 90
0
 91
0
280
0
281
0
  0
CLASS
  1
CELLSTYLEMAP
  2
AcDbCellStyleMap
  3
ObjectDBX Classes
 90
1152
 91
0
280
0
281
0
  0
CLASS
  1
MENTALRAYRENDERSETTINGS
  2
AcDbMentalRayRenderSettings
  3
SCENEOE
 90
1024
 91
0
280
0
281
0
  0
CLASS
  1
ACDBDETAILVIEWSTYLE
  2
AcDbDetailViewStyle
  3
ObjectDBX Classes
 90
1025
 91
0
280
0
281
0
  0
CLASS
  1
ACDBSECTIONVIEWSTYLE
  2
AcDbSectionViewStyle
  3
ObjectDBX Classes
 90
1025
 91
0
280
0
281
0
  0
CLASS
  1
RASTERVARIABLES
  2
AcDbRasterVariables
  3
ISM
 90
0
 91
0
280
0
281
0
  0
CLASS
  1
LAYOUT
  2
AcDbLayout
  3
ObjectDBX Classes
 90
0
 91
0
280
0
281
0
  0
CLASS
  1
ACDBPLACEHOLDER
  2
AcDbPlaceHolder
  3
ObjectDBX Classes
 90
0
 91
0
280
0
281
0
  0
ENDSEC
  0
SECTION
  2
TABLES
  0
TABLE
  2
VPORT
  5
8
330
0
100
AcDbSymbolTable
 70
1
  0
VPORT
  5
23
330
8
100
AcDbSymbolTableRecord
100
AcDbViewportTableRecord
  2
*Active
 70
0
 10
0.0
 20
0.0
 11
1.0
 21
1.0
 12
0.0
 22
0.0
 13
0.0
 23
0.0
 14
0.5
 24
0.5
 15
0.5
 25
0.5
 16
0.0
 26
0.0
 36
1.0
 17
0.0
 27
0.0
 37
0.0
 40
1000.0
 41
1.34
 42
50.0
 43
0.0
 44
0.0
 50
0.0
 51
0.0
 71
0
 72
1000
 73
1
 74
3
 75
0
 76
0
 77
0
 78
0
281
0
 65
0
146
0.0
  0
ENDTAB
  0
TABLE
  2
LTYPE
  5
2
330
0
100
AcDbSymbolTable
 70
3
  0
LTYPE
  5
24
330
2
100
AcDbSymbolTableRecord
100
AcDbLinetypeTableRecord
  2
ByBlock
 70
0
  3

 72
65
 73
0
 40
0.0
  0
LTYPE
  5
25
330
2
100
AcDbSymbolTableRecord
100
AcDbLinetypeTableRecord
  2
ByLayer
 70
0
  3

 72
65
 73
0
 40
0.0
  0
LTYPE
  5
26
330
2
100
AcDbSymbolTableRecord
100
AcDbLinetypeTableRecord
  2
Continuous
 70
0
  3

 72
65
 73
0
 40
0.0
  0
ENDTAB
  0
TABLE
  2
LAYER
  5
1
330
0
100
AcDbSymbolTable
 70
8
  0
LAYER
  5
27
330
1
100
AcDbSymbolTableRecord
100
AcDbLayerTableRecord
  2
0
 70
0
 62
7
  6
Continuous
370
-3
390
13
347
21
  0
LAYER
  5
28
330
1
100
AcDbSymbolTableRecord
100
AcDbLayerTableRecord
  2
Defpoints
 70
0
 62
7
  6
Continuous
290
0
370
-3
390
13
347
21
  0
LAYER
  5
2F
330
1
100
AcDbSymbolTableRecord
100
AcDbLayerTableRecord
  2
MIKRA
 70
0
 62
7
  6
Continuous
370
-3
390
13
347
21
  0
LAYER
  5
30
330
1
100
AcDbSymbolTableRecord
100
AcDbLayerTableRecord
  2
kir
 70
0
 62
7
  6
Continuous
370
-3
390
13
347
21
  0
LAYER
  5
31
330
1
100
AcDbSymbolTableRecord
100
AcDbLayerTableRecord
  2
8
 70
0
 62
7
  6
Continuous
370
-3
390
13
347
21
  0
LAYER
  5
32
330
1
100
AcDbSymbolTableRecord
100
AcDbLayerTableRecord
  2
BAR-GAL
 70
0
 62
7
  6
Continuous
370
-3
390
13
347
21
  0
LAYER
  5
33
330
1
100
AcDbSymbolTableRecord
100
AcDbLayerTableRecord
  2
VP
 70
0
 62
-30
  6
Continuous
370
-3
390
13
347
21
  0
LAYER
  5
73
330
1
100
AcDbSymbolTableRecord
100
AcDbLayerTableRecord
  2
NAVVIX_DIMS
 70
0
 62
7
  6
Continuous
370
-3
390
13
347
21
  0
ENDTAB
  0
TABLE
  2
STYLE
  5
5
330
0
100
AcDbSymbolTable
 70
1
  0
STYLE
  5
29
330
5
100
AcDbSymbolTableRecord
100
AcDbTextStyleTableRecord
  2
Standard
 70
0
 40
0.0
 41
1.0
 50
0.0
 71
0
 42
2.5
  3
txt
  4

  0
ENDTAB
  0
TABLE
  2
VIEW
  5
7
330
0
100
AcDbSymbolTable
 70
0
  0
ENDTAB
  0
TABLE
  2
UCS
  5
6
330
0
100
AcDbSymbolTable
 70
0
  0
ENDTAB
  0
TABLE
  2
APPID
  5
3
330
0
100
AcDbSymbolTable
 70
3
  0
APPID
  5
2A
330
3
100
AcDbSymbolTableRecord
100
AcDbRegAppTableRecord
  2
ACAD
 70
0
  0
APPID
  5
6F
330
3
100
AcDbSymbolTableRecord
100
AcDbRegAppTableRecord
  2
HATCHBACKGROUNDCOLOR
 70
0
  0
APPID
  5
70
330
3
100
AcDbSymbolTableRecord
100
AcDbRegAppTableRecord
  2
EZDXF
 70
0
  0
ENDTAB
  0
TABLE
  2
DIMSTYLE
  5
4
330
0
100
AcDbSymbolTable
 70
2
100
AcDbDimStyleTable
  0
DIMSTYLE
105
2B
330
4
100
AcDbSymbolTableRecord
100
AcDbDimStyleTableRecord
  2
Standard
 70
0
 40
1.0
 41
2.5
 42
0.625
 43
3.75
 44
1.25
 45
0.0
 46
0.0
 47
0.0
 48
0.0
 49
2.5
140
2.5
141
2.5
142
0.0
143
0.03937007874
144
1.0
145
0.0
146
1.0
147
0.625
148
0.0
 69
0
 70
0
 71
0
 72
0
 73
0
 74
0
 75
0
 76
0
 77
1
 78
8
 79
3
170
0
171
3
172
1
173
0
174
0
175
0
176
0
177
0
178
0
179
2
271
2
272
2
273
2
274
3
275
0
276
0
277
2
278
44
279
0
280
0
281
0
282
0
283
0
284
8
285
0
286
0
288
0
289
3
290
0
371
-2
372
-2
  0
DIMSTYLE
105
72
330
4
100
AcDbSymbolTableRecord
100
AcDbDimStyleTableRecord
  2
ISO-25
 70
0
 40
1.0
 41
30.0
 42
0.625
 43
3.75
 44
1.25
 45
0.0
 46
0.0
 47
0.0
 48
0.0
 49
2.5
140
30.0
141
2.5
142
0.0
143
0.03937007874
144
1.0
145
0.0
146
1.0
147
10.0
148
0.0
 69
0
 70
0
 71
0
 72
0
 73
0
 74
0
 75
0
 76
0
 77
1
 78
8
 79
3
170
0
171
3
172
1
173
0
174
0
175
0
176
0
177
0
178
0
179
2
271
2
272
2
273
2
274
3
275
0
276
0
277
2
278
44
279
1
280
0
281
0
282
0
283
0
284
8
285
0
286
0
288
0
289
3
290
0
371
-2
372
-2
  0
ENDTAB
  0
TABLE
  2
BLOCK_RECORD
  5
9
330
0
100
AcDbSymbolTable
 70
29
  0
BLOCK_RECORD
  5
17
330
9
100
AcDbSymbolTableRecord
100
AcDbBlockTableRecord
  2
*Model_Space
340
1A
 70
0
280
1
281
0
  0
BLOCK_RECORD
  5
1B
330
9
100
AcDbSymbolTableRecord
100
AcDbBlockTableRecord
  2
*Paper_Space
340
1E
 70
0
280
1
281
0
  0
BLOCK_RECORD
  5
75
330
9
100
AcDbSymbolTableRecord
100
AcDbBlockTableRecord
  2
*D1
340
0
 70
0
280
1
281
0
  0
BLOCK_RECORD
  5
7A
330
9
100
AcDbSymbolTableRecord
100
AcDbBlockTableRecord
  2
_CLOSEDFILLED
340
0
 70
0
280
1
281
0
  0
BLOCK_RECORD
  5
88
330
9
100
AcDbSymbolTableRecord
100
AcDbBlockTableRecord
  2
*D2
340
0
 70
0
280
1
281
0
  0
BLOCK_RECORD
  5
97
330
9
100
AcDbSymbolTableRecord
100
AcDbBlockTableRecord
  2
*D3
340
0
 70
0
280
1
281
0
  0
BLOCK_RECORD
  5
A6
330
9
100
AcDbSymbolTableRecord
100
AcDbBlockTableRecord
  2
*D4
340
0
 70
0
280
1
281
0
  0
BLOCK_RECORD
  5
B5
330
9
100
AcDbSymbolTableRecord
100
AcDbBlockTableRecord
  2
*D5
340
0
 70
0
280
1
281
0
  0
BLOCK_RECORD
  5
C4
330
9
100
AcDbSymbolTableRecord
100
AcDbBlockTableRecord
  2
*D6
340
0
 70
0
280
1
281
0
  0
BLOCK_RECORD
  5
D3
330
9
100
AcDbSymbolTableRecord
100
AcDbBlockTableRecord
  2
*D7
340
0
 70
0
280
1
281
0
  0
BLOCK_RECORD
  5
E2
330
9
100
AcDbSymbolTableRecord
100
AcDbBlockTableRecord
  2
*D8
340
0
 70
0
280
1
281
0
  0
BLOCK_RECORD
  5
F1
330
9
100
AcDbSymbolTableRecord
100
AcDbBlockTableRecord
  2
*D9
340
0
 70
0
280
1
281
0
  0
BLOCK_RECORD
  5
100
330
9
100
AcDbSymbolTableRecord
100
AcDbBlockTableRecord
  2
*D10
340
0
 70
0
280
1
281
0
  0
BLOCK_RECORD
  5
10F
330
9
100
AcDbSymbolTableRecord
100
AcDbBlockTableRecord
  2
*D11
340
0
 70
0
280
1
281
0
  0
BLOCK_RECORD
  5
11E
330
9
100
AcDbSymbolTableRecord
100
AcDbBlockTableRecord
  2
*D12
340
0
 70
0
280
1
281
0
  0
BLOCK_RECORD
  5
12D
330
9
100
AcDbSymbolTableRecord
100
AcDbBlockTableRecord
  2
*D13
340
0
 70
0
280
1
281
0
  0
BLOCK_RECORD
  5
13C
330
9
100
AcDbSymbolTableRecord
100
AcDbBlockTableRecord
  2
*D14
340
0
 70
0
280
1
281
0
  0
BLOCK_RECORD
  5
14B
330
9
100
AcDbSymbolTableRecord
100
AcDbBlockTableRecord
  2
*D15
340
0
 70
0
280
1
281
0
  0
BLOCK_RECORD
  5
15A
330
9
100
AcDbSymbolTableRecord
100
AcDbBlockTableRecord
  2
*D16
340
0
 70
0
280
1
281
0
  0
BLOCK_RECORD
  5
169
330
9
100
AcDbSymbolTableRecord
100
AcDbBlockTableRecord
  2
*D17
340
0
 70
0
280
1
281
0
  0
BLOCK_RECORD
  5
178
330
9
100
AcDbSymbolTableRecord
100
AcDbBlockTableRecord
  2
*D18
340
0
 70
0
280
1
281
0
  0
BLOCK_RECORD
  5
187
330
9
100
AcDbSymbolTableRecord
100
AcDbBlockTableRecord
  2
*D19
340
0
 70
0
280
1
281
0
  0
BLOCK_RECORD
  5
196
330
9
100
AcDbSymbolTableRecord
100
AcDbBlockTableRecord
  2
*D20
340
0
 70
0
280
1
281
0
  0
BLOCK_RECORD
  5
1A5
330
9
100
AcDbSymbolTableRecord
100
AcDbBlockTableRecord
  2
*D21
340
0
 70
0
280
1
281
0
  0
BLOCK_RECORD
  5
1B4
330
9
100
AcDbSymbolTableRecord
100
AcDbBlockTableRecord
  2
*D22
340
0
 70
0
280
1
281
0
  0
BLOCK_RECORD
  5
1C3
330
9
100
AcDbSymbolTableRecord
100
AcDbBlockTableRecord
  2
*D23
340
0
 70
0
280
1
281
0
  0
BLOCK_RECORD
  5
1D2
330
9
100
AcDbSymbolTableRecord
100
AcDbBlockTableRecord
  2
*D24
340
0
 70
0
280
1
281
0
  0
BLOCK_RECORD
  5
1E1
330
9
100
AcDbSymbolTableRecord
100
AcDbBlockTableRecord
  2
*D25
340
0
 70
0
280
1
281
0
  0
BLOCK_RECORD
  5
1F0
330
9
100
AcDbSymbolTableRecord
100
AcDbBlockTableRecord
  2
*D26
340
0
 70
0
280
1
281
0
  0
ENDTAB
  0
ENDSEC
  0
SECTION
  2
BLOCKS
  0
BLOCK
  5
18
330
17
100
AcDbEntity
  8
0
100
AcDbBlockBegin
  2
*Model_Space
 70
0
 10
0.0
 20
0.0
 30
0.0
  3
*Model_Space
  1

  0
ENDBLK
  5
19
330
17
100
AcDbEntity
  8
0
100
AcDbBlockEnd
  0
BLOCK
  5
1C
330
1B
100
AcDbEntity
  8
0
100
AcDbBlockBegin
  2
*Paper_Space
 70
0
 10
0.0
 20
0.0
 30
0.0
  3
*Paper_Space
  1

  0
ENDBLK
  5
1D
330
1B
100
AcDbEntity
  8
0
100
AcDbBlockEnd
  0
BLOCK
  5
76
330
75
100
AcDbEntity
  8
0
100
AcDbBlockBegin
  2
*D1
 70
1
 10
0.0
 20
0.0
 30
0.0
  3
*D1
  1

  0
LINE
  5
78
330
75
100
AcDbEntity
  8
0
100
AcDbLine
 10
989727.2248974005
 20
87816.86911615482
 30
0.0
 11
989538.8548757199
 21
87816.86911615482
 31
0.0
  0
LINE
  5
79
330
75
100
AcDbEntity
  8
0
100
AcDbLine
 10
989727.2248974005
 20
88746.43754166584
 30
0.0
 11
989538.8548757199
 21
88746.43754166584
 31
0.0
  0
INSERT
  5
7E
330
75
100
AcDbEntity
  8
NAVVIX_DIMS
100
AcDbBlockReference
  2
_CLOSEDFILLED
 10
989540.1048757199
 20
87816.86911615482
 30
0.0
 41
30.0
 42
30.0
 50
270.0
  0
INSERT
  5
80
330
75
100
AcDbEntity
  8
NAVVIX_DIMS
100
AcDbBlockReference
  2
_CLOSEDFILLED
 10
989540.1048757199
 20
88746.43754166584
 30
0.0
 41
30.0
 42
30.0
 50
90.0
  0
LINE
  5
82
330
75
100
AcDbEntity
  8
0
100
AcDbLine
 10
989540.1048757199
 20
87846.86911615482
 30
0.0
 11
989540.1048757199
 21
88716.43754166584
 31
0.0
  0
MTEXT
  5
83
330
75
100
AcDbEntity
  8
NAVVIX_DIMS
100
AcDbMText
 10
989515.1048757199
 20
88281.65332891032
 30
0.0
 40
30.0
 71
5
  1
929,57
 50
90.0
  0
POINT
  5
84
330
75
100
AcDbEntity
  8
Defpoints
100
AcDbPoint
 10
989540.1048757199
 20
87816.86911615482
 30
0.0
  0
POINT
  5
85
330
75
100
AcDbEntity
  8
Defpoints
100
AcDbPoint
 10
989727.8498974005
 20
87816.86911615482
 30
0.0
  0
POINT
  5
86
330
75
100
AcDbEntity
  8
Defpoints
100
AcDbPoint
 10
989727.8498974005
 20
88746.43754166584
 30
0.0
  0
ENDBLK
  5
77
330
75
100
AcDbEntity
  8
0
100
AcDbBlockEnd
  0
BLOCK
  5
7B
330
7A
100
AcDbEntity
  8
0
100
AcDbBlockBegin
  2
_CLOSEDFILLED
 70
0
 10
0.0
 20
0.0
 30
0.0
  3
_CLOSEDFILLED
  1

  0
SOLID
  5
7D
330
7A
100
AcDbEntity
  8
0
  6
BYBLOCK
 62
0
100
AcDbTrace
 10
-1.0
 20
0.16439898372402537
 30
0.0
 11
0.0
 21
0.0
 31
0.0
 12
-1.0
 22
-0.16439898372402537
 32
0.0
 13
-1.0
 23
-0.16439898372402537
 33
0.0
  0
ENDBLK
  5
7C
330
7A
100
AcDbEntity
  8
0
100
AcDbBlockEnd
  0
BLOCK
  5
89
330
88
100
AcDbEntity
  8
0
100
AcDbBlockBegin
  2
*D2
 70
1
 10
0.0
 20
0.0
 30
0.0
  3
*D2
  1

  0
LINE
  5
8B
330
88
100
AcDbEntity
  8
0
100
AcDbLine
 10
991128.85622144
 20
87743.1811347753
 30
0.0
 11
991314.2482722439
 21
87743.1811347753
 31
0.0
  0
LINE
  5
8C
330
88
100
AcDbEntity
  8
0
100
AcDbLine
 10
991128.85622144
 20
88276.1709122262
 30
0.0
 11
991314.2482722439
 21
88276.1709122262
 31
0.0
  0
INSERT
  5
8D
330
88
100
AcDbEntity
  8
NAVVIX_DIMS
100
AcDbBlockReference
  2
_CLOSEDFILLED
 10
991312.9982722439
 20
87743.1811347753
 30
0.0
 41
30.0
 42
30.0
 50
270.0
  0
INSERT
  5
8F
330
88
100
AcDbEntity
  8
NAVVIX_DIMS
100
AcDbBlockReference
  2
_CLOSEDFILLED
 10
991312.9982722439
 20
88276.1709122262
 30
0.0
 41
30.0
 42
30.0
 50
90.0
  0
LINE
  5
91
330
88
100
AcDbEntity
  8
0
100
AcDbLine
 10
991312.9982722439
 20
87773.1811347753
 30
0.0
 11
991312.9982722439
 21
88246.1709122262
 31
0.0
  0
MTEXT
  5
92
330
88
100
AcDbEntity
  8
NAVVIX_DIMS
100
AcDbMText
 10
991287.9982722439
 20
88009.67602350074
 30
0.0
 40
30.0
 71
5
  1
532,99
 50
90.0
  0
POINT
  5
93
330
88
100
AcDbEntity
  8
Defpoints
100
AcDbPoint
 10
991312.9982722439
 20
87743.1811347753
 30
0.0
  0
POINT
  5
94
330
88
100
AcDbEntity
  8
Defpoints
100
AcDbPoint
 10
991128.23122144
 20
87743.1811347753
 30
0.0
  0
POINT
  5
95
330
88
100
AcDbEntity
  8
Defpoints
100
AcDbPoint
 10
991128.23122144
 20
88276.1709122262
 30
0.0
  0
ENDBLK
  5
8A
330
88
100
AcDbEntity
  8
0
100
AcDbBlockEnd
  0
BLOCK
  5
98
330
97
100
AcDbEntity
  8
0
100
AcDbBlockBegin
  2
*D3
 70
1
 10
0.0
 20
0.0
 30
0.0
  3
*D3
  1

  0
LINE
  5
9A
330
97
100
AcDbEntity
  8
0
100
AcDbLine
 10
991127.3016595433
 20
88276.1709122262
 30
0.0
 11
991247.2060331429
 21
88276.1709122262
 31
0.0
  0
LINE
  5
9B
330
97
100
AcDbEntity
  8
0
100
AcDbLine
 10
991127.3016595433
 20
88746.43754166584
 30
0.0
 11
991247.2060331429
 21
88746.43754166584
 31
0.0
  0
INSERT
  5
9C
330
97
100
AcDbEntity
  8
NAVVIX_DIMS
100
AcDbBlockReference
  2
_CLOSEDFILLED
 10
991245.9560331429
 20
88276.1709122262
 30
0.0
 41
30.0
 42
30.0
 50
270.0
  0
INSERT
  5
9E
330
97
100
AcDbEntity
  8
NAVVIX_DIMS
100
AcDbBlockReference
  2
_CLOSEDFILLED
 10
991245.9560331429
 20
88746.43754166584
 30
0.0
 41
30.0
 42
30.0
 50
90.0
  0
LINE
  5
A0
330
97
100
AcDbEntity
  8
0
100
AcDbLine
 10
991245.9560331429
 20
88306.1709122262
 30
0.0
 11
991245.9560331429
 21
88716.43754166584
 31
0.0
  0
MTEXT
  5
A1
330
97
100
AcDbEntity
  8
NAVVIX_DIMS
100
AcDbMText
 10
991220.9560331429
 20
88511.30422694603
 30
0.0
 40
30.0
 71
5
  1
470,27
 50
90.0
  0
POINT
  5
A2
330
97
100
AcDbEntity
  8
Defpoints
100
AcDbPoint
 10
991245.9560331429
 20
88276.1709122262
 30
0.0
  0
POINT
  5
A3
330
97
100
AcDbEntity
  8
Defpoints
100
AcDbPoint
 10
991126.6766595433
 20
88276.1709122262
 30
0.0
  0
POINT
  5
A4
330
97
100
AcDbEntity
  8
Defpoints
100
AcDbPoint
 10
991126.6766595433
 20
88746.43754166584
 30
0.0
  0
ENDBLK
  5
99
330
97
100
AcDbEntity
  8
0
100
AcDbBlockEnd
  0
BLOCK
  5
A7
330
A6
100
AcDbEntity
  8
0
100
AcDbBlockBegin
  2
*D4
 70
1
 10
0.0
 20
0.0
 30
0.0
  3
*D4
  1

  0
LINE
  5
A9
330
A6
100
AcDbEntity
  8
0
100
AcDbLine
 10
990679.4974649111
 20
87490.38872422258
 30
0.0
 11
990679.4974649111
 21
87252.33266071274
 31
0.0
  0
LINE
  5
AA
330
A6
100
AcDbEntity
  8
0
100
AcDbLine
 10
990961.3065369288
 20
87490.38872422258
 30
0.0
 11
990961.3065369288
 21
87252.33266071274
 31
0.0
  0
INSERT
  5
AB
330
A6
100
AcDbEntity
  8
NAVVIX_DIMS
100
AcDbBlockReference
  2
_CLOSEDFILLED
 10
990679.4974649111
 20
87253.58266071274
 30
0.0
 41
30.0
 42
30.0
 50
180.0
  0
INSERT
  5
AD
330
A6
100
AcDbEntity
  8
NAVVIX_DIMS
100
AcDbBlockReference
  2
_CLOSEDFILLED
 10
990961.3065369288
 20
87253.58266071274
 30
0.0
 41
30.0
 42
30.0
  0
LINE
  5
AF
330
A6
100
AcDbEntity
  8
0
100
AcDbLine
 10
990709.4974649111
 20
87253.58266071274
 30
0.0
 11
990931.3065369288
 21
87253.58266071274
 31
0.0
  0
MTEXT
  5
B0
330
A6
100
AcDbEntity
  8
NAVVIX_DIMS
100
AcDbMText
 10
990820.4020009199
 20
87278.58266071274
 30
0.0
 40
30.0
 71
5
  1
281,81
  0
POINT
  5
B1
330
A6
100
AcDbEntity
  8
Defpoints
100
AcDbPoint
 10
990679.4974649111
 20
87253.58266071274
 30
0.0
  0
POINT
  5
B2
330
A6
100
AcDbEntity
  8
Defpoints
100
AcDbPoint
 10
990679.4974649111
 20
87491.01372422258
 30
0.0
  0
POINT
  5
B3
330
A6
100
AcDbEntity
  8
Defpoints
100
AcDbPoint
 10
990961.3065369288
 20
87491.01372422258
 30
0.0
  0
ENDBLK
  5
A8
330
A6
100
AcDbEntity
  8
0
100
AcDbBlockEnd
  0
BLOCK
  5
B6
330
B5
100
AcDbEntity
  8
0
100
AcDbBlockBegin
  2
*D5
 70
1
 10
0.0
 20
0.0
 30
0.0
  3
*D5
  1

  0
LINE
  5
B8
330
B5
100
AcDbEntity
  8
0
100
AcDbLine
 10
990679.4974649111
 20
87436.89883530626
 30
0.0
 11
990679.4974649111
 21
87319.37489981379
 31
0.0
  0
LINE
  5
B9
330
B5
100
AcDbEntity
  8
0
100
AcDbLine
 10
990961.2448468367
 20
87436.89883530626
 30
0.0
 11
990961.2448468367
 21
87319.37489981379
 31
0.0
  0
INSERT
  5
BA
330
B5
100
AcDbEntity
  8
NAVVIX_DIMS
100
AcDbBlockReference
  2
_CLOSEDFILLED
 10
990679.4974649111
 20
87320.62489981379
 30
0.0
 41
30.0
 42
30.0
 50
180.0
  0
INSERT
  5
BC
330
B5
100
AcDbEntity
  8
NAVVIX_DIMS
100
AcDbBlockReference
  2
_CLOSEDFILLED
 10
990961.2448468367
 20
87320.62489981379
 30
0.0
 41
30.0
 42
30.0
  0
LINE
  5
BE
330
B5
100
AcDbEntity
  8
0
100
AcDbLine
 10
990709.4974649111
 20
87320.62489981379
 30
0.0
 11
990931.2448468367
 21
87320.62489981379
 31
0.0
  0
MTEXT
  5
BF
330
B5
100
AcDbEntity
  8
NAVVIX_DIMS
100
AcDbMText
 10
990820.3711558739
 20
87345.62489981379
 30
0.0
 40
30.0
 71
5
  1
281,75
  0
POINT
  5
C0
330
B5
100
AcDbEntity
  8
Defpoints
100
AcDbPoint
 10
990679.4974649111
 20
87320.62489981379
 30
0.0
  0
POINT
  5
C1
330
B5
100
AcDbEntity
  8
Defpoints
100
AcDbPoint
 10
990679.4974649111
 20
87437.52383530626
 30
0.0
  0
POINT
  5
C2
330
B5
100
AcDbEntity
  8
Defpoints
100
AcDbPoint
 10
990961.2448468367
 20
87437.52383530626
 30
0.0
  0
ENDBLK
  5
B7
330
B5
100
AcDbEntity
  8
0
100
AcDbBlockEnd
  0
BLOCK
  5
C5
330
C4
100
AcDbEntity
  8
0
100
AcDbBlockBegin
  2
*D6
 70
1
 10
0.0
 20
0.0
 30
0.0
  3
*D6
  1

  0
LINE
  5
C7
330
C4
100
AcDbEntity
  8
0
100
AcDbLine
 10
990680.1224649111
 20
87491.01372422258
 30
0.0
 11
991180.1637940418
 21
87491.01372422258
 31
0.0
  0
LINE
  5
C8
330
C4
100
AcDbEntity
  8
0
100
AcDbLine
 10
990680.1224649111
 20
88276.80769826673
 30
0.0
 11
991180.1637940418
 21
88276.80769826673
 31
0.0
  0
INSERT
  5
C9
330
C4
100
AcDbEntity
  8
NAVVIX_DIMS
100
AcDbBlockReference
  2
_CLOSEDFILLED
 10
991178.9137940418
 20
87491.01372422258
 30
0.0
 41
30.0
 42
30.0
 50
270.0
  0
INSERT
  5
CB
330
C4
100
AcDbEntity
  8
NAVVIX_DIMS
100
AcDbBlockReference
  2
_CLOSEDFILLED
 10
991178.9137940418
 20
88276.80769826673
 30
0.0
 41
30.0
 42
30.0
 50
90.0
  0
LINE
  5
CD
330
C4
100
AcDbEntity
  8
0
100
AcDbLine
 10
991178.9137940418
 20
87521.01372422258
 30
0.0
 11
991178.9137940418
 21
88246.80769826673
 31
0.0
  0
MTEXT
  5
CE
330
C4
100
AcDbEntity
  8
NAVVIX_DIMS
100
AcDbMText
 10
991153.9137940418
 20
87883.91071124465
 30
0.0
 40
30.0
 71
5
  1
785,79
 50
90.0
  0
POINT
  5
CF
330
C4
100
AcDbEntity
  8
Defpoints
100
AcDbPoint
 10
991178.9137940418
 20
87491.01372422258
 30
0.0
  0
POINT
  5
D0
330
C4
100
AcDbEntity
  8
Defpoints
100
AcDbPoint
 10
990679.4974649111
 20
87491.01372422258
 30
0.0
  0
POINT
  5
D1
330
C4
100
AcDbEntity
  8
Defpoints
100
AcDbPoint
 10
990679.4974649111
 20
88276.80769826673
 30
0.0
  0
ENDBLK
  5
C6
330
C4
100
AcDbEntity
  8
0
100
AcDbBlockEnd
  0
BLOCK
  5
D4
330
D3
100
AcDbEntity
  8
0
100
AcDbBlockBegin
  2
*D7
 70
1
 10
0.0
 20
0.0
 30
0.0
  3
*D7
  1

  0
LINE
  5
D6
330
D3
100
AcDbEntity
  8
0
100
AcDbLine
 10
989925.8795309016
 20
88131.25784978573
 30
0.0
 11
989925.8795309016
 21
88248.7817852782
 31
0.0
  0
LINE
  5
D7
330
D3
100
AcDbEntity
  8
0
100
AcDbLine
 10
990431.8847342829
 20
88131.25784978573
 30
0.0
 11
990431.8847342829
 21
88248.7817852782
 31
0.0
  0
INSERT
  5
D8
330
D3
100
AcDbEntity
  8
NAVVIX_DIMS
100
AcDbBlockReference
  2
_CLOSEDFILLED
 10
989925.8795309016
 20
88247.5317852782
 30
0.0
 41
30.0
 42
30.0
 50
180.0
  0
INSERT
  5
DA
330
D3
100
AcDbEntity
  8
NAVVIX_DIMS
100
AcDbBlockReference
  2
_CLOSEDFILLED
 10
990431.8847342829
 20
88247.5317852782
 30
0.0
 41
30.0
 42
30.0
  0
LINE
  5
DC
330
D3
100
AcDbEntity
  8
0
100
AcDbLine
 10
989955.8795309016
 20
88247.5317852782
 30
0.0
 11
990401.8847342829
 21
88247.5317852782
 31
0.0
  0
MTEXT
  5
DD
330
D3
100
AcDbEntity
  8
NAVVIX_DIMS
100
AcDbMText
 10
990178.8821325921
 20
88272.5317852782
 30
0.0
 40
30.0
 71
5
  1
506,01
  0
POINT
  5
DE
330
D3
100
AcDbEntity
  8
Defpoints
100
AcDbPoint
 10
989925.8795309016
 20
88247.5317852782
 30
0.0
  0
POINT
  5
DF
330
D3
100
AcDbEntity
  8
Defpoints
100
AcDbPoint
 10
989925.8795309016
 20
88130.63284978573
 30
0.0
  0
POINT
  5
E0
330
D3
100
AcDbEntity
  8
Defpoints
100
AcDbPoint
 10
990431.8847342829
 20
88130.63284978573
 30
0.0
  0
ENDBLK
  5
D5
330
D3
100
AcDbEntity
  8
0
100
AcDbBlockEnd
  0
BLOCK
  5
E3
330
E2
100
AcDbEntity
  8
0
100
AcDbBlockBegin
  2
*D8
 70
1
 10
0.0
 20
0.0
 30
0.0
  3
*D8
  1

  0
LINE
  5
E5
330
E2
100
AcDbEntity
  8
0
100
AcDbLine
 10
989929.3688966132
 20
88014.58716796603
 30
0.0
 11
989811.8449611207
 21
88014.58716796603
 31
0.0
  0
LINE
  5
E6
330
E2
100
AcDbEntity
  8
0
100
AcDbLine
 10
989929.3688966132
 20
88464.58716796603
 30
0.0
 11
989811.8449611207
 21
88464.58716796603
 31
0.0
  0
INSERT
  5
E7
330
E2
100
AcDbEntity
  8
NAVVIX_DIMS
100
AcDbBlockReference
  2
_CLOSEDFILLED
 10
989813.0949611207
 20
88014.58716796603
 30
0.0
 41
30.0
 42
30.0
 50
270.0
  0
INSERT
  5
E9
330
E2
100
AcDbEntity
  8
NAVVIX_DIMS
100
AcDbBlockReference
  2
_CLOSEDFILLED
 10
989813.0949611207
 20
88464.58716796603
 30
0.0
 41
30.0
 42
30.0
 50
90.0
  0
LINE
  5
EB
330
E2
100
AcDbEntity
  8
0
100
AcDbLine
 10
989813.0949611207
 20
88044.58716796603
 30
0.0
 11
989813.0949611207
 21
88434.58716796603
 31
0.0
  0
MTEXT
  5
EC
330
E2
100
AcDbEntity
  8
NAVVIX_DIMS
100
AcDbMText
 10
989788.0949611207
 20
88239.58716796603
 30
0.0
 40
30.0
 71
5
  1
450
 50
90.0
  0
POINT
  5
ED
330
E2
100
AcDbEntity
  8
Defpoints
100
AcDbPoint
 10
989813.0949611207
 20
88014.58716796603
 30
0.0
  0
POINT
  5
EE
330
E2
100
AcDbEntity
  8
Defpoints
100
AcDbPoint
 10
989929.9938966132
 20
88014.58716796603
 30
0.0
  0
POINT
  5
EF
330
E2
100
AcDbEntity
  8
Defpoints
100
AcDbPoint
 10
989929.9938966132
 20
88464.58716796603
 30
0.0
  0
ENDBLK
  5
E4
330
E2
100
AcDbEntity
  8
0
100
AcDbBlockEnd
  0
BLOCK
  5
F2
330
F1
100
AcDbEntity
  8
0
100
AcDbBlockBegin
  2
*D9
 70
1
 10
0.0
 20
0.0
 30
0.0
  3
*D9
  1

  0
LINE
  5
F4
330
F1
100
AcDbEntity
  8
0
100
AcDbLine
 10
990679.4974649111
 20
88277.11430524645
 30
0.0
 11
990679.4974649111
 21
88864.58647715831
 31
0.0
  0
LINE
  5
F5
330
F1
100
AcDbEntity
  8
0
100
AcDbLine
 10
991127.4055164771
 20
88277.11430524645
 30
0.0
 11
991127.4055164771
 21
88864.58647715831
 31
0.0
  0
INSERT
  5
F6
330
F1
100
AcDbEntity
  8
NAVVIX_DIMS
100
AcDbBlockReference
  2
_CLOSEDFILLED
 10
990679.4974649111
 20
88863.33647715831
 30
0.0
 41
30.0
 42
30.0
 50
180.0
  0
INSERT
  5
F8
330
F1
100
AcDbEntity
  8
NAVVIX_DIMS
100
AcDbBlockReference
  2
_CLOSEDFILLED
 10
991127.4055164771
 20
88863.33647715831
 30
0.0
 41
30.0
 42
30.0
  0
LINE
  5
FA
330
F1
100
AcDbEntity
  8
0
100
AcDbLine
 10
990709.4974649111
 20
88863.33647715831
 30
0.0
 11
991097.4055164771
 21
88863.33647715831
 31
0.0
  0
MTEXT
  5
FB
330
F1
100
AcDbEntity
  8
NAVVIX_DIMS
100
AcDbMText
 10
990903.4514906941
 20
88888.33647715831
 30
0.0
 40
30.0
 71
5
  1
447,91
  0
POINT
  5
FC
330
F1
100
AcDbEntity
  8
Defpoints
100
AcDbPoint
 10
990679.4974649111
 20
88863.33647715831
 30
0.0
  0
POINT
  5
FD
330
F1
100
AcDbEntity
  8
Defpoints
100
AcDbPoint
 10
990679.4974649111
 20
88276.48930524645
 30
0.0
  0
POINT
  5
FE
330
F1
100
AcDbEntity
  8
Defpoints
100
AcDbPoint
 10
991127.4055164771
 20
88276.48930524645
 30
0.0
  0
ENDBLK
  5
F3
330
F1
100
AcDbEntity
  8
0
100
AcDbBlockEnd
  0
BLOCK
  5
101
330
100
100
AcDbEntity
  8
0
100
AcDbBlockBegin
  2
*D10
 70
1
 10
0.0
 20
0.0
 30
0.0
  3
*D10
  1

  0
LINE
  5
103
330
100
100
AcDbEntity
  8
0
100
AcDbLine
 10
990679.4974649111
 20
88092.76474650594
 30
0.0
 11
990679.4974649111
 21
88277.33092109946
 31
0.0
  0
LINE
  5
104
330
100
100
AcDbEntity
  8
0
100
AcDbLine
 10
991125.5571286837
 20
88092.76474650594
 30
0.0
 11
991125.5571286837
 21
88277.33092109946
 31
0.0
  0
INSERT
  5
105
330
100
100
AcDbEntity
  8
NAVVIX_DIMS
100
AcDbBlockReference
  2
_CLOSEDFILLED
 10
990679.4974649111
 20
88276.08092109946
 30
0.0
 41
30.0
 42
30.0
 50
180.0
  0
INSERT
  5
107
330
100
100
AcDbEntity
  8
NAVVIX_DIMS
100
AcDbBlockReference
  2
_CLOSEDFILLED
 10
991125.5571286837
 20
88276.08092109946
 30
0.0
 41
30.0
 42
30.0
  0
LINE
  5
109
330
100
100
AcDbEntity
  8
0
100
AcDbLine
 10
990709.4974649111
 20
88276.08092109946
 30
0.0
 11
991095.5571286837
 21
88276.08092109946
 31
0.0
  0
MTEXT
  5
10A
330
100
100
AcDbEntity
  8
NAVVIX_DIMS
100
AcDbMText
 10
990902.5272967974
 20
88301.08092109946
 30
0.0
 40
30.0
 71
5
  1
446,06
  0
POINT
  5
10B
330
100
100
AcDbEntity
  8
Defpoints
100
AcDbPoint
 10
990679.4974649111
 20
88276.08092109946
 30
0.0
  0
POINT
  5
10C
330
100
100
AcDbEntity
  8
Defpoints
100
AcDbPoint
 10
990679.4974649111
 20
88092.13974650594
 30
0.0
  0
POINT
  5
10D
330
100
100
AcDbEntity
  8
Defpoints
100
AcDbPoint
 10
991125.5571286837
 20
88092.13974650594
 30
0.0
  0
ENDBLK
  5
102
330
100
100
AcDbEntity
  8
0
100
AcDbBlockEnd
  0
BLOCK
  5
110
330
10F
100
AcDbEntity
  8
0
100
AcDbBlockBegin
  2
*D11
 70
1
 10
0.0
 20
0.0
 30
0.0
  3
*D11
  1

  0
LINE
  5
112
330
10F
100
AcDbEntity
  8
0
100
AcDbLine
 10
990961.8698468367
 20
87437.52383530626
 30
0.0
 11
991247.2060331429
 21
87437.52383530626
 31
0.0
  0
LINE
  5
113
330
10F
100
AcDbEntity
  8
0
100
AcDbLine
 10
990961.8698468367
 20
87882.00035312297
 30
0.0
 11
991247.2060331429
 21
87882.00035312297
 31
0.0
  0
INSERT
  5
114
330
10F
100
AcDbEntity
  8
NAVVIX_DIMS
100
AcDbBlockReference
  2
_CLOSEDFILLED
 10
991245.9560331429
 20
87437.52383530626
 30
0.0
 41
30.0
 42
30.0
 50
270.0
  0
INSERT
  5
116
330
10F
100
AcDbEntity
  8
NAVVIX_DIMS
100
AcDbBlockReference
  2
_CLOSEDFILLED
 10
991245.9560331429
 20
87882.00035312297
 30
0.0
 41
30.0
 42
30.0
 50
90.0
  0
LINE
  5
118
330
10F
100
AcDbEntity
  8
0
100
AcDbLine
 10
991245.9560331429
 20
87467.52383530626
 30
0.0
 11
991245.9560331429
 21
87852.00035312297
 31
0.0
  0
MTEXT
  5
119
330
10F
100
AcDbEntity
  8
NAVVIX_DIMS
100
AcDbMText
 10
991220.9560331429
 20
87659.76209421462
 30
0.0
 40
30.0
 71
5
  1
444,48
 50
90.0
  0
POINT
  5
11A
330
10F
100
AcDbEntity
  8
Defpoints
100
AcDbPoint
 10
991245.9560331429
 20
87437.52383530626
 30
0.0
  0
POINT
  5
11B
330
10F
100
AcDbEntity
  8
Defpoints
100
AcDbPoint
 10
990961.2448468367
 20
87437.52383530626
 30
0.0
  0
POINT
  5
11C
330
10F
100
AcDbEntity
  8
Defpoints
100
AcDbPoint
 10
990961.2448468367
 20
87882.00035312297
 30
0.0
  0
ENDBLK
  5
111
330
10F
100
AcDbEntity
  8
0
100
AcDbBlockEnd
  0
BLOCK
  5
11F
330
11E
100
AcDbEntity
  8
0
100
AcDbBlockBegin
  2
*D12
 70
1
 10
0.0
 20
0.0
 30
0.0
  3
*D12
  1

  0
LINE
  5
121
330
11E
100
AcDbEntity
  8
0
100
AcDbLine
 10
989992.2052233277
 20
88066.25828251691
 30
0.0
 11
989992.2052233277
 21
87948.73434702444
 31
0.0
  0
LINE
  5
122
330
11E
100
AcDbEntity
  8
0
100
AcDbLine
 10
990431.8847342826
 20
88066.25828251691
 30
0.0
 11
990431.8847342826
 21
87948.73434702444
 31
0.0
  0
INSERT
  5
123
330
11E
100
AcDbEntity
  8
NAVVIX_DIMS
100
AcDbBlockReference
  2
_CLOSEDFILLED
 10
989992.2052233277
 20
87949.98434702444
 30
0.0
 41
30.0
 42
30.0
 50
180.0
  0
INSERT
  5
125
330
11E
100
AcDbEntity
  8
NAVVIX_DIMS
100
AcDbBlockReference
  2
_CLOSEDFILLED
 10
990431.8847342826
 20
87949.98434702444
 30
0.0
 41
30.0
 42
30.0
  0
LINE
  5
127
330
11E
100
AcDbEntity
  8
0
100
AcDbLine
 10
990022.2052233277
 20
87949.98434702444
 30
0.0
 11
990401.8847342826
 21
87949.98434702444
 31
0.0
  0
MTEXT
  5
128
330
11E
100
AcDbEntity
  8
NAVVIX_DIMS
100
AcDbMText
 10
990212.0449788051
 20
87974.98434702444
 30
0.0
 40
30.0
 71
5
  1
439,68
  0
POINT
  5
129
330
11E
100
AcDbEntity
  8
Defpoints
100
AcDbPoint
 10
989992.2052233277
 20
87949.98434702444
 30
0.0
  0
POINT
  5
12A
330
11E
100
AcDbEntity
  8
Defpoints
100
AcDbPoint
 10
989992.2052233277
 20
88066.88328251691
 30
0.0
  0
POINT
  5
12B
330
11E
100
AcDbEntity
  8
Defpoints
100
AcDbPoint
 10
990431.8847342826
 20
88066.88328251691
 30
0.0
  0
ENDBLK
  5
120
330
11E
100
AcDbEntity
  8
0
100
AcDbBlockEnd
  0
BLOCK
  5
12E
330
12D
100
AcDbEntity
  8
0
100
AcDbBlockBegin
  2
*D13
 70
1
 10
0.0
 20
0.0
 30
0.0
  3
*D13
  1

  0
LINE
  5
130
330
12D
100
AcDbEntity
  8
0
100
AcDbLine
 10
990850.2811257998
 20
87483.73550569537
 30
0.0
 11
991034.8473003933
 21
87483.73550569537
 31
0.0
  0
LINE
  5
131
330
12D
100
AcDbEntity
  8
0
100
AcDbLine
 10
990850.2811257998
 20
87881.00035312297
 30
0.0
 11
991034.8473003933
 21
87881.00035312297
 31
0.0
  0
INSERT
  5
132
330
12D
100
AcDbEntity
  8
NAVVIX_DIMS
100
AcDbBlockReference
  2
_CLOSEDFILLED
 10
991033.5973003933
 20
87483.73550569537
 30
0.0
 41
30.0
 42
30.0
 50
270.0
  0
INSERT
  5
134
330
12D
100
AcDbEntity
  8
NAVVIX_DIMS
100
AcDbBlockReference
  2
_CLOSEDFILLED
 10
991033.5973003933
 20
87881.00035312297
 30
0.0
 41
30.0
 42
30.0
 50
90.0
  0
LINE
  5
136
330
12D
100
AcDbEntity
  8
0
100
AcDbLine
 10
991033.5973003933
 20
87513.73550569537
 30
0.0
 11
991033.5973003933
 21
87851.00035312297
 31
0.0
  0
MTEXT
  5
137
330
12D
100
AcDbEntity
  8
NAVVIX_DIMS
100
AcDbMText
 10
991008.5973003933
 20
87682.36792940917
 30
0.0
 40
30.0
 71
5
  1
397,26
 50
90.0
  0
POINT
  5
138
330
12D
100
AcDbEntity
  8
Defpoints
100
AcDbPoint
 10
991033.5973003933
 20
87483.73550569537
 30
0.0
  0
POINT
  5
139
330
12D
100
AcDbEntity
  8
Defpoints
100
AcDbPoint
 10
990849.6561257998
 20
87483.73550569537
 30
0.0
  0
POINT
  5
13A
330
12D
100
AcDbEntity
  8
Defpoints
100
AcDbPoint
 10
990849.6561257998
 20
87881.00035312297
 30
0.0
  0
ENDBLK
  5
12F
330
12D
100
AcDbEntity
  8
0
100
AcDbBlockEnd
  0
BLOCK
  5
13D
330
13C
100
AcDbEntity
  8
0
100
AcDbBlockBegin
  2
*D14
 70
1
 10
0.0
 20
0.0
 30
0.0
  3
*D14
  1

  0
LINE
  5
13F
330
13C
100
AcDbEntity
  8
0
100
AcDbLine
 10
990790.2811257999
 20
87483.73550569537
 30
0.0
 11
990974.8473003934
 21
87483.73550569537
 31
0.0
  0
LINE
  5
140
330
13C
100
AcDbEntity
  8
0
100
AcDbLine
 10
990790.2811257999
 20
87881.00035312297
 30
0.0
 11
990974.8473003934
 21
87881.00035312297
 31
0.0
  0
INSERT
  5
141
330
13C
100
AcDbEntity
  8
NAVVIX_DIMS
100
AcDbBlockReference
  2
_CLOSEDFILLED
 10
990973.5973003934
 20
87483.73550569537
 30
0.0
 41
30.0
 42
30.0
 50
270.0
  0
INSERT
  5
143
330
13C
100
AcDbEntity
  8
NAVVIX_DIMS
100
AcDbBlockReference
  2
_CLOSEDFILLED
 10
990973.5973003934
 20
87881.00035312297
 30
0.0
 41
30.0
 42
30.0
 50
90.0
  0
LINE
  5
145
330
13C
100
AcDbEntity
  8
0
100
AcDbLine
 10
990973.5973003934
 20
87513.73550569537
 30
0.0
 11
990973.5973003934
 21
87851.00035312297
 31
0.0
  0
MTEXT
  5
146
330
13C
100
AcDbEntity
  8
NAVVIX_DIMS
100
AcDbMText
 10
990948.5973003934
 20
87682.36792940917
 30
0.0
 40
30.0
 71
5
  1
397,26
 50
90.0
  0
POINT
  5
147
330
13C
100
AcDbEntity
  8
Defpoints
100
AcDbPoint
 10
990973.5973003934
 20
87483.73550569537
 30
0.0
  0
POINT
  5
148
330
13C
100
AcDbEntity
  8
Defpoints
100
AcDbPoint
 10
990789.6561257999
 20
87483.73550569537
 30
0.0
  0
POINT
  5
149
330
13C
100
AcDbEntity
  8
Defpoints
100
AcDbPoint
 10
990789.6561257999
 20
87881.00035312297
 30
0.0
  0
ENDBLK
  5
13E
330
13C
100
AcDbEntity
  8
0
100
AcDbBlockEnd
  0
BLOCK
  5
14C
330
14B
100
AcDbEntity
  8
0
100
AcDbBlockBegin
  2
*D15
 70
1
 10
0.0
 20
0.0
 30
0.0
  3
*D15
  1

  0
LINE
  5
14E
330
14B
100
AcDbEntity
  8
0
100
AcDbLine
 10
990677.5255776382
 20
87881.37535312299
 30
0.0
 11
990677.5255776382
 21
87386.41713891483
 31
0.0
  0
LINE
  5
14F
330
14B
100
AcDbEntity
  8
0
100
AcDbLine
 10
990960.3065369289
 20
87881.37535312299
 30
0.0
 11
990960.3065369289
 21
87386.41713891483
 31
0.0
  0
INSERT
  5
150
330
14B
100
AcDbEntity
  8
NAVVIX_DIMS
100
AcDbBlockReference
  2
_CLOSEDFILLED
 10
990677.5255776382
 20
87387.66713891483
 30
0.0
 41
30.0
 42
30.0
 50
180.0
  0
INSERT
  5
152
330
14B
100
AcDbEntity
  8
NAVVIX_DIMS
100
AcDbBlockReference
  2
_CLOSEDFILLED
 10
990960.3065369289
 20
87387.66713891483
 30
0.0
 41
30.0
 42
30.0
  0
LINE
  5
154
330
14B
100
AcDbEntity
  8
0
100
AcDbLine
 10
990707.5255776382
 20
87387.66713891483
 30
0.0
 11
990930.3065369289
 21
87387.66713891483
 31
0.0
  0
MTEXT
  5
155
330
14B
100
AcDbEntity
  8
NAVVIX_DIMS
100
AcDbMText
 10
990818.9160572835
 20
87412.66713891483
 30
0.0
 40
30.0
 71
5
  1
282,78
  0
POINT
  5
156
330
14B
100
AcDbEntity
  8
Defpoints
100
AcDbPoint
 10
990677.5255776382
 20
87387.66713891483
 30
0.0
  0
POINT
  5
157
330
14B
100
AcDbEntity
  8
Defpoints
100
AcDbPoint
 10
990677.5255776382
 20
87882.00035312299
 30
0.0
  0
POINT
  5
158
330
14B
100
AcDbEntity
  8
Defpoints
100
AcDbPoint
 10
990960.3065369289
 20
87882.00035312299
 30
0.0
  0
ENDBLK
  5
14D
330
14B
100
AcDbEntity
  8
0
100
AcDbBlockEnd
  0
BLOCK
  5
15B
330
15A
100
AcDbEntity
  8
0
100
AcDbBlockBegin
  2
*D16
 70
1
 10
0.0
 20
0.0
 30
0.0
  3
*D16
  1

  0
LINE
  5
15D
330
15A
100
AcDbEntity
  8
0
100
AcDbLine
 10
990680.4817511314
 20
87756.36966033
 30
0.0
 11
990680.4817511314
 21
87252.33266071274
 31
0.0
  0
LINE
  5
15E
330
15A
100
AcDbEntity
  8
0
100
AcDbLine
 10
990960.3065369289
 20
87756.36966033
 30
0.0
 11
990960.3065369289
 21
87252.33266071274
 31
0.0
  0
INSERT
  5
15F
330
15A
100
AcDbEntity
  8
NAVVIX_DIMS
100
AcDbBlockReference
  2
_CLOSEDFILLED
 10
990680.4817511314
 20
87253.58266071274
 30
0.0
 41
30.0
 42
30.0
 50
180.0
  0
INSERT
  5
161
330
15A
100
AcDbEntity
  8
NAVVIX_DIMS
100
AcDbBlockReference
  2
_CLOSEDFILLED
 10
990960.3065369289
 20
87253.58266071274
 30
0.0
 41
30.0
 42
30.0
  0
LINE
  5
163
330
15A
100
AcDbEntity
  8
0
100
AcDbLine
 10
990710.4817511314
 20
87253.58266071274
 30
0.0
 11
990930.3065369289
 21
87253.58266071274
 31
0.0
  0
MTEXT
  5
164
330
15A
100
AcDbEntity
  8
NAVVIX_DIMS
100
AcDbMText
 10
990820.39414403
 20
87278.58266071274
 30
0.0
 40
30.0
 71
5
  1
279,82
  0
POINT
  5
165
330
15A
100
AcDbEntity
  8
Defpoints
100
AcDbPoint
 10
990680.4817511314
 20
87253.58266071274
 30
0.0
  0
POINT
  5
166
330
15A
100
AcDbEntity
  8
Defpoints
100
AcDbPoint
 10
990680.4817511314
 20
87756.99466033
 30
0.0
  0
POINT
  5
167
330
15A
100
AcDbEntity
  8
Defpoints
100
AcDbPoint
 10
990960.3065369289
 20
87756.99466033
 30
0.0
  0
ENDBLK
  5
15C
330
15A
100
AcDbEntity
  8
0
100
AcDbBlockEnd
  0
BLOCK
  5
16A
330
169
100
AcDbEntity
  8
0
100
AcDbBlockBegin
  2
*D17
 70
1
 10
0.0
 20
0.0
 30
0.0
  3
*D17
  1

  0
LINE
  5
16C
330
169
100
AcDbEntity
  8
0
100
AcDbLine
 10
989929.9938966132
 20
88015.0118871587
 30
0.0
 11
989929.9938966132
 21
87829.39599337251
 31
0.0
  0
LINE
  5
16D
330
169
100
AcDbEntity
  8
0
100
AcDbLine
 10
990683.316448762
 20
88015.0118871587
 30
0.0
 11
990683.316448762
 21
87829.39599337251
 31
0.0
  0
INSERT
  5
16E
330
169
100
AcDbEntity
  8
NAVVIX_DIMS
100
AcDbBlockReference
  2
_CLOSEDFILLED
 10
989929.9938966132
 20
87830.64599337251
 30
0.0
 41
30.0
 42
30.0
 50
180.0
  0
INSERT
  5
170
330
169
100
AcDbEntity
  8
NAVVIX_DIMS
100
AcDbBlockReference
  2
_CLOSEDFILLED
 10
990683.316448762
 20
87830.64599337251
 30
0.0
 41
30.0
 42
30.0
  0
LINE
  5
172
330
169
100
AcDbEntity
  8
0
100
AcDbLine
 10
989959.9938966132
 20
87830.64599337251
 30
0.0
 11
990653.316448762
 21
87830.64599337251
 31
0.0
  0
MTEXT
  5
173
330
169
100
AcDbEntity
  8
NAVVIX_DIMS
100
AcDbMText
 10
990306.6551726876
 20
87855.64599337251
 30
0.0
 40
30.0
 71
5
  1
753,32
  0
POINT
  5
174
330
169
100
AcDbEntity
  8
Defpoints
100
AcDbPoint
 10
989929.9938966132
 20
87830.64599337251
 30
0.0
  0
POINT
  5
175
330
169
100
AcDbEntity
  8
Defpoints
100
AcDbPoint
 10
989929.9938966132
 20
88015.6368871587
 30
0.0
  0
POINT
  5
176
330
169
100
AcDbEntity
  8
Defpoints
100
AcDbPoint
 10
990683.316448762
 20
88015.6368871587
 30
0.0
  0
ENDBLK
  5
16B
330
169
100
AcDbEntity
  8
0
100
AcDbBlockEnd
  0
BLOCK
  5
179
330
178
100
AcDbEntity
  8
0
100
AcDbBlockBegin
  2
*D18
 70
1
 10
0.0
 20
0.0
 30
0.0
  3
*D18
  1

  0
LINE
  5
17B
330
178
100
AcDbEntity
  8
0
100
AcDbLine
 10
989929.9938966132
 20
88465.21216796603
 30
0.0
 11
989929.9938966132
 21
88595.69386435748
 31
0.0
  0
LINE
  5
17C
330
178
100
AcDbEntity
  8
0
100
AcDbLine
 10
990644.9938966132
 20
88465.21216796603
 30
0.0
 11
990644.9938966132
 21
88595.69386435748
 31
0.0
  0
INSERT
  5
17D
330
178
100
AcDbEntity
  8
NAVVIX_DIMS
100
AcDbBlockReference
  2
_CLOSEDFILLED
 10
989929.9938966132
 20
88594.44386435748
 30
0.0
 41
30.0
 42
30.0
 50
180.0
  0
INSERT
  5
17F
330
178
100
AcDbEntity
  8
NAVVIX_DIMS
100
AcDbBlockReference
  2
_CLOSEDFILLED
 10
990644.9938966132
 20
88594.44386435748
 30
0.0
 41
30.0
 42
30.0
  0
LINE
  5
181
330
178
100
AcDbEntity
  8
0
100
AcDbLine
 10
989959.9938966132
 20
88594.44386435748
 30
0.0
 11
990614.9938966132
 21
88594.44386435748
 31
0.0
  0
MTEXT
  5
182
330
178
100
AcDbEntity
  8
NAVVIX_DIMS
100
AcDbMText
 10
990287.4938966132
 20
88619.44386435748
 30
0.0
 40
30.0
 71
5
  1
715
  0
POINT
  5
183
330
178
100
AcDbEntity
  8
Defpoints
100
AcDbPoint
 10
989929.9938966132
 20
88594.44386435748
 30
0.0
  0
POINT
  5
184
330
178
100
AcDbEntity
  8
Defpoints
100
AcDbPoint
 10
989929.9938966132
 20
88464.58716796603
 30
0.0
  0
POINT
  5
185
330
178
100
AcDbEntity
  8
Defpoints
100
AcDbPoint
 10
990644.9938966132
 20
88464.58716796603
 30
0.0
  0
ENDBLK
  5
17A
330
178
100
AcDbEntity
  8
0
100
AcDbBlockEnd
  0
BLOCK
  5
188
330
187
100
AcDbEntity
  8
0
100
AcDbBlockBegin
  2
*D19
 70
1
 10
0.0
 20
0.0
 30
0.0
  3
*D19
  1

  0
LINE
  5
18A
330
187
100
AcDbEntity
  8
0
100
AcDbLine
 10
990679.4974649111
 20
87436.89883530626
 30
0.0
 11
990679.4974649111
 21
87206.34736706436
 31
0.0
  0
LINE
  5
18B
330
187
100
AcDbEntity
  8
0
100
AcDbLine
 10
990961.2448468367
 20
87436.89883530626
 30
0.0
 11
990961.2448468367
 21
87206.34736706436
 31
0.0
  0
INSERT
  5
18C
330
187
100
AcDbEntity
  8
NAVVIX_DIMS
100
AcDbBlockReference
  2
_CLOSEDFILLED
 10
990679.4974649111
 20
87207.59736706436
 30
0.0
 41
30.0
 42
30.0
 50
180.0
  0
INSERT
  5
18E
330
187
100
AcDbEntity
  8
NAVVIX_DIMS
100
AcDbBlockReference
  2
_CLOSEDFILLED
 10
990961.2448468367
 20
87207.59736706436
 30
0.0
 41
30.0
 42
30.0
  0
LINE
  5
190
330
187
100
AcDbEntity
  8
0
100
AcDbLine
 10
990709.4974649111
 20
87207.59736706436
 30
0.0
 11
990931.2448468367
 21
87207.59736706436
 31
0.0
  0
MTEXT
  5
191
330
187
100
AcDbEntity
  8
NAVVIX_DIMS
100
AcDbMText
 10
990820.3711558739
 20
87232.59736706436
 30
0.0
 40
30.0
 71
5
  1
281,75
  0
POINT
  5
192
330
187
100
AcDbEntity
  8
Defpoints
100
AcDbPoint
 10
990679.4974649111
 20
87207.59736706436
 30
0.0
  0
POINT
  5
193
330
187
100
AcDbEntity
  8
Defpoints
100
AcDbPoint
 10
990679.4974649111
 20
87437.52383530626
 30
0.0
  0
POINT
  5
194
330
187
100
AcDbEntity
  8
Defpoints
100
AcDbPoint
 10
990961.2448468367
 20
87437.52383530626
 30
0.0
  0
ENDBLK
  5
189
330
187
100
AcDbEntity
  8
0
100
AcDbBlockEnd
  0
BLOCK
  5
197
330
196
100
AcDbEntity
  8
0
100
AcDbBlockBegin
  2
*D20
 70
1
 10
0.0
 20
0.0
 30
0.0
  3
*D20
  1

  0
LINE
  5
199
330
196
100
AcDbEntity
  8
0
100
AcDbLine
 10
990679.4974649111
 20
87490.38872422258
 30
0.0
 11
990679.4974649111
 21
87206.34736706436
 31
0.0
  0
LINE
  5
19A
330
196
100
AcDbEntity
  8
0
100
AcDbLine
 10
990961.3065369288
 20
87490.38872422258
 30
0.0
 11
990961.3065369288
 21
87206.34736706436
 31
0.0
  0
INSERT
  5
19B
330
196
100
AcDbEntity
  8
NAVVIX_DIMS
100
AcDbBlockReference
  2
_CLOSEDFILLED
 10
990679.4974649111
 20
87207.59736706436
 30
0.0
 41
30.0
 42
30.0
 50
180.0
  0
INSERT
  5
19D
330
196
100
AcDbEntity
  8
NAVVIX_DIMS
100
AcDbBlockReference
  2
_CLOSEDFILLED
 10
990961.3065369288
 20
87207.59736706436
 30
0.0
 41
30.0
 42
30.0
  0
LINE
  5
19F
330
196
100
AcDbEntity
  8
0
100
AcDbLine
 10
990709.4974649111
 20
87207.59736706436
 30
0.0
 11
990931.3065369288
 21
87207.59736706436
 31
0.0
  0
MTEXT
  5
1A0
330
196
100
AcDbEntity
  8
NAVVIX_DIMS
100
AcDbMText
 10
990820.4020009199
 20
87232.59736706436
 30
0.0
 40
30.0
 71
5
  1
281,81
  0
POINT
  5
1A1
330
196
100
AcDbEntity
  8
Defpoints
100
AcDbPoint
 10
990679.4974649111
 20
87207.59736706436
 30
0.0
  0
POINT
  5
1A2
330
196
100
AcDbEntity
  8
Defpoints
100
AcDbPoint
 10
990679.4974649111
 20
87491.01372422258
 30
0.0
  0
POINT
  5
1A3
330
196
100
AcDbEntity
  8
Defpoints
100
AcDbPoint
 10
990961.3065369288
 20
87491.01372422258
 30
0.0
  0
ENDBLK
  5
198
330
196
100
AcDbEntity
  8
0
100
AcDbBlockEnd
  0
BLOCK
  5
1A6
330
1A5
100
AcDbEntity
  8
0
100
AcDbBlockBegin
  2
*D21
 70
1
 10
0.0
 20
0.0
 30
0.0
  3
*D21
  1

  0
LINE
  5
1A8
330
1A5
100
AcDbEntity
  8
0
100
AcDbLine
 10
989727.2248974005
 20
87816.86911615482
 30
0.0
 11
989492.8695820716
 21
87816.86911615482
 31
0.0
  0
LINE
  5
1A9
330
1A5
100
AcDbEntity
  8
0
100
AcDbLine
 10
989727.2248974005
 20
88746.43754166584
 30
0.0
 11
989492.8695820716
 21
88746.43754166584
 31
0.0
  0
INSERT
  5
1AA
330
1A5
100
AcDbEntity
  8
NAVVIX_DIMS
100
AcDbBlockReference
  2
_CLOSEDFILLED
 10
989494.1195820716
 20
87816.86911615482
 30
0.0
 41
30.0
 42
30.0
 50
270.0
  0
INSERT
  5
1AC
330
1A5
100
AcDbEntity
  8
NAVVIX_DIMS
100
AcDbBlockReference
  2
_CLOSEDFILLED
 10
989494.1195820716
 20
88746.43754166584
 30
0.0
 41
30.0
 42
30.0
 50
90.0
  0
LINE
  5
1AE
330
1A5
100
AcDbEntity
  8
0
100
AcDbLine
 10
989494.1195820716
 20
87846.86911615482
 30
0.0
 11
989494.1195820716
 21
88716.43754166584
 31
0.0
  0
MTEXT
  5
1AF
330
1A5
100
AcDbEntity
  8
NAVVIX_DIMS
100
AcDbMText
 10
989469.1195820716
 20
88281.65332891032
 30
0.0
 40
30.0
 71
5
  1
929,57
 50
90.0
  0
POINT
  5
1B0
330
1A5
100
AcDbEntity
  8
Defpoints
100
AcDbPoint
 10
989494.1195820716
 20
87816.86911615482
 30
0.0
  0
POINT
  5
1B1
330
1A5
100
AcDbEntity
  8
Defpoints
100
AcDbPoint
 10
989727.8498974005
 20
87816.86911615482
 30
0.0
  0
POINT
  5
1B2
330
1A5
100
AcDbEntity
  8
Defpoints
100
AcDbPoint
 10
989727.8498974005
 20
88746.43754166584
 30
0.0
  0
ENDBLK
  5
1A7
330
1A5
100
AcDbEntity
  8
0
100
AcDbBlockEnd
  0
BLOCK
  5
1B5
330
1B4
100
AcDbEntity
  8
0
100
AcDbBlockBegin
  2
*D22
 70
1
 10
0.0
 20
0.0
 30
0.0
  3
*D22
  1

  0
LINE
  5
1B7
330
1B4
100
AcDbEntity
  8
0
100
AcDbLine
 10
991128.0789404917
 20
87743.1811347753
 30
0.0
 11
991360.2335658922
 21
87743.1811347753
 31
0.0
  0
LINE
  5
1B8
330
1B4
100
AcDbEntity
  8
0
100
AcDbLine
 10
991128.0789404917
 20
88746.43754166584
 30
0.0
 11
991360.2335658922
 21
88746.43754166584
 31
0.0
  0
INSERT
  5
1B9
330
1B4
100
AcDbEntity
  8
NAVVIX_DIMS
100
AcDbBlockReference
  2
_CLOSEDFILLED
 10
991358.9835658922
 20
87743.1811347753
 30
0.0
 41
30.0
 42
30.0
 50
270.0
  0
INSERT
  5
1BB
330
1B4
100
AcDbEntity
  8
NAVVIX_DIMS
100
AcDbBlockReference
  2
_CLOSEDFILLED
 10
991358.9835658922
 20
88746.43754166584
 30
0.0
 41
30.0
 42
30.0
 50
90.0
  0
LINE
  5
1BD
330
1B4
100
AcDbEntity
  8
0
100
AcDbLine
 10
991358.9835658922
 20
87773.1811347753
 30
0.0
 11
991358.9835658922
 21
88716.43754166584
 31
0.0
  0
MTEXT
  5
1BE
330
1B4
100
AcDbEntity
  8
NAVVIX_DIMS
100
AcDbMText
 10
991333.9835658922
 20
88244.80933822057
 30
0.0
 40
30.0
 71
5
  1
1003,26
 50
90.0
  0
POINT
  5
1BF
330
1B4
100
AcDbEntity
  8
Defpoints
100
AcDbPoint
 10
991358.9835658922
 20
87743.1811347753
 30
0.0
  0
POINT
  5
1C0
330
1B4
100
AcDbEntity
  8
Defpoints
100
AcDbPoint
 10
991127.4539404917
 20
87743.1811347753
 30
0.0
  0
POINT
  5
1C1
330
1B4
100
AcDbEntity
  8
Defpoints
100
AcDbPoint
 10
991127.4539404917
 20
88746.43754166584
 30
0.0
  0
ENDBLK
  5
1B6
330
1B4
100
AcDbEntity
  8
0
100
AcDbBlockEnd
  0
BLOCK
  5
1C4
330
1C3
100
AcDbEntity
  8
0
100
AcDbBlockBegin
  2
*D23
 70
1
 10
0.0
 20
0.0
 30
0.0
  3
*D23
  1

  0
LINE
  5
1C6
330
1C3
100
AcDbEntity
  8
0
100
AcDbLine
 10
989727.8498974005
 20
88747.06254166584
 30
0.0
 11
989727.8498974005
 21
89041.99342101548
 31
0.0
  0
LINE
  5
1C7
330
1C3
100
AcDbEntity
  8
0
100
AcDbLine
 10
991127.6367378413
 20
88747.06254166584
 30
0.0
 11
991127.6367378413
 21
89041.99342101548
 31
0.0
  0
INSERT
  5
1C8
330
1C3
100
AcDbEntity
  8
NAVVIX_DIMS
100
AcDbBlockReference
  2
_CLOSEDFILLED
 10
989727.8498974005
 20
89040.74342101548
 30
0.0
 41
30.0
 42
30.0
 50
180.0
  0
INSERT
  5
1CA
330
1C3
100
AcDbEntity
  8
NAVVIX_DIMS
100
AcDbBlockReference
  2
_CLOSEDFILLED
 10
991127.6367378413
 20
89040.74342101548
 30
0.0
 41
30.0
 42
30.0
  0
LINE
  5
1CC
330
1C3
100
AcDbEntity
  8
0
100
AcDbLine
 10
989757.8498974005
 20
89040.74342101548
 30
0.0
 11
991097.6367378413
 21
89040.74342101548
 31
0.0
  0
MTEXT
  5
1CD
330
1C3
100
AcDbEntity
  8
NAVVIX_DIMS
100
AcDbMText
 10
990427.7433176208
 20
89065.74342101548
 30
0.0
 40
30.0
 71
5
  1
1399,79
  0
POINT
  5
1CE
330
1C3
100
AcDbEntity
  8
Defpoints
100
AcDbPoint
 10
989727.8498974005
 20
89040.74342101548
 30
0.0
  0
POINT
  5
1CF
330
1C3
100
AcDbEntity
  8
Defpoints
100
AcDbPoint
 10
989727.8498974005
 20
88746.43754166584
 30
0.0
  0
POINT
  5
1D0
330
1C3
100
AcDbEntity
  8
Defpoints
100
AcDbPoint
 10
991127.6367378413
 20
88746.43754166584
 30
0.0
  0
ENDBLK
  5
1C5
330
1C3
100
AcDbEntity
  8
0
100
AcDbBlockEnd
  0
BLOCK
  5
1D3
330
1D2
100
AcDbEntity
  8
0
100
AcDbBlockBegin
  2
*D24
 70
1
 10
0.0
 20
0.0
 30
0.0
  3
*D24
  1

  0
LINE
  5
1D5
330
1D2
100
AcDbEntity
  8
0
100
AcDbLine
 10
989727.8498974005
 20
87400.40717462506
 30
0.0
 11
989727.8498974005
 21
87105.47629527542
 31
0.0
  0
LINE
  5
1D6
330
1D2
100
AcDbEntity
  8
0
100
AcDbLine
 10
991127.6367378413
 20
87400.40717462506
 30
0.0
 11
991127.6367378413
 21
87105.47629527542
 31
0.0
  0
INSERT
  5
1D7
330
1D2
100
AcDbEntity
  8
NAVVIX_DIMS
100
AcDbBlockReference
  2
_CLOSEDFILLED
 10
989727.8498974005
 20
87106.72629527542
 30
0.0
 41
30.0
 42
30.0
 50
180.0
  0
INSERT
  5
1D9
330
1D2
100
AcDbEntity
  8
NAVVIX_DIMS
100
AcDbBlockReference
  2
_CLOSEDFILLED
 10
991127.6367378413
 20
87106.72629527542
 30
0.0
 41
30.0
 42
30.0
  0
LINE
  5
1DB
330
1D2
100
AcDbEntity
  8
0
100
AcDbLine
 10
989757.8498974005
 20
87106.72629527542
 30
0.0
 11
991097.6367378413
 21
87106.72629527542
 31
0.0
  0
MTEXT
  5
1DC
330
1D2
100
AcDbEntity
  8
NAVVIX_DIMS
100
AcDbMText
 10
990427.7433176208
 20
87131.72629527542
 30
0.0
 40
30.0
 71
5
  1
1399,79
  0
POINT
  5
1DD
330
1D2
100
AcDbEntity
  8
Defpoints
100
AcDbPoint
 10
989727.8498974005
 20
87106.72629527542
 30
0.0
  0
POINT
  5
1DE
330
1D2
100
AcDbEntity
  8
Defpoints
100
AcDbPoint
 10
989727.8498974005
 20
87401.03217462506
 30
0.0
  0
POINT
  5
1DF
330
1D2
100
AcDbEntity
  8
Defpoints
100
AcDbPoint
 10
991127.6367378413
 20
87401.03217462506
 30
0.0
  0
ENDBLK
  5
1D4
330
1D2
100
AcDbEntity
  8
0
100
AcDbBlockEnd
  0
BLOCK
  5
1E2
330
1E1
100
AcDbEntity
  8
0
100
AcDbBlockBegin
  2
*D25
 70
1
 10
0.0
 20
0.0
 30
0.0
  3
*D25
  1

  0
LINE
  5
1E4
330
1E1
100
AcDbEntity
  8
0
100
AcDbLine
 10
991128.2617378413
 20
87401.03217462506
 30
0.0
 11
991423.1926171909
 21
87401.03217462506
 31
0.0
  0
LINE
  5
1E5
330
1E1
100
AcDbEntity
  8
0
100
AcDbLine
 10
991128.2617378413
 20
88746.43754166584
 30
0.0
 11
991423.1926171909
 21
88746.43754166584
 31
0.0
  0
INSERT
  5
1E6
330
1E1
100
AcDbEntity
  8
NAVVIX_DIMS
100
AcDbBlockReference
  2
_CLOSEDFILLED
 10
991421.9426171909
 20
87401.03217462506
 30
0.0
 41
30.0
 42
30.0
 50
270.0
  0
INSERT
  5
1E8
330
1E1
100
AcDbEntity
  8
NAVVIX_DIMS
100
AcDbBlockReference
  2
_CLOSEDFILLED
 10
991421.9426171909
 20
88746.43754166584
 30
0.0
 41
30.0
 42
30.0
 50
90.0
  0
LINE
  5
1EA
330
1E1
100
AcDbEntity
  8
0
100
AcDbLine
 10
991421.9426171909
 20
87431.03217462506
 30
0.0
 11
991421.9426171909
 21
88716.43754166584
 31
0.0
  0
MTEXT
  5
1EB
330
1E1
100
AcDbEntity
  8
NAVVIX_DIMS
100
AcDbMText
 10
991396.9426171909
 20
88073.73485814544
 30
0.0
 40
30.0
 71
5
  1
1345,41
 50
90.0
  0
POINT
  5
1EC
330
1E1
100
AcDbEntity
  8
Defpoints
100
AcDbPoint
 10
991421.9426171909
 20
87401.03217462506
 30
0.0
  0
POINT
  5
1ED
330
1E1
100
AcDbEntity
  8
Defpoints
100
AcDbPoint
 10
991127.6367378413
 20
87401.03217462506
 30
0.0
  0
POINT
  5
1EE
330
1E1
100
AcDbEntity
  8
Defpoints
100
AcDbPoint
 10
991127.6367378413
 20
88746.43754166584
 30
0.0
  0
ENDBLK
  5
1E3
330
1E1
100
AcDbEntity
  8
0
100
AcDbBlockEnd
  0
BLOCK
  5
1F1
330
1F0
100
AcDbEntity
  8
0
100
AcDbBlockBegin
  2
*D26
 70
1
 10
0.0
 20
0.0
 30
0.0
  3
*D26
  1

  0
LINE
  5
1F3
330
1F0
100
AcDbEntity
  8
0
100
AcDbLine
 10
989727.2248974005
 20
87401.03217462506
 30
0.0
 11
989432.2940180509
 21
87401.03217462506
 31
0.0
  0
LINE
  5
1F4
330
1F0
100
AcDbEntity
  8
0
100
AcDbLine
 10
989727.2248974005
 20
88746.43754166584
 30
0.0
 11
989432.2940180509
 21
88746.43754166584
 31
0.0
  0
INSERT
  5
1F5
330
1F0
100
AcDbEntity
  8
NAVVIX_DIMS
100
AcDbBlockReference
  2
_CLOSEDFILLED
 10
989433.5440180509
 20
87401.03217462506
 30
0.0
 41
30.0
 42
30.0
 50
270.0
  0
INSERT
  5
1F7
330
1F0
100
AcDbEntity
  8
NAVVIX_DIMS
100
AcDbBlockReference
  2
_CLOSEDFILLED
 10
989433.5440180509
 20
88746.43754166584
 30
0.0
 41
30.0
 42
30.0
 50
90.0
  0
LINE
  5
1F9
330
1F0
100
AcDbEntity
  8
0
100
AcDbLine
 10
989433.5440180509
 20
87431.03217462506
 30
0.0
 11
989433.5440180509
 21
88716.43754166584
 31
0.0
  0
MTEXT
  5
1FA
330
1F0
100
AcDbEntity
  8
NAVVIX_DIMS
100
AcDbMText
 10
989408.5440180509
 20
88073.73485814544
 30
0.0
 40
30.0
 71
5
  1
1345,41
 50
90.0
  0
POINT
  5
1FB
330
1F0
100
AcDbEntity
  8
Defpoints
100
AcDbPoint
 10
989433.5440180509
 20
87401.03217462506
 30
0.0
  0
POINT
  5
1FC
330
1F0
100
AcDbEntity
  8
Defpoints
100
AcDbPoint
 10
989727.8498974005
 20
87401.03217462506
 30
0.0
  0
POINT
  5
1FD
330
1F0
100
AcDbEntity
  8
Defpoints
100
AcDbPoint
 10
989727.8498974005
 20
88746.43754166584
 30
0.0
  0
ENDBLK
  5
1F2
330
1F0
100
AcDbEntity
  8
0
100
AcDbBlockEnd
  0
ENDSEC
  0
SECTION
  2
ENTITIES
  0
LWPOLYLINE
  5
34
330
17
100
AcDbEntity
  8
BAR-GAL
 62
8
370
13
100
AcDbPolyline
 90
4
 70
1
 10
991125.5571286837
 20
88276.17091222617
 10
990974.0369759894
 20
88280.70067138204
 10
990974.0369759894
 20
88097.30629170235
 10
991007.309038067
 20
88242.97194138644
  0
LWPOLYLINE
  5
35
330
17
100
AcDbEntity
  8
BAR-GAL
 62
8
370
13
100
AcDbPolyline
 90
4
 70
1
 10
990961.3065369288
 20
87492.2872963037
 10
990680.4974649112
 20
87491.65051026313
 10
990680.4974649112
 20
87437.52383530626
 10
990698.6323519131
 20
87465.4365783371
  0
LWPOLYLINE
  5
36
330
17
100
AcDbEntity
  8
BAR-GAL
 62
7
370
13
100
AcDbPolyline
 90
10
 70
0
 43
5.0
 10
990398.1865454105
 20
87176.86911615482
 10
990217.8498974006
 20
87176.86911615482
 10
990217.8498974006
 20
87816.86911615482
 10
990047.4627360702
 20
87816.86911615482
 10
990047.4627360702
 20
87816.86911615482
 10
989747.8498974006
 20
87816.86911615482
 10
989727.8498974005
 20
87816.86911615482
 10
989727.8498974005
 20
88746.43754166584
 10
989724.0460503134
 20
88746.43754166584
 10
991125.947973857
 20
88746.43754166584
  0
LWPOLYLINE
  5
37
330
17
100
AcDbEntity
  8
BAR-GAL
 62
7
370
13
100
AcDbPolyline
 90
5
 70
0
 43
15.0
 10
991060.277113692
 20
88101.44382932849
 10
991060.277113692
 20
88092.13974650594
 10
991125.5571286837
 20
88092.13974650594
 10
991125.5571286837
 20
88276.17091222617
 10
991060.277113692
 20
88276.17091222617
  0
LWPOLYLINE
  5
38
330
17
100
AcDbEntity
  8
BAR-GAL
 62
7
370
13
100
AcDbPolyline
 90
4
 70
0
 43
15.0
 10
990961.2448468367
 20
87491.01372422258
 10
990679.4974649111
 20
87491.01372422258
 10
990679.4974649111
 20
88276.80769826673
 10
991125.5571286837
 20
88276.17091222617
  0
LWPOLYLINE
  5
39
330
17
100
AcDbEntity
  8
BAR-GAL
 62
7
370
13
100
AcDbPolyline
 90
3
 70
0
 43
15.0
 10
990960.3065369289
 20
87491.01372422258
 10
990960.3065369289
 20
87882.00035312297
 10
990677.5255776382
 20
87882.000353123
  0
LWPOLYLINE
  5
3A
330
17
100
AcDbEntity
  8
BAR-GAL
 62
7
370
13
100
AcDbPolyline
 90
6
 70
0
 43
15.0
 10
991060.277113692
 20
88101.44382932849
 10
991060.277113692
 20
88092.13974650594
 10
990679.4974649111
 20
88092.13974650594
 10
990679.4974649111
 20
88276.80769826673
 10
991060.277113692
 20
88276.80769826673
 10
991060.277113692
 20
88276.17091222617
  0
LWPOLYLINE
  5
3B
330
17
100
AcDbEntity
  8
BAR-GAL
 62
7
370
13
100
AcDbPolyline
 90
2
 70
0
 43
15.0
 10
990679.4974649111
 20
87492.2872963037
 10
990679.4974649111
 20
87491.01372422258
  0
LWPOLYLINE
  5
3C
330
17
100
AcDbEntity
  8
BAR-GAL
 62
7
370
13
100
AcDbPolyline
 90
4
 70
1
 43
5.0
 10
990789.6561257999
 20
87763.55814957987
 10
990850.1478760401
 20
87763.55814957987
 10
990850.1478760401
 20
87601.17770923847
 10
990789.6561257999
 20
87601.17770923847
  0
LINE
  5
3D
330
17
100
AcDbEntity
  8
BAR-GAL
 62
7
370
13
100
AcDbLine
 10
990789.6561257999
 20
87763.55814957987
 30
0.0
 11
990789.6561257999
 21
87881.00035312297
 31
0.0
  0
LINE
  5
3E
330
17
100
AcDbEntity
  8
BAR-GAL
 62
7
370
13
100
AcDbLine
 10
990819.6561257998
 20
87763.55814957987
 30
0.0
 11
990819.6561257998
 21
87881.00035312297
 31
0.0
  0
LINE
  5
3F
330
17
100
AcDbEntity
  8
BAR-GAL
 62
7
370
13
100
AcDbLine
 10
990849.6561257998
 20
87763.55814957987
 30
0.0
 11
990849.6561257998
 21
87881.00035312297
 31
0.0
  0
LINE
  5
40
330
17
100
AcDbEntity
  8
BAR-GAL
 62
7
370
13
100
AcDbLine
 10
990789.6561257999
 20
87756.99466033
 30
0.0
 11
990680.4817511314
 21
87756.99466033
 31
0.0
  0
LINE
  5
41
330
17
100
AcDbEntity
  8
BAR-GAL
 62
7
370
13
100
AcDbLine
 10
990789.6561257999
 20
87726.99466033
 30
0.0
 11
990680.4817511314
 21
87726.99466033
 31
0.0
  0
LINE
  5
42
330
17
100
AcDbEntity
  8
BAR-GAL
 62
7
370
13
100
AcDbLine
 10
990789.6561257999
 20
87696.99466033
 30
0.0
 11
990680.4817511314
 21
87696.99466033
 31
0.0
  0
LINE
  5
43
330
17
100
AcDbEntity
  8
BAR-GAL
 62
7
370
13
100
AcDbLine
 10
990789.6561257999
 20
87666.99466033
 30
0.0
 11
990680.4817511314
 21
87666.99466033
 31
0.0
  0
LINE
  5
44
330
17
100
AcDbEntity
  8
BAR-GAL
 62
7
370
13
100
AcDbLine
 10
990789.6561257999
 20
87636.99466033
 30
0.0
 11
990680.4817511314
 21
87636.99466033
 31
0.0
  0
LINE
  5
45
330
17
100
AcDbEntity
  8
BAR-GAL
 62
7
370
13
100
AcDbLine
 10
990789.6561257999
 20
87606.99466033
 30
0.0
 11
990680.4817511314
 21
87606.99466033
 31
0.0
  0
LINE
  5
46
330
17
100
AcDbEntity
  8
BAR-GAL
 62
7
370
13
100
AcDbLine
 10
990789.6561257999
 20
87483.73550569537
 30
0.0
 11
990789.6561257999
 21
87601.17770923847
 31
0.0
  0
LINE
  5
47
330
17
100
AcDbEntity
  8
BAR-GAL
 62
7
370
13
100
AcDbLine
 10
990819.6561257998
 20
87483.73550569537
 30
0.0
 11
990819.6561257998
 21
87601.17770923847
 31
0.0
  0
LINE
  5
48
330
17
100
AcDbEntity
  8
BAR-GAL
 62
7
370
13
100
AcDbLine
 10
990849.6561257998
 20
87483.73550569537
 30
0.0
 11
990849.6561257998
 21
87601.17770923847
 31
0.0
  0
LINE
  5
49
330
17
100
AcDbEntity
  8
BAR-GAL
 62
7
370
13
100
AcDbLine
 10
990960.3065369289
 20
87756.99466033
 30
0.0
 11
990851.1321622604
 21
87756.99466033
 31
0.0
  0
LINE
  5
4A
330
17
100
AcDbEntity
  8
BAR-GAL
 62
7
370
13
100
AcDbLine
 10
990960.3065369289
 20
87726.99466033
 30
0.0
 11
990851.1321622604
 21
87726.99466033
 31
0.0
  0
LINE
  5
4B
330
17
100
AcDbEntity
  8
BAR-GAL
 62
7
370
13
100
AcDbLine
 10
990960.3065369289
 20
87696.99466033
 30
0.0
 11
990851.1321622604
 21
87696.99466033
 31
0.0
  0
LINE
  5
4C
330
17
100
AcDbEntity
  8
BAR-GAL
 62
7
370
13
100
AcDbLine
 10
990960.3065369289
 20
87666.99466033
 30
0.0
 11
990851.1321622604
 21
87666.99466033
 31
0.0
  0
LINE
  5
4D
330
17
100
AcDbEntity
  8
BAR-GAL
 62
7
370
13
100
AcDbLine
 10
990960.3065369289
 20
87636.99466033
 30
0.0
 11
990851.1321622604
 21
87636.99466033
 31
0.0
  0
LINE
  5
4E
330
17
100
AcDbEntity
  8
BAR-GAL
 62
7
370
13
100
AcDbLine
 10
990960.3065369289
 20
87606.99466033
 30
0.0
 11
990851.1321622604
 21
87606.99466033
 31
0.0
  0
LWPOLYLINE
  5
4F
330
17
100
AcDbEntity
  8
BAR-GAL
 62
7
370
13
100
AcDbPolyline
 90
2
 70
0
 43
5.0
 10
991125.947973857
 20
88746.43754166584
 10
991127.4053452295
 20
88276.1709122262
  0
LWPOLYLINE
  5
50
330
17
100
AcDbEntity
  8
BAR-GAL
 62
7
370
13
100
AcDbPolyline
 90
3
 70
0
 43
15.0
 10
991127.4053452295
 20
88276.1709122262
 10
991129.0570976504
 20
87743.1811347753
 10
990959.9713363807
 20
87743.18113477237
  0
LWPOLYLINE
  5
51
330
17
100
AcDbEntity
  8
BAR-GAL
 62
7
370
13
100
AcDbPolyline
 90
4
 70
1
 43
15.0
 10
990679.4974649111
 20
87492.2872963037
 10
990961.2448468367
 20
87492.2872963037
 10
990961.2448468367
 20
87437.52383530626
 10
990679.4974649111
 20
87437.52383530626
  0
LWPOLYLINE
  5
52
330
17
100
AcDbEntity
  8
BAR-GAL
 62
7
370
13
100
AcDbPolyline
 90
7
 70
0
 43
15.0
 10
990904.9938966132
 20
88274.58716796606
 10
990904.9938966132
 20
88544.58716796605
 10
990644.9938966132
 20
88544.58716796605
 10
990644.9938966132
 20
88464.58716796603
 10
989929.9938966132
 20
88464.58716796603
 10
989929.9938966132
 20
88014.58716796603
 10
990683.316448762
 20
88016.68660635137
  0
LWPOLYLINE
  5
53
330
17
100
AcDbEntity
  8
BAR-GAL
 62
7
370
13
100
AcDbPolyline
 90
2
 70
0
 43
5.0
 10
990217.8498974006
 20
87816.86911615482
 10
990217.8498974006
 20
88015.3893952932
  0
LWPOLYLINE
  5
54
330
17
100
AcDbEntity
  8
BAR-GAL
 62
7
370
13
100
AcDbPolyline
 90
2
 70
0
 43
15.0
 10
990975.0369759894
 20
88090.30164525626
 10
990975.0369759894
 20
88281.3374574226
  0
LWPOLYLINE
  5
55
330
17
100
AcDbEntity
  8
BAR-GAL
 62
7
370
13
100
AcDbPolyline
 90
5
 70
0
 43
5.0
 10
990431.8847342826
 20
88010.72323560795
 10
990431.8847342826
 20
88129.14559373009
 10
990053.0153511859
 20
88130.4191658112
 10
990053.0153511859
 20
88184.54597925831
 10
989931.3950954695
 20
88184.54597925831
  0
LINE
  5
56
330
17
100
AcDbEntity
  8
BAR-GAL
 62
7
370
13
100
AcDbLine
 10
990053.0153511859
 20
88130.4191658112
 30
0.0
 11
989925.8795309016
 21
88130.84653376028
 31
0.0
  0
LINE
  5
57
330
17
100
AcDbEntity
  8
BAR-GAL
 62
7
370
13
100
AcDbLine
 10
990052.6335994195
 20
88014.77912208078
 30
0.0
 11
990073.8347359698
 21
88014.70913273224
 31
0.0
  0
LINE
  5
58
330
17
100
AcDbEntity
  8
BAR-GAL
 62
7
370
13
100
AcDbLine
 10
990053.0153511859
 20
88130.4191658112
 30
0.0
 11
990053.0153511859
 21
88014.77786183903
 31
0.0
  0
LINE
  5
59
330
17
100
AcDbEntity
  8
BAR-GAL
 62
7
370
13
100
AcDbLine
 10
990083.015351186
 20
88130.41916581117
 30
0.0
 11
990083.0153511858
 21
88014.777861839
 31
0.0
  0
LINE
  5
5A
330
17
100
AcDbEntity
  8
BAR-GAL
 62
7
370
13
100
AcDbLine
 10
990113.0153511859
 20
88130.41916581112
 30
0.0
 11
990113.0153511857
 21
88014.77786183896
 31
0.0
  0
LINE
  5
5B
330
17
100
AcDbEntity
  8
BAR-GAL
 62
7
370
13
100
AcDbLine
 10
990143.015351186
 20
88130.41916581111
 30
0.0
 11
990143.0153511858
 21
88014.77786183896
 31
0.0
  0
LINE
  5
5C
330
17
100
AcDbEntity
  8
BAR-GAL
 62
7
370
13
100
AcDbLine
 10
990173.0153511859
 20
88130.41916581108
 30
0.0
 11
990173.0153511858
 21
88014.77786183891
 31
0.0
  0
LINE
  5
5D
330
17
100
AcDbEntity
  8
BAR-GAL
 62
7
370
13
100
AcDbLine
 10
990203.0153511859
 20
88130.41916581106
 30
0.0
 11
990203.0153511859
 21
88014.77786183887
 31
0.0
  0
LINE
  5
5E
330
17
100
AcDbEntity
  8
BAR-GAL
 62
7
370
13
100
AcDbLine
 10
990233.015351186
 20
88130.41916581102
 30
0.0
 11
990233.0153511858
 21
88014.77786183885
 31
0.0
  0
LINE
  5
5F
330
17
100
AcDbEntity
  8
BAR-GAL
 62
7
370
13
100
AcDbLine
 10
990263.0153511859
 20
88130.41916581099
 30
0.0
 11
990263.0153511857
 21
88014.77786183883
 31
0.0
  0
LINE
  5
60
330
17
100
AcDbEntity
  8
BAR-GAL
 62
7
370
13
100
AcDbLine
 10
990293.015351186
 20
88130.41916581096
 30
0.0
 11
990293.0153511858
 21
88014.7778618388
 31
0.0
  0
LINE
  5
61
330
17
100
AcDbEntity
  8
BAR-GAL
 62
7
370
13
100
AcDbLine
 10
990323.0153511859
 20
88130.41916581093
 30
0.0
 11
990323.0153511858
 21
88014.77786183877
 31
0.0
  0
LINE
  5
62
330
17
100
AcDbEntity
  8
BAR-GAL
 62
7
370
13
100
AcDbLine
 10
990353.0153511859
 20
88130.4191658109
 30
0.0
 11
990353.0153511859
 21
88014.77786183872
 31
0.0
  0
LINE
  5
63
330
17
100
AcDbEntity
  8
BAR-GAL
 62
7
370
13
100
AcDbLine
 10
990383.015351186
 20
88130.41916581088
 30
0.0
 11
990383.0153511858
 21
88014.77786183871
 31
0.0
  0
LINE
  5
64
330
17
100
AcDbEntity
  8
BAR-GAL
 62
7
370
13
100
AcDbLine
 10
990053.0153511859
 20
88130.4191658112
 30
0.0
 11
989929.9938966132
 21
88130.4191658112
 31
0.0
  0
LINE
  5
65
330
17
100
AcDbEntity
  8
BAR-GAL
 62
7
370
13
100
AcDbLine
 10
990053.0153511859
 20
88160.4191658112
 30
0.0
 11
989929.9938966132
 21
88160.4191658112
 31
0.0
  0
LWPOLYLINE
  5
66
330
17
100
AcDbEntity
  8
BAR-GAL
 62
7
370
13
100
AcDbPolyline
 90
4
 70
0
 10
989992.2052233277
 20
88184.54597925831
 10
989992.2052233277
 20
88066.88328251691
 10
990431.8847342826
 20
88066.88328251691
 10
990431.8847342826
 20
88064.25680132495
  0
LINE
  5
67
330
17
100
AcDbEntity
  8
BAR-GAL
 62
7
370
13
100
AcDbLine
 10
989929.9938966132
 20
88160.4191658112
 30
0.0
 11
989992.2052233277
 21
88184.54597925831
 31
0.0
  0
LINE
  5
68
330
17
100
AcDbEntity
  8
BAR-GAL
 62
7
370
13
100
AcDbLine
 10
989992.2052233277
 20
88184.54597925831
 30
0.0
 11
990053.0153511859
 21
88160.4191658112
 31
0.0
  0
LWPOLYLINE
  5
69
330
17
100
AcDbEntity
  8
BAR-GAL
 62
1
370
13
100
AcDbPolyline
 90
12
 70
1
 10
989929.9938966134
 20
88464.58716796603
 10
989929.9938966134
 20
88184.54597925831
 10
990053.0153511859
 20
88184.54597925831
 10
990053.0153511859
 20
88130.4191658112
 10
990431.8847342829
 20
88129.14559373009
 10
990431.8847342829
 20
88015.98589004976
 10
990679.4974649111
 20
88016.67596320622
 10
990679.4974649111
 20
88276.80769826673
 10
990904.9938966132
 20
88276.80769826673
 10
990904.9938966132
 20
88544.58716796603
 10
990644.9938966132
 20
88544.58716796605
 10
990644.9938966132
 20
88464.58716796603
  0
TEXT
  5
6A
330
17
100
AcDbEntity
  8
0
100
AcDbText
 10
990741.25619375
 20
88200.43573926533
 30
0.0
 40
59.201694284898
  1
מאגר 
100
AcDbText
  0
TEXT
  5
6B
330
17
100
AcDbEntity
  8
0
100
AcDbText
 10
990743.6857285198
 20
88130.95171249277
 30
0.0
 40
59.201694284898
  1
 מים
100
AcDbText
  0
LWPOLYLINE
  5
6C
330
17
100
AcDbEntity
  8
BAR-GAL
 62
3
370
13
100
AcDbPolyline
 90
19
 70
1
 10
989727.8498974007
 20
88746.43754166584
 10
989727.8498974005
 20
87816.86911615482
 10
989747.8498974006
 20
87816.86911615482
 10
990047.4627360702
 20
87816.86911615482
 10
990217.8498974006
 20
87816.86911615482
 10
990217.8498974002
 20
88015.3893952932
 10
989929.9938966132
 20
88014.58716796603
 10
989929.9938966134
 20
88464.58716796603
 10
990644.9938966132
 20
88464.58716796603
 10
990644.9938966132
 20
88544.58716796605
 10
990904.9938966132
 20
88544.58716796603
 10
990904.9938966132
 20
88276.80769826673
 10
990974.0369759894
 20
88276.80769826673
 10
990973.5369759894
 20
88276.48930524648
 10
990974.5369759894
 20
88277.12609128698
 10
990974.0369759894
 20
88276.80769826673
 10
991127.4055164771
 20
88276.11565389002
 10
991127.4053452295
 20
88276.1709122262
 10
991125.947973857
 20
88746.43754166584
  0
LWPOLYLINE
  5
6D
330
17
100
AcDbEntity
  8
BAR-GAL
 62
3
370
13
100
AcDbPolyline
 90
10
 70
1
 10
991127.4055164771
 20
88092.11211733786
 10
991125.5571286837
 20
88092.167375674
 10
991125.5571286837
 20
88092.13974650594
 10
991060.277113692
 20
88092.13974650594
 10
990679.4974649111
 20
88092.13974650594
 10
990679.4974649111
 20
88016.67596320622
 10
990679.4974649108
 20
87882.000353123
 10
990960.3065369289
 20
87882.00035312297
 10
990960.3065369289
 20
87743.18113477239
 10
991129.0570976504
 20
87743.1811347753
  0
TEXT
  5
6E
330
17
100
AcDbEntity
  8
0
100
AcDbText
 10
990185.7863609778
 20
88258.03444187302
 30
0.0
 40
59.201694284898
  1
21 דירה
100
AcDbText
  0
DIMENSION
  5
74
330
17
100
AcDbEntity
  8
NAVVIX_DIMS
100
AcDbDimension
280
0
  2
*D1
  3
ISO-25
 10
989540.1048757199
 20
87816.86911615482
 30
0.0
 11
989515.1048757199
 21
88281.65332891032
 31
0.0
 70
32
 71
5
  1
<>
100
AcDbAlignedDimension
 13
989727.8498974005
 23
87816.86911615482
 33
0.0
 14
989727.8498974005
 24
88746.43754166584
 34
0.0
 50
90.0
100
AcDbRotatedDimension
  0
DIMENSION
  5
87
330
17
100
AcDbEntity
  8
NAVVIX_DIMS
100
AcDbDimension
280
0
  2
*D2
  3
ISO-25
 10
991312.9982722439
 20
87743.1811347753
 30
0.0
 11
991287.9982722439
 21
88009.67602350074
 31
0.0
 70
32
 71
5
  1
<>
100
AcDbAlignedDimension
 13
991128.23122144
 23
87743.1811347753
 33
0.0
 14
991128.23122144
 24
88276.1709122262
 34
0.0
 50
90.0
100
AcDbRotatedDimension
  0
DIMENSION
  5
96
330
17
100
AcDbEntity
  8
NAVVIX_DIMS
100
AcDbDimension
280
0
  2
*D3
  3
ISO-25
 10
991245.9560331429
 20
88276.1709122262
 30
0.0
 11
991220.9560331429
 21
88511.30422694603
 31
0.0
 70
32
 71
5
  1
<>
100
AcDbAlignedDimension
 13
991126.6766595433
 23
88276.1709122262
 33
0.0
 14
991126.6766595433
 24
88746.43754166584
 34
0.0
 50
90.0
100
AcDbRotatedDimension
  0
DIMENSION
  5
A5
330
17
100
AcDbEntity
  8
NAVVIX_DIMS
100
AcDbDimension
280
0
  2
*D4
  3
ISO-25
 10
990679.4974649111
 20
87253.58266071274
 30
0.0
 11
990820.4020009199
 21
87278.58266071274
 31
0.0
 70
32
 71
5
  1
<>
100
AcDbAlignedDimension
 13
990679.4974649111
 23
87491.01372422258
 33
0.0
 14
990961.3065369288
 24
87491.01372422258
 34
0.0
 50
0.0
100
AcDbRotatedDimension
  0
DIMENSION
  5
B4
330
17
100
AcDbEntity
  8
NAVVIX_DIMS
100
AcDbDimension
280
0
  2
*D5
  3
ISO-25
 10
990679.4974649111
 20
87320.62489981379
 30
0.0
 11
990820.3711558739
 21
87345.62489981379
 31
0.0
 70
32
 71
5
  1
<>
100
AcDbAlignedDimension
 13
990679.4974649111
 23
87437.52383530626
 33
0.0
 14
990961.2448468367
 24
87437.52383530626
 34
0.0
 50
0.0
100
AcDbRotatedDimension
  0
DIMENSION
  5
C3
330
17
100
AcDbEntity
  8
NAVVIX_DIMS
100
AcDbDimension
280
0
  2
*D6
  3
ISO-25
 10
991178.9137940418
 20
87491.01372422258
 30
0.0
 11
991153.9137940418
 21
87883.91071124465
 31
0.0
 70
32
 71
5
  1
<>
100
AcDbAlignedDimension
 13
990679.4974649111
 23
87491.01372422258
 33
0.0
 14
990679.4974649111
 24
88276.80769826673
 34
0.0
 50
90.0
100
AcDbRotatedDimension
  0
DIMENSION
  5
D2
330
17
100
AcDbEntity
  8
NAVVIX_DIMS
100
AcDbDimension
280
0
  2
*D7
  3
ISO-25
 10
989925.8795309016
 20
88247.5317852782
 30
0.0
 11
990178.8821325921
 21
88272.5317852782
 31
0.0
 70
32
 71
5
  1
<>
100
AcDbAlignedDimension
 13
989925.8795309016
 23
88130.63284978573
 33
0.0
 14
990431.8847342829
 24
88130.63284978573
 34
0.0
 50
0.0
100
AcDbRotatedDimension
  0
DIMENSION
  5
E1
330
17
100
AcDbEntity
  8
NAVVIX_DIMS
100
AcDbDimension
280
0
  2
*D8
  3
ISO-25
 10
989813.0949611207
 20
88014.58716796603
 30
0.0
 11
989788.0949611207
 21
88239.58716796603
 31
0.0
 70
32
 71
5
  1
<>
100
AcDbAlignedDimension
 13
989929.9938966132
 23
88014.58716796603
 33
0.0
 14
989929.9938966132
 24
88464.58716796603
 34
0.0
 50
90.0
100
AcDbRotatedDimension
  0
DIMENSION
  5
F0
330
17
100
AcDbEntity
  8
NAVVIX_DIMS
100
AcDbDimension
280
0
  2
*D9
  3
ISO-25
 10
990679.4974649111
 20
88863.33647715831
 30
0.0
 11
990903.4514906941
 21
88888.33647715831
 31
0.0
 70
32
 71
5
  1
<>
100
AcDbAlignedDimension
 13
990679.4974649111
 23
88276.48930524645
 33
0.0
 14
991127.4055164771
 24
88276.48930524645
 34
0.0
 50
0.0
100
AcDbRotatedDimension
  0
DIMENSION
  5
FF
330
17
100
AcDbEntity
  8
NAVVIX_DIMS
100
AcDbDimension
280
0
  2
*D10
  3
ISO-25
 10
990679.4974649111
 20
88276.08092109946
 30
0.0
 11
990902.5272967974
 21
88301.08092109946
 31
0.0
 70
32
 71
5
  1
<>
100
AcDbAlignedDimension
 13
990679.4974649111
 23
88092.13974650594
 33
0.0
 14
991125.5571286837
 24
88092.13974650594
 34
0.0
 50
0.0
100
AcDbRotatedDimension
  0
DIMENSION
  5
10E
330
17
100
AcDbEntity
  8
NAVVIX_DIMS
100
AcDbDimension
280
0
  2
*D11
  3
ISO-25
 10
991245.9560331429
 20
87437.52383530626
 30
0.0
 11
991220.9560331429
 21
87659.76209421462
 31
0.0
 70
32
 71
5
  1
<>
100
AcDbAlignedDimension
 13
990961.2448468367
 23
87437.52383530626
 33
0.0
 14
990961.2448468367
 24
87882.00035312297
 34
0.0
 50
90.0
100
AcDbRotatedDimension
  0
DIMENSION
  5
11D
330
17
100
AcDbEntity
  8
NAVVIX_DIMS
100
AcDbDimension
280
0
  2
*D12
  3
ISO-25
 10
989992.2052233277
 20
87949.98434702444
 30
0.0
 11
990212.0449788051
 21
87974.98434702444
 31
0.0
 70
32
 71
5
  1
<>
100
AcDbAlignedDimension
 13
989992.2052233277
 23
88066.88328251691
 33
0.0
 14
990431.8847342826
 24
88066.88328251691
 34
0.0
 50
0.0
100
AcDbRotatedDimension
  0
DIMENSION
  5
12C
330
17
100
AcDbEntity
  8
NAVVIX_DIMS
100
AcDbDimension
280
0
  2
*D13
  3
ISO-25
 10
991033.5973003933
 20
87483.73550569537
 30
0.0
 11
991008.5973003933
 21
87682.36792940917
 31
0.0
 70
32
 71
5
  1
<>
100
AcDbAlignedDimension
 13
990849.6561257998
 23
87483.73550569537
 33
0.0
 14
990849.6561257998
 24
87881.00035312297
 34
0.0
 50
90.0
100
AcDbRotatedDimension
  0
DIMENSION
  5
13B
330
17
100
AcDbEntity
  8
NAVVIX_DIMS
100
AcDbDimension
280
0
  2
*D14
  3
ISO-25
 10
990973.5973003934
 20
87483.73550569537
 30
0.0
 11
990948.5973003934
 21
87682.36792940917
 31
0.0
 70
32
 71
5
  1
<>
100
AcDbAlignedDimension
 13
990789.6561257999
 23
87483.73550569537
 33
0.0
 14
990789.6561257999
 24
87881.00035312297
 34
0.0
 50
90.0
100
AcDbRotatedDimension
  0
DIMENSION
  5
14A
330
17
100
AcDbEntity
  8
NAVVIX_DIMS
100
AcDbDimension
280
0
  2
*D15
  3
ISO-25
 10
990677.5255776382
 20
87387.66713891483
 30
0.0
 11
990818.9160572835
 21
87412.66713891483
 31
0.0
 70
32
 71
5
  1
<>
100
AcDbAlignedDimension
 13
990677.5255776382
 23
87882.00035312299
 33
0.0
 14
990960.3065369289
 24
87882.00035312299
 34
0.0
 50
0.0
100
AcDbRotatedDimension
  0
DIMENSION
  5
159
330
17
100
AcDbEntity
  8
NAVVIX_DIMS
100
AcDbDimension
280
0
  2
*D16
  3
ISO-25
 10
990680.4817511314
 20
87253.58266071274
 30
0.0
 11
990820.39414403
 21
87278.58266071274
 31
0.0
 70
32
 71
5
  1
<>
100
AcDbAlignedDimension
 13
990680.4817511314
 23
87756.99466033
 33
0.0
 14
990960.3065369289
 24
87756.99466033
 34
0.0
 50
0.0
100
AcDbRotatedDimension
  0
DIMENSION
  5
168
330
17
100
AcDbEntity
  8
NAVVIX_DIMS
100
AcDbDimension
280
0
  2
*D17
  3
ISO-25
 10
989929.9938966132
 20
87830.64599337251
 30
0.0
 11
990306.6551726876
 21
87855.64599337251
 31
0.0
 70
32
 71
5
  1
<>
100
AcDbAlignedDimension
 13
989929.9938966132
 23
88015.6368871587
 33
0.0
 14
990683.316448762
 24
88015.6368871587
 34
0.0
 50
0.0
100
AcDbRotatedDimension
  0
DIMENSION
  5
177
330
17
100
AcDbEntity
  8
NAVVIX_DIMS
100
AcDbDimension
280
0
  2
*D18
  3
ISO-25
 10
989929.9938966132
 20
88594.44386435748
 30
0.0
 11
990287.4938966132
 21
88619.44386435748
 31
0.0
 70
32
 71
5
  1
<>
100
AcDbAlignedDimension
 13
989929.9938966132
 23
88464.58716796603
 33
0.0
 14
990644.9938966132
 24
88464.58716796603
 34
0.0
 50
0.0
100
AcDbRotatedDimension
  0
DIMENSION
  5
186
330
17
100
AcDbEntity
  8
NAVVIX_DIMS
100
AcDbDimension
280
0
  2
*D19
  3
ISO-25
 10
990679.4974649111
 20
87207.59736706436
 30
0.0
 11
990820.3711558739
 21
87232.59736706436
 31
0.0
 70
32
 71
5
  1
<>
100
AcDbAlignedDimension
 13
990679.4974649111
 23
87437.52383530626
 33
0.0
 14
990961.2448468367
 24
87437.52383530626
 34
0.0
 50
0.0
100
AcDbRotatedDimension
  0
DIMENSION
  5
195
330
17
100
AcDbEntity
  8
NAVVIX_DIMS
100
AcDbDimension
280
0
  2
*D20
  3
ISO-25
 10
990679.4974649111
 20
87207.59736706436
 30
0.0
 11
990820.4020009199
 21
87232.59736706436
 31
0.0
 70
32
 71
5
  1
<>
100
AcDbAlignedDimension
 13
990679.4974649111
 23
87491.01372422258
 33
0.0
 14
990961.3065369288
 24
87491.01372422258
 34
0.0
 50
0.0
100
AcDbRotatedDimension
  0
DIMENSION
  5
1A4
330
17
100
AcDbEntity
  8
NAVVIX_DIMS
100
AcDbDimension
280
0
  2
*D21
  3
ISO-25
 10
989494.1195820716
 20
87816.86911615482
 30
0.0
 11
989469.1195820716
 21
88281.65332891032
 31
0.0
 70
32
 71
5
  1
<>
100
AcDbAlignedDimension
 13
989727.8498974005
 23
87816.86911615482
 33
0.0
 14
989727.8498974005
 24
88746.43754166584
 34
0.0
 50
90.0
100
AcDbRotatedDimension
  0
DIMENSION
  5
1B3
330
17
100
AcDbEntity
  8
NAVVIX_DIMS
100
AcDbDimension
280
0
  2
*D22
  3
ISO-25
 10
991358.9835658922
 20
87743.1811347753
 30
0.0
 11
991333.9835658922
 21
88244.80933822057
 31
0.0
 70
32
 71
5
  1
<>
100
AcDbAlignedDimension
 13
991127.4539404917
 23
87743.1811347753
 33
0.0
 14
991127.4539404917
 24
88746.43754166584
 34
0.0
 50
90.0
100
AcDbRotatedDimension
  0
DIMENSION
  5
1C2
330
17
100
AcDbEntity
  8
NAVVIX_DIMS
100
AcDbDimension
280
0
  2
*D23
  3
ISO-25
 10
989727.8498974005
 20
89040.74342101548
 30
0.0
 11
990427.7433176208
 21
89065.74342101548
 31
0.0
 70
32
 71
5
  1
<>
100
AcDbAlignedDimension
 13
989727.8498974005
 23
88746.43754166584
 33
0.0
 14
991127.6367378413
 24
88746.43754166584
 34
0.0
 50
0.0
100
AcDbRotatedDimension
  0
DIMENSION
  5
1D1
330
17
100
AcDbEntity
  8
NAVVIX_DIMS
100
AcDbDimension
280
0
  2
*D24
  3
ISO-25
 10
989727.8498974005
 20
87106.72629527542
 30
0.0
 11
990427.7433176208
 21
87131.72629527542
 31
0.0
 70
32
 71
5
  1
<>
100
AcDbAlignedDimension
 13
989727.8498974005
 23
87401.03217462506
 33
0.0
 14
991127.6367378413
 24
87401.03217462506
 34
0.0
 50
0.0
100
AcDbRotatedDimension
  0
DIMENSION
  5
1E0
330
17
100
AcDbEntity
  8
NAVVIX_DIMS
100
AcDbDimension
280
0
  2
*D25
  3
ISO-25
 10
991421.9426171909
 20
87401.03217462506
 30
0.0
 11
991396.9426171909
 21
88073.73485814544
 31
0.0
 70
32
 71
5
  1
<>
100
AcDbAlignedDimension
 13
991127.6367378413
 23
87401.03217462506
 33
0.0
 14
991127.6367378413
 24
88746.43754166584
 34
0.0
 50
90.0
100
AcDbRotatedDimension
  0
DIMENSION
  5
1EF
330
17
100
AcDbEntity
  8
NAVVIX_DIMS
100
AcDbDimension
280
0
  2
*D26
  3
ISO-25
 10
989433.5440180509
 20
87401.03217462506
 30
0.0
 11
989408.5440180509
 21
88073.73485814544
 31
0.0
 70
32
 71
5
  1
<>
100
AcDbAlignedDimension
 13
989727.8498974005
 23
87401.03217462506
 33
0.0
 14
989727.8498974005
 24
88746.43754166584
 34
0.0
 50
90.0
100
AcDbRotatedDimension
  0
ENDSEC
  0
SECTION
  2
OBJECTS
  0
DICTIONARY
  5
A
330
0
100
AcDbDictionary
281
1
  3
ACAD_COLOR
350
B
  3
ACAD_GROUP
350
C
  3
ACAD_LAYOUT
350
D
  3
ACAD_MATERIAL
350
E
  3
ACAD_MLEADERSTYLE
350
F
  3
ACAD_MLINESTYLE
350
10
  3
ACAD_PLOTSETTINGS
350
11
  3
ACAD_PLOTSTYLENAME
350
12
  3
ACAD_SCALELIST
350
14
  3
ACAD_TABLESTYLE
350
15
  3
ACAD_VISUALSTYLE
350
16
  3
EZDXF_META
350
2D
  0
DICTIONARY
  5
B
330
A
100
AcDbDictionary
281
1
  0
DICTIONARY
  5
C
330
A
100
AcDbDictionary
281
1
  0
DICTIONARY
  5
D
330
A
100
AcDbDictionary
281
1
  3
Model
350
1A
  3
Layout1
350
1E
  0
DICTIONARY
  5
E
330
A
100
AcDbDictionary
281
1
  3
ByBlock
350
1F
  3
ByLayer
350
20
  3
Global
350
21
  0
DICTIONARY
  5
F
330
A
100
AcDbDictionary
281
1
  3
Standard
350
2C
  0
DICTIONARY
  5
10
330
A
100
AcDbDictionary
281
1
  3
Standard
350
22
  0
DICTIONARY
  5
11
330
A
100
AcDbDictionary
281
1
  0
ACDBDICTIONARYWDFLT
  5
12
330
A
100
AcDbDictionary
281
1
  3
Normal
350
13
100
AcDbDictionaryWithDefault
340
13
  0
ACDBPLACEHOLDER
  5
13
330
12
  0
DICTIONARY
  5
14
330
A
100
AcDbDictionary
281
1
  0
DICTIONARY
  5
15
330
A
100
AcDbDictionary
281
1
  0
DICTIONARY
  5
16
330
A
100
AcDbDictionary
281
1
  0
LAYOUT
  5
1A
330
D
100
AcDbPlotSettings
  1

  4
A3
  6

 40
7.5
 41
20.0
 42
7.5
 43
20.0
 44
420.0
 45
297.0
 46
0.0
 47
0.0
 48
0.0
 49
0.0
140
0.0
141
0.0
142
1.0
143
1.0
 70
1024
 72
1
 73
0
 74
5
  7

 75
16
 76
0
 77
2
 78
300
147
1.0
148
0.0
149
0.0
100
AcDbLayout
  1
Model
 70
1
 71
0
 10
0.0
 20
0.0
 11
420.0
 21
297.0
 12
0.0
 22
0.0
 32
0.0
 14
1e+20
 24
1e+20
 34
1e+20
 15
-1e+20
 25
-1e+20
 35
-1e+20
146
0.0
 13
0.0
 23
0.0
 33
0.0
 16
1.0
 26
0.0
 36
0.0
 17
0.0
 27
1.0
 37
0.0
 76
1
330
17
  0
LAYOUT
  5
1E
330
D
100
AcDbPlotSettings
  1

  4
A3
  6

 40
7.5
 41
20.0
 42
7.5
 43
20.0
 44
420.0
 45
297.0
 46
0.0
 47
0.0
 48
0.0
 49
0.0
140
0.0
141
0.0
142
1.0
143
1.0
 70
0
 72
1
 73
0
 74
5
  7

 75
16
 76
0
 77
2
 78
300
147
1.0
148
0.0
149
0.0
100
AcDbLayout
  1
Layout1
 70
1
 71
1
 10
0.0
 20
0.0
 11
420.0
 21
297.0
 12
0.0
 22
0.0
 32
0.0
 14
1e+20
 24
1e+20
 34
1e+20
 15
-1e+20
 25
-1e+20
 35
-1e+20
146
0.0
 13
0.0
 23
0.0
 33
0.0
 16
1.0
 26
0.0
 36
0.0
 17
0.0
 27
1.0
 37
0.0
 76
1
330
1B
  0
MATERIAL
  5
1F
102
{ACAD_REACTORS
330
E
102
}
330
E
100
AcDbMaterial
  1
ByBlock
  2

 70
0
 40
1.0
 71
1
 41
1.0
 91
-1023410177
 42
1.0
 72
1
  3

 73
1
 74
1
 75
1
 44
0.5
 73
0
 45
1.0
 46
1.0
 77
1
  4

 78
1
 79
1
170
1
 48
1.0
171
1
  6

172
1
173
1
174
1
140
1.0
141
1.0
175
1
  7

176
1
177
1
178
1
143
1.0
179
1
  8

270
1
271
1
272
1
145
1.0
146
1.0
273
1
  9

274
1
275
1
276
1
 42
1.0
 72
1
  3

 73
1
 74
1
 75
1
 94
63
  0
MATERIAL
  5
20
102
{ACAD_REACTORS
330
E
102
}
330
E
100
AcDbMaterial
  1
ByLayer
  2

 70
0
 40
1.0
 71
1
 41
1.0
 91
-1023410177
 42
1.0
 72
1
  3

 73
1
 74
1
 75
1
 44
0.5
 73
0
 45
1.0
 46
1.0
 77
1
  4

 78
1
 79
1
170
1
 48
1.0
171
1
  6

172
1
173
1
174
1
140
1.0
141
1.0
175
1
  7

176
1
177
1
178
1
143
1.0
179
1
  8

270
1
271
1
272
1
145
1.0
146
1.0
273
1
  9

274
1
275
1
276
1
 42
1.0
 72
1
  3

 73
1
 74
1
 75
1
 94
63
  0
MATERIAL
  5
21
102
{ACAD_REACTORS
330
E
102
}
330
E
100
AcDbMaterial
  1
Global
  2

 70
0
 40
1.0
 71
1
 41
1.0
 91
-1023410177
 42
1.0
 72
1
  3

 73
1
 74
1
 75
1
 44
0.5
 73
0
 45
1.0
 46
1.0
 77
1
  4

 78
1
 79
1
170
1
 48
1.0
171
1
  6

172
1
173
1
174
1
140
1.0
141
1.0
175
1
  7

176
1
177
1
178
1
143
1.0
179
1
  8

270
1
271
1
272
1
145
1.0
146
1.0
273
1
  9

274
1
275
1
276
1
 42
1.0
 72
1
  3

 73
1
 74
1
 75
1
 94
63
  0
MLINESTYLE
  5
22
102
{ACAD_REACTORS
330
10
102
}
330
10
100
AcDbMlineStyle
  2
Standard
 70
0
  3

 62
256
 51
90.0
 52
90.0
 71
2
 49
0.5
 62
256
  6
BYLAYER
 49
-0.5
 62
256
  6
BYLAYER
  0
MLEADERSTYLE
  5
2C
102
{ACAD_REACTORS
330
F
102
}
330
F
100
AcDbMLeaderStyle
179
2
170
2
171
1
172
0
 90
2
 40
0.0
 41
0.0
173
1
 91
-1056964608
 92
-2
290
1
 42
2.0
291
1
 43
8.0
  3
Standard
 44
4.0
300

342
29
174
1
175
1
176
0
178
1
 93
-1056964608
 45
4.0
292
0
297
0
 46
4.0
 94
-1056964608
 47
1.0
 49
1.0
140
1.0
294
1
141
0.0
177
0
142
1.0
295
0
296
0
143
3.75
271
0
272
9
273
9
  0
DICTIONARY
  5
2D
330
A
100
AcDbDictionary
280
1
281
1
  3
CREATED_BY_EZDXF
350
2E
  3
WRITTEN_BY_EZDXF
350
71
  0
DICTIONARYVAR
  5
2E
330
2D
100
DictionaryVariables
280
0
  1
1.4.3 @ 2026-05-15T06:57:54.733026+00:00
  0
DICTIONARYVAR
  5
71
330
2D
100
DictionaryVariables
280
0
  1
1.4.3 @ 2026-05-15T06:57:54.782273+00:00
  0
ENDSEC
  0
EOF
