  0
SECTION
  2
HEADER
  9
$ACADVER
  1
AC1032
  9
$ACADMAINTVER
 90
4
  9
$DWGCODEPAGE
  3
ANSI_1252
  9
$LASTSAVEDBY
  1
ezdxf
  9
$REQUIREDVERSIONS
160
0
  9
$INSBASE
 10
0.0
 20
0.0
 30
0.0
  9
$EXTMIN
 10
1e+20
 20
1e+20
 30
1e+20
  9
$EXTMAX
 10
-1e+20
 20
-1e+20
 30
-1e+20
  9
$LIMMIN
 10
0.0
 20
0.0
  9
$LIMMAX
 10
420.0
 20
297.0
  9
$ORTHOMODE
 70
0
  9
$REGENMODE
 70
1
  9
$FILLMODE
 70
1
  9
$QTEXTMODE
 70
0
  9
$MIRRTEXT
 70
1
  9
$LTSCALE
 40
1.0
  9
$ATTMODE
 70
1
  9
$TEXTSIZE
 40
2.5
  9
$TRACEWID
 40
1.0
  9
$TEXTSTYLE
  7
Standard
  9
$CLAYER
  8
0
  9
$CELTYPE
  6
ByLayer
  9
$CECOLOR
 62
256
  9
$CELTSCALE
 40
1.0
  9
$DISPSILH
 70
0
  9
$DIMSCALE
 40
1.0
  9
$DIMASZ
 40
2.5
  9
$DIMEXO
 40
0.625
  9
$DIMDLI
 40
3.75
  9
$DIMRND
 40
0.0
  9
$DIMDLE
 40
0.0
  9
$DIMEXE
 40
1.25
  9
$DIMTP
 40
0.0
  9
$DIMTM
 40
0.0
  9
$DIMTXT
 40
2.5
  9
$DIMCEN
 40
2.5
  9
$DIMTSZ
 40
0.0
  9
$DIMTOL
 70
0
  9
$DIMLIM
 70
0
  9
$DIMTIH
 70
0
  9
$DIMTOH
 70
0
  9
$DIMSE1
 70
0
  9
$DIMSE2
 70
0
  9
$DIMTAD
 70
1
  9
$DIMZIN
 70
8
  9
$DIMBLK
  1

  9
$DIMASO
 70
1
  9
$DIMSHO
 70
1
  9
$DIMPOST
  1

  9
$DIMAPOST
  1

  9
$DIMALT
 70
0
  9
$DIMALTD
 70
3
  9
$DIMALTF
 40
0.03937007874
  9
$DIMLFAC
 40
1.0
  9
$DIMTOFL
 70
1
  9
$DIMTVP
 40
0.0
  9
$DIMTIX
 70
0
  9
$DIMSOXD
 70
0
  9
$DIMSAH
 70
0
  9
$DIMBLK1
  1

  9
$DIMBLK2
  1

  9
$DIMSTYLE
  2
ISO-25
  9
$DIMCLRD
 70
0
  9
$DIMCLRE
 70
0
  9
$DIMCLRT
 70
0
  9
$DIMTFAC
 40
1.0
  9
$DIMGAP
 40
0.625
  9
$DIMJUST
 70
0
  9
$DIMSD1
 70
0
  9
$DIMSD2
 70
0
  9
$DIMTOLJ
 70
0
  9
$DIMTZIN
 70
8
  9
$DIMALTZ
 70
0
  9
$DIMALTTZ
 70
0
  9
$DIMUPT
 70
0
  9
$DIMDEC
 70
2
  9
$DIMTDEC
 70
2
  9
$DIMALTU
 70
2
  9
$DIMALTTD
 70
3
  9
$DIMTXSTY
  7
Standard
  9
$DIMAUNIT
 70
0
  9
$DIMADEC
 70
0
  9
$DIMALTRND
 40
0.0
  9
$DIMAZIN
 70
0
  9
$DIMDSEP
 70
44
  9
$DIMATFIT
 70
3
  9
$DIMFRAC
 70
0
  9
$DIMLDRBLK
  1

  9
$DIMLUNIT
 70
2
  9
$DIMLWD
 70
-2
  9
$DIMLWE
 70
-2
  9
$DIMTMOVE
 70
0
  9
$DIMFXL
 40
1.0
  9
$DIMFXLON
 70
0
  9
$DIMJOGANG
 40
0.785398163397
  9
$DIMTFILL
 70
0
  9
$DIMTFILLCLR
 70
0
  9
$DIMARCSYM
 70
0
  9
$DIMLTYPE
  6

  9
$DIMLTEX1
  6

  9
$DIMLTEX2
  6

  9
$DIMTXTDIRECTION
 70
0
  9
$LUNITS
 70
2
  9
$LUPREC
 70
4
  9
$SKETCHINC
 40
1.0
  9
$FILLETRAD
 40
10.0
  9
$AUNITS
 70
0
  9
$AUPREC
 70
2
  9
$MENU
  1
.
  9
$ELEVATION
 40
0.0
  9
$PELEVATION
 40
0.0
  9
$THICKNESS
 40
0.0
  9
$LIMCHECK
 70
0
  9
$CHAMFERA
 40
0.0
  9
$CHAMFERB
 40
0.0
  9
$CHAMFERC
 40
0.0
  9
$CHAMFERD
 40
0.0
  9
$SKPOLY
 70
0
  9
$TDCREATE
 40
2461176.290208333
  9
$TDUCREATE
 40
2458532.153996898
  9
$TDUPDATE
 40
2461176.290208333
  9
$TDUUPDATE
 40
2458532.1544311
  9
$TDINDWG
 40
0.0
  9
$TDUSRTIMER
 40
0.0
  9
$USRTIMER
 70
1
  9
$ANGBASE
 50
0.0
  9
$ANGDIR
 70
0
  9
$PDMODE
 70
0
  9
$PDSIZE
 40
0.0
  9
$PLINEWID
 40
0.0
  9
$SPLFRAME
 70
0
  9
$SPLINETYPE
 70
6
  9
$SPLINESEGS
 70
8
  9
$HANDSEED
  5
189
  9
$SURFTAB1
 70
6
  9
$SURFTAB2
 70
6
  9
$SURFTYPE
 70
6
  9
$SURFU
 70
6
  9
$SURFV
 70
6
  9
$UCSBASE
  2

  9
$UCSNAME
  2

  9
$UCSORG
 10
0.0
 20
0.0
 30
0.0
  9
$UCSXDIR
 10
1.0
 20
0.0
 30
0.0
  9
$UCSYDIR
 10
0.0
 20
1.0
 30
0.0
  9
$UCSORTHOREF
  2

  9
$UCSORTHOVIEW
 70
0
  9
$UCSORGTOP
 10
0.0
 20
0.0
 30
0.0
  9
$UCSORGBOTTOM
 10
0.0
 20
0.0
 30
0.0
  9
$UCSORGLEFT
 10
0.0
 20
0.0
 30
0.0
  9
$UCSORGRIGHT
 10
0.0
 20
0.0
 30
0.0
  9
$UCSORGFRONT
 10
0.0
 20
0.0
 30
0.0
  9
$UCSORGBACK
 10
0.0
 20
0.0
 30
0.0
  9
$PUCSBASE
  2

  9
$PUCSNAME
  2

  9
$PUCSORG
 10
0.0
 20
0.0
 30
0.0
  9
$PUCSXDIR
 10
1.0
 20
0.0
 30
0.0
  9
$PUCSYDIR
 10
0.0
 20
1.0
 30
0.0
  9
$PUCSORTHOREF
  2

  9
$PUCSORTHOVIEW
 70
0
  9
$PUCSORGTOP
 10
0.0
 20
0.0
 30
0.0
  9
$PUCSORGBOTTOM
 10
0.0
 20
0.0
 30
0.0
  9
$PUCSORGLEFT
 10
0.0
 20
0.0
 30
0.0
  9
$PUCSORGRIGHT
 10
0.0
 20
0.0
 30
0.0
  9
$PUCSORGFRONT
 10
0.0
 20
0.0
 30
0.0
  9
$PUCSORGBACK
 10
0.0
 20
0.0
 30
0.0
  9
$USERI1
 70
0
  9
$USERI2
 70
0
  9
$USERI3
 70
0
  9
$USERI4
 70
0
  9
$USERI5
 70
0
  9
$USERR1
 40
0.0
  9
$USERR2
 40
0.0
  9
$USERR3
 40
0.0
  9
$USERR4
 40
0.0
  9
$USERR5
 40
0.0
  9
$WORLDVIEW
 70
1
  9
$SHADEDGE
 70
3
  9
$SHADEDIF
 70
70
  9
$TILEMODE
 70
1
  9
$MAXACTVP
 70
64
  9
$PINSBASE
 10
0.0
 20
0.0
 30
0.0
  9
$PLIMCHECK
 70
0
  9
$PEXTMIN
 10
1e+20
 20
1e+20
 30
1e+20
  9
$PEXTMAX
 10
-1e+20
 20
-1e+20
 30
-1e+20
  9
$PLIMMIN
 10
0.0
 20
0.0
  9
$PLIMMAX
 10
420.0
 20
297.0
  9
$UNITMODE
 70
0
  9
$VISRETAIN
 70
1
  9
$PLINEGEN
 70
0
  9
$PSLTSCALE
 70
1
  9
$TREEDEPTH
 70
3020
  9
$CMLSTYLE
  2
Standard
  9
$CMLJUST
 70
0
  9
$CMLSCALE
 40
20.0
  9
$PROXYGRAPHICS
 70
1
  9
$MEASUREMENT
 70
1
  9
$CELWEIGHT
370
-1
  9
$ENDCAPS
280
0
  9
$JOINSTYLE
280
0
  9
$LWDISPLAY
290
0
  9
$INSUNITS
 70
6
  9
$HYPERLINKBASE
  1

  9
$STYLESHEET
  1

  9
$XEDIT
290
1
  9
$CEPSNTYPE
380
0
  9
$PSTYLEMODE
290
1
  9
$FINGERPRINTGUID
  2
{73704C2F-B37E-474F-9E11-B97A780393F3}
  9
$VERSIONGUID
  2
{26F8C304-8B82-4E7E-9E17-2D9912AC02AA}
  9
$EXTNAMES
290
1
  9
$PSVPSCALE
 40
0.0
  9
$OLESTARTUP
290
0
  9
$SORTENTS
280
127
  9
$INDEXCTL
280
0
  9
$HIDETEXT
280
1
  9
$XCLIPFRAME
280
1
  9
$HALOGAP
280
0
  9
$OBSCOLOR
 70
257
  9
$OBSLTYPE
280
0
  9
$INTERSECTIONDISPLAY
280
0
  9
$INTERSECTIONCOLOR
 70
257
  9
$DIMASSOC
280
2
  9
$PROJECTNAME
  1

  9
$CAMERADISPLAY
290
0
  9
$LENSLENGTH
 40
50.0
  9
$CAMERAHEIGHT
 40
0.0
  9
$STEPSPERSEC
 40
24.0
  9
$STEPSIZE
 40
100.0
  9
$3DDWFPREC
 40
2.0
  9
$PSOLWIDTH
 40
0.005
  9
$PSOLHEIGHT
 40
0.08
  9
$LOFTANG1
 40
1.570796326795
  9
$LOFTANG2
 40
1.570796326795
  9
$LOFTMAG1
 40
0.0
  9
$LOFTMAG2
 40
0.0
  9
$LOFTPARAM
 70
7
  9
$LOFTNORMALS
280
1
  9
$LATITUDE
 40
37.795
  9
$LONGITUDE
 40
-122.394
  9
$NORTHDIRECTION
 40
0.0
  9
$TIMEZONE
 70
-8000
  9
$LIGHTGLYPHDISPLAY
280
1
  9
$TILEMODELIGHTSYNCH
280
1
  9
$CMATERIAL
347
20
  9
$SOLIDHIST
280
0
  9
$SHOWHIST
280
1
  9
$DWFFRAME
280
2
  9
$DGNFRAME
280
2
  9
$REALWORLDSCALE
290
1
  9
$INTERFERECOLOR
 62
256
  9
$CSHADOW
280
0
  9
$SHADOWPLANELOCATION
 40
0.0
  0
ENDSEC
  0
SECTION
  2
CLASSES
  0
CLASS
  1
ACDBDICTIONARYWDFLT
  2
AcDbDictionaryWithDefault
  3
ObjectDBX Classes
 90
0
 91
0
280
0
281
0
  0
CLASS
  1
SUN
  2
AcDbSun
  3
SCENEOE
 90
1153
 91
0
280
0
281
0
  0
CLASS
  1
VISUALSTYLE
  2
AcDbVisualStyle
  3
ObjectDBX Classes
 90
4095
 91
0
280
0
281
0
  0
CLASS
  1
MATERIAL
  2
AcDbMaterial
  3
ObjectDBX Classes
 90
1153
 91
0
280
0
281
0
  0
CLASS
  1
SCALE
  2
AcDbScale
  3
ObjectDBX Classes
 90
1153
 91
0
280
0
281
0
  0
CLASS
  1
TABLESTYLE
  2
AcDbTableStyle
  3
ObjectDBX Classes
 90
4095
 91
0
280
0
281
0
  0
CLASS
  1
MLEADERSTYLE
  2
AcDbMLeaderStyle
  3
ACDB_MLEADERSTYLE_CLASS
 90
4095
 91
0
280
0
281
0
  0
CLASS
  1
DICTIONARYVAR
  2
AcDbDictionaryVar
  3
ObjectDBX Classes
 90
0
 91
0
280
0
281
0
  0
CLASS
  1
CELLSTYLEMAP
  2
AcDbCellStyleMap
  3
ObjectDBX Classes
 90
1152
 91
0
280
0
281
0
  0
CLASS
  1
MENTALRAYRENDERSETTINGS
  2
AcDbMentalRayRenderSettings
  3
SCENEOE
 90
1024
 91
0
280
0
281
0
  0
CLASS
  1
ACDBDETAILVIEWSTYLE
  2
AcDbDetailViewStyle
  3
ObjectDBX Classes
 90
1025
 91
0
280
0
281
0
  0
CLASS
  1
ACDBSECTIONVIEWSTYLE
  2
AcDbSectionViewStyle
  3
ObjectDBX Classes
 90
1025
 91
0
280
0
281
0
  0
CLASS
  1
RASTERVARIABLES
  2
AcDbRasterVariables
  3
ISM
 90
0
 91
0
280
0
281
0
  0
CLASS
  1
LAYOUT
  2
AcDbLayout
  3
ObjectDBX Classes
 90
0
 91
0
280
0
281
0
  0
CLASS
  1
ACDBPLACEHOLDER
  2
AcDbPlaceHolder
  3
ObjectDBX Classes
 90
0
 91
0
280
0
281
0
  0
ENDSEC
  0
SECTION
  2
TABLES
  0
TABLE
  2
VPORT
  5
8
330
0
100
AcDbSymbolTable
 70
1
  0
VPORT
  5
23
330
8
100
AcDbSymbolTableRecord
100
AcDbViewportTableRecord
  2
*Active
 70
0
 10
0.0
 20
0.0
 11
1.0
 21
1.0
 12
0.0
 22
0.0
 13
0.0
 23
0.0
 14
0.5
 24
0.5
 15
0.5
 25
0.5
 16
0.0
 26
0.0
 36
1.0
 17
0.0
 27
0.0
 37
0.0
 40
1000.0
 41
1.34
 42
50.0
 43
0.0
 44
0.0
 50
0.0
 51
0.0
 71
0
 72
1000
 73
1
 74
3
 75
0
 76
0
 77
0
 78
0
281
0
 65
0
146
0.0
  0
ENDTAB
  0
TABLE
  2
LTYPE
  5
2
330
0
100
AcDbSymbolTable
 70
3
  0
LTYPE
  5
24
330
2
100
AcDbSymbolTableRecord
100
AcDbLinetypeTableRecord
  2
ByBlock
 70
0
  3

 72
65
 73
0
 40
0.0
  0
LTYPE
  5
25
330
2
100
AcDbSymbolTableRecord
100
AcDbLinetypeTableRecord
  2
ByLayer
 70
0
  3

 72
65
 73
0
 40
0.0
  0
LTYPE
  5
26
330
2
100
AcDbSymbolTableRecord
100
AcDbLinetypeTableRecord
  2
Continuous
 70
0
  3

 72
65
 73
0
 40
0.0
  0
ENDTAB
  0
TABLE
  2
LAYER
  5
1
330
0
100
AcDbSymbolTable
 70
7
  0
LAYER
  5
27
330
1
100
AcDbSymbolTableRecord
100
AcDbLayerTableRecord
  2
0
 70
0
 62
7
  6
Continuous
370
-3
390
13
347
21
  0
LAYER
  5
28
330
1
100
AcDbSymbolTableRecord
100
AcDbLayerTableRecord
  2
Defpoints
 70
0
 62
7
  6
Continuous
290
0
370
-3
390
13
347
21
  0
LAYER
  5
2F
330
1
100
AcDbSymbolTableRecord
100
AcDbLayerTableRecord
  2
MIKRA
 70
0
 62
7
  6
Continuous
370
-3
390
13
347
21
  0
LAYER
  5
30
330
1
100
AcDbSymbolTableRecord
100
AcDbLayerTableRecord
  2
kir
 70
0
 62
7
  6
Continuous
370
-3
390
13
347
21
  0
LAYER
  5
31
330
1
100
AcDbSymbolTableRecord
100
AcDbLayerTableRecord
  2
8
 70
0
 62
7
  6
Continuous
370
-3
390
13
347
21
  0
LAYER
  5
32
330
1
100
AcDbSymbolTableRecord
100
AcDbLayerTableRecord
  2
BAR-GAL
 70
0
 62
7
  6
Continuous
370
-3
390
13
347
21
  0
LAYER
  5
33
330
1
100
AcDbSymbolTableRecord
100
AcDbLayerTableRecord
  2
VP
 70
0
 62
-30
  6
Continuous
370
-3
390
13
347
21
  0
ENDTAB
  0
TABLE
  2
STYLE
  5
5
330
0
100
AcDbSymbolTable
 70
1
  0
STYLE
  5
29
330
5
100
AcDbSymbolTableRecord
100
AcDbTextStyleTableRecord
  2
Standard
 70
0
 40
0.0
 41
1.0
 50
0.0
 71
0
 42
2.5
  3
txt
  4

  0
ENDTAB
  0
TABLE
  2
VIEW
  5
7
330
0
100
AcDbSymbolTable
 70
0
  0
ENDTAB
  0
TABLE
  2
UCS
  5
6
330
0
100
AcDbSymbolTable
 70
0
  0
ENDTAB
  0
TABLE
  2
APPID
  5
3
330
0
100
AcDbSymbolTable
 70
3
  0
APPID
  5
2A
330
3
100
AcDbSymbolTableRecord
100
AcDbRegAppTableRecord
  2
ACAD
 70
0
  0
APPID
  5
186
330
3
100
AcDbSymbolTableRecord
100
AcDbRegAppTableRecord
  2
HATCHBACKGROUNDCOLOR
 70
0
  0
APPID
  5
187
330
3
100
AcDbSymbolTableRecord
100
AcDbRegAppTableRecord
  2
EZDXF
 70
0
  0
ENDTAB
  0
TABLE
  2
DIMSTYLE
  5
4
330
0
100
AcDbSymbolTable
 70
2
100
AcDbDimStyleTable
  0
DIMSTYLE
105
2B
330
4
100
AcDbSymbolTableRecord
100
AcDbDimStyleTableRecord
  2
Standard
 70
0
 40
1.0
 41
2.5
 42
0.625
 43
3.75
 44
1.25
 45
0.0
 46
0.0
 47
0.0
 48
0.0
 49
2.5
140
2.5
141
2.5
142
0.0
143
0.03937007874
144
1.0
145
0.0
146
1.0
147
0.625
148
0.0
 69
0
 70
0
 71
0
 72
0
 73
0
 74
0
 75
0
 76
0
 77
1
 78
8
 79
3
170
0
171
3
172
1
173
0
174
0
175
0
176
0
177
0
178
0
179
2
271
2
272
2
273
2
274
3
275
0
276
0
277
2
278
44
279
0
280
0
281
0
282
0
283
0
284
8
285
0
286
0
288
0
289
3
290
0
371
-2
372
-2
  0
DIMSTYLE
105
27
330
4
100
AcDbSymbolTableRecord
100
AcDbDimStyleTableRecord
  2
ISO-25
 70
0
 40
1.0
 41
30.0
 42
0.625
 43
3.75
 44
1.25
 45
0.0
 46
0.0
 47
0.0
 48
0.0
 49
2.5
140
30.0
141
2.5
142
0.0
143
0.03937007874016
144
1.0
145
0.0
146
1.0
147
10.0
148
0.0
 69
0
 70
0
 71
0
 72
0
 73
0
 74
0
 75
0
 76
0
 77
1
 78
8
 79
3
170
0
171
3
172
1
173
0
174
0
175
0
176
0
177
0
178
0
179
2
271
0
272
0
273
2
274
3
275
0
276
0
277
2
278
44
279
0
280
0
281
0
282
0
283
0
284
8
285
0
286
0
288
0
289
3
290
0
340
29
371
-2
372
-2
  0
ENDTAB
  0
TABLE
  2
BLOCK_RECORD
  5
9
330
0
100
AcDbSymbolTable
 70
23
  0
BLOCK_RECORD
  5
17
330
9
100
AcDbSymbolTableRecord
100
AcDbBlockTableRecord
  2
*Model_Space
340
1A
 70
0
280
1
281
0
  0
BLOCK_RECORD
  5
1B
330
9
100
AcDbSymbolTableRecord
100
AcDbBlockTableRecord
  2
*Paper_Space
340
1E
 70
0
280
1
281
0
  0
BLOCK_RECORD
  5
3A
330
9
100
AcDbSymbolTableRecord
100
AcDbBlockTableRecord
  2
*D1
340
0
 70
0
280
1
281
0
  0
BLOCK_RECORD
  5
47
330
9
100
AcDbSymbolTableRecord
100
AcDbBlockTableRecord
  2
*D2
340
0
 70
0
280
1
281
0
  0
BLOCK_RECORD
  5
54
330
9
100
AcDbSymbolTableRecord
100
AcDbBlockTableRecord
  2
*D3
340
0
 70
0
280
1
281
0
  0
BLOCK_RECORD
  5
63
330
9
100
AcDbSymbolTableRecord
100
AcDbBlockTableRecord
  2
*D4
340
0
 70
0
280
1
281
0
  0
BLOCK_RECORD
  5
70
330
9
100
AcDbSymbolTableRecord
100
AcDbBlockTableRecord
  2
*D5
340
0
 70
0
280
1
281
0
  0
BLOCK_RECORD
  5
7D
330
9
100
AcDbSymbolTableRecord
100
AcDbBlockTableRecord
  2
*D6
340
0
 70
0
280
1
281
0
  0
BLOCK_RECORD
  5
8A
330
9
100
AcDbSymbolTableRecord
100
AcDbBlockTableRecord
  2
*D7
340
0
 70
0
280
1
281
0
  0
BLOCK_RECORD
  5
98
330
9
100
AcDbSymbolTableRecord
100
AcDbBlockTableRecord
  2
*D8
340
0
 70
0
280
1
281
0
  0
BLOCK_RECORD
  5
A6
330
9
100
AcDbSymbolTableRecord
100
AcDbBlockTableRecord
  2
*D9
340
0
 70
0
280
1
281
0
  0
BLOCK_RECORD
  5
B3
330
9
100
AcDbSymbolTableRecord
100
AcDbBlockTableRecord
  2
*D10
340
0
 70
0
280
1
281
0
  0
BLOCK_RECORD
  5
C0
330
9
100
AcDbSymbolTableRecord
100
AcDbBlockTableRecord
  2
*D11
340
0
 70
0
280
1
281
0
  0
BLOCK_RECORD
  5
D5
330
9
100
AcDbSymbolTableRecord
100
AcDbBlockTableRecord
  2
*D12
340
0
 70
0
280
1
281
0
  0
BLOCK_RECORD
  5
E3
330
9
100
AcDbSymbolTableRecord
100
AcDbBlockTableRecord
  2
*D13
340
0
 70
0
280
1
281
0
  0
BLOCK_RECORD
  5
112
330
9
100
AcDbSymbolTableRecord
100
AcDbBlockTableRecord
  2
*D14
340
0
 70
0
280
1
281
0
  0
BLOCK_RECORD
  5
11F
330
9
100
AcDbSymbolTableRecord
100
AcDbBlockTableRecord
  2
*D15
340
0
 70
0
280
1
281
0
  0
BLOCK_RECORD
  5
131
330
9
100
AcDbSymbolTableRecord
100
AcDbBlockTableRecord
  2
*D16
340
0
 70
0
280
1
281
0
  0
BLOCK_RECORD
  5
13F
330
9
100
AcDbSymbolTableRecord
100
AcDbBlockTableRecord
  2
*D17
340
0
 70
0
280
1
281
0
  0
BLOCK_RECORD
  5
14D
330
9
100
AcDbSymbolTableRecord
100
AcDbBlockTableRecord
  2
*D18
340
0
 70
0
280
1
281
0
  0
BLOCK_RECORD
  5
15A
330
9
100
AcDbSymbolTableRecord
100
AcDbBlockTableRecord
  2
*D19
340
0
 70
0
280
1
281
0
  0
BLOCK_RECORD
  5
168
330
9
100
AcDbSymbolTableRecord
100
AcDbBlockTableRecord
  2
*D20
340
0
 70
0
280
1
281
0
  0
BLOCK_RECORD
  5
176
330
9
100
AcDbSymbolTableRecord
100
AcDbBlockTableRecord
  2
*D21
340
0
 70
0
280
1
281
0
  0
ENDTAB
  0
ENDSEC
  0
SECTION
  2
BLOCKS
  0
BLOCK
  5
18
330
17
100
AcDbEntity
  8
0
100
AcDbBlockBegin
  2
*Model_Space
 70
0
 10
0.0
 20
0.0
 30
0.0
  3
*Model_Space
  1

  0
ENDBLK
  5
19
330
17
100
AcDbEntity
  8
0
100
AcDbBlockEnd
  0
BLOCK
  5
1C
330
1B
100
AcDbEntity
  8
0
100
AcDbBlockBegin
  2
*Paper_Space
 70
0
 10
0.0
 20
0.0
 30
0.0
  3
*Paper_Space
  1

  0
ENDBLK
  5
1D
330
1B
100
AcDbEntity
  8
0
100
AcDbBlockEnd
  0
BLOCK
  5
3B
330
3A
100
AcDbEntity
  8
0
100
AcDbBlockBegin
  2
*D1
 70
1
 10
0.0
 20
0.0
 30
0.0
  3
*D1
  1

  0
LINE
  5
3D
330
3A
100
AcDbEntity
  8
VP
 62
0
370
-2
440
16777216
100
AcDbLine
 10
1026710.333773839
 20
89237.01780722153
 30
0.0
 11
1026710.333773839
 21
89563.17886792103
 31
0.0
  0
LINE
  5
3E
330
3A
100
AcDbEntity
  8
VP
 62
0
370
-2
440
16777216
100
AcDbLine
 10
1027494.32891853
 20
89237.01780722153
 30
0.0
 11
1027494.32891853
 21
89563.17886792103
 31
0.0
  0
LINE
  5
3F
330
3A
100
AcDbEntity
  8
VP
 62
0
370
-2
440
16777216
100
AcDbLine
 10
1026740.33377384
 20
89561.92886792101
 30
0.0
 11
1027464.32891853
 21
89561.92886792101
 31
0.0
  0
SOLID
  5
40
330
3A
100
AcDbEntity
  8
VP
 62
0
370
13
440
16777216
100
AcDbTrace
 10
1026740.33377384
 20
89566.92886792103
 30
0.0
 11
1026740.33377384
 21
89556.92886792103
 31
0.0
 12
1026710.333773839
 22
89561.92886792101
 32
0.0
 13
1026710.333773839
 23
89561.92886792101
 33
0.0
  0
SOLID
  5
41
330
3A
100
AcDbEntity
  8
VP
 62
0
370
13
440
16777216
100
AcDbTrace
 10
1027464.32891853
 20
89566.92886792103
 30
0.0
 11
1027464.32891853
 21
89556.92886792103
 31
0.0
 12
1027494.32891853
 22
89561.92886792101
 32
0.0
 13
1027494.32891853
 23
89561.92886792101
 33
0.0
  0
MTEXT
  5
42
330
3A
100
AcDbEntity
  8
VP
 62
0
370
13
440
16777216
100
AcDbMText
 10
1027102.331346185
 20
89587.24605755268
 30
0.0
 40
30.0
 41
0.0
 46
0.0
 71
5
  1
784
  0
POINT
  5
43
330
3A
100
AcDbEntity
  8
Defpoints
 62
0
370
13
440
16777216
100
AcDbPoint
 10
1026710.333773839
 20
89236.39280722152
 30
0.0
  0
POINT
  5
44
330
3A
100
AcDbEntity
  8
Defpoints
 62
0
370
13
440
16777216
100
AcDbPoint
 10
1027494.32891853
 20
89236.39280722152
 30
0.0
  0
POINT
  5
45
330
3A
100
AcDbEntity
  8
Defpoints
 62
0
370
13
440
16777216
100
AcDbPoint
 10
1027494.32891853
 20
89561.92886792101
 30
0.0
  0
ENDBLK
  5
3C
330
3A
100
AcDbEntity
  8
0
100
AcDbBlockEnd
  0
BLOCK
  5
48
330
47
100
AcDbEntity
  8
0
100
AcDbBlockBegin
  2
*D2
 70
1
 10
0.0
 20
0.0
 30
0.0
  3
*D2
  1

  0
LINE
  5
4A
330
47
100
AcDbEntity
  8
VP
 62
0
370
-2
440
16777216
100
AcDbLine
 10
1026710.333773839
 20
89237.01780722153
 30
0.0
 11
1026710.333773839
 21
89563.17886792103
 31
0.0
  0
LINE
  5
4B
330
47
100
AcDbEntity
  8
VP
 62
0
370
-2
440
16777216
100
AcDbLine
 10
1025937.344217591
 20
89076.99990400892
 30
0.0
 11
1025937.344217591
 21
89563.17886792103
 31
0.0
  0
LINE
  5
4C
330
47
100
AcDbEntity
  8
VP
 62
0
370
-2
440
16777216
100
AcDbLine
 10
1026680.333773839
 20
89561.92886792101
 30
0.0
 11
1025967.344217591
 21
89561.92886792101
 31
0.0
  0
SOLID
  5
4D
330
47
100
AcDbEntity
  8
VP
 62
0
370
13
440
16777216
100
AcDbTrace
 10
1026680.333773839
 20
89566.92886792103
 30
0.0
 11
1026680.333773839
 21
89556.92886792103
 31
0.0
 12
1026710.333773839
 22
89561.92886792101
 32
0.0
 13
1026710.333773839
 23
89561.92886792101
 33
0.0
  0
SOLID
  5
4E
330
47
100
AcDbEntity
  8
VP
 62
0
370
13
440
16777216
100
AcDbTrace
 10
1025967.344217591
 20
89566.92886792103
 30
0.0
 11
1025967.344217591
 21
89556.92886792103
 31
0.0
 12
1025937.344217591
 22
89561.92886792101
 32
0.0
 13
1025937.344217591
 23
89561.92886792101
 33
0.0
  0
MTEXT
  5
4F
330
47
100
AcDbEntity
  8
VP
 62
0
370
13
440
16777216
100
AcDbMText
 10
1026323.838995715
 20
89587.2562894763
 30
0.0
 40
30.0
 41
0.0
 46
0.0
 71
5
  1
773
  0
POINT
  5
50
330
47
100
AcDbEntity
  8
Defpoints
 62
0
370
13
440
16777216
100
AcDbPoint
 10
1026710.333773839
 20
89236.39280722152
 30
0.0
  0
POINT
  5
51
330
47
100
AcDbEntity
  8
Defpoints
 62
0
370
13
440
16777216
100
AcDbPoint
 10
1025937.344217591
 20
89076.3749040089
 30
0.0
  0
POINT
  5
52
330
47
100
AcDbEntity
  8
Defpoints
 62
0
370
13
440
16777216
100
AcDbPoint
 10
1025937.344217591
 20
89561.92886792101
 30
0.0
  0
ENDBLK
  5
49
330
47
100
AcDbEntity
  8
0
100
AcDbBlockEnd
  0
BLOCK
  5
55
330
54
100
AcDbEntity
  8
0
100
AcDbBlockBegin
  2
*D3
 70
1
 10
0.0
 20
0.0
 30
0.0
  3
*D3
  1

  0
LINE
  5
57
330
54
100
AcDbEntity
  8
VP
 62
0
370
-2
440
16777216
100
AcDbLine
 10
1025938.344217591
 20
89076.99990400892
 30
0.0
 11
1025938.344217591
 21
89699.37015077256
 31
0.0
  0
LINE
  5
58
330
54
100
AcDbEntity
  8
VP
 62
0
370
-2
440
16777216
100
AcDbLine
 10
1028259.881327139
 20
89235.41681871325
 30
0.0
 11
1028259.881327139
 21
89699.37015077256
 31
0.0
  0
LINE
  5
59
330
54
100
AcDbEntity
  8
VP
 62
0
370
-2
440
16777216
100
AcDbLine
 10
1025968.344217591
 20
89698.12015077256
 30
0.0
 11
1028229.881327139
 21
89698.12015077256
 31
0.0
  0
SOLID
  5
5A
330
54
100
AcDbEntity
  8
VP
 62
0
370
13
440
16777216
100
AcDbTrace
 10
1025968.344217591
 20
89703.12015077256
 30
0.0
 11
1025968.344217591
 21
89693.12015077256
 31
0.0
 12
1025938.344217591
 22
89698.12015077256
 32
0.0
 13
1025938.344217591
 23
89698.12015077256
 33
0.0
  0
SOLID
  5
5B
330
54
100
AcDbEntity
  8
VP
 62
0
370
13
440
16777216
100
AcDbTrace
 10
1028229.881327139
 20
89703.12015077256
 30
0.0
 11
1028229.881327139
 21
89693.12015077256
 31
0.0
 12
1028259.881327139
 22
89698.12015077256
 32
0.0
 13
1028259.881327139
 23
89698.12015077256
 33
0.0
  0
MTEXT
  5
5C
330
54
100
AcDbEntity
  8
VP
 62
0
370
13
440
16777216
100
AcDbMText
 10
1027099.112772365
 20
89723.44757232782
 30
0.0
 40
30.0
 41
0.0
 46
0.0
 71
5
  1
2322
  0
POINT
  5
5D
330
54
100
AcDbEntity
  8
Defpoints
 62
0
370
13
440
16777216
100
AcDbPoint
 10
1025938.344217591
 20
89076.3749040089
 30
0.0
  0
POINT
  5
5E
330
54
100
AcDbEntity
  8
Defpoints
 62
0
370
13
440
16777216
100
AcDbPoint
 10
1028259.881327139
 20
89234.79181871325
 30
0.0
  0
POINT
  5
5F
330
54
100
AcDbEntity
  8
Defpoints
 62
0
370
13
440
16777216
100
AcDbPoint
 10
1028259.881327139
 20
89698.12015077256
 30
0.0
  0
ENDBLK
  5
56
330
54
100
AcDbEntity
  8
0
100
AcDbBlockEnd
  0
BLOCK
  5
64
330
63
100
AcDbEntity
  8
0
100
AcDbBlockBegin
  2
*D4
 70
1
 10
0.0
 20
0.0
 30
0.0
  3
*D4
  1

  0
LINE
  5
66
330
63
100
AcDbEntity
  8
VP
 62
0
370
-2
440
16777216
100
AcDbLine
 10
1026244.70877384
 20
89376.37490400893
 30
0.0
 11
1026172.129303748
 21
89376.37490400893
 31
0.0
  0
LINE
  5
67
330
63
100
AcDbEntity
  8
VP
 62
0
370
-2
440
16777216
100
AcDbLine
 10
1026244.70877384
 20
89076.37490400895
 30
0.0
 11
1026172.129303748
 21
89076.37490400895
 31
0.0
  0
LINE
  5
68
330
63
100
AcDbEntity
  8
VP
 62
0
370
-2
440
16777216
100
AcDbLine
 10
1026173.379303748
 20
89346.37490400893
 30
0.0
 11
1026173.379303748
 21
89106.37490400892
 31
0.0
  0
SOLID
  5
69
330
63
100
AcDbEntity
  8
VP
 62
0
370
13
440
16777216
100
AcDbTrace
 10
1026168.379303748
 20
89346.37490400893
 30
0.0
 11
1026178.379303748
 21
89346.37490400893
 31
0.0
 12
1026173.379303748
 22
89376.37490400893
 32
0.0
 13
1026173.379303748
 23
89376.37490400893
 33
0.0
  0
SOLID
  5
6A
330
63
100
AcDbEntity
  8
VP
 62
0
370
13
440
16777216
100
AcDbTrace
 10
1026168.379303748
 20
89106.37490400892
 30
0.0
 11
1026178.379303748
 21
89106.37490400892
 31
0.0
 12
1026173.379303748
 22
89076.37490400895
 32
0.0
 13
1026173.379303748
 23
89076.37490400895
 33
0.0
  0
MTEXT
  5
6B
330
63
100
AcDbEntity
  8
VP
 62
0
370
13
440
16777216
100
AcDbMText
 10
1026148.051882192
 20
89226.37490400863
 30
0.0
 40
30.0
 41
0.0
 46
0.0
 71
5
  1
300
 11
1e-16
 21
1.0
 31
0.0
  0
POINT
  5
6C
330
63
100
AcDbEntity
  8
Defpoints
 62
0
370
13
440
16777216
100
AcDbPoint
 10
1026245.33377384
 20
89376.37490400893
 30
0.0
  0
POINT
  5
6D
330
63
100
AcDbEntity
  8
Defpoints
 62
0
370
13
440
16777216
100
AcDbPoint
 10
1026245.33377384
 20
89076.37490400895
 30
0.0
  0
POINT
  5
6E
330
63
100
AcDbEntity
  8
Defpoints
 62
0
370
13
440
16777216
100
AcDbPoint
 10
1026173.379303748
 20
89076.37490400895
 30
0.0
  0
ENDBLK
  5
65
330
63
100
AcDbEntity
  8
0
100
AcDbBlockEnd
  0
BLOCK
  5
71
330
70
100
AcDbEntity
  8
0
100
AcDbBlockBegin
  2
*D5
 70
1
 10
0.0
 20
0.0
 30
0.0
  3
*D5
  1

  0
LINE
  5
73
330
70
100
AcDbEntity
  8
VP
 62
0
370
-2
440
16777216
100
AcDbLine
 10
1025937.719217592
 20
89076.37490400895
 30
0.0
 11
1025788.989719083
 21
89076.37490400895
 31
0.0
  0
LINE
  5
74
330
70
100
AcDbEntity
  8
VP
 62
0
370
-2
440
16777216
100
AcDbLine
 10
1025937.719217592
 20
89236.39280722153
 30
0.0
 11
1025788.989719083
 21
89236.39280722153
 31
0.0
  0
LINE
  5
75
330
70
100
AcDbEntity
  8
VP
 62
0
370
-2
440
16777216
100
AcDbLine
 10
1025790.239719083
 20
89106.37490400892
 30
0.0
 11
1025790.239719083
 21
89206.39280722156
 31
0.0
  0
SOLID
  5
76
330
70
100
AcDbEntity
  8
VP
 62
0
370
13
440
16777216
100
AcDbTrace
 10
1025785.239719083
 20
89106.37490400892
 30
0.0
 11
1025795.239719083
 21
89106.37490400892
 31
0.0
 12
1025790.239719083
 22
89076.37490400895
 32
0.0
 13
1025790.239719083
 23
89076.37490400895
 33
0.0
  0
SOLID
  5
77
330
70
100
AcDbEntity
  8
VP
 62
0
370
13
440
16777216
100
AcDbTrace
 10
1025785.239719083
 20
89206.39280722156
 30
0.0
 11
1025795.239719083
 21
89206.39280722156
 31
0.0
 12
1025790.239719083
 22
89236.39280722153
 32
0.0
 13
1025790.239719083
 23
89236.39280722153
 33
0.0
  0
MTEXT
  5
78
330
70
100
AcDbEntity
  8
VP
 62
0
370
13
440
16777216
100
AcDbMText
 10
1025764.922529451
 20
89156.38385561493
 30
0.0
 40
30.0
 41
0.0
 46
0.0
 71
5
  1
160
 11
1e-16
 21
1.0
 31
0.0
  0
POINT
  5
79
330
70
100
AcDbEntity
  8
Defpoints
 62
0
370
13
440
16777216
100
AcDbPoint
 10
1025938.344217592
 20
89076.37490400895
 30
0.0
  0
POINT
  5
7A
330
70
100
AcDbEntity
  8
Defpoints
 62
0
370
13
440
16777216
100
AcDbPoint
 10
1025938.344217592
 20
89236.39280722153
 30
0.0
  0
POINT
  5
7B
330
70
100
AcDbEntity
  8
Defpoints
 62
0
370
13
440
16777216
100
AcDbPoint
 10
1025790.239719083
 20
89236.39280722153
 30
0.0
  0
ENDBLK
  5
72
330
70
100
AcDbEntity
  8
0
100
AcDbBlockEnd
  0
BLOCK
  5
7E
330
7D
100
AcDbEntity
  8
0
100
AcDbBlockBegin
  2
*D6
 70
1
 10
0.0
 20
0.0
 30
0.0
  3
*D6
  1

  0
LINE
  5
80
330
7D
100
AcDbEntity
  8
VP
 62
0
370
-2
440
16777216
100
AcDbLine
 10
1025936.719217592
 20
89076.37490400896
 30
0.0
 11
1025788.534854827
 21
89076.37490400896
 31
0.0
  0
LINE
  5
81
330
7D
100
AcDbEntity
  8
VP
 62
0
370
-2
440
16777216
100
AcDbLine
 10
1025936.719217592
 20
88142.09493132208
 30
0.0
 11
1025788.534854827
 21
88142.09493132208
 31
0.0
  0
LINE
  5
82
330
7D
100
AcDbEntity
  8
VP
 62
0
370
-2
440
16777216
100
AcDbLine
 10
1025789.784854827
 20
89046.37490400896
 30
0.0
 11
1025789.784854827
 21
88172.09493132208
 31
0.0
  0
SOLID
  5
83
330
7D
100
AcDbEntity
  8
VP
 62
0
370
13
440
16777216
100
AcDbTrace
 10
1025784.784854827
 20
89046.37490400896
 30
0.0
 11
1025794.784854827
 21
89046.37490400896
 31
0.0
 12
1025789.784854827
 22
89076.37490400896
 32
0.0
 13
1025789.784854827
 23
89076.37490400896
 33
0.0
  0
SOLID
  5
84
330
7D
100
AcDbEntity
  8
VP
 62
0
370
13
440
16777216
100
AcDbTrace
 10
1025784.784854827
 20
88172.09493132208
 30
0.0
 11
1025794.784854827
 21
88172.09493132208
 31
0.0
 12
1025789.784854827
 22
88142.09493132208
 32
0.0
 13
1025789.784854827
 23
88142.09493132208
 33
0.0
  0
MTEXT
  5
85
330
7D
100
AcDbEntity
  8
VP
 62
0
370
13
440
16777216
100
AcDbMText
 10
1025764.457433272
 20
88609.2349176652
 30
0.0
 40
30.0
 41
0.0
 46
0.0
 71
5
  1
934
 11
1e-16
 21
1.0
 31
0.0
  0
POINT
  5
86
330
7D
100
AcDbEntity
  8
Defpoints
 62
0
370
13
440
16777216
100
AcDbPoint
 10
1025937.344217592
 20
89076.37490400896
 30
0.0
  0
POINT
  5
87
330
7D
100
AcDbEntity
  8
Defpoints
 62
0
370
13
440
16777216
100
AcDbPoint
 10
1025937.344217592
 20
88142.09493132208
 30
0.0
  0
POINT
  5
88
330
7D
100
AcDbEntity
  8
Defpoints
 62
0
370
13
440
16777216
100
AcDbPoint
 10
1025789.784854827
 20
88142.09493132208
 30
0.0
  0
ENDBLK
  5
7F
330
7D
100
AcDbEntity
  8
0
100
AcDbBlockEnd
  0
BLOCK
  5
8B
330
8A
100
AcDbEntity
  8
0
100
AcDbBlockBegin
  2
*D7
 70
1
 10
0.0
 20
0.0
 30
0.0
  3
*D7
  1

  0
LINE
  5
8D
330
8A
100
AcDbEntity
  8
VP
 62
0
370
-2
440
16777216
100
AcDbLine
 10
1026424.598502579
 20
88142.09493132208
 30
0.0
 11
1025788.534854829
 21
88142.09493132208
 31
0.0
  0
LINE
  5
8E
330
8A
100
AcDbEntity
  8
VP
 62
0
370
-2
440
16777216
100
AcDbLine
 10
1025938.617592077
 20
87502.02712839143
 30
0.0
 11
1025788.534854829
 21
87502.02712839143
 31
0.0
  0
LINE
  5
8F
330
8A
100
AcDbEntity
  8
VP
 62
0
370
-2
440
16777216
100
AcDbLine
 10
1025789.784854828
 20
88112.09493132206
 30
0.0
 11
1025789.784854828
 21
87532.02712839143
 31
0.0
  0
SOLID
  5
90
330
8A
100
AcDbEntity
  8
VP
 62
0
370
13
440
16777216
100
AcDbTrace
 10
1025784.784854828
 20
88112.09493132206
 30
0.0
 11
1025794.784854829
 21
88112.09493132206
 31
0.0
 12
1025789.784854828
 22
88142.09493132208
 32
0.0
 13
1025789.784854828
 23
88142.09493132208
 33
0.0
  0
SOLID
  5
91
330
8A
100
AcDbEntity
  8
VP
 62
0
370
13
440
16777216
100
AcDbTrace
 10
1025784.784854828
 20
87532.02712839143
 30
0.0
 11
1025794.784854829
 21
87532.02712839143
 31
0.0
 12
1025789.784854828
 22
87502.02712839143
 32
0.0
 13
1025789.784854828
 23
87502.02712839143
 33
0.0
  0
MTEXT
  5
92
330
8A
100
AcDbEntity
  8
VP
 62
0
370
13
440
16777216
100
AcDbMText
 10
1025764.467665197
 20
87822.06102985646
 30
0.0
 40
30.0
 41
0.0
 46
0.0
 71
5
  1
640
 11
1e-16
 21
1.0
 31
0.0
  0
POINT
  5
93
330
8A
100
AcDbEntity
  8
Defpoints
 62
0
370
13
440
16777216
100
AcDbPoint
 10
1026425.223502579
 20
88142.09493132208
 30
0.0
  0
POINT
  5
94
330
8A
100
AcDbEntity
  8
Defpoints
 62
0
370
13
440
16777216
100
AcDbPoint
 10
1025939.242592077
 20
87502.02712839143
 30
0.0
  0
POINT
  5
95
330
8A
100
AcDbEntity
  8
Defpoints
 62
0
370
13
440
16777216
100
AcDbPoint
 10
1025789.784854828
 20
87502.02712839143
 30
0.0
  0
ENDBLK
  5
8C
330
8A
100
AcDbEntity
  8
0
100
AcDbBlockEnd
  0
BLOCK
  5
99
330
98
100
AcDbEntity
  8
0
100
AcDbBlockBegin
  2
*D8
 70
1
 10
0.0
 20
0.0
 30
0.0
  3
*D8
  1

  0
LINE
  5
9B
330
98
100
AcDbEntity
  8
VP
 62
0
370
-2
440
16777216
100
AcDbLine
 10
1026425.223502579
 20
87501.4021283914
 30
0.0
 11
1026425.223502579
 21
87447.28596526623
 31
0.0
  0
LINE
  5
9C
330
98
100
AcDbEntity
  8
VP
 62
0
370
-2
440
16777216
100
AcDbLine
 10
1026765.366795941
 20
87501.34280772162
 30
0.0
 11
1026765.366795941
 21
87447.28596526623
 31
0.0
  0
LINE
  5
9D
330
98
100
AcDbEntity
  8
VP
 62
0
370
-2
440
16777216
100
AcDbLine
 10
1026455.223502579
 20
87448.53596526622
 30
0.0
 11
1026735.366795941
 21
87448.53596526622
 31
0.0
  0
SOLID
  5
9E
330
98
100
AcDbEntity
  8
VP
 62
0
370
13
440
16777216
100
AcDbTrace
 10
1026455.223502579
 20
87453.53596526623
 30
0.0
 11
1026455.223502579
 21
87443.53596526623
 31
0.0
 12
1026425.223502579
 22
87448.53596526622
 32
0.0
 13
1026425.223502579
 23
87448.53596526622
 33
0.0
  0
SOLID
  5
9F
330
98
100
AcDbEntity
  8
VP
 62
0
370
13
440
16777216
100
AcDbTrace
 10
1026735.366795941
 20
87453.53596526623
 30
0.0
 11
1026735.366795941
 21
87443.53596526623
 31
0.0
 12
1026765.366795941
 22
87448.53596526622
 32
0.0
 13
1026765.366795941
 23
87448.53596526622
 33
0.0
  0
MTEXT
  5
A0
330
98
100
AcDbEntity
  8
VP
 62
0
370
13
440
16777216
100
AcDbMText
 10
1026595.29514926
 20
87473.86338682147
 30
0.0
 40
30.0
 41
0.0
 46
0.0
 71
5
  1
340
  0
POINT
  5
A1
330
98
100
AcDbEntity
  8
Defpoints
 62
0
370
13
440
16777216
100
AcDbPoint
 10
1026425.223502579
 20
87502.0271283914
 30
0.0
  0
POINT
  5
A2
330
98
100
AcDbEntity
  8
Defpoints
 62
0
370
13
440
16777216
100
AcDbPoint
 10
1026765.366795941
 20
87501.96780772164
 30
0.0
  0
POINT
  5
A3
330
98
100
AcDbEntity
  8
Defpoints
 62
0
370
13
440
16777216
100
AcDbPoint
 10
1026765.366795941
 20
87448.53596526622
 30
0.0
  0
ENDBLK
  5
9A
330
98
100
AcDbEntity
  8
0
100
AcDbBlockEnd
  0
BLOCK
  5
A7
330
A6
100
AcDbEntity
  8
0
100
AcDbBlockBegin
  2
*D9
 70
1
 10
0.0
 20
0.0
 30
0.0
  3
*D9
  1

  0
LINE
  5
A9
330
A6
100
AcDbEntity
  8
VP
 62
0
370
-2
440
16777216
100
AcDbLine
 10
1025937.366795941
 20
88141.4021283914
 30
0.0
 11
1025937.366795941
 21
88075.79743420513
 31
0.0
  0
LINE
  5
AA
330
A6
100
AcDbEntity
  8
VP
 62
0
370
-2
440
16777216
100
AcDbLine
 10
1026425.223502579
 20
88141.46993132203
 30
0.0
 11
1026425.223502579
 21
88075.79743420513
 31
0.0
  0
LINE
  5
AB
330
A6
100
AcDbEntity
  8
VP
 62
0
370
-2
440
16777216
100
AcDbLine
 10
1025967.366795941
 20
88077.04743420513
 30
0.0
 11
1026395.223502579
 21
88077.04743420513
 31
0.0
  0
SOLID
  5
AC
330
A6
100
AcDbEntity
  8
VP
 62
0
370
13
440
16777216
100
AcDbTrace
 10
1025967.366795941
 20
88082.04743420515
 30
0.0
 11
1025967.366795941
 21
88072.04743420513
 31
0.0
 12
1025937.366795941
 22
88077.04743420513
 32
0.0
 13
1025937.366795941
 23
88077.04743420513
 33
0.0
  0
SOLID
  5
AD
330
A6
100
AcDbEntity
  8
VP
 62
0
370
13
440
16777216
100
AcDbTrace
 10
1026395.223502579
 20
88082.04743420515
 30
0.0
 11
1026395.223502579
 21
88072.04743420513
 31
0.0
 12
1026425.223502579
 22
88077.04743420513
 32
0.0
 13
1026425.223502579
 23
88077.04743420513
 33
0.0
  0
MTEXT
  5
AE
330
A6
100
AcDbEntity
  8
VP
 62
0
370
13
440
16777216
100
AcDbMText
 10
1026181.29514926
 20
88102.36462383677
 30
0.0
 40
30.0
 41
0.0
 46
0.0
 71
5
  1
488
  0
POINT
  5
AF
330
A6
100
AcDbEntity
  8
Defpoints
 62
0
370
13
440
16777216
100
AcDbPoint
 10
1025937.366795941
 20
88142.0271283914
 30
0.0
  0
POINT
  5
B0
330
A6
100
AcDbEntity
  8
Defpoints
 62
0
370
13
440
16777216
100
AcDbPoint
 10
1026425.223502579
 20
88142.09493132203
 30
0.0
  0
POINT
  5
B1
330
A6
100
AcDbEntity
  8
Defpoints
 62
0
370
13
440
16777216
100
AcDbPoint
 10
1026425.223502579
 20
88077.04743420513
 30
0.0
  0
ENDBLK
  5
A8
330
A6
100
AcDbEntity
  8
0
100
AcDbBlockEnd
  0
BLOCK
  5
B4
330
B3
100
AcDbEntity
  8
0
100
AcDbBlockBegin
  2
*D10
 70
1
 10
0.0
 20
0.0
 30
0.0
  3
*D10
  1

  0
LINE
  5
B6
330
B3
100
AcDbEntity
  8
VP
 62
0
370
-2
440
16777216
100
AcDbLine
 10
1025937.719217592
 20
89236.39280722153
 30
0.0
 11
1025604.313365767
 21
89236.39280722153
 31
0.0
  0
LINE
  5
B7
330
B3
100
AcDbEntity
  8
VP
 62
0
370
-2
440
16777216
100
AcDbLine
 10
1025962.541584287
 20
86437.58124440403
 30
0.0
 11
1025604.313365767
 21
86437.58124440403
 31
0.0
  0
LINE
  5
B8
330
B3
100
AcDbEntity
  8
VP
 62
0
370
-2
440
16777216
100
AcDbLine
 10
1025605.563365767
 20
89206.39280722156
 30
0.0
 11
1025605.563365767
 21
86467.58124440403
 31
0.0
  0
SOLID
  5
B9
330
B3
100
AcDbEntity
  8
VP
 62
0
370
13
440
16777216
100
AcDbTrace
 10
1025600.563365767
 20
89206.39280722156
 30
0.0
 11
1025610.563365767
 21
89206.39280722156
 31
0.0
 12
1025605.563365767
 22
89236.39280722153
 32
0.0
 13
1025605.563365767
 23
89236.39280722153
 33
0.0
  0
SOLID
  5
BA
330
B3
100
AcDbEntity
  8
VP
 62
0
370
13
440
16777216
100
AcDbTrace
 10
1025600.563365767
 20
86467.58124440403
 30
0.0
 11
1025610.563365767
 21
86467.58124440403
 31
0.0
 12
1025605.563365767
 22
86437.58124440403
 32
0.0
 13
1025605.563365767
 23
86437.58124440403
 33
0.0
  0
MTEXT
  5
BB
330
B3
100
AcDbEntity
  8
VP
 62
0
370
13
440
16777216
100
AcDbMText
 10
1025580.246176135
 20
87836.98702581249
 30
0.0
 40
30.0
 41
0.0
 46
0.0
 71
5
  1
2799
 11
1e-16
 21
1.0
 31
0.0
  0
POINT
  5
BC
330
B3
100
AcDbEntity
  8
Defpoints
 62
0
370
13
440
16777216
100
AcDbPoint
 10
1025938.344217592
 20
89236.39280722153
 30
0.0
  0
POINT
  5
BD
330
B3
100
AcDbEntity
  8
Defpoints
 62
0
370
13
440
16777216
100
AcDbPoint
 10
1025963.166584287
 20
86437.58124440403
 30
0.0
  0
POINT
  5
BE
330
B3
100
AcDbEntity
  8
Defpoints
 62
0
370
13
440
16777216
100
AcDbPoint
 10
1025605.563365767
 20
86437.58124440403
 30
0.0
  0
ENDBLK
  5
B5
330
B3
100
AcDbEntity
  8
0
100
AcDbBlockEnd
  0
BLOCK
  5
C1
330
C0
100
AcDbEntity
  8
0
100
AcDbBlockBegin
  2
*D11
 70
1
 10
0.0
 20
0.0
 30
0.0
  3
*D11
  1

  0
LINE
  5
C3
330
C0
100
AcDbEntity
  8
VP
 62
0
370
-2
440
16777216
100
AcDbLine
 10
1027494.95391853
 20
88694.3759720787
 30
0.0
 11
1028364.879438393
 21
88694.3759720787
 31
0.0
  0
LINE
  5
C4
330
C0
100
AcDbEntity
  8
VP
 62
0
370
-2
440
16777216
100
AcDbLine
 10
1027494.969217592
 20
89236.37490400895
 30
0.0
 11
1028364.879438393
 21
89236.37490400895
 31
0.0
  0
LINE
  5
C5
330
C0
100
AcDbEntity
  8
VP
 62
0
370
-2
440
16777216
100
AcDbLine
 10
1028363.629438393
 20
88724.3759720787
 30
0.0
 11
1028363.629438393
 21
89206.37490400895
 31
0.0
  0
SOLID
  5
C6
330
C0
100
AcDbEntity
  8
VP
 62
0
370
13
440
16777216
100
AcDbTrace
 10
1028358.629438393
 20
88724.3759720787
 30
0.0
 11
1028368.629438394
 21
88724.3759720787
 31
0.0
 12
1028363.629438393
 22
88694.3759720787
 32
0.0
 13
1028363.629438393
 23
88694.3759720787
 33
0.0
  0
SOLID
  5
C7
330
C0
100
AcDbEntity
  8
VP
 62
0
370
13
440
16777216
100
AcDbTrace
 10
1028358.629438393
 20
89206.37490400895
 30
0.0
 11
1028368.629438394
 21
89206.37490400895
 31
0.0
 12
1028363.629438393
 22
89236.37490400895
 32
0.0
 13
1028363.629438393
 23
89236.37490400895
 33
0.0
  0
MTEXT
  5
C8
330
C0
100
AcDbEntity
  8
VP
 62
0
370
13
440
16777216
100
AcDbMText
 10
1028338.312248762
 20
88965.37543804348
 30
0.0
 40
30.0
 41
0.0
 46
0.0
 71
5
  1
542
 11
1e-16
 21
1.0
 31
0.0
  0
POINT
  5
C9
330
C0
100
AcDbEntity
  8
Defpoints
 62
0
370
13
440
16777216
100
AcDbPoint
 10
1027494.32891853
 20
88694.3759720787
 30
0.0
  0
POINT
  5
CA
330
C0
100
AcDbEntity
  8
Defpoints
 62
0
370
13
440
16777216
100
AcDbPoint
 10
1027494.344217592
 20
89236.37490400895
 30
0.0
  0
POINT
  5
CB
330
C0
100
AcDbEntity
  8
Defpoints
 62
0
370
13
440
16777216
100
AcDbPoint
 10
1028363.629438393
 20
89236.37490400895
 30
0.0
  0
ENDBLK
  5
C2
330
C0
100
AcDbEntity
  8
0
100
AcDbBlockEnd
  0
BLOCK
  5
D6
330
D5
100
AcDbEntity
  8
0
100
AcDbBlockBegin
  2
*D12
 70
1
 10
0.0
 20
0.0
 30
0.0
  3
*D12
  1

  0
LINE
  5
D8
330
D5
100
AcDbEntity
  8
BAR-GAL
 62
0
370
-2
440
16777216
100
AcDbLine
 10
1026887.28423079
 20
88424.88732820102
 30
0.0
 11
1026887.28423079
 21
88370.28719384148
 31
0.0
  0
LINE
  5
D9
330
D5
100
AcDbEntity
  8
BAR-GAL
 62
0
370
-2
440
16777216
100
AcDbLine
 10
1027267.217056978
 20
88424.25107158792
 30
0.0
 11
1027267.217056978
 21
88370.28719384148
 31
0.0
  0
LINE
  5
DA
330
D5
100
AcDbEntity
  8
BAR-GAL
 62
0
370
-2
440
16777216
100
AcDbLine
 10
1026917.28423079
 20
88371.53719384148
 30
0.0
 11
1027237.217056978
 21
88371.53719384148
 31
0.0
  0
SOLID
  5
DB
330
D5
100
AcDbEntity
  8
BAR-GAL
 62
0
370
13
440
16777216
100
AcDbTrace
 10
1026917.28423079
 20
88376.53719384148
 30
0.0
 11
1026917.28423079
 21
88366.53719384148
 31
0.0
 12
1026887.28423079
 22
88371.53719384148
 32
0.0
 13
1026887.28423079
 23
88371.53719384148
 33
0.0
  0
SOLID
  5
DC
330
D5
100
AcDbEntity
  8
BAR-GAL
 62
0
370
13
440
16777216
100
AcDbTrace
 10
1027237.217056978
 20
88376.53719384148
 30
0.0
 11
1027237.217056978
 21
88366.53719384148
 31
0.0
 12
1027267.217056978
 22
88371.53719384148
 32
0.0
 13
1027267.217056978
 23
88371.53719384148
 33
0.0
  0
MTEXT
  5
DD
330
D5
100
AcDbEntity
  8
BAR-GAL
 62
0
370
13
440
16777216
100
AcDbMText
 10
1027077.250643884
 20
88396.86461539671
 30
0.0
 40
30.0
 41
0.0
 46
0.0
 71
5
  1
380
  0
POINT
  5
DE
330
D5
100
AcDbEntity
  8
Defpoints
 62
0
370
13
440
16777216
100
AcDbPoint
 10
1026887.28423079
 20
88425.51232820103
 30
0.0
  0
POINT
  5
DF
330
D5
100
AcDbEntity
  8
Defpoints
 62
0
370
13
440
16777216
100
AcDbPoint
 10
1027267.217056978
 20
88424.87607158792
 30
0.0
  0
POINT
  5
E0
330
D5
100
AcDbEntity
  8
Defpoints
 62
0
370
13
440
16777216
100
AcDbPoint
 10
1027267.217056978
 20
88371.53719384148
 30
0.0
  0
ENDBLK
  5
D7
330
D5
100
AcDbEntity
  8
0
100
AcDbBlockEnd
  0
BLOCK
  5
E4
330
E3
100
AcDbEntity
  8
0
100
AcDbBlockBegin
  2
*D13
 70
1
 10
0.0
 20
0.0
 30
0.0
  3
*D13
  1

  0
LINE
  5
E6
330
E3
100
AcDbEntity
  8
BAR-GAL
 62
0
370
-2
440
16777216
100
AcDbLine
 10
1027270.62265595
 20
88417.58401782643
 30
0.0
 11
1027239.433403104
 21
88417.58401782643
 31
0.0
  0
LINE
  5
E7
330
E3
100
AcDbEntity
  8
BAR-GAL
 62
0
370
-2
440
16777216
100
AcDbLine
 10
1027267.438879571
 20
88602.25196958719
 30
0.0
 11
1027239.433403104
 21
88602.25196958719
 31
0.0
  0
LINE
  5
E8
330
E3
100
AcDbEntity
  8
BAR-GAL
 62
0
370
-2
440
16777216
100
AcDbLine
 10
1027240.683403104
 20
88447.5840178264
 30
0.0
 11
1027240.683403104
 21
88572.25196958719
 31
0.0
  0
SOLID
  5
E9
330
E3
100
AcDbEntity
  8
BAR-GAL
 62
0
370
13
440
16777216
100
AcDbTrace
 10
1027235.683403104
 20
88447.5840178264
 30
0.0
 11
1027245.683403104
 21
88447.5840178264
 31
0.0
 12
1027240.683403104
 22
88417.58401782643
 32
0.0
 13
1027240.683403104
 23
88417.58401782643
 33
0.0
  0
SOLID
  5
EA
330
E3
100
AcDbEntity
  8
BAR-GAL
 62
0
370
13
440
16777216
100
AcDbTrace
 10
1027235.683403104
 20
88572.25196958719
 30
0.0
 11
1027245.683403104
 21
88572.25196958719
 31
0.0
 12
1027240.683403104
 22
88602.25196958719
 32
0.0
 13
1027240.683403104
 23
88602.25196958719
 33
0.0
  0
MTEXT
  5
EB
330
E3
100
AcDbEntity
  8
BAR-GAL
 62
0
370
13
440
16777216
100
AcDbMText
 10
1027215.366213472
 20
88509.9179937065
 30
0.0
 40
30.0
 41
0.0
 46
0.0
 71
5
  1
185
 11
1e-16
 21
1.0
 31
0.0
  0
POINT
  5
EC
330
E3
100
AcDbEntity
  8
Defpoints
 62
0
370
13
440
16777216
100
AcDbPoint
 10
1027271.24765595
 20
88417.58401782643
 30
0.0
  0
POINT
  5
ED
330
E3
100
AcDbEntity
  8
Defpoints
 62
0
370
13
440
16777216
100
AcDbPoint
 10
1027268.063879571
 20
88602.25196958719
 30
0.0
  0
POINT
  5
EE
330
E3
100
AcDbEntity
  8
Defpoints
 62
0
370
13
440
16777216
100
AcDbPoint
 10
1027240.683403104
 20
88602.25196958719
 30
0.0
  0
ENDBLK
  5
E5
330
E3
100
AcDbEntity
  8
0
100
AcDbBlockEnd
  0
BLOCK
  5
113
330
112
100
AcDbEntity
  8
0
100
AcDbBlockBegin
  2
*D14
 70
1
 10
0.0
 20
0.0
 30
0.0
  3
*D14
  1

  0
LINE
  5
115
330
112
100
AcDbEntity
  8
BAR-GAL
 62
0
370
-2
440
16777216
100
AcDbLine
 10
1027167.93833896
 20
87817.99398514241
 30
0.0
 11
1027222.687536688
 21
87817.99398514241
 31
0.0
  0
LINE
  5
116
330
112
100
AcDbEntity
  8
BAR-GAL
 62
0
370
-2
440
16777216
100
AcDbLine
 10
1027167.93833896
 20
88207.98061404283
 30
0.0
 11
1027222.687536688
 21
88207.98061404283
 31
0.0
  0
LINE
  5
117
330
112
100
AcDbEntity
  8
BAR-GAL
 62
0
370
-2
440
16777216
100
AcDbLine
 10
1027221.437536689
 20
87847.99398514241
 30
0.0
 11
1027221.437536689
 21
88177.98061404283
 31
0.0
  0
SOLID
  5
118
330
112
100
AcDbEntity
  8
BAR-GAL
 62
0
370
13
440
16777216
100
AcDbTrace
 10
1027216.437536689
 20
87847.99398514241
 30
0.0
 11
1027226.437536689
 21
87847.99398514241
 31
0.0
 12
1027221.437536689
 22
87817.99398514241
 32
0.0
 13
1027221.437536689
 23
87817.99398514241
 33
0.0
  0
SOLID
  5
119
330
112
100
AcDbEntity
  8
BAR-GAL
 62
0
370
13
440
16777216
100
AcDbTrace
 10
1027216.437536689
 20
88177.98061404283
 30
0.0
 11
1027226.437536689
 21
88177.98061404283
 31
0.0
 12
1027221.437536689
 22
88207.98061404283
 32
0.0
 13
1027221.437536689
 23
88207.98061404283
 33
0.0
  0
MTEXT
  5
11A
330
112
100
AcDbEntity
  8
BAR-GAL
 62
0
370
13
440
16777216
100
AcDbMText
 10
1027196.110115133
 20
88012.9872995923
 30
0.0
 40
30.0
 41
0.0
 46
0.0
 71
5
  1
390
 11
1e-16
 21
1.0
 31
0.0
  0
POINT
  5
11B
330
112
100
AcDbEntity
  8
Defpoints
 62
0
370
13
440
16777216
100
AcDbPoint
 10
1027167.31333896
 20
87817.99398514241
 30
0.0
  0
POINT
  5
11C
330
112
100
AcDbEntity
  8
Defpoints
 62
0
370
13
440
16777216
100
AcDbPoint
 10
1027167.31333896
 20
88207.98061404283
 30
0.0
  0
POINT
  5
11D
330
112
100
AcDbEntity
  8
Defpoints
 62
0
370
13
440
16777216
100
AcDbPoint
 10
1027221.437536689
 20
88207.98061404283
 30
0.0
  0
ENDBLK
  5
114
330
112
100
AcDbEntity
  8
0
100
AcDbBlockEnd
  0
BLOCK
  5
120
330
11F
100
AcDbEntity
  8
0
100
AcDbBlockBegin
  2
*D15
 70
1
 10
0.0
 20
0.0
 30
0.0
  3
*D15
  1

  0
LINE
  5
122
330
11F
100
AcDbEntity
  8
BAR-GAL
 62
0
370
-2
440
16777216
100
AcDbLine
 10
1026886.822644555
 20
88210.56079304592
 30
0.0
 11
1026886.822644555
 21
88314.02673865316
 31
0.0
  0
LINE
  5
123
330
11F
100
AcDbEntity
  8
BAR-GAL
 62
0
370
-2
440
16777216
100
AcDbLine
 10
1027167.313338959
 20
88209.60561404278
 30
0.0
 11
1027167.313338959
 21
88314.02673865316
 31
0.0
  0
LINE
  5
124
330
11F
100
AcDbEntity
  8
BAR-GAL
 62
0
370
-2
440
16777216
100
AcDbLine
 10
1026916.822644555
 20
88312.77673865316
 30
0.0
 11
1027137.313338959
 21
88312.77673865316
 31
0.0
  0
SOLID
  5
125
330
11F
100
AcDbEntity
  8
BAR-GAL
 62
0
370
13
440
16777216
100
AcDbTrace
 10
1026916.822644555
 20
88317.77673865316
 30
0.0
 11
1026916.822644555
 21
88307.77673865316
 31
0.0
 12
1026886.822644555
 22
88312.77673865316
 32
0.0
 13
1026886.822644555
 23
88312.77673865316
 33
0.0
  0
SOLID
  5
126
330
11F
100
AcDbEntity
  8
BAR-GAL
 62
0
370
13
440
16777216
100
AcDbTrace
 10
1027137.313338959
 20
88317.77673865316
 30
0.0
 11
1027137.313338959
 21
88307.77673865316
 31
0.0
 12
1027167.313338959
 22
88312.77673865316
 32
0.0
 13
1027167.313338959
 23
88312.77673865316
 33
0.0
  0
MTEXT
  5
127
330
11F
100
AcDbEntity
  8
BAR-GAL
 62
0
370
13
440
16777216
100
AcDbMText
 10
1027027.067991757
 20
88338.09392828481
 30
0.0
 40
30.0
 41
0.0
 46
0.0
 71
5
  1
280
  0
POINT
  5
128
330
11F
100
AcDbEntity
  8
Defpoints
 62
0
370
13
440
16777216
100
AcDbPoint
 10
1026886.822644555
 20
88209.93579304592
 30
0.0
  0
POINT
  5
129
330
11F
100
AcDbEntity
  8
Defpoints
 62
0
370
13
440
16777216
100
AcDbPoint
 10
1027167.313338959
 20
88208.98061404278
 30
0.0
  0
POINT
  5
12A
330
11F
100
AcDbEntity
  8
Defpoints
 62
0
370
13
440
16777216
100
AcDbPoint
 10
1027167.313338959
 20
88312.77673865316
 30
0.0
  0
ENDBLK
  5
121
330
11F
100
AcDbEntity
  8
0
100
AcDbBlockEnd
  0
BLOCK
  5
132
330
131
100
AcDbEntity
  8
0
100
AcDbBlockBegin
  2
*D16
 70
1
 10
0.0
 20
0.0
 30
0.0
  3
*D16
  1

  0
LINE
  5
134
330
131
100
AcDbEntity
  8
VP
 62
0
370
-2
440
16777216
100
AcDbLine
 10
1026885.379665306
 20
87545.1971087986
 30
0.0
 11
1026885.379665306
 21
87546.0993701008
 31
0.0
  0
LINE
  5
135
330
131
100
AcDbEntity
  8
VP
 62
0
370
-2
440
16777216
100
AcDbLine
 10
1027314.972282033
 20
87545.1971087986
 30
0.0
 11
1027314.972282033
 21
87546.0993701008
 31
0.0
  0
LINE
  5
136
330
131
100
AcDbEntity
  8
VP
 62
0
370
-2
440
16777216
100
AcDbLine
 10
1026915.379665306
 20
87544.84937010078
 30
0.0
 11
1027284.972282033
 21
87544.84937010078
 31
0.0
  0
SOLID
  5
137
330
131
100
AcDbEntity
  8
VP
 62
0
370
13
440
16777216
100
AcDbTrace
 10
1026915.379665306
 20
87549.8493701008
 30
0.0
 11
1026915.379665306
 21
87539.84937010078
 31
0.0
 12
1026885.379665306
 22
87544.84937010078
 32
0.0
 13
1026885.379665306
 23
87544.84937010078
 33
0.0
  0
SOLID
  5
138
330
131
100
AcDbEntity
  8
VP
 62
0
370
13
440
16777216
100
AcDbTrace
 10
1027284.972282033
 20
87549.8493701008
 30
0.0
 11
1027284.972282033
 21
87539.84937010078
 31
0.0
 12
1027314.972282033
 22
87544.84937010078
 32
0.0
 13
1027314.972282033
 23
87544.84937010078
 33
0.0
  0
MTEXT
  5
139
330
131
100
AcDbEntity
  8
VP
 62
0
370
13
440
16777216
100
AcDbMText
 10
1027100.175973669
 20
87570.17679165603
 30
0.0
 40
30.0
 41
0.0
 46
0.0
 71
5
  1
430
  0
POINT
  5
13A
330
131
100
AcDbEntity
  8
Defpoints
 62
0
370
13
440
16777216
100
AcDbPoint
 10
1026885.379665306
 20
87544.57210879862
 30
0.0
  0
POINT
  5
13B
330
131
100
AcDbEntity
  8
Defpoints
 62
0
370
13
440
16777216
100
AcDbPoint
 10
1027314.972282033
 20
87544.57210879862
 30
0.0
  0
POINT
  5
13C
330
131
100
AcDbEntity
  8
Defpoints
 62
0
370
13
440
16777216
100
AcDbPoint
 10
1027314.972282033
 20
87544.84937010078
 30
0.0
  0
ENDBLK
  5
133
330
131
100
AcDbEntity
  8
0
100
AcDbBlockEnd
  0
BLOCK
  5
140
330
13F
100
AcDbEntity
  8
0
100
AcDbBlockBegin
  2
*D17
 70
1
 10
0.0
 20
0.0
 30
0.0
  3
*D17
  1

  0
LINE
  5
142
330
13F
100
AcDbEntity
  8
VP
 62
0
370
-2
440
16777216
100
AcDbLine
 10
1026887.28423079
 20
87502.6521283914
 30
0.0
 11
1026887.28423079
 21
87546.4167976815
 31
0.0
  0
LINE
  5
143
330
13F
100
AcDbEntity
  8
VP
 62
0
370
-2
440
16777216
100
AcDbLine
 10
1026425.223502579
 20
87502.6521283914
 30
0.0
 11
1026425.223502579
 21
87546.4167976815
 31
0.0
  0
LINE
  5
144
330
13F
100
AcDbEntity
  8
VP
 62
0
370
-2
440
16777216
100
AcDbLine
 10
1026857.28423079
 20
87545.16679768151
 30
0.0
 11
1026455.223502579
 21
87545.16679768151
 31
0.0
  0
SOLID
  5
145
330
13F
100
AcDbEntity
  8
VP
 62
0
370
13
440
16777216
100
AcDbTrace
 10
1026857.28423079
 20
87550.1667976815
 30
0.0
 11
1026857.28423079
 21
87540.16679768151
 31
0.0
 12
1026887.28423079
 22
87545.16679768151
 32
0.0
 13
1026887.28423079
 23
87545.16679768151
 33
0.0
  0
SOLID
  5
146
330
13F
100
AcDbEntity
  8
VP
 62
0
370
13
440
16777216
100
AcDbTrace
 10
1026455.223502579
 20
87550.1667976815
 30
0.0
 11
1026455.223502579
 21
87540.16679768151
 31
0.0
 12
1026425.223502579
 22
87545.16679768151
 32
0.0
 13
1026425.223502579
 23
87545.16679768151
 33
0.0
  0
MTEXT
  5
147
330
13F
100
AcDbEntity
  8
VP
 62
0
370
13
440
16777216
100
AcDbMText
 10
1026656.253866684
 20
87570.48398731316
 30
0.0
 40
30.0
 41
0.0
 46
0.0
 71
5
  1
462
  0
POINT
  5
148
330
13F
100
AcDbEntity
  8
Defpoints
 62
0
370
13
440
16777216
100
AcDbPoint
 10
1026887.28423079
 20
87502.0271283914
 30
0.0
  0
POINT
  5
149
330
13F
100
AcDbEntity
  8
Defpoints
 62
0
370
13
440
16777216
100
AcDbPoint
 10
1026425.223502579
 20
87502.0271283914
 30
0.0
  0
POINT
  5
14A
330
13F
100
AcDbEntity
  8
Defpoints
 62
0
370
13
440
16777216
100
AcDbPoint
 10
1026425.223502579
 20
87545.16679768151
 30
0.0
  0
ENDBLK
  5
141
330
13F
100
AcDbEntity
  8
0
100
AcDbBlockEnd
  0
BLOCK
  5
14E
330
14D
100
AcDbEntity
  8
0
100
AcDbBlockBegin
  2
*D18
 70
1
 10
0.0
 20
0.0
 30
0.0
  3
*D18
  1

  0
LINE
  5
150
330
14D
100
AcDbEntity
  8
VP
 62
0
370
-2
440
16777216
100
AcDbLine
 10
1027462.368770973
 20
88604.44066182882
 30
0.0
 11
1027462.368770973
 21
88637.88305436814
 31
0.0
  0
LINE
  5
151
330
14D
100
AcDbEntity
  8
VP
 62
0
370
-2
440
16777216
100
AcDbLine
 10
1026886.540661435
 20
88605.83854727536
 30
0.0
 11
1026886.540661435
 21
88637.88305436814
 31
0.0
  0
LINE
  5
152
330
14D
100
AcDbEntity
  8
VP
 62
0
370
-2
440
16777216
100
AcDbLine
 10
1027432.368770973
 20
88636.63305436814
 30
0.0
 11
1026916.540661435
 21
88636.63305436814
 31
0.0
  0
SOLID
  5
153
330
14D
100
AcDbEntity
  8
VP
 62
0
370
13
440
16777216
100
AcDbTrace
 10
1027432.368770973
 20
88641.63305436814
 30
0.0
 11
1027432.368770973
 21
88631.63305436813
 31
0.0
 12
1027462.368770973
 22
88636.63305436814
 32
0.0
 13
1027462.368770973
 23
88636.63305436814
 33
0.0
  0
SOLID
  5
154
330
14D
100
AcDbEntity
  8
VP
 62
0
370
13
440
16777216
100
AcDbTrace
 10
1026916.540661435
 20
88641.63305436814
 30
0.0
 11
1026916.540661435
 21
88631.63305436813
 31
0.0
 12
1026886.540661435
 22
88636.63305436814
 32
0.0
 13
1026886.540661435
 23
88636.63305436814
 33
0.0
  0
MTEXT
  5
155
330
14D
100
AcDbEntity
  8
VP
 62
0
370
13
440
16777216
100
AcDbMText
 10
1027174.454716204
 20
88661.9502439998
 30
0.0
 40
30.0
 41
0.0
 46
0.0
 71
5
  1
576
  0
POINT
  5
156
330
14D
100
AcDbEntity
  8
Defpoints
 62
0
370
13
440
16777216
100
AcDbPoint
 10
1027462.368770973
 20
88603.81566182882
 30
0.0
  0
POINT
  5
157
330
14D
100
AcDbEntity
  8
Defpoints
 62
0
370
13
440
16777216
100
AcDbPoint
 10
1026886.540661435
 20
88605.21354727539
 30
0.0
  0
POINT
  5
158
330
14D
100
AcDbEntity
  8
Defpoints
 62
0
370
13
440
16777216
100
AcDbPoint
 10
1026886.540661435
 20
88636.63305436814
 30
0.0
  0
ENDBLK
  5
14F
330
14D
100
AcDbEntity
  8
0
100
AcDbBlockEnd
  0
BLOCK
  5
15B
330
15A
100
AcDbEntity
  8
0
100
AcDbBlockBegin
  2
*D19
 70
1
 10
0.0
 20
0.0
 30
0.0
  3
*D19
  1

  0
LINE
  5
15D
330
15A
100
AcDbEntity
  8
VP
 62
0
370
-2
440
16777216
100
AcDbLine
 10
1025937.344217591
 20
88267.60402375236
 30
0.0
 11
1025937.344217591
 21
88298.1475092165
 31
0.0
  0
LINE
  5
15E
330
15A
100
AcDbEntity
  8
VP
 62
0
370
-2
440
16777216
100
AcDbLine
 10
1026132.389253156
 20
88266.43693895261
 30
0.0
 11
1026132.389253156
 21
88298.1475092165
 31
0.0
  0
LINE
  5
15F
330
15A
100
AcDbEntity
  8
VP
 62
0
370
-2
440
16777216
100
AcDbLine
 10
1025967.344217591
 20
88296.8975092165
 30
0.0
 11
1026102.389253156
 21
88296.8975092165
 31
0.0
  0
SOLID
  5
160
330
15A
100
AcDbEntity
  8
VP
 62
0
370
13
440
16777216
100
AcDbTrace
 10
1025967.344217591
 20
88301.8975092165
 30
0.0
 11
1025967.344217591
 21
88291.8975092165
 31
0.0
 12
1025937.344217591
 22
88296.8975092165
 32
0.0
 13
1025937.344217591
 23
88296.8975092165
 33
0.0
  0
SOLID
  5
161
330
15A
100
AcDbEntity
  8
VP
 62
0
370
13
440
16777216
100
AcDbTrace
 10
1026102.389253156
 20
88301.8975092165
 30
0.0
 11
1026102.389253156
 21
88291.8975092165
 31
0.0
 12
1026132.389253156
 22
88296.8975092165
 32
0.0
 13
1026132.389253156
 23
88296.8975092165
 33
0.0
  0
MTEXT
  5
162
330
15A
100
AcDbEntity
  8
VP
 62
0
370
13
440
16777216
100
AcDbMText
 10
1026034.866735374
 20
88322.21469884815
 30
0.0
 40
30.0
 41
0.0
 46
0.0
 71
5
  1
195
  0
POINT
  5
163
330
15A
100
AcDbEntity
  8
Defpoints
 62
0
370
13
440
16777216
100
AcDbPoint
 10
1025937.344217591
 20
88266.97902375236
 30
0.0
  0
POINT
  5
164
330
15A
100
AcDbEntity
  8
Defpoints
 62
0
370
13
440
16777216
100
AcDbPoint
 10
1026132.389253156
 20
88265.81193895261
 30
0.0
  0
POINT
  5
165
330
15A
100
AcDbEntity
  8
Defpoints
 62
0
370
13
440
16777216
100
AcDbPoint
 10
1026132.389253156
 20
88296.8975092165
 30
0.0
  0
ENDBLK
  5
15C
330
15A
100
AcDbEntity
  8
0
100
AcDbBlockEnd
  0
BLOCK
  5
169
330
168
100
AcDbEntity
  8
0
100
AcDbBlockBegin
  2
*D20
 70
1
 10
0.0
 20
0.0
 30
0.0
  3
*D20
  1

  0
LINE
  5
16B
330
168
100
AcDbEntity
  8
VP
 62
0
370
-2
440
16777216
100
AcDbLine
 10
1026132.908846049
 20
88264.54575494853
 30
0.0
 11
1026197.090303911
 21
88264.54575494853
 31
0.0
  0
LINE
  5
16C
330
168
100
AcDbEntity
  8
VP
 62
0
370
-2
440
16777216
100
AcDbLine
 10
1026132.908846049
 20
88142.02712839143
 30
0.0
 11
1026197.090303911
 21
88142.02712839143
 31
0.0
  0
LINE
  5
16D
330
168
100
AcDbEntity
  8
VP
 62
0
370
-2
440
16777216
100
AcDbLine
 10
1026195.840303911
 20
88234.54575494853
 30
0.0
 11
1026195.840303911
 21
88172.02712839143
 31
0.0
  0
SOLID
  5
16E
330
168
100
AcDbEntity
  8
VP
 62
0
370
13
440
16777216
100
AcDbTrace
 10
1026190.840303911
 20
88234.54575494853
 30
0.0
 11
1026200.840303911
 21
88234.54575494853
 31
0.0
 12
1026195.840303911
 22
88264.54575494853
 32
0.0
 13
1026195.840303911
 23
88264.54575494853
 33
0.0
  0
SOLID
  5
16F
330
168
100
AcDbEntity
  8
VP
 62
0
370
13
440
16777216
100
AcDbTrace
 10
1026190.840303911
 20
88172.02712839143
 30
0.0
 11
1026200.840303911
 21
88172.02712839143
 31
0.0
 12
1026195.840303911
 22
88142.02712839143
 32
0.0
 13
1026195.840303911
 23
88142.02712839143
 33
0.0
  0
MTEXT
  5
170
330
168
100
AcDbEntity
  8
VP
 62
0
370
13
440
16777216
100
AcDbMText
 10
1026170.512882355
 20
88203.28644166968
 30
0.0
 40
30.0
 41
0.0
 46
0.0
 71
5
  1
123
 11
1e-16
 21
1.0
 31
0.0
  0
POINT
  5
171
330
168
100
AcDbEntity
  8
Defpoints
 62
0
370
13
440
16777216
100
AcDbPoint
 10
1026132.283846049
 20
88264.54575494853
 30
0.0
  0
POINT
  5
172
330
168
100
AcDbEntity
  8
Defpoints
 62
0
370
13
440
16777216
100
AcDbPoint
 10
1026132.283846049
 20
88142.02712839143
 30
0.0
  0
POINT
  5
173
330
168
100
AcDbEntity
  8
Defpoints
 62
0
370
13
440
16777216
100
AcDbPoint
 10
1026195.840303911
 20
88142.02712839143
 30
0.0
  0
ENDBLK
  5
16A
330
168
100
AcDbEntity
  8
0
100
AcDbBlockEnd
  0
BLOCK
  5
177
330
176
100
AcDbEntity
  8
0
100
AcDbBlockBegin
  2
*D21
 70
1
 10
0.0
 20
0.0
 30
0.0
  3
*D21
  1

  0
LINE
  5
179
330
176
100
AcDbEntity
  8
VP
 62
0
370
-2
440
16777216
100
AcDbLine
 10
1026887.28423079
 20
88489.8298143284
 30
0.0
 11
1026887.28423079
 21
88639.13305436813
 31
0.0
  0
LINE
  5
17A
330
176
100
AcDbEntity
  8
VP
 62
0
370
-2
440
16777216
100
AcDbLine
 10
1025937.366795941
 20
88539.11997604795
 30
0.0
 11
1025937.366795941
 21
88639.13305436813
 31
0.0
  0
LINE
  5
17B
330
176
100
AcDbEntity
  8
VP
 62
0
370
-2
440
16777216
100
AcDbLine
 10
1026857.28423079
 20
88637.88305436814
 30
0.0
 11
1025967.366795941
 21
88637.88305436814
 31
0.0
  0
SOLID
  5
17C
330
176
100
AcDbEntity
  8
VP
 62
0
370
13
440
16777216
100
AcDbTrace
 10
1026857.28423079
 20
88642.88305436813
 30
0.0
 11
1026857.28423079
 21
88632.88305436814
 31
0.0
 12
1026887.28423079
 22
88637.88305436814
 32
0.0
 13
1026887.28423079
 23
88637.88305436814
 33
0.0
  0
SOLID
  5
17D
330
176
100
AcDbEntity
  8
VP
 62
0
370
13
440
16777216
100
AcDbTrace
 10
1025967.366795941
 20
88642.88305436813
 30
0.0
 11
1025967.366795941
 21
88632.88305436814
 31
0.0
 12
1025937.366795941
 22
88637.88305436814
 32
0.0
 13
1025937.366795941
 23
88637.88305436814
 33
0.0
  0
MTEXT
  5
17E
330
176
100
AcDbEntity
  8
VP
 62
0
370
13
440
16777216
100
AcDbMText
 10
1026412.325513366
 20
88663.20024399977
 30
0.0
 40
30.0
 41
0.0
 46
0.0
 71
5
  1
950
  0
POINT
  5
17F
330
176
100
AcDbEntity
  8
Defpoints
 62
0
370
13
440
16777216
100
AcDbPoint
 10
1026887.28423079
 20
88489.2048143284
 30
0.0
  0
POINT
  5
180
330
176
100
AcDbEntity
  8
Defpoints
 62
0
370
13
440
16777216
100
AcDbPoint
 10
1025937.366795941
 20
88538.49497604795
 30
0.0
  0
POINT
  5
181
330
176
100
AcDbEntity
  8
Defpoints
 62
0
370
13
440
16777216
100
AcDbPoint
 10
1025937.366795941
 20
88637.88305436814
 30
0.0
  0
ENDBLK
  5
178
330
176
100
AcDbEntity
  8
0
100
AcDbBlockEnd
  0
ENDSEC
  0
SECTION
  2
ENTITIES
  0
LWPOLYLINE
  5
34
330
17
100
AcDbEntity
  8
BAR-GAL
 62
8
370
13
100
AcDbPolyline
 90
4
 70
1
 10
1027311.224558744
 20
88603.30932790169
 10
1027264.944543752
 20
88603.30932790169
 10
1027264.944543752
 20
88419.91494822202
 10
1027283.079430754
 20
88577.09539597566
  0
LWPOLYLINE
  5
35
330
17
100
AcDbEntity
  8
BAR-GAL
 62
8
370
13
100
AcDbPolyline
 90
4
 70
1
 10
1027460.889252102
 20
88603.30932790169
 10
1027315.747284859
 20
88603.30932790169
 10
1027315.747284859
 20
88419.91494822202
 10
1027337.731652697
 20
88573.28646185742
  0
LWPOLYLINE
  5
36
330
17
100
AcDbEntity
  8
0
370
13
100
AcDbPolyline
 90
4
 70
1
 43
3.428535235377893
 10
1029410.792252216
 20
85790.61580996425
 10
1024318.579693858
 20
85790.61580996425
 10
1024318.579693858
 20
89906.53650785582
 10
1029413.467304624
 20
89906.53650785582
  0
LWPOLYLINE
  5
37
330
17
100
AcDbEntity
  8
BAR-GAL
 62
7
370
13
100
AcDbPolyline
 90
6
 70
0
 43
15.0
 10
1026700.599010763
 20
87340.93231231935
 10
1026765.366795941
 20
87341.16723289437
 10
1026765.366795941
 20
87502.0271283914
 10
1026425.366795941
 20
87502.0271283914
 10
1026425.366795941
 20
88142.0271283914
 10
1026132.283846048
 20
88142.0271283914
  0
LWPOLYLINE
  5
38
330
17
100
AcDbEntity
  8
BAR-GAL
 62
7
370
13
100
AcDbPolyline
 90
3
 70
0
 43
5.0
 10
1026132.283846048
 20
88142.0271283914
 10
1025937.366795941
 20
88142.0271283914
 10
1025937.366795941
 20
88264.43780721973
  0
DIMENSION
  5
39
330
17
100
AcDbEntity
  8
VP
370
13
100
AcDbDimension
280
0
  2
*D1
  3
ISO-25
 10
1027494.32891853
 20
89561.92886792101
 30
0.0
 11
1027102.331346185
 21
89587.24605755268
 31
0.0
 70
32
 71
5
 42
783.9951446900377
 73
0
 74
0
 75
0
100
AcDbAlignedDimension
 13
1026710.333773839
 23
89236.39280722152
 33
0.0
 14
1027494.32891853
 24
89236.39280722152
 34
0.0
 50
0.0
100
AcDbRotatedDimension
  0
DIMENSION
  5
46
330
17
100
AcDbEntity
  8
VP
370
13
100
AcDbDimension
280
0
  2
*D2
  3
ISO-25
 10
1025937.344217591
 20
89561.92886792101
 30
0.0
 11
1026323.838995715
 21
89587.2562894763
 31
0.0
 70
32
 71
5
 42
772.9895562484162
 73
0
 74
0
 75
0
100
AcDbAlignedDimension
 13
1026710.333773839
 23
89236.39280722152
 33
0.0
 14
1025937.344217591
 24
89076.3749040089
 34
0.0
 50
0.0
100
AcDbRotatedDimension
  0
DIMENSION
  5
53
330
17
100
AcDbEntity
  8
VP
370
13
100
AcDbDimension
280
0
  2
*D3
  3
ISO-25
 10
1028259.881327139
 20
89698.12015077256
 30
0.0
 11
1027099.112772365
 21
89723.44757232782
 31
0.0
 70
32
 71
5
 42
2321.537109548226
 73
0
 74
0
 75
0
100
AcDbAlignedDimension
 13
1025938.344217591
 23
89076.3749040089
 33
0.0
 14
1028259.881327139
 24
89234.79181871325
 34
0.0
 50
0.0
100
AcDbRotatedDimension
  0
LWPOLYLINE
  5
60
330
17
100
AcDbEntity
  8
BAR-GAL
 62
7
370
13
100
AcDbPolyline
 90
4
 70
1
 43
5.0
 10
1026710.333773839
 20
89076.3749040089
 10
1026245.333773839
 20
89076.3749040089
 10
1026245.333773839
 20
89376.3749040089
 10
1026710.333773839
 20
89376.3749040089
  0
DIMENSION
  5
61
102
{ACAD_XDICTIONARY
360
62
102
}
330
17
100
AcDbEntity
  8
VP
370
13
100
AcDbDimension
280
0
  2
*D4
  3
ISO-25
 10
1026173.379303748
 20
89076.37490400895
 30
0.0
 11
1026148.051882192
 21
89226.37490400863
 31
0.0
 70
32
 71
5
 42
300.0
 73
0
 74
0
 75
0
100
AcDbAlignedDimension
 13
1026245.333773839
 23
89376.3749040089
 33
0.0
 14
1026245.333773839
 24
89076.3749040089
 34
0.0
 50
90.0
100
AcDbRotatedDimension
  0
DIMENSION
  5
6F
330
17
100
AcDbEntity
  8
VP
370
13
100
AcDbDimension
280
0
  2
*D5
  3
ISO-25
 10
1025790.239719083
 20
89236.39280722153
 30
0.0
 11
1025764.922529451
 21
89156.38385561493
 31
0.0
 70
32
 71
5
 42
160.0179032126179
 73
0
 74
0
 75
0
100
AcDbAlignedDimension
 13
1025938.344217591
 23
89076.3749040089
 33
0.0
 14
1025938.344217591
 24
89236.39280722152
 34
0.0
 50
90.0
100
AcDbRotatedDimension
  0
DIMENSION
  5
7C
330
17
100
AcDbEntity
  8
VP
370
13
100
AcDbDimension
280
0
  2
*D6
  3
ISO-25
 10
1025789.784854827
 20
88142.09493132208
 30
0.0
 11
1025764.457433272
 21
88609.2349176652
 31
0.0
 70
32
 71
5
 42
934.279972686898
 73
0
 74
0
 75
0
100
AcDbAlignedDimension
 13
1025937.344217591
 23
89076.37490400895
 33
0.0
 14
1025937.344217591
 24
88142.09493132203
 34
0.0
 50
90.0
100
AcDbRotatedDimension
  0
DIMENSION
  5
89
330
17
100
AcDbEntity
  8
VP
370
13
100
AcDbDimension
280
0
  2
*D7
  3
ISO-25
 10
1025789.784854828
 20
87502.02712839143
 30
0.0
 11
1025764.467665197
 21
87822.06102985646
 31
0.0
 70
32
 71
5
 42
640.0678029306291
 73
0
 74
0
 75
0
100
AcDbAlignedDimension
 13
1026425.223502579
 23
88142.09493132203
 33
0.0
 14
1025939.242592076
 24
87502.0271283914
 34
0.0
 50
90.0
100
AcDbRotatedDimension
  0
DIMENSION
  5
96
102
{ACAD_XDICTIONARY
360
97
102
}
330
17
100
AcDbEntity
  8
VP
370
13
100
AcDbDimension
280
0
  2
*D8
  3
ISO-25
 10
1026765.366795941
 20
87448.53596526622
 30
0.0
 11
1026595.29514926
 21
87473.86338682147
 31
0.0
 70
32
 71
5
 42
340.1432933624601
 73
0
 74
0
 75
0
100
AcDbAlignedDimension
 13
1026425.223502579
 23
87502.0271283914
 33
0.0
 14
1026765.366795941
 24
87501.96780772164
 34
0.0
 50
0.0
100
AcDbRotatedDimension
  0
DIMENSION
  5
A4
102
{ACAD_XDICTIONARY
360
A5
102
}
330
17
100
AcDbEntity
  8
VP
370
13
100
AcDbDimension
280
0
  2
*D9
  3
ISO-25
 10
1026425.223502579
 20
88077.04743420513
 30
0.0
 11
1026181.29514926
 21
88102.36462383677
 31
0.0
 70
32
 71
5
 42
487.8567066375398
 73
0
 74
0
 75
0
100
AcDbAlignedDimension
 13
1025937.366795941
 23
88142.0271283914
 33
0.0
 14
1026425.223502579
 24
88142.09493132203
 34
0.0
 50
0.0
100
AcDbRotatedDimension
  0
DIMENSION
  5
B2
330
17
100
AcDbEntity
  8
VP
370
13
100
AcDbDimension
280
0
  2
*D10
  3
ISO-25
 10
1025605.563365767
 20
86437.58124440403
 30
0.0
 11
1025580.246176135
 21
87836.98702581249
 31
0.0
 70
32
 71
5
 42
2798.811562817515
 73
0
 74
0
 75
0
100
AcDbAlignedDimension
 13
1025938.344217591
 23
89236.39280722152
 33
0.0
 14
1025963.166584287
 24
86437.581244404
 34
0.0
 50
90.0
100
AcDbRotatedDimension
  0
DIMENSION
  5
BF
330
17
100
AcDbEntity
  8
VP
370
13
100
AcDbDimension
280
0
  2
*D11
  3
ISO-25
 10
1028363.629438393
 20
89236.37490400895
 30
0.0
 11
1028338.312248762
 21
88965.37543804348
 31
0.0
 70
32
 71
5
 42
541.9989319302402
 73
0
 74
0
 75
0
100
AcDbAlignedDimension
 13
1027494.32891853
 23
88694.37597207866
 33
0.0
 14
1027494.344217591
 24
89236.3749040089
 34
0.0
 50
90.0
100
AcDbRotatedDimension
  0
LWPOLYLINE
  5
CC
330
17
100
AcDbEntity
  8
BAR-GAL
 62
7
370
13
100
AcDbPolyline
 90
4
 70
1
 10
1025937.344217591
 20
88264.43780721973
 10
1026130.380156102
 20
88264.43780721973
 10
1026130.380156102
 20
88142.09493132203
 10
1025937.344217591
 20
88142.09493132203
  0
LWPOLYLINE
  5
CD
330
17
100
AcDbEntity
  8
BAR-GAL
 62
7
370
13
100
AcDbPolyline
 90
7
 70
0
 43
15.0
 10
1027494.344217591
 20
89236.3749040089
 10
1026710.344217591
 20
89236.3749040089
 10
1026710.344217591
 20
89076.3749040089
 10
1025937.366795941
 20
89076.3749040089
 10
1025937.366795941
 20
88264.43780721973
 10
1026132.283846048
 20
88264.43780721973
 10
1026132.283846048
 20
88139.68109465408
  0
LWPOLYLINE
  5
CE
330
17
100
AcDbEntity
  8
BAR-GAL
 62
7
370
13
100
AcDbPolyline
 90
5
 70
0
 43
15.0
 10
1026887.28423079
 20
88603.94611394225
 10
1026887.28423079
 20
87819.10008715515
 10
1027166.88789791
 20
87819.10008715515
 10
1027167.313338959
 20
88208.98061404278
 10
1026887.28423079
 20
88207.71191073641
  0
LWPOLYLINE
  5
CF
330
17
100
AcDbEntity
  8
BAR-GAL
 62
7
370
13
100
AcDbPolyline
 90
3
 70
0
 43
15.0
 10
1026887.28423079
 20
88603.73148845798
 10
1027314.843490994
 20
88604.0753335464
 10
1027315.474771633
 20
87819.10008715515
  0
LWPOLYLINE
  5
D0
330
17
100
AcDbEntity
  8
BAR-GAL
 62
7
370
13
100
AcDbPolyline
 90
2
 70
0
 43
15.0
 10
1027314.84461625
 20
88602.67611632083
 10
1027314.84461625
 20
88604.07533445134
  0
LWPOLYLINE
  5
D1
330
17
100
AcDbEntity
  8
BAR-GAL
 62
7
370
13
100
AcDbPolyline
 90
4
 70
0
 43
15.0
 10
1027492.213143046
 20
88695.47922339191
 10
1027462.368770973
 20
88695.47922339191
 10
1027462.368770973
 20
88603.81566182882
 10
1027315.900212681
 20
88603.94611394225
  0
LWPOLYLINE
  5
D2
330
17
100
AcDbEntity
  8
BAR-GAL
 62
7
370
13
100
AcDbPolyline
 90
3
 70
0
 43
15.0
 10
1027460.889252102
 20
88604.36647509782
 10
1027460.889252102
 20
88424.03026938366
 10
1027314.972282033
 20
88424.03026938366
  0
LWPOLYLINE
  5
D3
330
17
100
AcDbEntity
  8
BAR-GAL
 62
7
370
13
100
AcDbPolyline
 90
2
 70
0
 43
15.0
 10
1027314.988284047
 20
88424.03026938366
 10
1026887.28423079
 20
88424.03026938366
  0
DIMENSION
  5
D4
330
17
100
AcDbEntity
  8
BAR-GAL
 62
7
370
13
100
AcDbDimension
280
0
  2
*D12
  3
ISO-25
 10
1027267.217056978
 20
88371.53719384148
 30
0.0
 11
1027077.250643884
 21
88396.86461539671
 31
0.0
 70
32
 71
5
 42
379.9328261881601
 73
0
 74
0
 75
0
100
AcDbAlignedDimension
 13
1026887.28423079
 23
88425.51232820103
 33
0.0
 14
1027267.217056978
 24
88424.87607158792
 34
0.0
 50
0.0
100
AcDbRotatedDimension
  0
LWPOLYLINE
  5
E1
330
17
100
AcDbEntity
  8
BAR-GAL
 62
7
370
13
100
AcDbPolyline
 90
2
 70
0
 43
15.0
 10
1027267.217056978
 20
88424.87607158792
 10
1027267.217056978
 20
88604.03703215302
  0
DIMENSION
  5
E2
330
17
100
AcDbEntity
  8
BAR-GAL
 62
7
370
13
100
AcDbDimension
280
0
  2
*D13
  3
ISO-25
 10
1027240.683403104
 20
88602.25196958719
 30
0.0
 11
1027215.366213472
 21
88509.9179937065
 31
0.0
 70
32
 71
5
 42
184.6679517607699
 73
0
 74
0
 75
0
100
AcDbAlignedDimension
 13
1027271.24765595
 23
88417.58401782639
 33
0.0
 14
1027268.063879571
 24
88602.25196958715
 34
0.0
 50
90.0
100
AcDbRotatedDimension
  0
LWPOLYLINE
  5
EF
330
17
100
AcDbEntity
  8
BAR-GAL
 62
7
370
13
100
AcDbPolyline
 90
4
 70
1
 43
5.0
 10
1026902.566357217
 20
88579.16105472305
 10
1027055.387620769
 20
88579.16105472305
 10
1027055.387620769
 20
88439.06812580107
 10
1026902.566357217
 20
88439.06812580107
  0
LWPOLYLINE
  5
F0
330
17
100
AcDbEntity
  8
BAR-GAL
 62
7
370
13
100
AcDbPolyline
 90
4
 70
1
 43
5.0
 10
1027073.707500232
 20
88579.16105472305
 10
1027226.528764022
 20
88579.16105472305
 10
1027226.528764022
 20
88439.06812580107
 10
1027073.707500232
 20
88439.06812580107
  0
LINE
  5
F1
330
17
100
AcDbEntity
  8
BAR-GAL
 62
7
370
13
100
AcDbLine
 10
1026902.566357217
 20
88579.16105472305
 30
0.0
 11
1027055.387620769
 21
88439.06812580107
 31
0.0
  0
LINE
  5
F2
330
17
100
AcDbEntity
  8
BAR-GAL
 62
7
370
13
100
AcDbLine
 10
1027055.387620769
 20
88579.16105472305
 30
0.0
 11
1026902.566357217
 21
88439.06812580107
 31
0.0
  0
LINE
  5
F3
330
17
100
AcDbEntity
  8
BAR-GAL
 62
7
370
13
100
AcDbLine
 10
1027073.707500232
 20
88579.16105472305
 30
0.0
 11
1027226.528764022
 21
88439.06812580107
 31
0.0
  0
LINE
  5
F4
330
17
100
AcDbEntity
  8
BAR-GAL
 62
7
370
13
100
AcDbLine
 10
1027226.528764022
 20
88579.16105472305
 30
0.0
 11
1027073.707500232
 21
88439.06812580107
 31
0.0
  0
LWPOLYLINE
  5
F5
330
17
100
AcDbEntity
  8
BAR-GAL
 62
7
370
13
100
AcDbPolyline
 90
4
 70
1
 43
5.0
 10
1026996.66292783
 20
88091.53841049965
 10
1027057.15467807
 20
88091.53841049965
 10
1027057.15467807
 20
87929.1579701583
 10
1026996.66292783
 20
87929.1579701583
  0
LINE
  5
F6
330
17
100
AcDbEntity
  8
BAR-GAL
 62
7
370
13
100
AcDbLine
 10
1026996.66292783
 20
88091.53841049965
 30
0.0
 11
1026996.66292783
 21
88208.98061404278
 31
0.0
  0
LINE
  5
F7
330
17
100
AcDbEntity
  8
BAR-GAL
 62
7
370
13
100
AcDbLine
 10
1027026.66292783
 20
88091.53841049965
 30
0.0
 11
1027026.66292783
 21
88208.98061404278
 31
0.0
  0
LINE
  5
F8
330
17
100
AcDbEntity
  8
BAR-GAL
 62
7
370
13
100
AcDbLine
 10
1027056.66292783
 20
88091.53841049965
 30
0.0
 11
1027056.66292783
 21
88208.98061404278
 31
0.0
  0
LINE
  5
F9
330
17
100
AcDbEntity
  8
BAR-GAL
 62
7
370
13
100
AcDbLine
 10
1026996.66292783
 20
88084.97492124978
 30
0.0
 11
1026887.488553162
 21
88084.97492124978
 31
0.0
  0
LINE
  5
FA
330
17
100
AcDbEntity
  8
BAR-GAL
 62
7
370
13
100
AcDbLine
 10
1026996.66292783
 20
88054.97492124978
 30
0.0
 11
1026887.488553162
 21
88054.97492124978
 31
0.0
  0
LINE
  5
FB
330
17
100
AcDbEntity
  8
BAR-GAL
 62
7
370
13
100
AcDbLine
 10
1026996.66292783
 20
88024.97492124978
 30
0.0
 11
1026887.488553162
 21
88024.97492124978
 31
0.0
  0
LINE
  5
FC
330
17
100
AcDbEntity
  8
BAR-GAL
 62
7
370
13
100
AcDbLine
 10
1026996.66292783
 20
87994.97492124978
 30
0.0
 11
1026887.488553162
 21
87994.97492124978
 31
0.0
  0
LINE
  5
FD
330
17
100
AcDbEntity
  8
BAR-GAL
 62
7
370
13
100
AcDbLine
 10
1026996.66292783
 20
87964.97492124978
 30
0.0
 11
1026887.488553162
 21
87964.97492124978
 31
0.0
  0
LINE
  5
FE
330
17
100
AcDbEntity
  8
BAR-GAL
 62
7
370
13
100
AcDbLine
 10
1026996.66292783
 20
87934.97492124981
 30
0.0
 11
1026887.488553162
 21
87934.97492124981
 31
0.0
  0
LINE
  5
FF
330
17
100
AcDbEntity
  8
BAR-GAL
 62
7
370
13
100
AcDbLine
 10
1026996.66292783
 20
87811.71576661518
 30
0.0
 11
1026996.66292783
 21
87929.1579701583
 31
0.0
  0
LINE
  5
100
330
17
100
AcDbEntity
  8
BAR-GAL
 62
7
370
13
100
AcDbLine
 10
1027026.66292783
 20
87811.71576661518
 30
0.0
 11
1027026.66292783
 21
87929.1579701583
 31
0.0
  0
LINE
  5
101
330
17
100
AcDbEntity
  8
BAR-GAL
 62
7
370
13
100
AcDbLine
 10
1027056.66292783
 20
87811.71576661518
 30
0.0
 11
1027056.66292783
 21
87929.1579701583
 31
0.0
  0
LINE
  5
102
330
17
100
AcDbEntity
  8
BAR-GAL
 62
7
370
13
100
AcDbLine
 10
1027167.313338959
 20
88084.97492124978
 30
0.0
 11
1027058.138964291
 21
88084.97492124978
 31
0.0
  0
LINE
  5
103
330
17
100
AcDbEntity
  8
BAR-GAL
 62
7
370
13
100
AcDbLine
 10
1027167.313338959
 20
88054.97492124978
 30
0.0
 11
1027058.138964291
 21
88054.97492124978
 31
0.0
  0
LINE
  5
104
330
17
100
AcDbEntity
  8
BAR-GAL
 62
7
370
13
100
AcDbLine
 10
1027167.313338959
 20
88024.97492124978
 30
0.0
 11
1027058.138964291
 21
88024.97492124978
 31
0.0
  0
LINE
  5
105
330
17
100
AcDbEntity
  8
BAR-GAL
 62
7
370
13
100
AcDbLine
 10
1027167.313338959
 20
87994.97492124978
 30
0.0
 11
1027058.138964291
 21
87994.97492124978
 31
0.0
  0
LINE
  5
106
330
17
100
AcDbEntity
  8
BAR-GAL
 62
7
370
13
100
AcDbLine
 10
1027167.313338959
 20
87964.97492124978
 30
0.0
 11
1027058.138964291
 21
87964.97492124978
 31
0.0
  0
LINE
  5
107
330
17
100
AcDbEntity
  8
BAR-GAL
 62
7
370
13
100
AcDbLine
 10
1027167.313338959
 20
87934.97492124981
 30
0.0
 11
1027058.138964291
 21
87934.97492124981
 31
0.0
  0
LWPOLYLINE
  5
108
330
17
100
AcDbEntity
  8
BAR-GAL
 62
7
370
13
100
AcDbPolyline
 90
4
 70
1
 43
5.0
 10
1026887.96239308
 20
88268.22193124419
 10
1027170.065190081
 20
88268.22193124419
 10
1027170.065190081
 20
88207.98061404275
 10
1026887.96239308
 20
88207.98061404275
  0
LWPOLYLINE
  5
109
330
17
100
AcDbEntity
  8
BAR-GAL
 62
7
370
13
100
AcDbPolyline
 90
2
 70
0
 43
5.0
 10
1027005.125361849
 20
88268.22193124419
 10
1027005.125361849
 20
88208.98061404278
  0
LWPOLYLINE
  5
10A
330
17
100
AcDbEntity
  8
BAR-GAL
 62
7
370
13
100
AcDbPolyline
 90
2
 70
0
 43
5.0
 10
1027129.94960833
 20
88267.56492977377
 10
1027129.94960833
 20
88207.98061404275
  0
LINE
  5
10B
330
17
100
AcDbEntity
  8
BAR-GAL
 62
7
370
13
100
AcDbLine
 10
1026887.96239308
 20
88268.22193124419
 30
0.0
 11
1027005.125361849
 21
88208.98061404278
 31
0.0
  0
LINE
  5
10C
330
17
100
AcDbEntity
  8
BAR-GAL
 62
7
370
13
100
AcDbLine
 10
1027005.125361849
 20
88208.98061404278
 30
0.0
 11
1027129.94960833
 21
88267.56492977377
 31
0.0
  0
LINE
  5
10D
330
17
100
AcDbEntity
  8
BAR-GAL
 62
7
370
13
100
AcDbLine
 10
1027129.94960833
 20
88267.56492977377
 30
0.0
 11
1027170.065190081
 21
88208.98061404275
 31
0.0
  0
LINE
  5
10E
330
17
100
AcDbEntity
  8
BAR-GAL
 62
7
370
13
100
AcDbLine
 10
1027170.065190081
 20
88268.22193124419
 30
0.0
 11
1027129.94960833
 21
88208.98061404275
 31
0.0
  0
LINE
  5
10F
330
17
100
AcDbEntity
  8
BAR-GAL
 62
7
370
13
100
AcDbLine
 10
1027129.94960833
 20
88208.98061404275
 30
0.0
 11
1027005.125361849
 21
88268.22193124419
 31
0.0
  0
LINE
  5
110
330
17
100
AcDbEntity
  8
BAR-GAL
 62
7
370
13
100
AcDbLine
 10
1027005.125361849
 20
88268.22193124419
 30
0.0
 11
1026889.256118063
 21
88207.98061404275
 31
0.0
  0
DIMENSION
  5
111
330
17
100
AcDbEntity
  8
BAR-GAL
 62
7
370
13
100
AcDbDimension
280
0
  2
*D14
  3
ISO-25
 10
1027221.437536689
 20
88207.98061404283
 30
0.0
 11
1027196.110115133
 21
88012.9872995923
 31
0.0
 70
32
 71
5
 42
389.9866289003985
 73
0
 74
0
 75
0
100
AcDbAlignedDimension
 13
1027167.313338959
 23
87817.99398514237
 33
0.0
 14
1027167.313338959
 24
88207.98061404278
 34
0.0
 50
90.0
100
AcDbRotatedDimension
  0
DIMENSION
  5
11E
330
17
100
AcDbEntity
  8
BAR-GAL
 62
7
370
13
100
AcDbDimension
280
0
  2
*D15
  3
ISO-25
 10
1027167.313338959
 20
88312.77673865316
 30
0.0
 11
1027027.067991757
 21
88338.09392828481
 31
0.0
 70
32
 71
5
 42
280.4906944036484
 73
0
 74
0
 75
0
100
AcDbAlignedDimension
 13
1026886.822644555
 23
88209.93579304592
 33
0.0
 14
1027167.313338959
 24
88208.98061404278
 34
0.0
 50
0.0
100
AcDbRotatedDimension
  0
LWPOLYLINE
  5
12B
330
17
100
AcDbEntity
  8
BAR-GAL
 62
7
370
13
100
AcDbPolyline
 90
8
 70
1
 10
1026888.912618261
 20
88424.03026938366
 10
1026888.912618261
 20
88273.13219320211
 10
1027169.721690278
 20
88273.13219320211
 10
1027169.721690278
 20
88212.89087600069
 10
1027169.721690278
 20
87822.90424710028
 10
1027314.972282033
 20
87822.90424710028
 10
1027314.972282033
 20
88424.03026938366
 10
1027269.692267042
 20
88424.03026938366
  0
LWPOLYLINE
  5
12C
330
17
100
AcDbEntity
  8
BAR-GAL
 62
7
370
13
100
AcDbPolyline
 90
2
 70
0
 43
15.0
 10
1027167.313338959
 20
87817.99398514237
 10
1027317.383541472
 20
87817.99398514237
  0
LWPOLYLINE
  5
12D
330
17
100
AcDbEntity
  8
BAR-GAL
 62
7
370
13
100
AcDbPolyline
 90
3
 70
0
 43
15.0
 10
1026887.28423079
 20
87819.10008715515
 10
1026887.28423079
 20
87502.0271283914
 10
1026765.366795941
 20
87502.0271283914
  0
LWPOLYLINE
  5
12E
330
17
100
AcDbEntity
  8
BAR-GAL
 62
7
370
13
100
AcDbPolyline
 90
3
 70
0
 43
15.0
 10
1027314.972282033
 20
87822.90424710028
 10
1027314.972282033
 20
87469.010998053
 10
1027727.215573875
 20
87469.010998053
  0
DIMENSION
  5
12F
102
{ACAD_XDICTIONARY
360
130
102
}
330
17
100
AcDbEntity
  8
VP
370
13
100
AcDbDimension
280
0
  2
*D16
  3
ISO-25
 10
1027314.972282033
 20
87544.84937010078
 30
0.0
 11
1027100.175973669
 21
87570.17679165603
 31
0.0
 70
32
 71
5
 42
429.5926167272264
 73
0
 74
0
 75
0
100
AcDbAlignedDimension
 13
1026885.379665306
 23
87544.57210879862
 33
0.0
 14
1027314.972282033
 24
87544.57210879862
 34
0.0
 50
0.0
100
AcDbRotatedDimension
  0
DIMENSION
  5
13D
102
{ACAD_XDICTIONARY
360
13E
102
}
330
17
100
AcDbEntity
  8
VP
370
13
100
AcDbDimension
280
0
  2
*D17
  3
ISO-25
 10
1026425.223502579
 20
87545.16679768151
 30
0.0
 11
1026656.253866684
 21
87570.48398731316
 31
0.0
 70
32
 71
5
 42
462.0607282115379
 73
0
 74
0
 75
0
100
AcDbAlignedDimension
 13
1026887.28423079
 23
87502.0271283914
 33
0.0
 14
1026425.223502579
 24
87502.0271283914
 34
0.0
 50
0.0
100
AcDbRotatedDimension
  0
DIMENSION
  5
14B
102
{ACAD_XDICTIONARY
360
14C
102
}
330
17
100
AcDbEntity
  8
VP
370
13
100
AcDbDimension
280
0
  2
*D18
  3
ISO-25
 10
1026886.540661435
 20
88636.63305436814
 30
0.0
 11
1027174.454716204
 21
88661.9502439998
 31
0.0
 70
32
 71
5
 42
575.828109538299
 73
0
 74
0
 75
0
100
AcDbAlignedDimension
 13
1027462.368770973
 23
88603.81566182882
 33
0.0
 14
1026886.540661435
 24
88605.21354727539
 34
0.0
 50
0.0
100
AcDbRotatedDimension
  0
DIMENSION
  5
159
330
17
100
AcDbEntity
  8
VP
370
13
100
AcDbDimension
280
0
  2
*D19
  3
ISO-25
 10
1026132.389253156
 20
88296.8975092165
 30
0.0
 11
1026034.866735374
 21
88322.21469884815
 31
0.0
 70
32
 71
5
 42
195.0450355650391
 73
0
 74
0
 75
0
100
AcDbAlignedDimension
 13
1025937.344217591
 23
88266.97902375236
 33
0.0
 14
1026132.389253156
 24
88265.81193895261
 34
0.0
 50
0.0
100
AcDbRotatedDimension
  0
DIMENSION
  5
166
102
{ACAD_XDICTIONARY
360
167
102
}
330
17
100
AcDbEntity
  8
VP
370
13
100
AcDbDimension
280
0
  2
*D20
  3
ISO-25
 10
1026195.840303911
 20
88142.02712839143
 30
0.0
 11
1026170.512882355
 21
88203.28644166968
 31
0.0
 70
32
 71
5
 42
122.5186265570955
 73
0
 74
0
 75
0
100
AcDbAlignedDimension
 13
1026132.283846048
 23
88264.5457549485
 33
0.0
 14
1026132.283846048
 24
88142.0271283914
 34
0.0
 50
90.0
100
AcDbRotatedDimension
  0
DIMENSION
  5
174
102
{ACAD_XDICTIONARY
360
175
102
}
330
17
100
AcDbEntity
  8
VP
370
13
100
AcDbDimension
280
0
  2
*D21
  3
ISO-25
 10
1025937.366795941
 20
88637.88305436814
 30
0.0
 11
1026412.325513366
 21
88663.20024399977
 31
0.0
 70
32
 71
5
 42
949.917434849078
 73
0
 74
0
 75
0
100
AcDbAlignedDimension
 13
1026887.28423079
 23
88489.2048143284
 33
0.0
 14
1025937.366795941
 24
88538.49497604795
 34
0.0
 50
0.0
100
AcDbRotatedDimension
  0
TEXT
  5
182
330
17
100
AcDbEntity
  8
0
100
AcDbText
 10
1026305.873542184
 20
88472.07748091823
 30
0.0
 40
59.201694284898
  1
2, 5, 8 דירה
100
AcDbText
  0
LWPOLYLINE
  5
183
330
17
100
AcDbEntity
  8
BAR-GAL
 62
1
370
13
100
AcDbPolyline
 90
20
 70
1
 10
1027492.215573875
 20
89236.37490400892
 10
1026710.344217591
 20
89236.37490400892
 10
1026710.344217591
 20
89076.3749040089
 10
1025937.366795941
 20
89076.3749040089
 10
1025937.366795941
 20
88264.43780721974
 10
1026132.283846049
 20
88264.43780721974
 10
1026132.283846049
 20
88142.0271283914
 10
1026425.366795941
 20
88142.02712839142
 10
1026425.366795941
 20
87502.0271283914
 10
1026765.366795941
 20
87502.0271283914
 10
1026887.28423079
 20
87502.0271283914
 10
1026887.28423079
 20
87819.10008715515
 10
1026887.28423079
 20
88603.73148845798
 10
1027315.747284859
 20
88604.07606038151
 10
1027315.747284859
 20
88603.9462501473
 10
1027460.889252102
 20
88603.8169795612
 10
1027460.889252102
 20
88604.36647509782
 10
1027462.368770973
 20
88695.47922339191
 10
1027492.215573875
 20
88695.47922339191
 10
1027492.215573875
 20
88982.37597207868
  0
MTEXT
  5
184
330
17
100
AcDbEntity
  8
VP
370
13
100
AcDbMText
 10
1026597.202563618
 20
88821.80943035285
 30
0.0
 40
59.201694284898
 41
262.1310489581865
 46
0.0
 71
1
  1
 15674
  0
MTEXT
  5
185
330
17
100
AcDbEntity
  8
VP
370
13
100
AcDbMText
 10
1027497.625714483
 20
88051.45782835814
 30
0.0
 40
59.201694284898
 41
262.1310489581865
 46
0.0
 71
1
  1
  7848
  0
ENDSEC
  0
SECTION
  2
OBJECTS
  0
DICTIONARY
  5
A
330
0
100
AcDbDictionary
281
1
  3
ACAD_COLOR
350
B
  3
ACAD_GROUP
350
C
  3
ACAD_LAYOUT
350
D
  3
ACAD_MATERIAL
350
E
  3
ACAD_MLEADERSTYLE
350
F
  3
ACAD_MLINESTYLE
350
10
  3
ACAD_PLOTSETTINGS
350
11
  3
ACAD_PLOTSTYLENAME
350
12
  3
ACAD_SCALELIST
350
14
  3
ACAD_TABLESTYLE
350
15
  3
ACAD_VISUALSTYLE
350
16
  3
EZDXF_META
350
2D
  0
DICTIONARY
  5
B
330
A
100
AcDbDictionary
281
1
  0
DICTIONARY
  5
C
330
A
100
AcDbDictionary
281
1
  0
DICTIONARY
  5
D
330
A
100
AcDbDictionary
281
1
  3
Model
350
1A
  3
Layout1
350
1E
  0
DICTIONARY
  5
E
330
A
100
AcDbDictionary
281
1
  3
ByBlock
350
1F
  3
ByLayer
350
20
  3
Global
350
21
  0
DICTIONARY
  5
F
330
A
100
AcDbDictionary
281
1
  3
Standard
350
2C
  0
DICTIONARY
  5
10
330
A
100
AcDbDictionary
281
1
  3
Standard
350
22
  0
DICTIONARY
  5
11
330
A
100
AcDbDictionary
281
1
  0
ACDBDICTIONARYWDFLT
  5
12
330
A
100
AcDbDictionary
281
1
  3
Normal
350
13
100
AcDbDictionaryWithDefault
340
13
  0
ACDBPLACEHOLDER
  5
13
330
12
  0
DICTIONARY
  5
14
330
A
100
AcDbDictionary
281
1
  0
DICTIONARY
  5
15
330
A
100
AcDbDictionary
281
1
  0
DICTIONARY
  5
16
330
A
100
AcDbDictionary
281
1
  0
LAYOUT
  5
1A
330
D
100
AcDbPlotSettings
  1

  4
A3
  6

 40
7.5
 41
20.0
 42
7.5
 43
20.0
 44
420.0
 45
297.0
 46
0.0
 47
0.0
 48
0.0
 49
0.0
140
0.0
141
0.0
142
1.0
143
1.0
 70
1024
 72
1
 73
0
 74
5
  7

 75
16
 76
0
 77
2
 78
300
147
1.0
148
0.0
149
0.0
100
AcDbLayout
  1
Model
 70
1
 71
0
 10
0.0
 20
0.0
 11
420.0
 21
297.0
 12
0.0
 22
0.0
 32
0.0
 14
1e+20
 24
1e+20
 34
1e+20
 15
-1e+20
 25
-1e+20
 35
-1e+20
146
0.0
 13
0.0
 23
0.0
 33
0.0
 16
1.0
 26
0.0
 36
0.0
 17
0.0
 27
1.0
 37
0.0
 76
1
330
17
  0
LAYOUT
  5
1E
330
D
100
AcDbPlotSettings
  1

  4
A3
  6

 40
7.5
 41
20.0
 42
7.5
 43
20.0
 44
420.0
 45
297.0
 46
0.0
 47
0.0
 48
0.0
 49
0.0
140
0.0
141
0.0
142
1.0
143
1.0
 70
0
 72
1
 73
0
 74
5
  7

 75
16
 76
0
 77
2
 78
300
147
1.0
148
0.0
149
0.0
100
AcDbLayout
  1
Layout1
 70
1
 71
1
 10
0.0
 20
0.0
 11
420.0
 21
297.0
 12
0.0
 22
0.0
 32
0.0
 14
1e+20
 24
1e+20
 34
1e+20
 15
-1e+20
 25
-1e+20
 35
-1e+20
146
0.0
 13
0.0
 23
0.0
 33
0.0
 16
1.0
 26
0.0
 36
0.0
 17
0.0
 27
1.0
 37
0.0
 76
1
330
1B
  0
MATERIAL
  5
1F
102
{ACAD_REACTORS
330
E
102
}
330
E
100
AcDbMaterial
  1
ByBlock
  2

 70
0
 40
1.0
 71
1
 41
1.0
 91
-1023410177
 42
1.0
 72
1
  3

 73
1
 74
1
 75
1
 44
0.5
 73
0
 45
1.0
 46
1.0
 77
1
  4

 78
1
 79
1
170
1
 48
1.0
171
1
  6

172
1
173
1
174
1
140
1.0
141
1.0
175
1
  7

176
1
177
1
178
1
143
1.0
179
1
  8

270
1
271
1
272
1
145
1.0
146
1.0
273
1
  9

274
1
275
1
276
1
 42
1.0
 72
1
  3

 73
1
 74
1
 75
1
 94
63
  0
MATERIAL
  5
20
102
{ACAD_REACTORS
330
E
102
}
330
E
100
AcDbMaterial
  1
ByLayer
  2

 70
0
 40
1.0
 71
1
 41
1.0
 91
-1023410177
 42
1.0
 72
1
  3

 73
1
 74
1
 75
1
 44
0.5
 73
0
 45
1.0
 46
1.0
 77
1
  4

 78
1
 79
1
170
1
 48
1.0
171
1
  6

172
1
173
1
174
1
140
1.0
141
1.0
175
1
  7

176
1
177
1
178
1
143
1.0
179
1
  8

270
1
271
1
272
1
145
1.0
146
1.0
273
1
  9

274
1
275
1
276
1
 42
1.0
 72
1
  3

 73
1
 74
1
 75
1
 94
63
  0
MATERIAL
  5
21
102
{ACAD_REACTORS
330
E
102
}
330
E
100
AcDbMaterial
  1
Global
  2

 70
0
 40
1.0
 71
1
 41
1.0
 91
-1023410177
 42
1.0
 72
1
  3

 73
1
 74
1
 75
1
 44
0.5
 73
0
 45
1.0
 46
1.0
 77
1
  4

 78
1
 79
1
170
1
 48
1.0
171
1
  6

172
1
173
1
174
1
140
1.0
141
1.0
175
1
  7

176
1
177
1
178
1
143
1.0
179
1
  8

270
1
271
1
272
1
145
1.0
146
1.0
273
1
  9

274
1
275
1
276
1
 42
1.0
 72
1
  3

 73
1
 74
1
 75
1
 94
63
  0
MLINESTYLE
  5
22
102
{ACAD_REACTORS
330
10
102
}
330
10
100
AcDbMlineStyle
  2
Standard
 70
0
  3

 62
256
 51
90.0
 52
90.0
 71
2
 49
0.5
 62
256
  6
BYLAYER
 49
-0.5
 62
256
  6
BYLAYER
  0
MLEADERSTYLE
  5
2C
102
{ACAD_REACTORS
330
F
102
}
330
F
100
AcDbMLeaderStyle
179
2
170
2
171
1
172
0
 90
2
 40
0.0
 41
0.0
173
1
 91
-1056964608
 92
-2
290
1
 42
2.0
291
1
 43
8.0
  3
Standard
 44
4.0
300

342
29
174
1
175
1
176
0
178
1
 93
-1056964608
 45
4.0
292
0
297
0
 46
4.0
 94
-1056964608
 47
1.0
 49
1.0
140
1.0
294
1
141
0.0
177
0
142
1.0
295
0
296
0
143
3.75
271
0
272
9
273
9
  0
DICTIONARY
  5
2D
330
A
100
AcDbDictionary
280
1
281
1
  3
CREATED_BY_EZDXF
350
2E
  3
WRITTEN_BY_EZDXF
350
188
  0
DICTIONARYVAR
  5
2E
330
2D
100
DictionaryVariables
280
0
  1
1.4.3 @ 2026-05-15T06:57:54.506773+00:00
  0
DICTIONARY
  5
62
330
61
100
AcDbDictionary
280
1
281
1
  0
DICTIONARY
  5
97
330
96
100
AcDbDictionary
280
1
281
1
  0
DICTIONARY
  5
A5
330
A4
100
AcDbDictionary
280
1
281
1
  0
DICTIONARY
  5
130
330
12F
100
AcDbDictionary
280
1
281
1
  0
DICTIONARY
  5
13E
330
13D
100
AcDbDictionary
280
1
281
1
  0
DICTIONARY
  5
14C
330
14B
100
AcDbDictionary
280
1
281
1
  0
DICTIONARY
  5
167
330
166
100
AcDbDictionary
280
1
281
1
  0
DICTIONARY
  5
175
330
174
100
AcDbDictionary
280
1
281
1
  0
DICTIONARYVAR
  5
188
330
2D
100
DictionaryVariables
280
0
  1
1.4.3 @ 2026-05-15T06:57:54.526303+00:00
  0
ENDSEC
  0
EOF
