  0
SECTION
  2
HEADER
  9
$ACADVER
  1
AC1032
  9
$ACADMAINTVER
 90
4
  9
$DWGCODEPAGE
  3
ANSI_1252
  9
$LASTSAVEDBY
  1
ezdxf
  9
$REQUIREDVERSIONS
160
0
  9
$INSBASE
 10
0.0
 20
0.0
 30
0.0
  9
$EXTMIN
 10
1e+20
 20
1e+20
 30
1e+20
  9
$EXTMAX
 10
-1e+20
 20
-1e+20
 30
-1e+20
  9
$LIMMIN
 10
0.0
 20
0.0
  9
$LIMMAX
 10
420.0
 20
297.0
  9
$ORTHOMODE
 70
0
  9
$REGENMODE
 70
1
  9
$FILLMODE
 70
1
  9
$QTEXTMODE
 70
0
  9
$MIRRTEXT
 70
1
  9
$LTSCALE
 40
1.0
  9
$ATTMODE
 70
1
  9
$TEXTSIZE
 40
2.5
  9
$TRACEWID
 40
1.0
  9
$TEXTSTYLE
  7
Standard
  9
$CLAYER
  8
0
  9
$CELTYPE
  6
ByLayer
  9
$CECOLOR
 62
256
  9
$CELTSCALE
 40
1.0
  9
$DISPSILH
 70
0
  9
$DIMSCALE
 40
1.0
  9
$DIMASZ
 40
2.5
  9
$DIMEXO
 40
0.625
  9
$DIMDLI
 40
3.75
  9
$DIMRND
 40
0.0
  9
$DIMDLE
 40
0.0
  9
$DIMEXE
 40
1.25
  9
$DIMTP
 40
0.0
  9
$DIMTM
 40
0.0
  9
$DIMTXT
 40
2.5
  9
$DIMCEN
 40
2.5
  9
$DIMTSZ
 40
0.0
  9
$DIMTOL
 70
0
  9
$DIMLIM
 70
0
  9
$DIMTIH
 70
0
  9
$DIMTOH
 70
0
  9
$DIMSE1
 70
0
  9
$DIMSE2
 70
0
  9
$DIMTAD
 70
1
  9
$DIMZIN
 70
8
  9
$DIMBLK
  1

  9
$DIMASO
 70
1
  9
$DIMSHO
 70
1
  9
$DIMPOST
  1

  9
$DIMAPOST
  1

  9
$DIMALT
 70
0
  9
$DIMALTD
 70
3
  9
$DIMALTF
 40
0.03937007874
  9
$DIMLFAC
 40
1.0
  9
$DIMTOFL
 70
1
  9
$DIMTVP
 40
0.0
  9
$DIMTIX
 70
0
  9
$DIMSOXD
 70
0
  9
$DIMSAH
 70
0
  9
$DIMBLK1
  1

  9
$DIMBLK2
  1

  9
$DIMSTYLE
  2
ISO-25
  9
$DIMCLRD
 70
0
  9
$DIMCLRE
 70
0
  9
$DIMCLRT
 70
0
  9
$DIMTFAC
 40
1.0
  9
$DIMGAP
 40
0.625
  9
$DIMJUST
 70
0
  9
$DIMSD1
 70
0
  9
$DIMSD2
 70
0
  9
$DIMTOLJ
 70
0
  9
$DIMTZIN
 70
8
  9
$DIMALTZ
 70
0
  9
$DIMALTTZ
 70
0
  9
$DIMUPT
 70
0
  9
$DIMDEC
 70
2
  9
$DIMTDEC
 70
2
  9
$DIMALTU
 70
2
  9
$DIMALTTD
 70
3
  9
$DIMTXSTY
  7
Standard
  9
$DIMAUNIT
 70
0
  9
$DIMADEC
 70
0
  9
$DIMALTRND
 40
0.0
  9
$DIMAZIN
 70
0
  9
$DIMDSEP
 70
44
  9
$DIMATFIT
 70
3
  9
$DIMFRAC
 70
0
  9
$DIMLDRBLK
  1

  9
$DIMLUNIT
 70
2
  9
$DIMLWD
 70
-2
  9
$DIMLWE
 70
-2
  9
$DIMTMOVE
 70
0
  9
$DIMFXL
 40
1.0
  9
$DIMFXLON
 70
0
  9
$DIMJOGANG
 40
0.785398163397
  9
$DIMTFILL
 70
0
  9
$DIMTFILLCLR
 70
0
  9
$DIMARCSYM
 70
0
  9
$DIMLTYPE
  6

  9
$DIMLTEX1
  6

  9
$DIMLTEX2
  6

  9
$DIMTXTDIRECTION
 70
0
  9
$LUNITS
 70
2
  9
$LUPREC
 70
4
  9
$SKETCHINC
 40
1.0
  9
$FILLETRAD
 40
10.0
  9
$AUNITS
 70
0
  9
$AUPREC
 70
2
  9
$MENU
  1
.
  9
$ELEVATION
 40
0.0
  9
$PELEVATION
 40
0.0
  9
$THICKNESS
 40
0.0
  9
$LIMCHECK
 70
0
  9
$CHAMFERA
 40
0.0
  9
$CHAMFERB
 40
0.0
  9
$CHAMFERC
 40
0.0
  9
$CHAMFERD
 40
0.0
  9
$SKPOLY
 70
0
  9
$TDCREATE
 40
2461176.290208333
  9
$TDUCREATE
 40
2458532.153996898
  9
$TDUPDATE
 40
2461176.290208333
  9
$TDUUPDATE
 40
2458532.1544311
  9
$TDINDWG
 40
0.0
  9
$TDUSRTIMER
 40
0.0
  9
$USRTIMER
 70
1
  9
$ANGBASE
 50
0.0
  9
$ANGDIR
 70
0
  9
$PDMODE
 70
0
  9
$PDSIZE
 40
0.0
  9
$PLINEWID
 40
0.0
  9
$SPLFRAME
 70
0
  9
$SPLINETYPE
 70
6
  9
$SPLINESEGS
 70
8
  9
$HANDSEED
  5
172
  9
$SURFTAB1
 70
6
  9
$SURFTAB2
 70
6
  9
$SURFTYPE
 70
6
  9
$SURFU
 70
6
  9
$SURFV
 70
6
  9
$UCSBASE
  2

  9
$UCSNAME
  2

  9
$UCSORG
 10
0.0
 20
0.0
 30
0.0
  9
$UCSXDIR
 10
1.0
 20
0.0
 30
0.0
  9
$UCSYDIR
 10
0.0
 20
1.0
 30
0.0
  9
$UCSORTHOREF
  2

  9
$UCSORTHOVIEW
 70
0
  9
$UCSORGTOP
 10
0.0
 20
0.0
 30
0.0
  9
$UCSORGBOTTOM
 10
0.0
 20
0.0
 30
0.0
  9
$UCSORGLEFT
 10
0.0
 20
0.0
 30
0.0
  9
$UCSORGRIGHT
 10
0.0
 20
0.0
 30
0.0
  9
$UCSORGFRONT
 10
0.0
 20
0.0
 30
0.0
  9
$UCSORGBACK
 10
0.0
 20
0.0
 30
0.0
  9
$PUCSBASE
  2

  9
$PUCSNAME
  2

  9
$PUCSORG
 10
0.0
 20
0.0
 30
0.0
  9
$PUCSXDIR
 10
1.0
 20
0.0
 30
0.0
  9
$PUCSYDIR
 10
0.0
 20
1.0
 30
0.0
  9
$PUCSORTHOREF
  2

  9
$PUCSORTHOVIEW
 70
0
  9
$PUCSORGTOP
 10
0.0
 20
0.0
 30
0.0
  9
$PUCSORGBOTTOM
 10
0.0
 20
0.0
 30
0.0
  9
$PUCSORGLEFT
 10
0.0
 20
0.0
 30
0.0
  9
$PUCSORGRIGHT
 10
0.0
 20
0.0
 30
0.0
  9
$PUCSORGFRONT
 10
0.0
 20
0.0
 30
0.0
  9
$PUCSORGBACK
 10
0.0
 20
0.0
 30
0.0
  9
$USERI1
 70
0
  9
$USERI2
 70
0
  9
$USERI3
 70
0
  9
$USERI4
 70
0
  9
$USERI5
 70
0
  9
$USERR1
 40
0.0
  9
$USERR2
 40
0.0
  9
$USERR3
 40
0.0
  9
$USERR4
 40
0.0
  9
$USERR5
 40
0.0
  9
$WORLDVIEW
 70
1
  9
$SHADEDGE
 70
3
  9
$SHADEDIF
 70
70
  9
$TILEMODE
 70
1
  9
$MAXACTVP
 70
64
  9
$PINSBASE
 10
0.0
 20
0.0
 30
0.0
  9
$PLIMCHECK
 70
0
  9
$PEXTMIN
 10
1e+20
 20
1e+20
 30
1e+20
  9
$PEXTMAX
 10
-1e+20
 20
-1e+20
 30
-1e+20
  9
$PLIMMIN
 10
0.0
 20
0.0
  9
$PLIMMAX
 10
420.0
 20
297.0
  9
$UNITMODE
 70
0
  9
$VISRETAIN
 70
1
  9
$PLINEGEN
 70
0
  9
$PSLTSCALE
 70
1
  9
$TREEDEPTH
 70
3020
  9
$CMLSTYLE
  2
Standard
  9
$CMLJUST
 70
0
  9
$CMLSCALE
 40
20.0
  9
$PROXYGRAPHICS
 70
1
  9
$MEASUREMENT
 70
1
  9
$CELWEIGHT
370
-1
  9
$ENDCAPS
280
0
  9
$JOINSTYLE
280
0
  9
$LWDISPLAY
290
0
  9
$INSUNITS
 70
6
  9
$HYPERLINKBASE
  1

  9
$STYLESHEET
  1

  9
$XEDIT
290
1
  9
$CEPSNTYPE
380
0
  9
$PSTYLEMODE
290
1
  9
$FINGERPRINTGUID
  2
{2D74F517-0ECA-4656-BD89-6A7E35D80BFD}
  9
$VERSIONGUID
  2
{C4E6B3A9-7976-460F-83BE-DBA7238BB3C4}
  9
$EXTNAMES
290
1
  9
$PSVPSCALE
 40
0.0
  9
$OLESTARTUP
290
0
  9
$SORTENTS
280
127
  9
$INDEXCTL
280
0
  9
$HIDETEXT
280
1
  9
$XCLIPFRAME
280
1
  9
$HALOGAP
280
0
  9
$OBSCOLOR
 70
257
  9
$OBSLTYPE
280
0
  9
$INTERSECTIONDISPLAY
280
0
  9
$INTERSECTIONCOLOR
 70
257
  9
$DIMASSOC
280
2
  9
$PROJECTNAME
  1

  9
$CAMERADISPLAY
290
0
  9
$LENSLENGTH
 40
50.0
  9
$CAMERAHEIGHT
 40
0.0
  9
$STEPSPERSEC
 40
24.0
  9
$STEPSIZE
 40
100.0
  9
$3DDWFPREC
 40
2.0
  9
$PSOLWIDTH
 40
0.005
  9
$PSOLHEIGHT
 40
0.08
  9
$LOFTANG1
 40
1.570796326795
  9
$LOFTANG2
 40
1.570796326795
  9
$LOFTMAG1
 40
0.0
  9
$LOFTMAG2
 40
0.0
  9
$LOFTPARAM
 70
7
  9
$LOFTNORMALS
280
1
  9
$LATITUDE
 40
37.795
  9
$LONGITUDE
 40
-122.394
  9
$NORTHDIRECTION
 40
0.0
  9
$TIMEZONE
 70
-8000
  9
$LIGHTGLYPHDISPLAY
280
1
  9
$TILEMODELIGHTSYNCH
280
1
  9
$CMATERIAL
347
20
  9
$SOLIDHIST
280
0
  9
$SHOWHIST
280
1
  9
$DWFFRAME
280
2
  9
$DGNFRAME
280
2
  9
$REALWORLDSCALE
290
1
  9
$INTERFERECOLOR
 62
256
  9
$CSHADOW
280
0
  9
$SHADOWPLANELOCATION
 40
0.0
  0
ENDSEC
  0
SECTION
  2
CLASSES
  0
CLASS
  1
ACDBDICTIONARYWDFLT
  2
AcDbDictionaryWithDefault
  3
ObjectDBX Classes
 90
0
 91
0
280
0
281
0
  0
CLASS
  1
SUN
  2
AcDbSun
  3
SCENEOE
 90
1153
 91
0
280
0
281
0
  0
CLASS
  1
VISUALSTYLE
  2
AcDbVisualStyle
  3
ObjectDBX Classes
 90
4095
 91
0
280
0
281
0
  0
CLASS
  1
MATERIAL
  2
AcDbMaterial
  3
ObjectDBX Classes
 90
1153
 91
0
280
0
281
0
  0
CLASS
  1
SCALE
  2
AcDbScale
  3
ObjectDBX Classes
 90
1153
 91
0
280
0
281
0
  0
CLASS
  1
TABLESTYLE
  2
AcDbTableStyle
  3
ObjectDBX Classes
 90
4095
 91
0
280
0
281
0
  0
CLASS
  1
MLEADERSTYLE
  2
AcDbMLeaderStyle
  3
ACDB_MLEADERSTYLE_CLASS
 90
4095
 91
0
280
0
281
0
  0
CLASS
  1
DICTIONARYVAR
  2
AcDbDictionaryVar
  3
ObjectDBX Classes
 90
0
 91
0
280
0
281
0
  0
CLASS
  1
CELLSTYLEMAP
  2
AcDbCellStyleMap
  3
ObjectDBX Classes
 90
1152
 91
0
280
0
281
0
  0
CLASS
  1
MENTALRAYRENDERSETTINGS
  2
AcDbMentalRayRenderSettings
  3
SCENEOE
 90
1024
 91
0
280
0
281
0
  0
CLASS
  1
ACDBDETAILVIEWSTYLE
  2
AcDbDetailViewStyle
  3
ObjectDBX Classes
 90
1025
 91
0
280
0
281
0
  0
CLASS
  1
ACDBSECTIONVIEWSTYLE
  2
AcDbSectionViewStyle
  3
ObjectDBX Classes
 90
1025
 91
0
280
0
281
0
  0
CLASS
  1
RASTERVARIABLES
  2
AcDbRasterVariables
  3
ISM
 90
0
 91
0
280
0
281
0
  0
CLASS
  1
LAYOUT
  2
AcDbLayout
  3
ObjectDBX Classes
 90
0
 91
0
280
0
281
0
  0
CLASS
  1
ACDBPLACEHOLDER
  2
AcDbPlaceHolder
  3
ObjectDBX Classes
 90
0
 91
0
280
0
281
0
  0
ENDSEC
  0
SECTION
  2
TABLES
  0
TABLE
  2
VPORT
  5
8
330
0
100
AcDbSymbolTable
 70
1
  0
VPORT
  5
23
330
8
100
AcDbSymbolTableRecord
100
AcDbViewportTableRecord
  2
*Active
 70
0
 10
0.0
 20
0.0
 11
1.0
 21
1.0
 12
0.0
 22
0.0
 13
0.0
 23
0.0
 14
0.5
 24
0.5
 15
0.5
 25
0.5
 16
0.0
 26
0.0
 36
1.0
 17
0.0
 27
0.0
 37
0.0
 40
1000.0
 41
1.34
 42
50.0
 43
0.0
 44
0.0
 50
0.0
 51
0.0
 71
0
 72
1000
 73
1
 74
3
 75
0
 76
0
 77
0
 78
0
281
0
 65
0
146
0.0
  0
ENDTAB
  0
TABLE
  2
LTYPE
  5
2
330
0
100
AcDbSymbolTable
 70
3
  0
LTYPE
  5
24
330
2
100
AcDbSymbolTableRecord
100
AcDbLinetypeTableRecord
  2
ByBlock
 70
0
  3

 72
65
 73
0
 40
0.0
  0
LTYPE
  5
25
330
2
100
AcDbSymbolTableRecord
100
AcDbLinetypeTableRecord
  2
ByLayer
 70
0
  3

 72
65
 73
0
 40
0.0
  0
LTYPE
  5
26
330
2
100
AcDbSymbolTableRecord
100
AcDbLinetypeTableRecord
  2
Continuous
 70
0
  3

 72
65
 73
0
 40
0.0
  0
ENDTAB
  0
TABLE
  2
LAYER
  5
1
330
0
100
AcDbSymbolTable
 70
7
  0
LAYER
  5
27
330
1
100
AcDbSymbolTableRecord
100
AcDbLayerTableRecord
  2
0
 70
0
 62
7
  6
Continuous
370
-3
390
13
347
21
  0
LAYER
  5
28
330
1
100
AcDbSymbolTableRecord
100
AcDbLayerTableRecord
  2
Defpoints
 70
0
 62
7
  6
Continuous
290
0
370
-3
390
13
347
21
  0
LAYER
  5
2F
330
1
100
AcDbSymbolTableRecord
100
AcDbLayerTableRecord
  2
MIKRA
 70
0
 62
7
  6
Continuous
370
-3
390
13
347
21
  0
LAYER
  5
30
330
1
100
AcDbSymbolTableRecord
100
AcDbLayerTableRecord
  2
kir
 70
0
 62
7
  6
Continuous
370
-3
390
13
347
21
  0
LAYER
  5
31
330
1
100
AcDbSymbolTableRecord
100
AcDbLayerTableRecord
  2
8
 70
0
 62
7
  6
Continuous
370
-3
390
13
347
21
  0
LAYER
  5
32
330
1
100
AcDbSymbolTableRecord
100
AcDbLayerTableRecord
  2
BAR-GAL
 70
0
 62
7
  6
Continuous
370
-3
390
13
347
21
  0
LAYER
  5
33
330
1
100
AcDbSymbolTableRecord
100
AcDbLayerTableRecord
  2
VP
 70
0
 62
-30
  6
Continuous
370
-3
390
13
347
21
  0
ENDTAB
  0
TABLE
  2
STYLE
  5
5
330
0
100
AcDbSymbolTable
 70
1
  0
STYLE
  5
29
330
5
100
AcDbSymbolTableRecord
100
AcDbTextStyleTableRecord
  2
Standard
 70
0
 40
0.0
 41
1.0
 50
0.0
 71
0
 42
2.5
  3
txt
  4

  0
ENDTAB
  0
TABLE
  2
VIEW
  5
7
330
0
100
AcDbSymbolTable
 70
0
  0
ENDTAB
  0
TABLE
  2
UCS
  5
6
330
0
100
AcDbSymbolTable
 70
0
  0
ENDTAB
  0
TABLE
  2
APPID
  5
3
330
0
100
AcDbSymbolTable
 70
3
  0
APPID
  5
2A
330
3
100
AcDbSymbolTableRecord
100
AcDbRegAppTableRecord
  2
ACAD
 70
0
  0
APPID
  5
16F
330
3
100
AcDbSymbolTableRecord
100
AcDbRegAppTableRecord
  2
HATCHBACKGROUNDCOLOR
 70
0
  0
APPID
  5
170
330
3
100
AcDbSymbolTableRecord
100
AcDbRegAppTableRecord
  2
EZDXF
 70
0
  0
ENDTAB
  0
TABLE
  2
DIMSTYLE
  5
4
330
0
100
AcDbSymbolTable
 70
2
100
AcDbDimStyleTable
  0
DIMSTYLE
105
2B
330
4
100
AcDbSymbolTableRecord
100
AcDbDimStyleTableRecord
  2
Standard
 70
0
 40
1.0
 41
2.5
 42
0.625
 43
3.75
 44
1.25
 45
0.0
 46
0.0
 47
0.0
 48
0.0
 49
2.5
140
2.5
141
2.5
142
0.0
143
0.03937007874
144
1.0
145
0.0
146
1.0
147
0.625
148
0.0
 69
0
 70
0
 71
0
 72
0
 73
0
 74
0
 75
0
 76
0
 77
1
 78
8
 79
3
170
0
171
3
172
1
173
0
174
0
175
0
176
0
177
0
178
0
179
2
271
2
272
2
273
2
274
3
275
0
276
0
277
2
278
44
279
0
280
0
281
0
282
0
283
0
284
8
285
0
286
0
288
0
289
3
290
0
371
-2
372
-2
  0
DIMSTYLE
105
27
330
4
100
AcDbSymbolTableRecord
100
AcDbDimStyleTableRecord
  2
ISO-25
 70
0
 40
1.0
 41
30.0
 42
0.625
 43
3.75
 44
1.25
 45
0.0
 46
0.0
 47
0.0
 48
0.0
 49
2.5
140
30.0
141
2.5
142
0.0
143
0.03937007874016
144
1.0
145
0.0
146
1.0
147
10.0
148
0.0
 69
0
 70
0
 71
0
 72
0
 73
0
 74
0
 75
0
 76
0
 77
1
 78
8
 79
3
170
0
171
3
172
1
173
0
174
0
175
0
176
0
177
0
178
0
179
2
271
0
272
0
273
2
274
3
275
0
276
0
277
2
278
44
279
0
280
0
281
0
282
0
283
0
284
8
285
0
286
0
288
0
289
3
290
0
340
29
371
-2
372
-2
  0
ENDTAB
  0
TABLE
  2
BLOCK_RECORD
  5
9
330
0
100
AcDbSymbolTable
 70
21
  0
BLOCK_RECORD
  5
17
330
9
100
AcDbSymbolTableRecord
100
AcDbBlockTableRecord
  2
*Model_Space
340
1A
 70
0
280
1
281
0
  0
BLOCK_RECORD
  5
1B
330
9
100
AcDbSymbolTableRecord
100
AcDbBlockTableRecord
  2
*Paper_Space
340
1E
 70
0
280
1
281
0
  0
BLOCK_RECORD
  5
3A
330
9
100
AcDbSymbolTableRecord
100
AcDbBlockTableRecord
  2
*D1
340
0
 70
0
280
1
281
0
  0
BLOCK_RECORD
  5
4A
330
9
100
AcDbSymbolTableRecord
100
AcDbBlockTableRecord
  2
*D2
340
0
 70
0
280
1
281
0
  0
BLOCK_RECORD
  5
57
330
9
100
AcDbSymbolTableRecord
100
AcDbBlockTableRecord
  2
*D3
340
0
 70
0
280
1
281
0
  0
BLOCK_RECORD
  5
67
330
9
100
AcDbSymbolTableRecord
100
AcDbBlockTableRecord
  2
*D4
340
0
 70
0
280
1
281
0
  0
BLOCK_RECORD
  5
88
330
9
100
AcDbSymbolTableRecord
100
AcDbBlockTableRecord
  2
*D5
340
0
 70
0
280
1
281
0
  0
BLOCK_RECORD
  5
96
330
9
100
AcDbSymbolTableRecord
100
AcDbBlockTableRecord
  2
*D6
340
0
 70
0
280
1
281
0
  0
BLOCK_RECORD
  5
A3
330
9
100
AcDbSymbolTableRecord
100
AcDbBlockTableRecord
  2
*D7
340
0
 70
0
280
1
281
0
  0
BLOCK_RECORD
  5
B0
330
9
100
AcDbSymbolTableRecord
100
AcDbBlockTableRecord
  2
*D8
340
0
 70
0
280
1
281
0
  0
BLOCK_RECORD
  5
BF
330
9
100
AcDbSymbolTableRecord
100
AcDbBlockTableRecord
  2
*D9
340
0
 70
0
280
1
281
0
  0
BLOCK_RECORD
  5
CD
330
9
100
AcDbSymbolTableRecord
100
AcDbBlockTableRecord
  2
*D10
340
0
 70
0
280
1
281
0
  0
BLOCK_RECORD
  5
DB
330
9
100
AcDbSymbolTableRecord
100
AcDbBlockTableRecord
  2
*D11
340
0
 70
0
280
1
281
0
  0
BLOCK_RECORD
  5
E9
330
9
100
AcDbSymbolTableRecord
100
AcDbBlockTableRecord
  2
*D12
340
0
 70
0
280
1
281
0
  0
BLOCK_RECORD
  5
F6
330
9
100
AcDbSymbolTableRecord
100
AcDbBlockTableRecord
  2
*D13
340
0
 70
0
280
1
281
0
  0
BLOCK_RECORD
  5
103
330
9
100
AcDbSymbolTableRecord
100
AcDbBlockTableRecord
  2
*D14
340
0
 70
0
280
1
281
0
  0
BLOCK_RECORD
  5
110
330
9
100
AcDbSymbolTableRecord
100
AcDbBlockTableRecord
  2
*D15
340
0
 70
0
280
1
281
0
  0
BLOCK_RECORD
  5
11E
330
9
100
AcDbSymbolTableRecord
100
AcDbBlockTableRecord
  2
*D16
340
0
 70
0
280
1
281
0
  0
BLOCK_RECORD
  5
12C
330
9
100
AcDbSymbolTableRecord
100
AcDbBlockTableRecord
  2
*D17
340
0
 70
0
280
1
281
0
  0
BLOCK_RECORD
  5
154
330
9
100
AcDbSymbolTableRecord
100
AcDbBlockTableRecord
  2
*D18
340
0
 70
0
280
1
281
0
  0
BLOCK_RECORD
  5
162
330
9
100
AcDbSymbolTableRecord
100
AcDbBlockTableRecord
  2
*D19
340
0
 70
0
280
1
281
0
  0
ENDTAB
  0
ENDSEC
  0
SECTION
  2
BLOCKS
  0
BLOCK
  5
18
330
17
100
AcDbEntity
  8
0
100
AcDbBlockBegin
  2
*Model_Space
 70
0
 10
0.0
 20
0.0
 30
0.0
  3
*Model_Space
  1

  0
ENDBLK
  5
19
330
17
100
AcDbEntity
  8
0
100
AcDbBlockEnd
  0
BLOCK
  5
1C
330
1B
100
AcDbEntity
  8
0
100
AcDbBlockBegin
  2
*Paper_Space
 70
0
 10
0.0
 20
0.0
 30
0.0
  3
*Paper_Space
  1

  0
ENDBLK
  5
1D
330
1B
100
AcDbEntity
  8
0
100
AcDbBlockEnd
  0
BLOCK
  5
3B
330
3A
100
AcDbEntity
  8
0
100
AcDbBlockBegin
  2
*D1
 70
1
 10
0.0
 20
0.0
 30
0.0
  3
*D1
  1

  0
LINE
  5
3D
330
3A
100
AcDbEntity
  8
VP
 62
0
370
-2
440
16777216
100
AcDbLine
 10
990220.497464911
 20
87439.87577760634
 30
0.0
 11
990220.497464911
 21
87365.67128339475
 31
0.0
  0
LINE
  5
3E
330
3A
100
AcDbEntity
  8
VP
 62
0
370
-2
440
16777216
100
AcDbLine
 10
990680.4974649112
 20
87439.87577760634
 30
0.0
 11
990680.4974649112
 21
87365.67128339475
 31
0.0
  0
LINE
  5
3F
330
3A
100
AcDbEntity
  8
VP
 62
0
370
-2
440
16777216
100
AcDbLine
 10
990250.4974649112
 20
87366.92128339472
 30
0.0
 11
990650.4974649111
 21
87366.92128339472
 31
0.0
  0
SOLID
  5
40
330
3A
100
AcDbEntity
  8
VP
 62
0
370
13
440
16777216
100
AcDbTrace
 10
990250.4974649112
 20
87371.92128339474
 30
0.0
 11
990250.4974649112
 21
87361.92128339475
 31
0.0
 12
990220.497464911
 22
87366.92128339472
 32
0.0
 13
990220.497464911
 23
87366.92128339472
 33
0.0
  0
SOLID
  5
41
330
3A
100
AcDbEntity
  8
VP
 62
0
370
13
440
16777216
100
AcDbTrace
 10
990650.4974649111
 20
87371.92128339474
 30
0.0
 11
990650.4974649111
 21
87361.92128339475
 31
0.0
 12
990680.4974649112
 22
87366.92128339472
 32
0.0
 13
990680.4974649112
 23
87366.92128339472
 33
0.0
  0
MTEXT
  5
42
330
3A
100
AcDbEntity
  8
VP
 62
0
370
13
440
16777216
100
AcDbMText
 10
990450.4974649112
 20
87392.23847302639
 30
0.0
 40
30.0
 41
0.0
 46
0.0
 71
5
  1
460
  0
POINT
  5
43
330
3A
100
AcDbEntity
  8
Defpoints
 62
0
370
13
440
16777216
100
AcDbPoint
 10
990220.497464911
 20
87440.50077760634
 30
0.0
  0
POINT
  5
44
330
3A
100
AcDbEntity
  8
Defpoints
 62
0
370
13
440
16777216
100
AcDbPoint
 10
990680.4974649112
 20
87440.50077760634
 30
0.0
  0
POINT
  5
45
330
3A
100
AcDbEntity
  8
Defpoints
 62
0
370
13
440
16777216
100
AcDbPoint
 10
990680.4974649112
 20
87366.92128339472
 30
0.0
  0
ENDBLK
  5
3C
330
3A
100
AcDbEntity
  8
0
100
AcDbBlockEnd
  0
BLOCK
  5
4B
330
4A
100
AcDbEntity
  8
0
100
AcDbBlockBegin
  2
*D2
 70
1
 10
0.0
 20
0.0
 30
0.0
  3
*D2
  1

  0
LINE
  5
4D
330
4A
100
AcDbEntity
  8
VP
 62
0
370
-2
440
16777216
100
AcDbLine
 10
990960.9315369293
 20
87491.0137242226
 30
0.0
 11
991015.6807346657
 21
87491.0137242226
 31
0.0
  0
LINE
  5
4E
330
4A
100
AcDbEntity
  8
VP
 62
0
370
-2
440
16777216
100
AcDbLine
 10
990960.9315369293
 20
87881.00035312302
 30
0.0
 11
991015.6807346657
 21
87881.00035312302
 31
0.0
  0
LINE
  5
4F
330
4A
100
AcDbEntity
  8
VP
 62
0
370
-2
440
16777216
100
AcDbLine
 10
991014.4307346657
 20
87521.0137242226
 30
0.0
 11
991014.4307346657
 21
87851.00035312302
 31
0.0
  0
SOLID
  5
50
330
4A
100
AcDbEntity
  8
VP
 62
0
370
13
440
16777216
100
AcDbTrace
 10
991009.4307346657
 20
87521.0137242226
 30
0.0
 11
991019.4307346657
 21
87521.0137242226
 31
0.0
 12
991014.4307346657
 22
87491.0137242226
 32
0.0
 13
991014.4307346657
 23
87491.0137242226
 33
0.0
  0
SOLID
  5
51
330
4A
100
AcDbEntity
  8
VP
 62
0
370
13
440
16777216
100
AcDbTrace
 10
991009.4307346657
 20
87851.00035312302
 30
0.0
 11
991019.4307346657
 21
87851.00035312302
 31
0.0
 12
991014.4307346657
 22
87881.00035312302
 32
0.0
 13
991014.4307346657
 23
87881.00035312302
 33
0.0
  0
MTEXT
  5
52
330
4A
100
AcDbEntity
  8
VP
 62
0
370
13
440
16777216
100
AcDbMText
 10
990989.1033131103
 20
87686.00703867251
 30
0.0
 40
30.0
 41
0.0
 46
0.0
 71
5
  1
390
 11
1e-16
 21
1.0
 31
0.0
  0
POINT
  5
53
330
4A
100
AcDbEntity
  8
Defpoints
 62
0
370
13
440
16777216
100
AcDbPoint
 10
990960.3065369292
 20
87491.0137242226
 30
0.0
  0
POINT
  5
54
330
4A
100
AcDbEntity
  8
Defpoints
 62
0
370
13
440
16777216
100
AcDbPoint
 10
990960.3065369292
 20
87881.00035312302
 30
0.0
  0
POINT
  5
55
330
4A
100
AcDbEntity
  8
Defpoints
 62
0
370
13
440
16777216
100
AcDbPoint
 10
991014.4307346657
 20
87881.00035312302
 30
0.0
  0
ENDBLK
  5
4C
330
4A
100
AcDbEntity
  8
0
100
AcDbBlockEnd
  0
BLOCK
  5
58
330
57
100
AcDbEntity
  8
0
100
AcDbBlockBegin
  2
*D3
 70
1
 10
0.0
 20
0.0
 30
0.0
  3
*D3
  1

  0
LINE
  5
5A
330
57
100
AcDbEntity
  8
VP
 62
0
370
-2
440
16777216
100
AcDbLine
 10
990680.1342201392
 20
87834.13622698723
 30
0.0
 11
990680.1342201392
 21
87937.60217259446
 31
0.0
  0
LINE
  5
5B
330
57
100
AcDbEntity
  8
VP
 62
0
370
-2
440
16777216
100
AcDbLine
 10
990960.6249145427
 20
87833.18104798406
 30
0.0
 11
990960.6249145427
 21
87937.60217259446
 31
0.0
  0
LINE
  5
5C
330
57
100
AcDbEntity
  8
VP
 62
0
370
-2
440
16777216
100
AcDbLine
 10
990710.1342201394
 20
87936.35217259446
 30
0.0
 11
990930.6249145428
 21
87936.35217259446
 31
0.0
  0
SOLID
  5
5D
330
57
100
AcDbEntity
  8
VP
 62
0
370
13
440
16777216
100
AcDbTrace
 10
990710.1342201394
 20
87941.35217259446
 30
0.0
 11
990710.1342201394
 21
87931.35217259444
 31
0.0
 12
990680.1342201392
 22
87936.35217259446
 32
0.0
 13
990680.1342201392
 23
87936.35217259446
 33
0.0
  0
SOLID
  5
5E
330
57
100
AcDbEntity
  8
VP
 62
0
370
13
440
16777216
100
AcDbTrace
 10
990930.6249145428
 20
87941.35217259446
 30
0.0
 11
990930.6249145428
 21
87931.35217259444
 31
0.0
 12
990960.6249145427
 22
87936.35217259446
 32
0.0
 13
990960.6249145427
 23
87936.35217259446
 33
0.0
  0
MTEXT
  5
5F
330
57
100
AcDbEntity
  8
VP
 62
0
370
13
440
16777216
100
AcDbMText
 10
990820.379567341
 20
87961.66936222611
 30
0.0
 40
30.0
 41
0.0
 46
0.0
 71
5
  1
280
  0
POINT
  5
60
330
57
100
AcDbEntity
  8
Defpoints
 62
0
370
13
440
16777216
100
AcDbPoint
 10
990680.1342201392
 20
87833.51122698723
 30
0.0
  0
POINT
  5
61
330
57
100
AcDbEntity
  8
Defpoints
 62
0
370
13
440
16777216
100
AcDbPoint
 10
990960.6249145427
 20
87832.5560479841
 30
0.0
  0
POINT
  5
62
330
57
100
AcDbEntity
  8
Defpoints
 62
0
370
13
440
16777216
100
AcDbPoint
 10
990960.6249145427
 20
87936.35217259446
 30
0.0
  0
ENDBLK
  5
59
330
57
100
AcDbEntity
  8
0
100
AcDbBlockEnd
  0
BLOCK
  5
68
330
67
100
AcDbEntity
  8
0
100
AcDbBlockBegin
  2
*D4
 70
1
 10
0.0
 20
0.0
 30
0.0
  3
*D4
  1

  0
LINE
  5
6A
330
67
100
AcDbEntity
  8
VP
 62
0
370
-2
440
16777216
100
AcDbLine
 10
989848.5883092318
 20
87816.86911615485
 30
0.0
 11
989558.2424754845
 21
87816.86911615485
 31
0.0
  0
LINE
  5
6B
330
67
100
AcDbEntity
  8
VP
 62
0
370
-2
440
16777216
100
AcDbLine
 10
989848.5883092318
 20
87176.86911615486
 30
0.0
 11
989558.2424754845
 21
87176.86911615486
 31
0.0
  0
LINE
  5
6C
330
67
100
AcDbEntity
  8
VP
 62
0
370
-2
440
16777216
100
AcDbLine
 10
989559.4924754846
 20
87786.86911615485
 30
0.0
 11
989559.4924754846
 21
87206.86911615486
 31
0.0
  0
SOLID
  5
6D
330
67
100
AcDbEntity
  8
VP
 62
0
370
13
440
16777216
100
AcDbTrace
 10
989554.4924754846
 20
87786.86911615485
 30
0.0
 11
989564.4924754845
 21
87786.86911615485
 31
0.0
 12
989559.4924754846
 22
87816.86911615485
 32
0.0
 13
989559.4924754846
 23
87816.86911615485
 33
0.0
  0
SOLID
  5
6E
330
67
100
AcDbEntity
  8
VP
 62
0
370
13
440
16777216
100
AcDbTrace
 10
989554.4924754846
 20
87206.86911615486
 30
0.0
 11
989564.4924754845
 21
87206.86911615486
 31
0.0
 12
989559.4924754846
 22
87176.86911615486
 32
0.0
 13
989559.4924754846
 23
87176.86911615486
 33
0.0
  0
MTEXT
  5
6F
330
67
100
AcDbEntity
  8
VP
 62
0
370
13
440
16777216
100
AcDbMText
 10
989534.1752858527
 20
87496.86911615457
 30
0.0
 40
30.0
 41
0.0
 46
0.0
 71
5
  1
640
 11
1e-16
 21
1.0
 31
0.0
  0
POINT
  5
70
330
67
100
AcDbEntity
  8
Defpoints
 62
0
370
13
440
16777216
100
AcDbPoint
 10
989849.2133092318
 20
87816.86911615485
 30
0.0
  0
POINT
  5
71
330
67
100
AcDbEntity
  8
Defpoints
 62
0
370
13
440
16777216
100
AcDbPoint
 10
989849.2133092318
 20
87176.86911615486
 30
0.0
  0
POINT
  5
72
330
67
100
AcDbEntity
  8
Defpoints
 62
0
370
13
440
16777216
100
AcDbPoint
 10
989559.4924754846
 20
87176.86911615486
 30
0.0
  0
ENDBLK
  5
69
330
67
100
AcDbEntity
  8
0
100
AcDbBlockEnd
  0
BLOCK
  5
89
330
88
100
AcDbEntity
  8
0
100
AcDbBlockBegin
  2
*D5
 70
1
 10
0.0
 20
0.0
 30
0.0
  3
*D5
  1

  0
LINE
  5
8B
330
88
100
AcDbEntity
  8
VP
 62
0
370
-2
440
16777216
100
AcDbLine
 10
990960.2448468367
 20
87436.89883530626
 30
0.0
 11
990960.2448468367
 21
87365.67128339475
 31
0.0
  0
LINE
  5
8C
330
88
100
AcDbEntity
  8
VP
 62
0
370
-2
440
16777216
100
AcDbLine
 10
990680.4974649112
 20
87442.56149659018
 30
0.0
 11
990680.4974649112
 21
87365.67128339475
 31
0.0
  0
LINE
  5
8D
330
88
100
AcDbEntity
  8
VP
 62
0
370
-2
440
16777216
100
AcDbLine
 10
990930.2448468365
 20
87366.92128339472
 30
0.0
 11
990710.4974649111
 21
87366.92128339472
 31
0.0
  0
SOLID
  5
8E
330
88
100
AcDbEntity
  8
VP
 62
0
370
13
440
16777216
100
AcDbTrace
 10
990930.2448468365
 20
87371.92128339474
 30
0.0
 11
990930.2448468365
 21
87361.92128339475
 31
0.0
 12
990960.2448468367
 22
87366.92128339472
 32
0.0
 13
990960.2448468367
 23
87366.92128339472
 33
0.0
  0
SOLID
  5
8F
330
88
100
AcDbEntity
  8
VP
 62
0
370
13
440
16777216
100
AcDbTrace
 10
990710.4974649111
 20
87371.92128339474
 30
0.0
 11
990710.4974649111
 21
87361.92128339475
 31
0.0
 12
990680.4974649112
 22
87366.92128339472
 32
0.0
 13
990680.4974649112
 23
87366.92128339472
 33
0.0
  0
MTEXT
  5
90
330
88
100
AcDbEntity
  8
VP
 62
0
370
13
440
16777216
100
AcDbMText
 10
990820.3711558741
 20
87392.23847302639
 30
0.0
 40
30.0
 41
0.0
 46
0.0
 71
5
  1
280
  0
POINT
  5
91
330
88
100
AcDbEntity
  8
Defpoints
 62
0
370
13
440
16777216
100
AcDbPoint
 10
990960.2448468367
 20
87437.52383530626
 30
0.0
  0
POINT
  5
92
330
88
100
AcDbEntity
  8
Defpoints
 62
0
370
13
440
16777216
100
AcDbPoint
 10
990680.4974649112
 20
87443.18649659018
 30
0.0
  0
POINT
  5
93
330
88
100
AcDbEntity
  8
Defpoints
 62
0
370
13
440
16777216
100
AcDbPoint
 10
990680.4974649112
 20
87366.92128339472
 30
0.0
  0
ENDBLK
  5
8A
330
88
100
AcDbEntity
  8
0
100
AcDbBlockEnd
  0
BLOCK
  5
97
330
96
100
AcDbEntity
  8
0
100
AcDbBlockBegin
  2
*D6
 70
1
 10
0.0
 20
0.0
 30
0.0
  3
*D6
  1

  0
LINE
  5
99
330
96
100
AcDbEntity
  8
VP
 62
0
370
-2
440
16777216
100
AcDbLine
 10
990961.6059902676
 20
87440.44812939184
 30
0.0
 11
990961.6059902676
 21
87365.67128339475
 31
0.0
  0
LINE
  5
9A
330
96
100
AcDbEntity
  8
VP
 62
0
370
-2
440
16777216
100
AcDbLine
 10
991126.4363287969
 20
87434.39618074887
 30
0.0
 11
991126.4363287969
 21
87365.67128339475
 31
0.0
  0
LINE
  5
9B
330
96
100
AcDbEntity
  8
VP
 62
0
370
-2
440
16777216
100
AcDbLine
 10
990991.6059902677
 20
87366.92128339472
 30
0.0
 11
991096.4363287968
 21
87366.92128339472
 31
0.0
  0
SOLID
  5
9C
330
96
100
AcDbEntity
  8
VP
 62
0
370
13
440
16777216
100
AcDbTrace
 10
990991.6059902677
 20
87371.92128339474
 30
0.0
 11
990991.6059902677
 21
87361.92128339475
 31
0.0
 12
990961.6059902676
 22
87366.92128339472
 32
0.0
 13
990961.6059902676
 23
87366.92128339472
 33
0.0
  0
SOLID
  5
9D
330
96
100
AcDbEntity
  8
VP
 62
0
370
13
440
16777216
100
AcDbTrace
 10
991096.4363287968
 20
87371.92128339474
 30
0.0
 11
991096.4363287968
 21
87361.92128339475
 31
0.0
 12
991126.4363287969
 22
87366.92128339472
 32
0.0
 13
991126.4363287969
 23
87366.92128339472
 33
0.0
  0
MTEXT
  5
9E
330
96
100
AcDbEntity
  8
VP
 62
0
370
13
440
16777216
100
AcDbMText
 10
991044.0211595322
 20
87392.23847302639
 30
0.0
 40
30.0
 41
0.0
 46
0.0
 71
5
  1
165
  0
POINT
  5
9F
330
96
100
AcDbEntity
  8
Defpoints
 62
0
370
13
440
16777216
100
AcDbPoint
 10
990961.6059902676
 20
87441.07312939184
 30
0.0
  0
POINT
  5
A0
330
96
100
AcDbEntity
  8
Defpoints
 62
0
370
13
440
16777216
100
AcDbPoint
 10
991126.4363287969
 20
87435.02118074887
 30
0.0
  0
POINT
  5
A1
330
96
100
AcDbEntity
  8
Defpoints
 62
0
370
13
440
16777216
100
AcDbPoint
 10
991126.4363287969
 20
87366.92128339472
 30
0.0
  0
ENDBLK
  5
98
330
96
100
AcDbEntity
  8
0
100
AcDbBlockEnd
  0
BLOCK
  5
A4
330
A3
100
AcDbEntity
  8
0
100
AcDbBlockBegin
  2
*D7
 70
1
 10
0.0
 20
0.0
 30
0.0
  3
*D7
  1

  0
LINE
  5
A6
330
A3
100
AcDbEntity
  8
VP
 62
0
370
-2
440
16777216
100
AcDbLine
 10
991125.2422249079
 20
88522.6675807522
 30
0.0
 11
991125.2422249079
 21
88588.73855964166
 31
0.0
  0
LINE
  5
A7
330
A3
100
AcDbEntity
  8
VP
 62
0
370
-2
440
16777216
100
AcDbLine
 10
990905.2422249079
 20
88522.6675807522
 30
0.0
 11
990905.2422249079
 21
88588.73855964166
 31
0.0
  0
LINE
  5
A8
330
A3
100
AcDbEntity
  8
VP
 62
0
370
-2
440
16777216
100
AcDbLine
 10
991095.242224908
 20
88587.48855964166
 30
0.0
 11
990935.2422249079
 21
88587.48855964166
 31
0.0
  0
SOLID
  5
A9
330
A3
100
AcDbEntity
  8
VP
 62
0
370
13
440
16777216
100
AcDbTrace
 10
991095.242224908
 20
88592.48855964166
 30
0.0
 11
991095.242224908
 21
88582.48855964166
 31
0.0
 12
991125.2422249079
 22
88587.48855964166
 32
0.0
 13
991125.2422249079
 23
88587.48855964166
 33
0.0
  0
SOLID
  5
AA
330
A3
100
AcDbEntity
  8
VP
 62
0
370
13
440
16777216
100
AcDbTrace
 10
990935.2422249079
 20
88592.48855964166
 30
0.0
 11
990935.2422249079
 21
88582.48855964166
 31
0.0
 12
990905.2422249079
 22
88587.48855964166
 32
0.0
 13
990905.2422249079
 23
88587.48855964166
 33
0.0
  0
MTEXT
  5
AB
330
A3
100
AcDbEntity
  8
VP
 62
0
370
13
440
16777216
100
AcDbMText
 10
991015.242224908
 20
88612.8057492733
 30
0.0
 40
30.0
 41
0.0
 46
0.0
 71
5
  1
220
  0
POINT
  5
AC
330
A3
100
AcDbEntity
  8
Defpoints
 62
0
370
13
440
16777216
100
AcDbPoint
 10
991125.2422249079
 20
88522.0425807522
 30
0.0
  0
POINT
  5
AD
330
A3
100
AcDbEntity
  8
Defpoints
 62
0
370
13
440
16777216
100
AcDbPoint
 10
990905.2422249079
 20
88522.0425807522
 30
0.0
  0
POINT
  5
AE
330
A3
100
AcDbEntity
  8
Defpoints
 62
0
370
13
440
16777216
100
AcDbPoint
 10
990905.2422249079
 20
88587.48855964166
 30
0.0
  0
ENDBLK
  5
A5
330
A3
100
AcDbEntity
  8
0
100
AcDbBlockEnd
  0
BLOCK
  5
B1
330
B0
100
AcDbEntity
  8
0
100
AcDbBlockBegin
  2
*D8
 70
1
 10
0.0
 20
0.0
 30
0.0
  3
*D8
  1

  0
LINE
  5
B3
330
B0
100
AcDbEntity
  8
VP
 62
0
370
-2
440
16777216
100
AcDbLine
 10
990905.4859347655
 20
88552.59652465822
 30
0.0
 11
990905.4859347655
 21
88588.73855964166
 31
0.0
  0
LINE
  5
B4
330
B0
100
AcDbEntity
  8
VP
 62
0
370
-2
440
16777216
100
AcDbLine
 10
990645.4859347655
 20
88552.59652465822
 30
0.0
 11
990645.4859347655
 21
88588.73855964166
 31
0.0
  0
LINE
  5
B5
330
B0
100
AcDbEntity
  8
VP
 62
0
370
-2
440
16777216
100
AcDbLine
 10
990875.4859347655
 20
88587.48855964166
 30
0.0
 11
990675.4859347657
 21
88587.48855964166
 31
0.0
  0
SOLID
  5
B6
330
B0
100
AcDbEntity
  8
VP
 62
0
370
13
440
16777216
100
AcDbTrace
 10
990875.4859347655
 20
88592.48855964166
 30
0.0
 11
990875.4859347655
 21
88582.48855964166
 31
0.0
 12
990905.4859347655
 22
88587.48855964166
 32
0.0
 13
990905.4859347655
 23
88587.48855964166
 33
0.0
  0
SOLID
  5
B7
330
B0
100
AcDbEntity
  8
VP
 62
0
370
13
440
16777216
100
AcDbTrace
 10
990675.4859347657
 20
88592.48855964166
 30
0.0
 11
990675.4859347657
 21
88582.48855964166
 31
0.0
 12
990645.4859347655
 22
88587.48855964166
 32
0.0
 13
990645.4859347655
 23
88587.48855964166
 33
0.0
  0
MTEXT
  5
B8
330
B0
100
AcDbEntity
  8
VP
 62
0
370
13
440
16777216
100
AcDbMText
 10
990775.4859347655
 20
88612.8057492733
 30
0.0
 40
30.0
 41
0.0
 46
0.0
 71
5
  1
260
  0
POINT
  5
B9
330
B0
100
AcDbEntity
  8
Defpoints
 62
0
370
13
440
16777216
100
AcDbPoint
 10
990905.4859347655
 20
88551.9715246582
 30
0.0
  0
POINT
  5
BA
330
B0
100
AcDbEntity
  8
Defpoints
 62
0
370
13
440
16777216
100
AcDbPoint
 10
990645.4859347655
 20
88551.9715246582
 30
0.0
  0
POINT
  5
BB
330
B0
100
AcDbEntity
  8
Defpoints
 62
0
370
13
440
16777216
100
AcDbPoint
 10
990645.4859347655
 20
88587.48855964166
 30
0.0
  0
ENDBLK
  5
B2
330
B0
100
AcDbEntity
  8
0
100
AcDbBlockEnd
  0
BLOCK
  5
C0
330
BF
100
AcDbEntity
  8
0
100
AcDbBlockBegin
  2
*D9
 70
1
 10
0.0
 20
0.0
 30
0.0
  3
*D9
  1

  0
LINE
  5
C2
330
BF
100
AcDbEntity
  8
VP
 62
0
370
-2
440
16777216
100
AcDbLine
 10
990643.9359930855
 20
88465.58716796606
 30
0.0
 11
990596.1179973383
 21
88465.58716796606
 31
0.0
  0
LINE
  5
C3
330
BF
100
AcDbEntity
  8
VP
 62
0
370
-2
440
16777216
100
AcDbLine
 10
990643.9359930855
 20
88545.60366425269
 30
0.0
 11
990596.1179973383
 21
88545.60366425269
 31
0.0
  0
LINE
  5
C4
330
BF
100
AcDbEntity
  8
VP
 62
0
370
-2
440
16777216
100
AcDbLine
 10
990597.3679973385
 20
88495.58716796606
 30
0.0
 11
990597.3679973385
 21
88515.6036642527
 31
0.0
  0
SOLID
  5
C5
330
BF
100
AcDbEntity
  8
VP
 62
0
370
13
440
16777216
100
AcDbTrace
 10
990592.3679973383
 20
88495.58716796606
 30
0.0
 11
990602.3679973383
 21
88495.58716796606
 31
0.0
 12
990597.3679973385
 22
88465.58716796606
 32
0.0
 13
990597.3679973385
 23
88465.58716796606
 33
0.0
  0
SOLID
  5
C6
330
BF
100
AcDbEntity
  8
VP
 62
0
370
13
440
16777216
100
AcDbTrace
 10
990592.3679973383
 20
88515.6036642527
 30
0.0
 11
990602.3679973383
 21
88515.6036642527
 31
0.0
 12
990597.3679973385
 22
88545.60366425269
 32
0.0
 13
990597.3679973385
 23
88545.60366425269
 33
0.0
  0
MTEXT
  5
C7
330
BF
100
AcDbEntity
  8
VP
 62
0
370
13
440
16777216
100
AcDbMText
 10
990572.0508077065
 20
88505.5954161091
 30
0.0
 40
30.0
 41
0.0
 46
0.0
 71
5
  1
80
 11
1e-16
 21
1.0
 31
0.0
  0
POINT
  5
C8
330
BF
100
AcDbEntity
  8
Defpoints
 62
0
370
13
440
16777216
100
AcDbPoint
 10
990644.5609930855
 20
88465.58716796606
 30
0.0
  0
POINT
  5
C9
330
BF
100
AcDbEntity
  8
Defpoints
 62
0
370
13
440
16777216
100
AcDbPoint
 10
990644.5609930855
 20
88545.60366425269
 30
0.0
  0
POINT
  5
CA
330
BF
100
AcDbEntity
  8
Defpoints
 62
0
370
13
440
16777216
100
AcDbPoint
 10
990597.3679973385
 20
88545.60366425269
 30
0.0
  0
ENDBLK
  5
C1
330
BF
100
AcDbEntity
  8
0
100
AcDbBlockEnd
  0
BLOCK
  5
CE
330
CD
100
AcDbEntity
  8
0
100
AcDbBlockBegin
  2
*D10
 70
1
 10
0.0
 20
0.0
 30
0.0
  3
*D10
  1

  0
LINE
  5
D0
330
CD
100
AcDbEntity
  8
VP
 62
0
370
-2
440
16777216
100
AcDbLine
 10
990905.6188966136
 20
88546.58716796608
 30
0.0
 11
990970.5561784633
 21
88546.58716796608
 31
0.0
  0
LINE
  5
D1
330
CD
100
AcDbEntity
  8
VP
 62
0
370
-2
440
16777216
100
AcDbLine
 10
990905.6188966136
 20
88276.69911053195
 30
0.0
 11
990970.5561784633
 21
88276.69911053195
 31
0.0
  0
LINE
  5
D2
330
CD
100
AcDbEntity
  8
VP
 62
0
370
-2
440
16777216
100
AcDbLine
 10
990969.3061784635
 20
88516.58716796608
 30
0.0
 11
990969.3061784635
 21
88306.69911053195
 31
0.0
  0
SOLID
  5
D3
330
CD
100
AcDbEntity
  8
VP
 62
0
370
13
440
16777216
100
AcDbTrace
 10
990964.3061784635
 20
88516.58716796608
 30
0.0
 11
990974.3061784634
 21
88516.58716796608
 31
0.0
 12
990969.3061784635
 22
88546.58716796608
 32
0.0
 13
990969.3061784635
 23
88546.58716796608
 33
0.0
  0
SOLID
  5
D4
330
CD
100
AcDbEntity
  8
VP
 62
0
370
13
440
16777216
100
AcDbTrace
 10
990964.3061784635
 20
88306.69911053195
 30
0.0
 11
990974.3061784634
 21
88306.69911053195
 31
0.0
 12
990969.3061784635
 22
88276.69911053195
 32
0.0
 13
990969.3061784635
 23
88276.69911053195
 33
0.0
  0
MTEXT
  5
D5
330
CD
100
AcDbEntity
  8
VP
 62
0
370
13
440
16777216
100
AcDbMText
 10
990943.9889888316
 20
88411.64313924871
 30
0.0
 40
30.0
 41
0.0
 46
0.0
 71
5
  1
270
 11
1e-16
 21
1.0
 31
0.0
  0
POINT
  5
D6
330
CD
100
AcDbEntity
  8
Defpoints
 62
0
370
13
440
16777216
100
AcDbPoint
 10
990904.9938966136
 20
88546.58716796608
 30
0.0
  0
POINT
  5
D7
330
CD
100
AcDbEntity
  8
Defpoints
 62
0
370
13
440
16777216
100
AcDbPoint
 10
990904.9938966136
 20
88276.69911053195
 30
0.0
  0
POINT
  5
D8
330
CD
100
AcDbEntity
  8
Defpoints
 62
0
370
13
440
16777216
100
AcDbPoint
 10
990969.3061784635
 20
88276.69911053195
 30
0.0
  0
ENDBLK
  5
CF
330
CD
100
AcDbEntity
  8
0
100
AcDbBlockEnd
  0
BLOCK
  5
DC
330
DB
100
AcDbEntity
  8
0
100
AcDbBlockBegin
  2
*D11
 70
1
 10
0.0
 20
0.0
 30
0.0
  3
*D11
  1

  0
LINE
  5
DE
330
DB
100
AcDbEntity
  8
VP
 62
0
370
-2
440
16777216
100
AcDbLine
 10
990644.9938966132
 20
88545.21216796605
 30
0.0
 11
990644.9938966132
 21
88588.73855964166
 31
0.0
  0
LINE
  5
DF
330
DB
100
AcDbEntity
  8
VP
 62
0
370
-2
440
16777216
100
AcDbLine
 10
989929.9938966132
 20
88463.04258090921
 30
0.0
 11
989929.9938966132
 21
88588.73855964166
 31
0.0
  0
LINE
  5
E0
330
DB
100
AcDbEntity
  8
VP
 62
0
370
-2
440
16777216
100
AcDbLine
 10
990614.9938966132
 20
88587.48855964166
 30
0.0
 11
989959.9938966132
 21
88587.48855964166
 31
0.0
  0
SOLID
  5
E1
330
DB
100
AcDbEntity
  8
VP
 62
0
370
13
440
16777216
100
AcDbTrace
 10
990614.9938966132
 20
88592.48855964166
 30
0.0
 11
990614.9938966132
 21
88582.48855964166
 31
0.0
 12
990644.9938966132
 22
88587.48855964166
 32
0.0
 13
990644.9938966132
 23
88587.48855964166
 33
0.0
  0
SOLID
  5
E2
330
DB
100
AcDbEntity
  8
VP
 62
0
370
13
440
16777216
100
AcDbTrace
 10
989959.9938966132
 20
88592.48855964166
 30
0.0
 11
989959.9938966132
 21
88582.48855964166
 31
0.0
 12
989929.9938966132
 22
88587.48855964166
 32
0.0
 13
989929.9938966132
 23
88587.48855964166
 33
0.0
  0
MTEXT
  5
E3
330
DB
100
AcDbEntity
  8
VP
 62
0
370
13
440
16777216
100
AcDbMText
 10
990287.4938966132
 20
88612.8057492733
 30
0.0
 40
30.0
 41
0.0
 46
0.0
 71
5
  1
715
  0
POINT
  5
E4
330
DB
100
AcDbEntity
  8
Defpoints
 62
0
370
13
440
16777216
100
AcDbPoint
 10
990644.9938966132
 20
88544.58716796605
 30
0.0
  0
POINT
  5
E5
330
DB
100
AcDbEntity
  8
Defpoints
 62
0
370
13
440
16777216
100
AcDbPoint
 10
989929.9938966132
 20
88462.41758090923
 30
0.0
  0
POINT
  5
E6
330
DB
100
AcDbEntity
  8
Defpoints
 62
0
370
13
440
16777216
100
AcDbPoint
 10
989929.9938966132
 20
88587.48855964166
 30
0.0
  0
ENDBLK
  5
DD
330
DB
100
AcDbEntity
  8
0
100
AcDbBlockEnd
  0
BLOCK
  5
EA
330
E9
100
AcDbEntity
  8
0
100
AcDbBlockBegin
  2
*D12
 70
1
 10
0.0
 20
0.0
 30
0.0
  3
*D12
  1

  0
LINE
  5
EC
330
E9
100
AcDbEntity
  8
VP
 62
0
370
-2
440
16777216
100
AcDbLine
 10
989929.3688966137
 20
88014.58716796608
 30
0.0
 11
989865.1960584054
 21
88014.58716796608
 31
0.0
  0
LINE
  5
ED
330
E9
100
AcDbEntity
  8
VP
 62
0
370
-2
440
16777216
100
AcDbLine
 10
989926.949563871
 20
88464.4582650212
 30
0.0
 11
989865.1960584054
 21
88464.4582650212
 31
0.0
  0
LINE
  5
EE
330
E9
100
AcDbEntity
  8
VP
 62
0
370
-2
440
16777216
100
AcDbLine
 10
989866.4460584054
 20
88044.58716796608
 30
0.0
 11
989866.4460584054
 21
88434.4582650212
 31
0.0
  0
SOLID
  5
EF
330
E9
100
AcDbEntity
  8
VP
 62
0
370
13
440
16777216
100
AcDbTrace
 10
989861.4460584054
 20
88044.58716796608
 30
0.0
 11
989871.4460584054
 21
88044.58716796608
 31
0.0
 12
989866.4460584054
 22
88014.58716796608
 32
0.0
 13
989866.4460584054
 23
88014.58716796608
 33
0.0
  0
SOLID
  5
F0
330
E9
100
AcDbEntity
  8
VP
 62
0
370
13
440
16777216
100
AcDbTrace
 10
989861.4460584054
 20
88434.4582650212
 30
0.0
 11
989871.4460584054
 21
88434.4582650212
 31
0.0
 12
989866.4460584054
 22
88464.4582650212
 32
0.0
 13
989866.4460584054
 23
88464.4582650212
 33
0.0
  0
MTEXT
  5
F1
330
E9
100
AcDbEntity
  8
VP
 62
0
370
13
440
16777216
100
AcDbMText
 10
989841.1288687736
 20
88239.52271649335
 30
0.0
 40
30.0
 41
0.0
 46
0.0
 71
5
  1
450
 11
1e-16
 21
1.0
 31
0.0
  0
POINT
  5
F2
330
E9
100
AcDbEntity
  8
Defpoints
 62
0
370
13
440
16777216
100
AcDbPoint
 10
989929.9938966137
 20
88014.58716796608
 30
0.0
  0
POINT
  5
F3
330
E9
100
AcDbEntity
  8
Defpoints
 62
0
370
13
440
16777216
100
AcDbPoint
 10
989927.5745638711
 20
88464.4582650212
 30
0.0
  0
POINT
  5
F4
330
E9
100
AcDbEntity
  8
Defpoints
 62
0
370
13
440
16777216
100
AcDbPoint
 10
989866.4460584054
 20
88464.4582650212
 30
0.0
  0
ENDBLK
  5
EB
330
E9
100
AcDbEntity
  8
0
100
AcDbBlockEnd
  0
BLOCK
  5
F7
330
F6
100
AcDbEntity
  8
0
100
AcDbBlockBegin
  2
*D13
 70
1
 10
0.0
 20
0.0
 30
0.0
  3
*D13
  1

  0
LINE
  5
F9
330
F6
100
AcDbEntity
  8
VP
 62
0
370
-2
440
16777216
100
AcDbLine
 10
989929.9938966132
 20
88013.96216796605
 30
0.0
 11
989929.9938966132
 21
87934.71899367704
 31
0.0
  0
LINE
  5
FA
330
F6
100
AcDbEntity
  8
VP
 62
0
370
-2
440
16777216
100
AcDbLine
 10
990219.8498974005
 20
88013.96216796605
 30
0.0
 11
990219.8498974005
 21
87934.71899367704
 31
0.0
  0
LINE
  5
FB
330
F6
100
AcDbEntity
  8
VP
 62
0
370
-2
440
16777216
100
AcDbLine
 10
989959.9938966132
 20
87935.96899367704
 30
0.0
 11
990189.8498974006
 21
87935.96899367704
 31
0.0
  0
SOLID
  5
FC
330
F6
100
AcDbEntity
  8
VP
 62
0
370
13
440
16777216
100
AcDbTrace
 10
989959.9938966132
 20
87940.96899367704
 30
0.0
 11
989959.9938966132
 21
87930.96899367704
 31
0.0
 12
989929.9938966132
 22
87935.96899367704
 32
0.0
 13
989929.9938966132
 23
87935.96899367704
 33
0.0
  0
SOLID
  5
FD
330
F6
100
AcDbEntity
  8
VP
 62
0
370
13
440
16777216
100
AcDbTrace
 10
990189.8498974006
 20
87940.96899367704
 30
0.0
 11
990189.8498974006
 21
87930.96899367704
 31
0.0
 12
990219.8498974005
 22
87935.96899367704
 32
0.0
 13
990219.8498974005
 23
87935.96899367704
 33
0.0
  0
MTEXT
  5
FE
330
F6
100
AcDbEntity
  8
VP
 62
0
370
13
440
16777216
100
AcDbMText
 10
990074.9218970069
 20
87961.2861833087
 30
0.0
 40
30.0
 41
0.0
 46
0.0
 71
5
  1
290
  0
POINT
  5
FF
330
F6
100
AcDbEntity
  8
Defpoints
 62
0
370
13
440
16777216
100
AcDbPoint
 10
989929.9938966132
 20
88014.58716796603
 30
0.0
  0
POINT
  5
100
330
F6
100
AcDbEntity
  8
Defpoints
 62
0
370
13
440
16777216
100
AcDbPoint
 10
990219.8498974005
 20
88014.58716796603
 30
0.0
  0
POINT
  5
101
330
F6
100
AcDbEntity
  8
Defpoints
 62
0
370
13
440
16777216
100
AcDbPoint
 10
990219.8498974005
 20
87935.96899367704
 30
0.0
  0
ENDBLK
  5
F8
330
F6
100
AcDbEntity
  8
0
100
AcDbBlockEnd
  0
BLOCK
  5
104
330
103
100
AcDbEntity
  8
0
100
AcDbBlockBegin
  2
*D14
 70
1
 10
0.0
 20
0.0
 30
0.0
  3
*D14
  1

  0
LINE
  5
106
330
103
100
AcDbEntity
  8
VP
 62
0
370
-2
440
16777216
100
AcDbLine
 10
989926.949563871
 20
88014.58716796608
 30
0.0
 11
989866.4695691
 21
88014.58716796608
 31
0.0
  0
LINE
  5
107
330
103
100
AcDbEntity
  8
VP
 62
0
370
-2
440
16777216
100
AcDbLine
 10
989921.9250792105
 20
87815.66438260466
 30
0.0
 11
989866.4695691
 21
87815.66438260466
 31
0.0
  0
LINE
  5
108
330
103
100
AcDbEntity
  8
VP
 62
0
370
-2
440
16777216
100
AcDbLine
 10
989867.7195691
 20
87984.58716796606
 30
0.0
 11
989867.7195691
 21
87845.66438260466
 31
0.0
  0
SOLID
  5
109
330
103
100
AcDbEntity
  8
VP
 62
0
370
13
440
16777216
100
AcDbTrace
 10
989862.7195690998
 20
87984.58716796606
 30
0.0
 11
989872.7195691
 21
87984.58716796606
 31
0.0
 12
989867.7195691
 22
88014.58716796608
 32
0.0
 13
989867.7195691
 23
88014.58716796608
 33
0.0
  0
SOLID
  5
10A
330
103
100
AcDbEntity
  8
VP
 62
0
370
13
440
16777216
100
AcDbTrace
 10
989862.7195690998
 20
87845.66438260466
 30
0.0
 11
989872.7195691
 21
87845.66438260466
 31
0.0
 12
989867.7195691
 22
87815.66438260466
 32
0.0
 13
989867.7195691
 23
87815.66438260466
 33
0.0
  0
MTEXT
  5
10B
330
103
100
AcDbEntity
  8
VP
 62
0
370
13
440
16777216
100
AcDbMText
 10
989842.4023794682
 20
87915.12577528507
 30
0.0
 40
30.0
 41
0.0
 46
0.0
 71
5
  1
199
 11
1e-16
 21
1.0
 31
0.0
  0
POINT
  5
10C
330
103
100
AcDbEntity
  8
Defpoints
 62
0
370
13
440
16777216
100
AcDbPoint
 10
989927.5745638711
 20
88014.58716796608
 30
0.0
  0
POINT
  5
10D
330
103
100
AcDbEntity
  8
Defpoints
 62
0
370
13
440
16777216
100
AcDbPoint
 10
989922.5500792105
 20
87815.66438260466
 30
0.0
  0
POINT
  5
10E
330
103
100
AcDbEntity
  8
Defpoints
 62
0
370
13
440
16777216
100
AcDbPoint
 10
989867.7195691
 20
87815.66438260466
 30
0.0
  0
ENDBLK
  5
105
330
103
100
AcDbEntity
  8
0
100
AcDbBlockEnd
  0
BLOCK
  5
111
330
110
100
AcDbEntity
  8
0
100
AcDbBlockBegin
  2
*D15
 70
1
 10
0.0
 20
0.0
 30
0.0
  3
*D15
  1

  0
LINE
  5
113
330
110
100
AcDbEntity
  8
VP
 62
0
370
-2
440
16777216
100
AcDbLine
 10
991126.5729738573
 20
88746.43754166589
 30
0.0
 11
991225.1964781017
 21
88746.43754166589
 31
0.0
  0
LINE
  5
114
330
110
100
AcDbEntity
  8
VP
 62
0
370
-2
440
16777216
100
AcDbLine
 10
991126.5729738573
 20
88276.1709122262
 30
0.0
 11
991225.1964781017
 21
88276.1709122262
 31
0.0
  0
LINE
  5
115
330
110
100
AcDbEntity
  8
VP
 62
0
370
-2
440
16777216
100
AcDbLine
 10
991223.9464781017
 20
88716.43754166589
 30
0.0
 11
991223.9464781017
 21
88306.1709122262
 31
0.0
  0
SOLID
  5
116
330
110
100
AcDbEntity
  8
VP
 62
0
370
13
440
16777216
100
AcDbTrace
 10
991218.9464781017
 20
88716.43754166589
 30
0.0
 11
991228.9464781018
 21
88716.43754166589
 31
0.0
 12
991223.9464781017
 22
88746.43754166589
 32
0.0
 13
991223.9464781017
 23
88746.43754166589
 33
0.0
  0
SOLID
  5
117
330
110
100
AcDbEntity
  8
VP
 62
0
370
13
440
16777216
100
AcDbTrace
 10
991218.9464781017
 20
88306.1709122262
 30
0.0
 11
991228.9464781018
 21
88306.1709122262
 31
0.0
 12
991223.9464781017
 22
88276.1709122262
 32
0.0
 13
991223.9464781017
 23
88276.1709122262
 33
0.0
  0
MTEXT
  5
118
330
110
100
AcDbEntity
  8
VP
 62
0
370
13
440
16777216
100
AcDbMText
 10
991198.6292884698
 20
88511.30422694575
 30
0.0
 40
30.0
 41
0.0
 46
0.0
 71
5
  1
470
 11
1e-16
 21
1.0
 31
0.0
  0
POINT
  5
119
330
110
100
AcDbEntity
  8
Defpoints
 62
0
370
13
440
16777216
100
AcDbPoint
 10
991125.9479738575
 20
88746.43754166589
 30
0.0
  0
POINT
  5
11A
330
110
100
AcDbEntity
  8
Defpoints
 62
0
370
13
440
16777216
100
AcDbPoint
 10
991125.9479738575
 20
88276.1709122262
 30
0.0
  0
POINT
  5
11B
330
110
100
AcDbEntity
  8
Defpoints
 62
0
370
13
440
16777216
100
AcDbPoint
 10
991223.9464781017
 20
88276.1709122262
 30
0.0
  0
ENDBLK
  5
112
330
110
100
AcDbEntity
  8
0
100
AcDbBlockEnd
  0
BLOCK
  5
11F
330
11E
100
AcDbEntity
  8
0
100
AcDbBlockBegin
  2
*D16
 70
1
 10
0.0
 20
0.0
 30
0.0
  3
*D16
  1

  0
LINE
  5
121
330
11E
100
AcDbEntity
  8
VP
 62
0
370
-2
440
16777216
100
AcDbLine
 10
991126.1821286842
 20
88276.1709122262
 30
0.0
 11
991225.1964781013
 21
88276.1709122262
 31
0.0
  0
LINE
  5
122
330
11E
100
AcDbEntity
  8
VP
 62
0
370
-2
440
16777216
100
AcDbLine
 10
991126.1821286842
 20
86835.76102698236
 30
0.0
 11
991225.1964781013
 21
86835.76102698236
 31
0.0
  0
LINE
  5
123
330
11E
100
AcDbEntity
  8
VP
 62
0
370
-2
440
16777216
100
AcDbLine
 10
991223.9464781013
 20
88246.1709122262
 30
0.0
 11
991223.9464781013
 21
86865.76102698236
 31
0.0
  0
SOLID
  5
124
330
11E
100
AcDbEntity
  8
VP
 62
0
370
13
440
16777216
100
AcDbTrace
 10
991218.9464781013
 20
88246.1709122262
 30
0.0
 11
991228.9464781013
 21
88246.1709122262
 31
0.0
 12
991223.9464781013
 22
88276.1709122262
 32
0.0
 13
991223.9464781013
 23
88276.1709122262
 33
0.0
  0
SOLID
  5
125
330
11E
100
AcDbEntity
  8
VP
 62
0
370
13
440
16777216
100
AcDbTrace
 10
991218.9464781013
 20
86865.76102698236
 30
0.0
 11
991228.9464781013
 21
86865.76102698236
 31
0.0
 12
991223.9464781013
 22
86835.76102698236
 32
0.0
 13
991223.9464781013
 23
86835.76102698236
 33
0.0
  0
MTEXT
  5
126
330
11E
100
AcDbEntity
  8
VP
 62
0
370
13
440
16777216
100
AcDbMText
 10
991198.6292884694
 20
87555.96596960399
 30
0.0
 40
30.0
 41
0.0
 46
0.0
 71
5
  1
1440
 11
1e-16
 21
1.0
 31
0.0
  0
POINT
  5
127
330
11E
100
AcDbEntity
  8
Defpoints
 62
0
370
13
440
16777216
100
AcDbPoint
 10
991125.5571286842
 20
88276.1709122262
 30
0.0
  0
POINT
  5
128
330
11E
100
AcDbEntity
  8
Defpoints
 62
0
370
13
440
16777216
100
AcDbPoint
 10
991125.5571286842
 20
86835.76102698236
 30
0.0
  0
POINT
  5
129
330
11E
100
AcDbEntity
  8
Defpoints
 62
0
370
13
440
16777216
100
AcDbPoint
 10
991223.9464781013
 20
86835.76102698236
 30
0.0
  0
ENDBLK
  5
120
330
11E
100
AcDbEntity
  8
0
100
AcDbBlockEnd
  0
BLOCK
  5
12D
330
12C
100
AcDbEntity
  8
0
100
AcDbBlockBegin
  2
*D17
 70
1
 10
0.0
 20
0.0
 30
0.0
  3
*D17
  1

  0
LINE
  5
12F
330
12C
100
AcDbEntity
  8
VP
 62
0
370
-2
440
16777216
100
AcDbLine
 10
989727.8498974005
 20
88747.06254166586
 30
0.0
 11
989727.8498974005
 21
88848.46994508569
 31
0.0
  0
LINE
  5
130
330
12C
100
AcDbEntity
  8
VP
 62
0
370
-2
440
16777216
100
AcDbLine
 10
991127.947973857
 20
88747.06254166586
 30
0.0
 11
991127.947973857
 21
88848.46994508569
 31
0.0
  0
LINE
  5
131
330
12C
100
AcDbEntity
  8
VP
 62
0
370
-2
440
16777216
100
AcDbLine
 10
989757.8498974006
 20
88847.21994508569
 30
0.0
 11
991097.947973857
 21
88847.21994508569
 31
0.0
  0
SOLID
  5
132
330
12C
100
AcDbEntity
  8
VP
 62
0
370
13
440
16777216
100
AcDbTrace
 10
989757.8498974006
 20
88852.21994508569
 30
0.0
 11
989757.8498974006
 21
88842.21994508569
 31
0.0
 12
989727.8498974005
 22
88847.21994508569
 32
0.0
 13
989727.8498974005
 23
88847.21994508569
 33
0.0
  0
SOLID
  5
133
330
12C
100
AcDbEntity
  8
VP
 62
0
370
13
440
16777216
100
AcDbTrace
 10
991097.947973857
 20
88852.21994508569
 30
0.0
 11
991097.947973857
 21
88842.21994508569
 31
0.0
 12
991127.947973857
 22
88847.21994508569
 32
0.0
 13
991127.947973857
 23
88847.21994508569
 33
0.0
  0
MTEXT
  5
134
330
12C
100
AcDbEntity
  8
VP
 62
0
370
13
440
16777216
100
AcDbMText
 10
990427.8989356287
 20
88872.53713471733
 30
0.0
 40
30.0
 41
0.0
 46
0.0
 71
5
  1
1400
  0
POINT
  5
135
330
12C
100
AcDbEntity
  8
Defpoints
 62
0
370
13
440
16777216
100
AcDbPoint
 10
989727.8498974005
 20
88746.43754166584
 30
0.0
  0
POINT
  5
136
330
12C
100
AcDbEntity
  8
Defpoints
 62
0
370
13
440
16777216
100
AcDbPoint
 10
991127.947973857
 20
88746.43754166584
 30
0.0
  0
POINT
  5
137
330
12C
100
AcDbEntity
  8
Defpoints
 62
0
370
13
440
16777216
100
AcDbPoint
 10
991127.947973857
 20
88847.21994508569
 30
0.0
  0
ENDBLK
  5
12E
330
12C
100
AcDbEntity
  8
0
100
AcDbBlockEnd
  0
BLOCK
  5
155
330
154
100
AcDbEntity
  8
0
100
AcDbBlockBegin
  2
*D18
 70
1
 10
0.0
 20
0.0
 30
0.0
  3
*D18
  1

  0
LINE
  5
157
330
154
100
AcDbEntity
  8
VP
 62
0
370
-2
440
16777216
100
AcDbLine
 10
990679.4974649111
 20
88091.51474650594
 30
0.0
 11
990679.4974649111
 21
88040.41189117586
 31
0.0
  0
LINE
  5
158
330
154
100
AcDbEntity
  8
VP
 62
0
370
-2
440
16777216
100
AcDbLine
 10
990975.0369759894
 20
88089.67664525626
 30
0.0
 11
990975.0369759894
 21
88040.41189117586
 31
0.0
  0
LINE
  5
159
330
154
100
AcDbEntity
  8
VP
 62
0
370
-2
440
16777216
100
AcDbLine
 10
990709.4974649112
 20
88041.66189117584
 30
0.0
 11
990945.0369759895
 21
88041.66189117584
 31
0.0
  0
SOLID
  5
15A
330
154
100
AcDbEntity
  8
VP
 62
0
370
13
440
16777216
100
AcDbTrace
 10
990709.4974649112
 20
88046.66189117584
 30
0.0
 11
990709.4974649112
 21
88036.66189117586
 31
0.0
 12
990679.4974649111
 22
88041.66189117584
 32
0.0
 13
990679.4974649111
 23
88041.66189117584
 33
0.0
  0
SOLID
  5
15B
330
154
100
AcDbEntity
  8
VP
 62
0
370
13
440
16777216
100
AcDbTrace
 10
990945.0369759895
 20
88046.66189117584
 30
0.0
 11
990945.0369759895
 21
88036.66189117586
 31
0.0
 12
990975.0369759894
 22
88041.66189117584
 32
0.0
 13
990975.0369759894
 23
88041.66189117584
 33
0.0
  0
MTEXT
  5
15C
330
154
100
AcDbEntity
  8
VP
 62
0
370
13
440
16777216
100
AcDbMText
 10
990827.2672204503
 20
88066.97908080749
 30
0.0
 40
30.0
 41
0.0
 46
0.0
 71
5
  1
296
  0
POINT
  5
15D
330
154
100
AcDbEntity
  8
Defpoints
 62
0
370
13
440
16777216
100
AcDbPoint
 10
990679.4974649111
 20
88092.13974650594
 30
0.0
  0
POINT
  5
15E
330
154
100
AcDbEntity
  8
Defpoints
 62
0
370
13
440
16777216
100
AcDbPoint
 10
990975.0369759894
 20
88090.30164525626
 30
0.0
  0
POINT
  5
15F
330
154
100
AcDbEntity
  8
Defpoints
 62
0
370
13
440
16777216
100
AcDbPoint
 10
990975.0369759894
 20
88041.66189117584
 30
0.0
  0
ENDBLK
  5
156
330
154
100
AcDbEntity
  8
0
100
AcDbBlockEnd
  0
BLOCK
  5
163
330
162
100
AcDbEntity
  8
0
100
AcDbBlockBegin
  2
*D19
 70
1
 10
0.0
 20
0.0
 30
0.0
  3
*D19
  1

  0
LINE
  5
165
330
162
100
AcDbEntity
  8
VP
 62
0
370
-2
440
16777216
100
AcDbLine
 10
990678.8724649115
 20
88276.80769826676
 30
0.0
 11
990633.9702925665
 21
88276.80769826676
 31
0.0
  0
LINE
  5
166
330
162
100
AcDbEntity
  8
VP
 62
0
370
-2
440
16777216
100
AcDbLine
 10
990678.8724649115
 20
88092.13974650599
 30
0.0
 11
990633.9702925665
 21
88092.13974650599
 31
0.0
  0
LINE
  5
167
330
162
100
AcDbEntity
  8
VP
 62
0
370
-2
440
16777216
100
AcDbLine
 10
990635.2202925665
 20
88246.80769826676
 30
0.0
 11
990635.2202925665
 21
88122.13974650599
 31
0.0
  0
SOLID
  5
168
330
162
100
AcDbEntity
  8
VP
 62
0
370
13
440
16777216
100
AcDbTrace
 10
990630.2202925665
 20
88246.80769826676
 30
0.0
 11
990640.2202925665
 21
88246.80769826676
 31
0.0
 12
990635.2202925665
 22
88276.80769826676
 32
0.0
 13
990635.2202925665
 23
88276.80769826676
 33
0.0
  0
SOLID
  5
169
330
162
100
AcDbEntity
  8
VP
 62
0
370
13
440
16777216
100
AcDbTrace
 10
990630.2202925665
 20
88122.13974650599
 30
0.0
 11
990640.2202925665
 21
88122.13974650599
 31
0.0
 12
990635.2202925665
 22
88092.13974650599
 32
0.0
 13
990635.2202925665
 23
88092.13974650599
 33
0.0
  0
MTEXT
  5
16A
330
162
100
AcDbEntity
  8
VP
 62
0
370
13
440
16777216
100
AcDbMText
 10
990609.9031029347
 20
88184.47372238606
 30
0.0
 40
30.0
 41
0.0
 46
0.0
 71
5
  1
185
 11
1e-16
 21
1.0
 31
0.0
  0
POINT
  5
16B
330
162
100
AcDbEntity
  8
Defpoints
 62
0
370
13
440
16777216
100
AcDbPoint
 10
990679.4974649115
 20
88276.80769826676
 30
0.0
  0
POINT
  5
16C
330
162
100
AcDbEntity
  8
Defpoints
 62
0
370
13
440
16777216
100
AcDbPoint
 10
990679.4974649115
 20
88092.13974650599
 30
0.0
  0
POINT
  5
16D
330
162
100
AcDbEntity
  8
Defpoints
 62
0
370
13
440
16777216
100
AcDbPoint
 10
990635.2202925665
 20
88092.13974650599
 30
0.0
  0
ENDBLK
  5
164
330
162
100
AcDbEntity
  8
0
100
AcDbBlockEnd
  0
ENDSEC
  0
SECTION
  2
ENTITIES
  0
LWPOLYLINE
  5
34
330
17
100
AcDbEntity
  8
BAR-GAL
 62
8
370
13
100
AcDbPolyline
 90
4
 70
1
 10
991125.5571286837
 20
88276.17091222617
 10
990974.0369759894
 20
88280.70067138204
 10
990974.0369759894
 20
88097.30629170235
 10
991007.309038067
 20
88242.97194138644
  0
LWPOLYLINE
  5
35
330
17
100
AcDbEntity
  8
BAR-GAL
 62
8
370
13
100
AcDbPolyline
 90
4
 70
1
 10
990961.3065369288
 20
87492.2872963037
 10
990680.4974649112
 20
87491.65051026313
 10
990680.4974649112
 20
87437.52383530626
 10
990698.6323519131
 20
87465.4365783371
  0
LWPOLYLINE
  5
36
330
17
100
AcDbEntity
  8
0
370
13
100
AcDbPolyline
 90
4
 70
1
 43
3.428535235377893
 10
992817.7859585526
 20
85790.61580996425
 10
987725.573400194
 20
85790.61580996425
 10
987725.573400194
 20
89906.53650785582
 10
992820.46101096
 20
89906.53650785582
  0
LWPOLYLINE
  5
37
330
17
100
AcDbEntity
  8
BAR-GAL
 62
7
370
13
100
AcDbPolyline
 90
10
 70
0
 43
5.0
 10
990398.1865454105
 20
87176.86911615482
 10
990217.8498974006
 20
87176.86911615482
 10
990217.8498974006
 20
87816.86911615482
 10
990047.4627360702
 20
87816.86911615482
 10
990047.4627360702
 20
87816.86911615482
 10
989747.8498974006
 20
87816.86911615482
 10
989727.8498974005
 20
87816.86911615482
 10
989727.8498974005
 20
88746.43754166584
 10
989724.0460503134
 20
88746.43754166584
 10
991125.947973857
 20
88746.43754166584
  0
LWPOLYLINE
  5
38
330
17
100
AcDbEntity
  8
BAR-GAL
 62
7
370
13
100
AcDbPolyline
 90
5
 70
0
 43
15.0
 10
991060.277113692
 20
88101.44382932849
 10
991060.277113692
 20
88092.13974650594
 10
991125.5571286837
 20
88092.13974650594
 10
991125.5571286837
 20
88276.17091222617
 10
991060.277113692
 20
88276.17091222617
  0
DIMENSION
  5
39
330
17
100
AcDbEntity
  8
VP
370
13
100
AcDbDimension
280
0
  2
*D1
  3
ISO-25
 10
990680.4974649112
 20
87366.92128339472
 30
0.0
 11
990450.4974649112
 21
87392.23847302639
 31
0.0
 70
32
 71
5
 42
460.0
 73
0
 74
0
 75
0
100
AcDbAlignedDimension
 13
990220.497464911
 23
87440.50077760634
 33
0.0
 14
990680.4974649112
 24
87440.50077760634
 34
0.0
 50
0.0
100
AcDbRotatedDimension
  0
LWPOLYLINE
  5
46
330
17
100
AcDbEntity
  8
BAR-GAL
 62
7
370
13
100
AcDbPolyline
 90
4
 70
0
 43
15.0
 10
990961.2448468367
 20
87491.01372422258
 10
990679.4974649111
 20
87491.01372422258
 10
990679.4974649111
 20
88276.80769826673
 10
991125.5571286837
 20
88276.17091222617
  0
LWPOLYLINE
  5
47
330
17
100
AcDbEntity
  8
BAR-GAL
 62
7
370
13
100
AcDbPolyline
 90
3
 70
0
 43
15.0
 10
990960.3065369289
 20
87491.01372422258
 10
990960.3065369289
 20
87882.00035312297
 10
990677.5255776382
 20
87882.000353123
  0
DIMENSION
  5
48
102
{ACAD_XDICTIONARY
360
49
102
}
330
17
100
AcDbEntity
  8
VP
370
13
100
AcDbDimension
280
0
  2
*D2
  3
ISO-25
 10
991014.4307346657
 20
87881.00035312302
 30
0.0
 11
990989.1033131103
 21
87686.00703867251
 31
0.0
 70
32
 71
5
 42
389.9866289004131
 73
0
 74
0
 75
0
100
AcDbAlignedDimension
 13
990960.3065369289
 23
87491.01372422258
 33
0.0
 14
990960.3065369289
 24
87881.00035312297
 34
0.0
 50
90.0
100
AcDbRotatedDimension
  0
DIMENSION
  5
56
330
17
100
AcDbEntity
  8
VP
370
13
100
AcDbDimension
280
0
  2
*D3
  3
ISO-25
 10
990960.6249145427
 20
87936.35217259446
 30
0.0
 11
990820.379567341
 21
87961.66936222611
 31
0.0
 70
32
 71
5
 42
280.4906944036484
 73
0
 74
0
 75
0
100
AcDbAlignedDimension
 13
990680.1342201392
 23
87833.51122698723
 33
0.0
 14
990960.6249145427
 24
87832.5560479841
 34
0.0
 50
0.0
100
AcDbRotatedDimension
  0
LWPOLYLINE
  5
63
330
17
100
AcDbEntity
  8
BAR-GAL
 62
7
370
13
100
AcDbPolyline
 90
6
 70
0
 43
15.0
 10
991060.277113692
 20
88101.44382932849
 10
991060.277113692
 20
88092.13974650594
 10
990679.4974649111
 20
88092.13974650594
 10
990679.4974649111
 20
88276.80769826673
 10
991060.277113692
 20
88276.80769826673
 10
991060.277113692
 20
88276.17091222617
  0
LWPOLYLINE
  5
64
330
17
100
AcDbEntity
  8
BAR-GAL
 62
7
370
13
100
AcDbPolyline
 90
2
 70
0
 43
15.0
 10
990679.4974649111
 20
87492.2872963037
 10
990679.4974649111
 20
87491.01372422258
  0
LWPOLYLINE
  5
65
330
17
100
AcDbEntity
  8
BAR-GAL
 62
7
370
13
100
AcDbPolyline
 90
4
 70
1
 43
5.0
 10
990789.6561257999
 20
87763.55814957987
 10
990850.1478760401
 20
87763.55814957987
 10
990850.1478760401
 20
87601.17770923847
 10
990789.6561257999
 20
87601.17770923847
  0
DIMENSION
  5
66
330
17
100
AcDbEntity
  8
VP
370
13
100
AcDbDimension
280
0
  2
*D4
  3
ISO-25
 10
989559.4924754846
 20
87176.86911615486
 30
0.0
 11
989534.1752858527
 21
87496.86911615457
 31
0.0
 70
32
 71
5
 42
639.9999999999709
 73
0
 74
0
 75
0
100
AcDbAlignedDimension
 13
989849.2133092313
 23
87816.86911615482
 33
0.0
 14
989849.2133092313
 24
87176.86911615485
 34
0.0
 50
90.0
100
AcDbRotatedDimension
  0
LINE
  5
73
330
17
100
AcDbEntity
  8
BAR-GAL
 62
7
370
13
100
AcDbLine
 10
990789.6561257999
 20
87763.55814957987
 30
0.0
 11
990789.6561257999
 21
87881.00035312297
 31
0.0
  0
LINE
  5
74
330
17
100
AcDbEntity
  8
BAR-GAL
 62
7
370
13
100
AcDbLine
 10
990819.6561257998
 20
87763.55814957987
 30
0.0
 11
990819.6561257998
 21
87881.00035312297
 31
0.0
  0
LINE
  5
75
330
17
100
AcDbEntity
  8
BAR-GAL
 62
7
370
13
100
AcDbLine
 10
990849.6561257998
 20
87763.55814957987
 30
0.0
 11
990849.6561257998
 21
87881.00035312297
 31
0.0
  0
LINE
  5
76
330
17
100
AcDbEntity
  8
BAR-GAL
 62
7
370
13
100
AcDbLine
 10
990789.6561257999
 20
87756.99466033
 30
0.0
 11
990680.4817511314
 21
87756.99466033
 31
0.0
  0
LINE
  5
77
330
17
100
AcDbEntity
  8
BAR-GAL
 62
7
370
13
100
AcDbLine
 10
990789.6561257999
 20
87726.99466033
 30
0.0
 11
990680.4817511314
 21
87726.99466033
 31
0.0
  0
LINE
  5
78
330
17
100
AcDbEntity
  8
BAR-GAL
 62
7
370
13
100
AcDbLine
 10
990789.6561257999
 20
87696.99466033
 30
0.0
 11
990680.4817511314
 21
87696.99466033
 31
0.0
  0
LINE
  5
79
330
17
100
AcDbEntity
  8
BAR-GAL
 62
7
370
13
100
AcDbLine
 10
990789.6561257999
 20
87666.99466033
 30
0.0
 11
990680.4817511314
 21
87666.99466033
 31
0.0
  0
LINE
  5
7A
330
17
100
AcDbEntity
  8
BAR-GAL
 62
7
370
13
100
AcDbLine
 10
990789.6561257999
 20
87636.99466033
 30
0.0
 11
990680.4817511314
 21
87636.99466033
 31
0.0
  0
LINE
  5
7B
330
17
100
AcDbEntity
  8
BAR-GAL
 62
7
370
13
100
AcDbLine
 10
990789.6561257999
 20
87606.99466033
 30
0.0
 11
990680.4817511314
 21
87606.99466033
 31
0.0
  0
LINE
  5
7C
330
17
100
AcDbEntity
  8
BAR-GAL
 62
7
370
13
100
AcDbLine
 10
990789.6561257999
 20
87483.73550569537
 30
0.0
 11
990789.6561257999
 21
87601.17770923847
 31
0.0
  0
LINE
  5
7D
330
17
100
AcDbEntity
  8
BAR-GAL
 62
7
370
13
100
AcDbLine
 10
990819.6561257998
 20
87483.73550569537
 30
0.0
 11
990819.6561257998
 21
87601.17770923847
 31
0.0
  0
LINE
  5
7E
330
17
100
AcDbEntity
  8
BAR-GAL
 62
7
370
13
100
AcDbLine
 10
990849.6561257998
 20
87483.73550569537
 30
0.0
 11
990849.6561257998
 21
87601.17770923847
 31
0.0
  0
LINE
  5
7F
330
17
100
AcDbEntity
  8
BAR-GAL
 62
7
370
13
100
AcDbLine
 10
990960.3065369289
 20
87756.99466033
 30
0.0
 11
990851.1321622604
 21
87756.99466033
 31
0.0
  0
LINE
  5
80
330
17
100
AcDbEntity
  8
BAR-GAL
 62
7
370
13
100
AcDbLine
 10
990960.3065369289
 20
87726.99466033
 30
0.0
 11
990851.1321622604
 21
87726.99466033
 31
0.0
  0
LINE
  5
81
330
17
100
AcDbEntity
  8
BAR-GAL
 62
7
370
13
100
AcDbLine
 10
990960.3065369289
 20
87696.99466033
 30
0.0
 11
990851.1321622604
 21
87696.99466033
 31
0.0
  0
LINE
  5
82
330
17
100
AcDbEntity
  8
BAR-GAL
 62
7
370
13
100
AcDbLine
 10
990960.3065369289
 20
87666.99466033
 30
0.0
 11
990851.1321622604
 21
87666.99466033
 31
0.0
  0
LINE
  5
83
330
17
100
AcDbEntity
  8
BAR-GAL
 62
7
370
13
100
AcDbLine
 10
990960.3065369289
 20
87636.99466033
 30
0.0
 11
990851.1321622604
 21
87636.99466033
 31
0.0
  0
LINE
  5
84
330
17
100
AcDbEntity
  8
BAR-GAL
 62
7
370
13
100
AcDbLine
 10
990960.3065369289
 20
87606.99466033
 30
0.0
 11
990851.1321622604
 21
87606.99466033
 31
0.0
  0
LWPOLYLINE
  5
85
330
17
100
AcDbEntity
  8
BAR-GAL
 62
7
370
13
100
AcDbPolyline
 90
2
 70
0
 43
5.0
 10
991125.947973857
 20
88746.43754166584
 10
991127.4053452295
 20
88276.1709122262
  0
LWPOLYLINE
  5
86
330
17
100
AcDbEntity
  8
BAR-GAL
 62
7
370
13
100
AcDbPolyline
 90
3
 70
0
 43
15.0
 10
991127.4053452295
 20
88276.1709122262
 10
991129.0570976504
 20
87743.1811347753
 10
990959.9713363807
 20
87743.18113477237
  0
DIMENSION
  5
87
330
17
100
AcDbEntity
  8
VP
370
13
100
AcDbDimension
280
0
  2
*D5
  3
ISO-25
 10
990680.4974649112
 20
87366.92128339472
 30
0.0
 11
990820.3711558741
 21
87392.23847302639
 31
0.0
 70
32
 71
5
 42
279.7473819255829
 73
0
 74
0
 75
0
100
AcDbAlignedDimension
 13
990960.2448468367
 23
87437.52383530626
 33
0.0
 14
990680.4974649112
 24
87443.18649659018
 34
0.0
 50
0.0
100
AcDbRotatedDimension
  0
LWPOLYLINE
  5
94
330
17
100
AcDbEntity
  8
BAR-GAL
 62
7
370
13
100
AcDbPolyline
 90
4
 70
1
 43
15.0
 10
990679.4974649111
 20
87492.2872963037
 10
990961.2448468367
 20
87492.2872963037
 10
990961.2448468367
 20
87437.52383530626
 10
990679.4974649111
 20
87437.52383530626
  0
DIMENSION
  5
95
330
17
100
AcDbEntity
  8
VP
370
13
100
AcDbDimension
280
0
  2
*D6
  3
ISO-25
 10
991126.4363287969
 20
87366.92128339472
 30
0.0
 11
991044.0211595322
 21
87392.23847302639
 31
0.0
 70
32
 71
5
 42
164.8303385291947
 73
0
 74
0
 75
0
100
AcDbAlignedDimension
 13
990961.6059902676
 23
87441.07312939184
 33
0.0
 14
991126.4363287969
 24
87435.02118074887
 34
0.0
 50
0.0
100
AcDbRotatedDimension
  0
DIMENSION
  5
A2
330
17
100
AcDbEntity
  8
VP
370
13
100
AcDbDimension
280
0
  2
*D7
  3
ISO-25
 10
990905.2422249079
 20
88587.48855964166
 30
0.0
 11
991015.242224908
 21
88612.8057492733
 31
0.0
 70
32
 71
5
 42
220.0
 73
0
 74
0
 75
0
100
AcDbAlignedDimension
 13
991125.2422249079
 23
88522.0425807522
 33
0.0
 14
990905.2422249079
 24
88522.0425807522
 34
0.0
 50
0.0
100
AcDbRotatedDimension
  0
DIMENSION
  5
AF
330
17
100
AcDbEntity
  8
VP
370
13
100
AcDbDimension
280
0
  2
*D8
  3
ISO-25
 10
990645.4859347655
 20
88587.48855964166
 30
0.0
 11
990775.4859347655
 21
88612.8057492733
 31
0.0
 70
32
 71
5
 42
260.0
 73
0
 74
0
 75
0
100
AcDbAlignedDimension
 13
990905.4859347655
 23
88551.9715246582
 33
0.0
 14
990645.4859347655
 24
88551.9715246582
 34
0.0
 50
0.0
100
AcDbRotatedDimension
  0
LWPOLYLINE
  5
BC
330
17
100
AcDbEntity
  8
BAR-GAL
 62
7
370
13
100
AcDbPolyline
 90
7
 70
0
 43
15.0
 10
990904.9938966132
 20
88274.58716796606
 10
990904.9938966132
 20
88544.58716796605
 10
990644.9938966132
 20
88544.58716796605
 10
990644.9938966132
 20
88464.58716796603
 10
989929.9938966132
 20
88464.58716796603
 10
989929.9938966132
 20
88014.58716796603
 10
990683.316448762
 20
88016.68660635137
  0
LWPOLYLINE
  5
BD
330
17
100
AcDbEntity
  8
BAR-GAL
 62
7
370
13
100
AcDbPolyline
 90
2
 70
0
 43
5.0
 10
990217.8498974006
 20
87816.86911615482
 10
990217.8498974006
 20
88015.3893952932
  0
DIMENSION
  5
BE
330
17
100
AcDbEntity
  8
VP
370
13
100
AcDbDimension
280
0
  2
*D9
  3
ISO-25
 10
990597.3679973385
 20
88545.60366425269
 30
0.0
 11
990572.0508077065
 21
88505.5954161091
 31
0.0
 70
32
 71
5
 42
80.01649628662562
 73
0
 74
0
 75
0
100
AcDbAlignedDimension
 13
990644.560993085
 23
88465.58716796605
 33
0.0
 14
990644.560993085
 24
88545.60366425267
 34
0.0
 50
90.0
100
AcDbRotatedDimension
  0
DIMENSION
  5
CB
102
{ACAD_XDICTIONARY
360
CC
102
}
330
17
100
AcDbEntity
  8
VP
370
13
100
AcDbDimension
280
0
  2
*D10
  3
ISO-25
 10
990969.3061784635
 20
88276.69911053195
 30
0.0
 11
990943.9889888316
 21
88411.64313924871
 31
0.0
 70
32
 71
5
 42
269.8880574341165
 73
0
 74
0
 75
0
100
AcDbAlignedDimension
 13
990904.9938966132
 23
88546.58716796603
 33
0.0
 14
990904.9938966132
 24
88276.69911053193
 34
0.0
 50
90.0
100
AcDbRotatedDimension
  0
DIMENSION
  5
D9
102
{ACAD_XDICTIONARY
360
DA
102
}
330
17
100
AcDbEntity
  8
VP
370
13
100
AcDbDimension
280
0
  2
*D11
  3
ISO-25
 10
989929.9938966132
 20
88587.48855964166
 30
0.0
 11
990287.4938966132
 21
88612.8057492733
 31
0.0
 70
32
 71
5
 42
715.0
 73
0
 74
0
 75
0
100
AcDbAlignedDimension
 13
990644.9938966132
 23
88544.58716796605
 33
0.0
 14
989929.9938966132
 24
88462.41758090923
 34
0.0
 50
0.0
100
AcDbRotatedDimension
  0
DIMENSION
  5
E7
102
{ACAD_XDICTIONARY
360
E8
102
}
330
17
100
AcDbEntity
  8
VP
370
13
100
AcDbDimension
280
0
  2
*D12
  3
ISO-25
 10
989866.4460584054
 20
88464.4582650212
 30
0.0
 11
989841.1288687736
 21
88239.52271649335
 31
0.0
 70
32
 71
5
 42
449.8710970551037
 73
0
 74
0
 75
0
100
AcDbAlignedDimension
 13
989929.9938966132
 23
88014.58716796603
 33
0.0
 14
989927.5745638706
 24
88464.45826502115
 34
0.0
 50
90.0
100
AcDbRotatedDimension
  0
DIMENSION
  5
F5
330
17
100
AcDbEntity
  8
VP
370
13
100
AcDbDimension
280
0
  2
*D13
  3
ISO-25
 10
990219.8498974005
 20
87935.96899367704
 30
0.0
 11
990074.9218970069
 21
87961.2861833087
 31
0.0
 70
32
 71
5
 42
289.8560007873457
 73
0
 74
0
 75
0
100
AcDbAlignedDimension
 13
989929.9938966132
 23
88014.58716796603
 33
0.0
 14
990219.8498974005
 24
88014.58716796603
 34
0.0
 50
0.0
100
AcDbRotatedDimension
  0
DIMENSION
  5
102
330
17
100
AcDbEntity
  8
VP
370
13
100
AcDbDimension
280
0
  2
*D14
  3
ISO-25
 10
989867.7195691
 20
87815.66438260466
 30
0.0
 11
989842.4023794682
 21
87915.12577528507
 31
0.0
 70
32
 71
5
 42
198.9227853614138
 73
0
 74
0
 75
0
100
AcDbAlignedDimension
 13
989927.5745638706
 23
88014.58716796603
 33
0.0
 14
989922.55007921
 24
87815.66438260463
 34
0.0
 50
90.0
100
AcDbRotatedDimension
  0
DIMENSION
  5
10F
330
17
100
AcDbEntity
  8
VP
370
13
100
AcDbDimension
280
0
  2
*D15
  3
ISO-25
 10
991223.9464781017
 20
88276.1709122262
 30
0.0
 11
991198.6292884698
 21
88511.30422694575
 31
0.0
 70
32
 71
5
 42
470.2666294396912
 73
0
 74
0
 75
0
100
AcDbAlignedDimension
 13
991125.947973857
 23
88746.43754166584
 33
0.0
 14
991125.947973857
 24
88276.17091222617
 34
0.0
 50
90.0
100
AcDbRotatedDimension
  0
DIMENSION
  5
11C
102
{ACAD_XDICTIONARY
360
11D
102
}
330
17
100
AcDbEntity
  8
VP
370
13
100
AcDbDimension
280
0
  2
*D16
  3
ISO-25
 10
991223.9464781013
 20
86835.76102698236
 30
0.0
 11
991198.6292884694
 21
87555.96596960399
 31
0.0
 70
32
 71
5
 42
1440.409885243833
 73
0
 74
0
 75
0
100
AcDbAlignedDimension
 13
991125.5571286837
 23
88276.17091222617
 33
0.0
 14
991125.5571286837
 24
86835.76102698233
 34
0.0
 50
90.0
100
AcDbRotatedDimension
  0
DIMENSION
  5
12A
102
{ACAD_XDICTIONARY
360
12B
102
}
330
17
100
AcDbEntity
  8
VP
370
13
100
AcDbDimension
280
0
  2
*D17
  3
ISO-25
 10
991127.947973857
 20
88847.21994508569
 30
0.0
 11
990427.8989356287
 21
88872.53713471733
 31
0.0
 70
32
 71
5
 42
1400.098076456459
 73
0
 74
0
 75
0
100
AcDbAlignedDimension
 13
989727.8498974005
 23
88746.43754166584
 33
0.0
 14
991127.947973857
 24
88746.43754166584
 34
0.0
 50
0.0
100
AcDbRotatedDimension
  0
LWPOLYLINE
  5
138
330
17
100
AcDbEntity
  8
BAR-GAL
 62
7
370
13
100
AcDbPolyline
 90
2
 70
0
 43
15.0
 10
990975.0369759894
 20
88090.30164525626
 10
990975.0369759894
 20
88281.3374574226
  0
LWPOLYLINE
  5
139
330
17
100
AcDbEntity
  8
BAR-GAL
 62
7
370
13
100
AcDbPolyline
 90
5
 70
0
 43
5.0
 10
990431.8847342826
 20
88010.72323560795
 10
990431.8847342826
 20
88129.14559373009
 10
990053.0153511859
 20
88130.4191658112
 10
990053.0153511859
 20
88184.54597925831
 10
989931.3950954695
 20
88184.54597925831
  0
LINE
  5
13A
330
17
100
AcDbEntity
  8
BAR-GAL
 62
7
370
13
100
AcDbLine
 10
990053.0153511859
 20
88130.4191658112
 30
0.0
 11
989925.8795309016
 21
88130.84653376028
 31
0.0
  0
LINE
  5
13B
330
17
100
AcDbEntity
  8
BAR-GAL
 62
7
370
13
100
AcDbLine
 10
990052.6335994195
 20
88014.77912208078
 30
0.0
 11
990073.8347359698
 21
88014.70913273224
 31
0.0
  0
LINE
  5
13C
330
17
100
AcDbEntity
  8
BAR-GAL
 62
7
370
13
100
AcDbLine
 10
990053.0153511859
 20
88130.4191658112
 30
0.0
 11
990053.0153511859
 21
88014.77786183903
 31
0.0
  0
LINE
  5
13D
330
17
100
AcDbEntity
  8
BAR-GAL
 62
7
370
13
100
AcDbLine
 10
990083.015351186
 20
88130.41916581117
 30
0.0
 11
990083.0153511858
 21
88014.777861839
 31
0.0
  0
LINE
  5
13E
330
17
100
AcDbEntity
  8
BAR-GAL
 62
7
370
13
100
AcDbLine
 10
990113.0153511859
 20
88130.41916581112
 30
0.0
 11
990113.0153511857
 21
88014.77786183896
 31
0.0
  0
LINE
  5
13F
330
17
100
AcDbEntity
  8
BAR-GAL
 62
7
370
13
100
AcDbLine
 10
990143.015351186
 20
88130.41916581111
 30
0.0
 11
990143.0153511858
 21
88014.77786183896
 31
0.0
  0
LINE
  5
140
330
17
100
AcDbEntity
  8
BAR-GAL
 62
7
370
13
100
AcDbLine
 10
990173.0153511859
 20
88130.41916581108
 30
0.0
 11
990173.0153511858
 21
88014.77786183891
 31
0.0
  0
LINE
  5
141
330
17
100
AcDbEntity
  8
BAR-GAL
 62
7
370
13
100
AcDbLine
 10
990203.0153511859
 20
88130.41916581106
 30
0.0
 11
990203.0153511859
 21
88014.77786183887
 31
0.0
  0
LINE
  5
142
330
17
100
AcDbEntity
  8
BAR-GAL
 62
7
370
13
100
AcDbLine
 10
990233.015351186
 20
88130.41916581102
 30
0.0
 11
990233.0153511858
 21
88014.77786183885
 31
0.0
  0
LINE
  5
143
330
17
100
AcDbEntity
  8
BAR-GAL
 62
7
370
13
100
AcDbLine
 10
990263.0153511859
 20
88130.41916581099
 30
0.0
 11
990263.0153511857
 21
88014.77786183883
 31
0.0
  0
LINE
  5
144
330
17
100
AcDbEntity
  8
BAR-GAL
 62
7
370
13
100
AcDbLine
 10
990293.015351186
 20
88130.41916581096
 30
0.0
 11
990293.0153511858
 21
88014.7778618388
 31
0.0
  0
LINE
  5
145
330
17
100
AcDbEntity
  8
BAR-GAL
 62
7
370
13
100
AcDbLine
 10
990323.0153511859
 20
88130.41916581093
 30
0.0
 11
990323.0153511858
 21
88014.77786183877
 31
0.0
  0
LINE
  5
146
330
17
100
AcDbEntity
  8
BAR-GAL
 62
7
370
13
100
AcDbLine
 10
990353.0153511859
 20
88130.4191658109
 30
0.0
 11
990353.0153511859
 21
88014.77786183872
 31
0.0
  0
LINE
  5
147
330
17
100
AcDbEntity
  8
BAR-GAL
 62
7
370
13
100
AcDbLine
 10
990383.015351186
 20
88130.41916581088
 30
0.0
 11
990383.0153511858
 21
88014.77786183871
 31
0.0
  0
LINE
  5
148
330
17
100
AcDbEntity
  8
BAR-GAL
 62
7
370
13
100
AcDbLine
 10
990053.0153511859
 20
88130.4191658112
 30
0.0
 11
989929.9938966132
 21
88130.4191658112
 31
0.0
  0
LINE
  5
149
330
17
100
AcDbEntity
  8
BAR-GAL
 62
7
370
13
100
AcDbLine
 10
990053.0153511859
 20
88160.4191658112
 30
0.0
 11
989929.9938966132
 21
88160.4191658112
 31
0.0
  0
LWPOLYLINE
  5
14A
330
17
100
AcDbEntity
  8
BAR-GAL
 62
7
370
13
100
AcDbPolyline
 90
4
 70
0
 10
989992.2052233277
 20
88184.54597925831
 10
989992.2052233277
 20
88066.88328251691
 10
990431.8847342826
 20
88066.88328251691
 10
990431.8847342826
 20
88064.25680132495
  0
LINE
  5
14B
330
17
100
AcDbEntity
  8
BAR-GAL
 62
7
370
13
100
AcDbLine
 10
989929.9938966132
 20
88160.4191658112
 30
0.0
 11
989992.2052233277
 21
88184.54597925831
 31
0.0
  0
LINE
  5
14C
330
17
100
AcDbEntity
  8
BAR-GAL
 62
7
370
13
100
AcDbLine
 10
989992.2052233277
 20
88184.54597925831
 30
0.0
 11
990053.0153511859
 21
88160.4191658112
 31
0.0
  0
LWPOLYLINE
  5
14D
330
17
100
AcDbEntity
  8
BAR-GAL
 62
1
370
13
100
AcDbPolyline
 90
12
 70
1
 10
989929.9938966134
 20
88464.58716796603
 10
989929.9938966134
 20
88184.54597925831
 10
990053.0153511859
 20
88184.54597925831
 10
990053.0153511859
 20
88130.4191658112
 10
990431.8847342829
 20
88129.14559373009
 10
990431.8847342829
 20
88015.98589004976
 10
990679.4974649111
 20
88016.67596320622
 10
990679.4974649111
 20
88276.80769826673
 10
990904.9938966132
 20
88276.80769826673
 10
990904.9938966132
 20
88544.58716796603
 10
990644.9938966132
 20
88544.58716796605
 10
990644.9938966132
 20
88464.58716796603
  0
TEXT
  5
14E
330
17
100
AcDbEntity
  8
0
100
AcDbText
 10
990741.25619375
 20
88200.43573926533
 30
0.0
 40
59.201694284898
  1
מאגר 
100
AcDbText
  0
TEXT
  5
14F
330
17
100
AcDbEntity
  8
0
100
AcDbText
 10
990743.6857285198
 20
88130.95171249277
 30
0.0
 40
59.201694284898
  1
 מים
100
AcDbText
  0
LWPOLYLINE
  5
150
330
17
100
AcDbEntity
  8
BAR-GAL
 62
3
370
13
100
AcDbPolyline
 90
19
 70
1
 10
989727.8498974007
 20
88746.43754166584
 10
989727.8498974005
 20
87816.86911615482
 10
989747.8498974006
 20
87816.86911615482
 10
990047.4627360702
 20
87816.86911615482
 10
990217.8498974006
 20
87816.86911615482
 10
990217.8498974002
 20
88015.3893952932
 10
989929.9938966132
 20
88014.58716796603
 10
989929.9938966134
 20
88464.58716796603
 10
990644.9938966132
 20
88464.58716796603
 10
990644.9938966132
 20
88544.58716796605
 10
990904.9938966132
 20
88544.58716796603
 10
990904.9938966132
 20
88276.80769826673
 10
990974.0369759894
 20
88276.80769826673
 10
990973.5369759894
 20
88276.48930524648
 10
990974.5369759894
 20
88277.12609128698
 10
990974.0369759894
 20
88276.80769826673
 10
991127.4055164771
 20
88276.11565389002
 10
991127.4053452295
 20
88276.1709122262
 10
991125.947973857
 20
88746.43754166584
  0
LWPOLYLINE
  5
151
330
17
100
AcDbEntity
  8
BAR-GAL
 62
3
370
13
100
AcDbPolyline
 90
10
 70
1
 10
991127.4055164771
 20
88092.11211733786
 10
991125.5571286837
 20
88092.167375674
 10
991125.5571286837
 20
88092.13974650594
 10
991060.277113692
 20
88092.13974650594
 10
990679.4974649111
 20
88092.13974650594
 10
990679.4974649111
 20
88016.67596320622
 10
990679.4974649108
 20
87882.000353123
 10
990960.3065369289
 20
87882.00035312297
 10
990960.3065369289
 20
87743.18113477239
 10
991129.0570976504
 20
87743.1811347753
  0
DIMENSION
  5
152
102
{ACAD_XDICTIONARY
360
153
102
}
330
17
100
AcDbEntity
  8
VP
370
13
100
AcDbDimension
280
0
  2
*D18
  3
ISO-25
 10
990975.0369759894
 20
88041.66189117584
 30
0.0
 11
990827.2672204503
 21
88066.97908080749
 31
0.0
 70
32
 71
5
 42
295.5395110782701
 73
0
 74
0
 75
0
100
AcDbAlignedDimension
 13
990679.4974649111
 23
88092.13974650594
 33
0.0
 14
990975.0369759894
 24
88090.30164525626
 34
0.0
 50
0.0
100
AcDbRotatedDimension
  0
DIMENSION
  5
160
102
{ACAD_XDICTIONARY
360
161
102
}
330
17
100
AcDbEntity
  8
VP
370
13
100
AcDbDimension
280
0
  2
*D19
  3
ISO-25
 10
990635.2202925665
 20
88092.13974650599
 30
0.0
 11
990609.9031029347
 21
88184.47372238606
 31
0.0
 70
32
 71
5
 42
184.6679517607845
 73
0
 74
0
 75
0
100
AcDbAlignedDimension
 13
990679.4974649111
 23
88276.80769826673
 33
0.0
 14
990679.4974649111
 24
88092.13974650594
 34
0.0
 50
90.0
100
AcDbRotatedDimension
  0
TEXT
  5
16E
330
17
100
AcDbEntity
  8
0
100
AcDbText
 10
990185.7863609778
 20
88258.03444187302
 30
0.0
 40
59.201694284898
  1
21 דירה
100
AcDbText
  0
ENDSEC
  0
SECTION
  2
OBJECTS
  0
DICTIONARY
  5
A
330
0
100
AcDbDictionary
281
1
  3
ACAD_COLOR
350
B
  3
ACAD_GROUP
350
C
  3
ACAD_LAYOUT
350
D
  3
ACAD_MATERIAL
350
E
  3
ACAD_MLEADERSTYLE
350
F
  3
ACAD_MLINESTYLE
350
10
  3
ACAD_PLOTSETTINGS
350
11
  3
ACAD_PLOTSTYLENAME
350
12
  3
ACAD_SCALELIST
350
14
  3
ACAD_TABLESTYLE
350
15
  3
ACAD_VISUALSTYLE
350
16
  3
EZDXF_META
350
2D
  0
DICTIONARY
  5
B
330
A
100
AcDbDictionary
281
1
  0
DICTIONARY
  5
C
330
A
100
AcDbDictionary
281
1
  0
DICTIONARY
  5
D
330
A
100
AcDbDictionary
281
1
  3
Model
350
1A
  3
Layout1
350
1E
  0
DICTIONARY
  5
E
330
A
100
AcDbDictionary
281
1
  3
ByBlock
350
1F
  3
ByLayer
350
20
  3
Global
350
21
  0
DICTIONARY
  5
F
330
A
100
AcDbDictionary
281
1
  3
Standard
350
2C
  0
DICTIONARY
  5
10
330
A
100
AcDbDictionary
281
1
  3
Standard
350
22
  0
DICTIONARY
  5
11
330
A
100
AcDbDictionary
281
1
  0
ACDBDICTIONARYWDFLT
  5
12
330
A
100
AcDbDictionary
281
1
  3
Normal
350
13
100
AcDbDictionaryWithDefault
340
13
  0
ACDBPLACEHOLDER
  5
13
330
12
  0
DICTIONARY
  5
14
330
A
100
AcDbDictionary
281
1
  0
DICTIONARY
  5
15
330
A
100
AcDbDictionary
281
1
  0
DICTIONARY
  5
16
330
A
100
AcDbDictionary
281
1
  0
LAYOUT
  5
1A
330
D
100
AcDbPlotSettings
  1

  4
A3
  6

 40
7.5
 41
20.0
 42
7.5
 43
20.0
 44
420.0
 45
297.0
 46
0.0
 47
0.0
 48
0.0
 49
0.0
140
0.0
141
0.0
142
1.0
143
1.0
 70
1024
 72
1
 73
0
 74
5
  7

 75
16
 76
0
 77
2
 78
300
147
1.0
148
0.0
149
0.0
100
AcDbLayout
  1
Model
 70
1
 71
0
 10
0.0
 20
0.0
 11
420.0
 21
297.0
 12
0.0
 22
0.0
 32
0.0
 14
1e+20
 24
1e+20
 34
1e+20
 15
-1e+20
 25
-1e+20
 35
-1e+20
146
0.0
 13
0.0
 23
0.0
 33
0.0
 16
1.0
 26
0.0
 36
0.0
 17
0.0
 27
1.0
 37
0.0
 76
1
330
17
  0
LAYOUT
  5
1E
330
D
100
AcDbPlotSettings
  1

  4
A3
  6

 40
7.5
 41
20.0
 42
7.5
 43
20.0
 44
420.0
 45
297.0
 46
0.0
 47
0.0
 48
0.0
 49
0.0
140
0.0
141
0.0
142
1.0
143
1.0
 70
0
 72
1
 73
0
 74
5
  7

 75
16
 76
0
 77
2
 78
300
147
1.0
148
0.0
149
0.0
100
AcDbLayout
  1
Layout1
 70
1
 71
1
 10
0.0
 20
0.0
 11
420.0
 21
297.0
 12
0.0
 22
0.0
 32
0.0
 14
1e+20
 24
1e+20
 34
1e+20
 15
-1e+20
 25
-1e+20
 35
-1e+20
146
0.0
 13
0.0
 23
0.0
 33
0.0
 16
1.0
 26
0.0
 36
0.0
 17
0.0
 27
1.0
 37
0.0
 76
1
330
1B
  0
MATERIAL
  5
1F
102
{ACAD_REACTORS
330
E
102
}
330
E
100
AcDbMaterial
  1
ByBlock
  2

 70
0
 40
1.0
 71
1
 41
1.0
 91
-1023410177
 42
1.0
 72
1
  3

 73
1
 74
1
 75
1
 44
0.5
 73
0
 45
1.0
 46
1.0
 77
1
  4

 78
1
 79
1
170
1
 48
1.0
171
1
  6

172
1
173
1
174
1
140
1.0
141
1.0
175
1
  7

176
1
177
1
178
1
143
1.0
179
1
  8

270
1
271
1
272
1
145
1.0
146
1.0
273
1
  9

274
1
275
1
276
1
 42
1.0
 72
1
  3

 73
1
 74
1
 75
1
 94
63
  0
MATERIAL
  5
20
102
{ACAD_REACTORS
330
E
102
}
330
E
100
AcDbMaterial
  1
ByLayer
  2

 70
0
 40
1.0
 71
1
 41
1.0
 91
-1023410177
 42
1.0
 72
1
  3

 73
1
 74
1
 75
1
 44
0.5
 73
0
 45
1.0
 46
1.0
 77
1
  4

 78
1
 79
1
170
1
 48
1.0
171
1
  6

172
1
173
1
174
1
140
1.0
141
1.0
175
1
  7

176
1
177
1
178
1
143
1.0
179
1
  8

270
1
271
1
272
1
145
1.0
146
1.0
273
1
  9

274
1
275
1
276
1
 42
1.0
 72
1
  3

 73
1
 74
1
 75
1
 94
63
  0
MATERIAL
  5
21
102
{ACAD_REACTORS
330
E
102
}
330
E
100
AcDbMaterial
  1
Global
  2

 70
0
 40
1.0
 71
1
 41
1.0
 91
-1023410177
 42
1.0
 72
1
  3

 73
1
 74
1
 75
1
 44
0.5
 73
0
 45
1.0
 46
1.0
 77
1
  4

 78
1
 79
1
170
1
 48
1.0
171
1
  6

172
1
173
1
174
1
140
1.0
141
1.0
175
1
  7

176
1
177
1
178
1
143
1.0
179
1
  8

270
1
271
1
272
1
145
1.0
146
1.0
273
1
  9

274
1
275
1
276
1
 42
1.0
 72
1
  3

 73
1
 74
1
 75
1
 94
63
  0
MLINESTYLE
  5
22
102
{ACAD_REACTORS
330
10
102
}
330
10
100
AcDbMlineStyle
  2
Standard
 70
0
  3

 62
256
 51
90.0
 52
90.0
 71
2
 49
0.5
 62
256
  6
BYLAYER
 49
-0.5
 62
256
  6
BYLAYER
  0
MLEADERSTYLE
  5
2C
102
{ACAD_REACTORS
330
F
102
}
330
F
100
AcDbMLeaderStyle
179
2
170
2
171
1
172
0
 90
2
 40
0.0
 41
0.0
173
1
 91
-1056964608
 92
-2
290
1
 42
2.0
291
1
 43
8.0
  3
Standard
 44
4.0
300

342
29
174
1
175
1
176
0
178
1
 93
-1056964608
 45
4.0
292
0
297
0
 46
4.0
 94
-1056964608
 47
1.0
 49
1.0
140
1.0
294
1
141
0.0
177
0
142
1.0
295
0
296
0
143
3.75
271
0
272
9
273
9
  0
DICTIONARY
  5
2D
330
A
100
AcDbDictionary
280
1
281
1
  3
CREATED_BY_EZDXF
350
2E
  3
WRITTEN_BY_EZDXF
350
171
  0
DICTIONARYVAR
  5
2E
330
2D
100
DictionaryVariables
280
0
  1
1.4.3 @ 2026-05-15T06:57:54.220902+00:00
  0
DICTIONARY
  5
49
330
48
100
AcDbDictionary
280
1
281
1
  0
DICTIONARY
  5
CC
330
CB
100
AcDbDictionary
280
1
281
1
  0
DICTIONARY
  5
DA
330
D9
100
AcDbDictionary
280
1
281
1
  0
DICTIONARY
  5
E8
330
E7
100
AcDbDictionary
280
1
281
1
  0
DICTIONARY
  5
11D
330
11C
100
AcDbDictionary
280
1
281
1
  0
DICTIONARY
  5
12B
330
12A
100
AcDbDictionary
280
1
281
1
  0
DICTIONARY
  5
153
330
152
100
AcDbDictionary
280
1
281
1
  0
DICTIONARY
  5
161
330
160
100
AcDbDictionary
280
1
281
1
  0
DICTIONARYVAR
  5
171
330
2D
100
DictionaryVariables
280
0
  1
1.4.3 @ 2026-05-15T06:57:54.239715+00:00
  0
ENDSEC
  0
EOF
