  0
SECTION
  2
HEADER
  9
$ACADVER
  1
AC1032
  9
$ACADMAINTVER
 90
4
  9
$DWGCODEPAGE
  3
ANSI_1252
  9
$LASTSAVEDBY
  1
ezdxf
  9
$REQUIREDVERSIONS
160
0
  9
$INSBASE
 10
0.0
 20
0.0
 30
0.0
  9
$EXTMIN
 10
1e+20
 20
1e+20
 30
1e+20
  9
$EXTMAX
 10
-1e+20
 20
-1e+20
 30
-1e+20
  9
$LIMMIN
 10
0.0
 20
0.0
  9
$LIMMAX
 10
420.0
 20
297.0
  9
$ORTHOMODE
 70
0
  9
$REGENMODE
 70
1
  9
$FILLMODE
 70
1
  9
$QTEXTMODE
 70
0
  9
$MIRRTEXT
 70
1
  9
$LTSCALE
 40
1.0
  9
$ATTMODE
 70
1
  9
$TEXTSIZE
 40
2.5
  9
$TRACEWID
 40
1.0
  9
$TEXTSTYLE
  7
Standard
  9
$CLAYER
  8
0
  9
$CELTYPE
  6
ByLayer
  9
$CECOLOR
 62
256
  9
$CELTSCALE
 40
1.0
  9
$DISPSILH
 70
0
  9
$DIMSCALE
 40
1.0
  9
$DIMASZ
 40
2.5
  9
$DIMEXO
 40
0.625
  9
$DIMDLI
 40
3.75
  9
$DIMRND
 40
0.0
  9
$DIMDLE
 40
0.0
  9
$DIMEXE
 40
1.25
  9
$DIMTP
 40
0.0
  9
$DIMTM
 40
0.0
  9
$DIMTXT
 40
2.5
  9
$DIMCEN
 40
2.5
  9
$DIMTSZ
 40
0.0
  9
$DIMTOL
 70
0
  9
$DIMLIM
 70
0
  9
$DIMTIH
 70
0
  9
$DIMTOH
 70
0
  9
$DIMSE1
 70
0
  9
$DIMSE2
 70
0
  9
$DIMTAD
 70
1
  9
$DIMZIN
 70
8
  9
$DIMBLK
  1

  9
$DIMASO
 70
1
  9
$DIMSHO
 70
1
  9
$DIMPOST
  1

  9
$DIMAPOST
  1

  9
$DIMALT
 70
0
  9
$DIMALTD
 70
3
  9
$DIMALTF
 40
0.03937007874
  9
$DIMLFAC
 40
1.0
  9
$DIMTOFL
 70
1
  9
$DIMTVP
 40
0.0
  9
$DIMTIX
 70
0
  9
$DIMSOXD
 70
0
  9
$DIMSAH
 70
0
  9
$DIMBLK1
  1

  9
$DIMBLK2
  1

  9
$DIMSTYLE
  2
ISO-25
  9
$DIMCLRD
 70
0
  9
$DIMCLRE
 70
0
  9
$DIMCLRT
 70
0
  9
$DIMTFAC
 40
1.0
  9
$DIMGAP
 40
0.625
  9
$DIMJUST
 70
0
  9
$DIMSD1
 70
0
  9
$DIMSD2
 70
0
  9
$DIMTOLJ
 70
0
  9
$DIMTZIN
 70
8
  9
$DIMALTZ
 70
0
  9
$DIMALTTZ
 70
0
  9
$DIMUPT
 70
0
  9
$DIMDEC
 70
2
  9
$DIMTDEC
 70
2
  9
$DIMALTU
 70
2
  9
$DIMALTTD
 70
3
  9
$DIMTXSTY
  7
Standard
  9
$DIMAUNIT
 70
0
  9
$DIMADEC
 70
0
  9
$DIMALTRND
 40
0.0
  9
$DIMAZIN
 70
0
  9
$DIMDSEP
 70
44
  9
$DIMATFIT
 70
3
  9
$DIMFRAC
 70
0
  9
$DIMLDRBLK
  1

  9
$DIMLUNIT
 70
2
  9
$DIMLWD
 70
-2
  9
$DIMLWE
 70
-2
  9
$DIMTMOVE
 70
0
  9
$DIMFXL
 40
1.0
  9
$DIMFXLON
 70
0
  9
$DIMJOGANG
 40
0.785398163397
  9
$DIMTFILL
 70
0
  9
$DIMTFILLCLR
 70
0
  9
$DIMARCSYM
 70
0
  9
$DIMLTYPE
  6

  9
$DIMLTEX1
  6

  9
$DIMLTEX2
  6

  9
$DIMTXTDIRECTION
 70
0
  9
$LUNITS
 70
2
  9
$LUPREC
 70
4
  9
$SKETCHINC
 40
1.0
  9
$FILLETRAD
 40
10.0
  9
$AUNITS
 70
0
  9
$AUPREC
 70
2
  9
$MENU
  1
.
  9
$ELEVATION
 40
0.0
  9
$PELEVATION
 40
0.0
  9
$THICKNESS
 40
0.0
  9
$LIMCHECK
 70
0
  9
$CHAMFERA
 40
0.0
  9
$CHAMFERB
 40
0.0
  9
$CHAMFERC
 40
0.0
  9
$CHAMFERD
 40
0.0
  9
$SKPOLY
 70
0
  9
$TDCREATE
 40
2461176.290208333
  9
$TDUCREATE
 40
2458532.153996898
  9
$TDUPDATE
 40
2461176.290208333
  9
$TDUUPDATE
 40
2458532.1544311
  9
$TDINDWG
 40
0.0
  9
$TDUSRTIMER
 40
0.0
  9
$USRTIMER
 70
1
  9
$ANGBASE
 50
0.0
  9
$ANGDIR
 70
0
  9
$PDMODE
 70
0
  9
$PDSIZE
 40
0.0
  9
$PLINEWID
 40
0.0
  9
$SPLFRAME
 70
0
  9
$SPLINETYPE
 70
6
  9
$SPLINESEGS
 70
8
  9
$HANDSEED
  5
145
  9
$SURFTAB1
 70
6
  9
$SURFTAB2
 70
6
  9
$SURFTYPE
 70
6
  9
$SURFU
 70
6
  9
$SURFV
 70
6
  9
$UCSBASE
  2

  9
$UCSNAME
  2

  9
$UCSORG
 10
0.0
 20
0.0
 30
0.0
  9
$UCSXDIR
 10
1.0
 20
0.0
 30
0.0
  9
$UCSYDIR
 10
0.0
 20
1.0
 30
0.0
  9
$UCSORTHOREF
  2

  9
$UCSORTHOVIEW
 70
0
  9
$UCSORGTOP
 10
0.0
 20
0.0
 30
0.0
  9
$UCSORGBOTTOM
 10
0.0
 20
0.0
 30
0.0
  9
$UCSORGLEFT
 10
0.0
 20
0.0
 30
0.0
  9
$UCSORGRIGHT
 10
0.0
 20
0.0
 30
0.0
  9
$UCSORGFRONT
 10
0.0
 20
0.0
 30
0.0
  9
$UCSORGBACK
 10
0.0
 20
0.0
 30
0.0
  9
$PUCSBASE
  2

  9
$PUCSNAME
  2

  9
$PUCSORG
 10
0.0
 20
0.0
 30
0.0
  9
$PUCSXDIR
 10
1.0
 20
0.0
 30
0.0
  9
$PUCSYDIR
 10
0.0
 20
1.0
 30
0.0
  9
$PUCSORTHOREF
  2

  9
$PUCSORTHOVIEW
 70
0
  9
$PUCSORGTOP
 10
0.0
 20
0.0
 30
0.0
  9
$PUCSORGBOTTOM
 10
0.0
 20
0.0
 30
0.0
  9
$PUCSORGLEFT
 10
0.0
 20
0.0
 30
0.0
  9
$PUCSORGRIGHT
 10
0.0
 20
0.0
 30
0.0
  9
$PUCSORGFRONT
 10
0.0
 20
0.0
 30
0.0
  9
$PUCSORGBACK
 10
0.0
 20
0.0
 30
0.0
  9
$USERI1
 70
0
  9
$USERI2
 70
0
  9
$USERI3
 70
0
  9
$USERI4
 70
0
  9
$USERI5
 70
0
  9
$USERR1
 40
0.0
  9
$USERR2
 40
0.0
  9
$USERR3
 40
0.0
  9
$USERR4
 40
0.0
  9
$USERR5
 40
0.0
  9
$WORLDVIEW
 70
1
  9
$SHADEDGE
 70
3
  9
$SHADEDIF
 70
70
  9
$TILEMODE
 70
1
  9
$MAXACTVP
 70
64
  9
$PINSBASE
 10
0.0
 20
0.0
 30
0.0
  9
$PLIMCHECK
 70
0
  9
$PEXTMIN
 10
1e+20
 20
1e+20
 30
1e+20
  9
$PEXTMAX
 10
-1e+20
 20
-1e+20
 30
-1e+20
  9
$PLIMMIN
 10
0.0
 20
0.0
  9
$PLIMMAX
 10
420.0
 20
297.0
  9
$UNITMODE
 70
0
  9
$VISRETAIN
 70
1
  9
$PLINEGEN
 70
0
  9
$PSLTSCALE
 70
1
  9
$TREEDEPTH
 70
3020
  9
$CMLSTYLE
  2
Standard
  9
$CMLJUST
 70
0
  9
$CMLSCALE
 40
20.0
  9
$PROXYGRAPHICS
 70
1
  9
$MEASUREMENT
 70
1
  9
$CELWEIGHT
370
-1
  9
$ENDCAPS
280
0
  9
$JOINSTYLE
280
0
  9
$LWDISPLAY
290
0
  9
$INSUNITS
 70
6
  9
$HYPERLINKBASE
  1

  9
$STYLESHEET
  1

  9
$XEDIT
290
1
  9
$CEPSNTYPE
380
0
  9
$PSTYLEMODE
290
1
  9
$FINGERPRINTGUID
  2
{D640E400-FB4F-4AA8-8BCF-EF778F29E077}
  9
$VERSIONGUID
  2
{DEDA7AF0-9261-4327-944B-7778104C9088}
  9
$EXTNAMES
290
1
  9
$PSVPSCALE
 40
0.0
  9
$OLESTARTUP
290
0
  9
$SORTENTS
280
127
  9
$INDEXCTL
280
0
  9
$HIDETEXT
280
1
  9
$XCLIPFRAME
280
1
  9
$HALOGAP
280
0
  9
$OBSCOLOR
 70
257
  9
$OBSLTYPE
280
0
  9
$INTERSECTIONDISPLAY
280
0
  9
$INTERSECTIONCOLOR
 70
257
  9
$DIMASSOC
280
2
  9
$PROJECTNAME
  1

  9
$CAMERADISPLAY
290
0
  9
$LENSLENGTH
 40
50.0
  9
$CAMERAHEIGHT
 40
0.0
  9
$STEPSPERSEC
 40
24.0
  9
$STEPSIZE
 40
100.0
  9
$3DDWFPREC
 40
2.0
  9
$PSOLWIDTH
 40
0.005
  9
$PSOLHEIGHT
 40
0.08
  9
$LOFTANG1
 40
1.570796326795
  9
$LOFTANG2
 40
1.570796326795
  9
$LOFTMAG1
 40
0.0
  9
$LOFTMAG2
 40
0.0
  9
$LOFTPARAM
 70
7
  9
$LOFTNORMALS
280
1
  9
$LATITUDE
 40
37.795
  9
$LONGITUDE
 40
-122.394
  9
$NORTHDIRECTION
 40
0.0
  9
$TIMEZONE
 70
-8000
  9
$LIGHTGLYPHDISPLAY
280
1
  9
$TILEMODELIGHTSYNCH
280
1
  9
$CMATERIAL
347
20
  9
$SOLIDHIST
280
0
  9
$SHOWHIST
280
1
  9
$DWFFRAME
280
2
  9
$DGNFRAME
280
2
  9
$REALWORLDSCALE
290
1
  9
$INTERFERECOLOR
 62
256
  9
$CSHADOW
280
0
  9
$SHADOWPLANELOCATION
 40
0.0
  0
ENDSEC
  0
SECTION
  2
CLASSES
  0
CLASS
  1
ACDBDICTIONARYWDFLT
  2
AcDbDictionaryWithDefault
  3
ObjectDBX Classes
 90
0
 91
0
280
0
281
0
  0
CLASS
  1
SUN
  2
AcDbSun
  3
SCENEOE
 90
1153
 91
0
280
0
281
0
  0
CLASS
  1
VISUALSTYLE
  2
AcDbVisualStyle
  3
ObjectDBX Classes
 90
4095
 91
0
280
0
281
0
  0
CLASS
  1
MATERIAL
  2
AcDbMaterial
  3
ObjectDBX Classes
 90
1153
 91
0
280
0
281
0
  0
CLASS
  1
SCALE
  2
AcDbScale
  3
ObjectDBX Classes
 90
1153
 91
0
280
0
281
0
  0
CLASS
  1
TABLESTYLE
  2
AcDbTableStyle
  3
ObjectDBX Classes
 90
4095
 91
0
280
0
281
0
  0
CLASS
  1
MLEADERSTYLE
  2
AcDbMLeaderStyle
  3
ACDB_MLEADERSTYLE_CLASS
 90
4095
 91
0
280
0
281
0
  0
CLASS
  1
DICTIONARYVAR
  2
AcDbDictionaryVar
  3
ObjectDBX Classes
 90
0
 91
0
280
0
281
0
  0
CLASS
  1
CELLSTYLEMAP
  2
AcDbCellStyleMap
  3
ObjectDBX Classes
 90
1152
 91
0
280
0
281
0
  0
CLASS
  1
MENTALRAYRENDERSETTINGS
  2
AcDbMentalRayRenderSettings
  3
SCENEOE
 90
1024
 91
0
280
0
281
0
  0
CLASS
  1
ACDBDETAILVIEWSTYLE
  2
AcDbDetailViewStyle
  3
ObjectDBX Classes
 90
1025
 91
0
280
0
281
0
  0
CLASS
  1
ACDBSECTIONVIEWSTYLE
  2
AcDbSectionViewStyle
  3
ObjectDBX Classes
 90
1025
 91
0
280
0
281
0
  0
CLASS
  1
RASTERVARIABLES
  2
AcDbRasterVariables
  3
ISM
 90
0
 91
0
280
0
281
0
  0
CLASS
  1
LAYOUT
  2
AcDbLayout
  3
ObjectDBX Classes
 90
0
 91
0
280
0
281
0
  0
CLASS
  1
ACDBPLACEHOLDER
  2
AcDbPlaceHolder
  3
ObjectDBX Classes
 90
0
 91
0
280
0
281
0
  0
ENDSEC
  0
SECTION
  2
TABLES
  0
TABLE
  2
VPORT
  5
8
330
0
100
AcDbSymbolTable
 70
1
  0
VPORT
  5
23
330
8
100
AcDbSymbolTableRecord
100
AcDbViewportTableRecord
  2
*Active
 70
0
 10
0.0
 20
0.0
 11
1.0
 21
1.0
 12
0.0
 22
0.0
 13
0.0
 23
0.0
 14
0.5
 24
0.5
 15
0.5
 25
0.5
 16
0.0
 26
0.0
 36
1.0
 17
0.0
 27
0.0
 37
0.0
 40
1000.0
 41
1.34
 42
50.0
 43
0.0
 44
0.0
 50
0.0
 51
0.0
 71
0
 72
1000
 73
1
 74
3
 75
0
 76
0
 77
0
 78
0
281
0
 65
0
146
0.0
  0
ENDTAB
  0
TABLE
  2
LTYPE
  5
2
330
0
100
AcDbSymbolTable
 70
3
  0
LTYPE
  5
24
330
2
100
AcDbSymbolTableRecord
100
AcDbLinetypeTableRecord
  2
ByBlock
 70
0
  3

 72
65
 73
0
 40
0.0
  0
LTYPE
  5
25
330
2
100
AcDbSymbolTableRecord
100
AcDbLinetypeTableRecord
  2
ByLayer
 70
0
  3

 72
65
 73
0
 40
0.0
  0
LTYPE
  5
26
330
2
100
AcDbSymbolTableRecord
100
AcDbLinetypeTableRecord
  2
Continuous
 70
0
  3

 72
65
 73
0
 40
0.0
  0
ENDTAB
  0
TABLE
  2
LAYER
  5
1
330
0
100
AcDbSymbolTable
 70
7
  0
LAYER
  5
27
330
1
100
AcDbSymbolTableRecord
100
AcDbLayerTableRecord
  2
0
 70
0
 62
7
  6
Continuous
370
-3
390
13
347
21
  0
LAYER
  5
28
330
1
100
AcDbSymbolTableRecord
100
AcDbLayerTableRecord
  2
Defpoints
 70
0
 62
7
  6
Continuous
290
0
370
-3
390
13
347
21
  0
LAYER
  5
2F
330
1
100
AcDbSymbolTableRecord
100
AcDbLayerTableRecord
  2
MIKRA
 70
0
 62
7
  6
Continuous
370
-3
390
13
347
21
  0
LAYER
  5
30
330
1
100
AcDbSymbolTableRecord
100
AcDbLayerTableRecord
  2
kir
 70
0
 62
7
  6
Continuous
370
-3
390
13
347
21
  0
LAYER
  5
31
330
1
100
AcDbSymbolTableRecord
100
AcDbLayerTableRecord
  2
8
 70
0
 62
7
  6
Continuous
370
-3
390
13
347
21
  0
LAYER
  5
32
330
1
100
AcDbSymbolTableRecord
100
AcDbLayerTableRecord
  2
BAR-GAL
 70
0
 62
7
  6
Continuous
370
-3
390
13
347
21
  0
LAYER
  5
33
330
1
100
AcDbSymbolTableRecord
100
AcDbLayerTableRecord
  2
VP
 70
0
 62
-30
  6
Continuous
370
-3
390
13
347
21
  0
ENDTAB
  0
TABLE
  2
STYLE
  5
5
330
0
100
AcDbSymbolTable
 70
1
  0
STYLE
  5
29
330
5
100
AcDbSymbolTableRecord
100
AcDbTextStyleTableRecord
  2
Standard
 70
0
 40
0.0
 41
1.0
 50
0.0
 71
0
 42
2.5
  3
txt
  4

  0
ENDTAB
  0
TABLE
  2
VIEW
  5
7
330
0
100
AcDbSymbolTable
 70
0
  0
ENDTAB
  0
TABLE
  2
UCS
  5
6
330
0
100
AcDbSymbolTable
 70
0
  0
ENDTAB
  0
TABLE
  2
APPID
  5
3
330
0
100
AcDbSymbolTable
 70
3
  0
APPID
  5
2A
330
3
100
AcDbSymbolTableRecord
100
AcDbRegAppTableRecord
  2
ACAD
 70
0
  0
APPID
  5
142
330
3
100
AcDbSymbolTableRecord
100
AcDbRegAppTableRecord
  2
HATCHBACKGROUNDCOLOR
 70
0
  0
APPID
  5
143
330
3
100
AcDbSymbolTableRecord
100
AcDbRegAppTableRecord
  2
EZDXF
 70
0
  0
ENDTAB
  0
TABLE
  2
DIMSTYLE
  5
4
330
0
100
AcDbSymbolTable
 70
2
100
AcDbDimStyleTable
  0
DIMSTYLE
105
2B
330
4
100
AcDbSymbolTableRecord
100
AcDbDimStyleTableRecord
  2
Standard
 70
0
 40
1.0
 41
2.5
 42
0.625
 43
3.75
 44
1.25
 45
0.0
 46
0.0
 47
0.0
 48
0.0
 49
2.5
140
2.5
141
2.5
142
0.0
143
0.03937007874
144
1.0
145
0.0
146
1.0
147
0.625
148
0.0
 69
0
 70
0
 71
0
 72
0
 73
0
 74
0
 75
0
 76
0
 77
1
 78
8
 79
3
170
0
171
3
172
1
173
0
174
0
175
0
176
0
177
0
178
0
179
2
271
2
272
2
273
2
274
3
275
0
276
0
277
2
278
44
279
0
280
0
281
0
282
0
283
0
284
8
285
0
286
0
288
0
289
3
290
0
371
-2
372
-2
  0
DIMSTYLE
105
27
330
4
100
AcDbSymbolTableRecord
100
AcDbDimStyleTableRecord
  2
ISO-25
 70
0
 40
1.0
 41
30.0
 42
0.625
 43
3.75
 44
1.25
 45
0.0
 46
0.0
 47
0.0
 48
0.0
 49
2.5
140
30.0
141
2.5
142
0.0
143
0.03937007874016
144
1.0
145
0.0
146
1.0
147
10.0
148
0.0
 69
0
 70
0
 71
0
 72
0
 73
0
 74
0
 75
0
 76
0
 77
1
 78
8
 79
3
170
0
171
3
172
1
173
0
174
0
175
0
176
0
177
0
178
0
179
2
271
0
272
0
273
2
274
3
275
0
276
0
277
2
278
44
279
0
280
0
281
0
282
0
283
0
284
8
285
0
286
0
288
0
289
3
290
0
340
29
371
-2
372
-2
  0
ENDTAB
  0
TABLE
  2
BLOCK_RECORD
  5
9
330
0
100
AcDbSymbolTable
 70
18
  0
BLOCK_RECORD
  5
17
330
9
100
AcDbSymbolTableRecord
100
AcDbBlockTableRecord
  2
*Model_Space
340
1A
 70
0
280
1
281
0
  0
BLOCK_RECORD
  5
1B
330
9
100
AcDbSymbolTableRecord
100
AcDbBlockTableRecord
  2
*Paper_Space
340
1E
 70
0
280
1
281
0
  0
BLOCK_RECORD
  5
3C
330
9
100
AcDbSymbolTableRecord
100
AcDbBlockTableRecord
  2
*D1
340
0
 70
0
280
1
281
0
  0
BLOCK_RECORD
  5
4C
330
9
100
AcDbSymbolTableRecord
100
AcDbBlockTableRecord
  2
*D2
340
0
 70
0
280
1
281
0
  0
BLOCK_RECORD
  5
5A
330
9
100
AcDbSymbolTableRecord
100
AcDbBlockTableRecord
  2
*D3
340
0
 70
0
280
1
281
0
  0
BLOCK_RECORD
  5
6A
330
9
100
AcDbSymbolTableRecord
100
AcDbBlockTableRecord
  2
*D4
340
0
 70
0
280
1
281
0
  0
BLOCK_RECORD
  5
77
330
9
100
AcDbSymbolTableRecord
100
AcDbBlockTableRecord
  2
*D5
340
0
 70
0
280
1
281
0
  0
BLOCK_RECORD
  5
8C
330
9
100
AcDbSymbolTableRecord
100
AcDbBlockTableRecord
  2
*D6
340
0
 70
0
280
1
281
0
  0
BLOCK_RECORD
  5
9E
330
9
100
AcDbSymbolTableRecord
100
AcDbBlockTableRecord
  2
*D7
340
0
 70
0
280
1
281
0
  0
BLOCK_RECORD
  5
C4
330
9
100
AcDbSymbolTableRecord
100
AcDbBlockTableRecord
  2
*D8
340
0
 70
0
280
1
281
0
  0
BLOCK_RECORD
  5
D1
330
9
100
AcDbSymbolTableRecord
100
AcDbBlockTableRecord
  2
*D9
340
0
 70
0
280
1
281
0
  0
BLOCK_RECORD
  5
DE
330
9
100
AcDbSymbolTableRecord
100
AcDbBlockTableRecord
  2
*D10
340
0
 70
0
280
1
281
0
  0
BLOCK_RECORD
  5
EC
330
9
100
AcDbSymbolTableRecord
100
AcDbBlockTableRecord
  2
*D11
340
0
 70
0
280
1
281
0
  0
BLOCK_RECORD
  5
F9
330
9
100
AcDbSymbolTableRecord
100
AcDbBlockTableRecord
  2
*D12
340
0
 70
0
280
1
281
0
  0
BLOCK_RECORD
  5
109
330
9
100
AcDbSymbolTableRecord
100
AcDbBlockTableRecord
  2
*D13
340
0
 70
0
280
1
281
0
  0
BLOCK_RECORD
  5
119
330
9
100
AcDbSymbolTableRecord
100
AcDbBlockTableRecord
  2
*D14
340
0
 70
0
280
1
281
0
  0
BLOCK_RECORD
  5
126
330
9
100
AcDbSymbolTableRecord
100
AcDbBlockTableRecord
  2
*D15
340
0
 70
0
280
1
281
0
  0
BLOCK_RECORD
  5
134
330
9
100
AcDbSymbolTableRecord
100
AcDbBlockTableRecord
  2
*D16
340
0
 70
0
280
1
281
0
  0
ENDTAB
  0
ENDSEC
  0
SECTION
  2
BLOCKS
  0
BLOCK
  5
18
330
17
100
AcDbEntity
  8
0
100
AcDbBlockBegin
  2
*Model_Space
 70
0
 10
0.0
 20
0.0
 30
0.0
  3
*Model_Space
  1

  0
ENDBLK
  5
19
330
17
100
AcDbEntity
  8
0
100
AcDbBlockEnd
  0
BLOCK
  5
1C
330
1B
100
AcDbEntity
  8
0
100
AcDbBlockBegin
  2
*Paper_Space
 70
0
 10
0.0
 20
0.0
 30
0.0
  3
*Paper_Space
  1

  0
ENDBLK
  5
1D
330
1B
100
AcDbEntity
  8
0
100
AcDbBlockEnd
  0
BLOCK
  5
3D
330
3C
100
AcDbEntity
  8
0
100
AcDbBlockBegin
  2
*D1
 70
1
 10
0.0
 20
0.0
 30
0.0
  3
*D1
  1

  0
LINE
  5
3F
330
3C
100
AcDbEntity
  8
VP
 62
0
370
-2
440
16777216
100
AcDbLine
 10
997700.6489588713
 20
87859.99069166576
 30
0.0
 11
997700.6489588713
 21
87785.78619745417
 31
0.0
  0
LINE
  5
40
330
3C
100
AcDbEntity
  8
VP
 62
0
370
-2
440
16777216
100
AcDbLine
 10
998160.6489588713
 20
87859.99069166576
 30
0.0
 11
998160.6489588713
 21
87785.78619745417
 31
0.0
  0
LINE
  5
41
330
3C
100
AcDbEntity
  8
VP
 62
0
370
-2
440
16777216
100
AcDbLine
 10
997730.6489588713
 20
87787.03619745416
 30
0.0
 11
998130.6489588713
 21
87787.03619745416
 31
0.0
  0
SOLID
  5
42
330
3C
100
AcDbEntity
  8
VP
 62
0
370
13
440
16777216
100
AcDbTrace
 10
997730.6489588713
 20
87792.03619745416
 30
0.0
 11
997730.6489588713
 21
87782.03619745417
 31
0.0
 12
997700.6489588713
 22
87787.03619745416
 32
0.0
 13
997700.6489588713
 23
87787.03619745416
 33
0.0
  0
SOLID
  5
43
330
3C
100
AcDbEntity
  8
VP
 62
0
370
13
440
16777216
100
AcDbTrace
 10
998130.6489588713
 20
87792.03619745416
 30
0.0
 11
998130.6489588713
 21
87782.03619745417
 31
0.0
 12
998160.6489588713
 22
87787.03619745416
 32
0.0
 13
998160.6489588713
 23
87787.03619745416
 33
0.0
  0
MTEXT
  5
44
330
3C
100
AcDbEntity
  8
VP
 62
0
370
13
440
16777216
100
AcDbMText
 10
997930.6489588713
 20
87812.35338708581
 30
0.0
 40
30.0
 41
0.0
 46
0.0
 71
5
  1
460
  0
POINT
  5
45
330
3C
100
AcDbEntity
  8
Defpoints
 62
0
370
13
440
16777216
100
AcDbPoint
 10
997700.6489588713
 20
87860.61569166576
 30
0.0
  0
POINT
  5
46
330
3C
100
AcDbEntity
  8
Defpoints
 62
0
370
13
440
16777216
100
AcDbPoint
 10
998160.6489588713
 20
87860.61569166576
 30
0.0
  0
POINT
  5
47
330
3C
100
AcDbEntity
  8
Defpoints
 62
0
370
13
440
16777216
100
AcDbPoint
 10
998160.6489588713
 20
87787.03619745416
 30
0.0
  0
ENDBLK
  5
3E
330
3C
100
AcDbEntity
  8
0
100
AcDbBlockEnd
  0
BLOCK
  5
4D
330
4C
100
AcDbEntity
  8
0
100
AcDbBlockBegin
  2
*D2
 70
1
 10
0.0
 20
0.0
 30
0.0
  3
*D2
  1

  0
LINE
  5
4F
330
4C
100
AcDbEntity
  8
VP
 62
0
370
-2
440
16777216
100
AcDbLine
 10
998441.0830308894
 20
87911.12863828203
 30
0.0
 11
998495.8322286258
 21
87911.12863828203
 31
0.0
  0
LINE
  5
50
330
4C
100
AcDbEntity
  8
VP
 62
0
370
-2
440
16777216
100
AcDbLine
 10
998441.0830308894
 20
88301.11526718244
 30
0.0
 11
998495.8322286258
 21
88301.11526718244
 31
0.0
  0
LINE
  5
51
330
4C
100
AcDbEntity
  8
VP
 62
0
370
-2
440
16777216
100
AcDbLine
 10
998494.5822286255
 20
87941.12863828203
 30
0.0
 11
998494.5822286255
 21
88271.11526718244
 31
0.0
  0
SOLID
  5
52
330
4C
100
AcDbEntity
  8
VP
 62
0
370
13
440
16777216
100
AcDbTrace
 10
998489.5822286255
 20
87941.12863828203
 30
0.0
 11
998499.5822286258
 21
87941.12863828203
 31
0.0
 12
998494.5822286255
 22
87911.12863828203
 32
0.0
 13
998494.5822286255
 23
87911.12863828203
 33
0.0
  0
SOLID
  5
53
330
4C
100
AcDbEntity
  8
VP
 62
0
370
13
440
16777216
100
AcDbTrace
 10
998489.5822286255
 20
88271.11526718244
 30
0.0
 11
998499.5822286258
 21
88271.11526718244
 31
0.0
 12
998494.5822286255
 22
88301.11526718244
 32
0.0
 13
998494.5822286255
 23
88301.11526718244
 33
0.0
  0
MTEXT
  5
54
330
4C
100
AcDbEntity
  8
VP
 62
0
370
13
440
16777216
100
AcDbMText
 10
998469.2548070702
 20
88106.12195273195
 30
0.0
 40
30.0
 41
0.0
 46
0.0
 71
5
  1
390
 11
1e-16
 21
1.0
 31
0.0
  0
POINT
  5
55
330
4C
100
AcDbEntity
  8
Defpoints
 62
0
370
13
440
16777216
100
AcDbPoint
 10
998440.4580308893
 20
87911.12863828203
 30
0.0
  0
POINT
  5
56
330
4C
100
AcDbEntity
  8
Defpoints
 62
0
370
13
440
16777216
100
AcDbPoint
 10
998440.4580308893
 20
88301.11526718244
 30
0.0
  0
POINT
  5
57
330
4C
100
AcDbEntity
  8
Defpoints
 62
0
370
13
440
16777216
100
AcDbPoint
 10
998494.5822286255
 20
88301.11526718244
 30
0.0
  0
ENDBLK
  5
4E
330
4C
100
AcDbEntity
  8
0
100
AcDbBlockEnd
  0
BLOCK
  5
5B
330
5A
100
AcDbEntity
  8
0
100
AcDbBlockBegin
  2
*D3
 70
1
 10
0.0
 20
0.0
 30
0.0
  3
*D3
  1

  0
LINE
  5
5D
330
5A
100
AcDbEntity
  8
VP
 62
0
370
-2
440
16777216
100
AcDbLine
 10
998159.9673364852
 20
88303.69544618556
 30
0.0
 11
998159.9673364852
 21
88407.1613917928
 31
0.0
  0
LINE
  5
5E
330
5A
100
AcDbEntity
  8
VP
 62
0
370
-2
440
16777216
100
AcDbLine
 10
998440.458030889
 20
88302.74026718241
 30
0.0
 11
998440.458030889
 21
88407.1613917928
 31
0.0
  0
LINE
  5
5F
330
5A
100
AcDbEntity
  8
VP
 62
0
370
-2
440
16777216
100
AcDbLine
 10
998189.9673364852
 20
88405.91139179279
 30
0.0
 11
998410.4580308889
 21
88405.91139179279
 31
0.0
  0
SOLID
  5
60
330
5A
100
AcDbEntity
  8
VP
 62
0
370
13
440
16777216
100
AcDbTrace
 10
998189.9673364852
 20
88410.9113917928
 30
0.0
 11
998189.9673364852
 21
88400.91139179278
 31
0.0
 12
998159.9673364852
 22
88405.91139179279
 32
0.0
 13
998159.9673364852
 23
88405.91139179279
 33
0.0
  0
SOLID
  5
61
330
5A
100
AcDbEntity
  8
VP
 62
0
370
13
440
16777216
100
AcDbTrace
 10
998410.4580308889
 20
88410.9113917928
 30
0.0
 11
998410.4580308889
 21
88400.91139179278
 31
0.0
 12
998440.458030889
 22
88405.91139179279
 32
0.0
 13
998440.458030889
 23
88405.91139179279
 33
0.0
  0
MTEXT
  5
62
330
5A
100
AcDbEntity
  8
VP
 62
0
370
13
440
16777216
100
AcDbMText
 10
998300.212683687
 20
88431.22858142442
 30
0.0
 40
30.0
 41
0.0
 46
0.0
 71
5
  1
280
  0
POINT
  5
63
330
5A
100
AcDbEntity
  8
Defpoints
 62
0
370
13
440
16777216
100
AcDbPoint
 10
998159.9673364852
 20
88303.07044618556
 30
0.0
  0
POINT
  5
64
330
5A
100
AcDbEntity
  8
Defpoints
 62
0
370
13
440
16777216
100
AcDbPoint
 10
998440.458030889
 20
88302.1152671824
 30
0.0
  0
POINT
  5
65
330
5A
100
AcDbEntity
  8
Defpoints
 62
0
370
13
440
16777216
100
AcDbPoint
 10
998440.458030889
 20
88405.91139179279
 30
0.0
  0
ENDBLK
  5
5C
330
5A
100
AcDbEntity
  8
0
100
AcDbBlockEnd
  0
BLOCK
  5
6B
330
6A
100
AcDbEntity
  8
0
100
AcDbBlockBegin
  2
*D4
 70
1
 10
0.0
 20
0.0
 30
0.0
  3
*D4
  1

  0
LINE
  5
6D
330
6A
100
AcDbEntity
  8
VP
 62
0
370
-2
440
16777216
100
AcDbLine
 10
998542.9873840311
 20
88512.2546605654
 30
0.0
 11
998511.7981311923
 21
88512.2546605654
 31
0.0
  0
LINE
  5
6E
330
6A
100
AcDbEntity
  8
VP
 62
0
370
-2
440
16777216
100
AcDbLine
 10
998539.8036076524
 20
88696.9226123262
 30
0.0
 11
998511.7981311923
 21
88696.9226123262
 31
0.0
  0
LINE
  5
6F
330
6A
100
AcDbEntity
  8
VP
 62
0
370
-2
440
16777216
100
AcDbLine
 10
998513.0481311921
 20
88542.2546605654
 30
0.0
 11
998513.0481311921
 21
88666.92261232619
 31
0.0
  0
SOLID
  5
70
330
6A
100
AcDbEntity
  8
VP
 62
0
370
13
440
16777216
100
AcDbTrace
 10
998508.0481311921
 20
88542.2546605654
 30
0.0
 11
998518.0481311921
 21
88542.2546605654
 31
0.0
 12
998513.0481311921
 22
88512.2546605654
 32
0.0
 13
998513.0481311921
 23
88512.2546605654
 33
0.0
  0
SOLID
  5
71
330
6A
100
AcDbEntity
  8
VP
 62
0
370
13
440
16777216
100
AcDbTrace
 10
998508.0481311921
 20
88666.92261232619
 30
0.0
 11
998518.0481311921
 21
88666.92261232619
 31
0.0
 12
998513.0481311921
 22
88696.9226123262
 32
0.0
 13
998513.0481311921
 23
88696.9226123262
 33
0.0
  0
MTEXT
  5
72
330
6A
100
AcDbEntity
  8
VP
 62
0
370
13
440
16777216
100
AcDbMText
 10
998487.7309415604
 20
88604.5886364455
 30
0.0
 40
30.0
 41
0.0
 46
0.0
 71
5
  1
185
 11
1e-16
 21
1.0
 31
0.0
  0
POINT
  5
73
330
6A
100
AcDbEntity
  8
Defpoints
 62
0
370
13
440
16777216
100
AcDbPoint
 10
998543.6123840312
 20
88512.2546605654
 30
0.0
  0
POINT
  5
74
330
6A
100
AcDbEntity
  8
Defpoints
 62
0
370
13
440
16777216
100
AcDbPoint
 10
998540.4286076525
 20
88696.9226123262
 30
0.0
  0
POINT
  5
75
330
6A
100
AcDbEntity
  8
Defpoints
 62
0
370
13
440
16777216
100
AcDbPoint
 10
998513.0481311921
 20
88696.9226123262
 30
0.0
  0
ENDBLK
  5
6C
330
6A
100
AcDbEntity
  8
0
100
AcDbBlockEnd
  0
BLOCK
  5
78
330
77
100
AcDbEntity
  8
0
100
AcDbBlockBegin
  2
*D5
 70
1
 10
0.0
 20
0.0
 30
0.0
  3
*D5
  1

  0
LINE
  5
7A
330
77
100
AcDbEntity
  8
VP
 62
0
370
-2
440
16777216
100
AcDbLine
 10
998159.6489588713
 20
88512.26644660594
 30
0.0
 11
998159.6489588713
 21
88458.15141919936
 31
0.0
  0
LINE
  5
7B
330
77
100
AcDbEntity
  8
VP
 62
0
370
-2
440
16777216
100
AcDbLine
 10
998539.428607652
 20
88512.26644660594
 30
0.0
 11
998539.428607652
 21
88458.15141919936
 31
0.0
  0
LINE
  5
7C
330
77
100
AcDbEntity
  8
VP
 62
0
370
-2
440
16777216
100
AcDbLine
 10
998189.6489588713
 20
88459.40141919935
 30
0.0
 11
998509.428607652
 21
88459.40141919935
 31
0.0
  0
SOLID
  5
7D
330
77
100
AcDbEntity
  8
VP
 62
0
370
13
440
16777216
100
AcDbTrace
 10
998189.6489588713
 20
88464.40141919936
 30
0.0
 11
998189.6489588713
 21
88454.40141919936
 31
0.0
 12
998159.6489588713
 22
88459.40141919935
 32
0.0
 13
998159.6489588713
 23
88459.40141919935
 33
0.0
  0
SOLID
  5
7E
330
77
100
AcDbEntity
  8
VP
 62
0
370
13
440
16777216
100
AcDbTrace
 10
998509.428607652
 20
88464.40141919936
 30
0.0
 11
998509.428607652
 21
88454.40141919936
 31
0.0
 12
998539.428607652
 22
88459.40141919935
 32
0.0
 13
998539.428607652
 23
88459.40141919935
 33
0.0
  0
MTEXT
  5
7F
330
77
100
AcDbEntity
  8
VP
 62
0
370
13
440
16777216
100
AcDbMText
 10
998349.5387832617
 20
88484.72884075461
 30
0.0
 40
30.0
 41
0.0
 46
0.0
 71
5
  1
380
  0
POINT
  5
80
330
77
100
AcDbEntity
  8
Defpoints
 62
0
370
13
440
16777216
100
AcDbPoint
 10
998159.6489588713
 20
88512.89144660594
 30
0.0
  0
POINT
  5
81
330
77
100
AcDbEntity
  8
Defpoints
 62
0
370
13
440
16777216
100
AcDbPoint
 10
998539.428607652
 20
88512.89144660594
 30
0.0
  0
POINT
  5
82
330
77
100
AcDbEntity
  8
Defpoints
 62
0
370
13
440
16777216
100
AcDbPoint
 10
998539.428607652
 20
88459.40141919935
 30
0.0
  0
ENDBLK
  5
79
330
77
100
AcDbEntity
  8
0
100
AcDbBlockEnd
  0
BLOCK
  5
8D
330
8C
100
AcDbEntity
  8
0
100
AcDbBlockBegin
  2
*D6
 70
1
 10
0.0
 20
0.0
 30
0.0
  3
*D6
  1

  0
LINE
  5
8F
330
8C
100
AcDbEntity
  8
VP
 62
0
370
-2
440
16777216
100
AcDbLine
 10
998441.3963407968
 20
87911.75363828203
 30
0.0
 11
998441.3963407968
 21
87964.97689358982
 31
0.0
  0
LINE
  5
90
330
8C
100
AcDbEntity
  8
VP
 62
0
370
-2
440
16777216
100
AcDbLine
 10
998440.458030889
 20
87911.75363828203
 30
0.0
 11
998440.458030889
 21
87964.97689358982
 31
0.0
  0
LINE
  5
91
330
8C
100
AcDbEntity
  8
VP
 62
0
370
-2
440
16777216
100
AcDbLine
 10
998471.396340797
 20
87963.72689358983
 30
0.0
 11
998501.3963407968
 21
87963.72689358983
 31
0.0
  0
LINE
  5
92
330
8C
100
AcDbEntity
  8
VP
 62
0
370
-2
440
16777216
100
AcDbLine
 10
998410.4580308889
 20
87963.72689358983
 30
0.0
 11
998349.4075533991
 21
87963.72689358983
 31
0.0
  0
LINE
  5
93
330
8C
100
AcDbEntity
  8
VP
 62
0
370
-2
440
16777216
100
AcDbLine
 10
998441.3963407968
 20
87963.72689358983
 30
0.0
 11
998440.458030889
 21
87963.72689358983
 31
0.0
  0
SOLID
  5
94
330
8C
100
AcDbEntity
  8
VP
 62
0
370
13
440
16777216
100
AcDbTrace
 10
998471.396340797
 20
87968.72689358982
 30
0.0
 11
998471.396340797
 21
87958.72689358983
 31
0.0
 12
998441.3963407968
 22
87963.72689358983
 32
0.0
 13
998441.3963407968
 23
87963.72689358983
 33
0.0
  0
SOLID
  5
95
330
8C
100
AcDbEntity
  8
VP
 62
0
370
13
440
16777216
100
AcDbTrace
 10
998410.4580308889
 20
87968.72689358982
 30
0.0
 11
998410.4580308889
 21
87958.72689358983
 31
0.0
 12
998440.458030889
 22
87963.72689358983
 32
0.0
 13
998440.458030889
 23
87963.72689358983
 33
0.0
  0
MTEXT
  5
96
330
8C
100
AcDbEntity
  8
VP
 62
0
370
13
440
16777216
100
AcDbMText
 10
998364.932792144
 20
87988.78828513144
 30
0.0
 40
30.0
 41
0.0
 46
0.0
 71
5
  1
1
  0
POINT
  5
97
330
8C
100
AcDbEntity
  8
Defpoints
 62
0
370
13
440
16777216
100
AcDbPoint
 10
998441.3963407968
 20
87911.12863828201
 30
0.0
  0
POINT
  5
98
330
8C
100
AcDbEntity
  8
Defpoints
 62
0
370
13
440
16777216
100
AcDbPoint
 10
998440.458030889
 20
87911.12863828201
 30
0.0
  0
POINT
  5
99
330
8C
100
AcDbEntity
  8
Defpoints
 62
0
370
13
440
16777216
100
AcDbPoint
 10
998440.458030889
 20
87963.72689358983
 30
0.0
  0
ENDBLK
  5
8E
330
8C
100
AcDbEntity
  8
0
100
AcDbBlockEnd
  0
BLOCK
  5
9F
330
9E
100
AcDbEntity
  8
0
100
AcDbBlockBegin
  2
*D7
 70
1
 10
0.0
 20
0.0
 30
0.0
  3
*D7
  1

  0
LINE
  5
A1
330
9E
100
AcDbEntity
  8
VP
 62
0
370
-2
440
16777216
100
AcDbLine
 10
997328.7398031919
 20
88236.98403021428
 30
0.0
 11
997038.393969445
 21
88236.98403021428
 31
0.0
  0
LINE
  5
A2
330
9E
100
AcDbEntity
  8
VP
 62
0
370
-2
440
16777216
100
AcDbLine
 10
997328.7398031919
 20
87596.98403021431
 30
0.0
 11
997038.393969445
 21
87596.98403021431
 31
0.0
  0
LINE
  5
A3
330
9E
100
AcDbEntity
  8
VP
 62
0
370
-2
440
16777216
100
AcDbLine
 10
997039.6439694453
 20
88206.98403021427
 30
0.0
 11
997039.6439694453
 21
87626.98403021431
 31
0.0
  0
SOLID
  5
A4
330
9E
100
AcDbEntity
  8
VP
 62
0
370
13
440
16777216
100
AcDbTrace
 10
997034.6439694453
 20
88206.98403021427
 30
0.0
 11
997044.643969445
 21
88206.98403021427
 31
0.0
 12
997039.6439694453
 22
88236.98403021428
 32
0.0
 13
997039.6439694453
 23
88236.98403021428
 33
0.0
  0
SOLID
  5
A5
330
9E
100
AcDbEntity
  8
VP
 62
0
370
13
440
16777216
100
AcDbTrace
 10
997034.6439694453
 20
87626.98403021431
 30
0.0
 11
997044.643969445
 21
87626.98403021431
 31
0.0
 12
997039.6439694453
 22
87596.98403021431
 32
0.0
 13
997039.6439694453
 23
87596.98403021431
 33
0.0
  0
MTEXT
  5
A6
330
9E
100
AcDbEntity
  8
VP
 62
0
370
13
440
16777216
100
AcDbMText
 10
997014.3267798132
 20
87916.98403021401
 30
0.0
 40
30.0
 41
0.0
 46
0.0
 71
5
  1
640
 11
1e-16
 21
1.0
 31
0.0
  0
POINT
  5
A7
330
9E
100
AcDbEntity
  8
Defpoints
 62
0
370
13
440
16777216
100
AcDbPoint
 10
997329.3648031919
 20
88236.98403021428
 30
0.0
  0
POINT
  5
A8
330
9E
100
AcDbEntity
  8
Defpoints
 62
0
370
13
440
16777216
100
AcDbPoint
 10
997329.3648031919
 20
87596.98403021431
 30
0.0
  0
POINT
  5
A9
330
9E
100
AcDbEntity
  8
Defpoints
 62
0
370
13
440
16777216
100
AcDbPoint
 10
997039.6439694453
 20
87596.98403021431
 30
0.0
  0
ENDBLK
  5
A0
330
9E
100
AcDbEntity
  8
0
100
AcDbBlockEnd
  0
BLOCK
  5
C5
330
C4
100
AcDbEntity
  8
0
100
AcDbBlockBegin
  2
*D8
 70
1
 10
0.0
 20
0.0
 30
0.0
  3
*D8
  1

  0
LINE
  5
C7
330
C4
100
AcDbEntity
  8
VP
 62
0
370
-2
440
16777216
100
AcDbLine
 10
997208.0013913607
 20
88236.35903021425
 30
0.0
 11
997208.0013913607
 21
88135.74654623799
 31
0.0
  0
LINE
  5
C8
330
C4
100
AcDbEntity
  8
VP
 62
0
370
-2
440
16777216
100
AcDbLine
 10
997527.6142300304
 20
88236.35903021425
 30
0.0
 11
997527.6142300304
 21
88135.74654623799
 31
0.0
  0
LINE
  5
C9
330
C4
100
AcDbEntity
  8
VP
 62
0
370
-2
440
16777216
100
AcDbLine
 10
997238.0013913607
 20
88136.996546238
 30
0.0
 11
997497.6142300304
 21
88136.996546238
 31
0.0
  0
SOLID
  5
CA
330
C4
100
AcDbEntity
  8
VP
 62
0
370
13
440
16777216
100
AcDbTrace
 10
997238.0013913607
 20
88141.99654623799
 30
0.0
 11
997238.0013913607
 21
88131.99654623799
 31
0.0
 12
997208.0013913607
 22
88136.996546238
 32
0.0
 13
997208.0013913607
 23
88136.996546238
 33
0.0
  0
SOLID
  5
CB
330
C4
100
AcDbEntity
  8
VP
 62
0
370
13
440
16777216
100
AcDbTrace
 10
997497.6142300304
 20
88141.99654623799
 30
0.0
 11
997497.6142300304
 21
88131.99654623799
 31
0.0
 12
997527.6142300304
 22
88136.996546238
 32
0.0
 13
997527.6142300304
 23
88136.996546238
 33
0.0
  0
MTEXT
  5
CC
330
C4
100
AcDbEntity
  8
VP
 62
0
370
13
440
16777216
100
AcDbMText
 10
997367.8078106955
 20
88162.32396779324
 30
0.0
 40
30.0
 41
0.0
 46
0.0
 71
5
  1
320
  0
POINT
  5
CD
330
C4
100
AcDbEntity
  8
Defpoints
 62
0
370
13
440
16777216
100
AcDbPoint
 10
997208.0013913607
 20
88236.98403021425
 30
0.0
  0
POINT
  5
CE
330
C4
100
AcDbEntity
  8
Defpoints
 62
0
370
13
440
16777216
100
AcDbPoint
 10
997527.6142300304
 20
88236.98403021425
 30
0.0
  0
POINT
  5
CF
330
C4
100
AcDbEntity
  8
Defpoints
 62
0
370
13
440
16777216
100
AcDbPoint
 10
997527.6142300304
 20
88136.996546238
 30
0.0
  0
ENDBLK
  5
C6
330
C4
100
AcDbEntity
  8
0
100
AcDbBlockEnd
  0
BLOCK
  5
D2
330
D1
100
AcDbEntity
  8
0
100
AcDbBlockBegin
  2
*D9
 70
1
 10
0.0
 20
0.0
 30
0.0
  3
*D9
  1

  0
LINE
  5
D4
330
D1
100
AcDbEntity
  8
VP
 62
0
370
-2
440
16777216
100
AcDbLine
 10
997527.6142300304
 20
88236.35903021425
 30
0.0
 11
997527.6142300304
 21
88135.74654623799
 31
0.0
  0
LINE
  5
D5
330
D1
100
AcDbEntity
  8
VP
 62
0
370
-2
440
16777216
100
AcDbLine
 10
997698.0013913605
 20
88236.35903021425
 30
0.0
 11
997698.0013913605
 21
88135.74654623799
 31
0.0
  0
LINE
  5
D6
330
D1
100
AcDbEntity
  8
VP
 62
0
370
-2
440
16777216
100
AcDbLine
 10
997557.6142300304
 20
88136.996546238
 30
0.0
 11
997668.0013913607
 21
88136.996546238
 31
0.0
  0
SOLID
  5
D7
330
D1
100
AcDbEntity
  8
VP
 62
0
370
13
440
16777216
100
AcDbTrace
 10
997557.6142300304
 20
88141.99654623799
 30
0.0
 11
997557.6142300304
 21
88131.99654623799
 31
0.0
 12
997527.6142300304
 22
88136.996546238
 32
0.0
 13
997527.6142300304
 23
88136.996546238
 33
0.0
  0
SOLID
  5
D8
330
D1
100
AcDbEntity
  8
VP
 62
0
370
13
440
16777216
100
AcDbTrace
 10
997668.0013913607
 20
88141.99654623799
 30
0.0
 11
997668.0013913607
 21
88131.99654623799
 31
0.0
 12
997698.0013913605
 22
88136.996546238
 32
0.0
 13
997698.0013913605
 23
88136.996546238
 33
0.0
  0
MTEXT
  5
D9
330
D1
100
AcDbEntity
  8
VP
 62
0
370
13
440
16777216
100
AcDbMText
 10
997612.8078106954
 20
88162.31373586964
 30
0.0
 40
30.0
 41
0.0
 46
0.0
 71
5
  1
170
  0
POINT
  5
DA
330
D1
100
AcDbEntity
  8
Defpoints
 62
0
370
13
440
16777216
100
AcDbPoint
 10
997527.6142300304
 20
88236.98403021425
 30
0.0
  0
POINT
  5
DB
330
D1
100
AcDbEntity
  8
Defpoints
 62
0
370
13
440
16777216
100
AcDbPoint
 10
997698.0013913605
 20
88236.98403021425
 30
0.0
  0
POINT
  5
DC
330
D1
100
AcDbEntity
  8
Defpoints
 62
0
370
13
440
16777216
100
AcDbPoint
 10
997698.0013913605
 20
88136.996546238
 30
0.0
  0
ENDBLK
  5
D3
330
D1
100
AcDbEntity
  8
0
100
AcDbBlockEnd
  0
BLOCK
  5
DF
330
DE
100
AcDbEntity
  8
0
100
AcDbBlockBegin
  2
*D10
 70
1
 10
0.0
 20
0.0
 30
0.0
  3
*D10
  1

  0
LINE
  5
E1
330
DE
100
AcDbEntity
  8
VP
 62
0
370
-2
440
16777216
100
AcDbLine
 10
997206.0994678171
 20
89053.38120009485
 30
0.0
 11
997206.0994678171
 21
89444.02851307185
 31
0.0
  0
LINE
  5
E2
330
DE
100
AcDbEntity
  8
VP
 62
0
370
-2
440
16777216
100
AcDbLine
 10
998606.0994678171
 20
89053.38120009485
 30
0.0
 11
998606.0994678171
 21
89444.02851307185
 31
0.0
  0
LINE
  5
E3
330
DE
100
AcDbEntity
  8
VP
 62
0
370
-2
440
16777216
100
AcDbLine
 10
997236.0994678171
 20
89442.77851307187
 30
0.0
 11
998576.0994678171
 21
89442.77851307187
 31
0.0
  0
SOLID
  5
E4
330
DE
100
AcDbEntity
  8
VP
 62
0
370
13
440
16777216
100
AcDbTrace
 10
997236.0994678171
 20
89447.77851307185
 30
0.0
 11
997236.0994678171
 21
89437.77851307187
 31
0.0
 12
997206.0994678171
 22
89442.77851307187
 32
0.0
 13
997206.0994678171
 23
89442.77851307187
 33
0.0
  0
SOLID
  5
E5
330
DE
100
AcDbEntity
  8
VP
 62
0
370
13
440
16777216
100
AcDbTrace
 10
998576.0994678171
 20
89447.77851307185
 30
0.0
 11
998576.0994678171
 21
89437.77851307187
 31
0.0
 12
998606.0994678171
 22
89442.77851307187
 32
0.0
 13
998606.0994678171
 23
89442.77851307187
 33
0.0
  0
MTEXT
  5
E6
330
DE
100
AcDbEntity
  8
VP
 62
0
370
13
440
16777216
100
AcDbMText
 10
997906.0994678171
 20
89468.0957027035
 30
0.0
 40
30.0
 41
0.0
 46
0.0
 71
5
  1
1400
  0
POINT
  5
E7
330
DE
100
AcDbEntity
  8
Defpoints
 62
0
370
13
440
16777216
100
AcDbPoint
 10
997206.0994678171
 20
89052.75620009485
 30
0.0
  0
POINT
  5
E8
330
DE
100
AcDbEntity
  8
Defpoints
 62
0
370
13
440
16777216
100
AcDbPoint
 10
998606.0994678171
 20
89052.75620009485
 30
0.0
  0
POINT
  5
E9
330
DE
100
AcDbEntity
  8
Defpoints
 62
0
370
13
440
16777216
100
AcDbPoint
 10
998606.0994678171
 20
89442.77851307187
 30
0.0
  0
ENDBLK
  5
E0
330
DE
100
AcDbEntity
  8
0
100
AcDbBlockEnd
  0
BLOCK
  5
ED
330
EC
100
AcDbEntity
  8
0
100
AcDbBlockBegin
  2
*D11
 70
1
 10
0.0
 20
0.0
 30
0.0
  3
*D11
  1

  0
LINE
  5
EF
330
EC
100
AcDbEntity
  8
VP
 62
0
370
-2
440
16777216
100
AcDbLine
 10
998440.3963407968
 20
87857.0137493657
 30
0.0
 11
998440.3963407968
 21
87785.78619745417
 31
0.0
  0
LINE
  5
F0
330
EC
100
AcDbEntity
  8
VP
 62
0
370
-2
440
16777216
100
AcDbLine
 10
998160.6489588713
 20
87862.67641064961
 30
0.0
 11
998160.6489588713
 21
87785.78619745417
 31
0.0
  0
LINE
  5
F1
330
EC
100
AcDbEntity
  8
VP
 62
0
370
-2
440
16777216
100
AcDbLine
 10
998410.3963407967
 20
87787.03619745416
 30
0.0
 11
998190.6489588713
 21
87787.03619745416
 31
0.0
  0
SOLID
  5
F2
330
EC
100
AcDbEntity
  8
VP
 62
0
370
13
440
16777216
100
AcDbTrace
 10
998410.3963407967
 20
87792.03619745416
 30
0.0
 11
998410.3963407967
 21
87782.03619745417
 31
0.0
 12
998440.3963407968
 22
87787.03619745416
 32
0.0
 13
998440.3963407968
 23
87787.03619745416
 33
0.0
  0
SOLID
  5
F3
330
EC
100
AcDbEntity
  8
VP
 62
0
370
13
440
16777216
100
AcDbTrace
 10
998190.6489588713
 20
87792.03619745416
 30
0.0
 11
998190.6489588713
 21
87782.03619745417
 31
0.0
 12
998160.6489588713
 22
87787.03619745416
 32
0.0
 13
998160.6489588713
 23
87787.03619745416
 33
0.0
  0
MTEXT
  5
F4
330
EC
100
AcDbEntity
  8
VP
 62
0
370
13
440
16777216
100
AcDbMText
 10
998300.522649834
 20
87812.35338708581
 30
0.0
 40
30.0
 41
0.0
 46
0.0
 71
5
  1
280
  0
POINT
  5
F5
330
EC
100
AcDbEntity
  8
Defpoints
 62
0
370
13
440
16777216
100
AcDbPoint
 10
998440.3963407968
 20
87857.6387493657
 30
0.0
  0
POINT
  5
F6
330
EC
100
AcDbEntity
  8
Defpoints
 62
0
370
13
440
16777216
100
AcDbPoint
 10
998160.6489588713
 20
87863.30141064961
 30
0.0
  0
POINT
  5
F7
330
EC
100
AcDbEntity
  8
Defpoints
 62
0
370
13
440
16777216
100
AcDbPoint
 10
998160.6489588713
 20
87787.03619745416
 30
0.0
  0
ENDBLK
  5
EE
330
EC
100
AcDbEntity
  8
0
100
AcDbBlockEnd
  0
BLOCK
  5
FA
330
F9
100
AcDbEntity
  8
0
100
AcDbBlockBegin
  2
*D12
 70
1
 10
0.0
 20
0.0
 30
0.0
  3
*D12
  1

  0
LINE
  5
FC
330
F9
100
AcDbEntity
  8
VP
 62
0
370
-2
440
16777216
100
AcDbLine
 10
997698.0013913605
 20
87596.35903021425
 30
0.0
 11
997698.0013913605
 21
87529.62190804078
 31
0.0
  0
LINE
  5
FD
330
F9
100
AcDbEntity
  8
VP
 62
0
370
-2
440
16777216
100
AcDbLine
 10
997821.556113919
 20
87594.65790065727
 30
0.0
 11
997821.556113919
 21
87529.62190804078
 31
0.0
  0
LINE
  5
FE
330
F9
100
AcDbEntity
  8
VP
 62
0
370
-2
440
16777216
100
AcDbLine
 10
997728.0013913607
 20
87530.87190804078
 30
0.0
 11
997791.5561139191
 21
87530.87190804078
 31
0.0
  0
SOLID
  5
FF
330
F9
100
AcDbEntity
  8
VP
 62
0
370
13
440
16777216
100
AcDbTrace
 10
997728.0013913607
 20
87535.87190804078
 30
0.0
 11
997728.0013913607
 21
87525.87190804078
 31
0.0
 12
997698.0013913605
 22
87530.87190804078
 32
0.0
 13
997698.0013913605
 23
87530.87190804078
 33
0.0
  0
SOLID
  5
100
330
F9
100
AcDbEntity
  8
VP
 62
0
370
13
440
16777216
100
AcDbTrace
 10
997791.5561139191
 20
87535.87190804078
 30
0.0
 11
997791.5561139191
 21
87525.87190804078
 31
0.0
 12
997821.556113919
 22
87530.87190804078
 32
0.0
 13
997821.556113919
 23
87530.87190804078
 33
0.0
  0
MTEXT
  5
101
330
F9
100
AcDbEntity
  8
VP
 62
0
370
13
440
16777216
100
AcDbMText
 10
997759.7787526399
 20
87555.93329958236
 30
0.0
 40
30.0
 41
0.0
 46
0.0
 71
5
  1
124
  0
POINT
  5
102
330
F9
100
AcDbEntity
  8
Defpoints
 62
0
370
13
440
16777216
100
AcDbPoint
 10
997698.0013913605
 20
87596.98403021425
 30
0.0
  0
POINT
  5
103
330
F9
100
AcDbEntity
  8
Defpoints
 62
0
370
13
440
16777216
100
AcDbPoint
 10
997821.556113919
 20
87595.28290065727
 30
0.0
  0
POINT
  5
104
330
F9
100
AcDbEntity
  8
Defpoints
 62
0
370
13
440
16777216
100
AcDbPoint
 10
997821.556113919
 20
87530.87190804078
 30
0.0
  0
ENDBLK
  5
FB
330
F9
100
AcDbEntity
  8
0
100
AcDbBlockEnd
  0
BLOCK
  5
10A
330
109
100
AcDbEntity
  8
0
100
AcDbBlockBegin
  2
*D13
 70
1
 10
0.0
 20
0.0
 30
0.0
  3
*D13
  1

  0
LINE
  5
10C
330
109
100
AcDbEntity
  8
VP
 62
0
370
-2
440
16777216
100
AcDbLine
 10
998441.7574842277
 20
87860.56304345126
 30
0.0
 11
998441.7574842277
 21
87785.78619745417
 31
0.0
  0
LINE
  5
10D
330
109
100
AcDbEntity
  8
VP
 62
0
370
-2
440
16777216
100
AcDbLine
 10
998606.587822757
 20
87854.51109480829
 30
0.0
 11
998606.587822757
 21
87785.78619745417
 31
0.0
  0
LINE
  5
10E
330
109
100
AcDbEntity
  8
VP
 62
0
370
-2
440
16777216
100
AcDbLine
 10
998471.7574842278
 20
87787.03619745416
 30
0.0
 11
998576.5878227568
 21
87787.03619745416
 31
0.0
  0
SOLID
  5
10F
330
109
100
AcDbEntity
  8
VP
 62
0
370
13
440
16777216
100
AcDbTrace
 10
998471.7574842278
 20
87792.03619745416
 30
0.0
 11
998471.7574842278
 21
87782.03619745417
 31
0.0
 12
998441.7574842277
 22
87787.03619745416
 32
0.0
 13
998441.7574842277
 23
87787.03619745416
 33
0.0
  0
SOLID
  5
110
330
109
100
AcDbEntity
  8
VP
 62
0
370
13
440
16777216
100
AcDbTrace
 10
998576.5878227568
 20
87792.03619745416
 30
0.0
 11
998576.5878227568
 21
87782.03619745417
 31
0.0
 12
998606.587822757
 22
87787.03619745416
 32
0.0
 13
998606.587822757
 23
87787.03619745416
 33
0.0
  0
MTEXT
  5
111
330
109
100
AcDbEntity
  8
VP
 62
0
370
13
440
16777216
100
AcDbMText
 10
998524.1726534923
 20
87812.35338708581
 30
0.0
 40
30.0
 41
0.0
 46
0.0
 71
5
  1
165
  0
POINT
  5
112
330
109
100
AcDbEntity
  8
Defpoints
 62
0
370
13
440
16777216
100
AcDbPoint
 10
998441.7574842277
 20
87861.18804345126
 30
0.0
  0
POINT
  5
113
330
109
100
AcDbEntity
  8
Defpoints
 62
0
370
13
440
16777216
100
AcDbPoint
 10
998606.587822757
 20
87855.1360948083
 30
0.0
  0
POINT
  5
114
330
109
100
AcDbEntity
  8
Defpoints
 62
0
370
13
440
16777216
100
AcDbPoint
 10
998606.587822757
 20
87787.03619745416
 30
0.0
  0
ENDBLK
  5
10B
330
109
100
AcDbEntity
  8
0
100
AcDbBlockEnd
  0
BLOCK
  5
11A
330
119
100
AcDbEntity
  8
0
100
AcDbBlockBegin
  2
*D14
 70
1
 10
0.0
 20
0.0
 30
0.0
  3
*D14
  1

  0
LINE
  5
11C
330
119
100
AcDbEntity
  8
VP
 62
0
370
-2
440
16777216
100
AcDbLine
 10
998605.8436617817
 20
89169.82916779572
 30
0.0
 11
999039.4588144368
 21
89169.82916779572
 31
0.0
  0
LINE
  5
11D
330
119
100
AcDbEntity
  8
VP
 62
0
370
-2
440
16777216
100
AcDbLine
 10
998610.2887794308
 20
87284.58141380649
 30
0.0
 11
999039.4588144368
 21
87284.58141380649
 31
0.0
  0
LINE
  5
11E
330
119
100
AcDbEntity
  8
VP
 62
0
370
-2
440
16777216
100
AcDbLine
 10
999038.208814437
 20
89139.82916779572
 30
0.0
 11
999038.208814437
 21
87314.58141380649
 31
0.0
  0
SOLID
  5
11F
330
119
100
AcDbEntity
  8
VP
 62
0
370
13
440
16777216
100
AcDbTrace
 10
999033.208814437
 20
89139.82916779572
 30
0.0
 11
999043.208814437
 21
89139.82916779572
 31
0.0
 12
999038.208814437
 22
89169.82916779572
 32
0.0
 13
999038.208814437
 23
89169.82916779572
 33
0.0
  0
SOLID
  5
120
330
119
100
AcDbEntity
  8
VP
 62
0
370
13
440
16777216
100
AcDbTrace
 10
999033.208814437
 20
87314.58141380649
 30
0.0
 11
999043.208814437
 21
87314.58141380649
 31
0.0
 12
999038.208814437
 22
87284.58141380649
 32
0.0
 13
999038.208814437
 23
87284.58141380649
 33
0.0
  0
MTEXT
  5
121
330
119
100
AcDbEntity
  8
VP
 62
0
370
13
440
16777216
100
AcDbMText
 10
999012.891624805
 20
88227.2052908008
 30
0.0
 40
30.0
 41
0.0
 46
0.0
 71
5
  1
1885
 11
1e-16
 21
1.0
 31
0.0
  0
POINT
  5
122
330
119
100
AcDbEntity
  8
Defpoints
 62
0
370
13
440
16777216
100
AcDbPoint
 10
998605.2186617817
 20
89169.82916779572
 30
0.0
  0
POINT
  5
123
330
119
100
AcDbEntity
  8
Defpoints
 62
0
370
13
440
16777216
100
AcDbPoint
 10
998609.6637794307
 20
87284.58141380649
 30
0.0
  0
POINT
  5
124
330
119
100
AcDbEntity
  8
Defpoints
 62
0
370
13
440
16777216
100
AcDbPoint
 10
999038.208814437
 20
87284.58141380649
 30
0.0
  0
ENDBLK
  5
11B
330
119
100
AcDbEntity
  8
0
100
AcDbBlockEnd
  0
BLOCK
  5
127
330
126
100
AcDbEntity
  8
0
100
AcDbBlockBegin
  2
*D15
 70
1
 10
0.0
 20
0.0
 30
0.0
  3
*D15
  1

  0
LINE
  5
129
330
126
100
AcDbEntity
  8
VP
 62
0
370
-2
440
16777216
100
AcDbLine
 10
997328.7398031919
 20
87596.98403021431
 30
0.0
 11
997038.3939694457
 21
87596.98403021431
 31
0.0
  0
LINE
  5
12A
330
126
100
AcDbEntity
  8
VP
 62
0
370
-2
440
16777216
100
AcDbLine
 10
997328.7398031919
 20
87285.98403021431
 30
0.0
 11
997038.3939694457
 21
87285.98403021431
 31
0.0
  0
LINE
  5
12B
330
126
100
AcDbEntity
  8
VP
 62
0
370
-2
440
16777216
100
AcDbLine
 10
997039.6439694455
 20
87566.98403021431
 30
0.0
 11
997039.6439694455
 21
87315.98403021431
 31
0.0
  0
SOLID
  5
12C
330
126
100
AcDbEntity
  8
VP
 62
0
370
13
440
16777216
100
AcDbTrace
 10
997034.6439694456
 20
87566.98403021431
 30
0.0
 11
997044.6439694455
 21
87566.98403021431
 31
0.0
 12
997039.6439694455
 22
87596.98403021431
 32
0.0
 13
997039.6439694455
 23
87596.98403021431
 33
0.0
  0
SOLID
  5
12D
330
126
100
AcDbEntity
  8
VP
 62
0
370
13
440
16777216
100
AcDbTrace
 10
997034.6439694456
 20
87315.98403021431
 30
0.0
 11
997044.6439694455
 21
87315.98403021431
 31
0.0
 12
997039.6439694455
 22
87285.98403021431
 32
0.0
 13
997039.6439694455
 23
87285.98403021431
 33
0.0
  0
MTEXT
  5
12E
330
126
100
AcDbEntity
  8
VP
 62
0
370
13
440
16777216
100
AcDbMText
 10
997014.3165478901
 20
87441.48403021402
 30
0.0
 40
30.0
 41
0.0
 46
0.0
 71
5
  1
311
 11
1e-16
 21
1.0
 31
0.0
  0
POINT
  5
12F
330
126
100
AcDbEntity
  8
Defpoints
 62
0
370
13
440
16777216
100
AcDbPoint
 10
997329.3648031919
 20
87596.98403021431
 30
0.0
  0
POINT
  5
130
330
126
100
AcDbEntity
  8
Defpoints
 62
0
370
13
440
16777216
100
AcDbPoint
 10
997329.3648031919
 20
87285.98403021431
 30
0.0
  0
POINT
  5
131
330
126
100
AcDbEntity
  8
Defpoints
 62
0
370
13
440
16777216
100
AcDbPoint
 10
997039.6439694455
 20
87285.98403021431
 30
0.0
  0
ENDBLK
  5
128
330
126
100
AcDbEntity
  8
0
100
AcDbBlockEnd
  0
BLOCK
  5
135
330
134
100
AcDbEntity
  8
0
100
AcDbBlockBegin
  2
*D16
 70
1
 10
0.0
 20
0.0
 30
0.0
  3
*D16
  1

  0
LINE
  5
137
330
134
100
AcDbEntity
  8
VP
 62
0
370
-2
440
16777216
100
AcDbLine
 10
997823.8267601893
 20
87282.52343044028
 30
0.0
 11
997823.8267601893
 21
87317.97691678703
 31
0.0
  0
LINE
  5
138
330
134
100
AcDbEntity
  8
VP
 62
0
370
-2
440
16777216
100
AcDbLine
 10
997563.701784365
 20
87282.52196463113
 30
0.0
 11
997563.701784365
 21
87317.97691678703
 31
0.0
  0
LINE
  5
139
330
134
100
AcDbEntity
  8
VP
 62
0
370
-2
440
16777216
100
AcDbLine
 10
997793.8267601891
 20
87316.72691678705
 30
0.0
 11
997593.701784365
 21
87316.72691678705
 31
0.0
  0
SOLID
  5
13A
330
134
100
AcDbEntity
  8
VP
 62
0
370
13
440
16777216
100
AcDbTrace
 10
997793.8267601891
 20
87321.72691678703
 30
0.0
 11
997793.8267601891
 21
87311.72691678704
 31
0.0
 12
997823.8267601893
 22
87316.72691678705
 32
0.0
 13
997823.8267601893
 23
87316.72691678705
 33
0.0
  0
SOLID
  5
13B
330
134
100
AcDbEntity
  8
VP
 62
0
370
13
440
16777216
100
AcDbTrace
 10
997593.701784365
 20
87321.72691678703
 30
0.0
 11
997593.701784365
 21
87311.72691678704
 31
0.0
 12
997563.701784365
 22
87316.72691678705
 32
0.0
 13
997563.701784365
 23
87316.72691678705
 33
0.0
  0
MTEXT
  5
13C
330
134
100
AcDbEntity
  8
VP
 62
0
370
13
440
16777216
100
AcDbMText
 10
997693.7642722772
 20
87342.04410641869
 30
0.0
 40
30.0
 41
0.0
 46
0.0
 71
5
  1
260
  0
POINT
  5
13D
330
134
100
AcDbEntity
  8
Defpoints
 62
0
370
13
440
16777216
100
AcDbPoint
 10
997823.8267601893
 20
87281.89843044028
 30
0.0
  0
POINT
  5
13E
330
134
100
AcDbEntity
  8
Defpoints
 62
0
370
13
440
16777216
100
AcDbPoint
 10
997563.701784365
 20
87281.89696463113
 30
0.0
  0
POINT
  5
13F
330
134
100
AcDbEntity
  8
Defpoints
 62
0
370
13
440
16777216
100
AcDbPoint
 10
997563.701784365
 20
87316.72691678705
 30
0.0
  0
ENDBLK
  5
136
330
134
100
AcDbEntity
  8
0
100
AcDbBlockEnd
  0
ENDSEC
  0
SECTION
  2
ENTITIES
  0
LWPOLYLINE
  5
34
330
17
100
AcDbEntity
  8
0
370
13
100
AcDbPolyline
 90
4
 70
1
 43
3.428535235377893
 10
1000174.995354359
 20
85790.61580996425
 10
995082.7827960008
 20
85790.61580996425
 10
995082.7827960008
 20
89906.53650785582
 10
1000177.670406767
 20
89906.53650785582
  0
LWPOLYLINE
  5
35
330
17
100
AcDbEntity
  8
BAR-GAL
 62
8
370
13
100
AcDbPolyline
 90
4
 70
1
 10
998440.458030889
 20
87912.40221036311
 10
998159.6489588713
 20
87911.76542432257
 10
998159.6489588713
 20
87857.6387493657
 10
998177.7838458732
 20
87885.55149239652
  0
LWPOLYLINE
  5
36
330
17
100
AcDbEntity
  8
BAR-GAL
 62
7
370
13
100
AcDbPolyline
 90
2
 70
0
 43
15.0
 10
997822.248110056
 20
87281.89549882198
 10
997823.8267601893
 20
87281.89843044028
  0
LWPOLYLINE
  5
37
330
17
100
AcDbEntity
  8
BAR-GAL
 62
7
370
13
100
AcDbPolyline
 90
10
 70
0
 43
15.0
 10
997821.6629776788
 20
87596.98403021425
 10
997698.0013913605
 20
87596.98403021425
 10
997698.0013913605
 20
88236.98403021425
 10
997527.6142300302
 20
88236.98403021425
 10
997527.6142300302
 20
88356.98403021425
 10
997228.0013913605
 20
88356.98403021425
 10
997208.0013913607
 20
88356.98403021425
 10
997208.0013913607
 20
89166.5524557253
 10
997204.1975442735
 20
89166.5524557253
 10
998606.0994678171
 20
89166.5524557253
  0
LWPOLYLINE
  5
38
330
17
100
AcDbEntity
  8
BAR-GAL
 62
7
370
13
100
AcDbPolyline
 90
4
 70
1
 43
15.0
 10
998540.4286076521
 20
88512.25466056538
 10
998605.7086226438
 20
88512.25466056538
 10
998605.7086226438
 20
88696.28582628562
 10
998540.4286076521
 20
88696.28582628562
  0
LWPOLYLINE
  5
39
330
17
100
AcDbEntity
  8
BAR-GAL
 62
8
370
13
100
AcDbPolyline
 90
4
 70
1
 10
998605.7086226438
 20
88696.28582628562
 10
998539.428607652
 20
88696.28582628562
 10
998539.428607652
 20
88512.89144660594
 10
998557.563494654
 20
88670.07189435957
  0
LWPOLYLINE
  5
3A
330
17
100
AcDbEntity
  8
BAR-GAL
 62
7
370
13
100
AcDbPolyline
 90
4
 70
1
 43
5.0
 10
997208.0013913607
 20
88356.98403021425
 10
997527.6142300302
 20
88356.98403021425
 10
997527.6142300302
 20
88236.98403021425
 10
997208.0013913607
 20
88236.98403021425
  0
DIMENSION
  5
3B
330
17
100
AcDbEntity
  8
VP
370
13
100
AcDbDimension
280
0
  2
*D1
  3
ISO-25
 10
998160.6489588713
 20
87787.03619745416
 30
0.0
 11
997930.6489588713
 21
87812.35338708581
 31
0.0
 70
32
 71
5
 42
460.0
 73
0
 74
0
 75
0
100
AcDbAlignedDimension
 13
997700.6489588713
 23
87860.61569166576
 33
0.0
 14
998160.6489588713
 24
87860.61569166576
 34
0.0
 50
0.0
100
AcDbRotatedDimension
  0
LWPOLYLINE
  5
48
330
17
100
AcDbEntity
  8
BAR-GAL
 62
7
370
13
100
AcDbPolyline
 90
5
 70
0
 43
15.0
 10
998441.3963407968
 20
87911.12863828201
 10
998159.6489588713
 20
87911.12863828201
 10
998159.6489588713
 20
88696.92261232616
 10
998605.7086226438
 20
88696.28582628562
 10
998605.7086226438
 20
87730.5056459507
  0
LWPOLYLINE
  5
49
330
17
100
AcDbEntity
  8
BAR-GAL
 62
7
370
13
100
AcDbPolyline
 90
3
 70
0
 43
15.0
 10
998440.458030889
 20
87911.12863828201
 10
998440.458030889
 20
88302.1152671824
 10
998157.6770715982
 20
88302.11526718244
  0
DIMENSION
  5
4A
102
{ACAD_XDICTIONARY
360
4B
102
}
330
17
100
AcDbEntity
  8
VP
370
13
100
AcDbDimension
280
0
  2
*D2
  3
ISO-25
 10
998494.5822286255
 20
88301.11526718244
 30
0.0
 11
998469.2548070702
 21
88106.12195273195
 31
0.0
 70
32
 71
5
 42
389.9866289003985
 73
0
 74
0
 75
0
100
AcDbAlignedDimension
 13
998440.458030889
 23
87911.12863828201
 33
0.0
 14
998440.458030889
 24
88301.11526718241
 34
0.0
 50
90.0
100
AcDbRotatedDimension
  0
DIMENSION
  5
58
102
{ACAD_XDICTIONARY
360
59
102
}
330
17
100
AcDbEntity
  8
VP
370
13
100
AcDbDimension
280
0
  2
*D3
  3
ISO-25
 10
998440.458030889
 20
88405.91139179279
 30
0.0
 11
998300.212683687
 21
88431.22858142442
 31
0.0
 70
32
 71
5
 42
280.4906944036484
 73
0
 74
0
 75
0
100
AcDbAlignedDimension
 13
998159.9673364852
 23
88303.07044618556
 33
0.0
 14
998440.458030889
 24
88302.1152671824
 34
0.0
 50
0.0
100
AcDbRotatedDimension
  0
LWPOLYLINE
  5
66
330
17
100
AcDbEntity
  8
BAR-GAL
 62
7
370
13
100
AcDbPolyline
 90
4
 70
1
 43
5.0
 10
998158.3552338877
 20
88361.35658438384
 10
998440.458030889
 20
88361.35658438384
 10
998440.458030889
 20
88301.11526718241
 10
998158.3552338877
 20
88301.11526718241
  0
LWPOLYLINE
  5
67
330
17
100
AcDbEntity
  8
BAR-GAL
 62
7
370
13
100
AcDbPolyline
 90
4
 70
1
 43
15.0
 10
998159.6489588713
 20
88696.92261232616
 10
998540.4286076521
 20
88696.92261232616
 10
998540.4286076521
 20
88512.25466056538
 10
998159.6489588713
 20
88512.25466056538
  0
DIMENSION
  5
68
102
{ACAD_XDICTIONARY
360
69
102
}
330
17
100
AcDbEntity
  8
VP
370
13
100
AcDbDimension
280
0
  2
*D4
  3
ISO-25
 10
998513.0481311921
 20
88696.9226123262
 30
0.0
 11
998487.7309415604
 21
88604.5886364455
 31
0.0
 70
32
 71
5
 42
184.6679517607845
 73
0
 74
0
 75
0
100
AcDbAlignedDimension
 13
998543.6123840306
 23
88512.25466056538
 33
0.0
 14
998540.4286076521
 24
88696.92261232616
 34
0.0
 50
90.0
100
AcDbRotatedDimension
  0
DIMENSION
  5
76
330
17
100
AcDbEntity
  8
VP
370
13
100
AcDbDimension
280
0
  2
*D5
  3
ISO-25
 10
998539.428607652
 20
88459.40141919935
 30
0.0
 11
998349.5387832617
 21
88484.72884075461
 31
0.0
 70
32
 71
5
 42
379.7796487808227
 73
0
 74
0
 75
0
100
AcDbAlignedDimension
 13
998159.6489588713
 23
88512.89144660594
 33
0.0
 14
998539.428607652
 24
88512.89144660594
 34
0.0
 50
0.0
100
AcDbRotatedDimension
  0
LWPOLYLINE
  5
83
330
17
100
AcDbEntity
  8
BAR-GAL
 62
7
370
13
100
AcDbPolyline
 90
4
 70
1
 43
5.0
 10
998174.931085298
 20
88673.83169746204
 10
998327.7523488495
 20
88673.83169746204
 10
998327.7523488495
 20
88533.73876854008
 10
998174.931085298
 20
88533.73876854008
  0
LWPOLYLINE
  5
84
330
17
100
AcDbEntity
  8
BAR-GAL
 62
7
370
13
100
AcDbPolyline
 90
4
 70
1
 43
5.0
 10
998346.0722283126
 20
88673.83169746204
 10
998498.8934921027
 20
88673.83169746204
 10
998498.8934921027
 20
88533.73876854008
 10
998346.0722283126
 20
88533.73876854008
  0
LINE
  5
85
330
17
100
AcDbEntity
  8
BAR-GAL
 62
7
370
13
100
AcDbLine
 10
998174.931085298
 20
88673.83169746204
 30
0.0
 11
998327.7523488495
 21
88533.73876854008
 31
0.0
  0
LINE
  5
86
330
17
100
AcDbEntity
  8
BAR-GAL
 62
7
370
13
100
AcDbLine
 10
998327.7523488495
 20
88673.83169746204
 30
0.0
 11
998174.931085298
 21
88533.73876854008
 31
0.0
  0
LINE
  5
87
330
17
100
AcDbEntity
  8
BAR-GAL
 62
7
370
13
100
AcDbLine
 10
998346.0722283126
 20
88673.83169746204
 30
0.0
 11
998498.8934921027
 21
88533.73876854008
 31
0.0
  0
LINE
  5
88
330
17
100
AcDbEntity
  8
BAR-GAL
 62
7
370
13
100
AcDbLine
 10
998498.8934921027
 20
88673.83169746204
 30
0.0
 11
998346.0722283126
 21
88533.73876854008
 31
0.0
  0
LWPOLYLINE
  5
89
330
17
100
AcDbEntity
  8
BAR-GAL
 62
7
370
13
100
AcDbPolyline
 90
2
 70
0
 43
15.0
 10
998159.6489588713
 20
87912.40221036311
 10
998159.6489588713
 20
87911.12863828201
  0
DIMENSION
  5
8A
102
{ACAD_XDICTIONARY
360
8B
102
}
330
17
100
AcDbEntity
  8
VP
370
13
100
AcDbDimension
280
0
  2
*D6
  3
ISO-25
 10
998440.458030889
 20
87963.72689358983
 30
0.0
 11
998364.932792144
 21
87988.78828513144
 31
0.0
 70
32
 71
5
 42
0.938309907913208
 73
0
 74
0
 75
0
100
AcDbAlignedDimension
 13
998441.3963407968
 23
87911.12863828201
 33
0.0
 14
998440.458030889
 24
87911.12863828201
 34
0.0
 50
0.0
100
AcDbRotatedDimension
  0
LWPOLYLINE
  5
9A
330
17
100
AcDbEntity
  8
BAR-GAL
 62
7
370
13
100
AcDbPolyline
 90
4
 70
1
 43
5.0
 10
998269.80761976
 20
88183.6730636393
 10
998330.2993700003
 20
88183.6730636393
 10
998330.2993700003
 20
88021.29262329792
 10
998269.80761976
 20
88021.29262329792
  0
LWPOLYLINE
  5
9B
330
17
100
AcDbEntity
  8
BAR-GAL
 62
7
370
13
100
AcDbPolyline
 90
2
 70
0
 43
5.0
 10
998275.5182026566
 20
88361.35658438384
 10
998275.5182026566
 20
88302.11526718244
  0
LWPOLYLINE
  5
9C
330
17
100
AcDbEntity
  8
BAR-GAL
 62
7
370
13
100
AcDbPolyline
 90
2
 70
0
 43
5.0
 10
998400.342449138
 20
88360.69958291342
 10
998400.342449138
 20
88301.11526718241
  0
DIMENSION
  5
9D
330
17
100
AcDbEntity
  8
VP
370
13
100
AcDbDimension
280
0
  2
*D7
  3
ISO-25
 10
997039.6439694453
 20
87596.98403021431
 30
0.0
 11
997014.3267798132
 21
87916.98403021401
 31
0.0
 70
32
 71
5
 42
639.9999999999709
 73
0
 74
0
 75
0
100
AcDbAlignedDimension
 13
997329.3648031912
 23
88236.98403021425
 33
0.0
 14
997329.3648031912
 24
87596.98403021427
 34
0.0
 50
90.0
100
AcDbRotatedDimension
  0
LINE
  5
AA
330
17
100
AcDbEntity
  8
BAR-GAL
 62
7
370
13
100
AcDbLine
 10
998269.80761976
 20
88183.6730636393
 30
0.0
 11
998269.80761976
 21
88301.11526718241
 31
0.0
  0
LINE
  5
AB
330
17
100
AcDbEntity
  8
BAR-GAL
 62
7
370
13
100
AcDbLine
 10
998299.8076197599
 20
88183.6730636393
 30
0.0
 11
998299.8076197599
 21
88301.11526718241
 31
0.0
  0
LINE
  5
AC
330
17
100
AcDbEntity
  8
BAR-GAL
 62
7
370
13
100
AcDbLine
 10
998329.8076197598
 20
88183.6730636393
 30
0.0
 11
998329.8076197598
 21
88301.11526718241
 31
0.0
  0
LINE
  5
AD
330
17
100
AcDbEntity
  8
BAR-GAL
 62
7
370
13
100
AcDbLine
 10
998269.80761976
 20
88177.10957438944
 30
0.0
 11
998160.6332450915
 21
88177.10957438944
 31
0.0
  0
LINE
  5
AE
330
17
100
AcDbEntity
  8
BAR-GAL
 62
7
370
13
100
AcDbLine
 10
998269.80761976
 20
88147.10957438943
 30
0.0
 11
998160.6332450915
 21
88147.10957438943
 31
0.0
  0
LINE
  5
AF
330
17
100
AcDbEntity
  8
BAR-GAL
 62
7
370
13
100
AcDbLine
 10
998269.80761976
 20
88117.10957438943
 30
0.0
 11
998160.6332450915
 21
88117.10957438943
 31
0.0
  0
LINE
  5
B0
330
17
100
AcDbEntity
  8
BAR-GAL
 62
7
370
13
100
AcDbLine
 10
998269.80761976
 20
88087.10957438943
 30
0.0
 11
998160.6332450915
 21
88087.10957438943
 31
0.0
  0
LINE
  5
B1
330
17
100
AcDbEntity
  8
BAR-GAL
 62
7
370
13
100
AcDbLine
 10
998269.80761976
 20
88057.10957438943
 30
0.0
 11
998160.6332450915
 21
88057.10957438943
 31
0.0
  0
LINE
  5
B2
330
17
100
AcDbEntity
  8
BAR-GAL
 62
7
370
13
100
AcDbLine
 10
998269.80761976
 20
88027.10957438945
 30
0.0
 11
998160.6332450915
 21
88027.10957438945
 31
0.0
  0
LINE
  5
B3
330
17
100
AcDbEntity
  8
BAR-GAL
 62
7
370
13
100
AcDbLine
 10
998269.80761976
 20
87903.85041975482
 30
0.0
 11
998269.80761976
 21
88021.29262329792
 31
0.0
  0
LINE
  5
B4
330
17
100
AcDbEntity
  8
BAR-GAL
 62
7
370
13
100
AcDbLine
 10
998299.8076197599
 20
87903.85041975482
 30
0.0
 11
998299.8076197599
 21
88021.29262329792
 31
0.0
  0
LINE
  5
B5
330
17
100
AcDbEntity
  8
BAR-GAL
 62
7
370
13
100
AcDbLine
 10
998329.8076197598
 20
87903.85041975482
 30
0.0
 11
998329.8076197598
 21
88021.29262329792
 31
0.0
  0
LINE
  5
B6
330
17
100
AcDbEntity
  8
BAR-GAL
 62
7
370
13
100
AcDbLine
 10
998440.458030889
 20
88177.10957438944
 30
0.0
 11
998331.2836562205
 21
88177.10957438944
 31
0.0
  0
LINE
  5
B7
330
17
100
AcDbEntity
  8
BAR-GAL
 62
7
370
13
100
AcDbLine
 10
998440.458030889
 20
88147.10957438943
 30
0.0
 11
998331.2836562205
 21
88147.10957438943
 31
0.0
  0
LINE
  5
B8
330
17
100
AcDbEntity
  8
BAR-GAL
 62
7
370
13
100
AcDbLine
 10
998440.458030889
 20
88117.10957438943
 30
0.0
 11
998331.2836562205
 21
88117.10957438943
 31
0.0
  0
LINE
  5
B9
330
17
100
AcDbEntity
  8
BAR-GAL
 62
7
370
13
100
AcDbLine
 10
998440.458030889
 20
88087.10957438943
 30
0.0
 11
998331.2836562205
 21
88087.10957438943
 31
0.0
  0
LINE
  5
BA
330
17
100
AcDbEntity
  8
BAR-GAL
 62
7
370
13
100
AcDbLine
 10
998440.458030889
 20
88057.10957438943
 30
0.0
 11
998331.2836562205
 21
88057.10957438943
 31
0.0
  0
LINE
  5
BB
330
17
100
AcDbEntity
  8
BAR-GAL
 62
7
370
13
100
AcDbLine
 10
998440.458030889
 20
88027.10957438945
 30
0.0
 11
998331.2836562205
 21
88027.10957438945
 31
0.0
  0
LINE
  5
BC
330
17
100
AcDbEntity
  8
BAR-GAL
 62
7
370
13
100
AcDbLine
 10
998158.3552338877
 20
88361.35658438384
 30
0.0
 11
998275.5182026566
 21
88302.11526718244
 31
0.0
  0
LINE
  5
BD
330
17
100
AcDbEntity
  8
BAR-GAL
 62
7
370
13
100
AcDbLine
 10
998275.5182026566
 20
88302.11526718244
 30
0.0
 11
998400.342449138
 21
88360.69958291342
 31
0.0
  0
LINE
  5
BE
330
17
100
AcDbEntity
  8
BAR-GAL
 62
7
370
13
100
AcDbLine
 10
998400.342449138
 20
88360.69958291342
 30
0.0
 11
998440.458030889
 21
88302.1152671824
 31
0.0
  0
LINE
  5
BF
330
17
100
AcDbEntity
  8
BAR-GAL
 62
7
370
13
100
AcDbLine
 10
998440.458030889
 20
88361.35658438384
 30
0.0
 11
998400.342449138
 21
88302.1152671824
 31
0.0
  0
LINE
  5
C0
330
17
100
AcDbEntity
  8
BAR-GAL
 62
7
370
13
100
AcDbLine
 10
998400.342449138
 20
88302.1152671824
 30
0.0
 11
998275.5182026566
 21
88361.35658438384
 31
0.0
  0
LINE
  5
C1
330
17
100
AcDbEntity
  8
BAR-GAL
 62
7
370
13
100
AcDbLine
 10
998275.5182026566
 20
88361.35658438384
 30
0.0
 11
998159.6489588713
 21
88301.11526718241
 31
0.0
  0
DIMENSION
  5
C2
102
{ACAD_XDICTIONARY
360
C3
102
}
330
17
100
AcDbEntity
  8
VP
370
13
100
AcDbDimension
280
0
  2
*D8
  3
ISO-25
 10
997527.6142300304
 20
88136.996546238
 30
0.0
 11
997367.8078106955
 21
88162.32396779324
 31
0.0
 70
32
 71
5
 42
319.6128386697965
 73
0
 74
0
 75
0
100
AcDbAlignedDimension
 13
997208.0013913607
 23
88236.98403021425
 33
0.0
 14
997527.6142300304
 24
88236.98403021425
 34
0.0
 50
0.0
100
AcDbRotatedDimension
  0
DIMENSION
  5
D0
330
17
100
AcDbEntity
  8
VP
370
13
100
AcDbDimension
280
0
  2
*D9
  3
ISO-25
 10
997698.0013913605
 20
88136.996546238
 30
0.0
 11
997612.8078106954
 21
88162.31373586964
 31
0.0
 70
32
 71
5
 42
170.3871613302035
 73
0
 74
0
 75
0
100
AcDbAlignedDimension
 13
997527.6142300304
 23
88236.98403021425
 33
0.0
 14
997698.0013913605
 24
88236.98403021425
 34
0.0
 50
0.0
100
AcDbRotatedDimension
  0
DIMENSION
  5
DD
330
17
100
AcDbEntity
  8
VP
370
13
100
AcDbDimension
280
0
  2
*D10
  3
ISO-25
 10
998606.0994678171
 20
89442.77851307187
 30
0.0
 11
997906.0994678171
 21
89468.0957027035
 31
0.0
 70
32
 71
5
 42
1400.0
 73
0
 74
0
 75
0
100
AcDbAlignedDimension
 13
997206.0994678171
 23
89052.75620009485
 33
0.0
 14
998606.0994678171
 24
89052.75620009485
 34
0.0
 50
0.0
100
AcDbRotatedDimension
  0
LWPOLYLINE
  5
EA
330
17
100
AcDbEntity
  8
BAR-GAL
 62
7
370
13
100
AcDbPolyline
 90
2
 70
0
 43
15.0
 10
998606.0994678171
 20
89166.5524557253
 10
998608.4031862601
 20
88423.18537185073
  0
DIMENSION
  5
EB
330
17
100
AcDbEntity
  8
VP
370
13
100
AcDbDimension
280
0
  2
*D11
  3
ISO-25
 10
998160.6489588713
 20
87787.03619745416
 30
0.0
 11
998300.522649834
 21
87812.35338708581
 31
0.0
 70
32
 71
5
 42
279.7473819255829
 73
0
 74
0
 75
0
100
AcDbAlignedDimension
 13
998440.3963407968
 23
87857.6387493657
 33
0.0
 14
998160.6489588713
 24
87863.30141064961
 34
0.0
 50
0.0
100
AcDbRotatedDimension
  0
DIMENSION
  5
F8
330
17
100
AcDbEntity
  8
VP
370
13
100
AcDbDimension
280
0
  2
*D12
  3
ISO-25
 10
997821.556113919
 20
87530.87190804078
 30
0.0
 11
997759.7787526399
 21
87555.93329958236
 31
0.0
 70
32
 71
5
 42
123.5547225584741
 73
0
 74
0
 75
0
100
AcDbAlignedDimension
 13
997698.0013913605
 23
87596.98403021425
 33
0.0
 14
997821.556113919
 24
87595.28290065727
 34
0.0
 50
0.0
100
AcDbRotatedDimension
  0
LWPOLYLINE
  5
105
330
17
100
AcDbEntity
  8
BAR-GAL
 62
7
370
13
100
AcDbPolyline
 90
2
 70
0
 43
15.0
 10
997821.6629776788
 20
87596.98403021425
 10
997822.248110056
 20
87281.89549882198
  0
LWPOLYLINE
  5
106
330
17
100
AcDbEntity
  8
BAR-GAL
 62
7
370
13
100
AcDbPolyline
 90
4
 70
1
 43
15.0
 10
998159.6489588713
 20
87912.40221036311
 10
998441.3963407968
 20
87912.40221036311
 10
998441.3963407968
 20
87857.6387493657
 10
998159.6489588713
 20
87857.6387493657
  0
LWPOLYLINE
  5
107
330
17
100
AcDbEntity
  8
BAR-GAL
 62
7
370
13
100
AcDbPolyline
 90
2
 70
0
 43
15.0
 10
998605.679199538
 20
88163.29604883467
 10
998440.1228303408
 20
88163.2960488318
  0
DIMENSION
  5
108
330
17
100
AcDbEntity
  8
VP
370
13
100
AcDbDimension
280
0
  2
*D13
  3
ISO-25
 10
998606.587822757
 20
87787.03619745416
 30
0.0
 11
998524.1726534923
 21
87812.35338708581
 31
0.0
 70
32
 71
5
 42
164.8303385291947
 73
0
 74
0
 75
0
100
AcDbAlignedDimension
 13
998441.7574842277
 23
87861.18804345126
 33
0.0
 14
998606.587822757
 24
87855.1360948083
 34
0.0
 50
0.0
100
AcDbRotatedDimension
  0
LWPOLYLINE
  5
115
330
17
100
AcDbEntity
  8
BAR-GAL
 62
7
370
13
100
AcDbPolyline
 90
3
 70
0
 43
15.0
 10
998605.7086226438
 20
87730.5056459507
 10
998605.6603032537
 20
87281.89549882198
 10
997822.248110056
 20
87281.89549882198
  0
LWPOLYLINE
  5
116
330
17
100
AcDbEntity
  8
BAR-GAL
 62
3
370
13
100
AcDbPolyline
 90
8
 70
1
 10
998605.7086226438
 20
88512.25466056538
 10
998540.4286076521
 20
88512.25466056538
 10
998159.6489588713
 20
88512.25466056538
 10
998159.6489588713
 20
88361.35658438384
 10
998440.458030889
 20
88361.35658438384
 10
998440.458030889
 20
88301.11526718241
 10
998440.458030889
 20
88163.2960488318
 10
998605.7086226438
 20
88163.29604883469
  0
LWPOLYLINE
  5
117
330
17
100
AcDbEntity
  8
BAR-GAL
 62
1
370
13
100
AcDbPolyline
 90
29
 70
1
 10
998159.6489588713
 20
88696.92261232616
 10
998540.4286076521
 20
88696.92261232616
 10
998607.5568950631
 20
88696.26779696872
 10
998606.0994678171
 20
89166.5524557253
 10
997966.6396109557
 20
89166.5524557253
 10
997966.6396109557
 20
89165.91566968473
 10
997506.6396109555
 20
89165.91566968473
 10
997208.0013913607
 20
89166.54444679731
 10
997208.0013913607
 20
88356.98403021425
 10
997527.6142300302
 20
88356.98403021425
 10
997527.6142300302
 20
88236.98403021425
 10
997698.0013913605
 20
88236.98403021425
 10
997698.0013913605
 20
87596.98403021425
 10
997821.6629776788
 20
87596.98403021425
 10
997822.248110056
 20
87281.89549882198
 10
998605.6603032537
 20
87281.89549882198
 10
998605.7086226438
 20
87730.5056459507
 10
998605.7086226438
 20
88163.29604883469
 10
998440.458030889
 20
88163.2960488318
 10
998440.458030889
 20
87912.40221036311
 10
998441.3963407968
 20
87912.40221036311
 10
998441.3963407968
 20
87857.6387493657
 10
998159.6489588713
 20
87857.6387493657
 10
998159.6489588713
 20
87912.40221036311
 10
998159.6489588713
 20
88301.11526718241
 10
998158.3552338877
 20
88301.11526718241
 10
998157.6770715982
 20
88302.11526718244
 10
998158.3552338877
 20
88302.11526718244
 10
998158.3552338877
 20
88361.35658438384
  0
DIMENSION
  5
118
330
17
100
AcDbEntity
  8
VP
370
13
100
AcDbDimension
280
0
  2
*D14
  3
ISO-25
 10
999038.208814437
 20
87284.58141380649
 30
0.0
 11
999012.891624805
 21
88227.2052908008
 31
0.0
 70
32
 71
5
 42
1885.247753989228
 73
0
 74
0
 75
0
100
AcDbAlignedDimension
 13
998605.218661781
 23
89169.82916779567
 33
0.0
 14
998609.6637794304
 24
87284.58141380645
 34
0.0
 50
90.0
100
AcDbRotatedDimension
  0
DIMENSION
  5
125
330
17
100
AcDbEntity
  8
VP
370
13
100
AcDbDimension
280
0
  2
*D15
  3
ISO-25
 10
997039.6439694455
 20
87285.98403021431
 30
0.0
 11
997014.3165478901
 21
87441.48403021402
 31
0.0
 70
32
 71
5
 42
311.0
 73
0
 74
0
 75
0
100
AcDbAlignedDimension
 13
997329.3648031912
 23
87596.98403021427
 33
0.0
 14
997329.3648031912
 24
87285.98403021428
 34
0.0
 50
90.0
100
AcDbRotatedDimension
  0
DIMENSION
  5
132
102
{ACAD_XDICTIONARY
360
133
102
}
330
17
100
AcDbEntity
  8
VP
370
13
100
AcDbDimension
280
0
  2
*D16
  3
ISO-25
 10
997563.701784365
 20
87316.72691678705
 30
0.0
 11
997693.7642722772
 21
87342.04410641869
 31
0.0
 70
32
 71
5
 42
260.124975824263
 73
0
 74
0
 75
0
100
AcDbAlignedDimension
 13
997823.8267601893
 23
87281.89843044028
 33
0.0
 14
997563.701784365
 24
87281.89696463113
 34
0.0
 50
0.0
100
AcDbRotatedDimension
  0
MTEXT
  5
140
330
17
100
AcDbEntity
  8
VP
370
13
100
AcDbMText
 10
997907.8264802815
 20
88913.59363610597
 30
0.0
 40
59.201694284898
 41
262.1310489581865
 46
0.0
 71
1
  1
17647
  0
TEXT
  5
141
330
17
100
AcDbEntity
  8
0
100
AcDbText
 10
997705.8615719535
 20
88560.03811391121
 30
0.0
 40
59.201694284898
  1
21 דירה
100
AcDbText
  0
ENDSEC
  0
SECTION
  2
OBJECTS
  0
DICTIONARY
  5
A
330
0
100
AcDbDictionary
281
1
  3
ACAD_COLOR
350
B
  3
ACAD_GROUP
350
C
  3
ACAD_LAYOUT
350
D
  3
ACAD_MATERIAL
350
E
  3
ACAD_MLEADERSTYLE
350
F
  3
ACAD_MLINESTYLE
350
10
  3
ACAD_PLOTSETTINGS
350
11
  3
ACAD_PLOTSTYLENAME
350
12
  3
ACAD_SCALELIST
350
14
  3
ACAD_TABLESTYLE
350
15
  3
ACAD_VISUALSTYLE
350
16
  3
EZDXF_META
350
2D
  0
DICTIONARY
  5
B
330
A
100
AcDbDictionary
281
1
  0
DICTIONARY
  5
C
330
A
100
AcDbDictionary
281
1
  0
DICTIONARY
  5
D
330
A
100
AcDbDictionary
281
1
  3
Model
350
1A
  3
Layout1
350
1E
  0
DICTIONARY
  5
E
330
A
100
AcDbDictionary
281
1
  3
ByBlock
350
1F
  3
ByLayer
350
20
  3
Global
350
21
  0
DICTIONARY
  5
F
330
A
100
AcDbDictionary
281
1
  3
Standard
350
2C
  0
DICTIONARY
  5
10
330
A
100
AcDbDictionary
281
1
  3
Standard
350
22
  0
DICTIONARY
  5
11
330
A
100
AcDbDictionary
281
1
  0
ACDBDICTIONARYWDFLT
  5
12
330
A
100
AcDbDictionary
281
1
  3
Normal
350
13
100
AcDbDictionaryWithDefault
340
13
  0
ACDBPLACEHOLDER
  5
13
330
12
  0
DICTIONARY
  5
14
330
A
100
AcDbDictionary
281
1
  0
DICTIONARY
  5
15
330
A
100
AcDbDictionary
281
1
  0
DICTIONARY
  5
16
330
A
100
AcDbDictionary
281
1
  0
LAYOUT
  5
1A
330
D
100
AcDbPlotSettings
  1

  4
A3
  6

 40
7.5
 41
20.0
 42
7.5
 43
20.0
 44
420.0
 45
297.0
 46
0.0
 47
0.0
 48
0.0
 49
0.0
140
0.0
141
0.0
142
1.0
143
1.0
 70
1024
 72
1
 73
0
 74
5
  7

 75
16
 76
0
 77
2
 78
300
147
1.0
148
0.0
149
0.0
100
AcDbLayout
  1
Model
 70
1
 71
0
 10
0.0
 20
0.0
 11
420.0
 21
297.0
 12
0.0
 22
0.0
 32
0.0
 14
1e+20
 24
1e+20
 34
1e+20
 15
-1e+20
 25
-1e+20
 35
-1e+20
146
0.0
 13
0.0
 23
0.0
 33
0.0
 16
1.0
 26
0.0
 36
0.0
 17
0.0
 27
1.0
 37
0.0
 76
1
330
17
  0
LAYOUT
  5
1E
330
D
100
AcDbPlotSettings
  1

  4
A3
  6

 40
7.5
 41
20.0
 42
7.5
 43
20.0
 44
420.0
 45
297.0
 46
0.0
 47
0.0
 48
0.0
 49
0.0
140
0.0
141
0.0
142
1.0
143
1.0
 70
0
 72
1
 73
0
 74
5
  7

 75
16
 76
0
 77
2
 78
300
147
1.0
148
0.0
149
0.0
100
AcDbLayout
  1
Layout1
 70
1
 71
1
 10
0.0
 20
0.0
 11
420.0
 21
297.0
 12
0.0
 22
0.0
 32
0.0
 14
1e+20
 24
1e+20
 34
1e+20
 15
-1e+20
 25
-1e+20
 35
-1e+20
146
0.0
 13
0.0
 23
0.0
 33
0.0
 16
1.0
 26
0.0
 36
0.0
 17
0.0
 27
1.0
 37
0.0
 76
1
330
1B
  0
MATERIAL
  5
1F
102
{ACAD_REACTORS
330
E
102
}
330
E
100
AcDbMaterial
  1
ByBlock
  2

 70
0
 40
1.0
 71
1
 41
1.0
 91
-1023410177
 42
1.0
 72
1
  3

 73
1
 74
1
 75
1
 44
0.5
 73
0
 45
1.0
 46
1.0
 77
1
  4

 78
1
 79
1
170
1
 48
1.0
171
1
  6

172
1
173
1
174
1
140
1.0
141
1.0
175
1
  7

176
1
177
1
178
1
143
1.0
179
1
  8

270
1
271
1
272
1
145
1.0
146
1.0
273
1
  9

274
1
275
1
276
1
 42
1.0
 72
1
  3

 73
1
 74
1
 75
1
 94
63
  0
MATERIAL
  5
20
102
{ACAD_REACTORS
330
E
102
}
330
E
100
AcDbMaterial
  1
ByLayer
  2

 70
0
 40
1.0
 71
1
 41
1.0
 91
-1023410177
 42
1.0
 72
1
  3

 73
1
 74
1
 75
1
 44
0.5
 73
0
 45
1.0
 46
1.0
 77
1
  4

 78
1
 79
1
170
1
 48
1.0
171
1
  6

172
1
173
1
174
1
140
1.0
141
1.0
175
1
  7

176
1
177
1
178
1
143
1.0
179
1
  8

270
1
271
1
272
1
145
1.0
146
1.0
273
1
  9

274
1
275
1
276
1
 42
1.0
 72
1
  3

 73
1
 74
1
 75
1
 94
63
  0
MATERIAL
  5
21
102
{ACAD_REACTORS
330
E
102
}
330
E
100
AcDbMaterial
  1
Global
  2

 70
0
 40
1.0
 71
1
 41
1.0
 91
-1023410177
 42
1.0
 72
1
  3

 73
1
 74
1
 75
1
 44
0.5
 73
0
 45
1.0
 46
1.0
 77
1
  4

 78
1
 79
1
170
1
 48
1.0
171
1
  6

172
1
173
1
174
1
140
1.0
141
1.0
175
1
  7

176
1
177
1
178
1
143
1.0
179
1
  8

270
1
271
1
272
1
145
1.0
146
1.0
273
1
  9

274
1
275
1
276
1
 42
1.0
 72
1
  3

 73
1
 74
1
 75
1
 94
63
  0
MLINESTYLE
  5
22
102
{ACAD_REACTORS
330
10
102
}
330
10
100
AcDbMlineStyle
  2
Standard
 70
0
  3

 62
256
 51
90.0
 52
90.0
 71
2
 49
0.5
 62
256
  6
BYLAYER
 49
-0.5
 62
256
  6
BYLAYER
  0
MLEADERSTYLE
  5
2C
102
{ACAD_REACTORS
330
F
102
}
330
F
100
AcDbMLeaderStyle
179
2
170
2
171
1
172
0
 90
2
 40
0.0
 41
0.0
173
1
 91
-1056964608
 92
-2
290
1
 42
2.0
291
1
 43
8.0
  3
Standard
 44
4.0
300

342
29
174
1
175
1
176
0
178
1
 93
-1056964608
 45
4.0
292
0
297
0
 46
4.0
 94
-1056964608
 47
1.0
 49
1.0
140
1.0
294
1
141
0.0
177
0
142
1.0
295
0
296
0
143
3.75
271
0
272
9
273
9
  0
DICTIONARY
  5
2D
330
A
100
AcDbDictionary
280
1
281
1
  3
CREATED_BY_EZDXF
350
2E
  3
WRITTEN_BY_EZDXF
350
144
  0
DICTIONARYVAR
  5
2E
330
2D
100
DictionaryVariables
280
0
  1
1.4.3 @ 2026-05-15T06:57:54.280417+00:00
  0
DICTIONARY
  5
4B
330
4A
100
AcDbDictionary
280
1
281
1
  0
DICTIONARY
  5
59
330
58
100
AcDbDictionary
280
1
281
1
  0
DICTIONARY
  5
69
330
68
100
AcDbDictionary
280
1
281
1
  0
DICTIONARY
  5
8B
330
8A
100
AcDbDictionary
280
1
281
1
  0
DICTIONARY
  5
C3
330
C2
100
AcDbDictionary
280
1
281
1
  0
DICTIONARY
  5
133
330
132
100
AcDbDictionary
280
1
281
1
  0
DICTIONARYVAR
  5
144
330
2D
100
DictionaryVariables
280
0
  1
1.4.3 @ 2026-05-15T06:57:54.301632+00:00
  0
ENDSEC
  0
EOF
