  0
SECTION
  2
HEADER
  9
$ACADVER
  1
AC1032
  9
$ACADMAINTVER
 90
4
  9
$DWGCODEPAGE
  3
ANSI_1252
  9
$LASTSAVEDBY
  1
ezdxf
  9
$REQUIREDVERSIONS
160
0
  9
$INSBASE
 10
0.0
 20
0.0
 30
0.0
  9
$EXTMIN
 10
1e+20
 20
1e+20
 30
1e+20
  9
$EXTMAX
 10
-1e+20
 20
-1e+20
 30
-1e+20
  9
$LIMMIN
 10
0.0
 20
0.0
  9
$LIMMAX
 10
420.0
 20
297.0
  9
$ORTHOMODE
 70
0
  9
$REGENMODE
 70
1
  9
$FILLMODE
 70
1
  9
$QTEXTMODE
 70
0
  9
$MIRRTEXT
 70
1
  9
$LTSCALE
 40
1.0
  9
$ATTMODE
 70
1
  9
$TEXTSIZE
 40
2.5
  9
$TRACEWID
 40
1.0
  9
$TEXTSTYLE
  7
Standard
  9
$CLAYER
  8
0
  9
$CELTYPE
  6
ByLayer
  9
$CECOLOR
 62
256
  9
$CELTSCALE
 40
1.0
  9
$DISPSILH
 70
0
  9
$DIMSCALE
 40
1.0
  9
$DIMASZ
 40
2.5
  9
$DIMEXO
 40
0.625
  9
$DIMDLI
 40
3.75
  9
$DIMRND
 40
0.0
  9
$DIMDLE
 40
0.0
  9
$DIMEXE
 40
1.25
  9
$DIMTP
 40
0.0
  9
$DIMTM
 40
0.0
  9
$DIMTXT
 40
2.5
  9
$DIMCEN
 40
2.5
  9
$DIMTSZ
 40
0.0
  9
$DIMTOL
 70
0
  9
$DIMLIM
 70
0
  9
$DIMTIH
 70
0
  9
$DIMTOH
 70
0
  9
$DIMSE1
 70
0
  9
$DIMSE2
 70
0
  9
$DIMTAD
 70
1
  9
$DIMZIN
 70
8
  9
$DIMBLK
  1

  9
$DIMASO
 70
1
  9
$DIMSHO
 70
1
  9
$DIMPOST
  1

  9
$DIMAPOST
  1

  9
$DIMALT
 70
0
  9
$DIMALTD
 70
3
  9
$DIMALTF
 40
0.03937007874
  9
$DIMLFAC
 40
1.0
  9
$DIMTOFL
 70
1
  9
$DIMTVP
 40
0.0
  9
$DIMTIX
 70
0
  9
$DIMSOXD
 70
0
  9
$DIMSAH
 70
0
  9
$DIMBLK1
  1

  9
$DIMBLK2
  1

  9
$DIMSTYLE
  2
ISO-25
  9
$DIMCLRD
 70
0
  9
$DIMCLRE
 70
0
  9
$DIMCLRT
 70
0
  9
$DIMTFAC
 40
1.0
  9
$DIMGAP
 40
0.625
  9
$DIMJUST
 70
0
  9
$DIMSD1
 70
0
  9
$DIMSD2
 70
0
  9
$DIMTOLJ
 70
0
  9
$DIMTZIN
 70
8
  9
$DIMALTZ
 70
0
  9
$DIMALTTZ
 70
0
  9
$DIMUPT
 70
0
  9
$DIMDEC
 70
2
  9
$DIMTDEC
 70
2
  9
$DIMALTU
 70
2
  9
$DIMALTTD
 70
3
  9
$DIMTXSTY
  7
Standard
  9
$DIMAUNIT
 70
0
  9
$DIMADEC
 70
0
  9
$DIMALTRND
 40
0.0
  9
$DIMAZIN
 70
0
  9
$DIMDSEP
 70
44
  9
$DIMATFIT
 70
3
  9
$DIMFRAC
 70
0
  9
$DIMLDRBLK
  1

  9
$DIMLUNIT
 70
2
  9
$DIMLWD
 70
-2
  9
$DIMLWE
 70
-2
  9
$DIMTMOVE
 70
0
  9
$DIMFXL
 40
1.0
  9
$DIMFXLON
 70
0
  9
$DIMJOGANG
 40
0.785398163397
  9
$DIMTFILL
 70
0
  9
$DIMTFILLCLR
 70
0
  9
$DIMARCSYM
 70
0
  9
$DIMLTYPE
  6

  9
$DIMLTEX1
  6

  9
$DIMLTEX2
  6

  9
$DIMTXTDIRECTION
 70
0
  9
$LUNITS
 70
2
  9
$LUPREC
 70
4
  9
$SKETCHINC
 40
1.0
  9
$FILLETRAD
 40
10.0
  9
$AUNITS
 70
0
  9
$AUPREC
 70
2
  9
$MENU
  1
.
  9
$ELEVATION
 40
0.0
  9
$PELEVATION
 40
0.0
  9
$THICKNESS
 40
0.0
  9
$LIMCHECK
 70
0
  9
$CHAMFERA
 40
0.0
  9
$CHAMFERB
 40
0.0
  9
$CHAMFERC
 40
0.0
  9
$CHAMFERD
 40
0.0
  9
$SKPOLY
 70
0
  9
$TDCREATE
 40
2461176.290208333
  9
$TDUCREATE
 40
2458532.153996898
  9
$TDUPDATE
 40
2461176.290208333
  9
$TDUUPDATE
 40
2458532.1544311
  9
$TDINDWG
 40
0.0
  9
$TDUSRTIMER
 40
0.0
  9
$USRTIMER
 70
1
  9
$ANGBASE
 50
0.0
  9
$ANGDIR
 70
0
  9
$PDMODE
 70
0
  9
$PDSIZE
 40
0.0
  9
$PLINEWID
 40
0.0
  9
$SPLFRAME
 70
0
  9
$SPLINETYPE
 70
6
  9
$SPLINESEGS
 70
8
  9
$HANDSEED
  5
1BB
  9
$SURFTAB1
 70
6
  9
$SURFTAB2
 70
6
  9
$SURFTYPE
 70
6
  9
$SURFU
 70
6
  9
$SURFV
 70
6
  9
$UCSBASE
  2

  9
$UCSNAME
  2

  9
$UCSORG
 10
0.0
 20
0.0
 30
0.0
  9
$UCSXDIR
 10
1.0
 20
0.0
 30
0.0
  9
$UCSYDIR
 10
0.0
 20
1.0
 30
0.0
  9
$UCSORTHOREF
  2

  9
$UCSORTHOVIEW
 70
0
  9
$UCSORGTOP
 10
0.0
 20
0.0
 30
0.0
  9
$UCSORGBOTTOM
 10
0.0
 20
0.0
 30
0.0
  9
$UCSORGLEFT
 10
0.0
 20
0.0
 30
0.0
  9
$UCSORGRIGHT
 10
0.0
 20
0.0
 30
0.0
  9
$UCSORGFRONT
 10
0.0
 20
0.0
 30
0.0
  9
$UCSORGBACK
 10
0.0
 20
0.0
 30
0.0
  9
$PUCSBASE
  2

  9
$PUCSNAME
  2

  9
$PUCSORG
 10
0.0
 20
0.0
 30
0.0
  9
$PUCSXDIR
 10
1.0
 20
0.0
 30
0.0
  9
$PUCSYDIR
 10
0.0
 20
1.0
 30
0.0
  9
$PUCSORTHOREF
  2

  9
$PUCSORTHOVIEW
 70
0
  9
$PUCSORGTOP
 10
0.0
 20
0.0
 30
0.0
  9
$PUCSORGBOTTOM
 10
0.0
 20
0.0
 30
0.0
  9
$PUCSORGLEFT
 10
0.0
 20
0.0
 30
0.0
  9
$PUCSORGRIGHT
 10
0.0
 20
0.0
 30
0.0
  9
$PUCSORGFRONT
 10
0.0
 20
0.0
 30
0.0
  9
$PUCSORGBACK
 10
0.0
 20
0.0
 30
0.0
  9
$USERI1
 70
0
  9
$USERI2
 70
0
  9
$USERI3
 70
0
  9
$USERI4
 70
0
  9
$USERI5
 70
0
  9
$USERR1
 40
0.0
  9
$USERR2
 40
0.0
  9
$USERR3
 40
0.0
  9
$USERR4
 40
0.0
  9
$USERR5
 40
0.0
  9
$WORLDVIEW
 70
1
  9
$SHADEDGE
 70
3
  9
$SHADEDIF
 70
70
  9
$TILEMODE
 70
1
  9
$MAXACTVP
 70
64
  9
$PINSBASE
 10
0.0
 20
0.0
 30
0.0
  9
$PLIMCHECK
 70
0
  9
$PEXTMIN
 10
1e+20
 20
1e+20
 30
1e+20
  9
$PEXTMAX
 10
-1e+20
 20
-1e+20
 30
-1e+20
  9
$PLIMMIN
 10
0.0
 20
0.0
  9
$PLIMMAX
 10
420.0
 20
297.0
  9
$UNITMODE
 70
0
  9
$VISRETAIN
 70
1
  9
$PLINEGEN
 70
0
  9
$PSLTSCALE
 70
1
  9
$TREEDEPTH
 70
3020
  9
$CMLSTYLE
  2
Standard
  9
$CMLJUST
 70
0
  9
$CMLSCALE
 40
20.0
  9
$PROXYGRAPHICS
 70
1
  9
$MEASUREMENT
 70
1
  9
$CELWEIGHT
370
-1
  9
$ENDCAPS
280
0
  9
$JOINSTYLE
280
0
  9
$LWDISPLAY
290
0
  9
$INSUNITS
 70
6
  9
$HYPERLINKBASE
  1

  9
$STYLESHEET
  1

  9
$XEDIT
290
1
  9
$CEPSNTYPE
380
0
  9
$PSTYLEMODE
290
1
  9
$FINGERPRINTGUID
  2
{45C0B5FB-4F58-4B29-A8A8-B26EFBF16EE9}
  9
$VERSIONGUID
  2
{1CF5E4E0-9FD3-474C-9F16-9DC401684D79}
  9
$EXTNAMES
290
1
  9
$PSVPSCALE
 40
0.0
  9
$OLESTARTUP
290
0
  9
$SORTENTS
280
127
  9
$INDEXCTL
280
0
  9
$HIDETEXT
280
1
  9
$XCLIPFRAME
280
1
  9
$HALOGAP
280
0
  9
$OBSCOLOR
 70
257
  9
$OBSLTYPE
280
0
  9
$INTERSECTIONDISPLAY
280
0
  9
$INTERSECTIONCOLOR
 70
257
  9
$DIMASSOC
280
2
  9
$PROJECTNAME
  1

  9
$CAMERADISPLAY
290
0
  9
$LENSLENGTH
 40
50.0
  9
$CAMERAHEIGHT
 40
0.0
  9
$STEPSPERSEC
 40
24.0
  9
$STEPSIZE
 40
100.0
  9
$3DDWFPREC
 40
2.0
  9
$PSOLWIDTH
 40
0.005
  9
$PSOLHEIGHT
 40
0.08
  9
$LOFTANG1
 40
1.570796326795
  9
$LOFTANG2
 40
1.570796326795
  9
$LOFTMAG1
 40
0.0
  9
$LOFTMAG2
 40
0.0
  9
$LOFTPARAM
 70
7
  9
$LOFTNORMALS
280
1
  9
$LATITUDE
 40
37.795
  9
$LONGITUDE
 40
-122.394
  9
$NORTHDIRECTION
 40
0.0
  9
$TIMEZONE
 70
-8000
  9
$LIGHTGLYPHDISPLAY
280
1
  9
$TILEMODELIGHTSYNCH
280
1
  9
$CMATERIAL
347
20
  9
$SOLIDHIST
280
0
  9
$SHOWHIST
280
1
  9
$DWFFRAME
280
2
  9
$DGNFRAME
280
2
  9
$REALWORLDSCALE
290
1
  9
$INTERFERECOLOR
 62
256
  9
$CSHADOW
280
0
  9
$SHADOWPLANELOCATION
 40
0.0
  0
ENDSEC
  0
SECTION
  2
CLASSES
  0
CLASS
  1
ACDBDICTIONARYWDFLT
  2
AcDbDictionaryWithDefault
  3
ObjectDBX Classes
 90
0
 91
0
280
0
281
0
  0
CLASS
  1
SUN
  2
AcDbSun
  3
SCENEOE
 90
1153
 91
0
280
0
281
0
  0
CLASS
  1
VISUALSTYLE
  2
AcDbVisualStyle
  3
ObjectDBX Classes
 90
4095
 91
0
280
0
281
0
  0
CLASS
  1
MATERIAL
  2
AcDbMaterial
  3
ObjectDBX Classes
 90
1153
 91
0
280
0
281
0
  0
CLASS
  1
SCALE
  2
AcDbScale
  3
ObjectDBX Classes
 90
1153
 91
0
280
0
281
0
  0
CLASS
  1
TABLESTYLE
  2
AcDbTableStyle
  3
ObjectDBX Classes
 90
4095
 91
0
280
0
281
0
  0
CLASS
  1
MLEADERSTYLE
  2
AcDbMLeaderStyle
  3
ACDB_MLEADERSTYLE_CLASS
 90
4095
 91
0
280
0
281
0
  0
CLASS
  1
DICTIONARYVAR
  2
AcDbDictionaryVar
  3
ObjectDBX Classes
 90
0
 91
0
280
0
281
0
  0
CLASS
  1
CELLSTYLEMAP
  2
AcDbCellStyleMap
  3
ObjectDBX Classes
 90
1152
 91
0
280
0
281
0
  0
CLASS
  1
MENTALRAYRENDERSETTINGS
  2
AcDbMentalRayRenderSettings
  3
SCENEOE
 90
1024
 91
0
280
0
281
0
  0
CLASS
  1
ACDBDETAILVIEWSTYLE
  2
AcDbDetailViewStyle
  3
ObjectDBX Classes
 90
1025
 91
0
280
0
281
0
  0
CLASS
  1
ACDBSECTIONVIEWSTYLE
  2
AcDbSectionViewStyle
  3
ObjectDBX Classes
 90
1025
 91
0
280
0
281
0
  0
CLASS
  1
RASTERVARIABLES
  2
AcDbRasterVariables
  3
ISM
 90
0
 91
0
280
0
281
0
  0
CLASS
  1
LAYOUT
  2
AcDbLayout
  3
ObjectDBX Classes
 90
0
 91
0
280
0
281
0
  0
CLASS
  1
ACDBPLACEHOLDER
  2
AcDbPlaceHolder
  3
ObjectDBX Classes
 90
0
 91
0
280
0
281
0
  0
ENDSEC
  0
SECTION
  2
TABLES
  0
TABLE
  2
VPORT
  5
8
330
0
100
AcDbSymbolTable
 70
1
  0
VPORT
  5
23
330
8
100
AcDbSymbolTableRecord
100
AcDbViewportTableRecord
  2
*Active
 70
0
 10
0.0
 20
0.0
 11
1.0
 21
1.0
 12
0.0
 22
0.0
 13
0.0
 23
0.0
 14
0.5
 24
0.5
 15
0.5
 25
0.5
 16
0.0
 26
0.0
 36
1.0
 17
0.0
 27
0.0
 37
0.0
 40
1000.0
 41
1.34
 42
50.0
 43
0.0
 44
0.0
 50
0.0
 51
0.0
 71
0
 72
1000
 73
1
 74
3
 75
0
 76
0
 77
0
 78
0
281
0
 65
0
146
0.0
  0
ENDTAB
  0
TABLE
  2
LTYPE
  5
2
330
0
100
AcDbSymbolTable
 70
3
  0
LTYPE
  5
24
330
2
100
AcDbSymbolTableRecord
100
AcDbLinetypeTableRecord
  2
ByBlock
 70
0
  3

 72
65
 73
0
 40
0.0
  0
LTYPE
  5
25
330
2
100
AcDbSymbolTableRecord
100
AcDbLinetypeTableRecord
  2
ByLayer
 70
0
  3

 72
65
 73
0
 40
0.0
  0
LTYPE
  5
26
330
2
100
AcDbSymbolTableRecord
100
AcDbLinetypeTableRecord
  2
Continuous
 70
0
  3

 72
65
 73
0
 40
0.0
  0
ENDTAB
  0
TABLE
  2
LAYER
  5
1
330
0
100
AcDbSymbolTable
 70
7
  0
LAYER
  5
27
330
1
100
AcDbSymbolTableRecord
100
AcDbLayerTableRecord
  2
0
 70
0
 62
7
  6
Continuous
370
-3
390
13
347
21
  0
LAYER
  5
28
330
1
100
AcDbSymbolTableRecord
100
AcDbLayerTableRecord
  2
Defpoints
 70
0
 62
7
  6
Continuous
290
0
370
-3
390
13
347
21
  0
LAYER
  5
2F
330
1
100
AcDbSymbolTableRecord
100
AcDbLayerTableRecord
  2
MIKRA
 70
0
 62
7
  6
Continuous
370
-3
390
13
347
21
  0
LAYER
  5
30
330
1
100
AcDbSymbolTableRecord
100
AcDbLayerTableRecord
  2
kir
 70
0
 62
7
  6
Continuous
370
-3
390
13
347
21
  0
LAYER
  5
31
330
1
100
AcDbSymbolTableRecord
100
AcDbLayerTableRecord
  2
8
 70
0
 62
7
  6
Continuous
370
-3
390
13
347
21
  0
LAYER
  5
32
330
1
100
AcDbSymbolTableRecord
100
AcDbLayerTableRecord
  2
BAR-GAL
 70
0
 62
7
  6
Continuous
370
-3
390
13
347
21
  0
LAYER
  5
33
330
1
100
AcDbSymbolTableRecord
100
AcDbLayerTableRecord
  2
VP
 70
0
 62
-30
  6
Continuous
370
-3
390
13
347
21
  0
ENDTAB
  0
TABLE
  2
STYLE
  5
5
330
0
100
AcDbSymbolTable
 70
1
  0
STYLE
  5
29
330
5
100
AcDbSymbolTableRecord
100
AcDbTextStyleTableRecord
  2
Standard
 70
0
 40
0.0
 41
1.0
 50
0.0
 71
0
 42
2.5
  3
txt
  4

  0
ENDTAB
  0
TABLE
  2
VIEW
  5
7
330
0
100
AcDbSymbolTable
 70
0
  0
ENDTAB
  0
TABLE
  2
UCS
  5
6
330
0
100
AcDbSymbolTable
 70
0
  0
ENDTAB
  0
TABLE
  2
APPID
  5
3
330
0
100
AcDbSymbolTable
 70
3
  0
APPID
  5
2A
330
3
100
AcDbSymbolTableRecord
100
AcDbRegAppTableRecord
  2
ACAD
 70
0
  0
APPID
  5
1B8
330
3
100
AcDbSymbolTableRecord
100
AcDbRegAppTableRecord
  2
HATCHBACKGROUNDCOLOR
 70
0
  0
APPID
  5
1B9
330
3
100
AcDbSymbolTableRecord
100
AcDbRegAppTableRecord
  2
EZDXF
 70
0
  0
ENDTAB
  0
TABLE
  2
DIMSTYLE
  5
4
330
0
100
AcDbSymbolTable
 70
2
100
AcDbDimStyleTable
  0
DIMSTYLE
105
2B
330
4
100
AcDbSymbolTableRecord
100
AcDbDimStyleTableRecord
  2
Standard
 70
0
 40
1.0
 41
2.5
 42
0.625
 43
3.75
 44
1.25
 45
0.0
 46
0.0
 47
0.0
 48
0.0
 49
2.5
140
2.5
141
2.5
142
0.0
143
0.03937007874
144
1.0
145
0.0
146
1.0
147
0.625
148
0.0
 69
0
 70
0
 71
0
 72
0
 73
0
 74
0
 75
0
 76
0
 77
1
 78
8
 79
3
170
0
171
3
172
1
173
0
174
0
175
0
176
0
177
0
178
0
179
2
271
2
272
2
273
2
274
3
275
0
276
0
277
2
278
44
279
0
280
0
281
0
282
0
283
0
284
8
285
0
286
0
288
0
289
3
290
0
371
-2
372
-2
  0
DIMSTYLE
105
27
330
4
100
AcDbSymbolTableRecord
100
AcDbDimStyleTableRecord
  2
ISO-25
 70
0
 40
1.0
 41
30.0
 42
0.625
 43
3.75
 44
1.25
 45
0.0
 46
0.0
 47
0.0
 48
0.0
 49
2.5
140
30.0
141
2.5
142
0.0
143
0.03937007874016
144
1.0
145
0.0
146
1.0
147
10.0
148
0.0
 69
0
 70
0
 71
0
 72
0
 73
0
 74
0
 75
0
 76
0
 77
1
 78
8
 79
3
170
0
171
3
172
1
173
0
174
0
175
0
176
0
177
0
178
0
179
2
271
0
272
0
273
2
274
3
275
0
276
0
277
2
278
44
279
0
280
0
281
0
282
0
283
0
284
8
285
0
286
0
288
0
289
3
290
0
340
29
371
-2
372
-2
  0
ENDTAB
  0
TABLE
  2
BLOCK_RECORD
  5
9
330
0
100
AcDbSymbolTable
 70
26
  0
BLOCK_RECORD
  5
17
330
9
100
AcDbSymbolTableRecord
100
AcDbBlockTableRecord
  2
*Model_Space
340
1A
 70
0
280
1
281
0
  0
BLOCK_RECORD
  5
1B
330
9
100
AcDbSymbolTableRecord
100
AcDbBlockTableRecord
  2
*Paper_Space
340
1E
 70
0
280
1
281
0
  0
BLOCK_RECORD
  5
38
330
9
100
AcDbSymbolTableRecord
100
AcDbBlockTableRecord
  2
*D1
340
0
 70
0
280
1
281
0
  0
BLOCK_RECORD
  5
45
330
9
100
AcDbSymbolTableRecord
100
AcDbBlockTableRecord
  2
*D2
340
0
 70
0
280
1
281
0
  0
BLOCK_RECORD
  5
52
330
9
100
AcDbSymbolTableRecord
100
AcDbBlockTableRecord
  2
*D3
340
0
 70
0
280
1
281
0
  0
BLOCK_RECORD
  5
5F
330
9
100
AcDbSymbolTableRecord
100
AcDbBlockTableRecord
  2
*D4
340
0
 70
0
280
1
281
0
  0
BLOCK_RECORD
  5
6D
330
9
100
AcDbSymbolTableRecord
100
AcDbBlockTableRecord
  2
*D5
340
0
 70
0
280
1
281
0
  0
BLOCK_RECORD
  5
7A
330
9
100
AcDbSymbolTableRecord
100
AcDbBlockTableRecord
  2
*D6
340
0
 70
0
280
1
281
0
  0
BLOCK_RECORD
  5
87
330
9
100
AcDbSymbolTableRecord
100
AcDbBlockTableRecord
  2
*D7
340
0
 70
0
280
1
281
0
  0
BLOCK_RECORD
  5
94
330
9
100
AcDbSymbolTableRecord
100
AcDbBlockTableRecord
  2
*D8
340
0
 70
0
280
1
281
0
  0
BLOCK_RECORD
  5
A4
330
9
100
AcDbSymbolTableRecord
100
AcDbBlockTableRecord
  2
*D9
340
0
 70
0
280
1
281
0
  0
BLOCK_RECORD
  5
B2
330
9
100
AcDbSymbolTableRecord
100
AcDbBlockTableRecord
  2
*D10
340
0
 70
0
280
1
281
0
  0
BLOCK_RECORD
  5
E1
330
9
100
AcDbSymbolTableRecord
100
AcDbBlockTableRecord
  2
*D11
340
0
 70
0
280
1
281
0
  0
BLOCK_RECORD
  5
EE
330
9
100
AcDbSymbolTableRecord
100
AcDbBlockTableRecord
  2
*D12
340
0
 70
0
280
1
281
0
  0
BLOCK_RECORD
  5
105
330
9
100
AcDbSymbolTableRecord
100
AcDbBlockTableRecord
  2
*D13
340
0
 70
0
280
1
281
0
  0
BLOCK_RECORD
  5
113
330
9
100
AcDbSymbolTableRecord
100
AcDbBlockTableRecord
  2
*D14
340
0
 70
0
280
1
281
0
  0
BLOCK_RECORD
  5
120
330
9
100
AcDbSymbolTableRecord
100
AcDbBlockTableRecord
  2
*D15
340
0
 70
0
280
1
281
0
  0
BLOCK_RECORD
  5
12F
330
9
100
AcDbSymbolTableRecord
100
AcDbBlockTableRecord
  2
*D16
340
0
 70
0
280
1
281
0
  0
BLOCK_RECORD
  5
13C
330
9
100
AcDbSymbolTableRecord
100
AcDbBlockTableRecord
  2
*D17
340
0
 70
0
280
1
281
0
  0
BLOCK_RECORD
  5
14E
330
9
100
AcDbSymbolTableRecord
100
AcDbBlockTableRecord
  2
*D18
340
0
 70
0
280
1
281
0
  0
BLOCK_RECORD
  5
15B
330
9
100
AcDbSymbolTableRecord
100
AcDbBlockTableRecord
  2
*D19
340
0
 70
0
280
1
281
0
  0
BLOCK_RECORD
  5
168
330
9
100
AcDbSymbolTableRecord
100
AcDbBlockTableRecord
  2
*D20
340
0
 70
0
280
1
281
0
  0
BLOCK_RECORD
  5
17B
330
9
100
AcDbSymbolTableRecord
100
AcDbBlockTableRecord
  2
*D21
340
0
 70
0
280
1
281
0
  0
BLOCK_RECORD
  5
18A
330
9
100
AcDbSymbolTableRecord
100
AcDbBlockTableRecord
  2
*D22
340
0
 70
0
280
1
281
0
  0
BLOCK_RECORD
  5
198
330
9
100
AcDbSymbolTableRecord
100
AcDbBlockTableRecord
  2
*D23
340
0
 70
0
280
1
281
0
  0
BLOCK_RECORD
  5
1AC
330
9
100
AcDbSymbolTableRecord
100
AcDbBlockTableRecord
  2
*D24
340
0
 70
0
280
1
281
0
  0
ENDTAB
  0
ENDSEC
  0
SECTION
  2
BLOCKS
  0
BLOCK
  5
18
330
17
100
AcDbEntity
  8
0
100
AcDbBlockBegin
  2
*Model_Space
 70
0
 10
0.0
 20
0.0
 30
0.0
  3
*Model_Space
  1

  0
ENDBLK
  5
19
330
17
100
AcDbEntity
  8
0
100
AcDbBlockEnd
  0
BLOCK
  5
1C
330
1B
100
AcDbEntity
  8
0
100
AcDbBlockBegin
  2
*Paper_Space
 70
0
 10
0.0
 20
0.0
 30
0.0
  3
*Paper_Space
  1

  0
ENDBLK
  5
1D
330
1B
100
AcDbEntity
  8
0
100
AcDbBlockEnd
  0
BLOCK
  5
39
330
38
100
AcDbEntity
  8
0
100
AcDbBlockBegin
  2
*D1
 70
1
 10
0.0
 20
0.0
 30
0.0
  3
*D1
  1

  0
LINE
  5
3B
330
38
100
AcDbEntity
  8
VP
 62
0
370
-2
440
16777216
100
AcDbLine
 10
1033632.584126483
 20
89076.66525269373
 30
0.0
 11
1033483.854627976
 21
89076.66525269373
 31
0.0
  0
LINE
  5
3C
330
38
100
AcDbEntity
  8
VP
 62
0
370
-2
440
16777216
100
AcDbLine
 10
1033632.584126483
 20
89236.68315590633
 30
0.0
 11
1033483.854627976
 21
89236.68315590633
 31
0.0
  0
LINE
  5
3D
330
38
100
AcDbEntity
  8
VP
 62
0
370
-2
440
16777216
100
AcDbLine
 10
1033485.104627976
 20
89106.66525269373
 30
0.0
 11
1033485.104627976
 21
89206.68315590633
 31
0.0
  0
SOLID
  5
3E
330
38
100
AcDbEntity
  8
VP
 62
0
370
13
440
16777216
100
AcDbTrace
 10
1033480.104627976
 20
89106.66525269373
 30
0.0
 11
1033490.104627976
 21
89106.66525269373
 31
0.0
 12
1033485.104627976
 22
89076.66525269373
 32
0.0
 13
1033485.104627976
 23
89076.66525269373
 33
0.0
  0
SOLID
  5
3F
330
38
100
AcDbEntity
  8
VP
 62
0
370
13
440
16777216
100
AcDbTrace
 10
1033480.104627976
 20
89206.68315590633
 30
0.0
 11
1033490.104627976
 21
89206.68315590633
 31
0.0
 12
1033485.104627976
 22
89236.68315590633
 32
0.0
 13
1033485.104627976
 23
89236.68315590633
 33
0.0
  0
MTEXT
  5
40
330
38
100
AcDbEntity
  8
VP
 62
0
370
13
440
16777216
100
AcDbMText
 10
1033459.787438344
 20
89156.67420429972
 30
0.0
 40
30.0
 41
0.0
 46
0.0
 71
5
  1
160
 11
1e-16
 21
1.0
 31
0.0
  0
POINT
  5
41
330
38
100
AcDbEntity
  8
Defpoints
 62
0
370
13
440
16777216
100
AcDbPoint
 10
1033633.209126483
 20
89076.66525269373
 30
0.0
  0
POINT
  5
42
330
38
100
AcDbEntity
  8
Defpoints
 62
0
370
13
440
16777216
100
AcDbPoint
 10
1033633.209126483
 20
89236.68315590633
 30
0.0
  0
POINT
  5
43
330
38
100
AcDbEntity
  8
Defpoints
 62
0
370
13
440
16777216
100
AcDbPoint
 10
1033485.104627976
 20
89236.68315590633
 30
0.0
  0
ENDBLK
  5
3A
330
38
100
AcDbEntity
  8
0
100
AcDbBlockEnd
  0
BLOCK
  5
46
330
45
100
AcDbEntity
  8
0
100
AcDbBlockBegin
  2
*D2
 70
1
 10
0.0
 20
0.0
 30
0.0
  3
*D2
  1

  0
LINE
  5
48
330
45
100
AcDbEntity
  8
VP
 62
0
370
-2
440
16777216
100
AcDbLine
 10
1033631.584126483
 20
89076.66525269373
 30
0.0
 11
1033483.39976372
 21
89076.66525269373
 31
0.0
  0
LINE
  5
49
330
45
100
AcDbEntity
  8
VP
 62
0
370
-2
440
16777216
100
AcDbLine
 10
1033631.584126483
 20
88142.38528000683
 30
0.0
 11
1033483.39976372
 21
88142.38528000683
 31
0.0
  0
LINE
  5
4A
330
45
100
AcDbEntity
  8
VP
 62
0
370
-2
440
16777216
100
AcDbLine
 10
1033484.64976372
 20
89046.66525269373
 30
0.0
 11
1033484.64976372
 21
88172.38528000683
 31
0.0
  0
SOLID
  5
4B
330
45
100
AcDbEntity
  8
VP
 62
0
370
13
440
16777216
100
AcDbTrace
 10
1033479.64976372
 20
89046.66525269373
 30
0.0
 11
1033489.64976372
 21
89046.66525269373
 31
0.0
 12
1033484.64976372
 22
89076.66525269373
 32
0.0
 13
1033484.64976372
 23
89076.66525269373
 33
0.0
  0
SOLID
  5
4C
330
45
100
AcDbEntity
  8
VP
 62
0
370
13
440
16777216
100
AcDbTrace
 10
1033479.64976372
 20
88172.38528000683
 30
0.0
 11
1033489.64976372
 21
88172.38528000683
 31
0.0
 12
1033484.64976372
 22
88142.38528000683
 32
0.0
 13
1033484.64976372
 23
88142.38528000683
 33
0.0
  0
MTEXT
  5
4D
330
45
100
AcDbEntity
  8
VP
 62
0
370
13
440
16777216
100
AcDbMText
 10
1033459.322342165
 20
88609.52526634997
 30
0.0
 40
30.0
 41
0.0
 46
0.0
 71
5
  1
934
 11
1e-16
 21
1.0
 31
0.0
  0
POINT
  5
4E
330
45
100
AcDbEntity
  8
Defpoints
 62
0
370
13
440
16777216
100
AcDbPoint
 10
1033632.209126483
 20
89076.66525269373
 30
0.0
  0
POINT
  5
4F
330
45
100
AcDbEntity
  8
Defpoints
 62
0
370
13
440
16777216
100
AcDbPoint
 10
1033632.209126483
 20
88142.38528000683
 30
0.0
  0
POINT
  5
50
330
45
100
AcDbEntity
  8
Defpoints
 62
0
370
13
440
16777216
100
AcDbPoint
 10
1033484.64976372
 20
88142.38528000683
 30
0.0
  0
ENDBLK
  5
47
330
45
100
AcDbEntity
  8
0
100
AcDbBlockEnd
  0
BLOCK
  5
53
330
52
100
AcDbEntity
  8
0
100
AcDbBlockBegin
  2
*D3
 70
1
 10
0.0
 20
0.0
 30
0.0
  3
*D3
  1

  0
LINE
  5
55
330
52
100
AcDbEntity
  8
VP
 62
0
370
-2
440
16777216
100
AcDbLine
 10
1034119.46341147
 20
88142.38528000683
 30
0.0
 11
1033483.399763721
 21
88142.38528000683
 31
0.0
  0
LINE
  5
56
330
52
100
AcDbEntity
  8
VP
 62
0
370
-2
440
16777216
100
AcDbLine
 10
1034119.606704833
 20
87502.31747707623
 30
0.0
 11
1033483.399763721
 21
87502.31747707623
 31
0.0
  0
LINE
  5
57
330
52
100
AcDbEntity
  8
VP
 62
0
370
-2
440
16777216
100
AcDbLine
 10
1033484.649763721
 20
88112.38528000683
 30
0.0
 11
1033484.649763721
 21
87532.31747707623
 31
0.0
  0
SOLID
  5
58
330
52
100
AcDbEntity
  8
VP
 62
0
370
13
440
16777216
100
AcDbTrace
 10
1033479.649763721
 20
88112.38528000683
 30
0.0
 11
1033489.649763721
 21
88112.38528000683
 31
0.0
 12
1033484.649763721
 22
88142.38528000683
 32
0.0
 13
1033484.649763721
 23
88142.38528000683
 33
0.0
  0
SOLID
  5
59
330
52
100
AcDbEntity
  8
VP
 62
0
370
13
440
16777216
100
AcDbTrace
 10
1033479.649763721
 20
87532.31747707623
 30
0.0
 11
1033489.649763721
 21
87532.31747707623
 31
0.0
 12
1033484.649763721
 22
87502.31747707623
 32
0.0
 13
1033484.649763721
 23
87502.31747707623
 33
0.0
  0
MTEXT
  5
5A
330
52
100
AcDbEntity
  8
VP
 62
0
370
13
440
16777216
100
AcDbMText
 10
1033459.332574089
 20
87822.35137854122
 30
0.0
 40
30.0
 41
0.0
 46
0.0
 71
5
  1
640
 11
1e-16
 21
1.0
 31
0.0
  0
POINT
  5
5B
330
52
100
AcDbEntity
  8
Defpoints
 62
0
370
13
440
16777216
100
AcDbPoint
 10
1034120.08841147
 20
88142.38528000683
 30
0.0
  0
POINT
  5
5C
330
52
100
AcDbEntity
  8
Defpoints
 62
0
370
13
440
16777216
100
AcDbPoint
 10
1034120.231704833
 20
87502.31747707623
 30
0.0
  0
POINT
  5
5D
330
52
100
AcDbEntity
  8
Defpoints
 62
0
370
13
440
16777216
100
AcDbPoint
 10
1033484.649763721
 20
87502.31747707623
 30
0.0
  0
ENDBLK
  5
54
330
52
100
AcDbEntity
  8
0
100
AcDbBlockEnd
  0
BLOCK
  5
60
330
5F
100
AcDbEntity
  8
0
100
AcDbBlockBegin
  2
*D4
 70
1
 10
0.0
 20
0.0
 30
0.0
  3
*D4
  1

  0
LINE
  5
62
330
5F
100
AcDbEntity
  8
VP
 62
0
370
-2
440
16777216
100
AcDbLine
 10
1033631.584126483
 20
87501.68566536959
 30
0.0
 11
1033483.399763721
 21
87501.68566536959
 31
0.0
  0
LINE
  5
63
330
5F
100
AcDbEntity
  8
VP
 62
0
370
-2
440
16777216
100
AcDbLine
 10
1033631.584126483
 20
87341.45758157918
 30
0.0
 11
1033483.399763721
 21
87341.45758157918
 31
0.0
  0
LINE
  5
64
330
5F
100
AcDbEntity
  8
VP
 62
0
370
-2
440
16777216
100
AcDbLine
 10
1033484.649763721
 20
87471.68566536959
 30
0.0
 11
1033484.649763721
 21
87371.45758157918
 31
0.0
  0
SOLID
  5
65
330
5F
100
AcDbEntity
  8
VP
 62
0
370
13
440
16777216
100
AcDbTrace
 10
1033479.649763721
 20
87471.68566536959
 30
0.0
 11
1033489.649763721
 21
87471.68566536959
 31
0.0
 12
1033484.649763721
 22
87501.68566536959
 32
0.0
 13
1033484.649763721
 23
87501.68566536959
 33
0.0
  0
SOLID
  5
66
330
5F
100
AcDbEntity
  8
VP
 62
0
370
13
440
16777216
100
AcDbTrace
 10
1033479.649763721
 20
87371.45758157918
 30
0.0
 11
1033489.649763721
 21
87371.45758157918
 31
0.0
 12
1033484.649763721
 22
87341.45758157918
 32
0.0
 13
1033484.649763721
 23
87341.45758157918
 33
0.0
  0
MTEXT
  5
67
330
5F
100
AcDbEntity
  8
VP
 62
0
370
13
440
16777216
100
AcDbMText
 10
1033459.332574089
 20
87421.57162347407
 30
0.0
 40
30.0
 41
0.0
 46
0.0
 71
5
  1
160
 11
1e-16
 21
1.0
 31
0.0
  0
POINT
  5
68
330
5F
100
AcDbEntity
  8
Defpoints
 62
0
370
13
440
16777216
100
AcDbPoint
 10
1033632.209126483
 20
87501.68566536959
 30
0.0
  0
POINT
  5
69
330
5F
100
AcDbEntity
  8
Defpoints
 62
0
370
13
440
16777216
100
AcDbPoint
 10
1033632.209126483
 20
87341.45758157918
 30
0.0
  0
POINT
  5
6A
330
5F
100
AcDbEntity
  8
Defpoints
 62
0
370
13
440
16777216
100
AcDbPoint
 10
1033484.649763721
 20
87341.45758157918
 30
0.0
  0
ENDBLK
  5
61
330
5F
100
AcDbEntity
  8
0
100
AcDbBlockEnd
  0
BLOCK
  5
6E
330
6D
100
AcDbEntity
  8
0
100
AcDbBlockBegin
  2
*D5
 70
1
 10
0.0
 20
0.0
 30
0.0
  3
*D5
  1

  0
LINE
  5
70
330
6D
100
AcDbEntity
  8
VP
 62
0
370
-2
440
16777216
100
AcDbLine
 10
1034120.08841147
 20
87501.69247707618
 30
0.0
 11
1034120.08841147
 21
87447.57631395102
 31
0.0
  0
LINE
  5
71
330
6D
100
AcDbEntity
  8
VP
 62
0
370
-2
440
16777216
100
AcDbLine
 10
1034460.231704833
 20
87501.63315640643
 30
0.0
 11
1034460.231704833
 21
87447.57631395102
 31
0.0
  0
LINE
  5
72
330
6D
100
AcDbEntity
  8
VP
 62
0
370
-2
440
16777216
100
AcDbLine
 10
1034150.08841147
 20
87448.82631395102
 30
0.0
 11
1034430.231704833
 21
87448.82631395102
 31
0.0
  0
SOLID
  5
73
330
6D
100
AcDbEntity
  8
VP
 62
0
370
13
440
16777216
100
AcDbTrace
 10
1034150.08841147
 20
87453.82631395102
 30
0.0
 11
1034150.08841147
 21
87443.82631395102
 31
0.0
 12
1034120.08841147
 22
87448.82631395102
 32
0.0
 13
1034120.08841147
 23
87448.82631395102
 33
0.0
  0
SOLID
  5
74
330
6D
100
AcDbEntity
  8
VP
 62
0
370
13
440
16777216
100
AcDbTrace
 10
1034430.231704833
 20
87453.82631395102
 30
0.0
 11
1034430.231704833
 21
87443.82631395102
 31
0.0
 12
1034460.231704833
 22
87448.82631395102
 32
0.0
 13
1034460.231704833
 23
87448.82631395102
 33
0.0
  0
MTEXT
  5
75
330
6D
100
AcDbEntity
  8
VP
 62
0
370
13
440
16777216
100
AcDbMText
 10
1034290.160058151
 20
87474.15373550628
 30
0.0
 40
30.0
 41
0.0
 46
0.0
 71
5
  1
340
  0
POINT
  5
76
330
6D
100
AcDbEntity
  8
Defpoints
 62
0
370
13
440
16777216
100
AcDbPoint
 10
1034120.08841147
 20
87502.31747707618
 30
0.0
  0
POINT
  5
77
330
6D
100
AcDbEntity
  8
Defpoints
 62
0
370
13
440
16777216
100
AcDbPoint
 10
1034460.231704833
 20
87502.25815640643
 30
0.0
  0
POINT
  5
78
330
6D
100
AcDbEntity
  8
Defpoints
 62
0
370
13
440
16777216
100
AcDbPoint
 10
1034460.231704833
 20
87448.82631395102
 30
0.0
  0
ENDBLK
  5
6F
330
6D
100
AcDbEntity
  8
0
100
AcDbBlockEnd
  0
BLOCK
  5
7B
330
7A
100
AcDbEntity
  8
0
100
AcDbBlockBegin
  2
*D6
 70
1
 10
0.0
 20
0.0
 30
0.0
  3
*D6
  1

  0
LINE
  5
7D
330
7A
100
AcDbEntity
  8
VP
 62
0
370
-2
440
16777216
100
AcDbLine
 10
1034460.231704833
 20
87342.08258157915
 30
0.0
 11
1034460.231704833
 21
87374.24022157546
 31
0.0
  0
LINE
  5
7E
330
7A
100
AcDbEntity
  8
VP
 62
0
370
-2
440
16777216
100
AcDbLine
 10
1034244.334977314
 20
87342.08258157915
 30
0.0
 11
1034244.334977314
 21
87374.24022157546
 31
0.0
  0
LINE
  5
7F
330
7A
100
AcDbEntity
  8
VP
 62
0
370
-2
440
16777216
100
AcDbLine
 10
1034430.231704833
 20
87372.99022157546
 30
0.0
 11
1034274.334977314
 21
87372.99022157546
 31
0.0
  0
SOLID
  5
80
330
7A
100
AcDbEntity
  8
VP
 62
0
370
13
440
16777216
100
AcDbTrace
 10
1034430.231704833
 20
87377.99022157546
 30
0.0
 11
1034430.231704833
 21
87367.99022157546
 31
0.0
 12
1034460.231704833
 22
87372.99022157546
 32
0.0
 13
1034460.231704833
 23
87372.99022157546
 33
0.0
  0
SOLID
  5
81
330
7A
100
AcDbEntity
  8
VP
 62
0
370
13
440
16777216
100
AcDbTrace
 10
1034274.334977314
 20
87377.99022157546
 30
0.0
 11
1034274.334977314
 21
87367.99022157546
 31
0.0
 12
1034244.334977314
 22
87372.99022157546
 32
0.0
 13
1034244.334977314
 23
87372.99022157546
 33
0.0
  0
MTEXT
  5
82
330
7A
100
AcDbEntity
  8
VP
 62
0
370
13
440
16777216
100
AcDbMText
 10
1034352.283341073
 20
87398.3074112071
 30
0.0
 40
30.0
 41
0.0
 46
0.0
 71
5
  1
216
  0
POINT
  5
83
330
7A
100
AcDbEntity
  8
Defpoints
 62
0
370
13
440
16777216
100
AcDbPoint
 10
1034460.231704833
 20
87341.45758157915
 30
0.0
  0
POINT
  5
84
330
7A
100
AcDbEntity
  8
Defpoints
 62
0
370
13
440
16777216
100
AcDbPoint
 10
1034244.334977314
 20
87341.45758157915
 30
0.0
  0
POINT
  5
85
330
7A
100
AcDbEntity
  8
Defpoints
 62
0
370
13
440
16777216
100
AcDbPoint
 10
1034244.334977314
 20
87372.99022157546
 30
0.0
  0
ENDBLK
  5
7C
330
7A
100
AcDbEntity
  8
0
100
AcDbBlockEnd
  0
BLOCK
  5
88
330
87
100
AcDbEntity
  8
0
100
AcDbBlockBegin
  2
*D7
 70
1
 10
0.0
 20
0.0
 30
0.0
  3
*D7
  1

  0
LINE
  5
8A
330
87
100
AcDbEntity
  8
VP
 62
0
370
-2
440
16777216
100
AcDbLine
 10
1033632.231704832
 20
88141.69247707618
 30
0.0
 11
1033632.231704832
 21
88076.08778288992
 31
0.0
  0
LINE
  5
8B
330
87
100
AcDbEntity
  8
VP
 62
0
370
-2
440
16777216
100
AcDbLine
 10
1034120.08841147
 20
88141.7602800068
 30
0.0
 11
1034120.08841147
 21
88076.08778288992
 31
0.0
  0
LINE
  5
8C
330
87
100
AcDbEntity
  8
VP
 62
0
370
-2
440
16777216
100
AcDbLine
 10
1033662.231704832
 20
88077.33778288992
 30
0.0
 11
1034090.08841147
 21
88077.33778288992
 31
0.0
  0
SOLID
  5
8D
330
87
100
AcDbEntity
  8
VP
 62
0
370
13
440
16777216
100
AcDbTrace
 10
1033662.231704832
 20
88082.33778288992
 30
0.0
 11
1033662.231704832
 21
88072.33778288992
 31
0.0
 12
1033632.231704832
 22
88077.33778288992
 32
0.0
 13
1033632.231704832
 23
88077.33778288992
 33
0.0
  0
SOLID
  5
8E
330
87
100
AcDbEntity
  8
VP
 62
0
370
13
440
16777216
100
AcDbTrace
 10
1034090.08841147
 20
88082.33778288992
 30
0.0
 11
1034090.08841147
 21
88072.33778288992
 31
0.0
 12
1034120.08841147
 22
88077.33778288992
 32
0.0
 13
1034120.08841147
 23
88077.33778288992
 33
0.0
  0
MTEXT
  5
8F
330
87
100
AcDbEntity
  8
VP
 62
0
370
13
440
16777216
100
AcDbMText
 10
1033876.160058151
 20
88102.65497252157
 30
0.0
 40
30.0
 41
0.0
 46
0.0
 71
5
  1
488
  0
POINT
  5
90
330
87
100
AcDbEntity
  8
Defpoints
 62
0
370
13
440
16777216
100
AcDbPoint
 10
1033632.231704832
 20
88142.31747707618
 30
0.0
  0
POINT
  5
91
330
87
100
AcDbEntity
  8
Defpoints
 62
0
370
13
440
16777216
100
AcDbPoint
 10
1034120.08841147
 20
88142.3852800068
 30
0.0
  0
POINT
  5
92
330
87
100
AcDbEntity
  8
Defpoints
 62
0
370
13
440
16777216
100
AcDbPoint
 10
1034120.08841147
 20
88077.33778288992
 30
0.0
  0
ENDBLK
  5
89
330
87
100
AcDbEntity
  8
0
100
AcDbBlockEnd
  0
BLOCK
  5
95
330
94
100
AcDbEntity
  8
0
100
AcDbBlockBegin
  2
*D8
 70
1
 10
0.0
 20
0.0
 30
0.0
  3
*D8
  1

  0
LINE
  5
97
330
94
100
AcDbEntity
  8
VP
 62
0
370
-2
440
16777216
100
AcDbLine
 10
1033632.584126483
 20
89236.68315590633
 30
0.0
 11
1033299.17827466
 21
89236.68315590633
 31
0.0
  0
LINE
  5
98
330
94
100
AcDbEntity
  8
VP
 62
0
370
-2
440
16777216
100
AcDbLine
 10
1033657.406493179
 20
86437.87159308881
 30
0.0
 11
1033299.17827466
 21
86437.87159308881
 31
0.0
  0
LINE
  5
99
330
94
100
AcDbEntity
  8
VP
 62
0
370
-2
440
16777216
100
AcDbLine
 10
1033300.42827466
 20
89206.68315590633
 30
0.0
 11
1033300.42827466
 21
86467.87159308881
 31
0.0
  0
SOLID
  5
9A
330
94
100
AcDbEntity
  8
VP
 62
0
370
13
440
16777216
100
AcDbTrace
 10
1033295.42827466
 20
89206.68315590633
 30
0.0
 11
1033305.42827466
 21
89206.68315590633
 31
0.0
 12
1033300.42827466
 22
89236.68315590633
 32
0.0
 13
1033300.42827466
 23
89236.68315590633
 33
0.0
  0
SOLID
  5
9B
330
94
100
AcDbEntity
  8
VP
 62
0
370
13
440
16777216
100
AcDbTrace
 10
1033295.42827466
 20
86467.87159308881
 30
0.0
 11
1033305.42827466
 21
86467.87159308881
 31
0.0
 12
1033300.42827466
 22
86437.87159308881
 32
0.0
 13
1033300.42827466
 23
86437.87159308881
 33
0.0
  0
MTEXT
  5
9C
330
94
100
AcDbEntity
  8
VP
 62
0
370
13
440
16777216
100
AcDbMText
 10
1033275.111085028
 20
87837.27737449727
 30
0.0
 40
30.0
 41
0.0
 46
0.0
 71
5
  1
2799
 11
1e-16
 21
1.0
 31
0.0
  0
POINT
  5
9D
330
94
100
AcDbEntity
  8
Defpoints
 62
0
370
13
440
16777216
100
AcDbPoint
 10
1033633.209126483
 20
89236.68315590633
 30
0.0
  0
POINT
  5
9E
330
94
100
AcDbEntity
  8
Defpoints
 62
0
370
13
440
16777216
100
AcDbPoint
 10
1033658.031493179
 20
86437.87159308881
 30
0.0
  0
POINT
  5
9F
330
94
100
AcDbEntity
  8
Defpoints
 62
0
370
13
440
16777216
100
AcDbPoint
 10
1033300.42827466
 20
86437.87159308881
 30
0.0
  0
ENDBLK
  5
96
330
94
100
AcDbEntity
  8
0
100
AcDbBlockEnd
  0
BLOCK
  5
A5
330
A4
100
AcDbEntity
  8
0
100
AcDbBlockBegin
  2
*D9
 70
1
 10
0.0
 20
0.0
 30
0.0
  3
*D9
  1

  0
LINE
  5
A7
330
A4
100
AcDbEntity
  8
VP
 62
0
370
-2
440
16777216
100
AcDbLine
 10
1034582.149139682
 20
88425.17767688583
 30
0.0
 11
1034582.149139682
 21
88370.57754252625
 31
0.0
  0
LINE
  5
A8
330
A4
100
AcDbEntity
  8
VP
 62
0
370
-2
440
16777216
100
AcDbLine
 10
1034962.08196587
 20
88424.5414202727
 30
0.0
 11
1034962.08196587
 21
88370.57754252625
 31
0.0
  0
LINE
  5
A9
330
A4
100
AcDbEntity
  8
VP
 62
0
370
-2
440
16777216
100
AcDbLine
 10
1034612.149139682
 20
88371.82754252625
 30
0.0
 11
1034932.08196587
 21
88371.82754252625
 31
0.0
  0
SOLID
  5
AA
330
A4
100
AcDbEntity
  8
VP
 62
0
370
13
440
16777216
100
AcDbTrace
 10
1034612.149139682
 20
88376.82754252625
 30
0.0
 11
1034612.149139682
 21
88366.82754252625
 31
0.0
 12
1034582.149139682
 22
88371.82754252625
 32
0.0
 13
1034582.149139682
 23
88371.82754252625
 33
0.0
  0
SOLID
  5
AB
330
A4
100
AcDbEntity
  8
VP
 62
0
370
13
440
16777216
100
AcDbTrace
 10
1034932.08196587
 20
88376.82754252625
 30
0.0
 11
1034932.08196587
 21
88366.82754252625
 31
0.0
 12
1034962.08196587
 22
88371.82754252625
 32
0.0
 13
1034962.08196587
 23
88371.82754252625
 33
0.0
  0
MTEXT
  5
AC
330
A4
100
AcDbEntity
  8
VP
 62
0
370
13
440
16777216
100
AcDbMText
 10
1034772.115552776
 20
88397.1549640815
 30
0.0
 40
30.0
 41
0.0
 46
0.0
 71
5
  1
380
  0
POINT
  5
AD
330
A4
100
AcDbEntity
  8
Defpoints
 62
0
370
13
440
16777216
100
AcDbPoint
 10
1034582.149139682
 20
88425.80267688583
 30
0.0
  0
POINT
  5
AE
330
A4
100
AcDbEntity
  8
Defpoints
 62
0
370
13
440
16777216
100
AcDbPoint
 10
1034962.08196587
 20
88425.1664202727
 30
0.0
  0
POINT
  5
AF
330
A4
100
AcDbEntity
  8
Defpoints
 62
0
370
13
440
16777216
100
AcDbPoint
 10
1034962.08196587
 20
88371.82754252625
 30
0.0
  0
ENDBLK
  5
A6
330
A4
100
AcDbEntity
  8
0
100
AcDbBlockEnd
  0
BLOCK
  5
B3
330
B2
100
AcDbEntity
  8
0
100
AcDbBlockBegin
  2
*D10
 70
1
 10
0.0
 20
0.0
 30
0.0
  3
*D10
  1

  0
LINE
  5
B5
330
B2
100
AcDbEntity
  8
VP
 62
0
370
-2
440
16777216
100
AcDbLine
 10
1034965.487564841
 20
88417.87436651118
 30
0.0
 11
1034934.298311997
 21
88417.87436651118
 31
0.0
  0
LINE
  5
B6
330
B2
100
AcDbEntity
  8
VP
 62
0
370
-2
440
16777216
100
AcDbLine
 10
1034962.303788463
 20
88602.54231827195
 30
0.0
 11
1034934.298311997
 21
88602.54231827195
 31
0.0
  0
LINE
  5
B7
330
B2
100
AcDbEntity
  8
VP
 62
0
370
-2
440
16777216
100
AcDbLine
 10
1034935.548311997
 20
88447.87436651118
 30
0.0
 11
1034935.548311997
 21
88572.54231827195
 31
0.0
  0
SOLID
  5
B8
330
B2
100
AcDbEntity
  8
VP
 62
0
370
13
440
16777216
100
AcDbTrace
 10
1034930.548311997
 20
88447.87436651118
 30
0.0
 11
1034940.548311997
 21
88447.87436651118
 31
0.0
 12
1034935.548311997
 22
88417.87436651118
 32
0.0
 13
1034935.548311997
 23
88417.87436651118
 33
0.0
  0
SOLID
  5
B9
330
B2
100
AcDbEntity
  8
VP
 62
0
370
13
440
16777216
100
AcDbTrace
 10
1034930.548311997
 20
88572.54231827195
 30
0.0
 11
1034940.548311997
 21
88572.54231827195
 31
0.0
 12
1034935.548311997
 22
88602.54231827195
 32
0.0
 13
1034935.548311997
 23
88602.54231827195
 33
0.0
  0
MTEXT
  5
BA
330
B2
100
AcDbEntity
  8
VP
 62
0
370
13
440
16777216
100
AcDbMText
 10
1034910.231122365
 20
88510.20834239127
 30
0.0
 40
30.0
 41
0.0
 46
0.0
 71
5
  1
185
 11
1e-16
 21
1.0
 31
0.0
  0
POINT
  5
BB
330
B2
100
AcDbEntity
  8
Defpoints
 62
0
370
13
440
16777216
100
AcDbPoint
 10
1034966.112564841
 20
88417.87436651118
 30
0.0
  0
POINT
  5
BC
330
B2
100
AcDbEntity
  8
Defpoints
 62
0
370
13
440
16777216
100
AcDbPoint
 10
1034962.928788463
 20
88602.54231827195
 30
0.0
  0
POINT
  5
BD
330
B2
100
AcDbEntity
  8
Defpoints
 62
0
370
13
440
16777216
100
AcDbPoint
 10
1034935.548311997
 20
88602.54231827195
 30
0.0
  0
ENDBLK
  5
B4
330
B2
100
AcDbEntity
  8
0
100
AcDbBlockEnd
  0
BLOCK
  5
E2
330
E1
100
AcDbEntity
  8
0
100
AcDbBlockBegin
  2
*D11
 70
1
 10
0.0
 20
0.0
 30
0.0
  3
*D11
  1

  0
LINE
  5
E4
330
E1
100
AcDbEntity
  8
VP
 62
0
370
-2
440
16777216
100
AcDbLine
 10
1034862.803247851
 20
87818.28433382719
 30
0.0
 11
1034917.552445582
 21
87818.28433382719
 31
0.0
  0
LINE
  5
E5
330
E1
100
AcDbEntity
  8
VP
 62
0
370
-2
440
16777216
100
AcDbLine
 10
1034862.803247851
 20
88208.27096272759
 30
0.0
 11
1034917.552445582
 21
88208.27096272759
 31
0.0
  0
LINE
  5
E6
330
E1
100
AcDbEntity
  8
VP
 62
0
370
-2
440
16777216
100
AcDbLine
 10
1034916.302445582
 20
87848.28433382716
 30
0.0
 11
1034916.302445582
 21
88178.27096272759
 31
0.0
  0
SOLID
  5
E7
330
E1
100
AcDbEntity
  8
VP
 62
0
370
13
440
16777216
100
AcDbTrace
 10
1034911.302445582
 20
87848.28433382716
 30
0.0
 11
1034921.302445582
 21
87848.28433382716
 31
0.0
 12
1034916.302445582
 22
87818.28433382719
 32
0.0
 13
1034916.302445582
 23
87818.28433382719
 33
0.0
  0
SOLID
  5
E8
330
E1
100
AcDbEntity
  8
VP
 62
0
370
13
440
16777216
100
AcDbTrace
 10
1034911.302445582
 20
88178.27096272759
 30
0.0
 11
1034921.302445582
 21
88178.27096272759
 31
0.0
 12
1034916.302445582
 22
88208.27096272759
 32
0.0
 13
1034916.302445582
 23
88208.27096272759
 33
0.0
  0
MTEXT
  5
E9
330
E1
100
AcDbEntity
  8
VP
 62
0
370
13
440
16777216
100
AcDbMText
 10
1034890.975024027
 20
88013.27764827709
 30
0.0
 40
30.0
 41
0.0
 46
0.0
 71
5
  1
390
 11
1e-16
 21
1.0
 31
0.0
  0
POINT
  5
EA
330
E1
100
AcDbEntity
  8
Defpoints
 62
0
370
13
440
16777216
100
AcDbPoint
 10
1034862.178247851
 20
87818.28433382719
 30
0.0
  0
POINT
  5
EB
330
E1
100
AcDbEntity
  8
Defpoints
 62
0
370
13
440
16777216
100
AcDbPoint
 10
1034862.178247851
 20
88208.27096272759
 30
0.0
  0
POINT
  5
EC
330
E1
100
AcDbEntity
  8
Defpoints
 62
0
370
13
440
16777216
100
AcDbPoint
 10
1034916.302445582
 20
88208.27096272759
 30
0.0
  0
ENDBLK
  5
E3
330
E1
100
AcDbEntity
  8
0
100
AcDbBlockEnd
  0
BLOCK
  5
EF
330
EE
100
AcDbEntity
  8
0
100
AcDbBlockBegin
  2
*D12
 70
1
 10
0.0
 20
0.0
 30
0.0
  3
*D12
  1

  0
LINE
  5
F1
330
EE
100
AcDbEntity
  8
VP
 62
0
370
-2
440
16777216
100
AcDbLine
 10
1034581.687553447
 20
88210.85114173072
 30
0.0
 11
1034581.687553447
 21
88314.31708733793
 31
0.0
  0
LINE
  5
F2
330
EE
100
AcDbEntity
  8
VP
 62
0
370
-2
440
16777216
100
AcDbLine
 10
1034862.17824785
 20
88209.89596272756
 30
0.0
 11
1034862.17824785
 21
88314.31708733793
 31
0.0
  0
LINE
  5
F3
330
EE
100
AcDbEntity
  8
VP
 62
0
370
-2
440
16777216
100
AcDbLine
 10
1034611.687553447
 20
88313.06708733793
 30
0.0
 11
1034832.17824785
 21
88313.06708733793
 31
0.0
  0
SOLID
  5
F4
330
EE
100
AcDbEntity
  8
VP
 62
0
370
13
440
16777216
100
AcDbTrace
 10
1034611.687553447
 20
88318.06708733793
 30
0.0
 11
1034611.687553447
 21
88308.06708733791
 31
0.0
 12
1034581.687553447
 22
88313.06708733793
 32
0.0
 13
1034581.687553447
 23
88313.06708733793
 33
0.0
  0
SOLID
  5
F5
330
EE
100
AcDbEntity
  8
VP
 62
0
370
13
440
16777216
100
AcDbTrace
 10
1034832.17824785
 20
88318.06708733793
 30
0.0
 11
1034832.17824785
 21
88308.06708733791
 31
0.0
 12
1034862.17824785
 22
88313.06708733793
 32
0.0
 13
1034862.17824785
 23
88313.06708733793
 33
0.0
  0
MTEXT
  5
F6
330
EE
100
AcDbEntity
  8
VP
 62
0
370
13
440
16777216
100
AcDbMText
 10
1034721.932900649
 20
88338.38427696958
 30
0.0
 40
30.0
 41
0.0
 46
0.0
 71
5
  1
280
  0
POINT
  5
F7
330
EE
100
AcDbEntity
  8
Defpoints
 62
0
370
13
440
16777216
100
AcDbPoint
 10
1034581.687553447
 20
88210.2261417307
 30
0.0
  0
POINT
  5
F8
330
EE
100
AcDbEntity
  8
Defpoints
 62
0
370
13
440
16777216
100
AcDbPoint
 10
1034862.17824785
 20
88209.27096272756
 30
0.0
  0
POINT
  5
F9
330
EE
100
AcDbEntity
  8
Defpoints
 62
0
370
13
440
16777216
100
AcDbPoint
 10
1034862.17824785
 20
88313.06708733793
 30
0.0
  0
ENDBLK
  5
F0
330
EE
100
AcDbEntity
  8
0
100
AcDbBlockEnd
  0
BLOCK
  5
106
330
105
100
AcDbEntity
  8
0
100
AcDbBlockBegin
  2
*D13
 70
1
 10
0.0
 20
0.0
 30
0.0
  3
*D13
  1

  0
LINE
  5
108
330
105
100
AcDbEntity
  8
VP
 62
0
370
-2
440
16777216
100
AcDbLine
 10
1034120.231704832
 20
87721.13987353686
 30
0.0
 11
1034120.231704832
 21
87771.6251843953
 31
0.0
  0
LINE
  5
109
330
105
100
AcDbEntity
  8
VP
 62
0
370
-2
440
16777216
100
AcDbLine
 10
1034580.591958929
 20
87724.63530252205
 30
0.0
 11
1034580.591958929
 21
87771.6251843953
 31
0.0
  0
LINE
  5
10A
330
105
100
AcDbEntity
  8
VP
 62
0
370
-2
440
16777216
100
AcDbLine
 10
1034150.231704832
 20
87770.37518439529
 30
0.0
 11
1034550.591958929
 21
87770.37518439529
 31
0.0
  0
SOLID
  5
10B
330
105
100
AcDbEntity
  8
VP
 62
0
370
13
440
16777216
100
AcDbTrace
 10
1034150.231704832
 20
87775.3751843953
 30
0.0
 11
1034150.231704832
 21
87765.37518439528
 31
0.0
 12
1034120.231704832
 22
87770.37518439529
 32
0.0
 13
1034120.231704832
 23
87770.37518439529
 33
0.0
  0
SOLID
  5
10C
330
105
100
AcDbEntity
  8
VP
 62
0
370
13
440
16777216
100
AcDbTrace
 10
1034550.591958929
 20
87775.3751843953
 30
0.0
 11
1034550.591958929
 21
87765.37518439528
 31
0.0
 12
1034580.591958929
 22
87770.37518439529
 32
0.0
 13
1034580.591958929
 23
87770.37518439529
 33
0.0
  0
MTEXT
  5
10D
330
105
100
AcDbEntity
  8
VP
 62
0
370
13
440
16777216
100
AcDbMText
 10
1034350.411831881
 20
87795.69237402696
 30
0.0
 40
30.0
 41
0.0
 46
0.0
 71
5
  1
460
  0
POINT
  5
10E
330
105
100
AcDbEntity
  8
Defpoints
 62
0
370
13
440
16777216
100
AcDbPoint
 10
1034120.231704832
 20
87720.51487353686
 30
0.0
  0
POINT
  5
10F
330
105
100
AcDbEntity
  8
Defpoints
 62
0
370
13
440
16777216
100
AcDbPoint
 10
1034580.591958929
 20
87724.01030252205
 30
0.0
  0
POINT
  5
110
330
105
100
AcDbEntity
  8
Defpoints
 62
0
370
13
440
16777216
100
AcDbPoint
 10
1034580.591958929
 20
87770.37518439529
 30
0.0
  0
ENDBLK
  5
107
330
105
100
AcDbEntity
  8
0
100
AcDbBlockEnd
  0
BLOCK
  5
114
330
113
100
AcDbEntity
  8
0
100
AcDbBlockBegin
  2
*D14
 70
1
 10
0.0
 20
0.0
 30
0.0
  3
*D14
  1

  0
LINE
  5
116
330
113
100
AcDbEntity
  8
VP
 62
0
370
-2
440
16777216
100
AcDbLine
 10
1034121.290810374
 20
87504.29664646437
 30
0.0
 11
1034076.057204105
 21
87504.29664646437
 31
0.0
  0
LINE
  5
117
330
113
100
AcDbEntity
  8
VP
 62
0
370
-2
440
16777216
100
AcDbLine
 10
1034119.360000417
 20
87624.65553693679
 30
0.0
 11
1034076.057204105
 21
87624.65553693679
 31
0.0
  0
LINE
  5
118
330
113
100
AcDbEntity
  8
VP
 62
0
370
-2
440
16777216
100
AcDbLine
 10
1034077.307204105
 20
87534.29664646438
 30
0.0
 11
1034077.307204105
 21
87594.65553693679
 31
0.0
  0
SOLID
  5
119
330
113
100
AcDbEntity
  8
VP
 62
0
370
13
440
16777216
100
AcDbTrace
 10
1034072.307204105
 20
87534.29664646438
 30
0.0
 11
1034082.307204105
 21
87534.29664646438
 31
0.0
 12
1034077.307204105
 22
87504.29664646437
 32
0.0
 13
1034077.307204105
 23
87504.29664646437
 33
0.0
  0
SOLID
  5
11A
330
113
100
AcDbEntity
  8
VP
 62
0
370
13
440
16777216
100
AcDbTrace
 10
1034072.307204105
 20
87594.65553693679
 30
0.0
 11
1034082.307204105
 21
87594.65553693679
 31
0.0
 12
1034077.307204105
 22
87624.65553693679
 32
0.0
 13
1034077.307204105
 23
87624.65553693679
 33
0.0
  0
MTEXT
  5
11B
330
113
100
AcDbEntity
  8
VP
 62
0
370
13
440
16777216
100
AcDbMText
 10
1034051.990014473
 20
87564.47609170029
 30
0.0
 40
30.0
 41
0.0
 46
0.0
 71
5
  1
120
 11
1e-16
 21
1.0
 31
0.0
  0
POINT
  5
11C
330
113
100
AcDbEntity
  8
Defpoints
 62
0
370
13
440
16777216
100
AcDbPoint
 10
1034121.915810374
 20
87504.29664646437
 30
0.0
  0
POINT
  5
11D
330
113
100
AcDbEntity
  8
Defpoints
 62
0
370
13
440
16777216
100
AcDbPoint
 10
1034119.985000417
 20
87624.65553693679
 30
0.0
  0
POINT
  5
11E
330
113
100
AcDbEntity
  8
Defpoints
 62
0
370
13
440
16777216
100
AcDbPoint
 10
1034077.307204105
 20
87624.65553693679
 30
0.0
  0
ENDBLK
  5
115
330
113
100
AcDbEntity
  8
0
100
AcDbBlockEnd
  0
BLOCK
  5
121
330
120
100
AcDbEntity
  8
0
100
AcDbBlockBegin
  2
*D15
 70
1
 10
0.0
 20
0.0
 30
0.0
  3
*D15
  1

  0
LINE
  5
123
330
120
100
AcDbEntity
  8
VP
 62
0
370
-2
440
16777216
100
AcDbLine
 10
1034119.985000416
 20
87604.93553578584
 30
0.0
 11
1034119.985000416
 21
87649.96804905013
 31
0.0
  0
LINE
  5
124
330
120
100
AcDbEntity
  8
VP
 62
0
370
-2
440
16777216
100
AcDbLine
 10
1034460.136198784
 20
87605.63194616267
 30
0.0
 11
1034460.136198784
 21
87649.96804905013
 31
0.0
  0
LINE
  5
125
330
120
100
AcDbEntity
  8
VP
 62
0
370
-2
440
16777216
100
AcDbLine
 10
1034149.985000416
 20
87648.71804905013
 30
0.0
 11
1034430.136198784
 21
87648.71804905013
 31
0.0
  0
SOLID
  5
126
330
120
100
AcDbEntity
  8
VP
 62
0
370
13
440
16777216
100
AcDbTrace
 10
1034149.985000416
 20
87653.71804905013
 30
0.0
 11
1034149.985000416
 21
87643.71804905013
 31
0.0
 12
1034119.985000416
 22
87648.71804905013
 32
0.0
 13
1034119.985000416
 23
87648.71804905013
 33
0.0
  0
SOLID
  5
127
330
120
100
AcDbEntity
  8
VP
 62
0
370
13
440
16777216
100
AcDbTrace
 10
1034430.136198784
 20
87653.71804905013
 30
0.0
 11
1034430.136198784
 21
87643.71804905013
 31
0.0
 12
1034460.136198784
 22
87648.71804905013
 32
0.0
 13
1034460.136198784
 23
87648.71804905013
 33
0.0
  0
MTEXT
  5
128
330
120
100
AcDbEntity
  8
VP
 62
0
370
13
440
16777216
100
AcDbMText
 10
1034290.0605996
 20
87674.04547060539
 30
0.0
 40
30.0
 41
0.0
 46
0.0
 71
5
  1
340
  0
POINT
  5
129
330
120
100
AcDbEntity
  8
Defpoints
 62
0
370
13
440
16777216
100
AcDbPoint
 10
1034119.985000416
 20
87604.31053578584
 30
0.0
  0
POINT
  5
12A
330
120
100
AcDbEntity
  8
Defpoints
 62
0
370
13
440
16777216
100
AcDbPoint
 10
1034460.136198784
 20
87605.00694616267
 30
0.0
  0
POINT
  5
12B
330
120
100
AcDbEntity
  8
Defpoints
 62
0
370
13
440
16777216
100
AcDbPoint
 10
1034460.136198784
 20
87648.71804905013
 30
0.0
  0
ENDBLK
  5
122
330
120
100
AcDbEntity
  8
0
100
AcDbBlockEnd
  0
BLOCK
  5
130
330
12F
100
AcDbEntity
  8
0
100
AcDbBlockBegin
  2
*D16
 70
1
 10
0.0
 20
0.0
 30
0.0
  3
*D16
  1

  0
LINE
  5
132
330
12F
100
AcDbEntity
  8
VP
 62
0
370
-2
440
16777216
100
AcDbLine
 10
1033652.51941452
 20
88663.62226975316
 30
0.0
 11
1033652.51941452
 21
88601.93290803205
 31
0.0
  0
LINE
  5
133
330
12F
100
AcDbEntity
  8
VP
 62
0
370
-2
440
16777216
100
AcDbLine
 10
1033952.680784695
 20
88664.30314084727
 30
0.0
 11
1033952.680784695
 21
88601.93290803205
 31
0.0
  0
LINE
  5
134
330
12F
100
AcDbEntity
  8
VP
 62
0
370
-2
440
16777216
100
AcDbLine
 10
1033682.51941452
 20
88603.18290803203
 30
0.0
 11
1033922.680784695
 21
88603.18290803203
 31
0.0
  0
SOLID
  5
135
330
12F
100
AcDbEntity
  8
VP
 62
0
370
13
440
16777216
100
AcDbTrace
 10
1033682.51941452
 20
88608.18290803203
 30
0.0
 11
1033682.51941452
 21
88598.18290803205
 31
0.0
 12
1033652.51941452
 22
88603.18290803203
 32
0.0
 13
1033652.51941452
 23
88603.18290803203
 33
0.0
  0
SOLID
  5
136
330
12F
100
AcDbEntity
  8
VP
 62
0
370
13
440
16777216
100
AcDbTrace
 10
1033922.680784695
 20
88608.18290803203
 30
0.0
 11
1033922.680784695
 21
88598.18290803205
 31
0.0
 12
1033952.680784695
 22
88603.18290803203
 32
0.0
 13
1033952.680784695
 23
88603.18290803203
 33
0.0
  0
MTEXT
  5
137
330
12F
100
AcDbEntity
  8
VP
 62
0
370
13
440
16777216
100
AcDbMText
 10
1033802.600099608
 20
88628.51032958728
 30
0.0
 40
30.0
 41
0.0
 46
0.0
 71
5
  1
300
  0
POINT
  5
138
330
12F
100
AcDbEntity
  8
Defpoints
 62
0
370
13
440
16777216
100
AcDbPoint
 10
1033652.51941452
 20
88664.24726975316
 30
0.0
  0
POINT
  5
139
330
12F
100
AcDbEntity
  8
Defpoints
 62
0
370
13
440
16777216
100
AcDbPoint
 10
1033952.680784695
 20
88664.92814084727
 30
0.0
  0
POINT
  5
13A
330
12F
100
AcDbEntity
  8
Defpoints
 62
0
370
13
440
16777216
100
AcDbPoint
 10
1033952.680784695
 20
88603.18290803203
 30
0.0
  0
ENDBLK
  5
131
330
12F
100
AcDbEntity
  8
0
100
AcDbBlockEnd
  0
BLOCK
  5
13D
330
13C
100
AcDbEntity
  8
0
100
AcDbBlockBegin
  2
*D17
 70
1
 10
0.0
 20
0.0
 30
0.0
  3
*D17
  1

  0
LINE
  5
13F
330
13C
100
AcDbEntity
  8
VP
 62
0
370
-2
440
16777216
100
AcDbLine
 10
1033953.305784696
 20
88664.9281408473
 30
0.0
 11
1034014.432244646
 21
88664.9281408473
 31
0.0
  0
LINE
  5
140
330
13C
100
AcDbEntity
  8
VP
 62
0
370
-2
440
16777216
100
AcDbLine
 10
1033953.305784696
 20
89074.6813518101
 30
0.0
 11
1034014.432244646
 21
89074.6813518101
 31
0.0
  0
LINE
  5
141
330
13C
100
AcDbEntity
  8
VP
 62
0
370
-2
440
16777216
100
AcDbLine
 10
1034013.182244646
 20
88694.9281408473
 30
0.0
 11
1034013.182244646
 21
89044.6813518101
 31
0.0
  0
SOLID
  5
142
330
13C
100
AcDbEntity
  8
VP
 62
0
370
13
440
16777216
100
AcDbTrace
 10
1034008.182244646
 20
88694.9281408473
 30
0.0
 11
1034018.182244646
 21
88694.9281408473
 31
0.0
 12
1034013.182244646
 22
88664.9281408473
 32
0.0
 13
1034013.182244646
 23
88664.9281408473
 33
0.0
  0
SOLID
  5
143
330
13C
100
AcDbEntity
  8
VP
 62
0
370
13
440
16777216
100
AcDbTrace
 10
1034008.182244646
 20
89044.6813518101
 30
0.0
 11
1034018.182244646
 21
89044.6813518101
 31
0.0
 12
1034013.182244646
 22
89074.6813518101
 32
0.0
 13
1034013.182244646
 23
89074.6813518101
 33
0.0
  0
MTEXT
  5
144
330
13C
100
AcDbEntity
  8
VP
 62
0
370
13
440
16777216
100
AcDbMText
 10
1033987.865055014
 20
88869.8047463284
 30
0.0
 40
30.0
 41
0.0
 46
0.0
 71
5
  1
410
 11
1e-16
 21
1.0
 31
0.0
  0
POINT
  5
145
330
13C
100
AcDbEntity
  8
Defpoints
 62
0
370
13
440
16777216
100
AcDbPoint
 10
1033952.680784696
 20
88664.9281408473
 30
0.0
  0
POINT
  5
146
330
13C
100
AcDbEntity
  8
Defpoints
 62
0
370
13
440
16777216
100
AcDbPoint
 10
1033952.680784696
 20
89074.6813518101
 30
0.0
  0
POINT
  5
147
330
13C
100
AcDbEntity
  8
Defpoints
 62
0
370
13
440
16777216
100
AcDbPoint
 10
1034013.182244646
 20
89074.6813518101
 30
0.0
  0
ENDBLK
  5
13E
330
13C
100
AcDbEntity
  8
0
100
AcDbBlockEnd
  0
BLOCK
  5
14F
330
14E
100
AcDbEntity
  8
0
100
AcDbBlockBegin
  2
*D18
 70
1
 10
0.0
 20
0.0
 30
0.0
  3
*D18
  1

  0
LINE
  5
151
330
14E
100
AcDbEntity
  8
VP
 62
0
370
-2
440
16777216
100
AcDbLine
 10
1034405.198682731
 20
89067.88671689946
 30
0.0
 11
1034405.198682731
 21
89394.04777759896
 31
0.0
  0
LINE
  5
152
330
14E
100
AcDbEntity
  8
VP
 62
0
370
-2
440
16777216
100
AcDbLine
 10
1035189.193827421
 20
89067.88671689946
 30
0.0
 11
1035189.193827421
 21
89394.04777759896
 31
0.0
  0
LINE
  5
153
330
14E
100
AcDbEntity
  8
VP
 62
0
370
-2
440
16777216
100
AcDbLine
 10
1034435.198682731
 20
89392.79777759896
 30
0.0
 11
1035159.193827421
 21
89392.79777759896
 31
0.0
  0
SOLID
  5
154
330
14E
100
AcDbEntity
  8
VP
 62
0
370
13
440
16777216
100
AcDbTrace
 10
1034435.198682731
 20
89397.79777759896
 30
0.0
 11
1034435.198682731
 21
89387.79777759896
 31
0.0
 12
1034405.198682731
 22
89392.79777759896
 32
0.0
 13
1034405.198682731
 23
89392.79777759896
 33
0.0
  0
SOLID
  5
155
330
14E
100
AcDbEntity
  8
VP
 62
0
370
13
440
16777216
100
AcDbTrace
 10
1035159.193827421
 20
89397.79777759896
 30
0.0
 11
1035159.193827421
 21
89387.79777759896
 31
0.0
 12
1035189.193827421
 22
89392.79777759896
 32
0.0
 13
1035189.193827421
 23
89392.79777759896
 33
0.0
  0
MTEXT
  5
156
330
14E
100
AcDbEntity
  8
VP
 62
0
370
13
440
16777216
100
AcDbMText
 10
1034797.196255076
 20
89418.1149672306
 30
0.0
 40
30.0
 41
0.0
 46
0.0
 71
5
  1
784
  0
POINT
  5
157
330
14E
100
AcDbEntity
  8
Defpoints
 62
0
370
13
440
16777216
100
AcDbPoint
 10
1034405.198682731
 20
89067.26171689946
 30
0.0
  0
POINT
  5
158
330
14E
100
AcDbEntity
  8
Defpoints
 62
0
370
13
440
16777216
100
AcDbPoint
 10
1035189.193827421
 20
89067.26171689946
 30
0.0
  0
POINT
  5
159
330
14E
100
AcDbEntity
  8
Defpoints
 62
0
370
13
440
16777216
100
AcDbPoint
 10
1035189.193827421
 20
89392.79777759896
 30
0.0
  0
ENDBLK
  5
150
330
14E
100
AcDbEntity
  8
0
100
AcDbBlockEnd
  0
BLOCK
  5
15C
330
15B
100
AcDbEntity
  8
0
100
AcDbBlockBegin
  2
*D19
 70
1
 10
0.0
 20
0.0
 30
0.0
  3
*D19
  1

  0
LINE
  5
15E
330
15B
100
AcDbEntity
  8
VP
 62
0
370
-2
440
16777216
100
AcDbLine
 10
1034405.198682731
 20
89067.88671689946
 30
0.0
 11
1034405.198682731
 21
89394.04777759896
 31
0.0
  0
LINE
  5
15F
330
15B
100
AcDbEntity
  8
VP
 62
0
370
-2
440
16777216
100
AcDbLine
 10
1033632.209126482
 20
88907.86881368684
 30
0.0
 11
1033632.209126482
 21
89394.04777759896
 31
0.0
  0
LINE
  5
160
330
15B
100
AcDbEntity
  8
VP
 62
0
370
-2
440
16777216
100
AcDbLine
 10
1034375.198682731
 20
89392.79777759896
 30
0.0
 11
1033662.209126482
 21
89392.79777759896
 31
0.0
  0
SOLID
  5
161
330
15B
100
AcDbEntity
  8
VP
 62
0
370
13
440
16777216
100
AcDbTrace
 10
1034375.198682731
 20
89397.79777759896
 30
0.0
 11
1034375.198682731
 21
89387.79777759896
 31
0.0
 12
1034405.198682731
 22
89392.79777759896
 32
0.0
 13
1034405.198682731
 23
89392.79777759896
 33
0.0
  0
SOLID
  5
162
330
15B
100
AcDbEntity
  8
VP
 62
0
370
13
440
16777216
100
AcDbTrace
 10
1033662.209126482
 20
89397.79777759896
 30
0.0
 11
1033662.209126482
 21
89387.79777759896
 31
0.0
 12
1033632.209126482
 22
89392.79777759896
 32
0.0
 13
1033632.209126482
 23
89392.79777759896
 33
0.0
  0
MTEXT
  5
163
330
15B
100
AcDbEntity
  8
VP
 62
0
370
13
440
16777216
100
AcDbMText
 10
1034018.703904607
 20
89418.12519915421
 30
0.0
 40
30.0
 41
0.0
 46
0.0
 71
5
  1
773
  0
POINT
  5
164
330
15B
100
AcDbEntity
  8
Defpoints
 62
0
370
13
440
16777216
100
AcDbPoint
 10
1034405.198682731
 20
89067.26171689946
 30
0.0
  0
POINT
  5
165
330
15B
100
AcDbEntity
  8
Defpoints
 62
0
370
13
440
16777216
100
AcDbPoint
 10
1033632.209126482
 20
88907.24381368684
 30
0.0
  0
POINT
  5
166
330
15B
100
AcDbEntity
  8
Defpoints
 62
0
370
13
440
16777216
100
AcDbPoint
 10
1033632.209126482
 20
89392.79777759896
 30
0.0
  0
ENDBLK
  5
15D
330
15B
100
AcDbEntity
  8
0
100
AcDbBlockEnd
  0
BLOCK
  5
169
330
168
100
AcDbEntity
  8
0
100
AcDbBlockBegin
  2
*D20
 70
1
 10
0.0
 20
0.0
 30
0.0
  3
*D20
  1

  0
LINE
  5
16B
330
168
100
AcDbEntity
  8
VP
 62
0
370
-2
440
16777216
100
AcDbLine
 10
1033633.209126483
 20
88907.86881368684
 30
0.0
 11
1033633.209126483
 21
89530.2390604505
 31
0.0
  0
LINE
  5
16C
330
168
100
AcDbEntity
  8
VP
 62
0
370
-2
440
16777216
100
AcDbLine
 10
1035954.746236031
 20
89237.29132076347
 30
0.0
 11
1035954.746236031
 21
89530.2390604505
 31
0.0
  0
LINE
  5
16D
330
168
100
AcDbEntity
  8
VP
 62
0
370
-2
440
16777216
100
AcDbLine
 10
1033663.209126483
 20
89528.9890604505
 30
0.0
 11
1035924.746236031
 21
89528.9890604505
 31
0.0
  0
SOLID
  5
16E
330
168
100
AcDbEntity
  8
VP
 62
0
370
13
440
16777216
100
AcDbTrace
 10
1033663.209126483
 20
89533.9890604505
 30
0.0
 11
1033663.209126483
 21
89523.9890604505
 31
0.0
 12
1033633.209126483
 22
89528.9890604505
 32
0.0
 13
1033633.209126483
 23
89528.9890604505
 33
0.0
  0
SOLID
  5
16F
330
168
100
AcDbEntity
  8
VP
 62
0
370
13
440
16777216
100
AcDbTrace
 10
1035924.746236031
 20
89533.9890604505
 30
0.0
 11
1035924.746236031
 21
89523.9890604505
 31
0.0
 12
1035954.746236031
 22
89528.9890604505
 32
0.0
 13
1035954.746236031
 23
89528.9890604505
 33
0.0
  0
MTEXT
  5
170
330
168
100
AcDbEntity
  8
VP
 62
0
370
13
440
16777216
100
AcDbMText
 10
1034793.977681257
 20
89554.31648200576
 30
0.0
 40
30.0
 41
0.0
 46
0.0
 71
5
  1
2322
  0
POINT
  5
171
330
168
100
AcDbEntity
  8
Defpoints
 62
0
370
13
440
16777216
100
AcDbPoint
 10
1033633.209126483
 20
88907.24381368684
 30
0.0
  0
POINT
  5
172
330
168
100
AcDbEntity
  8
Defpoints
 62
0
370
13
440
16777216
100
AcDbPoint
 10
1035954.746236031
 20
89236.66632076347
 30
0.0
  0
POINT
  5
173
330
168
100
AcDbEntity
  8
Defpoints
 62
0
370
13
440
16777216
100
AcDbPoint
 10
1035954.746236031
 20
89528.9890604505
 30
0.0
  0
ENDBLK
  5
16A
330
168
100
AcDbEntity
  8
0
100
AcDbBlockEnd
  0
BLOCK
  5
17C
330
17B
100
AcDbEntity
  8
0
100
AcDbBlockBegin
  2
*D21
 70
1
 10
0.0
 20
0.0
 30
0.0
  3
*D21
  1

  0
LINE
  5
17E
330
17B
100
AcDbEntity
  8
VP
 62
0
370
-2
440
16777216
100
AcDbLine
 10
1034120.08841147
 20
88142.9424770762
 30
0.0
 11
1034120.08841147
 21
88187.4703586441
 31
0.0
  0
LINE
  5
17F
330
17B
100
AcDbEntity
  8
VP
 62
0
370
-2
440
16777216
100
AcDbLine
 10
1034442.488819244
 20
88142.9424770762
 30
0.0
 11
1034442.488819244
 21
88187.4703586441
 31
0.0
  0
LINE
  5
180
330
17B
100
AcDbEntity
  8
VP
 62
0
370
-2
440
16777216
100
AcDbLine
 10
1034150.08841147
 20
88186.2203586441
 30
0.0
 11
1034412.488819244
 21
88186.2203586441
 31
0.0
  0
SOLID
  5
181
330
17B
100
AcDbEntity
  8
VP
 62
0
370
13
440
16777216
100
AcDbTrace
 10
1034150.08841147
 20
88191.2203586441
 30
0.0
 11
1034150.08841147
 21
88181.2203586441
 31
0.0
 12
1034120.08841147
 22
88186.2203586441
 32
0.0
 13
1034120.08841147
 23
88186.2203586441
 33
0.0
  0
SOLID
  5
182
330
17B
100
AcDbEntity
  8
VP
 62
0
370
13
440
16777216
100
AcDbTrace
 10
1034412.488819244
 20
88191.2203586441
 30
0.0
 11
1034412.488819244
 21
88181.2203586441
 31
0.0
 12
1034442.488819244
 22
88186.2203586441
 32
0.0
 13
1034442.488819244
 23
88186.2203586441
 33
0.0
  0
MTEXT
  5
183
330
17B
100
AcDbEntity
  8
VP
 62
0
370
13
440
16777216
100
AcDbMText
 10
1034281.288615357
 20
88211.54778019935
 30
0.0
 40
30.0
 41
0.0
 46
0.0
 71
5
  1
322
  0
POINT
  5
184
330
17B
100
AcDbEntity
  8
Defpoints
 62
0
370
13
440
16777216
100
AcDbPoint
 10
1034120.08841147
 20
88142.31747707618
 30
0.0
  0
POINT
  5
185
330
17B
100
AcDbEntity
  8
Defpoints
 62
0
370
13
440
16777216
100
AcDbPoint
 10
1034442.488819244
 20
88142.31747707618
 30
0.0
  0
POINT
  5
186
330
17B
100
AcDbEntity
  8
Defpoints
 62
0
370
13
440
16777216
100
AcDbPoint
 10
1034442.488819244
 20
88186.2203586441
 30
0.0
  0
ENDBLK
  5
17D
330
17B
100
AcDbEntity
  8
0
100
AcDbBlockEnd
  0
BLOCK
  5
18B
330
18A
100
AcDbEntity
  8
0
100
AcDbBlockBegin
  2
*D22
 70
1
 10
0.0
 20
0.0
 30
0.0
  3
*D22
  1

  0
LINE
  5
18D
330
18A
100
AcDbEntity
  8
VP
 62
0
370
-2
440
16777216
100
AcDbLine
 10
1034443.113819244
 20
88142.31747707623
 30
0.0
 11
1034512.486829744
 21
88142.31747707623
 31
0.0
  0
LINE
  5
18E
330
18A
100
AcDbEntity
  8
VP
 62
0
370
-2
440
16777216
100
AcDbLine
 10
1034443.113819244
 20
87981.59063632194
 30
0.0
 11
1034512.486829744
 21
87981.59063632194
 31
0.0
  0
LINE
  5
18F
330
18A
100
AcDbEntity
  8
VP
 62
0
370
-2
440
16777216
100
AcDbLine
 10
1034511.236829744
 20
88112.31747707623
 30
0.0
 11
1034511.236829744
 21
88011.59063632194
 31
0.0
  0
SOLID
  5
190
330
18A
100
AcDbEntity
  8
VP
 62
0
370
13
440
16777216
100
AcDbTrace
 10
1034506.236829744
 20
88112.31747707623
 30
0.0
 11
1034516.236829744
 21
88112.31747707623
 31
0.0
 12
1034511.236829744
 22
88142.31747707623
 32
0.0
 13
1034511.236829744
 23
88142.31747707623
 33
0.0
  0
SOLID
  5
191
330
18A
100
AcDbEntity
  8
VP
 62
0
370
13
440
16777216
100
AcDbTrace
 10
1034506.236829744
 20
88011.59063632194
 30
0.0
 11
1034516.236829744
 21
88011.59063632194
 31
0.0
 12
1034511.236829744
 22
87981.59063632194
 32
0.0
 13
1034511.236829744
 23
87981.59063632194
 33
0.0
  0
MTEXT
  5
192
330
18A
100
AcDbEntity
  8
VP
 62
0
370
13
440
16777216
100
AcDbMText
 10
1034485.919640113
 20
88061.95405669877
 30
0.0
 40
30.0
 41
0.0
 46
0.0
 71
5
  1
161
 11
1e-16
 21
1.0
 31
0.0
  0
POINT
  5
193
330
18A
100
AcDbEntity
  8
Defpoints
 62
0
370
13
440
16777216
100
AcDbPoint
 10
1034442.488819244
 20
88142.31747707623
 30
0.0
  0
POINT
  5
194
330
18A
100
AcDbEntity
  8
Defpoints
 62
0
370
13
440
16777216
100
AcDbPoint
 10
1034442.488819244
 20
87981.59063632194
 30
0.0
  0
POINT
  5
195
330
18A
100
AcDbEntity
  8
Defpoints
 62
0
370
13
440
16777216
100
AcDbPoint
 10
1034511.236829744
 20
87981.59063632194
 30
0.0
  0
ENDBLK
  5
18C
330
18A
100
AcDbEntity
  8
0
100
AcDbBlockEnd
  0
BLOCK
  5
199
330
198
100
AcDbEntity
  8
0
100
AcDbBlockBegin
  2
*D23
 70
1
 10
0.0
 20
0.0
 30
0.0
  3
*D23
  1

  0
LINE
  5
19B
330
198
100
AcDbEntity
  8
VP
 62
0
370
-2
440
16777216
100
AcDbLine
 10
1034443.113819244
 20
87981.59063632194
 30
0.0
 11
1034513.736829746
 21
87981.59063632194
 31
0.0
  0
LINE
  5
19C
330
198
100
AcDbEntity
  8
VP
 62
0
370
-2
440
16777216
100
AcDbLine
 10
1034443.113819244
 20
87820.86379556765
 30
0.0
 11
1034513.736829746
 21
87820.86379556765
 31
0.0
  0
LINE
  5
19D
330
198
100
AcDbEntity
  8
VP
 62
0
370
-2
440
16777216
100
AcDbLine
 10
1034512.486829746
 20
87951.59063632194
 30
0.0
 11
1034512.486829746
 21
87850.86379556765
 31
0.0
  0
SOLID
  5
19E
330
198
100
AcDbEntity
  8
VP
 62
0
370
13
440
16777216
100
AcDbTrace
 10
1034507.486829746
 20
87951.59063632194
 30
0.0
 11
1034517.486829746
 21
87951.59063632194
 31
0.0
 12
1034512.486829746
 22
87981.59063632194
 32
0.0
 13
1034512.486829746
 23
87981.59063632194
 33
0.0
  0
SOLID
  5
19F
330
198
100
AcDbEntity
  8
VP
 62
0
370
13
440
16777216
100
AcDbTrace
 10
1034507.486829746
 20
87850.86379556765
 30
0.0
 11
1034517.486829746
 21
87850.86379556765
 31
0.0
 12
1034512.486829746
 22
87820.86379556765
 32
0.0
 13
1034512.486829746
 23
87820.86379556765
 33
0.0
  0
MTEXT
  5
1A0
330
198
100
AcDbEntity
  8
VP
 62
0
370
13
440
16777216
100
AcDbMText
 10
1034487.169640114
 20
87901.2272159445
 30
0.0
 40
30.0
 41
0.0
 46
0.0
 71
5
  1
161
 11
1e-16
 21
1.0
 31
0.0
  0
POINT
  5
1A1
330
198
100
AcDbEntity
  8
Defpoints
 62
0
370
13
440
16777216
100
AcDbPoint
 10
1034442.488819244
 20
87981.59063632194
 30
0.0
  0
POINT
  5
1A2
330
198
100
AcDbEntity
  8
Defpoints
 62
0
370
13
440
16777216
100
AcDbPoint
 10
1034442.488819244
 20
87820.86379556765
 30
0.0
  0
POINT
  5
1A3
330
198
100
AcDbEntity
  8
Defpoints
 62
0
370
13
440
16777216
100
AcDbPoint
 10
1034512.486829746
 20
87820.86379556765
 30
0.0
  0
ENDBLK
  5
19A
330
198
100
AcDbEntity
  8
0
100
AcDbBlockEnd
  0
BLOCK
  5
1AD
330
1AC
100
AcDbEntity
  8
0
100
AcDbBlockBegin
  2
*D24
 70
1
 10
0.0
 20
0.0
 30
0.0
  3
*D24
  1

  0
LINE
  5
1AF
330
1AC
100
AcDbEntity
  8
VP
 62
0
370
-2
440
16777216
100
AcDbLine
 10
1034119.606704833
 20
87819.62248753045
 30
0.0
 11
1034074.807204106
 21
87819.62248753045
 31
0.0
  0
LINE
  5
1B0
330
1AC
100
AcDbEntity
  8
VP
 62
0
370
-2
440
16777216
100
AcDbLine
 10
1034120.001690927
 20
87624.65683695464
 30
0.0
 11
1034074.807204106
 21
87624.65683695464
 31
0.0
  0
LINE
  5
1B1
330
1AC
100
AcDbEntity
  8
VP
 62
0
370
-2
440
16777216
100
AcDbLine
 10
1034076.057204106
 20
87789.62248753045
 30
0.0
 11
1034076.057204106
 21
87654.65683695464
 31
0.0
  0
SOLID
  5
1B2
330
1AC
100
AcDbEntity
  8
VP
 62
0
370
13
440
16777216
100
AcDbTrace
 10
1034071.057204106
 20
87789.62248753045
 30
0.0
 11
1034081.057204106
 21
87789.62248753045
 31
0.0
 12
1034076.057204106
 22
87819.62248753045
 32
0.0
 13
1034076.057204106
 23
87819.62248753045
 33
0.0
  0
SOLID
  5
1B3
330
1AC
100
AcDbEntity
  8
VP
 62
0
370
13
440
16777216
100
AcDbTrace
 10
1034071.057204106
 20
87654.65683695464
 30
0.0
 11
1034081.057204106
 21
87654.65683695464
 31
0.0
 12
1034076.057204106
 22
87624.65683695464
 32
0.0
 13
1034076.057204106
 23
87624.65683695464
 33
0.0
  0
MTEXT
  5
1B4
330
1AC
100
AcDbEntity
  8
VP
 62
0
370
13
440
16777216
100
AcDbMText
 10
1034050.740014474
 20
87722.13966224223
 30
0.0
 40
30.0
 41
0.0
 46
0.0
 71
5
  1
195
 11
1e-16
 21
1.0
 31
0.0
  0
POINT
  5
1B5
330
1AC
100
AcDbEntity
  8
Defpoints
 62
0
370
13
440
16777216
100
AcDbPoint
 10
1034120.231704833
 20
87819.62248753045
 30
0.0
  0
POINT
  5
1B6
330
1AC
100
AcDbEntity
  8
Defpoints
 62
0
370
13
440
16777216
100
AcDbPoint
 10
1034120.626690927
 20
87624.65683695464
 30
0.0
  0
POINT
  5
1B7
330
1AC
100
AcDbEntity
  8
Defpoints
 62
0
370
13
440
16777216
100
AcDbPoint
 10
1034076.057204106
 20
87624.65683695464
 30
0.0
  0
ENDBLK
  5
1AE
330
1AC
100
AcDbEntity
  8
0
100
AcDbBlockEnd
  0
ENDSEC
  0
SECTION
  2
ENTITIES
  0
LWPOLYLINE
  5
34
330
17
100
AcDbEntity
  8
BAR-GAL
 62
8
370
13
100
AcDbPolyline
 90
4
 70
1
 10
1035058.343499875
 20
88604.40479479828
 10
1034962.77586064
 20
88601.90553223137
 10
1034962.08196587
 20
88425.1664202727
 10
1034984.760228478
 20
88571.88266618713
  0
LWPOLYLINE
  5
35
330
17
100
AcDbEntity
  8
0
370
13
100
AcDbPolyline
 90
4
 70
1
 43
3.428535235377893
 10
1037133.955741822
 20
85790.61580996425
 10
1032041.743183464
 20
85790.61580996425
 10
1032041.743183464
 20
89906.53650785582
 10
1037136.63079423
 20
89906.53650785582
  0
LWPOLYLINE
  5
36
330
17
100
AcDbEntity
  8
BAR-GAL
 62
7
370
13
100
AcDbPolyline
 90
10
 70
0
 43
15.0
 10
1034395.463919654
 20
87341.22266100413
 10
1034460.231704833
 20
87341.45758157915
 10
1034460.231704833
 20
87502.31747707618
 10
1034120.231704832
 20
87502.31747707618
 10
1034120.231704832
 20
88142.31747707618
 10
1033632.231704832
 20
88142.31747707618
 10
1033632.231704832
 20
89076.6652526937
 10
1034405.209126483
 20
89076.6652526937
 10
1034405.209126483
 20
89236.6652526937
 10
1035189.209126483
 20
89236.6652526937
  0
DIMENSION
  5
37
330
17
100
AcDbEntity
  8
VP
370
13
100
AcDbDimension
280
0
  2
*D1
  3
ISO-25
 10
1033485.104627976
 20
89236.68315590633
 30
0.0
 11
1033459.787438344
 21
89156.67420429972
 31
0.0
 70
32
 71
5
 42
160.0179032126034
 73
0
 74
0
 75
0
100
AcDbAlignedDimension
 13
1033633.209126483
 23
89076.6652526937
 33
0.0
 14
1033633.209126483
 24
89236.6831559063
 34
0.0
 50
90.0
100
AcDbRotatedDimension
  0
DIMENSION
  5
44
330
17
100
AcDbEntity
  8
VP
370
13
100
AcDbDimension
280
0
  2
*D2
  3
ISO-25
 10
1033484.64976372
 20
88142.38528000683
 30
0.0
 11
1033459.322342165
 21
88609.52526634997
 31
0.0
 70
32
 71
5
 42
934.279972686898
 73
0
 74
0
 75
0
100
AcDbAlignedDimension
 13
1033632.209126482
 23
89076.6652526937
 33
0.0
 14
1033632.209126482
 24
88142.3852800068
 34
0.0
 50
90.0
100
AcDbRotatedDimension
  0
DIMENSION
  5
51
330
17
100
AcDbEntity
  8
VP
370
13
100
AcDbDimension
280
0
  2
*D3
  3
ISO-25
 10
1033484.649763721
 20
87502.31747707623
 30
0.0
 11
1033459.332574089
 21
87822.35137854122
 31
0.0
 70
32
 71
5
 42
640.0678029306
 73
0
 74
0
 75
0
100
AcDbAlignedDimension
 13
1034120.08841147
 23
88142.3852800068
 33
0.0
 14
1034120.231704832
 24
87502.31747707618
 34
0.0
 50
90.0
100
AcDbRotatedDimension
  0
DIMENSION
  5
5E
330
17
100
AcDbEntity
  8
VP
370
13
100
AcDbDimension
280
0
  2
*D4
  3
ISO-25
 10
1033484.649763721
 20
87341.45758157918
 30
0.0
 11
1033459.332574089
 21
87421.57162347407
 31
0.0
 70
32
 71
5
 42
160.2280837904109
 73
0
 74
0
 75
0
100
AcDbAlignedDimension
 13
1033632.209126482
 23
87501.68566536956
 33
0.0
 14
1033632.209126482
 24
87341.45758157915
 34
0.0
 50
90.0
100
AcDbRotatedDimension
  0
DIMENSION
  5
6B
102
{ACAD_XDICTIONARY
360
6C
102
}
330
17
100
AcDbEntity
  8
VP
370
13
100
AcDbDimension
280
0
  2
*D5
  3
ISO-25
 10
1034460.231704833
 20
87448.82631395102
 30
0.0
 11
1034290.160058151
 21
87474.15373550628
 31
0.0
 70
32
 71
5
 42
340.1432933624601
 73
0
 74
0
 75
0
100
AcDbAlignedDimension
 13
1034120.08841147
 23
87502.31747707618
 33
0.0
 14
1034460.231704833
 24
87502.25815640643
 34
0.0
 50
0.0
100
AcDbRotatedDimension
  0
DIMENSION
  5
79
330
17
100
AcDbEntity
  8
VP
370
13
100
AcDbDimension
280
0
  2
*D6
  3
ISO-25
 10
1034244.334977314
 20
87372.99022157546
 30
0.0
 11
1034352.283341073
 21
87398.3074112071
 31
0.0
 70
32
 71
5
 42
215.8967275184114
 73
0
 74
0
 75
0
100
AcDbAlignedDimension
 13
1034460.231704833
 23
87341.45758157915
 33
0.0
 14
1034244.334977314
 24
87341.45758157915
 34
0.0
 50
0.0
100
AcDbRotatedDimension
  0
DIMENSION
  5
86
330
17
100
AcDbEntity
  8
VP
370
13
100
AcDbDimension
280
0
  2
*D7
  3
ISO-25
 10
1034120.08841147
 20
88077.33778288992
 30
0.0
 11
1033876.160058151
 21
88102.65497252157
 31
0.0
 70
32
 71
5
 42
487.8567066375398
 73
0
 74
0
 75
0
100
AcDbAlignedDimension
 13
1033632.231704832
 23
88142.31747707618
 33
0.0
 14
1034120.08841147
 24
88142.3852800068
 34
0.0
 50
0.0
100
AcDbRotatedDimension
  0
DIMENSION
  5
93
330
17
100
AcDbEntity
  8
VP
370
13
100
AcDbDimension
280
0
  2
*D8
  3
ISO-25
 10
1033300.42827466
 20
86437.87159308881
 30
0.0
 11
1033275.111085028
 21
87837.27737449727
 31
0.0
 70
32
 71
5
 42
2798.811562817515
 73
0
 74
0
 75
0
100
AcDbAlignedDimension
 13
1033633.209126483
 23
89236.6831559063
 33
0.0
 14
1033658.031493178
 24
86437.87159308878
 34
0.0
 50
90.0
100
AcDbRotatedDimension
  0
LWPOLYLINE
  5
A0
330
17
100
AcDbEntity
  8
BAR-GAL
 62
7
370
13
100
AcDbPolyline
 90
5
 70
0
 43
15.0
 10
1034582.149139682
 20
88604.23646262701
 10
1034582.149139682
 20
87819.39043583992
 10
1034861.752806802
 20
87819.39043583992
 10
1034862.17824785
 20
88209.27096272756
 10
1034582.149139682
 20
88208.00225942116
  0
LWPOLYLINE
  5
A1
330
17
100
AcDbEntity
  8
BAR-GAL
 62
7
370
13
100
AcDbPolyline
 90
3
 70
0
 43
15.0
 10
1035187.080482767
 20
88694.66632076344
 10
1035023.071915565
 20
88694.66632076344
 10
1035023.071915565
 20
88606.48114787549
  0
LWPOLYLINE
  5
A2
330
17
100
AcDbEntity
  8
BAR-GAL
 62
7
370
13
100
AcDbPolyline
 90
2
 70
0
 43
15.0
 10
1035009.853192939
 20
88424.32061806844
 10
1035009.837190925
 20
88424.32061806844
  0
DIMENSION
  5
A3
330
17
100
AcDbEntity
  8
VP
370
13
100
AcDbDimension
280
0
  2
*D9
  3
ISO-25
 10
1034962.08196587
 20
88371.82754252625
 30
0.0
 11
1034772.115552776
 21
88397.1549640815
 31
0.0
 70
32
 71
5
 42
379.9328261881601
 73
0
 74
0
 75
0
100
AcDbAlignedDimension
 13
1034582.149139682
 23
88425.80267688583
 33
0.0
 14
1034962.08196587
 24
88425.1664202727
 34
0.0
 50
0.0
100
AcDbRotatedDimension
  0
LWPOLYLINE
  5
B0
330
17
100
AcDbEntity
  8
BAR-GAL
 62
7
370
13
100
AcDbPolyline
 90
2
 70
0
 43
15.0
 10
1034962.08196587
 20
88425.1664202727
 10
1034962.08196587
 20
88604.3273808378
  0
DIMENSION
  5
B1
330
17
100
AcDbEntity
  8
VP
370
13
100
AcDbDimension
280
0
  2
*D10
  3
ISO-25
 10
1034935.548311997
 20
88602.54231827195
 30
0.0
 11
1034910.231122365
 21
88510.20834239127
 31
0.0
 70
32
 71
5
 42
184.6679517607845
 73
0
 74
0
 75
0
100
AcDbAlignedDimension
 13
1034966.112564841
 23
88417.87436651115
 33
0.0
 14
1034962.928788462
 24
88602.54231827195
 34
0.0
 50
90.0
100
AcDbRotatedDimension
  0
LWPOLYLINE
  5
BE
330
17
100
AcDbEntity
  8
BAR-GAL
 62
7
370
13
100
AcDbPolyline
 90
4
 70
1
 43
5.0
 10
1034597.431266108
 20
88579.45140340783
 10
1034750.25252966
 20
88579.45140340783
 10
1034750.25252966
 20
88439.35847448587
 10
1034597.431266108
 20
88439.35847448587
  0
LWPOLYLINE
  5
BF
330
17
100
AcDbEntity
  8
BAR-GAL
 62
7
370
13
100
AcDbPolyline
 90
4
 70
1
 43
5.0
 10
1034768.572409123
 20
88579.45140340783
 10
1034921.393672913
 20
88579.45140340783
 10
1034921.393672913
 20
88439.35847448587
 10
1034768.572409123
 20
88439.35847448587
  0
LINE
  5
C0
330
17
100
AcDbEntity
  8
BAR-GAL
 62
7
370
13
100
AcDbLine
 10
1034597.431266108
 20
88579.45140340783
 30
0.0
 11
1034750.25252966
 21
88439.35847448587
 31
0.0
  0
LINE
  5
C1
330
17
100
AcDbEntity
  8
BAR-GAL
 62
7
370
13
100
AcDbLine
 10
1034750.25252966
 20
88579.45140340783
 30
0.0
 11
1034597.431266108
 21
88439.35847448587
 31
0.0
  0
LINE
  5
C2
330
17
100
AcDbEntity
  8
BAR-GAL
 62
7
370
13
100
AcDbLine
 10
1034768.572409123
 20
88579.45140340783
 30
0.0
 11
1034921.393672913
 21
88439.35847448587
 31
0.0
  0
LINE
  5
C3
330
17
100
AcDbEntity
  8
BAR-GAL
 62
7
370
13
100
AcDbLine
 10
1034921.393672913
 20
88579.45140340783
 30
0.0
 11
1034768.572409123
 21
88439.35847448587
 31
0.0
  0
LWPOLYLINE
  5
C4
330
17
100
AcDbEntity
  8
BAR-GAL
 62
7
370
13
100
AcDbPolyline
 90
4
 70
1
 43
5.0
 10
1034691.527836721
 20
88091.82875918446
 10
1034752.019586962
 20
88091.82875918446
 10
1034752.019586962
 20
87929.44831884305
 10
1034691.527836721
 20
87929.44831884305
  0
LINE
  5
C5
330
17
100
AcDbEntity
  8
BAR-GAL
 62
7
370
13
100
AcDbLine
 10
1034691.527836721
 20
88091.82875918446
 30
0.0
 11
1034691.527836721
 21
88209.27096272756
 31
0.0
  0
LINE
  5
C6
330
17
100
AcDbEntity
  8
BAR-GAL
 62
7
370
13
100
AcDbLine
 10
1034721.527836721
 20
88091.82875918446
 30
0.0
 11
1034721.527836721
 21
88209.27096272756
 31
0.0
  0
LINE
  5
C7
330
17
100
AcDbEntity
  8
BAR-GAL
 62
7
370
13
100
AcDbLine
 10
1034751.527836721
 20
88091.82875918446
 30
0.0
 11
1034751.527836721
 21
88209.27096272756
 31
0.0
  0
LINE
  5
C8
330
17
100
AcDbEntity
  8
BAR-GAL
 62
7
370
13
100
AcDbLine
 10
1034691.527836721
 20
88085.26526993456
 30
0.0
 11
1034582.353462053
 21
88085.26526993456
 31
0.0
  0
LINE
  5
C9
330
17
100
AcDbEntity
  8
BAR-GAL
 62
7
370
13
100
AcDbLine
 10
1034691.527836721
 20
88055.26526993459
 30
0.0
 11
1034582.353462053
 21
88055.26526993459
 31
0.0
  0
LINE
  5
CA
330
17
100
AcDbEntity
  8
BAR-GAL
 62
7
370
13
100
AcDbLine
 10
1034691.527836721
 20
88025.26526993458
 30
0.0
 11
1034582.353462053
 21
88025.26526993458
 31
0.0
  0
LINE
  5
CB
330
17
100
AcDbEntity
  8
BAR-GAL
 62
7
370
13
100
AcDbLine
 10
1034691.527836721
 20
87995.26526993458
 30
0.0
 11
1034582.353462053
 21
87995.26526993458
 31
0.0
  0
LINE
  5
CC
330
17
100
AcDbEntity
  8
BAR-GAL
 62
7
370
13
100
AcDbLine
 10
1034691.527836721
 20
87965.26526993458
 30
0.0
 11
1034582.353462053
 21
87965.26526993458
 31
0.0
  0
LINE
  5
CD
330
17
100
AcDbEntity
  8
BAR-GAL
 62
7
370
13
100
AcDbLine
 10
1034691.527836721
 20
87935.26526993458
 30
0.0
 11
1034582.353462053
 21
87935.26526993458
 31
0.0
  0
LINE
  5
CE
330
17
100
AcDbEntity
  8
BAR-GAL
 62
7
370
13
100
AcDbLine
 10
1034691.527836721
 20
87812.00611529994
 30
0.0
 11
1034691.527836721
 21
87929.44831884305
 31
0.0
  0
LINE
  5
CF
330
17
100
AcDbEntity
  8
BAR-GAL
 62
7
370
13
100
AcDbLine
 10
1034721.527836721
 20
87812.00611529994
 30
0.0
 11
1034721.527836721
 21
87929.44831884305
 31
0.0
  0
LINE
  5
D0
330
17
100
AcDbEntity
  8
BAR-GAL
 62
7
370
13
100
AcDbLine
 10
1034751.527836721
 20
87812.00611529994
 30
0.0
 11
1034751.527836721
 21
87929.44831884305
 31
0.0
  0
LINE
  5
D1
330
17
100
AcDbEntity
  8
BAR-GAL
 62
7
370
13
100
AcDbLine
 10
1034862.17824785
 20
88085.26526993456
 30
0.0
 11
1034753.003873182
 21
88085.26526993456
 31
0.0
  0
LINE
  5
D2
330
17
100
AcDbEntity
  8
BAR-GAL
 62
7
370
13
100
AcDbLine
 10
1034862.17824785
 20
88055.26526993459
 30
0.0
 11
1034753.003873182
 21
88055.26526993459
 31
0.0
  0
LINE
  5
D3
330
17
100
AcDbEntity
  8
BAR-GAL
 62
7
370
13
100
AcDbLine
 10
1034862.17824785
 20
88025.26526993458
 30
0.0
 11
1034753.003873182
 21
88025.26526993458
 31
0.0
  0
LINE
  5
D4
330
17
100
AcDbEntity
  8
BAR-GAL
 62
7
370
13
100
AcDbLine
 10
1034862.17824785
 20
87995.26526993458
 30
0.0
 11
1034753.003873182
 21
87995.26526993458
 31
0.0
  0
LINE
  5
D5
330
17
100
AcDbEntity
  8
BAR-GAL
 62
7
370
13
100
AcDbLine
 10
1034862.17824785
 20
87965.26526993458
 30
0.0
 11
1034753.003873182
 21
87965.26526993458
 31
0.0
  0
LINE
  5
D6
330
17
100
AcDbEntity
  8
BAR-GAL
 62
7
370
13
100
AcDbLine
 10
1034862.17824785
 20
87935.26526993458
 30
0.0
 11
1034753.003873182
 21
87935.26526993458
 31
0.0
  0
LWPOLYLINE
  5
D7
330
17
100
AcDbEntity
  8
BAR-GAL
 62
7
370
13
100
AcDbPolyline
 90
4
 70
1
 43
5.0
 10
1034582.827301971
 20
88268.51227992895
 10
1034864.930098972
 20
88268.51227992895
 10
1034864.930098972
 20
88208.27096272755
 10
1034582.827301971
 20
88208.27096272755
  0
LWPOLYLINE
  5
D8
330
17
100
AcDbEntity
  8
BAR-GAL
 62
7
370
13
100
AcDbPolyline
 90
2
 70
0
 43
5.0
 10
1034699.99027074
 20
88268.51227992895
 10
1034699.99027074
 20
88209.27096272755
  0
LWPOLYLINE
  5
D9
330
17
100
AcDbEntity
  8
BAR-GAL
 62
7
370
13
100
AcDbPolyline
 90
2
 70
0
 43
5.0
 10
1034824.814517221
 20
88267.85527845855
 10
1034824.814517221
 20
88208.27096272755
  0
LINE
  5
DA
330
17
100
AcDbEntity
  8
BAR-GAL
 62
7
370
13
100
AcDbLine
 10
1034582.827301971
 20
88268.51227992895
 30
0.0
 11
1034699.99027074
 21
88209.27096272755
 31
0.0
  0
LINE
  5
DB
330
17
100
AcDbEntity
  8
BAR-GAL
 62
7
370
13
100
AcDbLine
 10
1034699.99027074
 20
88209.27096272755
 30
0.0
 11
1034824.814517221
 21
88267.85527845855
 31
0.0
  0
LINE
  5
DC
330
17
100
AcDbEntity
  8
BAR-GAL
 62
7
370
13
100
AcDbLine
 10
1034824.814517221
 20
88267.85527845855
 30
0.0
 11
1034864.930098972
 21
88209.27096272755
 31
0.0
  0
LINE
  5
DD
330
17
100
AcDbEntity
  8
BAR-GAL
 62
7
370
13
100
AcDbLine
 10
1034864.930098972
 20
88268.51227992895
 30
0.0
 11
1034824.814517221
 21
88209.27096272755
 31
0.0
  0
LINE
  5
DE
330
17
100
AcDbEntity
  8
BAR-GAL
 62
7
370
13
100
AcDbLine
 10
1034824.814517221
 20
88209.27096272755
 30
0.0
 11
1034699.99027074
 21
88268.51227992895
 31
0.0
  0
LINE
  5
DF
330
17
100
AcDbEntity
  8
BAR-GAL
 62
7
370
13
100
AcDbLine
 10
1034699.99027074
 20
88268.51227992895
 30
0.0
 11
1034584.121026954
 21
88208.27096272755
 31
0.0
  0
DIMENSION
  5
E0
330
17
100
AcDbEntity
  8
VP
370
13
100
AcDbDimension
280
0
  2
*D11
  3
ISO-25
 10
1034916.302445582
 20
88208.27096272759
 30
0.0
 11
1034890.975024027
 21
88013.27764827709
 31
0.0
 70
32
 71
5
 42
389.9866289004131
 73
0
 74
0
 75
0
100
AcDbAlignedDimension
 13
1034862.17824785
 23
87818.28433382715
 33
0.0
 14
1034862.17824785
 24
88208.27096272756
 34
0.0
 50
90.0
100
AcDbRotatedDimension
  0
DIMENSION
  5
ED
330
17
100
AcDbEntity
  8
VP
370
13
100
AcDbDimension
280
0
  2
*D12
  3
ISO-25
 10
1034862.17824785
 20
88313.06708733793
 30
0.0
 11
1034721.932900649
 21
88338.38427696958
 31
0.0
 70
32
 71
5
 42
280.4906944036484
 73
0
 74
0
 75
0
100
AcDbAlignedDimension
 13
1034581.687553447
 23
88210.2261417307
 33
0.0
 14
1034862.17824785
 24
88209.27096272756
 34
0.0
 50
0.0
100
AcDbRotatedDimension
  0
LWPOLYLINE
  5
FA
330
17
100
AcDbEntity
  8
BAR-GAL
 62
7
370
13
100
AcDbPolyline
 90
2
 70
0
 43
15.0
 10
1034862.17824785
 20
87818.28433382715
 10
1035012.248450364
 20
87818.28433382715
  0
LWPOLYLINE
  5
FB
330
17
100
AcDbEntity
  8
BAR-GAL
 62
7
370
13
100
AcDbPolyline
 90
2
 70
0
 43
15.0
 10
1034582.149139682
 20
87819.39043583992
 10
1034582.149139682
 20
87677.3008064347
  0
LWPOLYLINE
  5
FC
330
17
100
AcDbEntity
  8
BAR-GAL
 62
7
370
13
100
AcDbPolyline
 90
2
 70
0
 43
15.0
 10
1034460.989757276
 20
87502.31747707618
 10
1034460.231704833
 20
87502.31747707618
  0
LWPOLYLINE
  5
FD
330
17
100
AcDbEntity
  8
BAR-GAL
 62
7
370
13
100
AcDbPolyline
 90
3
 70
0
 43
15.0
 10
1035009.837190924
 20
87823.19459578507
 10
1035009.837190924
 20
87777.82007442022
 10
1035422.080482767
 20
87777.69107889062
  0
LWPOLYLINE
  5
FE
330
17
100
AcDbEntity
  8
BAR-GAL
 62
7
370
13
100
AcDbPolyline
 90
5
 70
0
 43
15.0
 10
1034405.328566494
 20
89079.3423896612
 10
1034405.328566494
 20
88603.87963723908
 10
1035058.343499875
 20
88604.40479479828
 10
1035058.013626904
 20
88424.32061806844
 10
1034582.149139682
 20
88424.32061806844
  0
LWPOLYLINE
  5
FF
330
17
100
AcDbEntity
  8
BAR-GAL
 62
7
370
13
100
AcDbPolyline
 90
2
 70
0
 43
15.0
 10
1034460.999667161
 20
87499.8054103168
 10
1034460.989757276
 20
87502.31747707618
  0
LWPOLYLINE
  5
100
330
17
100
AcDbEntity
  8
BAR-GAL
 62
7
370
13
100
AcDbPolyline
 90
2
 70
0
 43
15.0
 10
1034460.299463274
 20
87677.3008064347
 10
1034582.149139682
 20
87677.3008064347
  0
LWPOLYLINE
  5
101
330
17
100
AcDbEntity
  8
BAR-GAL
 62
7
370
13
100
AcDbPolyline
 90
2
 70
0
 43
15.0
 10
1034462.400074935
 20
87499.94938045926
 10
1034462.400074935
 20
87682.65506011015
  0
LWPOLYLINE
  5
102
330
17
100
AcDbEntity
  8
BAR-GAL
 62
7
370
13
100
AcDbPolyline
 90
2
 70
0
 43
15.0
 10
1034464.493423278
 20
87625.35348570858
 10
1034119.985000416
 20
87624.65553693676
  0
LWPOLYLINE
  5
103
330
17
100
AcDbEntity
  8
BAR-GAL
 62
7
370
13
100
AcDbPolyline
 90
2
 70
0
 43
15.0
 10
1034582.591958929
 20
87819.62248753043
 10
1034120.231704832
 20
87819.62248753043
  0
DIMENSION
  5
104
330
17
100
AcDbEntity
  8
VP
370
13
100
AcDbDimension
280
0
  2
*D13
  3
ISO-25
 10
1034580.591958929
 20
87770.37518439529
 30
0.0
 11
1034350.411831881
 21
87795.69237402696
 31
0.0
 70
32
 71
5
 42
460.3602540966821
 73
0
 74
0
 75
0
100
AcDbAlignedDimension
 13
1034120.231704832
 23
87720.51487353686
 33
0.0
 14
1034580.591958929
 24
87724.01030252205
 34
0.0
 50
0.0
100
AcDbRotatedDimension
  0
DIMENSION
  5
111
102
{ACAD_XDICTIONARY
360
112
102
}
330
17
100
AcDbEntity
  8
VP
370
13
100
AcDbDimension
280
0
  2
*D14
  3
ISO-25
 10
1034077.307204105
 20
87624.65553693679
 30
0.0
 11
1034051.990014473
 21
87564.47609170029
 31
0.0
 70
32
 71
5
 42
120.358890472402
 73
0
 74
0
 75
0
100
AcDbAlignedDimension
 13
1034121.915810374
 23
87504.29664646435
 33
0.0
 14
1034119.985000416
 24
87624.65553693676
 34
0.0
 50
90.0
100
AcDbRotatedDimension
  0
DIMENSION
  5
11F
330
17
100
AcDbEntity
  8
VP
370
13
100
AcDbDimension
280
0
  2
*D15
  3
ISO-25
 10
1034460.136198784
 20
87648.71804905013
 30
0.0
 11
1034290.0605996
 21
87674.04547060539
 31
0.0
 70
32
 71
5
 42
340.1511983682867
 73
0
 74
0
 75
0
100
AcDbAlignedDimension
 13
1034119.985000416
 23
87604.31053578584
 33
0.0
 14
1034460.136198784
 24
87605.00694616267
 34
0.0
 50
0.0
100
AcDbRotatedDimension
  0
LWPOLYLINE
  5
12C
330
17
100
AcDbEntity
  8
BAR-GAL
 62
7
370
13
100
AcDbPolyline
 90
3
 70
0
 43
15.0
 10
1033632.682228161
 20
88664.24726975316
 10
1033952.682228161
 20
88664.24726975316
 10
1033951.804691938
 20
89078.17398557019
  0
DIMENSION
  5
12D
102
{ACAD_XDICTIONARY
360
12E
102
}
330
17
100
AcDbEntity
  8
VP
370
13
100
AcDbDimension
280
0
  2
*D16
  3
ISO-25
 10
1033952.680784695
 20
88603.18290803203
 30
0.0
 11
1033802.600099608
 21
88628.51032958728
 31
0.0
 70
32
 71
5
 42
300.1613701749593
 73
0
 74
0
 75
0
100
AcDbAlignedDimension
 13
1033652.51941452
 23
88664.24726975316
 33
0.0
 14
1033952.680784695
 24
88664.92814084727
 34
0.0
 50
0.0
100
AcDbRotatedDimension
  0
DIMENSION
  5
13B
330
17
100
AcDbEntity
  8
VP
370
13
100
AcDbDimension
280
0
  2
*D17
  3
ISO-25
 10
1034013.182244646
 20
89074.6813518101
 30
0.0
 11
1033987.865055014
 21
88869.8047463284
 31
0.0
 70
32
 71
5
 42
409.7532109628081
 73
0
 74
0
 75
0
100
AcDbAlignedDimension
 13
1033952.680784695
 23
88664.92814084727
 33
0.0
 14
1033952.680784695
 24
89074.6813518101
 34
0.0
 50
90.0
100
AcDbRotatedDimension
  0
TEXT
  5
148
330
17
100
AcDbEntity
  8
0
 62
7
100
AcDbText
 10
1033718.935151015
 20
88896.23183839698
 30
0.0
 40
59.201694284898
  1
חדר 
100
AcDbText
  0
TEXT
  5
149
330
17
100
AcDbEntity
  8
0
 62
7
100
AcDbText
 10
1033684.720043896
 20
88792.48603232473
 30
0.0
 40
59.201694284898
  1
 עגלות
100
AcDbText
  0
TEXT
  5
14A
330
17
100
AcDbEntity
  8
0
 62
7
100
AcDbText
 10
1034155.314796026
 20
87708.77907853336
 30
0.0
 40
53.28152485640821
  1
חדר משאבות
100
AcDbText
  0
TEXT
  5
14B
330
17
100
AcDbEntity
  8
0
 62
7
100
AcDbText
 10
1034143.642037367
 20
87545.62967040774
 30
0.0
 40
53.28152485640821
  1
מאגר מים
100
AcDbText
  0
TEXT
  5
14C
330
17
100
AcDbEntity
  8
0
 62
7
100
AcDbText
 10
1034649.12303458
 20
88905.38787695765
 30
0.0
 40
59.201694284898
  1
חדר אופנוע 
100
AcDbText
  0
DIMENSION
  5
14D
330
17
100
AcDbEntity
  8
VP
370
13
100
AcDbDimension
280
0
  2
*D18
  3
ISO-25
 10
1035189.193827421
 20
89392.79777759896
 30
0.0
 11
1034797.196255076
 21
89418.1149672306
 31
0.0
 70
32
 71
5
 42
783.9951446900377
 73
0
 74
0
 75
0
100
AcDbAlignedDimension
 13
1034405.198682731
 23
89067.26171689946
 33
0.0
 14
1035189.193827421
 24
89067.26171689946
 34
0.0
 50
0.0
100
AcDbRotatedDimension
  0
DIMENSION
  5
15A
330
17
100
AcDbEntity
  8
VP
370
13
100
AcDbDimension
280
0
  2
*D19
  3
ISO-25
 10
1033632.209126482
 20
89392.79777759896
 30
0.0
 11
1034018.703904607
 21
89418.12519915421
 31
0.0
 70
32
 71
5
 42
772.9895562484162
 73
0
 74
0
 75
0
100
AcDbAlignedDimension
 13
1034405.198682731
 23
89067.26171689946
 33
0.0
 14
1033632.209126482
 24
88907.24381368684
 34
0.0
 50
0.0
100
AcDbRotatedDimension
  0
DIMENSION
  5
167
330
17
100
AcDbEntity
  8
VP
370
13
100
AcDbDimension
280
0
  2
*D20
  3
ISO-25
 10
1035954.746236031
 20
89528.9890604505
 30
0.0
 11
1034793.977681257
 21
89554.31648200576
 31
0.0
 70
32
 71
5
 42
2321.537109548226
 73
0
 74
0
 75
0
100
AcDbAlignedDimension
 13
1033633.209126483
 23
88907.24381368684
 33
0.0
 14
1035954.746236031
 24
89236.66632076347
 34
0.0
 50
0.0
100
AcDbRotatedDimension
  0
LWPOLYLINE
  5
174
330
17
100
AcDbEntity
  8
BAR-GAL
 62
1
370
13
100
AcDbPolyline
 90
6
 70
1
 10
1034120.231704832
 20
87819.6224875304
 10
1034120.231704832
 20
87624.65603674178
 10
1034462.400074935
 20
87625.34924473852
 10
1034462.400074935
 20
87677.3008064347
 10
1034582.149139681
 20
87677.3008064347
 10
1034582.149139682
 20
87819.62248753043
  0
LWPOLYLINE
  5
175
330
17
100
AcDbEntity
  8
BAR-GAL
 62
1
370
13
100
AcDbPolyline
 90
7
 70
1
 10
1034405.209126483
 20
89236.6652526937
 10
1034405.209126483
 20
89076.6652526937
 10
1034405.328566494
 20
88603.87963723908
 10
1035023.071915565
 20
88604.37642923083
 10
1035023.071915565
 20
88694.66632076344
 10
1035187.080482767
 20
88694.66632076343
 10
1035187.080482767
 20
89236.6652526937
  0
LWPOLYLINE
  5
176
330
17
100
AcDbEntity
  8
BAR-GAL
 62
1
370
13
100
AcDbPolyline
 90
10
 70
1
 10
1033951.807890494
 20
89076.6652526937
 10
1033952.682228161
 20
88664.24726975316
 10
1033632.231704832
 20
88664.24726975316
 10
1033632.231704832
 20
88142.31747707618
 10
1034442.488819244
 20
88142.31747707618
 10
1034442.488819244
 20
87820.86379556765
 10
1034582.149139682
 20
87819.62248753043
 10
1034582.149139682
 20
88604.02183714276
 10
1034405.328566495
 20
88603.87963723908
 10
1034405.209126483
 20
89076.6652526937
  0
LWPOLYLINE
  5
177
330
17
100
AcDbEntity
  8
BAR-GAL
 62
3
370
13
100
AcDbPolyline
 90
23
 70
1
 10
1035597.080482767
 20
88456.66632076344
 10
1035597.080482767
 20
88694.66632076344
 10
1035187.080482767
 20
88694.66632076344
 10
1035023.071915565
 20
88694.66632076346
 10
1035023.071915565
 20
88604.37642923083
 10
1035058.343499875
 20
88604.40479479828
 10
1035058.013626904
 20
88424.32061806844
 10
1034582.149139682
 20
88424.32061806844
 10
1034582.149139682
 20
88268.85518031564
 10
1034582.827301971
 20
88268.51227992895
 10
1034864.930098972
 20
88268.51227992895
 10
1034864.930098972
 20
88208.27096272752
 10
1034862.177156642
 20
88208.27096272752
 10
1034861.751599813
 20
87818.28433382715
 10
1035009.837190924
 20
87818.28433382716
 10
1035009.837190924
 20
87777.82007442022
 10
1035422.080482767
 20
87777.69107889062
 10
1035422.080482767
 20
87834.66632076343
 10
1035422.080482767
 20
87932.66632076344
 10
1035580.080482767
 20
87932.66632076344
 10
1035580.080482767
 20
87932.62760332235
 10
1035952.080482767
 20
87932.62760332235
 10
1035952.080482767
 20
88456.66632076343
  0
LWPOLYLINE
  5
178
330
17
100
AcDbEntity
  8
BAR-GAL
 62
7
370
13
100
AcDbPolyline
 90
3
 70
0
 43
15.0
 10
1034120.488819244
 20
88142.31747707618
 10
1034442.488819244
 20
88142.31747707618
 10
1034442.488819244
 20
87820.86379556762
  0
DIMENSION
  5
179
102
{ACAD_XDICTIONARY
360
17A
102
}
330
17
100
AcDbEntity
  8
VP
370
13
100
AcDbDimension
280
0
  2
*D21
  3
ISO-25
 10
1034442.488819244
 20
88186.2203586441
 30
0.0
 11
1034281.288615357
 21
88211.54778019935
 31
0.0
 70
32
 71
5
 42
322.400407774141
 73
0
 74
0
 75
0
100
AcDbAlignedDimension
 13
1034120.08841147
 23
88142.31747707618
 33
0.0
 14
1034442.488819244
 24
88142.31747707618
 34
0.0
 50
0.0
100
AcDbRotatedDimension
  0
LWPOLYLINE
  5
187
330
17
100
AcDbEntity
  8
BAR-GAL
 62
7
370
13
100
AcDbPolyline
 90
2
 70
0
 43
15.0
 10
1034442.488819244
 20
87981.59063632191
 10
1034122.583840455
 20
87981.59063632191
  0
DIMENSION
  5
188
102
{ACAD_XDICTIONARY
360
189
102
}
330
17
100
AcDbEntity
  8
VP
370
13
100
AcDbDimension
280
0
  2
*D22
  3
ISO-25
 10
1034511.236829744
 20
87981.59063632194
 30
0.0
 11
1034485.919640113
 21
88061.95405669877
 31
0.0
 70
32
 71
5
 42
160.726840754287
 73
0
 74
0
 75
0
100
AcDbAlignedDimension
 13
1034442.488819244
 23
88142.31747707618
 33
0.0
 14
1034442.488819244
 24
87981.59063632191
 34
0.0
 50
90.0
100
AcDbRotatedDimension
  0
DIMENSION
  5
196
102
{ACAD_XDICTIONARY
360
197
102
}
330
17
100
AcDbEntity
  8
VP
370
13
100
AcDbDimension
280
0
  2
*D23
  3
ISO-25
 10
1034512.486829746
 20
87820.86379556765
 30
0.0
 11
1034487.169640114
 21
87901.2272159445
 31
0.0
 70
32
 71
5
 42
160.726840754287
 73
0
 74
0
 75
0
100
AcDbAlignedDimension
 13
1034442.488819244
 23
87981.59063632191
 33
0.0
 14
1034442.488819244
 24
87820.86379556762
 34
0.0
 50
90.0
100
AcDbRotatedDimension
  0
TEXT
  5
1A4
330
17
100
AcDbEntity
  8
0
 62
7
100
AcDbText
 10
1034171.187011832
 20
87876.73507724085
 30
0.0
 40
59.201694284898
  1
מחסן 4
100
AcDbText
  0
TEXT
  5
1A5
330
17
100
AcDbEntity
  8
0
 62
7
100
AcDbText
 10
1034171.187011832
 20
88037.06081991072
 30
0.0
 40
59.201694284898
  1
מחסן 3
100
AcDbText
  0
TEXT
  5
1A6
330
17
100
AcDbEntity
  8
0
 62
7
100
AcDbText
 10
1033955.712304844
 20
88435.17076173972
 30
0.0
 40
59.201694284898
  1
חדר כושר
100
AcDbText
  0
MTEXT
  5
1A7
330
17
100
AcDbEntity
  8
VP
370
13
100
AcDbMText
 10
1034105.548360323
 20
88685.38091739008
 30
0.0
 40
59.201694284898
 41
262.1310489581865
 46
0.0
 71
1
  1
7169
  0
MTEXT
  5
1A8
330
17
100
AcDbEntity
  8
VP
370
13
100
AcDbMText
 10
1034541.794448077
 20
88800.77794459483
 30
0.0
 40
59.201694284898
 41
262.1310489581865
 46
0.0
 71
1
  1
4796
  0
MTEXT
  5
1A9
330
17
100
AcDbEntity
  8
VP
370
13
100
AcDbMText
 10
1034151.509636759
 20
87705.85523807709
 30
0.0
 40
59.201694284898
 41
262.1310489581865
 46
0.0
 71
1
  1
  836
  0
DIMENSION
  5
1AA
102
{ACAD_XDICTIONARY
360
1AB
102
}
330
17
100
AcDbEntity
  8
VP
370
13
100
AcDbDimension
280
0
  2
*D24
  3
ISO-25
 10
1034076.057204106
 20
87624.65683695464
 30
0.0
 11
1034050.740014474
 21
87722.13966224223
 31
0.0
 70
32
 71
5
 42
194.965650575803
 73
0
 74
0
 75
0
100
AcDbAlignedDimension
 13
1034120.231704832
 23
87819.6224875304
 33
0.0
 14
1034120.626690927
 24
87624.65683695461
 34
0.0
 50
90.0
100
AcDbRotatedDimension
  0
ENDSEC
  0
SECTION
  2
OBJECTS
  0
DICTIONARY
  5
A
330
0
100
AcDbDictionary
281
1
  3
ACAD_COLOR
350
B
  3
ACAD_GROUP
350
C
  3
ACAD_LAYOUT
350
D
  3
ACAD_MATERIAL
350
E
  3
ACAD_MLEADERSTYLE
350
F
  3
ACAD_MLINESTYLE
350
10
  3
ACAD_PLOTSETTINGS
350
11
  3
ACAD_PLOTSTYLENAME
350
12
  3
ACAD_SCALELIST
350
14
  3
ACAD_TABLESTYLE
350
15
  3
ACAD_VISUALSTYLE
350
16
  3
EZDXF_META
350
2D
  0
DICTIONARY
  5
B
330
A
100
AcDbDictionary
281
1
  0
DICTIONARY
  5
C
330
A
100
AcDbDictionary
281
1
  0
DICTIONARY
  5
D
330
A
100
AcDbDictionary
281
1
  3
Model
350
1A
  3
Layout1
350
1E
  0
DICTIONARY
  5
E
330
A
100
AcDbDictionary
281
1
  3
ByBlock
350
1F
  3
ByLayer
350
20
  3
Global
350
21
  0
DICTIONARY
  5
F
330
A
100
AcDbDictionary
281
1
  3
Standard
350
2C
  0
DICTIONARY
  5
10
330
A
100
AcDbDictionary
281
1
  3
Standard
350
22
  0
DICTIONARY
  5
11
330
A
100
AcDbDictionary
281
1
  0
ACDBDICTIONARYWDFLT
  5
12
330
A
100
AcDbDictionary
281
1
  3
Normal
350
13
100
AcDbDictionaryWithDefault
340
13
  0
ACDBPLACEHOLDER
  5
13
330
12
  0
DICTIONARY
  5
14
330
A
100
AcDbDictionary
281
1
  0
DICTIONARY
  5
15
330
A
100
AcDbDictionary
281
1
  0
DICTIONARY
  5
16
330
A
100
AcDbDictionary
281
1
  0
LAYOUT
  5
1A
330
D
100
AcDbPlotSettings
  1

  4
A3
  6

 40
7.5
 41
20.0
 42
7.5
 43
20.0
 44
420.0
 45
297.0
 46
0.0
 47
0.0
 48
0.0
 49
0.0
140
0.0
141
0.0
142
1.0
143
1.0
 70
1024
 72
1
 73
0
 74
5
  7

 75
16
 76
0
 77
2
 78
300
147
1.0
148
0.0
149
0.0
100
AcDbLayout
  1
Model
 70
1
 71
0
 10
0.0
 20
0.0
 11
420.0
 21
297.0
 12
0.0
 22
0.0
 32
0.0
 14
1e+20
 24
1e+20
 34
1e+20
 15
-1e+20
 25
-1e+20
 35
-1e+20
146
0.0
 13
0.0
 23
0.0
 33
0.0
 16
1.0
 26
0.0
 36
0.0
 17
0.0
 27
1.0
 37
0.0
 76
1
330
17
  0
LAYOUT
  5
1E
330
D
100
AcDbPlotSettings
  1

  4
A3
  6

 40
7.5
 41
20.0
 42
7.5
 43
20.0
 44
420.0
 45
297.0
 46
0.0
 47
0.0
 48
0.0
 49
0.0
140
0.0
141
0.0
142
1.0
143
1.0
 70
0
 72
1
 73
0
 74
5
  7

 75
16
 76
0
 77
2
 78
300
147
1.0
148
0.0
149
0.0
100
AcDbLayout
  1
Layout1
 70
1
 71
1
 10
0.0
 20
0.0
 11
420.0
 21
297.0
 12
0.0
 22
0.0
 32
0.0
 14
1e+20
 24
1e+20
 34
1e+20
 15
-1e+20
 25
-1e+20
 35
-1e+20
146
0.0
 13
0.0
 23
0.0
 33
0.0
 16
1.0
 26
0.0
 36
0.0
 17
0.0
 27
1.0
 37
0.0
 76
1
330
1B
  0
MATERIAL
  5
1F
102
{ACAD_REACTORS
330
E
102
}
330
E
100
AcDbMaterial
  1
ByBlock
  2

 70
0
 40
1.0
 71
1
 41
1.0
 91
-1023410177
 42
1.0
 72
1
  3

 73
1
 74
1
 75
1
 44
0.5
 73
0
 45
1.0
 46
1.0
 77
1
  4

 78
1
 79
1
170
1
 48
1.0
171
1
  6

172
1
173
1
174
1
140
1.0
141
1.0
175
1
  7

176
1
177
1
178
1
143
1.0
179
1
  8

270
1
271
1
272
1
145
1.0
146
1.0
273
1
  9

274
1
275
1
276
1
 42
1.0
 72
1
  3

 73
1
 74
1
 75
1
 94
63
  0
MATERIAL
  5
20
102
{ACAD_REACTORS
330
E
102
}
330
E
100
AcDbMaterial
  1
ByLayer
  2

 70
0
 40
1.0
 71
1
 41
1.0
 91
-1023410177
 42
1.0
 72
1
  3

 73
1
 74
1
 75
1
 44
0.5
 73
0
 45
1.0
 46
1.0
 77
1
  4

 78
1
 79
1
170
1
 48
1.0
171
1
  6

172
1
173
1
174
1
140
1.0
141
1.0
175
1
  7

176
1
177
1
178
1
143
1.0
179
1
  8

270
1
271
1
272
1
145
1.0
146
1.0
273
1
  9

274
1
275
1
276
1
 42
1.0
 72
1
  3

 73
1
 74
1
 75
1
 94
63
  0
MATERIAL
  5
21
102
{ACAD_REACTORS
330
E
102
}
330
E
100
AcDbMaterial
  1
Global
  2

 70
0
 40
1.0
 71
1
 41
1.0
 91
-1023410177
 42
1.0
 72
1
  3

 73
1
 74
1
 75
1
 44
0.5
 73
0
 45
1.0
 46
1.0
 77
1
  4

 78
1
 79
1
170
1
 48
1.0
171
1
  6

172
1
173
1
174
1
140
1.0
141
1.0
175
1
  7

176
1
177
1
178
1
143
1.0
179
1
  8

270
1
271
1
272
1
145
1.0
146
1.0
273
1
  9

274
1
275
1
276
1
 42
1.0
 72
1
  3

 73
1
 74
1
 75
1
 94
63
  0
MLINESTYLE
  5
22
102
{ACAD_REACTORS
330
10
102
}
330
10
100
AcDbMlineStyle
  2
Standard
 70
0
  3

 62
256
 51
90.0
 52
90.0
 71
2
 49
0.5
 62
256
  6
BYLAYER
 49
-0.5
 62
256
  6
BYLAYER
  0
MLEADERSTYLE
  5
2C
102
{ACAD_REACTORS
330
F
102
}
330
F
100
AcDbMLeaderStyle
179
2
170
2
171
1
172
0
 90
2
 40
0.0
 41
0.0
173
1
 91
-1056964608
 92
-2
290
1
 42
2.0
291
1
 43
8.0
  3
Standard
 44
4.0
300

342
29
174
1
175
1
176
0
178
1
 93
-1056964608
 45
4.0
292
0
297
0
 46
4.0
 94
-1056964608
 47
1.0
 49
1.0
140
1.0
294
1
141
0.0
177
0
142
1.0
295
0
296
0
143
3.75
271
0
272
9
273
9
  0
DICTIONARY
  5
2D
330
A
100
AcDbDictionary
280
1
281
1
  3
CREATED_BY_EZDXF
350
2E
  3
WRITTEN_BY_EZDXF
350
1BA
  0
DICTIONARYVAR
  5
2E
330
2D
100
DictionaryVariables
280
0
  1
1.4.3 @ 2026-05-15T06:57:54.586157+00:00
  0
DICTIONARY
  5
6C
330
6B
100
AcDbDictionary
280
1
281
1
  0
DICTIONARY
  5
112
330
111
100
AcDbDictionary
280
1
281
1
  0
DICTIONARY
  5
12E
330
12D
100
AcDbDictionary
280
1
281
1
  0
DICTIONARY
  5
17A
330
179
100
AcDbDictionary
280
1
281
1
  0
DICTIONARY
  5
189
330
188
100
AcDbDictionary
280
1
281
1
  0
DICTIONARY
  5
197
330
196
100
AcDbDictionary
280
1
281
1
  0
DICTIONARY
  5
1AB
330
1AA
100
AcDbDictionary
280
1
281
1
  0
DICTIONARYVAR
  5
1BA
330
2D
100
DictionaryVariables
280
0
  1
1.4.3 @ 2026-05-15T06:57:54.613715+00:00
  0
ENDSEC
  0
EOF
