  0
SECTION
  2
HEADER
  9
$ACADVER
  1
AC1032
  9
$ACADMAINTVER
 90
4
  9
$DWGCODEPAGE
  3
ANSI_1252
  9
$LASTSAVEDBY
  1
ezdxf
  9
$REQUIREDVERSIONS
160
0
  9
$INSBASE
 10
0.0
 20
0.0
 30
0.0
  9
$EXTMIN
 10
1e+20
 20
1e+20
 30
1e+20
  9
$EXTMAX
 10
-1e+20
 20
-1e+20
 30
-1e+20
  9
$LIMMIN
 10
0.0
 20
0.0
  9
$LIMMAX
 10
420.0
 20
297.0
  9
$ORTHOMODE
 70
0
  9
$REGENMODE
 70
1
  9
$FILLMODE
 70
1
  9
$QTEXTMODE
 70
0
  9
$MIRRTEXT
 70
1
  9
$LTSCALE
 40
1.0
  9
$ATTMODE
 70
1
  9
$TEXTSIZE
 40
2.5
  9
$TRACEWID
 40
1.0
  9
$TEXTSTYLE
  7
Standard
  9
$CLAYER
  8
0
  9
$CELTYPE
  6
ByLayer
  9
$CECOLOR
 62
256
  9
$CELTSCALE
 40
1.0
  9
$DISPSILH
 70
0
  9
$DIMSCALE
 40
1.0
  9
$DIMASZ
 40
2.5
  9
$DIMEXO
 40
0.625
  9
$DIMDLI
 40
3.75
  9
$DIMRND
 40
0.0
  9
$DIMDLE
 40
0.0
  9
$DIMEXE
 40
1.25
  9
$DIMTP
 40
0.0
  9
$DIMTM
 40
0.0
  9
$DIMTXT
 40
2.5
  9
$DIMCEN
 40
2.5
  9
$DIMTSZ
 40
0.0
  9
$DIMTOL
 70
0
  9
$DIMLIM
 70
0
  9
$DIMTIH
 70
0
  9
$DIMTOH
 70
0
  9
$DIMSE1
 70
0
  9
$DIMSE2
 70
0
  9
$DIMTAD
 70
1
  9
$DIMZIN
 70
8
  9
$DIMBLK
  1

  9
$DIMASO
 70
1
  9
$DIMSHO
 70
1
  9
$DIMPOST
  1

  9
$DIMAPOST
  1

  9
$DIMALT
 70
0
  9
$DIMALTD
 70
3
  9
$DIMALTF
 40
0.03937007874
  9
$DIMLFAC
 40
1.0
  9
$DIMTOFL
 70
1
  9
$DIMTVP
 40
0.0
  9
$DIMTIX
 70
0
  9
$DIMSOXD
 70
0
  9
$DIMSAH
 70
0
  9
$DIMBLK1
  1

  9
$DIMBLK2
  1

  9
$DIMSTYLE
  2
ISO-25
  9
$DIMCLRD
 70
0
  9
$DIMCLRE
 70
0
  9
$DIMCLRT
 70
0
  9
$DIMTFAC
 40
1.0
  9
$DIMGAP
 40
0.625
  9
$DIMJUST
 70
0
  9
$DIMSD1
 70
0
  9
$DIMSD2
 70
0
  9
$DIMTOLJ
 70
0
  9
$DIMTZIN
 70
8
  9
$DIMALTZ
 70
0
  9
$DIMALTTZ
 70
0
  9
$DIMUPT
 70
0
  9
$DIMDEC
 70
2
  9
$DIMTDEC
 70
2
  9
$DIMALTU
 70
2
  9
$DIMALTTD
 70
3
  9
$DIMTXSTY
  7
Standard
  9
$DIMAUNIT
 70
0
  9
$DIMADEC
 70
0
  9
$DIMALTRND
 40
0.0
  9
$DIMAZIN
 70
0
  9
$DIMDSEP
 70
44
  9
$DIMATFIT
 70
3
  9
$DIMFRAC
 70
0
  9
$DIMLDRBLK
  1

  9
$DIMLUNIT
 70
2
  9
$DIMLWD
 70
-2
  9
$DIMLWE
 70
-2
  9
$DIMTMOVE
 70
0
  9
$DIMFXL
 40
1.0
  9
$DIMFXLON
 70
0
  9
$DIMJOGANG
 40
0.785398163397
  9
$DIMTFILL
 70
0
  9
$DIMTFILLCLR
 70
0
  9
$DIMARCSYM
 70
0
  9
$DIMLTYPE
  6

  9
$DIMLTEX1
  6

  9
$DIMLTEX2
  6

  9
$DIMTXTDIRECTION
 70
0
  9
$LUNITS
 70
2
  9
$LUPREC
 70
4
  9
$SKETCHINC
 40
1.0
  9
$FILLETRAD
 40
10.0
  9
$AUNITS
 70
0
  9
$AUPREC
 70
2
  9
$MENU
  1
.
  9
$ELEVATION
 40
0.0
  9
$PELEVATION
 40
0.0
  9
$THICKNESS
 40
0.0
  9
$LIMCHECK
 70
0
  9
$CHAMFERA
 40
0.0
  9
$CHAMFERB
 40
0.0
  9
$CHAMFERC
 40
0.0
  9
$CHAMFERD
 40
0.0
  9
$SKPOLY
 70
0
  9
$TDCREATE
 40
2461176.290208333
  9
$TDUCREATE
 40
2458532.153996898
  9
$TDUPDATE
 40
2461176.290208333
  9
$TDUUPDATE
 40
2458532.1544311
  9
$TDINDWG
 40
0.0
  9
$TDUSRTIMER
 40
0.0
  9
$USRTIMER
 70
1
  9
$ANGBASE
 50
0.0
  9
$ANGDIR
 70
0
  9
$PDMODE
 70
0
  9
$PDSIZE
 40
0.0
  9
$PLINEWID
 40
0.0
  9
$SPLFRAME
 70
0
  9
$SPLINETYPE
 70
6
  9
$SPLINESEGS
 70
8
  9
$HANDSEED
  5
1B4
  9
$SURFTAB1
 70
6
  9
$SURFTAB2
 70
6
  9
$SURFTYPE
 70
6
  9
$SURFU
 70
6
  9
$SURFV
 70
6
  9
$UCSBASE
  2

  9
$UCSNAME
  2

  9
$UCSORG
 10
0.0
 20
0.0
 30
0.0
  9
$UCSXDIR
 10
1.0
 20
0.0
 30
0.0
  9
$UCSYDIR
 10
0.0
 20
1.0
 30
0.0
  9
$UCSORTHOREF
  2

  9
$UCSORTHOVIEW
 70
0
  9
$UCSORGTOP
 10
0.0
 20
0.0
 30
0.0
  9
$UCSORGBOTTOM
 10
0.0
 20
0.0
 30
0.0
  9
$UCSORGLEFT
 10
0.0
 20
0.0
 30
0.0
  9
$UCSORGRIGHT
 10
0.0
 20
0.0
 30
0.0
  9
$UCSORGFRONT
 10
0.0
 20
0.0
 30
0.0
  9
$UCSORGBACK
 10
0.0
 20
0.0
 30
0.0
  9
$PUCSBASE
  2

  9
$PUCSNAME
  2

  9
$PUCSORG
 10
0.0
 20
0.0
 30
0.0
  9
$PUCSXDIR
 10
1.0
 20
0.0
 30
0.0
  9
$PUCSYDIR
 10
0.0
 20
1.0
 30
0.0
  9
$PUCSORTHOREF
  2

  9
$PUCSORTHOVIEW
 70
0
  9
$PUCSORGTOP
 10
0.0
 20
0.0
 30
0.0
  9
$PUCSORGBOTTOM
 10
0.0
 20
0.0
 30
0.0
  9
$PUCSORGLEFT
 10
0.0
 20
0.0
 30
0.0
  9
$PUCSORGRIGHT
 10
0.0
 20
0.0
 30
0.0
  9
$PUCSORGFRONT
 10
0.0
 20
0.0
 30
0.0
  9
$PUCSORGBACK
 10
0.0
 20
0.0
 30
0.0
  9
$USERI1
 70
0
  9
$USERI2
 70
0
  9
$USERI3
 70
0
  9
$USERI4
 70
0
  9
$USERI5
 70
0
  9
$USERR1
 40
0.0
  9
$USERR2
 40
0.0
  9
$USERR3
 40
0.0
  9
$USERR4
 40
0.0
  9
$USERR5
 40
0.0
  9
$WORLDVIEW
 70
1
  9
$SHADEDGE
 70
3
  9
$SHADEDIF
 70
70
  9
$TILEMODE
 70
1
  9
$MAXACTVP
 70
64
  9
$PINSBASE
 10
0.0
 20
0.0
 30
0.0
  9
$PLIMCHECK
 70
0
  9
$PEXTMIN
 10
1e+20
 20
1e+20
 30
1e+20
  9
$PEXTMAX
 10
-1e+20
 20
-1e+20
 30
-1e+20
  9
$PLIMMIN
 10
0.0
 20
0.0
  9
$PLIMMAX
 10
420.0
 20
297.0
  9
$UNITMODE
 70
0
  9
$VISRETAIN
 70
1
  9
$PLINEGEN
 70
0
  9
$PSLTSCALE
 70
1
  9
$TREEDEPTH
 70
3020
  9
$CMLSTYLE
  2
Standard
  9
$CMLJUST
 70
0
  9
$CMLSCALE
 40
20.0
  9
$PROXYGRAPHICS
 70
1
  9
$MEASUREMENT
 70
1
  9
$CELWEIGHT
370
-1
  9
$ENDCAPS
280
0
  9
$JOINSTYLE
280
0
  9
$LWDISPLAY
290
0
  9
$INSUNITS
 70
6
  9
$HYPERLINKBASE
  1

  9
$STYLESHEET
  1

  9
$XEDIT
290
1
  9
$CEPSNTYPE
380
0
  9
$PSTYLEMODE
290
1
  9
$FINGERPRINTGUID
  2
{C1E7A5D5-F116-4511-8DCB-266897A4E994}
  9
$VERSIONGUID
  2
{6E4BBD5C-7D33-4251-BB4C-D7F905BC62A7}
  9
$EXTNAMES
290
1
  9
$PSVPSCALE
 40
0.0
  9
$OLESTARTUP
290
0
  9
$SORTENTS
280
127
  9
$INDEXCTL
280
0
  9
$HIDETEXT
280
1
  9
$XCLIPFRAME
280
1
  9
$HALOGAP
280
0
  9
$OBSCOLOR
 70
257
  9
$OBSLTYPE
280
0
  9
$INTERSECTIONDISPLAY
280
0
  9
$INTERSECTIONCOLOR
 70
257
  9
$DIMASSOC
280
2
  9
$PROJECTNAME
  1

  9
$CAMERADISPLAY
290
0
  9
$LENSLENGTH
 40
50.0
  9
$CAMERAHEIGHT
 40
0.0
  9
$STEPSPERSEC
 40
24.0
  9
$STEPSIZE
 40
100.0
  9
$3DDWFPREC
 40
2.0
  9
$PSOLWIDTH
 40
0.005
  9
$PSOLHEIGHT
 40
0.08
  9
$LOFTANG1
 40
1.570796326795
  9
$LOFTANG2
 40
1.570796326795
  9
$LOFTMAG1
 40
0.0
  9
$LOFTMAG2
 40
0.0
  9
$LOFTPARAM
 70
7
  9
$LOFTNORMALS
280
1
  9
$LATITUDE
 40
37.795
  9
$LONGITUDE
 40
-122.394
  9
$NORTHDIRECTION
 40
0.0
  9
$TIMEZONE
 70
-8000
  9
$LIGHTGLYPHDISPLAY
280
1
  9
$TILEMODELIGHTSYNCH
280
1
  9
$CMATERIAL
347
20
  9
$SOLIDHIST
280
0
  9
$SHOWHIST
280
1
  9
$DWFFRAME
280
2
  9
$DGNFRAME
280
2
  9
$REALWORLDSCALE
290
1
  9
$INTERFERECOLOR
 62
256
  9
$CSHADOW
280
0
  9
$SHADOWPLANELOCATION
 40
0.0
  0
ENDSEC
  0
SECTION
  2
CLASSES
  0
CLASS
  1
ACDBDICTIONARYWDFLT
  2
AcDbDictionaryWithDefault
  3
ObjectDBX Classes
 90
0
 91
0
280
0
281
0
  0
CLASS
  1
SUN
  2
AcDbSun
  3
SCENEOE
 90
1153
 91
0
280
0
281
0
  0
CLASS
  1
VISUALSTYLE
  2
AcDbVisualStyle
  3
ObjectDBX Classes
 90
4095
 91
0
280
0
281
0
  0
CLASS
  1
MATERIAL
  2
AcDbMaterial
  3
ObjectDBX Classes
 90
1153
 91
0
280
0
281
0
  0
CLASS
  1
SCALE
  2
AcDbScale
  3
ObjectDBX Classes
 90
1153
 91
0
280
0
281
0
  0
CLASS
  1
TABLESTYLE
  2
AcDbTableStyle
  3
ObjectDBX Classes
 90
4095
 91
0
280
0
281
0
  0
CLASS
  1
MLEADERSTYLE
  2
AcDbMLeaderStyle
  3
ACDB_MLEADERSTYLE_CLASS
 90
4095
 91
0
280
0
281
0
  0
CLASS
  1
DICTIONARYVAR
  2
AcDbDictionaryVar
  3
ObjectDBX Classes
 90
0
 91
0
280
0
281
0
  0
CLASS
  1
CELLSTYLEMAP
  2
AcDbCellStyleMap
  3
ObjectDBX Classes
 90
1152
 91
0
280
0
281
0
  0
CLASS
  1
MENTALRAYRENDERSETTINGS
  2
AcDbMentalRayRenderSettings
  3
SCENEOE
 90
1024
 91
0
280
0
281
0
  0
CLASS
  1
ACDBDETAILVIEWSTYLE
  2
AcDbDetailViewStyle
  3
ObjectDBX Classes
 90
1025
 91
0
280
0
281
0
  0
CLASS
  1
ACDBSECTIONVIEWSTYLE
  2
AcDbSectionViewStyle
  3
ObjectDBX Classes
 90
1025
 91
0
280
0
281
0
  0
CLASS
  1
RASTERVARIABLES
  2
AcDbRasterVariables
  3
ISM
 90
0
 91
0
280
0
281
0
  0
CLASS
  1
LAYOUT
  2
AcDbLayout
  3
ObjectDBX Classes
 90
0
 91
0
280
0
281
0
  0
CLASS
  1
ACDBPLACEHOLDER
  2
AcDbPlaceHolder
  3
ObjectDBX Classes
 90
0
 91
0
280
0
281
0
  0
ENDSEC
  0
SECTION
  2
TABLES
  0
TABLE
  2
VPORT
  5
8
330
0
100
AcDbSymbolTable
 70
1
  0
VPORT
  5
23
330
8
100
AcDbSymbolTableRecord
100
AcDbViewportTableRecord
  2
*Active
 70
0
 10
0.0
 20
0.0
 11
1.0
 21
1.0
 12
0.0
 22
0.0
 13
0.0
 23
0.0
 14
0.5
 24
0.5
 15
0.5
 25
0.5
 16
0.0
 26
0.0
 36
1.0
 17
0.0
 27
0.0
 37
0.0
 40
1000.0
 41
1.34
 42
50.0
 43
0.0
 44
0.0
 50
0.0
 51
0.0
 71
0
 72
1000
 73
1
 74
3
 75
0
 76
0
 77
0
 78
0
281
0
 65
0
146
0.0
  0
ENDTAB
  0
TABLE
  2
LTYPE
  5
2
330
0
100
AcDbSymbolTable
 70
3
  0
LTYPE
  5
24
330
2
100
AcDbSymbolTableRecord
100
AcDbLinetypeTableRecord
  2
ByBlock
 70
0
  3

 72
65
 73
0
 40
0.0
  0
LTYPE
  5
25
330
2
100
AcDbSymbolTableRecord
100
AcDbLinetypeTableRecord
  2
ByLayer
 70
0
  3

 72
65
 73
0
 40
0.0
  0
LTYPE
  5
26
330
2
100
AcDbSymbolTableRecord
100
AcDbLinetypeTableRecord
  2
Continuous
 70
0
  3

 72
65
 73
0
 40
0.0
  0
ENDTAB
  0
TABLE
  2
LAYER
  5
1
330
0
100
AcDbSymbolTable
 70
7
  0
LAYER
  5
27
330
1
100
AcDbSymbolTableRecord
100
AcDbLayerTableRecord
  2
0
 70
0
 62
7
  6
Continuous
370
-3
390
13
347
21
  0
LAYER
  5
28
330
1
100
AcDbSymbolTableRecord
100
AcDbLayerTableRecord
  2
Defpoints
 70
0
 62
7
  6
Continuous
290
0
370
-3
390
13
347
21
  0
LAYER
  5
2F
330
1
100
AcDbSymbolTableRecord
100
AcDbLayerTableRecord
  2
MIKRA
 70
0
 62
7
  6
Continuous
370
-3
390
13
347
21
  0
LAYER
  5
30
330
1
100
AcDbSymbolTableRecord
100
AcDbLayerTableRecord
  2
kir
 70
0
 62
7
  6
Continuous
370
-3
390
13
347
21
  0
LAYER
  5
31
330
1
100
AcDbSymbolTableRecord
100
AcDbLayerTableRecord
  2
8
 70
0
 62
7
  6
Continuous
370
-3
390
13
347
21
  0
LAYER
  5
32
330
1
100
AcDbSymbolTableRecord
100
AcDbLayerTableRecord
  2
BAR-GAL
 70
0
 62
7
  6
Continuous
370
-3
390
13
347
21
  0
LAYER
  5
33
330
1
100
AcDbSymbolTableRecord
100
AcDbLayerTableRecord
  2
VP
 70
0
 62
-30
  6
Continuous
370
-3
390
13
347
21
  0
ENDTAB
  0
TABLE
  2
STYLE
  5
5
330
0
100
AcDbSymbolTable
 70
1
  0
STYLE
  5
29
330
5
100
AcDbSymbolTableRecord
100
AcDbTextStyleTableRecord
  2
Standard
 70
0
 40
0.0
 41
1.0
 50
0.0
 71
0
 42
2.5
  3
txt
  4

  0
ENDTAB
  0
TABLE
  2
VIEW
  5
7
330
0
100
AcDbSymbolTable
 70
0
  0
ENDTAB
  0
TABLE
  2
UCS
  5
6
330
0
100
AcDbSymbolTable
 70
0
  0
ENDTAB
  0
TABLE
  2
APPID
  5
3
330
0
100
AcDbSymbolTable
 70
3
  0
APPID
  5
2A
330
3
100
AcDbSymbolTableRecord
100
AcDbRegAppTableRecord
  2
ACAD
 70
0
  0
APPID
  5
1B1
330
3
100
AcDbSymbolTableRecord
100
AcDbRegAppTableRecord
  2
HATCHBACKGROUNDCOLOR
 70
0
  0
APPID
  5
1B2
330
3
100
AcDbSymbolTableRecord
100
AcDbRegAppTableRecord
  2
EZDXF
 70
0
  0
ENDTAB
  0
TABLE
  2
DIMSTYLE
  5
4
330
0
100
AcDbSymbolTable
 70
2
100
AcDbDimStyleTable
  0
DIMSTYLE
105
2B
330
4
100
AcDbSymbolTableRecord
100
AcDbDimStyleTableRecord
  2
Standard
 70
0
 40
1.0
 41
2.5
 42
0.625
 43
3.75
 44
1.25
 45
0.0
 46
0.0
 47
0.0
 48
0.0
 49
2.5
140
2.5
141
2.5
142
0.0
143
0.03937007874
144
1.0
145
0.0
146
1.0
147
0.625
148
0.0
 69
0
 70
0
 71
0
 72
0
 73
0
 74
0
 75
0
 76
0
 77
1
 78
8
 79
3
170
0
171
3
172
1
173
0
174
0
175
0
176
0
177
0
178
0
179
2
271
2
272
2
273
2
274
3
275
0
276
0
277
2
278
44
279
0
280
0
281
0
282
0
283
0
284
8
285
0
286
0
288
0
289
3
290
0
371
-2
372
-2
  0
DIMSTYLE
105
27
330
4
100
AcDbSymbolTableRecord
100
AcDbDimStyleTableRecord
  2
ISO-25
 70
0
 40
1.0
 41
30.0
 42
0.625
 43
3.75
 44
1.25
 45
0.0
 46
0.0
 47
0.0
 48
0.0
 49
2.5
140
30.0
141
2.5
142
0.0
143
0.03937007874016
144
1.0
145
0.0
146
1.0
147
10.0
148
0.0
 69
0
 70
0
 71
0
 72
0
 73
0
 74
0
 75
0
 76
0
 77
1
 78
8
 79
3
170
0
171
3
172
1
173
0
174
0
175
0
176
0
177
0
178
0
179
2
271
0
272
0
273
2
274
3
275
0
276
0
277
2
278
44
279
0
280
0
281
0
282
0
283
0
284
8
285
0
286
0
288
0
289
3
290
0
340
29
371
-2
372
-2
  0
ENDTAB
  0
TABLE
  2
BLOCK_RECORD
  5
9
330
0
100
AcDbSymbolTable
 70
26
  0
BLOCK_RECORD
  5
17
330
9
100
AcDbSymbolTableRecord
100
AcDbBlockTableRecord
  2
*Model_Space
340
1A
 70
0
280
1
281
0
  0
BLOCK_RECORD
  5
1B
330
9
100
AcDbSymbolTableRecord
100
AcDbBlockTableRecord
  2
*Paper_Space
340
1E
 70
0
280
1
281
0
  0
BLOCK_RECORD
  5
3A
330
9
100
AcDbSymbolTableRecord
100
AcDbBlockTableRecord
  2
*D1
340
0
 70
0
280
1
281
0
  0
BLOCK_RECORD
  5
49
330
9
100
AcDbSymbolTableRecord
100
AcDbBlockTableRecord
  2
*D2
340
0
 70
0
280
1
281
0
  0
BLOCK_RECORD
  5
56
330
9
100
AcDbSymbolTableRecord
100
AcDbBlockTableRecord
  2
*D3
340
0
 70
0
280
1
281
0
  0
BLOCK_RECORD
  5
63
330
9
100
AcDbSymbolTableRecord
100
AcDbBlockTableRecord
  2
*D4
340
0
 70
0
280
1
281
0
  0
BLOCK_RECORD
  5
72
330
9
100
AcDbSymbolTableRecord
100
AcDbBlockTableRecord
  2
*D5
340
0
 70
0
280
1
281
0
  0
BLOCK_RECORD
  5
80
330
9
100
AcDbSymbolTableRecord
100
AcDbBlockTableRecord
  2
*D6
340
0
 70
0
280
1
281
0
  0
BLOCK_RECORD
  5
90
330
9
100
AcDbSymbolTableRecord
100
AcDbBlockTableRecord
  2
*D7
340
0
 70
0
280
1
281
0
  0
BLOCK_RECORD
  5
9D
330
9
100
AcDbSymbolTableRecord
100
AcDbBlockTableRecord
  2
*D8
340
0
 70
0
280
1
281
0
  0
BLOCK_RECORD
  5
B1
330
9
100
AcDbSymbolTableRecord
100
AcDbBlockTableRecord
  2
*D9
340
0
 70
0
280
1
281
0
  0
BLOCK_RECORD
  5
C2
330
9
100
AcDbSymbolTableRecord
100
AcDbBlockTableRecord
  2
*D10
340
0
 70
0
280
1
281
0
  0
BLOCK_RECORD
  5
E8
330
9
100
AcDbSymbolTableRecord
100
AcDbBlockTableRecord
  2
*D11
340
0
 70
0
280
1
281
0
  0
BLOCK_RECORD
  5
F5
330
9
100
AcDbSymbolTableRecord
100
AcDbBlockTableRecord
  2
*D12
340
0
 70
0
280
1
281
0
  0
BLOCK_RECORD
  5
102
330
9
100
AcDbSymbolTableRecord
100
AcDbBlockTableRecord
  2
*D13
340
0
 70
0
280
1
281
0
  0
BLOCK_RECORD
  5
10F
330
9
100
AcDbSymbolTableRecord
100
AcDbBlockTableRecord
  2
*D14
340
0
 70
0
280
1
281
0
  0
BLOCK_RECORD
  5
11C
330
9
100
AcDbSymbolTableRecord
100
AcDbBlockTableRecord
  2
*D15
340
0
 70
0
280
1
281
0
  0
BLOCK_RECORD
  5
12B
330
9
100
AcDbSymbolTableRecord
100
AcDbBlockTableRecord
  2
*D16
340
0
 70
0
280
1
281
0
  0
BLOCK_RECORD
  5
13A
330
9
100
AcDbSymbolTableRecord
100
AcDbBlockTableRecord
  2
*D17
340
0
 70
0
280
1
281
0
  0
BLOCK_RECORD
  5
14A
330
9
100
AcDbSymbolTableRecord
100
AcDbBlockTableRecord
  2
*D18
340
0
 70
0
280
1
281
0
  0
BLOCK_RECORD
  5
157
330
9
100
AcDbSymbolTableRecord
100
AcDbBlockTableRecord
  2
*D19
340
0
 70
0
280
1
281
0
  0
BLOCK_RECORD
  5
165
330
9
100
AcDbSymbolTableRecord
100
AcDbBlockTableRecord
  2
*D20
340
0
 70
0
280
1
281
0
  0
BLOCK_RECORD
  5
173
330
9
100
AcDbSymbolTableRecord
100
AcDbBlockTableRecord
  2
*D21
340
0
 70
0
280
1
281
0
  0
BLOCK_RECORD
  5
180
330
9
100
AcDbSymbolTableRecord
100
AcDbBlockTableRecord
  2
*D22
340
0
 70
0
280
1
281
0
  0
BLOCK_RECORD
  5
194
330
9
100
AcDbSymbolTableRecord
100
AcDbBlockTableRecord
  2
*D23
340
0
 70
0
280
1
281
0
  0
BLOCK_RECORD
  5
1A2
330
9
100
AcDbSymbolTableRecord
100
AcDbBlockTableRecord
  2
*D24
340
0
 70
0
280
1
281
0
  0
ENDTAB
  0
ENDSEC
  0
SECTION
  2
BLOCKS
  0
BLOCK
  5
18
330
17
100
AcDbEntity
  8
0
100
AcDbBlockBegin
  2
*Model_Space
 70
0
 10
0.0
 20
0.0
 30
0.0
  3
*Model_Space
  1

  0
ENDBLK
  5
19
330
17
100
AcDbEntity
  8
0
100
AcDbBlockEnd
  0
BLOCK
  5
1C
330
1B
100
AcDbEntity
  8
0
100
AcDbBlockBegin
  2
*Paper_Space
 70
0
 10
0.0
 20
0.0
 30
0.0
  3
*Paper_Space
  1

  0
ENDBLK
  5
1D
330
1B
100
AcDbEntity
  8
0
100
AcDbBlockEnd
  0
BLOCK
  5
3B
330
3A
100
AcDbEntity
  8
0
100
AcDbBlockBegin
  2
*D1
 70
1
 10
0.0
 20
0.0
 30
0.0
  3
*D1
  1

  0
LINE
  5
3D
330
3A
100
AcDbEntity
  8
VP
 62
0
370
-2
440
16777216
100
AcDbLine
 10
1011862.16585334
 20
87266.13415869419
 30
0.0
 11
1011838.617663939
 21
87266.13415869419
 31
0.0
  0
LINE
  5
3E
330
3A
100
AcDbEntity
  8
VP
 62
0
370
-2
440
16777216
100
AcDbLine
 10
1011862.16585334
 20
87206.13415869419
 30
0.0
 11
1011838.617663939
 21
87206.13415869419
 31
0.0
  0
LINE
  5
3F
330
3A
100
AcDbEntity
  8
VP
 62
0
370
-2
440
16777216
100
AcDbLine
 10
1011839.867663939
 20
87296.13415869419
 30
0.0
 11
1011839.867663939
 21
87326.13415869419
 31
0.0
  0
LINE
  5
40
330
3A
100
AcDbEntity
  8
VP
 62
0
370
-2
440
16777216
100
AcDbLine
 10
1011839.867663939
 20
87176.13415869419
 30
0.0
 11
1011839.867663939
 21
87146.13415869419
 31
0.0
  0
LINE
  5
41
330
3A
100
AcDbEntity
  8
VP
 62
0
370
-2
440
16777216
100
AcDbLine
 10
1011839.867663939
 20
87266.13415869419
 30
0.0
 11
1011839.867663939
 21
87206.13415869419
 31
0.0
  0
SOLID
  5
42
330
3A
100
AcDbEntity
  8
VP
 62
0
370
13
440
16777216
100
AcDbTrace
 10
1011834.867663939
 20
87296.13415869419
 30
0.0
 11
1011844.867663939
 21
87296.13415869419
 31
0.0
 12
1011839.867663939
 22
87266.13415869419
 32
0.0
 13
1011839.867663939
 23
87266.13415869419
 33
0.0
  0
SOLID
  5
43
330
3A
100
AcDbEntity
  8
VP
 62
0
370
13
440
16777216
100
AcDbTrace
 10
1011834.867663939
 20
87176.13415869419
 30
0.0
 11
1011844.867663939
 21
87176.13415869419
 31
0.0
 12
1011839.867663939
 22
87206.13415869419
 32
0.0
 13
1011839.867663939
 23
87206.13415869419
 33
0.0
  0
MTEXT
  5
44
330
3A
100
AcDbEntity
  8
VP
 62
0
370
13
440
16777216
100
AcDbMText
 10
1011814.550474307
 20
87236.13415869388
 30
0.0
 40
30.0
 41
0.0
 46
0.0
 71
5
  1
60
 11
1e-16
 21
1.0
 31
0.0
  0
POINT
  5
45
330
3A
100
AcDbEntity
  8
Defpoints
 62
0
370
13
440
16777216
100
AcDbPoint
 10
1011862.79085334
 20
87266.13415869419
 30
0.0
  0
POINT
  5
46
330
3A
100
AcDbEntity
  8
Defpoints
 62
0
370
13
440
16777216
100
AcDbPoint
 10
1011862.79085334
 20
87206.13415869419
 30
0.0
  0
POINT
  5
47
330
3A
100
AcDbEntity
  8
Defpoints
 62
0
370
13
440
16777216
100
AcDbPoint
 10
1011839.867663939
 20
87206.13415869419
 30
0.0
  0
ENDBLK
  5
3C
330
3A
100
AcDbEntity
  8
0
100
AcDbBlockEnd
  0
BLOCK
  5
4A
330
49
100
AcDbEntity
  8
0
100
AcDbBlockBegin
  2
*D2
 70
1
 10
0.0
 20
0.0
 30
0.0
  3
*D2
  1

  0
LINE
  5
4C
330
49
100
AcDbEntity
  8
VP
 62
0
370
-2
440
16777216
100
AcDbLine
 10
1011517.117601393
 20
87265.26594861169
 30
0.0
 11
1011077.447679267
 21
87265.26594861169
 31
0.0
  0
LINE
  5
4D
330
49
100
AcDbEntity
  8
VP
 62
0
370
-2
440
16777216
100
AcDbLine
 10
1011666.543513021
 20
87579.83437412271
 30
0.0
 11
1011077.447679267
 21
87579.83437412271
 31
0.0
  0
LINE
  5
4E
330
49
100
AcDbEntity
  8
VP
 62
0
370
-2
440
16777216
100
AcDbLine
 10
1011078.697679268
 20
87295.26594861169
 30
0.0
 11
1011078.697679268
 21
87549.83437412271
 31
0.0
  0
SOLID
  5
4F
330
49
100
AcDbEntity
  8
VP
 62
0
370
13
440
16777216
100
AcDbTrace
 10
1011073.697679268
 20
87295.26594861169
 30
0.0
 11
1011083.697679268
 21
87295.26594861169
 31
0.0
 12
1011078.697679268
 22
87265.26594861169
 32
0.0
 13
1011078.697679268
 23
87265.26594861169
 33
0.0
  0
SOLID
  5
50
330
49
100
AcDbEntity
  8
VP
 62
0
370
13
440
16777216
100
AcDbTrace
 10
1011073.697679268
 20
87549.83437412271
 30
0.0
 11
1011083.697679268
 21
87549.83437412271
 31
0.0
 12
1011078.697679268
 22
87579.83437412271
 32
0.0
 13
1011078.697679268
 23
87579.83437412271
 33
0.0
  0
MTEXT
  5
51
330
49
100
AcDbEntity
  8
VP
 62
0
370
13
440
16777216
100
AcDbMText
 10
1011053.370257712
 20
87422.55016136692
 30
0.0
 40
30.0
 41
0.0
 46
0.0
 71
5
  1
315
 11
1e-16
 21
1.0
 31
0.0
  0
POINT
  5
52
330
49
100
AcDbEntity
  8
Defpoints
 62
0
370
13
440
16777216
100
AcDbPoint
 10
1011517.742601393
 20
87265.26594861169
 30
0.0
  0
POINT
  5
53
330
49
100
AcDbEntity
  8
Defpoints
 62
0
370
13
440
16777216
100
AcDbPoint
 10
1011667.168513021
 20
87579.83437412271
 30
0.0
  0
POINT
  5
54
330
49
100
AcDbEntity
  8
Defpoints
 62
0
370
13
440
16777216
100
AcDbPoint
 10
1011078.697679268
 20
87579.83437412271
 30
0.0
  0
ENDBLK
  5
4B
330
49
100
AcDbEntity
  8
0
100
AcDbBlockEnd
  0
BLOCK
  5
57
330
56
100
AcDbEntity
  8
0
100
AcDbBlockBegin
  2
*D3
 70
1
 10
0.0
 20
0.0
 30
0.0
  3
*D3
  1

  0
LINE
  5
59
330
56
100
AcDbEntity
  8
VP
 62
0
370
-2
440
16777216
100
AcDbLine
 10
1011739.351881679
 20
87579.2093741227
 30
0.0
 11
1011739.351881679
 21
87518.73736617882
 31
0.0
  0
LINE
  5
5A
330
56
100
AcDbEntity
  8
VP
 62
0
370
-2
440
16777216
100
AcDbLine
 10
1012079.400241408
 20
87579.2093741227
 30
0.0
 11
1012079.400241408
 21
87518.73736617882
 31
0.0
  0
LINE
  5
5B
330
56
100
AcDbEntity
  8
VP
 62
0
370
-2
440
16777216
100
AcDbLine
 10
1011769.351881679
 20
87519.98736617882
 30
0.0
 11
1012049.400241408
 21
87519.98736617882
 31
0.0
  0
SOLID
  5
5C
330
56
100
AcDbEntity
  8
VP
 62
0
370
13
440
16777216
100
AcDbTrace
 10
1011769.351881679
 20
87524.98736617882
 30
0.0
 11
1011769.351881679
 21
87514.98736617882
 31
0.0
 12
1011739.351881679
 22
87519.98736617882
 32
0.0
 13
1011739.351881679
 23
87519.98736617882
 33
0.0
  0
SOLID
  5
5D
330
56
100
AcDbEntity
  8
VP
 62
0
370
13
440
16777216
100
AcDbTrace
 10
1012049.400241408
 20
87524.98736617882
 30
0.0
 11
1012049.400241408
 21
87514.98736617882
 31
0.0
 12
1012079.400241408
 22
87519.98736617882
 32
0.0
 13
1012079.400241408
 23
87519.98736617882
 33
0.0
  0
MTEXT
  5
5E
330
56
100
AcDbEntity
  8
VP
 62
0
370
13
440
16777216
100
AcDbMText
 10
1011909.376061544
 20
87545.31478773407
 30
0.0
 40
30.0
 41
0.0
 46
0.0
 71
5
  1
340
  0
POINT
  5
5F
330
56
100
AcDbEntity
  8
Defpoints
 62
0
370
13
440
16777216
100
AcDbPoint
 10
1011739.351881679
 20
87579.83437412271
 30
0.0
  0
POINT
  5
60
330
56
100
AcDbEntity
  8
Defpoints
 62
0
370
13
440
16777216
100
AcDbPoint
 10
1012079.400241408
 20
87579.83437412271
 30
0.0
  0
POINT
  5
61
330
56
100
AcDbEntity
  8
Defpoints
 62
0
370
13
440
16777216
100
AcDbPoint
 10
1012079.400241408
 20
87519.98736617882
 30
0.0
  0
ENDBLK
  5
58
330
56
100
AcDbEntity
  8
0
100
AcDbBlockEnd
  0
BLOCK
  5
64
330
63
100
AcDbEntity
  8
0
100
AcDbBlockBegin
  2
*D4
 70
1
 10
0.0
 20
0.0
 30
0.0
  3
*D4
  1

  0
LINE
  5
66
330
63
100
AcDbEntity
  8
VP
 62
0
370
-2
440
16777216
100
AcDbLine
 10
1011589.485608397
 20
86514.2093741227
 30
0.0
 11
1011589.485608397
 21
86215.22933981854
 31
0.0
  0
LINE
  5
67
330
63
100
AcDbEntity
  8
VP
 62
0
370
-2
440
16777216
100
AcDbLine
 10
1012123.001254102
 20
86513.77779963372
 30
0.0
 11
1012123.001254102
 21
86215.22933981854
 31
0.0
  0
LINE
  5
68
330
63
100
AcDbEntity
  8
VP
 62
0
370
-2
440
16777216
100
AcDbLine
 10
1011619.485608397
 20
86216.47933981856
 30
0.0
 11
1012093.001254102
 21
86216.47933981856
 31
0.0
  0
SOLID
  5
69
330
63
100
AcDbEntity
  8
VP
 62
0
370
13
440
16777216
100
AcDbTrace
 10
1011619.485608397
 20
86221.47933981854
 30
0.0
 11
1011619.485608397
 21
86211.47933981854
 31
0.0
 12
1011589.485608397
 22
86216.47933981856
 32
0.0
 13
1011589.485608397
 23
86216.47933981856
 33
0.0
  0
SOLID
  5
6A
330
63
100
AcDbEntity
  8
VP
 62
0
370
13
440
16777216
100
AcDbTrace
 10
1012093.001254102
 20
86221.47933981854
 30
0.0
 11
1012093.001254102
 21
86211.47933981854
 31
0.0
 12
1012123.001254102
 22
86216.47933981856
 32
0.0
 13
1012123.001254102
 23
86216.47933981856
 33
0.0
  0
MTEXT
  5
6B
330
63
100
AcDbEntity
  8
VP
 62
0
370
13
440
16777216
100
AcDbMText
 10
1011856.24343125
 20
86241.80676137381
 30
0.0
 40
30.0
 41
0.0
 46
0.0
 71
5
  1
534
  0
POINT
  5
6C
330
63
100
AcDbEntity
  8
Defpoints
 62
0
370
13
440
16777216
100
AcDbPoint
 10
1011589.485608397
 20
86514.8343741227
 30
0.0
  0
POINT
  5
6D
330
63
100
AcDbEntity
  8
Defpoints
 62
0
370
13
440
16777216
100
AcDbPoint
 10
1012123.001254102
 20
86514.40279963374
 30
0.0
  0
POINT
  5
6E
330
63
100
AcDbEntity
  8
Defpoints
 62
0
370
13
440
16777216
100
AcDbPoint
 10
1012123.001254102
 20
86216.47933981856
 30
0.0
  0
ENDBLK
  5
65
330
63
100
AcDbEntity
  8
0
100
AcDbBlockEnd
  0
BLOCK
  5
73
330
72
100
AcDbEntity
  8
0
100
AcDbBlockBegin
  2
*D5
 70
1
 10
0.0
 20
0.0
 30
0.0
  3
*D5
  1

  0
LINE
  5
75
330
72
100
AcDbEntity
  8
VP
 62
0
370
-2
440
16777216
100
AcDbLine
 10
1012483.886740718
 20
87893.97898219049
 30
0.0
 11
1012538.63593845
 21
87893.97898219049
 31
0.0
  0
LINE
  5
76
330
72
100
AcDbEntity
  8
VP
 62
0
370
-2
440
16777216
100
AcDbLine
 10
1012483.886740718
 20
88283.96561109088
 30
0.0
 11
1012538.63593845
 21
88283.96561109088
 31
0.0
  0
LINE
  5
77
330
72
100
AcDbEntity
  8
VP
 62
0
370
-2
440
16777216
100
AcDbLine
 10
1012537.38593845
 20
87923.97898219049
 30
0.0
 11
1012537.38593845
 21
88253.96561109088
 31
0.0
  0
SOLID
  5
78
330
72
100
AcDbEntity
  8
VP
 62
0
370
13
440
16777216
100
AcDbTrace
 10
1012532.38593845
 20
87923.97898219049
 30
0.0
 11
1012542.385938451
 21
87923.97898219049
 31
0.0
 12
1012537.38593845
 22
87893.97898219049
 32
0.0
 13
1012537.38593845
 23
87893.97898219049
 33
0.0
  0
SOLID
  5
79
330
72
100
AcDbEntity
  8
VP
 62
0
370
13
440
16777216
100
AcDbTrace
 10
1012532.38593845
 20
88253.96561109088
 30
0.0
 11
1012542.385938451
 21
88253.96561109088
 31
0.0
 12
1012537.38593845
 22
88283.96561109088
 32
0.0
 13
1012537.38593845
 23
88283.96561109088
 33
0.0
  0
MTEXT
  5
7A
330
72
100
AcDbEntity
  8
VP
 62
0
370
13
440
16777216
100
AcDbMText
 10
1012512.058516895
 20
88088.97229664038
 30
0.0
 40
30.0
 41
0.0
 46
0.0
 71
5
  1
390
 11
1e-16
 21
1.0
 31
0.0
  0
POINT
  5
7B
330
72
100
AcDbEntity
  8
Defpoints
 62
0
370
13
440
16777216
100
AcDbPoint
 10
1012483.261740718
 20
87893.97898219049
 30
0.0
  0
POINT
  5
7C
330
72
100
AcDbEntity
  8
Defpoints
 62
0
370
13
440
16777216
100
AcDbPoint
 10
1012483.261740718
 20
88283.96561109088
 30
0.0
  0
POINT
  5
7D
330
72
100
AcDbEntity
  8
Defpoints
 62
0
370
13
440
16777216
100
AcDbPoint
 10
1012537.38593845
 20
88283.96561109088
 30
0.0
  0
ENDBLK
  5
74
330
72
100
AcDbEntity
  8
0
100
AcDbBlockEnd
  0
BLOCK
  5
81
330
80
100
AcDbEntity
  8
0
100
AcDbBlockBegin
  2
*D6
 70
1
 10
0.0
 20
0.0
 30
0.0
  3
*D6
  1

  0
LINE
  5
83
330
80
100
AcDbEntity
  8
VP
 62
0
370
-2
440
16777216
100
AcDbLine
 10
1012202.771046314
 20
88286.545790094
 30
0.0
 11
1012202.771046314
 21
88390.01173570124
 31
0.0
  0
LINE
  5
84
330
80
100
AcDbEntity
  8
VP
 62
0
370
-2
440
16777216
100
AcDbLine
 10
1012483.261740718
 20
88285.59061109085
 30
0.0
 11
1012483.261740718
 21
88390.01173570124
 31
0.0
  0
LINE
  5
85
330
80
100
AcDbEntity
  8
VP
 62
0
370
-2
440
16777216
100
AcDbLine
 10
1012232.771046314
 20
88388.76173570124
 30
0.0
 11
1012453.261740718
 21
88388.76173570124
 31
0.0
  0
SOLID
  5
86
330
80
100
AcDbEntity
  8
VP
 62
0
370
13
440
16777216
100
AcDbTrace
 10
1012232.771046314
 20
88393.76173570124
 30
0.0
 11
1012232.771046314
 21
88383.76173570124
 31
0.0
 12
1012202.771046314
 22
88388.76173570124
 32
0.0
 13
1012202.771046314
 23
88388.76173570124
 33
0.0
  0
SOLID
  5
87
330
80
100
AcDbEntity
  8
VP
 62
0
370
13
440
16777216
100
AcDbTrace
 10
1012453.261740718
 20
88393.76173570124
 30
0.0
 11
1012453.261740718
 21
88383.76173570124
 31
0.0
 12
1012483.261740718
 22
88388.76173570124
 32
0.0
 13
1012483.261740718
 23
88388.76173570124
 33
0.0
  0
MTEXT
  5
88
330
80
100
AcDbEntity
  8
VP
 62
0
370
13
440
16777216
100
AcDbMText
 10
1012343.016393516
 20
88414.07892533288
 30
0.0
 40
30.0
 41
0.0
 46
0.0
 71
5
  1
280
  0
POINT
  5
89
330
80
100
AcDbEntity
  8
Defpoints
 62
0
370
13
440
16777216
100
AcDbPoint
 10
1012202.771046314
 20
88285.92079009402
 30
0.0
  0
POINT
  5
8A
330
80
100
AcDbEntity
  8
Defpoints
 62
0
370
13
440
16777216
100
AcDbPoint
 10
1012483.261740718
 20
88284.96561109085
 30
0.0
  0
POINT
  5
8B
330
80
100
AcDbEntity
  8
Defpoints
 62
0
370
13
440
16777216
100
AcDbPoint
 10
1012483.261740718
 20
88388.76173570124
 30
0.0
  0
ENDBLK
  5
82
330
80
100
AcDbEntity
  8
0
100
AcDbBlockEnd
  0
BLOCK
  5
91
330
90
100
AcDbEntity
  8
0
100
AcDbBlockBegin
  2
*D7
 70
1
 10
0.0
 20
0.0
 30
0.0
  3
*D7
  1

  0
LINE
  5
93
330
90
100
AcDbEntity
  8
VP
 62
0
370
-2
440
16777216
100
AcDbLine
 10
1012585.79109386
 20
88495.10500447385
 30
0.0
 11
1012554.601841017
 21
88495.10500447385
 31
0.0
  0
LINE
  5
94
330
90
100
AcDbEntity
  8
VP
 62
0
370
-2
440
16777216
100
AcDbLine
 10
1012582.607317481
 20
88679.77295623464
 30
0.0
 11
1012554.601841017
 21
88679.77295623464
 31
0.0
  0
LINE
  5
95
330
90
100
AcDbEntity
  8
VP
 62
0
370
-2
440
16777216
100
AcDbLine
 10
1012555.851841017
 20
88525.10500447385
 30
0.0
 11
1012555.851841017
 21
88649.77295623464
 31
0.0
  0
SOLID
  5
96
330
90
100
AcDbEntity
  8
VP
 62
0
370
13
440
16777216
100
AcDbTrace
 10
1012550.851841017
 20
88525.10500447385
 30
0.0
 11
1012560.851841017
 21
88525.10500447385
 31
0.0
 12
1012555.851841017
 22
88495.10500447385
 32
0.0
 13
1012555.851841017
 23
88495.10500447385
 33
0.0
  0
SOLID
  5
97
330
90
100
AcDbEntity
  8
VP
 62
0
370
13
440
16777216
100
AcDbTrace
 10
1012550.851841017
 20
88649.77295623464
 30
0.0
 11
1012560.851841017
 21
88649.77295623464
 31
0.0
 12
1012555.851841017
 22
88679.77295623464
 32
0.0
 13
1012555.851841017
 23
88679.77295623464
 33
0.0
  0
MTEXT
  5
98
330
90
100
AcDbEntity
  8
VP
 62
0
370
13
440
16777216
100
AcDbMText
 10
1012530.534651385
 20
88587.43898035395
 30
0.0
 40
30.0
 41
0.0
 46
0.0
 71
5
  1
185
 11
1e-16
 21
1.0
 31
0.0
  0
POINT
  5
99
330
90
100
AcDbEntity
  8
Defpoints
 62
0
370
13
440
16777216
100
AcDbPoint
 10
1012586.41609386
 20
88495.10500447385
 30
0.0
  0
POINT
  5
9A
330
90
100
AcDbEntity
  8
Defpoints
 62
0
370
13
440
16777216
100
AcDbPoint
 10
1012583.232317481
 20
88679.77295623464
 30
0.0
  0
POINT
  5
9B
330
90
100
AcDbEntity
  8
Defpoints
 62
0
370
13
440
16777216
100
AcDbPoint
 10
1012555.851841017
 20
88679.77295623464
 30
0.0
  0
ENDBLK
  5
92
330
90
100
AcDbEntity
  8
0
100
AcDbBlockEnd
  0
BLOCK
  5
9E
330
9D
100
AcDbEntity
  8
0
100
AcDbBlockBegin
  2
*D8
 70
1
 10
0.0
 20
0.0
 30
0.0
  3
*D8
  1

  0
LINE
  5
A0
330
9D
100
AcDbEntity
  8
VP
 62
0
370
-2
440
16777216
100
AcDbLine
 10
1012202.4526687
 20
88495.11679051438
 30
0.0
 11
1012202.4526687
 21
88441.00176310782
 31
0.0
  0
LINE
  5
A1
330
9D
100
AcDbEntity
  8
VP
 62
0
370
-2
440
16777216
100
AcDbLine
 10
1012582.232317481
 20
88495.11679051438
 30
0.0
 11
1012582.232317481
 21
88441.00176310782
 31
0.0
  0
LINE
  5
A2
330
9D
100
AcDbEntity
  8
VP
 62
0
370
-2
440
16777216
100
AcDbLine
 10
1012232.4526687
 20
88442.2517631078
 30
0.0
 11
1012552.232317481
 21
88442.2517631078
 31
0.0
  0
SOLID
  5
A3
330
9D
100
AcDbEntity
  8
VP
 62
0
370
13
440
16777216
100
AcDbTrace
 10
1012232.4526687
 20
88447.25176310781
 30
0.0
 11
1012232.4526687
 21
88437.25176310782
 31
0.0
 12
1012202.4526687
 22
88442.2517631078
 32
0.0
 13
1012202.4526687
 23
88442.2517631078
 33
0.0
  0
SOLID
  5
A4
330
9D
100
AcDbEntity
  8
VP
 62
0
370
13
440
16777216
100
AcDbTrace
 10
1012552.232317481
 20
88447.25176310781
 30
0.0
 11
1012552.232317481
 21
88437.25176310782
 31
0.0
 12
1012582.232317481
 22
88442.2517631078
 32
0.0
 13
1012582.232317481
 23
88442.2517631078
 33
0.0
  0
MTEXT
  5
A5
330
9D
100
AcDbEntity
  8
VP
 62
0
370
13
440
16777216
100
AcDbMText
 10
1012392.34249309
 20
88467.57918466305
 30
0.0
 40
30.0
 41
0.0
 46
0.0
 71
5
  1
380
  0
POINT
  5
A6
330
9D
100
AcDbEntity
  8
Defpoints
 62
0
370
13
440
16777216
100
AcDbPoint
 10
1012202.4526687
 20
88495.7417905144
 30
0.0
  0
POINT
  5
A7
330
9D
100
AcDbEntity
  8
Defpoints
 62
0
370
13
440
16777216
100
AcDbPoint
 10
1012582.232317481
 20
88495.7417905144
 30
0.0
  0
POINT
  5
A8
330
9D
100
AcDbEntity
  8
Defpoints
 62
0
370
13
440
16777216
100
AcDbPoint
 10
1012582.232317481
 20
88442.2517631078
 30
0.0
  0
ENDBLK
  5
9F
330
9D
100
AcDbEntity
  8
0
100
AcDbBlockEnd
  0
BLOCK
  5
B2
330
B1
100
AcDbEntity
  8
0
100
AcDbBlockBegin
  2
*D9
 70
1
 10
0.0
 20
0.0
 30
0.0
  3
*D9
  1

  0
LINE
  5
B4
330
B1
100
AcDbEntity
  8
VP
 62
0
370
-2
440
16777216
100
AcDbLine
 10
1012648.441941414
 20
87894.60398219046
 30
0.0
 11
1012648.441941414
 21
87947.82723749829
 31
0.0
  0
LINE
  5
B5
330
B1
100
AcDbEntity
  8
VP
 62
0
370
-2
440
16777216
100
AcDbLine
 10
1012483.261740718
 20
87894.60398219046
 30
0.0
 11
1012483.261740718
 21
87947.82723749829
 31
0.0
  0
LINE
  5
B6
330
B1
100
AcDbEntity
  8
VP
 62
0
370
-2
440
16777216
100
AcDbLine
 10
1012618.441941414
 20
87946.57723749828
 30
0.0
 11
1012513.261740718
 21
87946.57723749828
 31
0.0
  0
SOLID
  5
B7
330
B1
100
AcDbEntity
  8
VP
 62
0
370
13
440
16777216
100
AcDbTrace
 10
1012618.441941414
 20
87951.57723749829
 30
0.0
 11
1012618.441941414
 21
87941.5772374983
 31
0.0
 12
1012648.441941414
 22
87946.57723749828
 32
0.0
 13
1012648.441941414
 23
87946.57723749828
 33
0.0
  0
SOLID
  5
B8
330
B1
100
AcDbEntity
  8
VP
 62
0
370
13
440
16777216
100
AcDbTrace
 10
1012513.261740718
 20
87951.57723749829
 30
0.0
 11
1012513.261740718
 21
87941.5772374983
 31
0.0
 12
1012483.261740718
 22
87946.57723749828
 32
0.0
 13
1012483.261740718
 23
87946.57723749828
 33
0.0
  0
MTEXT
  5
B9
330
B1
100
AcDbEntity
  8
VP
 62
0
370
13
440
16777216
100
AcDbMText
 10
1012565.851841066
 20
87971.89442712994
 30
0.0
 40
30.0
 41
0.0
 46
0.0
 71
5
  1
165
  0
POINT
  5
BA
330
B1
100
AcDbEntity
  8
Defpoints
 62
0
370
13
440
16777216
100
AcDbPoint
 10
1012648.441941414
 20
87893.97898219046
 30
0.0
  0
POINT
  5
BB
330
B1
100
AcDbEntity
  8
Defpoints
 62
0
370
13
440
16777216
100
AcDbPoint
 10
1012483.261740718
 20
87893.97898219046
 30
0.0
  0
POINT
  5
BC
330
B1
100
AcDbEntity
  8
Defpoints
 62
0
370
13
440
16777216
100
AcDbPoint
 10
1012483.261740718
 20
87946.57723749828
 30
0.0
  0
ENDBLK
  5
B3
330
B1
100
AcDbEntity
  8
0
100
AcDbBlockEnd
  0
BLOCK
  5
C3
330
C2
100
AcDbEntity
  8
0
100
AcDbBlockBegin
  2
*D10
 70
1
 10
0.0
 20
0.0
 30
0.0
  3
*D10
  1

  0
LINE
  5
C5
330
C2
100
AcDbEntity
  8
VP
 62
0
370
-2
440
16777216
100
AcDbLine
 10
1012647.887332473
 20
88495.10500447385
 30
0.0
 11
1012588.430163201
 21
88495.10500447385
 31
0.0
  0
LINE
  5
C6
330
C2
100
AcDbEntity
  8
VP
 62
0
370
-2
440
16777216
100
AcDbLine
 10
1012646.543430839
 20
87894.97898219049
 30
0.0
 11
1012588.430163201
 21
87894.97898219049
 31
0.0
  0
LINE
  5
C7
330
C2
100
AcDbEntity
  8
VP
 62
0
370
-2
440
16777216
100
AcDbLine
 10
1012589.680163202
 20
88465.10500447385
 30
0.0
 11
1012589.680163202
 21
87924.97898219049
 31
0.0
  0
SOLID
  5
C8
330
C2
100
AcDbEntity
  8
VP
 62
0
370
13
440
16777216
100
AcDbTrace
 10
1012584.680163202
 20
88465.10500447385
 30
0.0
 11
1012594.680163201
 21
88465.10500447385
 31
0.0
 12
1012589.680163202
 22
88495.10500447385
 32
0.0
 13
1012589.680163202
 23
88495.10500447385
 33
0.0
  0
SOLID
  5
C9
330
C2
100
AcDbEntity
  8
VP
 62
0
370
13
440
16777216
100
AcDbTrace
 10
1012584.680163202
 20
87924.97898219049
 30
0.0
 11
1012594.680163201
 21
87924.97898219049
 31
0.0
 12
1012589.680163202
 22
87894.97898219049
 32
0.0
 13
1012589.680163202
 23
87894.97898219049
 33
0.0
  0
MTEXT
  5
CA
330
C2
100
AcDbEntity
  8
VP
 62
0
370
13
440
16777216
100
AcDbMText
 10
1012564.36297357
 20
88195.04199333188
 30
0.0
 40
30.0
 41
0.0
 46
0.0
 71
5
  1
600
 11
1e-16
 21
1.0
 31
0.0
  0
POINT
  5
CB
330
C2
100
AcDbEntity
  8
Defpoints
 62
0
370
13
440
16777216
100
AcDbPoint
 10
1012648.512332473
 20
88495.10500447385
 30
0.0
  0
POINT
  5
CC
330
C2
100
AcDbEntity
  8
Defpoints
 62
0
370
13
440
16777216
100
AcDbPoint
 10
1012647.168430839
 20
87894.97898219049
 30
0.0
  0
POINT
  5
CD
330
C2
100
AcDbEntity
  8
Defpoints
 62
0
370
13
440
16777216
100
AcDbPoint
 10
1012589.680163202
 20
87894.97898219049
 30
0.0
  0
ENDBLK
  5
C4
330
C2
100
AcDbEntity
  8
0
100
AcDbBlockEnd
  0
BLOCK
  5
E9
330
E8
100
AcDbEntity
  8
0
100
AcDbBlockBegin
  2
*D11
 70
1
 10
0.0
 20
0.0
 30
0.0
  3
*D11
  1

  0
LINE
  5
EB
330
E8
100
AcDbEntity
  8
VP
 62
0
370
-2
440
16777216
100
AcDbLine
 10
1011445.80510119
 20
88219.2093741227
 30
0.0
 11
1011445.80510119
 21
88118.59689014644
 31
0.0
  0
LINE
  5
EC
330
E8
100
AcDbEntity
  8
VP
 62
0
370
-2
440
16777216
100
AcDbLine
 10
1011740.80510119
 20
88219.2093741227
 30
0.0
 11
1011740.80510119
 21
88118.59689014644
 31
0.0
  0
LINE
  5
ED
330
E8
100
AcDbEntity
  8
VP
 62
0
370
-2
440
16777216
100
AcDbLine
 10
1011475.80510119
 20
88119.84689014644
 30
0.0
 11
1011710.80510119
 21
88119.84689014644
 31
0.0
  0
SOLID
  5
EE
330
E8
100
AcDbEntity
  8
VP
 62
0
370
13
440
16777216
100
AcDbTrace
 10
1011475.80510119
 20
88124.84689014644
 30
0.0
 11
1011475.80510119
 21
88114.84689014644
 31
0.0
 12
1011445.80510119
 22
88119.84689014644
 32
0.0
 13
1011445.80510119
 23
88119.84689014644
 33
0.0
  0
SOLID
  5
EF
330
E8
100
AcDbEntity
  8
VP
 62
0
370
13
440
16777216
100
AcDbTrace
 10
1011710.80510119
 20
88124.84689014644
 30
0.0
 11
1011710.80510119
 21
88114.84689014644
 31
0.0
 12
1011740.80510119
 22
88119.84689014644
 32
0.0
 13
1011740.80510119
 23
88119.84689014644
 33
0.0
  0
MTEXT
  5
F0
330
E8
100
AcDbEntity
  8
VP
 62
0
370
13
440
16777216
100
AcDbMText
 10
1011593.30510119
 20
88145.16407977809
 30
0.0
 40
30.0
 41
0.0
 46
0.0
 71
5
  1
295
  0
POINT
  5
F1
330
E8
100
AcDbEntity
  8
Defpoints
 62
0
370
13
440
16777216
100
AcDbPoint
 10
1011445.80510119
 20
88219.83437412271
 30
0.0
  0
POINT
  5
F2
330
E8
100
AcDbEntity
  8
Defpoints
 62
0
370
13
440
16777216
100
AcDbPoint
 10
1011740.80510119
 20
88219.83437412271
 30
0.0
  0
POINT
  5
F3
330
E8
100
AcDbEntity
  8
Defpoints
 62
0
370
13
440
16777216
100
AcDbPoint
 10
1011740.80510119
 20
88119.84689014644
 30
0.0
  0
ENDBLK
  5
EA
330
E8
100
AcDbEntity
  8
0
100
AcDbBlockEnd
  0
BLOCK
  5
F6
330
F5
100
AcDbEntity
  8
0
100
AcDbBlockBegin
  2
*D12
 70
1
 10
0.0
 20
0.0
 30
0.0
  3
*D12
  1

  0
LINE
  5
F8
330
F5
100
AcDbEntity
  8
VP
 62
0
370
-2
440
16777216
100
AcDbLine
 10
1012123.001254102
 20
86653.77779963375
 30
0.0
 11
1012123.001254102
 21
86215.22933981854
 31
0.0
  0
LINE
  5
F9
330
F5
100
AcDbEntity
  8
VP
 62
0
370
-2
440
16777216
100
AcDbLine
 10
1012419.001254103
 20
86653.77779963375
 30
0.0
 11
1012419.001254103
 21
86215.22933981854
 31
0.0
  0
LINE
  5
FA
330
F5
100
AcDbEntity
  8
VP
 62
0
370
-2
440
16777216
100
AcDbLine
 10
1012153.001254102
 20
86216.47933981856
 30
0.0
 11
1012389.001254103
 21
86216.47933981856
 31
0.0
  0
SOLID
  5
FB
330
F5
100
AcDbEntity
  8
VP
 62
0
370
13
440
16777216
100
AcDbTrace
 10
1012153.001254102
 20
86221.47933981854
 30
0.0
 11
1012153.001254102
 21
86211.47933981854
 31
0.0
 12
1012123.001254102
 22
86216.47933981856
 32
0.0
 13
1012123.001254102
 23
86216.47933981856
 33
0.0
  0
SOLID
  5
FC
330
F5
100
AcDbEntity
  8
VP
 62
0
370
13
440
16777216
100
AcDbTrace
 10
1012389.001254103
 20
86221.47933981854
 30
0.0
 11
1012389.001254103
 21
86211.47933981854
 31
0.0
 12
1012419.001254103
 22
86216.47933981856
 32
0.0
 13
1012419.001254103
 23
86216.47933981856
 33
0.0
  0
MTEXT
  5
FD
330
F5
100
AcDbEntity
  8
VP
 62
0
370
13
440
16777216
100
AcDbMText
 10
1012271.001254102
 20
86241.7965294502
 30
0.0
 40
30.0
 41
0.0
 46
0.0
 71
5
  1
296
  0
POINT
  5
FE
330
F5
100
AcDbEntity
  8
Defpoints
 62
0
370
13
440
16777216
100
AcDbPoint
 10
1012123.001254102
 20
86654.40279963372
 30
0.0
  0
POINT
  5
FF
330
F5
100
AcDbEntity
  8
Defpoints
 62
0
370
13
440
16777216
100
AcDbPoint
 10
1012419.001254103
 20
86654.40279963372
 30
0.0
  0
POINT
  5
100
330
F5
100
AcDbEntity
  8
Defpoints
 62
0
370
13
440
16777216
100
AcDbPoint
 10
1012419.001254103
 20
86216.47933981856
 30
0.0
  0
ENDBLK
  5
F7
330
F5
100
AcDbEntity
  8
0
100
AcDbBlockEnd
  0
BLOCK
  5
103
330
102
100
AcDbEntity
  8
0
100
AcDbBlockBegin
  2
*D13
 70
1
 10
0.0
 20
0.0
 30
0.0
  3
*D13
  1

  0
LINE
  5
105
330
102
100
AcDbEntity
  8
VP
 62
0
370
-2
440
16777216
100
AcDbLine
 10
1012419.001254103
 20
86653.77779963375
 30
0.0
 11
1012419.001254103
 21
86215.22933981854
 31
0.0
  0
LINE
  5
106
330
102
100
AcDbEntity
  8
VP
 62
0
370
-2
440
16777216
100
AcDbLine
 10
1012883.001254103
 20
86653.77779963375
 30
0.0
 11
1012883.001254103
 21
86215.22933981854
 31
0.0
  0
LINE
  5
107
330
102
100
AcDbEntity
  8
VP
 62
0
370
-2
440
16777216
100
AcDbLine
 10
1012449.001254102
 20
86216.47933981856
 30
0.0
 11
1012853.001254103
 21
86216.47933981856
 31
0.0
  0
SOLID
  5
108
330
102
100
AcDbEntity
  8
VP
 62
0
370
13
440
16777216
100
AcDbTrace
 10
1012449.001254102
 20
86221.47933981854
 30
0.0
 11
1012449.001254102
 21
86211.47933981854
 31
0.0
 12
1012419.001254103
 22
86216.47933981856
 32
0.0
 13
1012419.001254103
 23
86216.47933981856
 33
0.0
  0
SOLID
  5
109
330
102
100
AcDbEntity
  8
VP
 62
0
370
13
440
16777216
100
AcDbTrace
 10
1012853.001254103
 20
86221.47933981854
 30
0.0
 11
1012853.001254103
 21
86211.47933981854
 31
0.0
 12
1012883.001254103
 22
86216.47933981856
 32
0.0
 13
1012883.001254103
 23
86216.47933981856
 33
0.0
  0
MTEXT
  5
10A
330
102
100
AcDbEntity
  8
VP
 62
0
370
13
440
16777216
100
AcDbMText
 10
1012651.001254103
 20
86241.7965294502
 30
0.0
 40
30.0
 41
0.0
 46
0.0
 71
5
  1
464
  0
POINT
  5
10B
330
102
100
AcDbEntity
  8
Defpoints
 62
0
370
13
440
16777216
100
AcDbPoint
 10
1012419.001254103
 20
86654.40279963372
 30
0.0
  0
POINT
  5
10C
330
102
100
AcDbEntity
  8
Defpoints
 62
0
370
13
440
16777216
100
AcDbPoint
 10
1012883.001254103
 20
86654.40279963372
 30
0.0
  0
POINT
  5
10D
330
102
100
AcDbEntity
  8
Defpoints
 62
0
370
13
440
16777216
100
AcDbPoint
 10
1012883.001254103
 20
86216.47933981856
 30
0.0
  0
ENDBLK
  5
104
330
102
100
AcDbEntity
  8
0
100
AcDbBlockEnd
  0
BLOCK
  5
110
330
10F
100
AcDbEntity
  8
0
100
AcDbBlockBegin
  2
*D14
 70
1
 10
0.0
 20
0.0
 30
0.0
  3
*D14
  1

  0
LINE
  5
112
330
10F
100
AcDbEntity
  8
VP
 62
0
370
-2
440
16777216
100
AcDbLine
 10
1012909.009714519
 20
87672.88961555102
 30
0.0
 11
1012909.009714519
 21
87718.82654717268
 31
0.0
  0
LINE
  5
113
330
10F
100
AcDbEntity
  8
VP
 62
0
370
-2
440
16777216
100
AcDbLine
 10
1012648.512332473
 20
87672.88961555102
 30
0.0
 11
1012648.512332473
 21
87718.82654717268
 31
0.0
  0
LINE
  5
114
330
10F
100
AcDbEntity
  8
VP
 62
0
370
-2
440
16777216
100
AcDbLine
 10
1012879.009714519
 20
87717.57654717268
 30
0.0
 11
1012678.512332473
 21
87717.57654717268
 31
0.0
  0
SOLID
  5
115
330
10F
100
AcDbEntity
  8
VP
 62
0
370
13
440
16777216
100
AcDbTrace
 10
1012879.009714519
 20
87722.57654717268
 30
0.0
 11
1012879.009714519
 21
87712.57654717268
 31
0.0
 12
1012909.009714519
 22
87717.57654717268
 32
0.0
 13
1012909.009714519
 23
87717.57654717268
 33
0.0
  0
SOLID
  5
116
330
10F
100
AcDbEntity
  8
VP
 62
0
370
13
440
16777216
100
AcDbTrace
 10
1012678.512332473
 20
87722.57654717268
 30
0.0
 11
1012678.512332473
 21
87712.57654717268
 31
0.0
 12
1012648.512332473
 22
87717.57654717268
 32
0.0
 13
1012648.512332473
 23
87717.57654717268
 33
0.0
  0
MTEXT
  5
117
330
10F
100
AcDbEntity
  8
VP
 62
0
370
13
440
16777216
100
AcDbMText
 10
1012778.761023496
 20
87742.89373680433
 30
0.0
 40
30.0
 41
0.0
 46
0.0
 71
5
  1
260
  0
POINT
  5
118
330
10F
100
AcDbEntity
  8
Defpoints
 62
0
370
13
440
16777216
100
AcDbPoint
 10
1012909.009714519
 20
87672.26461555102
 30
0.0
  0
POINT
  5
119
330
10F
100
AcDbEntity
  8
Defpoints
 62
0
370
13
440
16777216
100
AcDbPoint
 10
1012648.512332473
 20
87672.26461555102
 30
0.0
  0
POINT
  5
11A
330
10F
100
AcDbEntity
  8
Defpoints
 62
0
370
13
440
16777216
100
AcDbPoint
 10
1012648.512332473
 20
87717.57654717268
 30
0.0
  0
ENDBLK
  5
111
330
10F
100
AcDbEntity
  8
0
100
AcDbBlockEnd
  0
BLOCK
  5
11D
330
11C
100
AcDbEntity
  8
0
100
AcDbBlockBegin
  2
*D15
 70
1
 10
0.0
 20
0.0
 30
0.0
  3
*D15
  1

  0
LINE
  5
11F
330
11C
100
AcDbEntity
  8
VP
 62
0
370
-2
440
16777216
100
AcDbLine
 10
1011588.79085334
 20
87349.47900100522
 30
0.0
 11
1011588.79085334
 21
87449.16914398118
 31
0.0
  0
LINE
  5
120
330
11C
100
AcDbEntity
  8
VP
 62
0
370
-2
440
16777216
100
AcDbLine
 10
1011862.79085334
 20
87349.47900100522
 30
0.0
 11
1011862.79085334
 21
87449.16914398118
 31
0.0
  0
LINE
  5
121
330
11C
100
AcDbEntity
  8
VP
 62
0
370
-2
440
16777216
100
AcDbLine
 10
1011618.79085334
 20
87447.91914398118
 30
0.0
 11
1011832.79085334
 21
87447.91914398118
 31
0.0
  0
SOLID
  5
122
330
11C
100
AcDbEntity
  8
VP
 62
0
370
13
440
16777216
100
AcDbTrace
 10
1011618.79085334
 20
87452.91914398118
 30
0.0
 11
1011618.79085334
 21
87442.91914398118
 31
0.0
 12
1011588.79085334
 22
87447.91914398118
 32
0.0
 13
1011588.79085334
 23
87447.91914398118
 33
0.0
  0
SOLID
  5
123
330
11C
100
AcDbEntity
  8
VP
 62
0
370
13
440
16777216
100
AcDbTrace
 10
1011832.79085334
 20
87452.91914398118
 30
0.0
 11
1011832.79085334
 21
87442.91914398118
 31
0.0
 12
1011862.79085334
 22
87447.91914398118
 32
0.0
 13
1011862.79085334
 23
87447.91914398118
 33
0.0
  0
MTEXT
  5
124
330
11C
100
AcDbEntity
  8
VP
 62
0
370
13
440
16777216
100
AcDbMText
 10
1011725.79085334
 20
87472.98053552279
 30
0.0
 40
30.0
 41
0.0
 46
0.0
 71
5
  1
274
  0
POINT
  5
125
330
11C
100
AcDbEntity
  8
Defpoints
 62
0
370
13
440
16777216
100
AcDbPoint
 10
1011588.79085334
 20
87348.85400100521
 30
0.0
  0
POINT
  5
126
330
11C
100
AcDbEntity
  8
Defpoints
 62
0
370
13
440
16777216
100
AcDbPoint
 10
1011862.79085334
 20
87348.85400100521
 30
0.0
  0
POINT
  5
127
330
11C
100
AcDbEntity
  8
Defpoints
 62
0
370
13
440
16777216
100
AcDbPoint
 10
1011862.79085334
 20
87447.91914398118
 30
0.0
  0
ENDBLK
  5
11E
330
11C
100
AcDbEntity
  8
0
100
AcDbBlockEnd
  0
BLOCK
  5
12C
330
12B
100
AcDbEntity
  8
0
100
AcDbBlockBegin
  2
*D16
 70
1
 10
0.0
 20
0.0
 30
0.0
  3
*D16
  1

  0
LINE
  5
12E
330
12B
100
AcDbEntity
  8
VP
 62
0
370
-2
440
16777216
100
AcDbLine
 10
1011862.070167372
 20
87411.70932980192
 30
0.0
 11
1011862.070167372
 21
87449.04902965314
 31
0.0
  0
LINE
  5
12F
330
12B
100
AcDbEntity
  8
VP
 62
0
370
-2
440
16777216
100
AcDbLine
 10
1012013.070167371
 20
87411.70932980192
 30
0.0
 11
1012013.070167371
 21
87449.04902965314
 31
0.0
  0
LINE
  5
130
330
12B
100
AcDbEntity
  8
VP
 62
0
370
-2
440
16777216
100
AcDbLine
 10
1011892.070167372
 20
87447.79902965314
 30
0.0
 11
1011983.070167371
 21
87447.79902965314
 31
0.0
  0
SOLID
  5
131
330
12B
100
AcDbEntity
  8
VP
 62
0
370
13
440
16777216
100
AcDbTrace
 10
1011892.070167372
 20
87452.79902965314
 30
0.0
 11
1011892.070167372
 21
87442.79902965314
 31
0.0
 12
1011862.070167372
 22
87447.79902965314
 32
0.0
 13
1011862.070167372
 23
87447.79902965314
 33
0.0
  0
SOLID
  5
132
330
12B
100
AcDbEntity
  8
VP
 62
0
370
13
440
16777216
100
AcDbTrace
 10
1011983.070167371
 20
87452.79902965314
 30
0.0
 11
1011983.070167371
 21
87442.79902965314
 31
0.0
 12
1012013.070167371
 22
87447.79902965314
 32
0.0
 13
1012013.070167371
 23
87447.79902965314
 33
0.0
  0
MTEXT
  5
133
330
12B
100
AcDbEntity
  8
VP
 62
0
370
13
440
16777216
100
AcDbMText
 10
1011937.570167372
 20
87473.11621928478
 30
0.0
 40
30.0
 41
0.0
 46
0.0
 71
5
  1
151
  0
POINT
  5
134
330
12B
100
AcDbEntity
  8
Defpoints
 62
0
370
13
440
16777216
100
AcDbPoint
 10
1011862.070167372
 20
87411.0843298019
 30
0.0
  0
POINT
  5
135
330
12B
100
AcDbEntity
  8
Defpoints
 62
0
370
13
440
16777216
100
AcDbPoint
 10
1012013.070167371
 20
87411.0843298019
 30
0.0
  0
POINT
  5
136
330
12B
100
AcDbEntity
  8
Defpoints
 62
0
370
13
440
16777216
100
AcDbPoint
 10
1012013.070167371
 20
87447.79902965314
 30
0.0
  0
ENDBLK
  5
12D
330
12B
100
AcDbEntity
  8
0
100
AcDbBlockEnd
  0
BLOCK
  5
13B
330
13A
100
AcDbEntity
  8
0
100
AcDbBlockBegin
  2
*D17
 70
1
 10
0.0
 20
0.0
 30
0.0
  3
*D17
  1

  0
LINE
  5
13D
330
13A
100
AcDbEntity
  8
VP
 62
0
370
-2
440
16777216
100
AcDbLine
 10
1012013.070167371
 20
87416.84096423067
 30
0.0
 11
1012013.070167371
 21
87449.04902965314
 31
0.0
  0
LINE
  5
13E
330
13A
100
AcDbEntity
  8
VP
 62
0
370
-2
440
16777216
100
AcDbLine
 10
1012078.070167371
 20
87416.84096423067
 30
0.0
 11
1012078.070167371
 21
87449.04902965314
 31
0.0
  0
LINE
  5
13F
330
13A
100
AcDbEntity
  8
VP
 62
0
370
-2
440
16777216
100
AcDbLine
 10
1011983.070167371
 20
87447.79902965314
 30
0.0
 11
1011953.070167372
 21
87447.79902965314
 31
0.0
  0
LINE
  5
140
330
13A
100
AcDbEntity
  8
VP
 62
0
370
-2
440
16777216
100
AcDbLine
 10
1012108.070167371
 20
87447.79902965314
 30
0.0
 11
1012138.070167372
 21
87447.79902965314
 31
0.0
  0
LINE
  5
141
330
13A
100
AcDbEntity
  8
VP
 62
0
370
-2
440
16777216
100
AcDbLine
 10
1012013.070167371
 20
87447.79902965314
 30
0.0
 11
1012078.070167371
 21
87447.79902965314
 31
0.0
  0
SOLID
  5
142
330
13A
100
AcDbEntity
  8
VP
 62
0
370
13
440
16777216
100
AcDbTrace
 10
1011983.070167371
 20
87452.79902965314
 30
0.0
 11
1011983.070167371
 21
87442.79902965314
 31
0.0
 12
1012013.070167371
 22
87447.79902965314
 32
0.0
 13
1012013.070167371
 23
87447.79902965314
 33
0.0
  0
SOLID
  5
143
330
13A
100
AcDbEntity
  8
VP
 62
0
370
13
440
16777216
100
AcDbTrace
 10
1012108.070167371
 20
87452.79902965314
 30
0.0
 11
1012108.070167371
 21
87442.79902965314
 31
0.0
 12
1012078.070167371
 22
87447.79902965314
 32
0.0
 13
1012078.070167371
 23
87447.79902965314
 33
0.0
  0
MTEXT
  5
144
330
13A
100
AcDbEntity
  8
VP
 62
0
370
13
440
16777216
100
AcDbMText
 10
1012045.570167372
 20
87473.11621928478
 30
0.0
 40
30.0
 41
0.0
 46
0.0
 71
5
  1
65
  0
POINT
  5
145
330
13A
100
AcDbEntity
  8
Defpoints
 62
0
370
13
440
16777216
100
AcDbPoint
 10
1012013.070167371
 20
87416.21596423067
 30
0.0
  0
POINT
  5
146
330
13A
100
AcDbEntity
  8
Defpoints
 62
0
370
13
440
16777216
100
AcDbPoint
 10
1012078.070167371
 20
87416.21596423067
 30
0.0
  0
POINT
  5
147
330
13A
100
AcDbEntity
  8
Defpoints
 62
0
370
13
440
16777216
100
AcDbPoint
 10
1012078.070167371
 20
87447.79902965314
 30
0.0
  0
ENDBLK
  5
13C
330
13A
100
AcDbEntity
  8
0
100
AcDbBlockEnd
  0
BLOCK
  5
14B
330
14A
100
AcDbEntity
  8
0
100
AcDbBlockBegin
  2
*D18
 70
1
 10
0.0
 20
0.0
 30
0.0
  3
*D18
  1

  0
LINE
  5
14D
330
14A
100
AcDbEntity
  8
VP
 62
0
370
-2
440
16777216
100
AcDbLine
 10
1012123.698800114
 20
86514.40279963377
 30
0.0
 11
1012192.271928736
 21
86514.40279963377
 31
0.0
  0
LINE
  5
14E
330
14A
100
AcDbEntity
  8
VP
 62
0
370
-2
440
16777216
100
AcDbLine
 10
1012123.626254103
 20
86654.40279963377
 30
0.0
 11
1012192.271928736
 21
86654.40279963377
 31
0.0
  0
LINE
  5
14F
330
14A
100
AcDbEntity
  8
VP
 62
0
370
-2
440
16777216
100
AcDbLine
 10
1012191.021928736
 20
86544.40279963377
 30
0.0
 11
1012191.021928736
 21
86624.40279963377
 31
0.0
  0
SOLID
  5
150
330
14A
100
AcDbEntity
  8
VP
 62
0
370
13
440
16777216
100
AcDbTrace
 10
1012186.021928736
 20
86544.40279963377
 30
0.0
 11
1012196.021928736
 21
86544.40279963377
 31
0.0
 12
1012191.021928736
 22
86514.40279963377
 32
0.0
 13
1012191.021928736
 23
86514.40279963377
 33
0.0
  0
SOLID
  5
151
330
14A
100
AcDbEntity
  8
VP
 62
0
370
13
440
16777216
100
AcDbTrace
 10
1012186.021928736
 20
86624.40279963377
 30
0.0
 11
1012196.021928736
 21
86624.40279963377
 31
0.0
 12
1012191.021928736
 22
86654.40279963377
 32
0.0
 13
1012191.021928736
 23
86654.40279963377
 33
0.0
  0
MTEXT
  5
152
330
14A
100
AcDbEntity
  8
VP
 62
0
370
13
440
16777216
100
AcDbMText
 10
1012165.704739104
 20
86584.40279963348
 30
0.0
 40
30.0
 41
0.0
 46
0.0
 71
5
  1
140
 11
1e-16
 21
1.0
 31
0.0
  0
POINT
  5
153
330
14A
100
AcDbEntity
  8
Defpoints
 62
0
370
13
440
16777216
100
AcDbPoint
 10
1012123.073800115
 20
86514.40279963377
 30
0.0
  0
POINT
  5
154
330
14A
100
AcDbEntity
  8
Defpoints
 62
0
370
13
440
16777216
100
AcDbPoint
 10
1012123.001254103
 20
86654.40279963377
 30
0.0
  0
POINT
  5
155
330
14A
100
AcDbEntity
  8
Defpoints
 62
0
370
13
440
16777216
100
AcDbPoint
 10
1012191.021928736
 20
86654.40279963377
 30
0.0
  0
ENDBLK
  5
14C
330
14A
100
AcDbEntity
  8
0
100
AcDbBlockEnd
  0
BLOCK
  5
158
330
157
100
AcDbEntity
  8
0
100
AcDbBlockBegin
  2
*D19
 70
1
 10
0.0
 20
0.0
 30
0.0
  3
*D19
  1

  0
LINE
  5
15A
330
157
100
AcDbEntity
  8
VP
 62
0
370
-2
440
16777216
100
AcDbLine
 10
1012648.887838654
 20
87675.30142565284
 30
0.0
 11
1012648.887838654
 21
87720.07654717268
 31
0.0
  0
LINE
  5
15B
330
157
100
AcDbEntity
  8
VP
 62
0
370
-2
440
16777216
100
AcDbLine
 10
1012200.974292998
 20
87675.30142565284
 30
0.0
 11
1012200.974292998
 21
87720.07654717268
 31
0.0
  0
LINE
  5
15C
330
157
100
AcDbEntity
  8
VP
 62
0
370
-2
440
16777216
100
AcDbLine
 10
1012618.887838654
 20
87718.82654717268
 30
0.0
 11
1012230.974292998
 21
87718.82654717268
 31
0.0
  0
SOLID
  5
15D
330
157
100
AcDbEntity
  8
VP
 62
0
370
13
440
16777216
100
AcDbTrace
 10
1012618.887838654
 20
87723.82654717268
 30
0.0
 11
1012618.887838654
 21
87713.82654717268
 31
0.0
 12
1012648.887838654
 22
87718.82654717268
 32
0.0
 13
1012648.887838654
 23
87718.82654717268
 33
0.0
  0
SOLID
  5
15E
330
157
100
AcDbEntity
  8
VP
 62
0
370
13
440
16777216
100
AcDbTrace
 10
1012230.974292998
 20
87723.82654717268
 30
0.0
 11
1012230.974292998
 21
87713.82654717268
 31
0.0
 12
1012200.974292998
 22
87718.82654717268
 32
0.0
 13
1012200.974292998
 23
87718.82654717268
 33
0.0
  0
MTEXT
  5
15F
330
157
100
AcDbEntity
  8
VP
 62
0
370
13
440
16777216
100
AcDbMText
 10
1012424.931065826
 20
87744.14373680433
 30
0.0
 40
30.0
 41
0.0
 46
0.0
 71
5
  1
448
  0
POINT
  5
160
330
157
100
AcDbEntity
  8
Defpoints
 62
0
370
13
440
16777216
100
AcDbPoint
 10
1012648.887838654
 20
87674.67642565284
 30
0.0
  0
POINT
  5
161
330
157
100
AcDbEntity
  8
Defpoints
 62
0
370
13
440
16777216
100
AcDbPoint
 10
1012200.974292998
 20
87674.67642565284
 30
0.0
  0
POINT
  5
162
330
157
100
AcDbEntity
  8
Defpoints
 62
0
370
13
440
16777216
100
AcDbPoint
 10
1012200.974292998
 20
87718.82654717268
 30
0.0
  0
ENDBLK
  5
159
330
157
100
AcDbEntity
  8
0
100
AcDbBlockEnd
  0
BLOCK
  5
166
330
165
100
AcDbEntity
  8
0
100
AcDbBlockBegin
  2
*D20
 70
1
 10
0.0
 20
0.0
 30
0.0
  3
*D20
  1

  0
LINE
  5
168
330
165
100
AcDbEntity
  8
VP
 62
0
370
-2
440
16777216
100
AcDbLine
 10
1012200.974292998
 20
87675.30142565284
 30
0.0
 11
1012200.974292998
 21
87720.16846965886
 31
0.0
  0
LINE
  5
169
330
165
100
AcDbEntity
  8
VP
 62
0
370
-2
440
16777216
100
AcDbLine
 10
1011740.80510119
 20
87675.30142565284
 30
0.0
 11
1011740.80510119
 21
87720.16846965886
 31
0.0
  0
LINE
  5
16A
330
165
100
AcDbEntity
  8
VP
 62
0
370
-2
440
16777216
100
AcDbLine
 10
1012170.974292998
 20
87718.91846965885
 30
0.0
 11
1011770.805101189
 21
87718.91846965885
 31
0.0
  0
SOLID
  5
16B
330
165
100
AcDbEntity
  8
VP
 62
0
370
13
440
16777216
100
AcDbTrace
 10
1012170.974292998
 20
87723.91846965886
 30
0.0
 11
1012170.974292998
 21
87713.91846965886
 31
0.0
 12
1012200.974292998
 22
87718.91846965885
 32
0.0
 13
1012200.974292998
 23
87718.91846965885
 33
0.0
  0
SOLID
  5
16C
330
165
100
AcDbEntity
  8
VP
 62
0
370
13
440
16777216
100
AcDbTrace
 10
1011770.805101189
 20
87723.91846965886
 30
0.0
 11
1011770.805101189
 21
87713.91846965886
 31
0.0
 12
1011740.80510119
 22
87718.91846965885
 32
0.0
 13
1011740.80510119
 23
87718.91846965885
 33
0.0
  0
MTEXT
  5
16D
330
165
100
AcDbEntity
  8
VP
 62
0
370
13
440
16777216
100
AcDbMText
 10
1011970.889697094
 20
87744.23565929051
 30
0.0
 40
30.0
 41
0.0
 46
0.0
 71
5
  1
460
  0
POINT
  5
16E
330
165
100
AcDbEntity
  8
Defpoints
 62
0
370
13
440
16777216
100
AcDbPoint
 10
1012200.974292998
 20
87674.67642565284
 30
0.0
  0
POINT
  5
16F
330
165
100
AcDbEntity
  8
Defpoints
 62
0
370
13
440
16777216
100
AcDbPoint
 10
1011740.80510119
 20
87674.67642565284
 30
0.0
  0
POINT
  5
170
330
165
100
AcDbEntity
  8
Defpoints
 62
0
370
13
440
16777216
100
AcDbPoint
 10
1011740.80510119
 20
87718.91846965885
 30
0.0
  0
ENDBLK
  5
167
330
165
100
AcDbEntity
  8
0
100
AcDbBlockEnd
  0
BLOCK
  5
174
330
173
100
AcDbEntity
  8
0
100
AcDbBlockBegin
  2
*D21
 70
1
 10
0.0
 20
0.0
 30
0.0
  3
*D21
  1

  0
LINE
  5
176
330
173
100
AcDbEntity
  8
VP
 62
0
370
-2
440
16777216
100
AcDbLine
 10
1012648.512332472
 20
87985.8858702916
 30
0.0
 11
1012648.512332472
 21
88028.5876151534
 31
0.0
  0
LINE
  5
177
330
173
100
AcDbEntity
  8
VP
 62
0
370
-2
440
16777216
100
AcDbLine
 10
1013021.001254102
 20
87987.82620373365
 30
0.0
 11
1013021.001254102
 21
88028.5876151534
 31
0.0
  0
LINE
  5
178
330
173
100
AcDbEntity
  8
VP
 62
0
370
-2
440
16777216
100
AcDbLine
 10
1012678.512332472
 20
88027.3376151534
 30
0.0
 11
1012991.001254103
 21
88027.3376151534
 31
0.0
  0
SOLID
  5
179
330
173
100
AcDbEntity
  8
VP
 62
0
370
13
440
16777216
100
AcDbTrace
 10
1012678.512332472
 20
88032.3376151534
 30
0.0
 11
1012678.512332472
 21
88022.3376151534
 31
0.0
 12
1012648.512332472
 22
88027.3376151534
 32
0.0
 13
1012648.512332472
 23
88027.3376151534
 33
0.0
  0
SOLID
  5
17A
330
173
100
AcDbEntity
  8
VP
 62
0
370
13
440
16777216
100
AcDbTrace
 10
1012991.001254103
 20
88032.3376151534
 30
0.0
 11
1012991.001254103
 21
88022.3376151534
 31
0.0
 12
1013021.001254102
 22
88027.3376151534
 32
0.0
 13
1013021.001254102
 23
88027.3376151534
 33
0.0
  0
MTEXT
  5
17B
330
173
100
AcDbEntity
  8
VP
 62
0
370
13
440
16777216
100
AcDbMText
 10
1012834.756793288
 20
88052.66503670865
 30
0.0
 40
30.0
 41
0.0
 46
0.0
 71
5
  1
372
  0
POINT
  5
17C
330
173
100
AcDbEntity
  8
Defpoints
 62
0
370
13
440
16777216
100
AcDbPoint
 10
1012648.512332472
 20
87985.2608702916
 30
0.0
  0
POINT
  5
17D
330
173
100
AcDbEntity
  8
Defpoints
 62
0
370
13
440
16777216
100
AcDbPoint
 10
1013021.001254102
 20
87987.20120373365
 30
0.0
  0
POINT
  5
17E
330
173
100
AcDbEntity
  8
Defpoints
 62
0
370
13
440
16777216
100
AcDbPoint
 10
1013021.001254102
 20
88027.3376151534
 30
0.0
  0
ENDBLK
  5
175
330
173
100
AcDbEntity
  8
0
100
AcDbBlockEnd
  0
BLOCK
  5
181
330
180
100
AcDbEntity
  8
0
100
AcDbBlockBegin
  2
*D22
 70
1
 10
0.0
 20
0.0
 30
0.0
  3
*D22
  1

  0
LINE
  5
183
330
180
100
AcDbEntity
  8
VP
 62
0
370
-2
440
16777216
100
AcDbLine
 10
1011251.001254102
 20
86513.77779963372
 30
0.0
 11
1011251.001254102
 21
86072.31793701503
 31
0.0
  0
LINE
  5
184
330
180
100
AcDbEntity
  8
VP
 62
0
370
-2
440
16777216
100
AcDbLine
 10
1012911.009714519
 20
87211.57620373364
 30
0.0
 11
1012911.009714519
 21
86072.31793701503
 31
0.0
  0
LINE
  5
185
330
180
100
AcDbEntity
  8
VP
 62
0
370
-2
440
16777216
100
AcDbLine
 10
1011281.001254102
 20
86073.56793701503
 30
0.0
 11
1012881.009714519
 21
86073.56793701503
 31
0.0
  0
SOLID
  5
186
330
180
100
AcDbEntity
  8
VP
 62
0
370
13
440
16777216
100
AcDbTrace
 10
1011281.001254102
 20
86078.56793701505
 30
0.0
 11
1011281.001254102
 21
86068.56793701503
 31
0.0
 12
1011251.001254102
 22
86073.56793701503
 32
0.0
 13
1011251.001254102
 23
86073.56793701503
 33
0.0
  0
SOLID
  5
187
330
180
100
AcDbEntity
  8
VP
 62
0
370
13
440
16777216
100
AcDbTrace
 10
1012881.009714519
 20
86078.56793701505
 30
0.0
 11
1012881.009714519
 21
86068.56793701503
 31
0.0
 12
1012911.009714519
 22
86073.56793701503
 32
0.0
 13
1012911.009714519
 23
86073.56793701503
 33
0.0
  0
MTEXT
  5
188
330
180
100
AcDbEntity
  8
VP
 62
0
370
13
440
16777216
100
AcDbMText
 10
1012081.005484311
 20
86098.88512664667
 30
0.0
 40
30.0
 41
0.0
 46
0.0
 71
5
  1
1660
  0
POINT
  5
189
330
180
100
AcDbEntity
  8
Defpoints
 62
0
370
13
440
16777216
100
AcDbPoint
 10
1011251.001254102
 20
86514.40279963374
 30
0.0
  0
POINT
  5
18A
330
180
100
AcDbEntity
  8
Defpoints
 62
0
370
13
440
16777216
100
AcDbPoint
 10
1012911.009714519
 20
87212.20120373365
 30
0.0
  0
POINT
  5
18B
330
180
100
AcDbEntity
  8
Defpoints
 62
0
370
13
440
16777216
100
AcDbPoint
 10
1012911.009714519
 20
86073.56793701503
 30
0.0
  0
ENDBLK
  5
182
330
180
100
AcDbEntity
  8
0
100
AcDbBlockEnd
  0
BLOCK
  5
195
330
194
100
AcDbEntity
  8
0
100
AcDbBlockBegin
  2
*D23
 70
1
 10
0.0
 20
0.0
 30
0.0
  3
*D23
  1

  0
LINE
  5
197
330
194
100
AcDbEntity
  8
VP
 62
0
370
-2
440
16777216
100
AcDbLine
 10
1012014.681292873
 20
87416.2159642307
 30
0.0
 11
1012142.395476528
 21
87416.2159642307
 31
0.0
  0
LINE
  5
198
330
194
100
AcDbEntity
  8
VP
 62
0
370
-2
440
16777216
100
AcDbLine
 10
1012014.681292873
 20
87204.83437412271
 30
0.0
 11
1012142.395476528
 21
87204.83437412271
 31
0.0
  0
LINE
  5
199
330
194
100
AcDbEntity
  8
VP
 62
0
370
-2
440
16777216
100
AcDbLine
 10
1012141.145476528
 20
87386.2159642307
 30
0.0
 11
1012141.145476528
 21
87234.83437412271
 31
0.0
  0
SOLID
  5
19A
330
194
100
AcDbEntity
  8
VP
 62
0
370
13
440
16777216
100
AcDbTrace
 10
1012136.145476528
 20
87386.2159642307
 30
0.0
 11
1012146.145476528
 21
87386.2159642307
 31
0.0
 12
1012141.145476528
 22
87416.2159642307
 32
0.0
 13
1012141.145476528
 23
87416.2159642307
 33
0.0
  0
SOLID
  5
19B
330
194
100
AcDbEntity
  8
VP
 62
0
370
13
440
16777216
100
AcDbTrace
 10
1012136.145476528
 20
87234.83437412271
 30
0.0
 11
1012146.145476528
 21
87234.83437412271
 31
0.0
 12
1012141.145476528
 22
87204.83437412271
 32
0.0
 13
1012141.145476528
 23
87204.83437412271
 33
0.0
  0
MTEXT
  5
19C
330
194
100
AcDbEntity
  8
VP
 62
0
370
13
440
16777216
100
AcDbMText
 10
1012116.084084986
 20
87310.52516917641
 30
0.0
 40
30.0
 41
0.0
 46
0.0
 71
5
  1
211
 11
1e-16
 21
1.0
 31
0.0
  0
POINT
  5
19D
330
194
100
AcDbEntity
  8
Defpoints
 62
0
370
13
440
16777216
100
AcDbPoint
 10
1012014.056292873
 20
87416.2159642307
 30
0.0
  0
POINT
  5
19E
330
194
100
AcDbEntity
  8
Defpoints
 62
0
370
13
440
16777216
100
AcDbPoint
 10
1012014.056292873
 20
87204.83437412271
 30
0.0
  0
POINT
  5
19F
330
194
100
AcDbEntity
  8
Defpoints
 62
0
370
13
440
16777216
100
AcDbPoint
 10
1012141.145476528
 20
87204.83437412271
 30
0.0
  0
ENDBLK
  5
196
330
194
100
AcDbEntity
  8
0
100
AcDbBlockEnd
  0
BLOCK
  5
1A3
330
1A2
100
AcDbEntity
  8
0
100
AcDbBlockBegin
  2
*D24
 70
1
 10
0.0
 20
0.0
 30
0.0
  3
*D24
  1

  0
LINE
  5
1A5
330
1A2
100
AcDbEntity
  8
VP
 62
0
370
-2
440
16777216
100
AcDbLine
 10
1012078.695167372
 20
87416.2159642307
 30
0.0
 11
1012142.395476529
 21
87416.2159642307
 31
0.0
  0
LINE
  5
1A6
330
1A2
100
AcDbEntity
  8
VP
 62
0
370
-2
440
16777216
100
AcDbLine
 10
1012080.025241409
 20
87579.83437412271
 30
0.0
 11
1012142.395476529
 21
87579.83437412271
 31
0.0
  0
LINE
  5
1A7
330
1A2
100
AcDbEntity
  8
VP
 62
0
370
-2
440
16777216
100
AcDbLine
 10
1012141.145476529
 20
87446.2159642307
 30
0.0
 11
1012141.145476529
 21
87549.83437412271
 31
0.0
  0
SOLID
  5
1A8
330
1A2
100
AcDbEntity
  8
VP
 62
0
370
13
440
16777216
100
AcDbTrace
 10
1012136.145476529
 20
87446.2159642307
 30
0.0
 11
1012146.145476529
 21
87446.2159642307
 31
0.0
 12
1012141.145476529
 22
87416.2159642307
 32
0.0
 13
1012141.145476529
 23
87416.2159642307
 33
0.0
  0
SOLID
  5
1A9
330
1A2
100
AcDbEntity
  8
VP
 62
0
370
13
440
16777216
100
AcDbTrace
 10
1012136.145476529
 20
87549.83437412271
 30
0.0
 11
1012146.145476529
 21
87549.83437412271
 31
0.0
 12
1012141.145476529
 22
87579.83437412271
 32
0.0
 13
1012141.145476529
 23
87579.83437412271
 33
0.0
  0
MTEXT
  5
1AA
330
1A2
100
AcDbEntity
  8
VP
 62
0
370
13
440
16777216
100
AcDbMText
 10
1012115.828286897
 20
87498.02516917643
 30
0.0
 40
30.0
 41
0.0
 46
0.0
 71
5
  1
164
 11
1e-16
 21
1.0
 31
0.0
  0
POINT
  5
1AB
330
1A2
100
AcDbEntity
  8
Defpoints
 62
0
370
13
440
16777216
100
AcDbPoint
 10
1012078.070167372
 20
87416.2159642307
 30
0.0
  0
POINT
  5
1AC
330
1A2
100
AcDbEntity
  8
Defpoints
 62
0
370
13
440
16777216
100
AcDbPoint
 10
1012079.400241409
 20
87579.83437412271
 30
0.0
  0
POINT
  5
1AD
330
1A2
100
AcDbEntity
  8
Defpoints
 62
0
370
13
440
16777216
100
AcDbPoint
 10
1012141.145476529
 20
87579.83437412271
 30
0.0
  0
ENDBLK
  5
1A4
330
1A2
100
AcDbEntity
  8
0
100
AcDbBlockEnd
  0
ENDSEC
  0
SECTION
  2
ENTITIES
  0
LWPOLYLINE
  5
34
330
17
100
AcDbEntity
  8
0
370
13
100
AcDbPolyline
 90
4
 70
1
 43
3.428535235377893
 10
1014711.780028481
 20
85790.61580996425
 10
1009619.567470122
 20
85790.61580996425
 10
1009619.567470122
 20
89906.53650785582
 10
1014714.455080889
 20
89906.53650785582
  0
LWPOLYLINE
  5
35
330
17
100
AcDbEntity
  8
BAR-GAL
 62
7
370
13
100
AcDbPolyline
 90
17
 70
0
 43
15.0
 10
1012648.441941414
 20
87893.97898219046
 10
1012202.4526687
 20
87893.97898219046
 10
1012202.4526687
 20
88679.7729562346
 10
1012648.512332473
 20
88679.13617019405
 10
1012648.512332473
 20
87672.26461555102
 10
1012909.009714519
 20
87672.26461555102
 10
1012909.009714519
 20
87212.20120373365
 10
1012901.009714519
 20
87212.20120373365
 10
1012883.009714519
 20
87212.20120373365
 10
1012883.009714519
 20
86618.39032203646
 10
1012419.001254103
 20
86618.39032203646
 10
1012419.001254103
 20
86654.40279963372
 10
1012123.001254102
 20
86654.40279963372
 10
1012123.001254102
 20
86514.40279963374
 10
1011589.485608397
 20
86514.8343741227
 10
1011589.485608397
 20
87264.83437412269
 10
1011862.79085334
 20
87264.83437412269
  0
LWPOLYLINE
  5
36
330
17
100
AcDbEntity
  8
BAR-GAL
 62
7
370
13
100
AcDbPolyline
 90
4
 70
1
 43
15.0
 10
1012583.232317481
 20
88495.10500447384
 10
1012648.512332473
 20
88495.10500447384
 10
1012648.512332473
 20
88679.13617019405
 10
1012583.232317481
 20
88679.13617019405
  0
LWPOLYLINE
  5
37
330
17
100
AcDbEntity
  8
BAR-GAL
 62
8
370
13
100
AcDbPolyline
 90
4
 70
1
 10
1012648.512332473
 20
88679.13617019405
 10
1012582.232317481
 20
88679.13617019405
 10
1012582.232317481
 20
88495.7417905144
 10
1012600.367204483
 20
88652.92223826802
  0
LWPOLYLINE
  5
38
330
17
100
AcDbEntity
  8
BAR-GAL
 62
7
370
13
100
AcDbPolyline
 90
4
 70
1
 43
5.0
 10
1011862.070167372
 20
87206.67601078394
 10
1012013.070167371
 20
87206.67601078394
 10
1012013.070167371
 20
87411.0843298019
 10
1011862.070167372
 20
87411.0843298019
  0
DIMENSION
  5
39
330
17
100
AcDbEntity
  8
VP
370
13
100
AcDbDimension
280
0
  2
*D1
  3
ISO-25
 10
1011839.867663939
 20
87206.13415869419
 30
0.0
 11
1011839.867663939
 21
87236.13415869388
 31
0.0
 70
160
 71
5
 42
60.0
 73
0
 74
0
 75
0
100
AcDbAlignedDimension
 13
1011862.79085334
 23
87266.13415869416
 33
0.0
 14
1011862.79085334
 24
87206.13415869416
 34
0.0
 50
90.0
100
AcDbRotatedDimension
  0
DIMENSION
  5
48
330
17
100
AcDbEntity
  8
VP
370
13
100
AcDbDimension
280
0
  2
*D2
  3
ISO-25
 10
1011078.697679268
 20
87579.83437412271
 30
0.0
 11
1011053.370257712
 21
87422.55016136692
 31
0.0
 70
32
 71
5
 42
314.5684255110391
 73
0
 74
0
 75
0
100
AcDbAlignedDimension
 13
1011517.742601393
 23
87265.26594861166
 33
0.0
 14
1011667.16851302
 24
87579.83437412271
 34
0.0
 50
90.0
100
AcDbRotatedDimension
  0
DIMENSION
  5
55
330
17
100
AcDbEntity
  8
VP
370
13
100
AcDbDimension
280
0
  2
*D3
  3
ISO-25
 10
1012079.400241408
 20
87519.98736617882
 30
0.0
 11
1011909.376061544
 21
87545.31478773407
 31
0.0
 70
32
 71
5
 42
340.0483597293496
 73
0
 74
0
 75
0
100
AcDbAlignedDimension
 13
1011739.351881679
 23
87579.83437412271
 33
0.0
 14
1012079.400241408
 24
87579.83437412271
 34
0.0
 50
0.0
100
AcDbRotatedDimension
  0
DIMENSION
  5
62
330
17
100
AcDbEntity
  8
VP
370
13
100
AcDbDimension
280
0
  2
*D4
  3
ISO-25
 10
1012123.001254102
 20
86216.47933981856
 30
0.0
 11
1011856.24343125
 21
86241.80676137381
 31
0.0
 70
32
 71
5
 42
533.5156457051635
 73
0
 74
0
 75
0
100
AcDbAlignedDimension
 13
1011589.485608397
 23
86514.8343741227
 33
0.0
 14
1012123.001254102
 24
86514.40279963374
 34
0.0
 50
0.0
100
AcDbRotatedDimension
  0
LWPOLYLINE
  5
6F
330
17
100
AcDbEntity
  8
BAR-GAL
 62
7
370
13
100
AcDbPolyline
 90
3
 70
0
 43
15.0
 10
1012483.261740718
 20
87893.97898219046
 10
1012483.261740718
 20
88284.96561109085
 10
1012200.480781427
 20
88284.96561109088
  0
DIMENSION
  5
70
102
{ACAD_XDICTIONARY
360
71
102
}
330
17
100
AcDbEntity
  8
VP
370
13
100
AcDbDimension
280
0
  2
*D5
  3
ISO-25
 10
1012537.38593845
 20
88283.96561109088
 30
0.0
 11
1012512.058516895
 21
88088.97229664038
 31
0.0
 70
32
 71
5
 42
389.9866289003985
 73
0
 74
0
 75
0
100
AcDbAlignedDimension
 13
1012483.261740718
 23
87893.97898219046
 33
0.0
 14
1012483.261740718
 24
88283.96561109085
 34
0.0
 50
90.0
100
AcDbRotatedDimension
  0
DIMENSION
  5
7E
102
{ACAD_XDICTIONARY
360
7F
102
}
330
17
100
AcDbEntity
  8
VP
370
13
100
AcDbDimension
280
0
  2
*D6
  3
ISO-25
 10
1012483.261740718
 20
88388.76173570124
 30
0.0
 11
1012343.016393516
 21
88414.07892533288
 31
0.0
 70
32
 71
5
 42
280.4906944036484
 73
0
 74
0
 75
0
100
AcDbAlignedDimension
 13
1012202.771046314
 23
88285.92079009402
 33
0.0
 14
1012483.261740718
 24
88284.96561109085
 34
0.0
 50
0.0
100
AcDbRotatedDimension
  0
LWPOLYLINE
  5
8C
330
17
100
AcDbEntity
  8
BAR-GAL
 62
7
370
13
100
AcDbPolyline
 90
4
 70
1
 43
5.0
 10
1012201.158943717
 20
88344.2069282923
 10
1012483.261740718
 20
88344.2069282923
 10
1012483.261740718
 20
88283.96561109085
 10
1012201.158943717
 20
88283.96561109085
  0
LWPOLYLINE
  5
8D
330
17
100
AcDbEntity
  8
BAR-GAL
 62
7
370
13
100
AcDbPolyline
 90
4
 70
1
 43
15.0
 10
1012202.4526687
 20
88679.7729562346
 10
1012583.232317481
 20
88679.7729562346
 10
1012583.232317481
 20
88495.10500447384
 10
1012202.4526687
 20
88495.10500447384
  0
DIMENSION
  5
8E
102
{ACAD_XDICTIONARY
360
8F
102
}
330
17
100
AcDbEntity
  8
VP
370
13
100
AcDbDimension
280
0
  2
*D7
  3
ISO-25
 10
1012555.851841017
 20
88679.77295623464
 30
0.0
 11
1012530.534651385
 21
88587.43898035395
 31
0.0
 70
32
 71
5
 42
184.6679517607845
 73
0
 74
0
 75
0
100
AcDbAlignedDimension
 13
1012586.41609386
 23
88495.10500447384
 33
0.0
 14
1012583.232317481
 24
88679.7729562346
 34
0.0
 50
90.0
100
AcDbRotatedDimension
  0
DIMENSION
  5
9C
330
17
100
AcDbEntity
  8
VP
370
13
100
AcDbDimension
280
0
  2
*D8
  3
ISO-25
 10
1012582.232317481
 20
88442.2517631078
 30
0.0
 11
1012392.34249309
 21
88467.57918466305
 31
0.0
 70
32
 71
5
 42
379.7796487808227
 73
0
 74
0
 75
0
100
AcDbAlignedDimension
 13
1012202.4526687
 23
88495.7417905144
 33
0.0
 14
1012582.232317481
 24
88495.7417905144
 34
0.0
 50
0.0
100
AcDbRotatedDimension
  0
LWPOLYLINE
  5
A9
330
17
100
AcDbEntity
  8
BAR-GAL
 62
7
370
13
100
AcDbPolyline
 90
4
 70
1
 43
5.0
 10
1012217.734795127
 20
88656.68204137048
 10
1012370.556058679
 20
88656.68204137048
 10
1012370.556058679
 20
88516.58911244852
 10
1012217.734795127
 20
88516.58911244852
  0
LWPOLYLINE
  5
AA
330
17
100
AcDbEntity
  8
BAR-GAL
 62
7
370
13
100
AcDbPolyline
 90
4
 70
1
 43
5.0
 10
1012388.875938142
 20
88656.68204137048
 10
1012541.697201932
 20
88656.68204137048
 10
1012541.697201932
 20
88516.58911244852
 10
1012388.875938142
 20
88516.58911244852
  0
LINE
  5
AB
330
17
100
AcDbEntity
  8
BAR-GAL
 62
7
370
13
100
AcDbLine
 10
1012217.734795127
 20
88656.68204137048
 30
0.0
 11
1012370.556058679
 21
88516.58911244852
 31
0.0
  0
LINE
  5
AC
330
17
100
AcDbEntity
  8
BAR-GAL
 62
7
370
13
100
AcDbLine
 10
1012370.556058679
 20
88656.68204137048
 30
0.0
 11
1012217.734795127
 21
88516.58911244852
 31
0.0
  0
LINE
  5
AD
330
17
100
AcDbEntity
  8
BAR-GAL
 62
7
370
13
100
AcDbLine
 10
1012388.875938142
 20
88656.68204137048
 30
0.0
 11
1012541.697201932
 21
88516.58911244852
 31
0.0
  0
LINE
  5
AE
330
17
100
AcDbEntity
  8
BAR-GAL
 62
7
370
13
100
AcDbLine
 10
1012541.697201932
 20
88656.68204137048
 30
0.0
 11
1012388.875938142
 21
88516.58911244852
 31
0.0
  0
LWPOLYLINE
  5
AF
330
17
100
AcDbEntity
  8
BAR-GAL
 62
7
370
13
100
AcDbPolyline
 90
3
 70
0
 43
15.0
 10
1012202.4526687
 20
87895.25255427157
 10
1012202.4526687
 20
87579.83437412271
 10
1012079.400241408
 20
87579.83437412271
  0
DIMENSION
  5
B0
330
17
100
AcDbEntity
  8
VP
370
13
100
AcDbDimension
280
0
  2
*D9
  3
ISO-25
 10
1012483.261740718
 20
87946.57723749828
 30
0.0
 11
1012565.851841066
 21
87971.89442712994
 31
0.0
 70
32
 71
5
 42
165.1802006959915
 73
0
 74
0
 75
0
100
AcDbAlignedDimension
 13
1012648.441941414
 23
87893.97898219046
 33
0.0
 14
1012483.261740718
 24
87893.97898219046
 34
0.0
 50
0.0
100
AcDbRotatedDimension
  0
LWPOLYLINE
  5
BD
330
17
100
AcDbEntity
  8
BAR-GAL
 62
7
370
13
100
AcDbPolyline
 90
4
 70
1
 43
5.0
 10
1012312.611329589
 20
88166.52340754773
 10
1012373.103079829
 20
88166.52340754773
 10
1012373.103079829
 20
88004.14296720637
 10
1012312.611329589
 20
88004.14296720637
  0
LWPOLYLINE
  5
BE
330
17
100
AcDbEntity
  8
BAR-GAL
 62
7
370
13
100
AcDbPolyline
 90
2
 70
0
 43
5.0
 10
1012318.321912486
 20
88344.2069282923
 10
1012318.321912486
 20
88284.96561109088
  0
LWPOLYLINE
  5
BF
330
17
100
AcDbEntity
  8
BAR-GAL
 62
7
370
13
100
AcDbPolyline
 90
2
 70
0
 43
5.0
 10
1012443.146158967
 20
88343.54992682188
 10
1012443.146158967
 20
88283.96561109085
  0
DIMENSION
  5
C0
102
{ACAD_XDICTIONARY
360
C1
102
}
330
17
100
AcDbEntity
  8
VP
370
13
100
AcDbDimension
280
0
  2
*D10
  3
ISO-25
 10
1012589.680163202
 20
87894.97898219049
 30
0.0
 11
1012564.36297357
 21
88195.04199333188
 31
0.0
 70
32
 71
5
 42
600.1260222833662
 73
0
 74
0
 75
0
100
AcDbAlignedDimension
 13
1012648.512332473
 23
88495.10500447384
 33
0.0
 14
1012647.168430838
 24
87894.97898219046
 34
0.0
 50
90.0
100
AcDbRotatedDimension
  0
LINE
  5
CE
330
17
100
AcDbEntity
  8
BAR-GAL
 62
7
370
13
100
AcDbLine
 10
1012312.611329589
 20
88166.52340754773
 30
0.0
 11
1012312.611329589
 21
88283.96561109085
 31
0.0
  0
LINE
  5
CF
330
17
100
AcDbEntity
  8
BAR-GAL
 62
7
370
13
100
AcDbLine
 10
1012342.611329589
 20
88166.52340754773
 30
0.0
 11
1012342.611329589
 21
88283.96561109085
 31
0.0
  0
LINE
  5
D0
330
17
100
AcDbEntity
  8
BAR-GAL
 62
7
370
13
100
AcDbLine
 10
1012372.611329589
 20
88166.52340754773
 30
0.0
 11
1012372.611329589
 21
88283.96561109085
 31
0.0
  0
LINE
  5
D1
330
17
100
AcDbEntity
  8
BAR-GAL
 62
7
370
13
100
AcDbLine
 10
1012312.611329589
 20
88159.95991829789
 30
0.0
 11
1012203.436954921
 21
88159.95991829789
 31
0.0
  0
LINE
  5
D2
330
17
100
AcDbEntity
  8
BAR-GAL
 62
7
370
13
100
AcDbLine
 10
1012312.611329589
 20
88129.95991829789
 30
0.0
 11
1012203.436954921
 21
88129.95991829789
 31
0.0
  0
LINE
  5
D3
330
17
100
AcDbEntity
  8
BAR-GAL
 62
7
370
13
100
AcDbLine
 10
1012312.611329589
 20
88099.95991829789
 30
0.0
 11
1012203.436954921
 21
88099.95991829789
 31
0.0
  0
LINE
  5
D4
330
17
100
AcDbEntity
  8
BAR-GAL
 62
7
370
13
100
AcDbLine
 10
1012312.611329589
 20
88069.95991829789
 30
0.0
 11
1012203.436954921
 21
88069.95991829789
 31
0.0
  0
LINE
  5
D5
330
17
100
AcDbEntity
  8
BAR-GAL
 62
7
370
13
100
AcDbLine
 10
1012312.611329589
 20
88039.95991829789
 30
0.0
 11
1012203.436954921
 21
88039.95991829789
 31
0.0
  0
LINE
  5
D6
330
17
100
AcDbEntity
  8
BAR-GAL
 62
7
370
13
100
AcDbLine
 10
1012312.611329589
 20
88009.95991829789
 30
0.0
 11
1012203.436954921
 21
88009.95991829789
 31
0.0
  0
LINE
  5
D7
330
17
100
AcDbEntity
  8
BAR-GAL
 62
7
370
13
100
AcDbLine
 10
1012312.611329589
 20
87886.70076366323
 30
0.0
 11
1012312.611329589
 21
88004.14296720637
 31
0.0
  0
LINE
  5
D8
330
17
100
AcDbEntity
  8
BAR-GAL
 62
7
370
13
100
AcDbLine
 10
1012342.611329589
 20
87886.70076366323
 30
0.0
 11
1012342.611329589
 21
88004.14296720637
 31
0.0
  0
LINE
  5
D9
330
17
100
AcDbEntity
  8
BAR-GAL
 62
7
370
13
100
AcDbLine
 10
1012372.611329589
 20
87886.70076366323
 30
0.0
 11
1012372.611329589
 21
88004.14296720637
 31
0.0
  0
LINE
  5
DA
330
17
100
AcDbEntity
  8
BAR-GAL
 62
7
370
13
100
AcDbLine
 10
1012483.261740718
 20
88159.95991829789
 30
0.0
 11
1012374.087366049
 21
88159.95991829789
 31
0.0
  0
LINE
  5
DB
330
17
100
AcDbEntity
  8
BAR-GAL
 62
7
370
13
100
AcDbLine
 10
1012483.261740718
 20
88129.95991829789
 30
0.0
 11
1012374.087366049
 21
88129.95991829789
 31
0.0
  0
LINE
  5
DC
330
17
100
AcDbEntity
  8
BAR-GAL
 62
7
370
13
100
AcDbLine
 10
1012483.261740718
 20
88099.95991829789
 30
0.0
 11
1012374.087366049
 21
88099.95991829789
 31
0.0
  0
LINE
  5
DD
330
17
100
AcDbEntity
  8
BAR-GAL
 62
7
370
13
100
AcDbLine
 10
1012483.261740718
 20
88069.95991829789
 30
0.0
 11
1012374.087366049
 21
88069.95991829789
 31
0.0
  0
LINE
  5
DE
330
17
100
AcDbEntity
  8
BAR-GAL
 62
7
370
13
100
AcDbLine
 10
1012483.261740718
 20
88039.95991829789
 30
0.0
 11
1012374.087366049
 21
88039.95991829789
 31
0.0
  0
LINE
  5
DF
330
17
100
AcDbEntity
  8
BAR-GAL
 62
7
370
13
100
AcDbLine
 10
1012483.261740718
 20
88009.95991829789
 30
0.0
 11
1012374.087366049
 21
88009.95991829789
 31
0.0
  0
LWPOLYLINE
  5
E0
330
17
100
AcDbEntity
  8
BAR-GAL
 62
7
370
13
100
AcDbPolyline
 90
8
 70
1
 10
1012202.4526687
 20
88495.10500447384
 10
1012202.4526687
 20
88344.20692829227
 10
1012483.261740718
 20
88344.2069282923
 10
1012483.261740718
 20
88283.96561109085
 10
1012483.261740718
 20
87893.97898219046
 10
1012648.512332472
 20
87893.97898219046
 10
1012648.512332472
 20
88495.10500447384
 10
1012583.232317481
 20
88495.10500447384
  0
LINE
  5
E1
330
17
100
AcDbEntity
  8
BAR-GAL
 62
7
370
13
100
AcDbLine
 10
1012201.158943717
 20
88344.2069282923
 30
0.0
 11
1012318.321912486
 21
88284.96561109088
 31
0.0
  0
LINE
  5
E2
330
17
100
AcDbEntity
  8
BAR-GAL
 62
7
370
13
100
AcDbLine
 10
1012318.321912486
 20
88284.96561109088
 30
0.0
 11
1012443.146158967
 21
88343.54992682188
 31
0.0
  0
LINE
  5
E3
330
17
100
AcDbEntity
  8
BAR-GAL
 62
7
370
13
100
AcDbLine
 10
1012443.146158967
 20
88343.54992682188
 30
0.0
 11
1012483.261740718
 21
88284.96561109085
 31
0.0
  0
LINE
  5
E4
330
17
100
AcDbEntity
  8
BAR-GAL
 62
7
370
13
100
AcDbLine
 10
1012483.261740718
 20
88344.2069282923
 30
0.0
 11
1012443.146158967
 21
88284.96561109085
 31
0.0
  0
LINE
  5
E5
330
17
100
AcDbEntity
  8
BAR-GAL
 62
7
370
13
100
AcDbLine
 10
1012443.146158967
 20
88284.96561109085
 30
0.0
 11
1012318.321912486
 21
88344.2069282923
 31
0.0
  0
LINE
  5
E6
330
17
100
AcDbEntity
  8
BAR-GAL
 62
7
370
13
100
AcDbLine
 10
1012318.321912486
 20
88344.2069282923
 30
0.0
 11
1012202.4526687
 21
88283.96561109085
 31
0.0
  0
DIMENSION
  5
E7
330
17
100
AcDbEntity
  8
VP
370
13
100
AcDbDimension
280
0
  2
*D11
  3
ISO-25
 10
1011740.80510119
 20
88119.84689014644
 30
0.0
 11
1011593.30510119
 21
88145.16407977809
 31
0.0
 70
32
 71
5
 42
294.9999999998836
 73
0
 74
0
 75
0
100
AcDbAlignedDimension
 13
1011445.80510119
 23
88219.83437412271
 33
0.0
 14
1011740.80510119
 24
88219.83437412271
 34
0.0
 50
0.0
100
AcDbRotatedDimension
  0
DIMENSION
  5
F4
330
17
100
AcDbEntity
  8
VP
370
13
100
AcDbDimension
280
0
  2
*D12
  3
ISO-25
 10
1012419.001254103
 20
86216.47933981856
 30
0.0
 11
1012271.001254102
 21
86241.7965294502
 31
0.0
 70
32
 71
5
 42
296.0
 73
0
 74
0
 75
0
100
AcDbAlignedDimension
 13
1012123.001254102
 23
86654.40279963372
 33
0.0
 14
1012419.001254103
 24
86654.40279963372
 34
0.0
 50
0.0
100
AcDbRotatedDimension
  0
DIMENSION
  5
101
330
17
100
AcDbEntity
  8
VP
370
13
100
AcDbDimension
280
0
  2
*D13
  3
ISO-25
 10
1012883.001254103
 20
86216.47933981856
 30
0.0
 11
1012651.001254103
 21
86241.7965294502
 31
0.0
 70
32
 71
5
 42
464.0
 73
0
 74
0
 75
0
100
AcDbAlignedDimension
 13
1012419.001254103
 23
86654.40279963372
 33
0.0
 14
1012883.001254103
 24
86654.40279963372
 34
0.0
 50
0.0
100
AcDbRotatedDimension
  0
DIMENSION
  5
10E
330
17
100
AcDbEntity
  8
VP
370
13
100
AcDbDimension
280
0
  2
*D14
  3
ISO-25
 10
1012648.512332473
 20
87717.57654717268
 30
0.0
 11
1012778.761023496
 21
87742.89373680433
 31
0.0
 70
32
 71
5
 42
260.497382046422
 73
0
 74
0
 75
0
100
AcDbAlignedDimension
 13
1012909.009714519
 23
87672.26461555102
 33
0.0
 14
1012648.512332473
 24
87672.26461555102
 34
0.0
 50
0.0
100
AcDbRotatedDimension
  0
DIMENSION
  5
11B
330
17
100
AcDbEntity
  8
VP
370
13
100
AcDbDimension
280
0
  2
*D15
  3
ISO-25
 10
1011862.79085334
 20
87447.91914398118
 30
0.0
 11
1011725.79085334
 21
87472.98053552279
 31
0.0
 70
32
 71
5
 42
274.0
 73
0
 74
0
 75
0
100
AcDbAlignedDimension
 13
1011588.79085334
 23
87348.85400100521
 33
0.0
 14
1011862.79085334
 24
87348.85400100521
 34
0.0
 50
0.0
100
AcDbRotatedDimension
  0
LWPOLYLINE
  5
128
330
17
100
AcDbEntity
  8
BAR-GAL
 62
7
370
13
100
AcDbPolyline
 90
13
 70
0
 43
15.0
 10
1012013.070167371
 20
87416.21596423067
 10
1012079.400241408
 20
87416.21596423067
 10
1012079.400241408
 20
87579.83437412271
 10
1011740.80510119
 20
87579.83437412271
 10
1011740.80510119
 20
88219.83437412271
 10
1011445.80510119
 20
88219.83437412271
 10
1011445.80510119
 20
88339.83437412269
 10
1011270.80510119
 20
88339.83437412269
 10
1011250.805101189
 20
88339.83437412269
 10
1011250.805101189
 20
89149.40279963374
 10
1011247.001254103
 20
89149.40279963374
 10
1012648.512332473
 20
89149.40279963374
 10
1012648.512332473
 20
88679.13617019405
  0
DIMENSION
  5
129
102
{ACAD_XDICTIONARY
360
12A
102
}
330
17
100
AcDbEntity
  8
VP
370
13
100
AcDbDimension
280
0
  2
*D16
  3
ISO-25
 10
1012013.070167371
 20
87447.79902965314
 30
0.0
 11
1011937.570167372
 21
87473.11621928478
 31
0.0
 70
32
 71
5
 42
151.0
 73
0
 74
0
 75
0
100
AcDbAlignedDimension
 13
1011862.070167372
 23
87411.0843298019
 33
0.0
 14
1012013.070167371
 24
87411.0843298019
 34
0.0
 50
0.0
100
AcDbRotatedDimension
  0
LWPOLYLINE
  5
137
330
17
100
AcDbEntity
  8
BAR-GAL
 62
7
370
13
100
AcDbPolyline
 90
4
 70
0
 43
15.0
 10
1012014.056292872
 20
87416.21596423067
 10
1012014.056292872
 20
87204.83437412269
 10
1011862.79085334
 20
87204.83437412269
 10
1011862.79085334
 20
87266.13415869416
  0
DIMENSION
  5
138
102
{ACAD_XDICTIONARY
360
139
102
}
330
17
100
AcDbEntity
  8
VP
370
13
100
AcDbDimension
280
0
  2
*D17
  3
ISO-25
 10
1012078.070167371
 20
87447.79902965314
 30
0.0
 11
1012045.570167372
 21
87473.11621928478
 31
0.0
 70
32
 71
5
 42
65.0
 73
0
 74
0
 75
0
100
AcDbAlignedDimension
 13
1012013.070167371
 23
87416.21596423067
 33
0.0
 14
1012078.070167371
 24
87416.21596423067
 34
0.0
 50
0.0
100
AcDbRotatedDimension
  0
LWPOLYLINE
  5
148
330
17
100
AcDbEntity
  8
BAR-GAL
 62
7
370
13
100
AcDbPolyline
 90
4
 70
0
 43
5.0
 10
1012648.512332473
 20
87987.20120373365
 10
1013021.001254102
 20
87987.20120373365
 10
1013021.001254102
 20
87212.20120373365
 10
1012909.009714519
 20
87212.20120373365
  0
DIMENSION
  5
149
330
17
100
AcDbEntity
  8
VP
370
13
100
AcDbDimension
280
0
  2
*D18
  3
ISO-25
 10
1012191.021928736
 20
86654.40279963377
 30
0.0
 11
1012165.704739104
 21
86584.40279963348
 31
0.0
 70
32
 71
5
 42
140.0
 73
0
 74
0
 75
0
100
AcDbAlignedDimension
 13
1012123.073800114
 23
86514.40279963374
 33
0.0
 14
1012123.001254102
 24
86654.40279963372
 34
0.0
 50
90.0
100
AcDbRotatedDimension
  0
DIMENSION
  5
156
330
17
100
AcDbEntity
  8
VP
370
13
100
AcDbDimension
280
0
  2
*D19
  3
ISO-25
 10
1012200.974292998
 20
87718.82654717268
 30
0.0
 11
1012424.931065826
 21
87744.14373680433
 31
0.0
 70
32
 71
5
 42
447.9135456561343
 73
0
 74
0
 75
0
100
AcDbAlignedDimension
 13
1012648.887838654
 23
87674.67642565284
 33
0.0
 14
1012200.974292998
 24
87674.67642565284
 34
0.0
 50
0.0
100
AcDbRotatedDimension
  0
DIMENSION
  5
163
102
{ACAD_XDICTIONARY
360
164
102
}
330
17
100
AcDbEntity
  8
VP
370
13
100
AcDbDimension
280
0
  2
*D20
  3
ISO-25
 10
1011740.80510119
 20
87718.91846965885
 30
0.0
 11
1011970.889697094
 21
87744.23565929051
 31
0.0
 70
32
 71
5
 42
460.1691918080905
 73
0
 74
0
 75
0
100
AcDbAlignedDimension
 13
1012200.974292998
 23
87674.67642565284
 33
0.0
 14
1011740.80510119
 24
87674.67642565284
 34
0.0
 50
0.0
100
AcDbRotatedDimension
  0
DIMENSION
  5
171
102
{ACAD_XDICTIONARY
360
172
102
}
330
17
100
AcDbEntity
  8
VP
370
13
100
AcDbDimension
280
0
  2
*D21
  3
ISO-25
 10
1013021.001254102
 20
88027.3376151534
 30
0.0
 11
1012834.756793288
 21
88052.66503670865
 31
0.0
 70
32
 71
5
 42
372.4889216299634
 73
0
 74
0
 75
0
100
AcDbAlignedDimension
 13
1012648.512332472
 23
87985.2608702916
 33
0.0
 14
1013021.001254102
 24
87987.20120373365
 34
0.0
 50
0.0
100
AcDbRotatedDimension
  0
DIMENSION
  5
17F
330
17
100
AcDbEntity
  8
VP
370
13
100
AcDbDimension
280
0
  2
*D22
  3
ISO-25
 10
1012911.009714519
 20
86073.56793701503
 30
0.0
 11
1012081.005484311
 21
86098.88512664667
 31
0.0
 70
32
 71
5
 42
1660.008460416691
 73
0
 74
0
 75
0
100
AcDbAlignedDimension
 13
1011251.001254102
 23
86514.40279963374
 33
0.0
 14
1012911.009714519
 24
87212.20120373365
 34
0.0
 50
0.0
100
AcDbRotatedDimension
  0
TEXT
  5
18C
330
17
100
AcDbEntity
  8
0
100
AcDbText
 10
1011655.719625748
 20
88618.50690357415
 30
0.0
 40
59.201694284898
  1
17 דירה
100
AcDbText
  0
TEXT
  5
18D
330
17
100
AcDbEntity
  8
0
100
AcDbText
 10
1012272.06022916
 20
87137.1734267576
 30
0.0
 40
59.201694284898
  1
18 דירה
100
AcDbText
  0
LWPOLYLINE
  5
18E
330
17
100
AcDbEntity
  8
BAR-GAL
 62
1
370
13
100
AcDbPolyline
 90
19
 70
1
 10
1011250.805101189
 20
89149.40279963374
 10
1011250.805101189
 20
88339.83437412269
 10
1011270.80510119
 20
88339.83437412269
 10
1011445.80510119
 20
88339.83437412269
 10
1011445.805101189
 20
88219.83437412271
 10
1011740.80510119
 20
88219.83437412271
 10
1011740.80510119
 20
87579.83437412271
 10
1012079.400241408
 20
87579.83437412271
 10
1012202.4526687
 20
87579.83437412269
 10
1012202.4526687
 20
87895.25255427157
 10
1012202.4526687
 20
88283.96561109085
 10
1012201.158943717
 20
88283.96561109085
 10
1012200.480781427
 20
88284.96561109088
 10
1012201.158943717
 20
88284.96561109088
 10
1012201.158943717
 20
88344.2069282923
 10
1012202.4526687
 20
88679.77295623459
 10
1012583.232317481
 20
88679.7729562346
 10
1012648.512332473
 20
88679.13617019405
 10
1012648.512332473
 20
89149.40279963371
  0
LWPOLYLINE
  5
18F
330
17
100
AcDbEntity
  8
BAR-GAL
 62
1
370
13
100
AcDbPolyline
 90
22
 70
1
 10
1012648.512332473
 20
87672.26461555102
 10
1012648.512332473
 20
87893.97898219046
 10
1012483.261740718
 20
87893.97898219046
 10
1012202.4526687
 20
87893.97898219046
 10
1012202.4526687
 20
87579.83437412269
 10
1012079.400241409
 20
87579.83437412271
 10
1012079.400241408
 20
87416.21596423067
 10
1012014.056292872
 20
87416.21596423067
 10
1012014.056292872
 20
87204.83437412269
 10
1011862.070167372
 20
87204.83437412269
 10
1011862.070167372
 20
87264.83437412269
 10
1011589.485608397
 20
87264.83437412269
 10
1011589.485608397
 20
86514.83437412271
 10
1012123.001254103
 20
86514.40279963372
 10
1012123.001254102
 20
86654.40279963372
 10
1012419.001254103
 20
86654.40279963372
 10
1012419.001254103
 20
86618.39032203646
 10
1012883.009714519
 20
86618.39032203646
 10
1012883.009714519
 20
87212.20120373365
 10
1012901.009714519
 20
87212.20120373365
 10
1012909.009714519
 20
87212.20120373365
 10
1012909.009714519
 20
87672.26461555102
  0
LWPOLYLINE
  5
190
330
17
100
AcDbEntity
  8
BAR-GAL
 62
3
370
13
100
AcDbPolyline
 90
7
 70
1
 10
1012648.512332472
 20
87987.20120373365
 10
1012648.512332472
 20
87893.97898219046
 10
1012648.512332473
 20
87672.26461555102
 10
1012909.009714519
 20
87672.26461555104
 10
1012909.009714519
 20
87212.20120373365
 10
1013021.001254102
 20
87212.20120373365
 10
1013021.001254102
 20
87987.20120373364
  0
LWPOLYLINE
  5
191
330
17
100
AcDbEntity
  8
BAR-GAL
 62
3
370
13
100
AcDbPolyline
 90
7
 70
1
 10
1012883.009714519
 20
86338.39032203644
 10
1012883.009714519
 20
86618.39032203644
 10
1012419.001254103
 20
86618.39032203646
 10
1012419.001254103
 20
86654.40279963372
 10
1012366.009714519
 20
86654.40279963372
 10
1012366.009714519
 20
86338.39032203646
 10
1012386.009714519
 20
86338.39032203646
  0
DIMENSION
  5
192
102
{ACAD_XDICTIONARY
360
193
102
}
330
17
100
AcDbEntity
  8
VP
370
13
100
AcDbDimension
280
0
  2
*D23
  3
ISO-25
 10
1012141.145476528
 20
87204.83437412271
 30
0.0
 11
1012116.084084986
 21
87310.52516917641
 31
0.0
 70
32
 71
5
 42
211.3815901079797
 73
0
 74
0
 75
0
100
AcDbAlignedDimension
 13
1012014.056292872
 23
87416.21596423067
 33
0.0
 14
1012014.056292872
 24
87204.83437412269
 34
0.0
 50
90.0
100
AcDbRotatedDimension
  0
DIMENSION
  5
1A0
102
{ACAD_XDICTIONARY
360
1A1
102
}
330
17
100
AcDbEntity
  8
VP
370
13
100
AcDbDimension
280
0
  2
*D24
  3
ISO-25
 10
1012141.145476529
 20
87579.83437412271
 30
0.0
 11
1012115.828286897
 21
87498.02516917643
 31
0.0
 70
32
 71
5
 42
163.6184098920348
 73
0
 74
0
 75
0
100
AcDbAlignedDimension
 13
1012078.070167371
 23
87416.21596423067
 33
0.0
 14
1012079.400241409
 24
87579.83437412271
 34
0.0
 50
90.0
100
AcDbRotatedDimension
  0
MTEXT
  5
1AE
330
17
100
AcDbEntity
  8
VP
370
13
100
AcDbMText
 10
1012319.630908646
 20
86897.86294658326
 30
0.0
 40
59.201694284898
 41
262.1310489581865
 46
0.0
 71
1
  1
 13085
  0
MTEXT
  5
1AF
330
17
100
AcDbEntity
  8
VP
370
13
100
AcDbMText
 10
1012807.328143328
 20
88521.76690983659
 30
0.0
 40
59.201694284898
 41
262.1310489581865
 46
0.0
 71
1
  1
  7539
  0
MTEXT
  5
1B0
330
17
100
AcDbEntity
  8
VP
370
13
100
AcDbMText
 10
1012753.917646017
 20
87853.3290007731
 30
0.0
 40
59.201694284898
 41
262.1310489581865
 46
0.0
 71
1
  1
  1688
  0
ENDSEC
  0
SECTION
  2
OBJECTS
  0
DICTIONARY
  5
A
330
0
100
AcDbDictionary
281
1
  3
ACAD_COLOR
350
B
  3
ACAD_GROUP
350
C
  3
ACAD_LAYOUT
350
D
  3
ACAD_MATERIAL
350
E
  3
ACAD_MLEADERSTYLE
350
F
  3
ACAD_MLINESTYLE
350
10
  3
ACAD_PLOTSETTINGS
350
11
  3
ACAD_PLOTSTYLENAME
350
12
  3
ACAD_SCALELIST
350
14
  3
ACAD_TABLESTYLE
350
15
  3
ACAD_VISUALSTYLE
350
16
  3
EZDXF_META
350
2D
  0
DICTIONARY
  5
B
330
A
100
AcDbDictionary
281
1
  0
DICTIONARY
  5
C
330
A
100
AcDbDictionary
281
1
  0
DICTIONARY
  5
D
330
A
100
AcDbDictionary
281
1
  3
Model
350
1A
  3
Layout1
350
1E
  0
DICTIONARY
  5
E
330
A
100
AcDbDictionary
281
1
  3
ByBlock
350
1F
  3
ByLayer
350
20
  3
Global
350
21
  0
DICTIONARY
  5
F
330
A
100
AcDbDictionary
281
1
  3
Standard
350
2C
  0
DICTIONARY
  5
10
330
A
100
AcDbDictionary
281
1
  3
Standard
350
22
  0
DICTIONARY
  5
11
330
A
100
AcDbDictionary
281
1
  0
ACDBDICTIONARYWDFLT
  5
12
330
A
100
AcDbDictionary
281
1
  3
Normal
350
13
100
AcDbDictionaryWithDefault
340
13
  0
ACDBPLACEHOLDER
  5
13
330
12
  0
DICTIONARY
  5
14
330
A
100
AcDbDictionary
281
1
  0
DICTIONARY
  5
15
330
A
100
AcDbDictionary
281
1
  0
DICTIONARY
  5
16
330
A
100
AcDbDictionary
281
1
  0
LAYOUT
  5
1A
330
D
100
AcDbPlotSettings
  1

  4
A3
  6

 40
7.5
 41
20.0
 42
7.5
 43
20.0
 44
420.0
 45
297.0
 46
0.0
 47
0.0
 48
0.0
 49
0.0
140
0.0
141
0.0
142
1.0
143
1.0
 70
1024
 72
1
 73
0
 74
5
  7

 75
16
 76
0
 77
2
 78
300
147
1.0
148
0.0
149
0.0
100
AcDbLayout
  1
Model
 70
1
 71
0
 10
0.0
 20
0.0
 11
420.0
 21
297.0
 12
0.0
 22
0.0
 32
0.0
 14
1e+20
 24
1e+20
 34
1e+20
 15
-1e+20
 25
-1e+20
 35
-1e+20
146
0.0
 13
0.0
 23
0.0
 33
0.0
 16
1.0
 26
0.0
 36
0.0
 17
0.0
 27
1.0
 37
0.0
 76
1
330
17
  0
LAYOUT
  5
1E
330
D
100
AcDbPlotSettings
  1

  4
A3
  6

 40
7.5
 41
20.0
 42
7.5
 43
20.0
 44
420.0
 45
297.0
 46
0.0
 47
0.0
 48
0.0
 49
0.0
140
0.0
141
0.0
142
1.0
143
1.0
 70
0
 72
1
 73
0
 74
5
  7

 75
16
 76
0
 77
2
 78
300
147
1.0
148
0.0
149
0.0
100
AcDbLayout
  1
Layout1
 70
1
 71
1
 10
0.0
 20
0.0
 11
420.0
 21
297.0
 12
0.0
 22
0.0
 32
0.0
 14
1e+20
 24
1e+20
 34
1e+20
 15
-1e+20
 25
-1e+20
 35
-1e+20
146
0.0
 13
0.0
 23
0.0
 33
0.0
 16
1.0
 26
0.0
 36
0.0
 17
0.0
 27
1.0
 37
0.0
 76
1
330
1B
  0
MATERIAL
  5
1F
102
{ACAD_REACTORS
330
E
102
}
330
E
100
AcDbMaterial
  1
ByBlock
  2

 70
0
 40
1.0
 71
1
 41
1.0
 91
-1023410177
 42
1.0
 72
1
  3

 73
1
 74
1
 75
1
 44
0.5
 73
0
 45
1.0
 46
1.0
 77
1
  4

 78
1
 79
1
170
1
 48
1.0
171
1
  6

172
1
173
1
174
1
140
1.0
141
1.0
175
1
  7

176
1
177
1
178
1
143
1.0
179
1
  8

270
1
271
1
272
1
145
1.0
146
1.0
273
1
  9

274
1
275
1
276
1
 42
1.0
 72
1
  3

 73
1
 74
1
 75
1
 94
63
  0
MATERIAL
  5
20
102
{ACAD_REACTORS
330
E
102
}
330
E
100
AcDbMaterial
  1
ByLayer
  2

 70
0
 40
1.0
 71
1
 41
1.0
 91
-1023410177
 42
1.0
 72
1
  3

 73
1
 74
1
 75
1
 44
0.5
 73
0
 45
1.0
 46
1.0
 77
1
  4

 78
1
 79
1
170
1
 48
1.0
171
1
  6

172
1
173
1
174
1
140
1.0
141
1.0
175
1
  7

176
1
177
1
178
1
143
1.0
179
1
  8

270
1
271
1
272
1
145
1.0
146
1.0
273
1
  9

274
1
275
1
276
1
 42
1.0
 72
1
  3

 73
1
 74
1
 75
1
 94
63
  0
MATERIAL
  5
21
102
{ACAD_REACTORS
330
E
102
}
330
E
100
AcDbMaterial
  1
Global
  2

 70
0
 40
1.0
 71
1
 41
1.0
 91
-1023410177
 42
1.0
 72
1
  3

 73
1
 74
1
 75
1
 44
0.5
 73
0
 45
1.0
 46
1.0
 77
1
  4

 78
1
 79
1
170
1
 48
1.0
171
1
  6

172
1
173
1
174
1
140
1.0
141
1.0
175
1
  7

176
1
177
1
178
1
143
1.0
179
1
  8

270
1
271
1
272
1
145
1.0
146
1.0
273
1
  9

274
1
275
1
276
1
 42
1.0
 72
1
  3

 73
1
 74
1
 75
1
 94
63
  0
MLINESTYLE
  5
22
102
{ACAD_REACTORS
330
10
102
}
330
10
100
AcDbMlineStyle
  2
Standard
 70
0
  3

 62
256
 51
90.0
 52
90.0
 71
2
 49
0.5
 62
256
  6
BYLAYER
 49
-0.5
 62
256
  6
BYLAYER
  0
MLEADERSTYLE
  5
2C
102
{ACAD_REACTORS
330
F
102
}
330
F
100
AcDbMLeaderStyle
179
2
170
2
171
1
172
0
 90
2
 40
0.0
 41
0.0
173
1
 91
-1056964608
 92
-2
290
1
 42
2.0
291
1
 43
8.0
  3
Standard
 44
4.0
300

342
29
174
1
175
1
176
0
178
1
 93
-1056964608
 45
4.0
292
0
297
0
 46
4.0
 94
-1056964608
 47
1.0
 49
1.0
140
1.0
294
1
141
0.0
177
0
142
1.0
295
0
296
0
143
3.75
271
0
272
9
273
9
  0
DICTIONARY
  5
2D
330
A
100
AcDbDictionary
280
1
281
1
  3
CREATED_BY_EZDXF
350
2E
  3
WRITTEN_BY_EZDXF
350
1B3
  0
DICTIONARYVAR
  5
2E
330
2D
100
DictionaryVariables
280
0
  1
1.4.3 @ 2026-05-15T06:57:54.398192+00:00
  0
DICTIONARY
  5
71
330
70
100
AcDbDictionary
280
1
281
1
  0
DICTIONARY
  5
7F
330
7E
100
AcDbDictionary
280
1
281
1
  0
DICTIONARY
  5
8F
330
8E
100
AcDbDictionary
280
1
281
1
  0
DICTIONARY
  5
C1
330
C0
100
AcDbDictionary
280
1
281
1
  0
DICTIONARY
  5
12A
330
129
100
AcDbDictionary
280
1
281
1
  0
DICTIONARY
  5
139
330
138
100
AcDbDictionary
280
1
281
1
  0
DICTIONARY
  5
164
330
163
100
AcDbDictionary
280
1
281
1
  0
DICTIONARY
  5
172
330
171
100
AcDbDictionary
280
1
281
1
  0
DICTIONARY
  5
193
330
192
100
AcDbDictionary
280
1
281
1
  0
DICTIONARY
  5
1A1
330
1A0
100
AcDbDictionary
280
1
281
1
  0
DICTIONARYVAR
  5
1B3
330
2D
100
DictionaryVariables
280
0
  1
1.4.3 @ 2026-05-15T06:57:54.415815+00:00
  0
ENDSEC
  0
EOF
