  0
SECTION
  2
HEADER
  9
$ACADVER
  1
AC1032
  9
$ACADMAINTVER
 90
4
  9
$DWGCODEPAGE
  3
ANSI_1252
  9
$LASTSAVEDBY
  1
ezdxf
  9
$REQUIREDVERSIONS
160
0
  9
$INSBASE
 10
0.0
 20
0.0
 30
0.0
  9
$EXTMIN
 10
1e+20
 20
1e+20
 30
1e+20
  9
$EXTMAX
 10
-1e+20
 20
-1e+20
 30
-1e+20
  9
$LIMMIN
 10
0.0
 20
0.0
  9
$LIMMAX
 10
420.0
 20
297.0
  9
$ORTHOMODE
 70
0
  9
$REGENMODE
 70
1
  9
$FILLMODE
 70
1
  9
$QTEXTMODE
 70
0
  9
$MIRRTEXT
 70
1
  9
$LTSCALE
 40
1.0
  9
$ATTMODE
 70
1
  9
$TEXTSIZE
 40
2.5
  9
$TRACEWID
 40
1.0
  9
$TEXTSTYLE
  7
Standard
  9
$CLAYER
  8
0
  9
$CELTYPE
  6
ByLayer
  9
$CECOLOR
 62
256
  9
$CELTSCALE
 40
1.0
  9
$DISPSILH
 70
0
  9
$DIMSCALE
 40
1.0
  9
$DIMASZ
 40
2.5
  9
$DIMEXO
 40
0.625
  9
$DIMDLI
 40
3.75
  9
$DIMRND
 40
0.0
  9
$DIMDLE
 40
0.0
  9
$DIMEXE
 40
1.25
  9
$DIMTP
 40
0.0
  9
$DIMTM
 40
0.0
  9
$DIMTXT
 40
2.5
  9
$DIMCEN
 40
2.5
  9
$DIMTSZ
 40
0.0
  9
$DIMTOL
 70
0
  9
$DIMLIM
 70
0
  9
$DIMTIH
 70
0
  9
$DIMTOH
 70
0
  9
$DIMSE1
 70
0
  9
$DIMSE2
 70
0
  9
$DIMTAD
 70
1
  9
$DIMZIN
 70
8
  9
$DIMBLK
  1

  9
$DIMASO
 70
1
  9
$DIMSHO
 70
1
  9
$DIMPOST
  1

  9
$DIMAPOST
  1

  9
$DIMALT
 70
0
  9
$DIMALTD
 70
3
  9
$DIMALTF
 40
0.03937007874
  9
$DIMLFAC
 40
1.0
  9
$DIMTOFL
 70
1
  9
$DIMTVP
 40
0.0
  9
$DIMTIX
 70
0
  9
$DIMSOXD
 70
0
  9
$DIMSAH
 70
0
  9
$DIMBLK1
  1

  9
$DIMBLK2
  1

  9
$DIMSTYLE
  2
ISO-25
  9
$DIMCLRD
 70
0
  9
$DIMCLRE
 70
0
  9
$DIMCLRT
 70
0
  9
$DIMTFAC
 40
1.0
  9
$DIMGAP
 40
0.625
  9
$DIMJUST
 70
0
  9
$DIMSD1
 70
0
  9
$DIMSD2
 70
0
  9
$DIMTOLJ
 70
0
  9
$DIMTZIN
 70
8
  9
$DIMALTZ
 70
0
  9
$DIMALTTZ
 70
0
  9
$DIMUPT
 70
0
  9
$DIMDEC
 70
2
  9
$DIMTDEC
 70
2
  9
$DIMALTU
 70
2
  9
$DIMALTTD
 70
3
  9
$DIMTXSTY
  7
Standard
  9
$DIMAUNIT
 70
0
  9
$DIMADEC
 70
0
  9
$DIMALTRND
 40
0.0
  9
$DIMAZIN
 70
0
  9
$DIMDSEP
 70
44
  9
$DIMATFIT
 70
3
  9
$DIMFRAC
 70
0
  9
$DIMLDRBLK
  1

  9
$DIMLUNIT
 70
2
  9
$DIMLWD
 70
-2
  9
$DIMLWE
 70
-2
  9
$DIMTMOVE
 70
0
  9
$DIMFXL
 40
1.0
  9
$DIMFXLON
 70
0
  9
$DIMJOGANG
 40
0.785398163397
  9
$DIMTFILL
 70
0
  9
$DIMTFILLCLR
 70
0
  9
$DIMARCSYM
 70
0
  9
$DIMLTYPE
  6

  9
$DIMLTEX1
  6

  9
$DIMLTEX2
  6

  9
$DIMTXTDIRECTION
 70
0
  9
$LUNITS
 70
2
  9
$LUPREC
 70
4
  9
$SKETCHINC
 40
1.0
  9
$FILLETRAD
 40
10.0
  9
$AUNITS
 70
0
  9
$AUPREC
 70
2
  9
$MENU
  1
.
  9
$ELEVATION
 40
0.0
  9
$PELEVATION
 40
0.0
  9
$THICKNESS
 40
0.0
  9
$LIMCHECK
 70
0
  9
$CHAMFERA
 40
0.0
  9
$CHAMFERB
 40
0.0
  9
$CHAMFERC
 40
0.0
  9
$CHAMFERD
 40
0.0
  9
$SKPOLY
 70
0
  9
$TDCREATE
 40
2461176.290208333
  9
$TDUCREATE
 40
2458532.153996898
  9
$TDUPDATE
 40
2461176.290208333
  9
$TDUUPDATE
 40
2458532.1544311
  9
$TDINDWG
 40
0.0
  9
$TDUSRTIMER
 40
0.0
  9
$USRTIMER
 70
1
  9
$ANGBASE
 50
0.0
  9
$ANGDIR
 70
0
  9
$PDMODE
 70
0
  9
$PDSIZE
 40
0.0
  9
$PLINEWID
 40
0.0
  9
$SPLFRAME
 70
0
  9
$SPLINETYPE
 70
6
  9
$SPLINESEGS
 70
8
  9
$HANDSEED
  5
17C
  9
$SURFTAB1
 70
6
  9
$SURFTAB2
 70
6
  9
$SURFTYPE
 70
6
  9
$SURFU
 70
6
  9
$SURFV
 70
6
  9
$UCSBASE
  2

  9
$UCSNAME
  2

  9
$UCSORG
 10
0.0
 20
0.0
 30
0.0
  9
$UCSXDIR
 10
1.0
 20
0.0
 30
0.0
  9
$UCSYDIR
 10
0.0
 20
1.0
 30
0.0
  9
$UCSORTHOREF
  2

  9
$UCSORTHOVIEW
 70
0
  9
$UCSORGTOP
 10
0.0
 20
0.0
 30
0.0
  9
$UCSORGBOTTOM
 10
0.0
 20
0.0
 30
0.0
  9
$UCSORGLEFT
 10
0.0
 20
0.0
 30
0.0
  9
$UCSORGRIGHT
 10
0.0
 20
0.0
 30
0.0
  9
$UCSORGFRONT
 10
0.0
 20
0.0
 30
0.0
  9
$UCSORGBACK
 10
0.0
 20
0.0
 30
0.0
  9
$PUCSBASE
  2

  9
$PUCSNAME
  2

  9
$PUCSORG
 10
0.0
 20
0.0
 30
0.0
  9
$PUCSXDIR
 10
1.0
 20
0.0
 30
0.0
  9
$PUCSYDIR
 10
0.0
 20
1.0
 30
0.0
  9
$PUCSORTHOREF
  2

  9
$PUCSORTHOVIEW
 70
0
  9
$PUCSORGTOP
 10
0.0
 20
0.0
 30
0.0
  9
$PUCSORGBOTTOM
 10
0.0
 20
0.0
 30
0.0
  9
$PUCSORGLEFT
 10
0.0
 20
0.0
 30
0.0
  9
$PUCSORGRIGHT
 10
0.0
 20
0.0
 30
0.0
  9
$PUCSORGFRONT
 10
0.0
 20
0.0
 30
0.0
  9
$PUCSORGBACK
 10
0.0
 20
0.0
 30
0.0
  9
$USERI1
 70
0
  9
$USERI2
 70
0
  9
$USERI3
 70
0
  9
$USERI4
 70
0
  9
$USERI5
 70
0
  9
$USERR1
 40
0.0
  9
$USERR2
 40
0.0
  9
$USERR3
 40
0.0
  9
$USERR4
 40
0.0
  9
$USERR5
 40
0.0
  9
$WORLDVIEW
 70
1
  9
$SHADEDGE
 70
3
  9
$SHADEDIF
 70
70
  9
$TILEMODE
 70
1
  9
$MAXACTVP
 70
64
  9
$PINSBASE
 10
0.0
 20
0.0
 30
0.0
  9
$PLIMCHECK
 70
0
  9
$PEXTMIN
 10
1e+20
 20
1e+20
 30
1e+20
  9
$PEXTMAX
 10
-1e+20
 20
-1e+20
 30
-1e+20
  9
$PLIMMIN
 10
0.0
 20
0.0
  9
$PLIMMAX
 10
420.0
 20
297.0
  9
$UNITMODE
 70
0
  9
$VISRETAIN
 70
1
  9
$PLINEGEN
 70
0
  9
$PSLTSCALE
 70
1
  9
$TREEDEPTH
 70
3020
  9
$CMLSTYLE
  2
Standard
  9
$CMLJUST
 70
0
  9
$CMLSCALE
 40
20.0
  9
$PROXYGRAPHICS
 70
1
  9
$MEASUREMENT
 70
1
  9
$CELWEIGHT
370
-1
  9
$ENDCAPS
280
0
  9
$JOINSTYLE
280
0
  9
$LWDISPLAY
290
0
  9
$INSUNITS
 70
6
  9
$HYPERLINKBASE
  1

  9
$STYLESHEET
  1

  9
$XEDIT
290
1
  9
$CEPSNTYPE
380
0
  9
$PSTYLEMODE
290
1
  9
$FINGERPRINTGUID
  2
{2B45F990-74AD-4DD0-B90B-32C56CABB915}
  9
$VERSIONGUID
  2
{33C68542-D736-4E28-8434-21B8CC540A07}
  9
$EXTNAMES
290
1
  9
$PSVPSCALE
 40
0.0
  9
$OLESTARTUP
290
0
  9
$SORTENTS
280
127
  9
$INDEXCTL
280
0
  9
$HIDETEXT
280
1
  9
$XCLIPFRAME
280
1
  9
$HALOGAP
280
0
  9
$OBSCOLOR
 70
257
  9
$OBSLTYPE
280
0
  9
$INTERSECTIONDISPLAY
280
0
  9
$INTERSECTIONCOLOR
 70
257
  9
$DIMASSOC
280
2
  9
$PROJECTNAME
  1

  9
$CAMERADISPLAY
290
0
  9
$LENSLENGTH
 40
50.0
  9
$CAMERAHEIGHT
 40
0.0
  9
$STEPSPERSEC
 40
24.0
  9
$STEPSIZE
 40
100.0
  9
$3DDWFPREC
 40
2.0
  9
$PSOLWIDTH
 40
0.005
  9
$PSOLHEIGHT
 40
0.08
  9
$LOFTANG1
 40
1.570796326795
  9
$LOFTANG2
 40
1.570796326795
  9
$LOFTMAG1
 40
0.0
  9
$LOFTMAG2
 40
0.0
  9
$LOFTPARAM
 70
7
  9
$LOFTNORMALS
280
1
  9
$LATITUDE
 40
37.795
  9
$LONGITUDE
 40
-122.394
  9
$NORTHDIRECTION
 40
0.0
  9
$TIMEZONE
 70
-8000
  9
$LIGHTGLYPHDISPLAY
280
1
  9
$TILEMODELIGHTSYNCH
280
1
  9
$CMATERIAL
347
20
  9
$SOLIDHIST
280
0
  9
$SHOWHIST
280
1
  9
$DWFFRAME
280
2
  9
$DGNFRAME
280
2
  9
$REALWORLDSCALE
290
1
  9
$INTERFERECOLOR
 62
256
  9
$CSHADOW
280
0
  9
$SHADOWPLANELOCATION
 40
0.0
  0
ENDSEC
  0
SECTION
  2
CLASSES
  0
CLASS
  1
ACDBDICTIONARYWDFLT
  2
AcDbDictionaryWithDefault
  3
ObjectDBX Classes
 90
0
 91
0
280
0
281
0
  0
CLASS
  1
SUN
  2
AcDbSun
  3
SCENEOE
 90
1153
 91
0
280
0
281
0
  0
CLASS
  1
VISUALSTYLE
  2
AcDbVisualStyle
  3
ObjectDBX Classes
 90
4095
 91
0
280
0
281
0
  0
CLASS
  1
MATERIAL
  2
AcDbMaterial
  3
ObjectDBX Classes
 90
1153
 91
0
280
0
281
0
  0
CLASS
  1
SCALE
  2
AcDbScale
  3
ObjectDBX Classes
 90
1153
 91
0
280
0
281
0
  0
CLASS
  1
TABLESTYLE
  2
AcDbTableStyle
  3
ObjectDBX Classes
 90
4095
 91
0
280
0
281
0
  0
CLASS
  1
MLEADERSTYLE
  2
AcDbMLeaderStyle
  3
ACDB_MLEADERSTYLE_CLASS
 90
4095
 91
0
280
0
281
0
  0
CLASS
  1
DICTIONARYVAR
  2
AcDbDictionaryVar
  3
ObjectDBX Classes
 90
0
 91
0
280
0
281
0
  0
CLASS
  1
CELLSTYLEMAP
  2
AcDbCellStyleMap
  3
ObjectDBX Classes
 90
1152
 91
0
280
0
281
0
  0
CLASS
  1
MENTALRAYRENDERSETTINGS
  2
AcDbMentalRayRenderSettings
  3
SCENEOE
 90
1024
 91
0
280
0
281
0
  0
CLASS
  1
ACDBDETAILVIEWSTYLE
  2
AcDbDetailViewStyle
  3
ObjectDBX Classes
 90
1025
 91
0
280
0
281
0
  0
CLASS
  1
ACDBSECTIONVIEWSTYLE
  2
AcDbSectionViewStyle
  3
ObjectDBX Classes
 90
1025
 91
0
280
0
281
0
  0
CLASS
  1
RASTERVARIABLES
  2
AcDbRasterVariables
  3
ISM
 90
0
 91
0
280
0
281
0
  0
CLASS
  1
LAYOUT
  2
AcDbLayout
  3
ObjectDBX Classes
 90
0
 91
0
280
0
281
0
  0
CLASS
  1
ACDBPLACEHOLDER
  2
AcDbPlaceHolder
  3
ObjectDBX Classes
 90
0
 91
0
280
0
281
0
  0
ENDSEC
  0
SECTION
  2
TABLES
  0
TABLE
  2
VPORT
  5
8
330
0
100
AcDbSymbolTable
 70
1
  0
VPORT
  5
23
330
8
100
AcDbSymbolTableRecord
100
AcDbViewportTableRecord
  2
*Active
 70
0
 10
0.0
 20
0.0
 11
1.0
 21
1.0
 12
0.0
 22
0.0
 13
0.0
 23
0.0
 14
0.5
 24
0.5
 15
0.5
 25
0.5
 16
0.0
 26
0.0
 36
1.0
 17
0.0
 27
0.0
 37
0.0
 40
1000.0
 41
1.34
 42
50.0
 43
0.0
 44
0.0
 50
0.0
 51
0.0
 71
0
 72
1000
 73
1
 74
3
 75
0
 76
0
 77
0
 78
0
281
0
 65
0
146
0.0
  0
ENDTAB
  0
TABLE
  2
LTYPE
  5
2
330
0
100
AcDbSymbolTable
 70
3
  0
LTYPE
  5
24
330
2
100
AcDbSymbolTableRecord
100
AcDbLinetypeTableRecord
  2
ByBlock
 70
0
  3

 72
65
 73
0
 40
0.0
  0
LTYPE
  5
25
330
2
100
AcDbSymbolTableRecord
100
AcDbLinetypeTableRecord
  2
ByLayer
 70
0
  3

 72
65
 73
0
 40
0.0
  0
LTYPE
  5
26
330
2
100
AcDbSymbolTableRecord
100
AcDbLinetypeTableRecord
  2
Continuous
 70
0
  3

 72
65
 73
0
 40
0.0
  0
ENDTAB
  0
TABLE
  2
LAYER
  5
1
330
0
100
AcDbSymbolTable
 70
7
  0
LAYER
  5
27
330
1
100
AcDbSymbolTableRecord
100
AcDbLayerTableRecord
  2
0
 70
0
 62
7
  6
Continuous
370
-3
390
13
347
21
  0
LAYER
  5
28
330
1
100
AcDbSymbolTableRecord
100
AcDbLayerTableRecord
  2
Defpoints
 70
0
 62
7
  6
Continuous
290
0
370
-3
390
13
347
21
  0
LAYER
  5
2F
330
1
100
AcDbSymbolTableRecord
100
AcDbLayerTableRecord
  2
MIKRA
 70
0
 62
7
  6
Continuous
370
-3
390
13
347
21
  0
LAYER
  5
30
330
1
100
AcDbSymbolTableRecord
100
AcDbLayerTableRecord
  2
kir
 70
0
 62
7
  6
Continuous
370
-3
390
13
347
21
  0
LAYER
  5
31
330
1
100
AcDbSymbolTableRecord
100
AcDbLayerTableRecord
  2
8
 70
0
 62
7
  6
Continuous
370
-3
390
13
347
21
  0
LAYER
  5
32
330
1
100
AcDbSymbolTableRecord
100
AcDbLayerTableRecord
  2
BAR-GAL
 70
0
 62
7
  6
Continuous
370
-3
390
13
347
21
  0
LAYER
  5
33
330
1
100
AcDbSymbolTableRecord
100
AcDbLayerTableRecord
  2
VP
 70
0
 62
-30
  6
Continuous
370
-3
390
13
347
21
  0
ENDTAB
  0
TABLE
  2
STYLE
  5
5
330
0
100
AcDbSymbolTable
 70
1
  0
STYLE
  5
29
330
5
100
AcDbSymbolTableRecord
100
AcDbTextStyleTableRecord
  2
Standard
 70
0
 40
0.0
 41
1.0
 50
0.0
 71
0
 42
2.5
  3
txt
  4

  0
ENDTAB
  0
TABLE
  2
VIEW
  5
7
330
0
100
AcDbSymbolTable
 70
0
  0
ENDTAB
  0
TABLE
  2
UCS
  5
6
330
0
100
AcDbSymbolTable
 70
0
  0
ENDTAB
  0
TABLE
  2
APPID
  5
3
330
0
100
AcDbSymbolTable
 70
3
  0
APPID
  5
2A
330
3
100
AcDbSymbolTableRecord
100
AcDbRegAppTableRecord
  2
ACAD
 70
0
  0
APPID
  5
179
330
3
100
AcDbSymbolTableRecord
100
AcDbRegAppTableRecord
  2
HATCHBACKGROUNDCOLOR
 70
0
  0
APPID
  5
17A
330
3
100
AcDbSymbolTableRecord
100
AcDbRegAppTableRecord
  2
EZDXF
 70
0
  0
ENDTAB
  0
TABLE
  2
DIMSTYLE
  5
4
330
0
100
AcDbSymbolTable
 70
2
100
AcDbDimStyleTable
  0
DIMSTYLE
105
2B
330
4
100
AcDbSymbolTableRecord
100
AcDbDimStyleTableRecord
  2
Standard
 70
0
 40
1.0
 41
2.5
 42
0.625
 43
3.75
 44
1.25
 45
0.0
 46
0.0
 47
0.0
 48
0.0
 49
2.5
140
2.5
141
2.5
142
0.0
143
0.03937007874
144
1.0
145
0.0
146
1.0
147
0.625
148
0.0
 69
0
 70
0
 71
0
 72
0
 73
0
 74
0
 75
0
 76
0
 77
1
 78
8
 79
3
170
0
171
3
172
1
173
0
174
0
175
0
176
0
177
0
178
0
179
2
271
2
272
2
273
2
274
3
275
0
276
0
277
2
278
44
279
0
280
0
281
0
282
0
283
0
284
8
285
0
286
0
288
0
289
3
290
0
371
-2
372
-2
  0
DIMSTYLE
105
27
330
4
100
AcDbSymbolTableRecord
100
AcDbDimStyleTableRecord
  2
ISO-25
 70
0
 40
1.0
 41
30.0
 42
0.625
 43
3.75
 44
1.25
 45
0.0
 46
0.0
 47
0.0
 48
0.0
 49
2.5
140
30.0
141
2.5
142
0.0
143
0.03937007874016
144
1.0
145
0.0
146
1.0
147
10.0
148
0.0
 69
0
 70
0
 71
0
 72
0
 73
0
 74
0
 75
0
 76
0
 77
1
 78
8
 79
3
170
0
171
3
172
1
173
0
174
0
175
0
176
0
177
0
178
0
179
2
271
0
272
0
273
2
274
3
275
0
276
0
277
2
278
44
279
0
280
0
281
0
282
0
283
0
284
8
285
0
286
0
288
0
289
3
290
0
340
29
371
-2
372
-2
  0
ENDTAB
  0
TABLE
  2
BLOCK_RECORD
  5
9
330
0
100
AcDbSymbolTable
 70
22
  0
BLOCK_RECORD
  5
17
330
9
100
AcDbSymbolTableRecord
100
AcDbBlockTableRecord
  2
*Model_Space
340
1A
 70
0
280
1
281
0
  0
BLOCK_RECORD
  5
1B
330
9
100
AcDbSymbolTableRecord
100
AcDbBlockTableRecord
  2
*Paper_Space
340
1E
 70
0
280
1
281
0
  0
BLOCK_RECORD
  5
3A
330
9
100
AcDbSymbolTableRecord
100
AcDbBlockTableRecord
  2
*D1
340
0
 70
0
280
1
281
0
  0
BLOCK_RECORD
  5
47
330
9
100
AcDbSymbolTableRecord
100
AcDbBlockTableRecord
  2
*D2
340
0
 70
0
280
1
281
0
  0
BLOCK_RECORD
  5
56
330
9
100
AcDbSymbolTableRecord
100
AcDbBlockTableRecord
  2
*D3
340
0
 70
0
280
1
281
0
  0
BLOCK_RECORD
  5
63
330
9
100
AcDbSymbolTableRecord
100
AcDbBlockTableRecord
  2
*D4
340
0
 70
0
280
1
281
0
  0
BLOCK_RECORD
  5
70
330
9
100
AcDbSymbolTableRecord
100
AcDbBlockTableRecord
  2
*D5
340
0
 70
0
280
1
281
0
  0
BLOCK_RECORD
  5
7D
330
9
100
AcDbSymbolTableRecord
100
AcDbBlockTableRecord
  2
*D6
340
0
 70
0
280
1
281
0
  0
BLOCK_RECORD
  5
8B
330
9
100
AcDbSymbolTableRecord
100
AcDbBlockTableRecord
  2
*D7
340
0
 70
0
280
1
281
0
  0
BLOCK_RECORD
  5
99
330
9
100
AcDbSymbolTableRecord
100
AcDbBlockTableRecord
  2
*D8
340
0
 70
0
280
1
281
0
  0
BLOCK_RECORD
  5
A6
330
9
100
AcDbSymbolTableRecord
100
AcDbBlockTableRecord
  2
*D9
340
0
 70
0
280
1
281
0
  0
BLOCK_RECORD
  5
B3
330
9
100
AcDbSymbolTableRecord
100
AcDbBlockTableRecord
  2
*D10
340
0
 70
0
280
1
281
0
  0
BLOCK_RECORD
  5
C8
330
9
100
AcDbSymbolTableRecord
100
AcDbBlockTableRecord
  2
*D11
340
0
 70
0
280
1
281
0
  0
BLOCK_RECORD
  5
D6
330
9
100
AcDbSymbolTableRecord
100
AcDbBlockTableRecord
  2
*D12
340
0
 70
0
280
1
281
0
  0
BLOCK_RECORD
  5
105
330
9
100
AcDbSymbolTableRecord
100
AcDbBlockTableRecord
  2
*D13
340
0
 70
0
280
1
281
0
  0
BLOCK_RECORD
  5
112
330
9
100
AcDbSymbolTableRecord
100
AcDbBlockTableRecord
  2
*D14
340
0
 70
0
280
1
281
0
  0
BLOCK_RECORD
  5
124
330
9
100
AcDbSymbolTableRecord
100
AcDbBlockTableRecord
  2
*D15
340
0
 70
0
280
1
281
0
  0
BLOCK_RECORD
  5
132
330
9
100
AcDbSymbolTableRecord
100
AcDbBlockTableRecord
  2
*D16
340
0
 70
0
280
1
281
0
  0
BLOCK_RECORD
  5
140
330
9
100
AcDbSymbolTableRecord
100
AcDbBlockTableRecord
  2
*D17
340
0
 70
0
280
1
281
0
  0
BLOCK_RECORD
  5
14D
330
9
100
AcDbSymbolTableRecord
100
AcDbBlockTableRecord
  2
*D18
340
0
 70
0
280
1
281
0
  0
BLOCK_RECORD
  5
15B
330
9
100
AcDbSymbolTableRecord
100
AcDbBlockTableRecord
  2
*D19
340
0
 70
0
280
1
281
0
  0
BLOCK_RECORD
  5
169
330
9
100
AcDbSymbolTableRecord
100
AcDbBlockTableRecord
  2
*D20
340
0
 70
0
280
1
281
0
  0
ENDTAB
  0
ENDSEC
  0
SECTION
  2
BLOCKS
  0
BLOCK
  5
18
330
17
100
AcDbEntity
  8
0
100
AcDbBlockBegin
  2
*Model_Space
 70
0
 10
0.0
 20
0.0
 30
0.0
  3
*Model_Space
  1

  0
ENDBLK
  5
19
330
17
100
AcDbEntity
  8
0
100
AcDbBlockEnd
  0
BLOCK
  5
1C
330
1B
100
AcDbEntity
  8
0
100
AcDbBlockBegin
  2
*Paper_Space
 70
0
 10
0.0
 20
0.0
 30
0.0
  3
*Paper_Space
  1

  0
ENDBLK
  5
1D
330
1B
100
AcDbEntity
  8
0
100
AcDbBlockEnd
  0
BLOCK
  5
3B
330
3A
100
AcDbEntity
  8
0
100
AcDbBlockBegin
  2
*D1
 70
1
 10
0.0
 20
0.0
 30
0.0
  3
*D1
  1

  0
LINE
  5
3D
330
3A
100
AcDbEntity
  8
VP
 62
0
370
-2
440
16777216
100
AcDbLine
 10
1019276.165367038
 20
89292.13091872941
 30
0.0
 11
1019276.165367038
 21
89618.2919794289
 31
0.0
  0
LINE
  5
3E
330
3A
100
AcDbEntity
  8
VP
 62
0
370
-2
440
16777216
100
AcDbLine
 10
1020060.160511728
 20
89292.13091872941
 30
0.0
 11
1020060.160511728
 21
89618.2919794289
 31
0.0
  0
LINE
  5
3F
330
3A
100
AcDbEntity
  8
VP
 62
0
370
-2
440
16777216
100
AcDbLine
 10
1019306.165367038
 20
89617.0419794289
 30
0.0
 11
1020030.160511728
 21
89617.0419794289
 31
0.0
  0
SOLID
  5
40
330
3A
100
AcDbEntity
  8
VP
 62
0
370
13
440
16777216
100
AcDbTrace
 10
1019306.165367038
 20
89622.0419794289
 30
0.0
 11
1019306.165367038
 21
89612.0419794289
 31
0.0
 12
1019276.165367038
 22
89617.0419794289
 32
0.0
 13
1019276.165367038
 23
89617.0419794289
 33
0.0
  0
SOLID
  5
41
330
3A
100
AcDbEntity
  8
VP
 62
0
370
13
440
16777216
100
AcDbTrace
 10
1020030.160511728
 20
89622.0419794289
 30
0.0
 11
1020030.160511728
 21
89612.0419794289
 31
0.0
 12
1020060.160511728
 22
89617.0419794289
 32
0.0
 13
1020060.160511728
 23
89617.0419794289
 33
0.0
  0
MTEXT
  5
42
330
3A
100
AcDbEntity
  8
VP
 62
0
370
13
440
16777216
100
AcDbMText
 10
1019668.162939383
 20
89642.35916906055
 30
0.0
 40
30.0
 41
0.0
 46
0.0
 71
5
  1
784
  0
POINT
  5
43
330
3A
100
AcDbEntity
  8
Defpoints
 62
0
370
13
440
16777216
100
AcDbPoint
 10
1019276.165367038
 20
89291.50591872941
 30
0.0
  0
POINT
  5
44
330
3A
100
AcDbEntity
  8
Defpoints
 62
0
370
13
440
16777216
100
AcDbPoint
 10
1020060.160511728
 20
89291.50591872941
 30
0.0
  0
POINT
  5
45
330
3A
100
AcDbEntity
  8
Defpoints
 62
0
370
13
440
16777216
100
AcDbPoint
 10
1020060.160511728
 20
89617.0419794289
 30
0.0
  0
ENDBLK
  5
3C
330
3A
100
AcDbEntity
  8
0
100
AcDbBlockEnd
  0
BLOCK
  5
48
330
47
100
AcDbEntity
  8
0
100
AcDbBlockBegin
  2
*D2
 70
1
 10
0.0
 20
0.0
 30
0.0
  3
*D2
  1

  0
LINE
  5
4A
330
47
100
AcDbEntity
  8
VP
 62
0
370
-2
440
16777216
100
AcDbLine
 10
1019276.165367038
 20
89292.13091872941
 30
0.0
 11
1019276.165367038
 21
89618.2919794289
 31
0.0
  0
LINE
  5
4B
330
47
100
AcDbEntity
  8
VP
 62
0
370
-2
440
16777216
100
AcDbLine
 10
1018503.175810789
 20
89132.1130155168
 30
0.0
 11
1018503.175810789
 21
89618.2919794289
 31
0.0
  0
LINE
  5
4C
330
47
100
AcDbEntity
  8
VP
 62
0
370
-2
440
16777216
100
AcDbLine
 10
1019246.165367038
 20
89617.0419794289
 30
0.0
 11
1018533.175810789
 21
89617.0419794289
 31
0.0
  0
SOLID
  5
4D
330
47
100
AcDbEntity
  8
VP
 62
0
370
13
440
16777216
100
AcDbTrace
 10
1019246.165367038
 20
89622.0419794289
 30
0.0
 11
1019246.165367038
 21
89612.0419794289
 31
0.0
 12
1019276.165367038
 22
89617.0419794289
 32
0.0
 13
1019276.165367038
 23
89617.0419794289
 33
0.0
  0
SOLID
  5
4E
330
47
100
AcDbEntity
  8
VP
 62
0
370
13
440
16777216
100
AcDbTrace
 10
1018533.175810789
 20
89622.0419794289
 30
0.0
 11
1018533.175810789
 21
89612.0419794289
 31
0.0
 12
1018503.175810789
 22
89617.0419794289
 32
0.0
 13
1018503.175810789
 23
89617.0419794289
 33
0.0
  0
MTEXT
  5
4F
330
47
100
AcDbEntity
  8
VP
 62
0
370
13
440
16777216
100
AcDbMText
 10
1018889.670588913
 20
89642.36940098416
 30
0.0
 40
30.0
 41
0.0
 46
0.0
 71
5
  1
773
  0
POINT
  5
50
330
47
100
AcDbEntity
  8
Defpoints
 62
0
370
13
440
16777216
100
AcDbPoint
 10
1019276.165367038
 20
89291.50591872941
 30
0.0
  0
POINT
  5
51
330
47
100
AcDbEntity
  8
Defpoints
 62
0
370
13
440
16777216
100
AcDbPoint
 10
1018503.175810789
 20
89131.48801551679
 30
0.0
  0
POINT
  5
52
330
47
100
AcDbEntity
  8
Defpoints
 62
0
370
13
440
16777216
100
AcDbPoint
 10
1018503.175810789
 20
89617.0419794289
 30
0.0
  0
ENDBLK
  5
49
330
47
100
AcDbEntity
  8
0
100
AcDbBlockEnd
  0
BLOCK
  5
57
330
56
100
AcDbEntity
  8
0
100
AcDbBlockBegin
  2
*D3
 70
1
 10
0.0
 20
0.0
 30
0.0
  3
*D3
  1

  0
LINE
  5
59
330
56
100
AcDbEntity
  8
VP
 62
0
370
-2
440
16777216
100
AcDbLine
 10
1018810.540367038
 20
89431.48801551682
 30
0.0
 11
1018737.960896948
 21
89431.48801551682
 31
0.0
  0
LINE
  5
5A
330
56
100
AcDbEntity
  8
VP
 62
0
370
-2
440
16777216
100
AcDbLine
 10
1018810.540367038
 20
89131.48801551684
 30
0.0
 11
1018737.960896948
 21
89131.48801551684
 31
0.0
  0
LINE
  5
5B
330
56
100
AcDbEntity
  8
VP
 62
0
370
-2
440
16777216
100
AcDbLine
 10
1018739.210896948
 20
89401.48801551682
 30
0.0
 11
1018739.210896948
 21
89161.4880155168
 31
0.0
  0
SOLID
  5
5C
330
56
100
AcDbEntity
  8
VP
 62
0
370
13
440
16777216
100
AcDbTrace
 10
1018734.210896948
 20
89401.48801551682
 30
0.0
 11
1018744.210896948
 21
89401.48801551682
 31
0.0
 12
1018739.210896948
 22
89431.48801551682
 32
0.0
 13
1018739.210896948
 23
89431.48801551682
 33
0.0
  0
SOLID
  5
5D
330
56
100
AcDbEntity
  8
VP
 62
0
370
13
440
16777216
100
AcDbTrace
 10
1018734.210896948
 20
89161.4880155168
 30
0.0
 11
1018744.210896948
 21
89161.4880155168
 31
0.0
 12
1018739.210896948
 22
89131.48801551684
 32
0.0
 13
1018739.210896948
 23
89131.48801551684
 33
0.0
  0
MTEXT
  5
5E
330
56
100
AcDbEntity
  8
VP
 62
0
370
13
440
16777216
100
AcDbMText
 10
1018713.883475392
 20
89281.48801551652
 30
0.0
 40
30.0
 41
0.0
 46
0.0
 71
5
  1
300
 11
1e-16
 21
1.0
 31
0.0
  0
POINT
  5
5F
330
56
100
AcDbEntity
  8
Defpoints
 62
0
370
13
440
16777216
100
AcDbPoint
 10
1018811.165367038
 20
89431.48801551682
 30
0.0
  0
POINT
  5
60
330
56
100
AcDbEntity
  8
Defpoints
 62
0
370
13
440
16777216
100
AcDbPoint
 10
1018811.165367038
 20
89131.48801551684
 30
0.0
  0
POINT
  5
61
330
56
100
AcDbEntity
  8
Defpoints
 62
0
370
13
440
16777216
100
AcDbPoint
 10
1018739.210896948
 20
89131.48801551684
 30
0.0
  0
ENDBLK
  5
58
330
56
100
AcDbEntity
  8
0
100
AcDbBlockEnd
  0
BLOCK
  5
64
330
63
100
AcDbEntity
  8
0
100
AcDbBlockBegin
  2
*D4
 70
1
 10
0.0
 20
0.0
 30
0.0
  3
*D4
  1

  0
LINE
  5
66
330
63
100
AcDbEntity
  8
VP
 62
0
370
-2
440
16777216
100
AcDbLine
 10
1018503.55081079
 20
89131.48801551684
 30
0.0
 11
1018354.821312284
 21
89131.48801551684
 31
0.0
  0
LINE
  5
67
330
63
100
AcDbEntity
  8
VP
 62
0
370
-2
440
16777216
100
AcDbLine
 10
1018503.55081079
 20
89291.50591872942
 30
0.0
 11
1018354.821312284
 21
89291.50591872942
 31
0.0
  0
LINE
  5
68
330
63
100
AcDbEntity
  8
VP
 62
0
370
-2
440
16777216
100
AcDbLine
 10
1018356.071312284
 20
89161.4880155168
 30
0.0
 11
1018356.071312284
 21
89261.50591872945
 31
0.0
  0
SOLID
  5
69
330
63
100
AcDbEntity
  8
VP
 62
0
370
13
440
16777216
100
AcDbTrace
 10
1018351.071312284
 20
89161.4880155168
 30
0.0
 11
1018361.071312284
 21
89161.4880155168
 31
0.0
 12
1018356.071312284
 22
89131.48801551684
 32
0.0
 13
1018356.071312284
 23
89131.48801551684
 33
0.0
  0
SOLID
  5
6A
330
63
100
AcDbEntity
  8
VP
 62
0
370
13
440
16777216
100
AcDbTrace
 10
1018351.071312284
 20
89261.50591872945
 30
0.0
 11
1018361.071312284
 21
89261.50591872945
 31
0.0
 12
1018356.071312284
 22
89291.50591872942
 32
0.0
 13
1018356.071312284
 23
89291.50591872942
 33
0.0
  0
MTEXT
  5
6B
330
63
100
AcDbEntity
  8
VP
 62
0
370
13
440
16777216
100
AcDbMText
 10
1018330.754122652
 20
89211.49696712285
 30
0.0
 40
30.0
 41
0.0
 46
0.0
 71
5
  1
160
 11
1e-16
 21
1.0
 31
0.0
  0
POINT
  5
6C
330
63
100
AcDbEntity
  8
Defpoints
 62
0
370
13
440
16777216
100
AcDbPoint
 10
1018504.17581079
 20
89131.48801551684
 30
0.0
  0
POINT
  5
6D
330
63
100
AcDbEntity
  8
Defpoints
 62
0
370
13
440
16777216
100
AcDbPoint
 10
1018504.17581079
 20
89291.50591872942
 30
0.0
  0
POINT
  5
6E
330
63
100
AcDbEntity
  8
Defpoints
 62
0
370
13
440
16777216
100
AcDbPoint
 10
1018356.071312284
 20
89291.50591872942
 30
0.0
  0
ENDBLK
  5
65
330
63
100
AcDbEntity
  8
0
100
AcDbBlockEnd
  0
BLOCK
  5
71
330
70
100
AcDbEntity
  8
0
100
AcDbBlockBegin
  2
*D5
 70
1
 10
0.0
 20
0.0
 30
0.0
  3
*D5
  1

  0
LINE
  5
73
330
70
100
AcDbEntity
  8
VP
 62
0
370
-2
440
16777216
100
AcDbLine
 10
1018502.55081079
 20
89131.48801551684
 30
0.0
 11
1018354.366448028
 21
89131.48801551684
 31
0.0
  0
LINE
  5
74
330
70
100
AcDbEntity
  8
VP
 62
0
370
-2
440
16777216
100
AcDbLine
 10
1018502.55081079
 20
88197.20804282994
 30
0.0
 11
1018354.366448028
 21
88197.20804282994
 31
0.0
  0
LINE
  5
75
330
70
100
AcDbEntity
  8
VP
 62
0
370
-2
440
16777216
100
AcDbLine
 10
1018355.616448028
 20
89101.48801551684
 30
0.0
 11
1018355.616448028
 21
88227.20804282994
 31
0.0
  0
SOLID
  5
76
330
70
100
AcDbEntity
  8
VP
 62
0
370
13
440
16777216
100
AcDbTrace
 10
1018350.616448028
 20
89101.48801551684
 30
0.0
 11
1018360.616448028
 21
89101.48801551684
 31
0.0
 12
1018355.616448028
 22
89131.48801551684
 32
0.0
 13
1018355.616448028
 23
89131.48801551684
 33
0.0
  0
SOLID
  5
77
330
70
100
AcDbEntity
  8
VP
 62
0
370
13
440
16777216
100
AcDbTrace
 10
1018350.616448028
 20
88227.20804282994
 30
0.0
 11
1018360.616448028
 21
88227.20804282994
 31
0.0
 12
1018355.616448028
 22
88197.20804282994
 32
0.0
 13
1018355.616448028
 23
88197.20804282994
 33
0.0
  0
MTEXT
  5
78
330
70
100
AcDbEntity
  8
VP
 62
0
370
13
440
16777216
100
AcDbMText
 10
1018330.289026472
 20
88664.34802917307
 30
0.0
 40
30.0
 41
0.0
 46
0.0
 71
5
  1
934
 11
1e-16
 21
1.0
 31
0.0
  0
POINT
  5
79
330
70
100
AcDbEntity
  8
Defpoints
 62
0
370
13
440
16777216
100
AcDbPoint
 10
1018503.17581079
 20
89131.48801551684
 30
0.0
  0
POINT
  5
7A
330
70
100
AcDbEntity
  8
Defpoints
 62
0
370
13
440
16777216
100
AcDbPoint
 10
1018503.17581079
 20
88197.20804282994
 30
0.0
  0
POINT
  5
7B
330
70
100
AcDbEntity
  8
Defpoints
 62
0
370
13
440
16777216
100
AcDbPoint
 10
1018355.616448028
 20
88197.20804282994
 30
0.0
  0
ENDBLK
  5
72
330
70
100
AcDbEntity
  8
0
100
AcDbBlockEnd
  0
BLOCK
  5
7E
330
7D
100
AcDbEntity
  8
0
100
AcDbBlockBegin
  2
*D6
 70
1
 10
0.0
 20
0.0
 30
0.0
  3
*D6
  1

  0
LINE
  5
80
330
7D
100
AcDbEntity
  8
VP
 62
0
370
-2
440
16777216
100
AcDbLine
 10
1018990.430095777
 20
88197.20804282994
 30
0.0
 11
1018354.366448029
 21
88197.20804282994
 31
0.0
  0
LINE
  5
81
330
7D
100
AcDbEntity
  8
VP
 62
0
370
-2
440
16777216
100
AcDbLine
 10
1018504.449185275
 20
87557.14023989932
 30
0.0
 11
1018354.366448029
 21
87557.14023989932
 31
0.0
  0
LINE
  5
82
330
7D
100
AcDbEntity
  8
VP
 62
0
370
-2
440
16777216
100
AcDbLine
 10
1018355.616448029
 20
88167.20804282994
 30
0.0
 11
1018355.616448029
 21
87587.14023989932
 31
0.0
  0
SOLID
  5
83
330
7D
100
AcDbEntity
  8
VP
 62
0
370
13
440
16777216
100
AcDbTrace
 10
1018350.616448029
 20
88167.20804282994
 30
0.0
 11
1018360.616448029
 21
88167.20804282994
 31
0.0
 12
1018355.616448029
 22
88197.20804282994
 32
0.0
 13
1018355.616448029
 23
88197.20804282994
 33
0.0
  0
SOLID
  5
84
330
7D
100
AcDbEntity
  8
VP
 62
0
370
13
440
16777216
100
AcDbTrace
 10
1018350.616448029
 20
87587.14023989932
 30
0.0
 11
1018360.616448029
 21
87587.14023989932
 31
0.0
 12
1018355.616448029
 22
87557.14023989932
 32
0.0
 13
1018355.616448029
 23
87557.14023989932
 33
0.0
  0
MTEXT
  5
85
330
7D
100
AcDbEntity
  8
VP
 62
0
370
13
440
16777216
100
AcDbMText
 10
1018330.299258397
 20
87877.17414136432
 30
0.0
 40
30.0
 41
0.0
 46
0.0
 71
5
  1
640
 11
1e-16
 21
1.0
 31
0.0
  0
POINT
  5
86
330
7D
100
AcDbEntity
  8
Defpoints
 62
0
370
13
440
16777216
100
AcDbPoint
 10
1018991.055095777
 20
88197.20804282994
 30
0.0
  0
POINT
  5
87
330
7D
100
AcDbEntity
  8
Defpoints
 62
0
370
13
440
16777216
100
AcDbPoint
 10
1018505.074185275
 20
87557.14023989932
 30
0.0
  0
POINT
  5
88
330
7D
100
AcDbEntity
  8
Defpoints
 62
0
370
13
440
16777216
100
AcDbPoint
 10
1018355.616448029
 20
87557.14023989932
 30
0.0
  0
ENDBLK
  5
7F
330
7D
100
AcDbEntity
  8
0
100
AcDbBlockEnd
  0
BLOCK
  5
8C
330
8B
100
AcDbEntity
  8
0
100
AcDbBlockBegin
  2
*D7
 70
1
 10
0.0
 20
0.0
 30
0.0
  3
*D7
  1

  0
LINE
  5
8E
330
8B
100
AcDbEntity
  8
VP
 62
0
370
-2
440
16777216
100
AcDbLine
 10
1018991.055095777
 20
87556.5152398993
 30
0.0
 11
1018991.055095777
 21
87502.39907677412
 31
0.0
  0
LINE
  5
8F
330
8B
100
AcDbEntity
  8
VP
 62
0
370
-2
440
16777216
100
AcDbLine
 10
1019331.198389139
 20
87556.45591922951
 30
0.0
 11
1019331.198389139
 21
87502.39907677412
 31
0.0
  0
LINE
  5
90
330
8B
100
AcDbEntity
  8
VP
 62
0
370
-2
440
16777216
100
AcDbLine
 10
1019021.055095777
 20
87503.6490767741
 30
0.0
 11
1019301.198389139
 21
87503.6490767741
 31
0.0
  0
SOLID
  5
91
330
8B
100
AcDbEntity
  8
VP
 62
0
370
13
440
16777216
100
AcDbTrace
 10
1019021.055095777
 20
87508.64907677412
 30
0.0
 11
1019021.055095777
 21
87498.64907677412
 31
0.0
 12
1018991.055095777
 22
87503.6490767741
 32
0.0
 13
1018991.055095777
 23
87503.6490767741
 33
0.0
  0
SOLID
  5
92
330
8B
100
AcDbEntity
  8
VP
 62
0
370
13
440
16777216
100
AcDbTrace
 10
1019301.198389139
 20
87508.64907677412
 30
0.0
 11
1019301.198389139
 21
87498.64907677412
 31
0.0
 12
1019331.198389139
 22
87503.6490767741
 32
0.0
 13
1019331.198389139
 23
87503.6490767741
 33
0.0
  0
MTEXT
  5
93
330
8B
100
AcDbEntity
  8
VP
 62
0
370
13
440
16777216
100
AcDbMText
 10
1019161.126742458
 20
87528.97649832936
 30
0.0
 40
30.0
 41
0.0
 46
0.0
 71
5
  1
340
  0
POINT
  5
94
330
8B
100
AcDbEntity
  8
Defpoints
 62
0
370
13
440
16777216
100
AcDbPoint
 10
1018991.055095777
 20
87557.1402398993
 30
0.0
  0
POINT
  5
95
330
8B
100
AcDbEntity
  8
Defpoints
 62
0
370
13
440
16777216
100
AcDbPoint
 10
1019331.198389139
 20
87557.08091922953
 30
0.0
  0
POINT
  5
96
330
8B
100
AcDbEntity
  8
Defpoints
 62
0
370
13
440
16777216
100
AcDbPoint
 10
1019331.198389139
 20
87503.6490767741
 30
0.0
  0
ENDBLK
  5
8D
330
8B
100
AcDbEntity
  8
0
100
AcDbBlockEnd
  0
BLOCK
  5
9A
330
99
100
AcDbEntity
  8
0
100
AcDbBlockBegin
  2
*D8
 70
1
 10
0.0
 20
0.0
 30
0.0
  3
*D8
  1

  0
LINE
  5
9C
330
99
100
AcDbEntity
  8
VP
 62
0
370
-2
440
16777216
100
AcDbLine
 10
1018503.198389139
 20
88196.5152398993
 30
0.0
 11
1018503.198389139
 21
88130.91054571302
 31
0.0
  0
LINE
  5
9D
330
99
100
AcDbEntity
  8
VP
 62
0
370
-2
440
16777216
100
AcDbLine
 10
1018991.055095777
 20
88196.58304282992
 30
0.0
 11
1018991.055095777
 21
88130.91054571302
 31
0.0
  0
LINE
  5
9E
330
99
100
AcDbEntity
  8
VP
 62
0
370
-2
440
16777216
100
AcDbLine
 10
1018533.198389139
 20
88132.16054571302
 30
0.0
 11
1018961.055095777
 21
88132.16054571302
 31
0.0
  0
SOLID
  5
9F
330
99
100
AcDbEntity
  8
VP
 62
0
370
13
440
16777216
100
AcDbTrace
 10
1018533.198389139
 20
88137.16054571304
 30
0.0
 11
1018533.198389139
 21
88127.16054571302
 31
0.0
 12
1018503.198389139
 22
88132.16054571302
 32
0.0
 13
1018503.198389139
 23
88132.16054571302
 33
0.0
  0
SOLID
  5
A0
330
99
100
AcDbEntity
  8
VP
 62
0
370
13
440
16777216
100
AcDbTrace
 10
1018961.055095777
 20
88137.16054571304
 30
0.0
 11
1018961.055095777
 21
88127.16054571302
 31
0.0
 12
1018991.055095777
 22
88132.16054571302
 32
0.0
 13
1018991.055095777
 23
88132.16054571302
 33
0.0
  0
MTEXT
  5
A1
330
99
100
AcDbEntity
  8
VP
 62
0
370
13
440
16777216
100
AcDbMText
 10
1018747.126742458
 20
88157.47773534466
 30
0.0
 40
30.0
 41
0.0
 46
0.0
 71
5
  1
488
  0
POINT
  5
A2
330
99
100
AcDbEntity
  8
Defpoints
 62
0
370
13
440
16777216
100
AcDbPoint
 10
1018503.198389139
 20
88197.1402398993
 30
0.0
  0
POINT
  5
A3
330
99
100
AcDbEntity
  8
Defpoints
 62
0
370
13
440
16777216
100
AcDbPoint
 10
1018991.055095777
 20
88197.2080428299
 30
0.0
  0
POINT
  5
A4
330
99
100
AcDbEntity
  8
Defpoints
 62
0
370
13
440
16777216
100
AcDbPoint
 10
1018991.055095777
 20
88132.16054571302
 30
0.0
  0
ENDBLK
  5
9B
330
99
100
AcDbEntity
  8
0
100
AcDbBlockEnd
  0
BLOCK
  5
A7
330
A6
100
AcDbEntity
  8
0
100
AcDbBlockBegin
  2
*D9
 70
1
 10
0.0
 20
0.0
 30
0.0
  3
*D9
  1

  0
LINE
  5
A9
330
A6
100
AcDbEntity
  8
VP
 62
0
370
-2
440
16777216
100
AcDbLine
 10
1018503.55081079
 20
89291.50591872942
 30
0.0
 11
1018170.144958968
 21
89291.50591872942
 31
0.0
  0
LINE
  5
AA
330
A6
100
AcDbEntity
  8
VP
 62
0
370
-2
440
16777216
100
AcDbLine
 10
1018528.373177485
 20
86492.69435591192
 30
0.0
 11
1018170.144958968
 21
86492.69435591192
 31
0.0
  0
LINE
  5
AB
330
A6
100
AcDbEntity
  8
VP
 62
0
370
-2
440
16777216
100
AcDbLine
 10
1018171.394958968
 20
89261.50591872945
 30
0.0
 11
1018171.394958968
 21
86522.69435591191
 31
0.0
  0
SOLID
  5
AC
330
A6
100
AcDbEntity
  8
VP
 62
0
370
13
440
16777216
100
AcDbTrace
 10
1018166.394958968
 20
89261.50591872945
 30
0.0
 11
1018176.394958968
 21
89261.50591872945
 31
0.0
 12
1018171.394958968
 22
89291.50591872942
 32
0.0
 13
1018171.394958968
 23
89291.50591872942
 33
0.0
  0
SOLID
  5
AD
330
A6
100
AcDbEntity
  8
VP
 62
0
370
13
440
16777216
100
AcDbTrace
 10
1018166.394958968
 20
86522.69435591191
 30
0.0
 11
1018176.394958968
 21
86522.69435591191
 31
0.0
 12
1018171.394958968
 22
86492.69435591192
 32
0.0
 13
1018171.394958968
 23
86492.69435591192
 33
0.0
  0
MTEXT
  5
AE
330
A6
100
AcDbEntity
  8
VP
 62
0
370
13
440
16777216
100
AcDbMText
 10
1018146.077769336
 20
87892.10013732038
 30
0.0
 40
30.0
 41
0.0
 46
0.0
 71
5
  1
2799
 11
1e-16
 21
1.0
 31
0.0
  0
POINT
  5
AF
330
A6
100
AcDbEntity
  8
Defpoints
 62
0
370
13
440
16777216
100
AcDbPoint
 10
1018504.17581079
 20
89291.50591872942
 30
0.0
  0
POINT
  5
B0
330
A6
100
AcDbEntity
  8
Defpoints
 62
0
370
13
440
16777216
100
AcDbPoint
 10
1018528.998177485
 20
86492.69435591192
 30
0.0
  0
POINT
  5
B1
330
A6
100
AcDbEntity
  8
Defpoints
 62
0
370
13
440
16777216
100
AcDbPoint
 10
1018171.394958968
 20
86492.69435591192
 30
0.0
  0
ENDBLK
  5
A8
330
A6
100
AcDbEntity
  8
0
100
AcDbBlockEnd
  0
BLOCK
  5
B4
330
B3
100
AcDbEntity
  8
0
100
AcDbBlockBegin
  2
*D10
 70
1
 10
0.0
 20
0.0
 30
0.0
  3
*D10
  1

  0
LINE
  5
B6
330
B3
100
AcDbEntity
  8
VP
 62
0
370
-2
440
16777216
100
AcDbLine
 10
1020060.785511728
 20
88877.92517645664
 30
0.0
 11
1020930.711031596
 21
88877.92517645664
 31
0.0
  0
LINE
  5
B7
330
B3
100
AcDbEntity
  8
VP
 62
0
370
-2
440
16777216
100
AcDbLine
 10
1020060.80081079
 20
89291.48801551684
 30
0.0
 11
1020930.711031596
 21
89291.48801551684
 31
0.0
  0
LINE
  5
B8
330
B3
100
AcDbEntity
  8
VP
 62
0
370
-2
440
16777216
100
AcDbLine
 10
1020929.461031596
 20
88907.92517645664
 30
0.0
 11
1020929.461031596
 21
89261.48801551684
 31
0.0
  0
SOLID
  5
B9
330
B3
100
AcDbEntity
  8
VP
 62
0
370
13
440
16777216
100
AcDbTrace
 10
1020924.461031596
 20
88907.92517645664
 30
0.0
 11
1020934.461031596
 21
88907.92517645664
 31
0.0
 12
1020929.461031596
 22
88877.92517645664
 32
0.0
 13
1020929.461031596
 23
88877.92517645664
 33
0.0
  0
SOLID
  5
BA
330
B3
100
AcDbEntity
  8
VP
 62
0
370
13
440
16777216
100
AcDbTrace
 10
1020924.461031596
 20
89261.48801551684
 30
0.0
 11
1020934.461031596
 21
89261.48801551684
 31
0.0
 12
1020929.461031596
 22
89291.48801551684
 32
0.0
 13
1020929.461031596
 23
89291.48801551684
 33
0.0
  0
MTEXT
  5
BB
330
B3
100
AcDbEntity
  8
VP
 62
0
370
13
440
16777216
100
AcDbMText
 10
1020904.399640054
 20
89084.70659598643
 30
0.0
 40
30.0
 41
0.0
 46
0.0
 71
5
  1
414
 11
1e-16
 21
1.0
 31
0.0
  0
POINT
  5
BC
330
B3
100
AcDbEntity
  8
Defpoints
 62
0
370
13
440
16777216
100
AcDbPoint
 10
1020060.160511728
 20
88877.92517645664
 30
0.0
  0
POINT
  5
BD
330
B3
100
AcDbEntity
  8
Defpoints
 62
0
370
13
440
16777216
100
AcDbPoint
 10
1020060.17581079
 20
89291.48801551684
 30
0.0
  0
POINT
  5
BE
330
B3
100
AcDbEntity
  8
Defpoints
 62
0
370
13
440
16777216
100
AcDbPoint
 10
1020929.461031596
 20
89291.48801551684
 30
0.0
  0
ENDBLK
  5
B5
330
B3
100
AcDbEntity
  8
0
100
AcDbBlockEnd
  0
BLOCK
  5
C9
330
C8
100
AcDbEntity
  8
0
100
AcDbBlockBegin
  2
*D11
 70
1
 10
0.0
 20
0.0
 30
0.0
  3
*D11
  1

  0
LINE
  5
CB
330
C8
100
AcDbEntity
  8
VP
 62
0
370
-2
440
16777216
100
AcDbLine
 10
1019453.115823988
 20
88480.00043970894
 30
0.0
 11
1019453.115823988
 21
88425.40030534935
 31
0.0
  0
LINE
  5
CC
330
C8
100
AcDbEntity
  8
VP
 62
0
370
-2
440
16777216
100
AcDbLine
 10
1019833.048650176
 20
88479.36418309581
 30
0.0
 11
1019833.048650176
 21
88425.40030534935
 31
0.0
  0
LINE
  5
CD
330
C8
100
AcDbEntity
  8
VP
 62
0
370
-2
440
16777216
100
AcDbLine
 10
1019483.115823988
 20
88426.65030534934
 30
0.0
 11
1019803.048650177
 21
88426.65030534934
 31
0.0
  0
SOLID
  5
CE
330
C8
100
AcDbEntity
  8
VP
 62
0
370
13
440
16777216
100
AcDbTrace
 10
1019483.115823988
 20
88431.65030534935
 30
0.0
 11
1019483.115823988
 21
88421.65030534935
 31
0.0
 12
1019453.115823988
 22
88426.65030534934
 32
0.0
 13
1019453.115823988
 23
88426.65030534934
 33
0.0
  0
SOLID
  5
CF
330
C8
100
AcDbEntity
  8
VP
 62
0
370
13
440
16777216
100
AcDbTrace
 10
1019803.048650177
 20
88431.65030534935
 30
0.0
 11
1019803.048650177
 21
88421.65030534935
 31
0.0
 12
1019833.048650176
 22
88426.65030534934
 32
0.0
 13
1019833.048650176
 23
88426.65030534934
 33
0.0
  0
MTEXT
  5
D0
330
C8
100
AcDbEntity
  8
VP
 62
0
370
13
440
16777216
100
AcDbMText
 10
1019643.082237082
 20
88451.97772690459
 30
0.0
 40
30.0
 41
0.0
 46
0.0
 71
5
  1
380
  0
POINT
  5
D1
330
C8
100
AcDbEntity
  8
Defpoints
 62
0
370
13
440
16777216
100
AcDbPoint
 10
1019453.115823988
 20
88480.6254397089
 30
0.0
  0
POINT
  5
D2
330
C8
100
AcDbEntity
  8
Defpoints
 62
0
370
13
440
16777216
100
AcDbPoint
 10
1019833.048650176
 20
88479.98918309581
 30
0.0
  0
POINT
  5
D3
330
C8
100
AcDbEntity
  8
Defpoints
 62
0
370
13
440
16777216
100
AcDbPoint
 10
1019833.048650176
 20
88426.65030534934
 30
0.0
  0
ENDBLK
  5
CA
330
C8
100
AcDbEntity
  8
0
100
AcDbBlockEnd
  0
BLOCK
  5
D7
330
D6
100
AcDbEntity
  8
0
100
AcDbBlockBegin
  2
*D12
 70
1
 10
0.0
 20
0.0
 30
0.0
  3
*D12
  1

  0
LINE
  5
D9
330
D6
100
AcDbEntity
  8
VP
 62
0
370
-2
440
16777216
100
AcDbLine
 10
1019836.454249148
 20
88472.6971293343
 30
0.0
 11
1019805.264996305
 21
88472.6971293343
 31
0.0
  0
LINE
  5
DA
330
D6
100
AcDbEntity
  8
VP
 62
0
370
-2
440
16777216
100
AcDbLine
 10
1019833.270472769
 20
88657.36508109508
 30
0.0
 11
1019805.264996305
 21
88657.36508109508
 31
0.0
  0
LINE
  5
DB
330
D6
100
AcDbEntity
  8
VP
 62
0
370
-2
440
16777216
100
AcDbLine
 10
1019806.514996305
 20
88502.6971293343
 30
0.0
 11
1019806.514996305
 21
88627.36508109508
 31
0.0
  0
SOLID
  5
DC
330
D6
100
AcDbEntity
  8
VP
 62
0
370
13
440
16777216
100
AcDbTrace
 10
1019801.514996305
 20
88502.6971293343
 30
0.0
 11
1019811.514996305
 21
88502.6971293343
 31
0.0
 12
1019806.514996305
 22
88472.6971293343
 32
0.0
 13
1019806.514996305
 23
88472.6971293343
 33
0.0
  0
SOLID
  5
DD
330
D6
100
AcDbEntity
  8
VP
 62
0
370
13
440
16777216
100
AcDbTrace
 10
1019801.514996305
 20
88627.36508109508
 30
0.0
 11
1019811.514996305
 21
88627.36508109508
 31
0.0
 12
1019806.514996305
 22
88657.36508109508
 32
0.0
 13
1019806.514996305
 23
88657.36508109508
 33
0.0
  0
MTEXT
  5
DE
330
D6
100
AcDbEntity
  8
VP
 62
0
370
13
440
16777216
100
AcDbMText
 10
1019781.197806673
 20
88565.0311052144
 30
0.0
 40
30.0
 41
0.0
 46
0.0
 71
5
  1
185
 11
1e-16
 21
1.0
 31
0.0
  0
POINT
  5
DF
330
D6
100
AcDbEntity
  8
Defpoints
 62
0
370
13
440
16777216
100
AcDbPoint
 10
1019837.079249148
 20
88472.6971293343
 30
0.0
  0
POINT
  5
E0
330
D6
100
AcDbEntity
  8
Defpoints
 62
0
370
13
440
16777216
100
AcDbPoint
 10
1019833.89547277
 20
88657.36508109508
 30
0.0
  0
POINT
  5
E1
330
D6
100
AcDbEntity
  8
Defpoints
 62
0
370
13
440
16777216
100
AcDbPoint
 10
1019806.514996305
 20
88657.36508109508
 30
0.0
  0
ENDBLK
  5
D8
330
D6
100
AcDbEntity
  8
0
100
AcDbBlockEnd
  0
BLOCK
  5
106
330
105
100
AcDbEntity
  8
0
100
AcDbBlockBegin
  2
*D13
 70
1
 10
0.0
 20
0.0
 30
0.0
  3
*D13
  1

  0
LINE
  5
108
330
105
100
AcDbEntity
  8
VP
 62
0
370
-2
440
16777216
100
AcDbLine
 10
1019733.769932158
 20
87873.10709665027
 30
0.0
 11
1019788.51912989
 21
87873.10709665027
 31
0.0
  0
LINE
  5
109
330
105
100
AcDbEntity
  8
VP
 62
0
370
-2
440
16777216
100
AcDbLine
 10
1019733.769932158
 20
88263.09372555069
 30
0.0
 11
1019788.51912989
 21
88263.09372555069
 31
0.0
  0
LINE
  5
10A
330
105
100
AcDbEntity
  8
VP
 62
0
370
-2
440
16777216
100
AcDbLine
 10
1019787.26912989
 20
87903.10709665027
 30
0.0
 11
1019787.26912989
 21
88233.09372555069
 31
0.0
  0
SOLID
  5
10B
330
105
100
AcDbEntity
  8
VP
 62
0
370
13
440
16777216
100
AcDbTrace
 10
1019782.26912989
 20
87903.10709665027
 30
0.0
 11
1019792.26912989
 21
87903.10709665027
 31
0.0
 12
1019787.26912989
 22
87873.10709665027
 32
0.0
 13
1019787.26912989
 23
87873.10709665027
 33
0.0
  0
SOLID
  5
10C
330
105
100
AcDbEntity
  8
VP
 62
0
370
13
440
16777216
100
AcDbTrace
 10
1019782.26912989
 20
88233.09372555069
 30
0.0
 11
1019792.26912989
 21
88233.09372555069
 31
0.0
 12
1019787.26912989
 22
88263.09372555069
 32
0.0
 13
1019787.26912989
 23
88263.09372555069
 33
0.0
  0
MTEXT
  5
10D
330
105
100
AcDbEntity
  8
VP
 62
0
370
13
440
16777216
100
AcDbMText
 10
1019761.941708335
 20
88068.10041110018
 30
0.0
 40
30.0
 41
0.0
 46
0.0
 71
5
  1
390
 11
1e-16
 21
1.0
 31
0.0
  0
POINT
  5
10E
330
105
100
AcDbEntity
  8
Defpoints
 62
0
370
13
440
16777216
100
AcDbPoint
 10
1019733.144932158
 20
87873.10709665027
 30
0.0
  0
POINT
  5
10F
330
105
100
AcDbEntity
  8
Defpoints
 62
0
370
13
440
16777216
100
AcDbPoint
 10
1019733.144932158
 20
88263.09372555069
 30
0.0
  0
POINT
  5
110
330
105
100
AcDbEntity
  8
Defpoints
 62
0
370
13
440
16777216
100
AcDbPoint
 10
1019787.26912989
 20
88263.09372555069
 30
0.0
  0
ENDBLK
  5
107
330
105
100
AcDbEntity
  8
0
100
AcDbBlockEnd
  0
BLOCK
  5
113
330
112
100
AcDbEntity
  8
0
100
AcDbBlockBegin
  2
*D14
 70
1
 10
0.0
 20
0.0
 30
0.0
  3
*D14
  1

  0
LINE
  5
115
330
112
100
AcDbEntity
  8
VP
 62
0
370
-2
440
16777216
100
AcDbLine
 10
1019452.654237753
 20
88265.67390455383
 30
0.0
 11
1019452.654237753
 21
88369.13985016105
 31
0.0
  0
LINE
  5
116
330
112
100
AcDbEntity
  8
VP
 62
0
370
-2
440
16777216
100
AcDbLine
 10
1019733.144932157
 20
88264.71872555066
 30
0.0
 11
1019733.144932157
 21
88369.13985016105
 31
0.0
  0
LINE
  5
117
330
112
100
AcDbEntity
  8
VP
 62
0
370
-2
440
16777216
100
AcDbLine
 10
1019482.654237753
 20
88367.88985016104
 30
0.0
 11
1019703.144932157
 21
88367.88985016104
 31
0.0
  0
SOLID
  5
118
330
112
100
AcDbEntity
  8
VP
 62
0
370
13
440
16777216
100
AcDbTrace
 10
1019482.654237753
 20
88372.88985016102
 30
0.0
 11
1019482.654237753
 21
88362.88985016102
 31
0.0
 12
1019452.654237753
 22
88367.88985016104
 32
0.0
 13
1019452.654237753
 23
88367.88985016104
 33
0.0
  0
SOLID
  5
119
330
112
100
AcDbEntity
  8
VP
 62
0
370
13
440
16777216
100
AcDbTrace
 10
1019703.144932157
 20
88372.88985016102
 30
0.0
 11
1019703.144932157
 21
88362.88985016102
 31
0.0
 12
1019733.144932157
 22
88367.88985016104
 32
0.0
 13
1019733.144932157
 23
88367.88985016104
 33
0.0
  0
MTEXT
  5
11A
330
112
100
AcDbEntity
  8
VP
 62
0
370
13
440
16777216
100
AcDbMText
 10
1019592.899584955
 20
88393.20703979267
 30
0.0
 40
30.0
 41
0.0
 46
0.0
 71
5
  1
280
  0
POINT
  5
11B
330
112
100
AcDbEntity
  8
Defpoints
 62
0
370
13
440
16777216
100
AcDbPoint
 10
1019452.654237753
 20
88265.04890455383
 30
0.0
  0
POINT
  5
11C
330
112
100
AcDbEntity
  8
Defpoints
 62
0
370
13
440
16777216
100
AcDbPoint
 10
1019733.144932157
 20
88264.09372555064
 30
0.0
  0
POINT
  5
11D
330
112
100
AcDbEntity
  8
Defpoints
 62
0
370
13
440
16777216
100
AcDbPoint
 10
1019733.144932157
 20
88367.88985016104
 30
0.0
  0
ENDBLK
  5
114
330
112
100
AcDbEntity
  8
0
100
AcDbBlockEnd
  0
BLOCK
  5
125
330
124
100
AcDbEntity
  8
0
100
AcDbBlockBegin
  2
*D15
 70
1
 10
0.0
 20
0.0
 30
0.0
  3
*D15
  1

  0
LINE
  5
127
330
124
100
AcDbEntity
  8
VP
 62
0
370
-2
440
16777216
100
AcDbLine
 10
1019451.211258504
 20
87600.31022030648
 30
0.0
 11
1019451.211258504
 21
87601.21248160867
 31
0.0
  0
LINE
  5
128
330
124
100
AcDbEntity
  8
VP
 62
0
370
-2
440
16777216
100
AcDbLine
 10
1019880.803875231
 20
87600.31022030648
 30
0.0
 11
1019880.803875231
 21
87601.21248160867
 31
0.0
  0
LINE
  5
129
330
124
100
AcDbEntity
  8
VP
 62
0
370
-2
440
16777216
100
AcDbLine
 10
1019481.211258504
 20
87599.96248160867
 30
0.0
 11
1019850.803875231
 21
87599.96248160867
 31
0.0
  0
SOLID
  5
12A
330
124
100
AcDbEntity
  8
VP
 62
0
370
13
440
16777216
100
AcDbTrace
 10
1019481.211258504
 20
87604.96248160867
 30
0.0
 11
1019481.211258504
 21
87594.96248160869
 31
0.0
 12
1019451.211258504
 22
87599.96248160867
 32
0.0
 13
1019451.211258504
 23
87599.96248160867
 33
0.0
  0
SOLID
  5
12B
330
124
100
AcDbEntity
  8
VP
 62
0
370
13
440
16777216
100
AcDbTrace
 10
1019850.803875231
 20
87604.96248160867
 30
0.0
 11
1019850.803875231
 21
87594.96248160869
 31
0.0
 12
1019880.803875231
 22
87599.96248160867
 32
0.0
 13
1019880.803875231
 23
87599.96248160867
 33
0.0
  0
MTEXT
  5
12C
330
124
100
AcDbEntity
  8
VP
 62
0
370
13
440
16777216
100
AcDbMText
 10
1019666.007566868
 20
87625.28990316392
 30
0.0
 40
30.0
 41
0.0
 46
0.0
 71
5
  1
430
  0
POINT
  5
12D
330
124
100
AcDbEntity
  8
Defpoints
 62
0
370
13
440
16777216
100
AcDbPoint
 10
1019451.211258504
 20
87599.6852203065
 30
0.0
  0
POINT
  5
12E
330
124
100
AcDbEntity
  8
Defpoints
 62
0
370
13
440
16777216
100
AcDbPoint
 10
1019880.803875231
 20
87599.6852203065
 30
0.0
  0
POINT
  5
12F
330
124
100
AcDbEntity
  8
Defpoints
 62
0
370
13
440
16777216
100
AcDbPoint
 10
1019880.803875231
 20
87599.96248160867
 30
0.0
  0
ENDBLK
  5
126
330
124
100
AcDbEntity
  8
0
100
AcDbBlockEnd
  0
BLOCK
  5
133
330
132
100
AcDbEntity
  8
0
100
AcDbBlockBegin
  2
*D16
 70
1
 10
0.0
 20
0.0
 30
0.0
  3
*D16
  1

  0
LINE
  5
135
330
132
100
AcDbEntity
  8
VP
 62
0
370
-2
440
16777216
100
AcDbLine
 10
1019453.115823988
 20
87557.7652398993
 30
0.0
 11
1019453.115823988
 21
87601.52990918938
 31
0.0
  0
LINE
  5
136
330
132
100
AcDbEntity
  8
VP
 62
0
370
-2
440
16777216
100
AcDbLine
 10
1018991.055095777
 20
87557.7652398993
 30
0.0
 11
1018991.055095777
 21
87601.52990918938
 31
0.0
  0
LINE
  5
137
330
132
100
AcDbEntity
  8
VP
 62
0
370
-2
440
16777216
100
AcDbLine
 10
1019423.115823988
 20
87600.27990918938
 30
0.0
 11
1019021.055095777
 21
87600.27990918938
 31
0.0
  0
SOLID
  5
138
330
132
100
AcDbEntity
  8
VP
 62
0
370
13
440
16777216
100
AcDbTrace
 10
1019423.115823988
 20
87605.27990918938
 30
0.0
 11
1019423.115823988
 21
87595.27990918938
 31
0.0
 12
1019453.115823988
 22
87600.27990918938
 32
0.0
 13
1019453.115823988
 23
87600.27990918938
 33
0.0
  0
SOLID
  5
139
330
132
100
AcDbEntity
  8
VP
 62
0
370
13
440
16777216
100
AcDbTrace
 10
1019021.055095777
 20
87605.27990918938
 30
0.0
 11
1019021.055095777
 21
87595.27990918938
 31
0.0
 12
1018991.055095777
 22
87600.27990918938
 32
0.0
 13
1018991.055095777
 23
87600.27990918938
 33
0.0
  0
MTEXT
  5
13A
330
132
100
AcDbEntity
  8
VP
 62
0
370
13
440
16777216
100
AcDbMText
 10
1019222.085459883
 20
87625.59709882102
 30
0.0
 40
30.0
 41
0.0
 46
0.0
 71
5
  1
462
  0
POINT
  5
13B
330
132
100
AcDbEntity
  8
Defpoints
 62
0
370
13
440
16777216
100
AcDbPoint
 10
1019453.115823988
 20
87557.1402398993
 30
0.0
  0
POINT
  5
13C
330
132
100
AcDbEntity
  8
Defpoints
 62
0
370
13
440
16777216
100
AcDbPoint
 10
1018991.055095777
 20
87557.1402398993
 30
0.0
  0
POINT
  5
13D
330
132
100
AcDbEntity
  8
Defpoints
 62
0
370
13
440
16777216
100
AcDbPoint
 10
1018991.055095777
 20
87600.27990918938
 30
0.0
  0
ENDBLK
  5
134
330
132
100
AcDbEntity
  8
0
100
AcDbBlockEnd
  0
BLOCK
  5
141
330
140
100
AcDbEntity
  8
0
100
AcDbBlockBegin
  2
*D17
 70
1
 10
0.0
 20
0.0
 30
0.0
  3
*D17
  1

  0
LINE
  5
143
330
140
100
AcDbEntity
  8
VP
 62
0
370
-2
440
16777216
100
AcDbLine
 10
1020028.200364171
 20
88659.5537733367
 30
0.0
 11
1020028.200364171
 21
88692.99616587603
 31
0.0
  0
LINE
  5
144
330
140
100
AcDbEntity
  8
VP
 62
0
370
-2
440
16777216
100
AcDbLine
 10
1019452.372254633
 20
88660.95165878325
 30
0.0
 11
1019452.372254633
 21
88692.99616587603
 31
0.0
  0
LINE
  5
145
330
140
100
AcDbEntity
  8
VP
 62
0
370
-2
440
16777216
100
AcDbLine
 10
1019998.200364171
 20
88691.74616587603
 30
0.0
 11
1019482.372254633
 21
88691.74616587603
 31
0.0
  0
SOLID
  5
146
330
140
100
AcDbEntity
  8
VP
 62
0
370
13
440
16777216
100
AcDbTrace
 10
1019998.200364171
 20
88696.74616587603
 30
0.0
 11
1019998.200364171
 21
88686.74616587601
 31
0.0
 12
1020028.200364171
 22
88691.74616587603
 32
0.0
 13
1020028.200364171
 23
88691.74616587603
 33
0.0
  0
SOLID
  5
147
330
140
100
AcDbEntity
  8
VP
 62
0
370
13
440
16777216
100
AcDbTrace
 10
1019482.372254633
 20
88696.74616587603
 30
0.0
 11
1019482.372254633
 21
88686.74616587601
 31
0.0
 12
1019452.372254633
 22
88691.74616587603
 32
0.0
 13
1019452.372254633
 23
88691.74616587603
 33
0.0
  0
MTEXT
  5
148
330
140
100
AcDbEntity
  8
VP
 62
0
370
13
440
16777216
100
AcDbMText
 10
1019740.286309402
 20
88717.0633555077
 30
0.0
 40
30.0
 41
0.0
 46
0.0
 71
5
  1
576
  0
POINT
  5
149
330
140
100
AcDbEntity
  8
Defpoints
 62
0
370
13
440
16777216
100
AcDbPoint
 10
1020028.200364171
 20
88658.9287733367
 30
0.0
  0
POINT
  5
14A
330
140
100
AcDbEntity
  8
Defpoints
 62
0
370
13
440
16777216
100
AcDbPoint
 10
1019452.372254633
 20
88660.32665878325
 30
0.0
  0
POINT
  5
14B
330
140
100
AcDbEntity
  8
Defpoints
 62
0
370
13
440
16777216
100
AcDbPoint
 10
1019452.372254633
 20
88691.74616587603
 30
0.0
  0
ENDBLK
  5
142
330
140
100
AcDbEntity
  8
0
100
AcDbBlockEnd
  0
BLOCK
  5
14E
330
14D
100
AcDbEntity
  8
0
100
AcDbBlockBegin
  2
*D18
 70
1
 10
0.0
 20
0.0
 30
0.0
  3
*D18
  1

  0
LINE
  5
150
330
14D
100
AcDbEntity
  8
VP
 62
0
370
-2
440
16777216
100
AcDbLine
 10
1018503.175810789
 20
88322.71713526025
 30
0.0
 11
1018503.175810789
 21
88353.2606207244
 31
0.0
  0
LINE
  5
151
330
14D
100
AcDbEntity
  8
VP
 62
0
370
-2
440
16777216
100
AcDbLine
 10
1018698.220846354
 20
88321.5500504605
 30
0.0
 11
1018698.220846354
 21
88353.2606207244
 31
0.0
  0
LINE
  5
152
330
14D
100
AcDbEntity
  8
VP
 62
0
370
-2
440
16777216
100
AcDbLine
 10
1018533.175810789
 20
88352.0106207244
 30
0.0
 11
1018668.220846354
 21
88352.0106207244
 31
0.0
  0
SOLID
  5
153
330
14D
100
AcDbEntity
  8
VP
 62
0
370
13
440
16777216
100
AcDbTrace
 10
1018533.175810789
 20
88357.0106207244
 30
0.0
 11
1018533.175810789
 21
88347.0106207244
 31
0.0
 12
1018503.175810789
 22
88352.0106207244
 32
0.0
 13
1018503.175810789
 23
88352.0106207244
 33
0.0
  0
SOLID
  5
154
330
14D
100
AcDbEntity
  8
VP
 62
0
370
13
440
16777216
100
AcDbTrace
 10
1018668.220846354
 20
88357.0106207244
 30
0.0
 11
1018668.220846354
 21
88347.0106207244
 31
0.0
 12
1018698.220846354
 22
88352.0106207244
 32
0.0
 13
1018698.220846354
 23
88352.0106207244
 33
0.0
  0
MTEXT
  5
155
330
14D
100
AcDbEntity
  8
VP
 62
0
370
13
440
16777216
100
AcDbMText
 10
1018600.698328572
 20
88377.32781035604
 30
0.0
 40
30.0
 41
0.0
 46
0.0
 71
5
  1
195
  0
POINT
  5
156
330
14D
100
AcDbEntity
  8
Defpoints
 62
0
370
13
440
16777216
100
AcDbPoint
 10
1018503.175810789
 20
88322.09213526025
 30
0.0
  0
POINT
  5
157
330
14D
100
AcDbEntity
  8
Defpoints
 62
0
370
13
440
16777216
100
AcDbPoint
 10
1018698.220846354
 20
88320.9250504605
 30
0.0
  0
POINT
  5
158
330
14D
100
AcDbEntity
  8
Defpoints
 62
0
370
13
440
16777216
100
AcDbPoint
 10
1018698.220846354
 20
88352.0106207244
 30
0.0
  0
ENDBLK
  5
14F
330
14D
100
AcDbEntity
  8
0
100
AcDbBlockEnd
  0
BLOCK
  5
15C
330
15B
100
AcDbEntity
  8
0
100
AcDbBlockBegin
  2
*D19
 70
1
 10
0.0
 20
0.0
 30
0.0
  3
*D19
  1

  0
LINE
  5
15E
330
15B
100
AcDbEntity
  8
VP
 62
0
370
-2
440
16777216
100
AcDbLine
 10
1018698.740439247
 20
88319.65886645642
 30
0.0
 11
1018762.921897111
 21
88319.65886645642
 31
0.0
  0
LINE
  5
15F
330
15B
100
AcDbEntity
  8
VP
 62
0
370
-2
440
16777216
100
AcDbLine
 10
1018698.740439247
 20
88197.14023989932
 30
0.0
 11
1018762.921897111
 21
88197.14023989932
 31
0.0
  0
LINE
  5
160
330
15B
100
AcDbEntity
  8
VP
 62
0
370
-2
440
16777216
100
AcDbLine
 10
1018761.671897111
 20
88289.65886645642
 30
0.0
 11
1018761.671897111
 21
88227.14023989932
 31
0.0
  0
SOLID
  5
161
330
15B
100
AcDbEntity
  8
VP
 62
0
370
13
440
16777216
100
AcDbTrace
 10
1018756.671897111
 20
88289.65886645642
 30
0.0
 11
1018766.671897111
 21
88289.65886645642
 31
0.0
 12
1018761.671897111
 22
88319.65886645642
 32
0.0
 13
1018761.671897111
 23
88319.65886645642
 33
0.0
  0
SOLID
  5
162
330
15B
100
AcDbEntity
  8
VP
 62
0
370
13
440
16777216
100
AcDbTrace
 10
1018756.671897111
 20
88227.14023989932
 30
0.0
 11
1018766.671897111
 21
88227.14023989932
 31
0.0
 12
1018761.671897111
 22
88197.14023989932
 32
0.0
 13
1018761.671897111
 23
88197.14023989932
 33
0.0
  0
MTEXT
  5
163
330
15B
100
AcDbEntity
  8
VP
 62
0
370
13
440
16777216
100
AcDbMText
 10
1018736.344475555
 20
88258.39955317754
 30
0.0
 40
30.0
 41
0.0
 46
0.0
 71
5
  1
123
 11
1e-16
 21
1.0
 31
0.0
  0
POINT
  5
164
330
15B
100
AcDbEntity
  8
Defpoints
 62
0
370
13
440
16777216
100
AcDbPoint
 10
1018698.115439247
 20
88319.65886645642
 30
0.0
  0
POINT
  5
165
330
15B
100
AcDbEntity
  8
Defpoints
 62
0
370
13
440
16777216
100
AcDbPoint
 10
1018698.115439247
 20
88197.14023989932
 30
0.0
  0
POINT
  5
166
330
15B
100
AcDbEntity
  8
Defpoints
 62
0
370
13
440
16777216
100
AcDbPoint
 10
1018761.671897111
 20
88197.14023989932
 30
0.0
  0
ENDBLK
  5
15D
330
15B
100
AcDbEntity
  8
0
100
AcDbBlockEnd
  0
BLOCK
  5
16A
330
169
100
AcDbEntity
  8
0
100
AcDbBlockBegin
  2
*D20
 70
1
 10
0.0
 20
0.0
 30
0.0
  3
*D20
  1

  0
LINE
  5
16C
330
169
100
AcDbEntity
  8
VP
 62
0
370
-2
440
16777216
100
AcDbLine
 10
1019453.115823988
 20
88544.9429258363
 30
0.0
 11
1019453.115823988
 21
88694.24616587601
 31
0.0
  0
LINE
  5
16D
330
169
100
AcDbEntity
  8
VP
 62
0
370
-2
440
16777216
100
AcDbLine
 10
1018503.198389139
 20
88594.23308755583
 30
0.0
 11
1018503.198389139
 21
88694.24616587601
 31
0.0
  0
LINE
  5
16E
330
169
100
AcDbEntity
  8
VP
 62
0
370
-2
440
16777216
100
AcDbLine
 10
1019423.115823988
 20
88692.99616587603
 30
0.0
 11
1018533.198389139
 21
88692.99616587603
 31
0.0
  0
SOLID
  5
16F
330
169
100
AcDbEntity
  8
VP
 62
0
370
13
440
16777216
100
AcDbTrace
 10
1019423.115823988
 20
88697.99616587601
 30
0.0
 11
1019423.115823988
 21
88687.99616587603
 31
0.0
 12
1019453.115823988
 22
88692.99616587603
 32
0.0
 13
1019453.115823988
 23
88692.99616587603
 33
0.0
  0
SOLID
  5
170
330
169
100
AcDbEntity
  8
VP
 62
0
370
13
440
16777216
100
AcDbTrace
 10
1018533.198389139
 20
88697.99616587601
 30
0.0
 11
1018533.198389139
 21
88687.99616587603
 31
0.0
 12
1018503.198389139
 22
88692.99616587603
 32
0.0
 13
1018503.198389139
 23
88692.99616587603
 33
0.0
  0
MTEXT
  5
171
330
169
100
AcDbEntity
  8
VP
 62
0
370
13
440
16777216
100
AcDbMText
 10
1018978.157106564
 20
88718.31335550766
 30
0.0
 40
30.0
 41
0.0
 46
0.0
 71
5
  1
950
  0
POINT
  5
172
330
169
100
AcDbEntity
  8
Defpoints
 62
0
370
13
440
16777216
100
AcDbPoint
 10
1019453.115823988
 20
88544.31792583628
 30
0.0
  0
POINT
  5
173
330
169
100
AcDbEntity
  8
Defpoints
 62
0
370
13
440
16777216
100
AcDbPoint
 10
1018503.198389139
 20
88593.60808755583
 30
0.0
  0
POINT
  5
174
330
169
100
AcDbEntity
  8
Defpoints
 62
0
370
13
440
16777216
100
AcDbPoint
 10
1018503.198389139
 20
88692.99616587603
 30
0.0
  0
ENDBLK
  5
16B
330
169
100
AcDbEntity
  8
0
100
AcDbBlockEnd
  0
ENDSEC
  0
SECTION
  2
ENTITIES
  0
LWPOLYLINE
  5
34
330
17
100
AcDbEntity
  8
0
370
13
100
AcDbPolyline
 90
4
 70
1
 43
3.428535235377893
 10
1021960.945866488
 20
85790.61580996425
 10
1016868.73330813
 20
85790.61580996425
 10
1016868.73330813
 20
89906.53650785582
 10
1021963.620918896
 20
89906.53650785582
  0
LWPOLYLINE
  5
35
330
17
100
AcDbEntity
  8
BAR-GAL
 62
8
370
13
100
AcDbPolyline
 90
4
 70
1
 10
1019877.056151942
 20
88658.42243940958
 10
1019830.77613695
 20
88658.42243940958
 10
1019830.77613695
 20
88475.0280597299
 10
1019848.911023952
 20
88632.20850748353
  0
LWPOLYLINE
  5
36
330
17
100
AcDbEntity
  8
BAR-GAL
 62
8
370
13
100
AcDbPolyline
 90
4
 70
1
 10
1020026.720845301
 20
88658.42243940958
 10
1019881.578878057
 20
88658.42243940958
 10
1019881.578878057
 20
88475.0280597299
 10
1019903.563245895
 20
88628.39957336531
  0
LWPOLYLINE
  5
37
330
17
100
AcDbEntity
  8
BAR-GAL
 62
7
370
13
100
AcDbPolyline
 90
6
 70
0
 43
15.0
 10
1019266.430603961
 20
87396.0454238272
 10
1019331.198389139
 20
87396.28034440224
 10
1019331.198389139
 20
87557.1402398993
 10
1018991.198389139
 20
87557.1402398993
 10
1018991.198389139
 20
88197.1402398993
 10
1018698.115439247
 20
88197.1402398993
  0
LWPOLYLINE
  5
38
330
17
100
AcDbEntity
  8
BAR-GAL
 62
7
370
13
100
AcDbPolyline
 90
3
 70
0
 43
5.0
 10
1018698.115439247
 20
88197.1402398993
 10
1018503.198389139
 20
88197.1402398993
 10
1018503.198389139
 20
88319.55091872762
  0
DIMENSION
  5
39
330
17
100
AcDbEntity
  8
VP
370
13
100
AcDbDimension
280
0
  2
*D1
  3
ISO-25
 10
1020060.160511728
 20
89617.0419794289
 30
0.0
 11
1019668.162939383
 21
89642.35916906055
 31
0.0
 70
32
 71
5
 42
783.9951446900377
 73
0
 74
0
 75
0
100
AcDbAlignedDimension
 13
1019276.165367038
 23
89291.50591872941
 33
0.0
 14
1020060.160511728
 24
89291.50591872941
 34
0.0
 50
0.0
100
AcDbRotatedDimension
  0
DIMENSION
  5
46
330
17
100
AcDbEntity
  8
VP
370
13
100
AcDbDimension
280
0
  2
*D2
  3
ISO-25
 10
1018503.175810789
 20
89617.0419794289
 30
0.0
 11
1018889.670588913
 21
89642.36940098416
 31
0.0
 70
32
 71
5
 42
772.9895562484162
 73
0
 74
0
 75
0
100
AcDbAlignedDimension
 13
1019276.165367038
 23
89291.50591872941
 33
0.0
 14
1018503.175810789
 24
89131.48801551679
 34
0.0
 50
0.0
100
AcDbRotatedDimension
  0
LWPOLYLINE
  5
53
330
17
100
AcDbEntity
  8
BAR-GAL
 62
7
370
13
100
AcDbPolyline
 90
4
 70
1
 43
5.0
 10
1019276.165367038
 20
89131.48801551679
 10
1018811.165367038
 20
89131.48801551679
 10
1018811.165367038
 20
89431.48801551679
 10
1019276.165367038
 20
89431.48801551679
  0
DIMENSION
  5
54
102
{ACAD_XDICTIONARY
360
55
102
}
330
17
100
AcDbEntity
  8
VP
370
13
100
AcDbDimension
280
0
  2
*D3
  3
ISO-25
 10
1018739.210896948
 20
89131.48801551684
 30
0.0
 11
1018713.883475392
 21
89281.48801551652
 31
0.0
 70
32
 71
5
 42
300.0
 73
0
 74
0
 75
0
100
AcDbAlignedDimension
 13
1018811.165367038
 23
89431.48801551679
 33
0.0
 14
1018811.165367038
 24
89131.48801551679
 34
0.0
 50
90.0
100
AcDbRotatedDimension
  0
DIMENSION
  5
62
330
17
100
AcDbEntity
  8
VP
370
13
100
AcDbDimension
280
0
  2
*D4
  3
ISO-25
 10
1018356.071312284
 20
89291.50591872942
 30
0.0
 11
1018330.754122652
 21
89211.49696712285
 31
0.0
 70
32
 71
5
 42
160.0179032126179
 73
0
 74
0
 75
0
100
AcDbAlignedDimension
 13
1018504.175810789
 23
89131.48801551679
 33
0.0
 14
1018504.175810789
 24
89291.50591872941
 34
0.0
 50
90.0
100
AcDbRotatedDimension
  0
DIMENSION
  5
6F
330
17
100
AcDbEntity
  8
VP
370
13
100
AcDbDimension
280
0
  2
*D5
  3
ISO-25
 10
1018355.616448028
 20
88197.20804282994
 30
0.0
 11
1018330.289026472
 21
88664.34802917307
 31
0.0
 70
32
 71
5
 42
934.279972686898
 73
0
 74
0
 75
0
100
AcDbAlignedDimension
 13
1018503.175810789
 23
89131.4880155168
 33
0.0
 14
1018503.175810789
 24
88197.2080428299
 34
0.0
 50
90.0
100
AcDbRotatedDimension
  0
DIMENSION
  5
7C
330
17
100
AcDbEntity
  8
VP
370
13
100
AcDbDimension
280
0
  2
*D6
  3
ISO-25
 10
1018355.616448029
 20
87557.14023989932
 30
0.0
 11
1018330.299258397
 21
87877.17414136432
 31
0.0
 70
32
 71
5
 42
640.0678029306146
 73
0
 74
0
 75
0
100
AcDbAlignedDimension
 13
1018991.055095777
 23
88197.2080428299
 33
0.0
 14
1018505.074185274
 24
87557.1402398993
 34
0.0
 50
90.0
100
AcDbRotatedDimension
  0
DIMENSION
  5
89
102
{ACAD_XDICTIONARY
360
8A
102
}
330
17
100
AcDbEntity
  8
VP
370
13
100
AcDbDimension
280
0
  2
*D7
  3
ISO-25
 10
1019331.198389139
 20
87503.6490767741
 30
0.0
 11
1019161.126742458
 21
87528.97649832936
 31
0.0
 70
32
 71
5
 42
340.1432933624601
 73
0
 74
0
 75
0
100
AcDbAlignedDimension
 13
1018991.055095777
 23
87557.1402398993
 33
0.0
 14
1019331.198389139
 24
87557.08091922953
 34
0.0
 50
0.0
100
AcDbRotatedDimension
  0
DIMENSION
  5
97
102
{ACAD_XDICTIONARY
360
98
102
}
330
17
100
AcDbEntity
  8
VP
370
13
100
AcDbDimension
280
0
  2
*D8
  3
ISO-25
 10
1018991.055095777
 20
88132.16054571302
 30
0.0
 11
1018747.126742458
 21
88157.47773534466
 31
0.0
 70
32
 71
5
 42
487.8567066375398
 73
0
 74
0
 75
0
100
AcDbAlignedDimension
 13
1018503.198389139
 23
88197.1402398993
 33
0.0
 14
1018991.055095777
 24
88197.2080428299
 34
0.0
 50
0.0
100
AcDbRotatedDimension
  0
DIMENSION
  5
A5
330
17
100
AcDbEntity
  8
VP
370
13
100
AcDbDimension
280
0
  2
*D9
  3
ISO-25
 10
1018171.394958968
 20
86492.69435591192
 30
0.0
 11
1018146.077769336
 21
87892.10013732038
 31
0.0
 70
32
 71
5
 42
2798.811562817515
 73
0
 74
0
 75
0
100
AcDbAlignedDimension
 13
1018504.175810789
 23
89291.50591872941
 33
0.0
 14
1018528.998177485
 24
86492.6943559119
 34
0.0
 50
90.0
100
AcDbRotatedDimension
  0
DIMENSION
  5
B2
330
17
100
AcDbEntity
  8
VP
370
13
100
AcDbDimension
280
0
  2
*D10
  3
ISO-25
 10
1020929.461031596
 20
89291.48801551684
 30
0.0
 11
1020904.399640054
 21
89084.70659598643
 31
0.0
 70
32
 71
5
 42
413.5628390601778
 73
0
 74
0
 75
0
100
AcDbAlignedDimension
 13
1020060.160511728
 23
88877.92517645661
 33
0.0
 14
1020060.175810789
 24
89291.48801551679
 34
0.0
 50
90.0
100
AcDbRotatedDimension
  0
LWPOLYLINE
  5
BF
330
17
100
AcDbEntity
  8
BAR-GAL
 62
7
370
13
100
AcDbPolyline
 90
4
 70
1
 10
1018503.175810789
 20
88319.55091872762
 10
1018696.2117493
 20
88319.55091872762
 10
1018696.2117493
 20
88197.2080428299
 10
1018503.175810789
 20
88197.2080428299
  0
LWPOLYLINE
  5
C0
330
17
100
AcDbEntity
  8
BAR-GAL
 62
7
370
13
100
AcDbPolyline
 90
7
 70
0
 43
15.0
 10
1020060.175810789
 20
89291.48801551679
 10
1019276.175810789
 20
89291.48801551679
 10
1019276.175810789
 20
89131.48801551679
 10
1018503.198389139
 20
89131.48801551679
 10
1018503.198389139
 20
88319.55091872762
 10
1018698.115439247
 20
88319.55091872762
 10
1018698.115439247
 20
88194.79420616197
  0
LWPOLYLINE
  5
C1
330
17
100
AcDbEntity
  8
BAR-GAL
 62
7
370
13
100
AcDbPolyline
 90
5
 70
0
 43
15.0
 10
1019453.115823988
 20
88659.05922545012
 10
1019453.115823988
 20
87874.21319866303
 10
1019732.719491108
 20
87874.21319866303
 10
1019733.144932157
 20
88264.09372555064
 10
1019453.115823988
 20
88262.82502224427
  0
LWPOLYLINE
  5
C2
330
17
100
AcDbEntity
  8
BAR-GAL
 62
7
370
13
100
AcDbPolyline
 90
3
 70
0
 43
15.0
 10
1019453.115823988
 20
88658.84459996587
 10
1019880.675084192
 20
88659.18844505429
 10
1019881.306364831
 20
87874.21319866303
  0
LWPOLYLINE
  5
C3
330
17
100
AcDbEntity
  8
BAR-GAL
 62
7
370
13
100
AcDbPolyline
 90
2
 70
0
 43
15.0
 10
1019880.676209449
 20
88657.7892278287
 10
1019880.676209449
 20
88659.1884459592
  0
LWPOLYLINE
  5
C4
330
17
100
AcDbEntity
  8
BAR-GAL
 62
7
370
13
100
AcDbPolyline
 90
4
 70
0
 43
15.0
 10
1020058.044736244
 20
88879.02842776987
 10
1020028.200364171
 20
88879.02842776987
 10
1020028.200364171
 20
88658.9287733367
 10
1019881.731805879
 20
88659.05922545012
  0
LWPOLYLINE
  5
C5
330
17
100
AcDbEntity
  8
BAR-GAL
 62
7
370
13
100
AcDbPolyline
 90
3
 70
0
 43
15.0
 10
1020026.720845301
 20
88659.47958660571
 10
1020026.720845301
 20
88479.14338089155
 10
1019880.803875231
 20
88479.14338089155
  0
LWPOLYLINE
  5
C6
330
17
100
AcDbEntity
  8
BAR-GAL
 62
7
370
13
100
AcDbPolyline
 90
2
 70
0
 43
15.0
 10
1019880.819877246
 20
88479.14338089155
 10
1019453.115823988
 20
88479.14338089155
  0
DIMENSION
  5
C7
330
17
100
AcDbEntity
  8
VP
370
13
100
AcDbDimension
280
0
  2
*D11
  3
ISO-25
 10
1019833.048650176
 20
88426.65030534934
 30
0.0
 11
1019643.082237082
 21
88451.97772690459
 31
0.0
 70
32
 71
5
 42
379.9328261881601
 73
0
 74
0
 75
0
100
AcDbAlignedDimension
 13
1019453.115823988
 23
88480.6254397089
 33
0.0
 14
1019833.048650176
 24
88479.98918309581
 34
0.0
 50
0.0
100
AcDbRotatedDimension
  0
LWPOLYLINE
  5
D4
330
17
100
AcDbEntity
  8
BAR-GAL
 62
7
370
13
100
AcDbPolyline
 90
2
 70
0
 43
15.0
 10
1019833.048650176
 20
88479.98918309581
 10
1019833.048650176
 20
88659.1501436609
  0
DIMENSION
  5
D5
330
17
100
AcDbEntity
  8
VP
370
13
100
AcDbDimension
280
0
  2
*D12
  3
ISO-25
 10
1019806.514996305
 20
88657.36508109508
 30
0.0
 11
1019781.197806673
 21
88565.0311052144
 31
0.0
 70
32
 71
5
 42
184.6679517607845
 73
0
 74
0
 75
0
100
AcDbAlignedDimension
 13
1019837.079249148
 23
88472.69712933426
 33
0.0
 14
1019833.895472769
 24
88657.36508109503
 34
0.0
 50
90.0
100
AcDbRotatedDimension
  0
LWPOLYLINE
  5
E2
330
17
100
AcDbEntity
  8
BAR-GAL
 62
7
370
13
100
AcDbPolyline
 90
4
 70
1
 43
5.0
 10
1019468.397950415
 20
88634.27416623093
 10
1019621.219213967
 20
88634.27416623093
 10
1019621.219213967
 20
88494.18123730896
 10
1019468.397950415
 20
88494.18123730896
  0
LWPOLYLINE
  5
E3
330
17
100
AcDbEntity
  8
BAR-GAL
 62
7
370
13
100
AcDbPolyline
 90
4
 70
1
 43
5.0
 10
1019639.53909343
 20
88634.27416623093
 10
1019792.36035722
 20
88634.27416623093
 10
1019792.36035722
 20
88494.18123730896
 10
1019639.53909343
 20
88494.18123730896
  0
LINE
  5
E4
330
17
100
AcDbEntity
  8
BAR-GAL
 62
7
370
13
100
AcDbLine
 10
1019468.397950415
 20
88634.27416623093
 30
0.0
 11
1019621.219213967
 21
88494.18123730896
 31
0.0
  0
LINE
  5
E5
330
17
100
AcDbEntity
  8
BAR-GAL
 62
7
370
13
100
AcDbLine
 10
1019621.219213967
 20
88634.27416623093
 30
0.0
 11
1019468.397950415
 21
88494.18123730896
 31
0.0
  0
LINE
  5
E6
330
17
100
AcDbEntity
  8
BAR-GAL
 62
7
370
13
100
AcDbLine
 10
1019639.53909343
 20
88634.27416623093
 30
0.0
 11
1019792.36035722
 21
88494.18123730896
 31
0.0
  0
LINE
  5
E7
330
17
100
AcDbEntity
  8
BAR-GAL
 62
7
370
13
100
AcDbLine
 10
1019792.36035722
 20
88634.27416623093
 30
0.0
 11
1019639.53909343
 21
88494.18123730896
 31
0.0
  0
LWPOLYLINE
  5
E8
330
17
100
AcDbEntity
  8
BAR-GAL
 62
7
370
13
100
AcDbPolyline
 90
4
 70
1
 43
5.0
 10
1019562.494521028
 20
88146.65152200754
 10
1019622.986271269
 20
88146.65152200754
 10
1019622.986271269
 20
87984.27108166617
 10
1019562.494521028
 20
87984.27108166617
  0
LINE
  5
E9
330
17
100
AcDbEntity
  8
BAR-GAL
 62
7
370
13
100
AcDbLine
 10
1019562.494521028
 20
88146.65152200754
 30
0.0
 11
1019562.494521028
 21
88264.09372555064
 31
0.0
  0
LINE
  5
EA
330
17
100
AcDbEntity
  8
BAR-GAL
 62
7
370
13
100
AcDbLine
 10
1019592.494521028
 20
88146.65152200754
 30
0.0
 11
1019592.494521028
 21
88264.09372555064
 31
0.0
  0
LINE
  5
EB
330
17
100
AcDbEntity
  8
BAR-GAL
 62
7
370
13
100
AcDbLine
 10
1019622.494521028
 20
88146.65152200754
 30
0.0
 11
1019622.494521028
 21
88264.09372555064
 31
0.0
  0
LINE
  5
EC
330
17
100
AcDbEntity
  8
BAR-GAL
 62
7
370
13
100
AcDbLine
 10
1019562.494521028
 20
88140.08803275767
 30
0.0
 11
1019453.32014636
 21
88140.08803275767
 31
0.0
  0
LINE
  5
ED
330
17
100
AcDbEntity
  8
BAR-GAL
 62
7
370
13
100
AcDbLine
 10
1019562.494521028
 20
88110.08803275767
 30
0.0
 11
1019453.32014636
 21
88110.08803275767
 31
0.0
  0
LINE
  5
EE
330
17
100
AcDbEntity
  8
BAR-GAL
 62
7
370
13
100
AcDbLine
 10
1019562.494521028
 20
88080.08803275767
 30
0.0
 11
1019453.32014636
 21
88080.08803275767
 31
0.0
  0
LINE
  5
EF
330
17
100
AcDbEntity
  8
BAR-GAL
 62
7
370
13
100
AcDbLine
 10
1019562.494521028
 20
88050.08803275767
 30
0.0
 11
1019453.32014636
 21
88050.08803275767
 31
0.0
  0
LINE
  5
F0
330
17
100
AcDbEntity
  8
BAR-GAL
 62
7
370
13
100
AcDbLine
 10
1019562.494521028
 20
88020.0880327577
 30
0.0
 11
1019453.32014636
 21
88020.0880327577
 31
0.0
  0
LINE
  5
F1
330
17
100
AcDbEntity
  8
BAR-GAL
 62
7
370
13
100
AcDbLine
 10
1019562.494521028
 20
87990.0880327577
 30
0.0
 11
1019453.32014636
 21
87990.0880327577
 31
0.0
  0
LINE
  5
F2
330
17
100
AcDbEntity
  8
BAR-GAL
 62
7
370
13
100
AcDbLine
 10
1019562.494521028
 20
87866.82887812307
 30
0.0
 11
1019562.494521028
 21
87984.27108166617
 31
0.0
  0
LINE
  5
F3
330
17
100
AcDbEntity
  8
BAR-GAL
 62
7
370
13
100
AcDbLine
 10
1019592.494521028
 20
87866.82887812307
 30
0.0
 11
1019592.494521028
 21
87984.27108166617
 31
0.0
  0
LINE
  5
F4
330
17
100
AcDbEntity
  8
BAR-GAL
 62
7
370
13
100
AcDbLine
 10
1019622.494521028
 20
87866.82887812307
 30
0.0
 11
1019622.494521028
 21
87984.27108166617
 31
0.0
  0
LINE
  5
F5
330
17
100
AcDbEntity
  8
BAR-GAL
 62
7
370
13
100
AcDbLine
 10
1019733.144932157
 20
88140.08803275767
 30
0.0
 11
1019623.970557489
 21
88140.08803275767
 31
0.0
  0
LINE
  5
F6
330
17
100
AcDbEntity
  8
BAR-GAL
 62
7
370
13
100
AcDbLine
 10
1019733.144932157
 20
88110.08803275767
 30
0.0
 11
1019623.970557489
 21
88110.08803275767
 31
0.0
  0
LINE
  5
F7
330
17
100
AcDbEntity
  8
BAR-GAL
 62
7
370
13
100
AcDbLine
 10
1019733.144932157
 20
88080.08803275767
 30
0.0
 11
1019623.970557489
 21
88080.08803275767
 31
0.0
  0
LINE
  5
F8
330
17
100
AcDbEntity
  8
BAR-GAL
 62
7
370
13
100
AcDbLine
 10
1019733.144932157
 20
88050.08803275767
 30
0.0
 11
1019623.970557489
 21
88050.08803275767
 31
0.0
  0
LINE
  5
F9
330
17
100
AcDbEntity
  8
BAR-GAL
 62
7
370
13
100
AcDbLine
 10
1019733.144932157
 20
88020.0880327577
 30
0.0
 11
1019623.970557489
 21
88020.0880327577
 31
0.0
  0
LINE
  5
FA
330
17
100
AcDbEntity
  8
BAR-GAL
 62
7
370
13
100
AcDbLine
 10
1019733.144932157
 20
87990.0880327577
 30
0.0
 11
1019623.970557489
 21
87990.0880327577
 31
0.0
  0
LWPOLYLINE
  5
FB
330
17
100
AcDbEntity
  8
BAR-GAL
 62
7
370
13
100
AcDbPolyline
 90
4
 70
1
 43
5.0
 10
1019453.793986278
 20
88323.33504275206
 10
1019735.896783279
 20
88323.33504275206
 10
1019735.896783279
 20
88263.09372555064
 10
1019453.793986278
 20
88263.09372555064
  0
LWPOLYLINE
  5
FC
330
17
100
AcDbEntity
  8
BAR-GAL
 62
7
370
13
100
AcDbPolyline
 90
2
 70
0
 43
5.0
 10
1019570.956955047
 20
88323.33504275206
 10
1019570.956955047
 20
88264.09372555064
  0
LWPOLYLINE
  5
FD
330
17
100
AcDbEntity
  8
BAR-GAL
 62
7
370
13
100
AcDbPolyline
 90
2
 70
0
 43
5.0
 10
1019695.781201528
 20
88322.67804128164
 10
1019695.781201528
 20
88263.09372555064
  0
LINE
  5
FE
330
17
100
AcDbEntity
  8
BAR-GAL
 62
7
370
13
100
AcDbLine
 10
1019453.793986278
 20
88323.33504275206
 30
0.0
 11
1019570.956955047
 21
88264.09372555064
 31
0.0
  0
LINE
  5
FF
330
17
100
AcDbEntity
  8
BAR-GAL
 62
7
370
13
100
AcDbLine
 10
1019570.956955047
 20
88264.09372555064
 30
0.0
 11
1019695.781201528
 21
88322.67804128164
 31
0.0
  0
LINE
  5
100
330
17
100
AcDbEntity
  8
BAR-GAL
 62
7
370
13
100
AcDbLine
 10
1019695.781201528
 20
88322.67804128164
 30
0.0
 11
1019735.896783279
 21
88264.09372555064
 31
0.0
  0
LINE
  5
101
330
17
100
AcDbEntity
  8
BAR-GAL
 62
7
370
13
100
AcDbLine
 10
1019735.896783279
 20
88323.33504275206
 30
0.0
 11
1019695.781201528
 21
88264.09372555064
 31
0.0
  0
LINE
  5
102
330
17
100
AcDbEntity
  8
BAR-GAL
 62
7
370
13
100
AcDbLine
 10
1019695.781201528
 20
88264.09372555064
 30
0.0
 11
1019570.956955047
 21
88323.33504275206
 31
0.0
  0
LINE
  5
103
330
17
100
AcDbEntity
  8
BAR-GAL
 62
7
370
13
100
AcDbLine
 10
1019570.956955047
 20
88323.33504275206
 30
0.0
 11
1019455.087711261
 21
88263.09372555064
 31
0.0
  0
DIMENSION
  5
104
330
17
100
AcDbEntity
  8
VP
370
13
100
AcDbDimension
280
0
  2
*D13
  3
ISO-25
 10
1019787.26912989
 20
88263.09372555069
 30
0.0
 11
1019761.941708335
 21
88068.10041110018
 31
0.0
 70
32
 71
5
 42
389.9866289003985
 73
0
 74
0
 75
0
100
AcDbAlignedDimension
 13
1019733.144932157
 23
87873.10709665026
 33
0.0
 14
1019733.144932157
 24
88263.09372555066
 34
0.0
 50
90.0
100
AcDbRotatedDimension
  0
DIMENSION
  5
111
330
17
100
AcDbEntity
  8
VP
370
13
100
AcDbDimension
280
0
  2
*D14
  3
ISO-25
 10
1019733.144932157
 20
88367.88985016104
 30
0.0
 11
1019592.899584955
 21
88393.20703979267
 31
0.0
 70
32
 71
5
 42
280.4906944036484
 73
0
 74
0
 75
0
100
AcDbAlignedDimension
 13
1019452.654237753
 23
88265.04890455383
 33
0.0
 14
1019733.144932157
 24
88264.09372555064
 34
0.0
 50
0.0
100
AcDbRotatedDimension
  0
LWPOLYLINE
  5
11E
330
17
100
AcDbEntity
  8
BAR-GAL
 62
7
370
13
100
AcDbPolyline
 90
8
 70
1
 10
1019454.744211459
 20
88479.14338089155
 10
1019454.744211459
 20
88328.24530471
 10
1019735.553283476
 20
88328.24530471
 10
1019735.553283476
 20
88268.00398750858
 10
1019735.553283476
 20
87878.01735860817
 10
1019880.803875231
 20
87878.01735860817
 10
1019880.803875231
 20
88479.14338089155
 10
1019835.52386024
 20
88479.14338089155
  0
LWPOLYLINE
  5
11F
330
17
100
AcDbEntity
  8
BAR-GAL
 62
7
370
13
100
AcDbPolyline
 90
2
 70
0
 43
15.0
 10
1019733.144932157
 20
87873.10709665026
 10
1019883.21513467
 20
87873.10709665026
  0
LWPOLYLINE
  5
120
330
17
100
AcDbEntity
  8
BAR-GAL
 62
7
370
13
100
AcDbPolyline
 90
3
 70
0
 43
15.0
 10
1019453.115823988
 20
87874.21319866303
 10
1019453.115823988
 20
87557.1402398993
 10
1019331.198389139
 20
87557.1402398993
  0
LWPOLYLINE
  5
121
330
17
100
AcDbEntity
  8
BAR-GAL
 62
7
370
13
100
AcDbPolyline
 90
3
 70
0
 43
15.0
 10
1019880.803875231
 20
87878.01735860817
 10
1019880.803875231
 20
87524.12410956089
 10
1020293.047167073
 20
87524.12410956089
  0
DIMENSION
  5
122
102
{ACAD_XDICTIONARY
360
123
102
}
330
17
100
AcDbEntity
  8
VP
370
13
100
AcDbDimension
280
0
  2
*D15
  3
ISO-25
 10
1019880.803875231
 20
87599.96248160867
 30
0.0
 11
1019666.007566868
 21
87625.28990316392
 31
0.0
 70
32
 71
5
 42
429.5926167272264
 73
0
 74
0
 75
0
100
AcDbAlignedDimension
 13
1019451.211258504
 23
87599.6852203065
 33
0.0
 14
1019880.803875231
 24
87599.6852203065
 34
0.0
 50
0.0
100
AcDbRotatedDimension
  0
DIMENSION
  5
130
102
{ACAD_XDICTIONARY
360
131
102
}
330
17
100
AcDbEntity
  8
VP
370
13
100
AcDbDimension
280
0
  2
*D16
  3
ISO-25
 10
1018991.055095777
 20
87600.27990918938
 30
0.0
 11
1019222.085459883
 21
87625.59709882102
 31
0.0
 70
32
 71
5
 42
462.0607282115379
 73
0
 74
0
 75
0
100
AcDbAlignedDimension
 13
1019453.115823988
 23
87557.1402398993
 33
0.0
 14
1018991.055095777
 24
87557.1402398993
 34
0.0
 50
0.0
100
AcDbRotatedDimension
  0
DIMENSION
  5
13E
102
{ACAD_XDICTIONARY
360
13F
102
}
330
17
100
AcDbEntity
  8
VP
370
13
100
AcDbDimension
280
0
  2
*D17
  3
ISO-25
 10
1019452.372254633
 20
88691.74616587603
 30
0.0
 11
1019740.286309402
 21
88717.0633555077
 31
0.0
 70
32
 71
5
 42
575.828109538299
 73
0
 74
0
 75
0
100
AcDbAlignedDimension
 13
1020028.200364171
 23
88658.9287733367
 33
0.0
 14
1019452.372254633
 24
88660.32665878325
 34
0.0
 50
0.0
100
AcDbRotatedDimension
  0
DIMENSION
  5
14C
330
17
100
AcDbEntity
  8
VP
370
13
100
AcDbDimension
280
0
  2
*D18
  3
ISO-25
 10
1018698.220846354
 20
88352.0106207244
 30
0.0
 11
1018600.698328572
 21
88377.32781035604
 31
0.0
 70
32
 71
5
 42
195.0450355650391
 73
0
 74
0
 75
0
100
AcDbAlignedDimension
 13
1018503.175810789
 23
88322.09213526025
 33
0.0
 14
1018698.220846354
 24
88320.9250504605
 34
0.0
 50
0.0
100
AcDbRotatedDimension
  0
DIMENSION
  5
159
102
{ACAD_XDICTIONARY
360
15A
102
}
330
17
100
AcDbEntity
  8
VP
370
13
100
AcDbDimension
280
0
  2
*D19
  3
ISO-25
 10
1018761.671897111
 20
88197.14023989932
 30
0.0
 11
1018736.344475555
 21
88258.39955317754
 31
0.0
 70
32
 71
5
 42
122.5186265570955
 73
0
 74
0
 75
0
100
AcDbAlignedDimension
 13
1018698.115439247
 23
88319.65886645638
 33
0.0
 14
1018698.115439247
 24
88197.1402398993
 34
0.0
 50
90.0
100
AcDbRotatedDimension
  0
DIMENSION
  5
167
102
{ACAD_XDICTIONARY
360
168
102
}
330
17
100
AcDbEntity
  8
VP
370
13
100
AcDbDimension
280
0
  2
*D20
  3
ISO-25
 10
1018503.198389139
 20
88692.99616587603
 30
0.0
 11
1018978.157106564
 21
88718.31335550766
 31
0.0
 70
32
 71
5
 42
949.917434849078
 73
0
 74
0
 75
0
100
AcDbAlignedDimension
 13
1019453.115823988
 23
88544.31792583628
 33
0.0
 14
1018503.198389139
 24
88593.60808755583
 34
0.0
 50
0.0
100
AcDbRotatedDimension
  0
LWPOLYLINE
  5
175
330
17
100
AcDbEntity
  8
BAR-GAL
 62
7
370
13
100
AcDbPolyline
 90
20
 70
1
 10
1020058.047167073
 20
89291.4880155168
 10
1019276.175810789
 20
89291.4880155168
 10
1019276.175810789
 20
89131.48801551679
 10
1018503.198389139
 20
89131.48801551676
 10
1018503.198389139
 20
88319.55091872762
 10
1018698.115439247
 20
88319.55091872762
 10
1018698.115439247
 20
88197.1402398993
 10
1018991.198389139
 20
88197.14023989931
 10
1018991.198389139
 20
87557.1402398993
 10
1019331.198389139
 20
87557.1402398993
 10
1019453.115823988
 20
87557.1402398993
 10
1019453.115823988
 20
87874.21319866303
 10
1019453.115823988
 20
88658.84459996587
 10
1019881.578878057
 20
88659.18917188937
 10
1019881.578878057
 20
88659.05936165518
 10
1020026.720845301
 20
88658.93009106908
 10
1020026.720845301
 20
88659.47958660571
 10
1020028.200364171
 20
88879.02842776987
 10
1020058.047167073
 20
88879.02842776987
 10
1020058.047167073
 20
89037.48908358657
  0
MTEXT
  5
176
330
17
100
AcDbEntity
  8
VP
370
13
100
AcDbMText
 10
1019163.034156817
 20
88876.92254186072
 30
0.0
 40
59.201694284898
 41
262.1310489581865
 46
0.0
 71
1
  1
 15674
  0
MTEXT
  5
177
330
17
100
AcDbEntity
  8
VP
370
13
100
AcDbMText
 10
1019948.756272542
 20
88255.21441855998
 30
0.0
 40
59.201694284898
 41
262.1310489581865
 46
0.0
 71
1
  1
 8412
  0
TEXT
  5
178
330
17
100
AcDbEntity
  8
0
100
AcDbText
 10
1018825.54332511
 20
88510.77490034178
 30
0.0
 40
59.201694284898
  1
11, 14 דירה
100
AcDbText
  0
ENDSEC
  0
SECTION
  2
OBJECTS
  0
DICTIONARY
  5
A
330
0
100
AcDbDictionary
281
1
  3
ACAD_COLOR
350
B
  3
ACAD_GROUP
350
C
  3
ACAD_LAYOUT
350
D
  3
ACAD_MATERIAL
350
E
  3
ACAD_MLEADERSTYLE
350
F
  3
ACAD_MLINESTYLE
350
10
  3
ACAD_PLOTSETTINGS
350
11
  3
ACAD_PLOTSTYLENAME
350
12
  3
ACAD_SCALELIST
350
14
  3
ACAD_TABLESTYLE
350
15
  3
ACAD_VISUALSTYLE
350
16
  3
EZDXF_META
350
2D
  0
DICTIONARY
  5
B
330
A
100
AcDbDictionary
281
1
  0
DICTIONARY
  5
C
330
A
100
AcDbDictionary
281
1
  0
DICTIONARY
  5
D
330
A
100
AcDbDictionary
281
1
  3
Model
350
1A
  3
Layout1
350
1E
  0
DICTIONARY
  5
E
330
A
100
AcDbDictionary
281
1
  3
ByBlock
350
1F
  3
ByLayer
350
20
  3
Global
350
21
  0
DICTIONARY
  5
F
330
A
100
AcDbDictionary
281
1
  3
Standard
350
2C
  0
DICTIONARY
  5
10
330
A
100
AcDbDictionary
281
1
  3
Standard
350
22
  0
DICTIONARY
  5
11
330
A
100
AcDbDictionary
281
1
  0
ACDBDICTIONARYWDFLT
  5
12
330
A
100
AcDbDictionary
281
1
  3
Normal
350
13
100
AcDbDictionaryWithDefault
340
13
  0
ACDBPLACEHOLDER
  5
13
330
12
  0
DICTIONARY
  5
14
330
A
100
AcDbDictionary
281
1
  0
DICTIONARY
  5
15
330
A
100
AcDbDictionary
281
1
  0
DICTIONARY
  5
16
330
A
100
AcDbDictionary
281
1
  0
LAYOUT
  5
1A
330
D
100
AcDbPlotSettings
  1

  4
A3
  6

 40
7.5
 41
20.0
 42
7.5
 43
20.0
 44
420.0
 45
297.0
 46
0.0
 47
0.0
 48
0.0
 49
0.0
140
0.0
141
0.0
142
1.0
143
1.0
 70
1024
 72
1
 73
0
 74
5
  7

 75
16
 76
0
 77
2
 78
300
147
1.0
148
0.0
149
0.0
100
AcDbLayout
  1
Model
 70
1
 71
0
 10
0.0
 20
0.0
 11
420.0
 21
297.0
 12
0.0
 22
0.0
 32
0.0
 14
1e+20
 24
1e+20
 34
1e+20
 15
-1e+20
 25
-1e+20
 35
-1e+20
146
0.0
 13
0.0
 23
0.0
 33
0.0
 16
1.0
 26
0.0
 36
0.0
 17
0.0
 27
1.0
 37
0.0
 76
1
330
17
  0
LAYOUT
  5
1E
330
D
100
AcDbPlotSettings
  1

  4
A3
  6

 40
7.5
 41
20.0
 42
7.5
 43
20.0
 44
420.0
 45
297.0
 46
0.0
 47
0.0
 48
0.0
 49
0.0
140
0.0
141
0.0
142
1.0
143
1.0
 70
0
 72
1
 73
0
 74
5
  7

 75
16
 76
0
 77
2
 78
300
147
1.0
148
0.0
149
0.0
100
AcDbLayout
  1
Layout1
 70
1
 71
1
 10
0.0
 20
0.0
 11
420.0
 21
297.0
 12
0.0
 22
0.0
 32
0.0
 14
1e+20
 24
1e+20
 34
1e+20
 15
-1e+20
 25
-1e+20
 35
-1e+20
146
0.0
 13
0.0
 23
0.0
 33
0.0
 16
1.0
 26
0.0
 36
0.0
 17
0.0
 27
1.0
 37
0.0
 76
1
330
1B
  0
MATERIAL
  5
1F
102
{ACAD_REACTORS
330
E
102
}
330
E
100
AcDbMaterial
  1
ByBlock
  2

 70
0
 40
1.0
 71
1
 41
1.0
 91
-1023410177
 42
1.0
 72
1
  3

 73
1
 74
1
 75
1
 44
0.5
 73
0
 45
1.0
 46
1.0
 77
1
  4

 78
1
 79
1
170
1
 48
1.0
171
1
  6

172
1
173
1
174
1
140
1.0
141
1.0
175
1
  7

176
1
177
1
178
1
143
1.0
179
1
  8

270
1
271
1
272
1
145
1.0
146
1.0
273
1
  9

274
1
275
1
276
1
 42
1.0
 72
1
  3

 73
1
 74
1
 75
1
 94
63
  0
MATERIAL
  5
20
102
{ACAD_REACTORS
330
E
102
}
330
E
100
AcDbMaterial
  1
ByLayer
  2

 70
0
 40
1.0
 71
1
 41
1.0
 91
-1023410177
 42
1.0
 72
1
  3

 73
1
 74
1
 75
1
 44
0.5
 73
0
 45
1.0
 46
1.0
 77
1
  4

 78
1
 79
1
170
1
 48
1.0
171
1
  6

172
1
173
1
174
1
140
1.0
141
1.0
175
1
  7

176
1
177
1
178
1
143
1.0
179
1
  8

270
1
271
1
272
1
145
1.0
146
1.0
273
1
  9

274
1
275
1
276
1
 42
1.0
 72
1
  3

 73
1
 74
1
 75
1
 94
63
  0
MATERIAL
  5
21
102
{ACAD_REACTORS
330
E
102
}
330
E
100
AcDbMaterial
  1
Global
  2

 70
0
 40
1.0
 71
1
 41
1.0
 91
-1023410177
 42
1.0
 72
1
  3

 73
1
 74
1
 75
1
 44
0.5
 73
0
 45
1.0
 46
1.0
 77
1
  4

 78
1
 79
1
170
1
 48
1.0
171
1
  6

172
1
173
1
174
1
140
1.0
141
1.0
175
1
  7

176
1
177
1
178
1
143
1.0
179
1
  8

270
1
271
1
272
1
145
1.0
146
1.0
273
1
  9

274
1
275
1
276
1
 42
1.0
 72
1
  3

 73
1
 74
1
 75
1
 94
63
  0
MLINESTYLE
  5
22
102
{ACAD_REACTORS
330
10
102
}
330
10
100
AcDbMlineStyle
  2
Standard
 70
0
  3

 62
256
 51
90.0
 52
90.0
 71
2
 49
0.5
 62
256
  6
BYLAYER
 49
-0.5
 62
256
  6
BYLAYER
  0
MLEADERSTYLE
  5
2C
102
{ACAD_REACTORS
330
F
102
}
330
F
100
AcDbMLeaderStyle
179
2
170
2
171
1
172
0
 90
2
 40
0.0
 41
0.0
173
1
 91
-1056964608
 92
-2
290
1
 42
2.0
291
1
 43
8.0
  3
Standard
 44
4.0
300

342
29
174
1
175
1
176
0
178
1
 93
-1056964608
 45
4.0
292
0
297
0
 46
4.0
 94
-1056964608
 47
1.0
 49
1.0
140
1.0
294
1
141
0.0
177
0
142
1.0
295
0
296
0
143
3.75
271
0
272
9
273
9
  0
DICTIONARY
  5
2D
330
A
100
AcDbDictionary
280
1
281
1
  3
CREATED_BY_EZDXF
350
2E
  3
WRITTEN_BY_EZDXF
350
17B
  0
DICTIONARYVAR
  5
2E
330
2D
100
DictionaryVariables
280
0
  1
1.4.3 @ 2026-05-15T06:57:54.451750+00:00
  0
DICTIONARY
  5
55
330
54
100
AcDbDictionary
280
1
281
1
  0
DICTIONARY
  5
8A
330
89
100
AcDbDictionary
280
1
281
1
  0
DICTIONARY
  5
98
330
97
100
AcDbDictionary
280
1
281
1
  0
DICTIONARY
  5
123
330
122
100
AcDbDictionary
280
1
281
1
  0
DICTIONARY
  5
131
330
130
100
AcDbDictionary
280
1
281
1
  0
DICTIONARY
  5
13F
330
13E
100
AcDbDictionary
280
1
281
1
  0
DICTIONARY
  5
15A
330
159
100
AcDbDictionary
280
1
281
1
  0
DICTIONARY
  5
168
330
167
100
AcDbDictionary
280
1
281
1
  0
DICTIONARYVAR
  5
17B
330
2D
100
DictionaryVariables
280
0
  1
1.4.3 @ 2026-05-15T06:57:54.469093+00:00
  0
ENDSEC
  0
EOF
