  0
SECTION
  2
HEADER
  9
$ACADVER
  1
AC1032
  9
$ACADMAINTVER
 90
4
  9
$DWGCODEPAGE
  3
ANSI_1252
  9
$LASTSAVEDBY
  1
ezdxf
  9
$REQUIREDVERSIONS
160
0
  9
$INSBASE
 10
0.0
 20
0.0
 30
0.0
  9
$EXTMIN
 10
1e+20
 20
1e+20
 30
1e+20
  9
$EXTMAX
 10
-1e+20
 20
-1e+20
 30
-1e+20
  9
$LIMMIN
 10
0.0
 20
0.0
  9
$LIMMAX
 10
420.0
 20
297.0
  9
$ORTHOMODE
 70
0
  9
$REGENMODE
 70
1
  9
$FILLMODE
 70
1
  9
$QTEXTMODE
 70
0
  9
$MIRRTEXT
 70
1
  9
$LTSCALE
 40
1.0
  9
$ATTMODE
 70
1
  9
$TEXTSIZE
 40
2.5
  9
$TRACEWID
 40
1.0
  9
$TEXTSTYLE
  7
Standard
  9
$CLAYER
  8
0
  9
$CELTYPE
  6
ByLayer
  9
$CECOLOR
 62
256
  9
$CELTSCALE
 40
1.0
  9
$DISPSILH
 70
0
  9
$DIMSCALE
 40
1.0
  9
$DIMASZ
 40
2.5
  9
$DIMEXO
 40
0.625
  9
$DIMDLI
 40
3.75
  9
$DIMRND
 40
0.0
  9
$DIMDLE
 40
0.0
  9
$DIMEXE
 40
1.25
  9
$DIMTP
 40
0.0
  9
$DIMTM
 40
0.0
  9
$DIMTXT
 40
2.5
  9
$DIMCEN
 40
2.5
  9
$DIMTSZ
 40
0.0
  9
$DIMTOL
 70
0
  9
$DIMLIM
 70
0
  9
$DIMTIH
 70
0
  9
$DIMTOH
 70
0
  9
$DIMSE1
 70
0
  9
$DIMSE2
 70
0
  9
$DIMTAD
 70
1
  9
$DIMZIN
 70
8
  9
$DIMBLK
  1

  9
$DIMASO
 70
1
  9
$DIMSHO
 70
1
  9
$DIMPOST
  1

  9
$DIMAPOST
  1

  9
$DIMALT
 70
0
  9
$DIMALTD
 70
3
  9
$DIMALTF
 40
0.03937007874
  9
$DIMLFAC
 40
1.0
  9
$DIMTOFL
 70
1
  9
$DIMTVP
 40
0.0
  9
$DIMTIX
 70
0
  9
$DIMSOXD
 70
0
  9
$DIMSAH
 70
0
  9
$DIMBLK1
  1

  9
$DIMBLK2
  1

  9
$DIMSTYLE
  2
ISO-25
  9
$DIMCLRD
 70
0
  9
$DIMCLRE
 70
0
  9
$DIMCLRT
 70
0
  9
$DIMTFAC
 40
1.0
  9
$DIMGAP
 40
0.625
  9
$DIMJUST
 70
0
  9
$DIMSD1
 70
0
  9
$DIMSD2
 70
0
  9
$DIMTOLJ
 70
0
  9
$DIMTZIN
 70
8
  9
$DIMALTZ
 70
0
  9
$DIMALTTZ
 70
0
  9
$DIMUPT
 70
0
  9
$DIMDEC
 70
2
  9
$DIMTDEC
 70
2
  9
$DIMALTU
 70
2
  9
$DIMALTTD
 70
3
  9
$DIMTXSTY
  7
Standard
  9
$DIMAUNIT
 70
0
  9
$DIMADEC
 70
0
  9
$DIMALTRND
 40
0.0
  9
$DIMAZIN
 70
0
  9
$DIMDSEP
 70
44
  9
$DIMATFIT
 70
3
  9
$DIMFRAC
 70
0
  9
$DIMLDRBLK
  1

  9
$DIMLUNIT
 70
2
  9
$DIMLWD
 70
-2
  9
$DIMLWE
 70
-2
  9
$DIMTMOVE
 70
0
  9
$DIMFXL
 40
1.0
  9
$DIMFXLON
 70
0
  9
$DIMJOGANG
 40
0.785398163397
  9
$DIMTFILL
 70
0
  9
$DIMTFILLCLR
 70
0
  9
$DIMARCSYM
 70
0
  9
$DIMLTYPE
  6

  9
$DIMLTEX1
  6

  9
$DIMLTEX2
  6

  9
$DIMTXTDIRECTION
 70
0
  9
$LUNITS
 70
2
  9
$LUPREC
 70
4
  9
$SKETCHINC
 40
1.0
  9
$FILLETRAD
 40
10.0
  9
$AUNITS
 70
0
  9
$AUPREC
 70
2
  9
$MENU
  1
.
  9
$ELEVATION
 40
0.0
  9
$PELEVATION
 40
0.0
  9
$THICKNESS
 40
0.0
  9
$LIMCHECK
 70
0
  9
$CHAMFERA
 40
0.0
  9
$CHAMFERB
 40
0.0
  9
$CHAMFERC
 40
0.0
  9
$CHAMFERD
 40
0.0
  9
$SKPOLY
 70
0
  9
$TDCREATE
 40
2461176.290208333
  9
$TDUCREATE
 40
2458532.153996898
  9
$TDUPDATE
 40
2461176.290208333
  9
$TDUUPDATE
 40
2458532.1544311
  9
$TDINDWG
 40
0.0
  9
$TDUSRTIMER
 40
0.0
  9
$USRTIMER
 70
1
  9
$ANGBASE
 50
0.0
  9
$ANGDIR
 70
0
  9
$PDMODE
 70
0
  9
$PDSIZE
 40
0.0
  9
$PLINEWID
 40
0.0
  9
$SPLFRAME
 70
0
  9
$SPLINETYPE
 70
6
  9
$SPLINESEGS
 70
8
  9
$HANDSEED
  5
1FF
  9
$SURFTAB1
 70
6
  9
$SURFTAB2
 70
6
  9
$SURFTYPE
 70
6
  9
$SURFU
 70
6
  9
$SURFV
 70
6
  9
$UCSBASE
  2

  9
$UCSNAME
  2

  9
$UCSORG
 10
0.0
 20
0.0
 30
0.0
  9
$UCSXDIR
 10
1.0
 20
0.0
 30
0.0
  9
$UCSYDIR
 10
0.0
 20
1.0
 30
0.0
  9
$UCSORTHOREF
  2

  9
$UCSORTHOVIEW
 70
0
  9
$UCSORGTOP
 10
0.0
 20
0.0
 30
0.0
  9
$UCSORGBOTTOM
 10
0.0
 20
0.0
 30
0.0
  9
$UCSORGLEFT
 10
0.0
 20
0.0
 30
0.0
  9
$UCSORGRIGHT
 10
0.0
 20
0.0
 30
0.0
  9
$UCSORGFRONT
 10
0.0
 20
0.0
 30
0.0
  9
$UCSORGBACK
 10
0.0
 20
0.0
 30
0.0
  9
$PUCSBASE
  2

  9
$PUCSNAME
  2

  9
$PUCSORG
 10
0.0
 20
0.0
 30
0.0
  9
$PUCSXDIR
 10
1.0
 20
0.0
 30
0.0
  9
$PUCSYDIR
 10
0.0
 20
1.0
 30
0.0
  9
$PUCSORTHOREF
  2

  9
$PUCSORTHOVIEW
 70
0
  9
$PUCSORGTOP
 10
0.0
 20
0.0
 30
0.0
  9
$PUCSORGBOTTOM
 10
0.0
 20
0.0
 30
0.0
  9
$PUCSORGLEFT
 10
0.0
 20
0.0
 30
0.0
  9
$PUCSORGRIGHT
 10
0.0
 20
0.0
 30
0.0
  9
$PUCSORGFRONT
 10
0.0
 20
0.0
 30
0.0
  9
$PUCSORGBACK
 10
0.0
 20
0.0
 30
0.0
  9
$USERI1
 70
0
  9
$USERI2
 70
0
  9
$USERI3
 70
0
  9
$USERI4
 70
0
  9
$USERI5
 70
0
  9
$USERR1
 40
0.0
  9
$USERR2
 40
0.0
  9
$USERR3
 40
0.0
  9
$USERR4
 40
0.0
  9
$USERR5
 40
0.0
  9
$WORLDVIEW
 70
1
  9
$SHADEDGE
 70
3
  9
$SHADEDIF
 70
70
  9
$TILEMODE
 70
1
  9
$MAXACTVP
 70
64
  9
$PINSBASE
 10
0.0
 20
0.0
 30
0.0
  9
$PLIMCHECK
 70
0
  9
$PEXTMIN
 10
1e+20
 20
1e+20
 30
1e+20
  9
$PEXTMAX
 10
-1e+20
 20
-1e+20
 30
-1e+20
  9
$PLIMMIN
 10
0.0
 20
0.0
  9
$PLIMMAX
 10
420.0
 20
297.0
  9
$UNITMODE
 70
0
  9
$VISRETAIN
 70
1
  9
$PLINEGEN
 70
0
  9
$PSLTSCALE
 70
1
  9
$TREEDEPTH
 70
3020
  9
$CMLSTYLE
  2
Standard
  9
$CMLJUST
 70
0
  9
$CMLSCALE
 40
20.0
  9
$PROXYGRAPHICS
 70
1
  9
$MEASUREMENT
 70
1
  9
$CELWEIGHT
370
-1
  9
$ENDCAPS
280
0
  9
$JOINSTYLE
280
0
  9
$LWDISPLAY
290
0
  9
$INSUNITS
 70
6
  9
$HYPERLINKBASE
  1

  9
$STYLESHEET
  1

  9
$XEDIT
290
1
  9
$CEPSNTYPE
380
0
  9
$PSTYLEMODE
290
1
  9
$FINGERPRINTGUID
  2
{96ECCC08-CFB5-4FF1-BE49-0015C919DC37}
  9
$VERSIONGUID
  2
{91E82869-7B8F-42CC-AC41-176F10D6D79B}
  9
$EXTNAMES
290
1
  9
$PSVPSCALE
 40
0.0
  9
$OLESTARTUP
290
0
  9
$SORTENTS
280
127
  9
$INDEXCTL
280
0
  9
$HIDETEXT
280
1
  9
$XCLIPFRAME
280
1
  9
$HALOGAP
280
0
  9
$OBSCOLOR
 70
257
  9
$OBSLTYPE
280
0
  9
$INTERSECTIONDISPLAY
280
0
  9
$INTERSECTIONCOLOR
 70
257
  9
$DIMASSOC
280
2
  9
$PROJECTNAME
  1

  9
$CAMERADISPLAY
290
0
  9
$LENSLENGTH
 40
50.0
  9
$CAMERAHEIGHT
 40
0.0
  9
$STEPSPERSEC
 40
24.0
  9
$STEPSIZE
 40
100.0
  9
$3DDWFPREC
 40
2.0
  9
$PSOLWIDTH
 40
0.005
  9
$PSOLHEIGHT
 40
0.08
  9
$LOFTANG1
 40
1.570796326795
  9
$LOFTANG2
 40
1.570796326795
  9
$LOFTMAG1
 40
0.0
  9
$LOFTMAG2
 40
0.0
  9
$LOFTPARAM
 70
7
  9
$LOFTNORMALS
280
1
  9
$LATITUDE
 40
37.795
  9
$LONGITUDE
 40
-122.394
  9
$NORTHDIRECTION
 40
0.0
  9
$TIMEZONE
 70
-8000
  9
$LIGHTGLYPHDISPLAY
280
1
  9
$TILEMODELIGHTSYNCH
280
1
  9
$CMATERIAL
347
20
  9
$SOLIDHIST
280
0
  9
$SHOWHIST
280
1
  9
$DWFFRAME
280
2
  9
$DGNFRAME
280
2
  9
$REALWORLDSCALE
290
1
  9
$INTERFERECOLOR
 62
256
  9
$CSHADOW
280
0
  9
$SHADOWPLANELOCATION
 40
0.0
  0
ENDSEC
  0
SECTION
  2
CLASSES
  0
CLASS
  1
ACDBDICTIONARYWDFLT
  2
AcDbDictionaryWithDefault
  3
ObjectDBX Classes
 90
0
 91
0
280
0
281
0
  0
CLASS
  1
SUN
  2
AcDbSun
  3
SCENEOE
 90
1153
 91
0
280
0
281
0
  0
CLASS
  1
VISUALSTYLE
  2
AcDbVisualStyle
  3
ObjectDBX Classes
 90
4095
 91
0
280
0
281
0
  0
CLASS
  1
MATERIAL
  2
AcDbMaterial
  3
ObjectDBX Classes
 90
1153
 91
0
280
0
281
0
  0
CLASS
  1
SCALE
  2
AcDbScale
  3
ObjectDBX Classes
 90
1153
 91
0
280
0
281
0
  0
CLASS
  1
TABLESTYLE
  2
AcDbTableStyle
  3
ObjectDBX Classes
 90
4095
 91
0
280
0
281
0
  0
CLASS
  1
MLEADERSTYLE
  2
AcDbMLeaderStyle
  3
ACDB_MLEADERSTYLE_CLASS
 90
4095
 91
0
280
0
281
0
  0
CLASS
  1
DICTIONARYVAR
  2
AcDbDictionaryVar
  3
ObjectDBX Classes
 90
0
 91
0
280
0
281
0
  0
CLASS
  1
CELLSTYLEMAP
  2
AcDbCellStyleMap
  3
ObjectDBX Classes
 90
1152
 91
0
280
0
281
0
  0
CLASS
  1
MENTALRAYRENDERSETTINGS
  2
AcDbMentalRayRenderSettings
  3
SCENEOE
 90
1024
 91
0
280
0
281
0
  0
CLASS
  1
ACDBDETAILVIEWSTYLE
  2
AcDbDetailViewStyle
  3
ObjectDBX Classes
 90
1025
 91
0
280
0
281
0
  0
CLASS
  1
ACDBSECTIONVIEWSTYLE
  2
AcDbSectionViewStyle
  3
ObjectDBX Classes
 90
1025
 91
0
280
0
281
0
  0
CLASS
  1
RASTERVARIABLES
  2
AcDbRasterVariables
  3
ISM
 90
0
 91
0
280
0
281
0
  0
CLASS
  1
LAYOUT
  2
AcDbLayout
  3
ObjectDBX Classes
 90
0
 91
0
280
0
281
0
  0
CLASS
  1
ACDBPLACEHOLDER
  2
AcDbPlaceHolder
  3
ObjectDBX Classes
 90
0
 91
0
280
0
281
0
  0
ENDSEC
  0
SECTION
  2
TABLES
  0
TABLE
  2
VPORT
  5
8
330
0
100
AcDbSymbolTable
 70
1
  0
VPORT
  5
23
330
8
100
AcDbSymbolTableRecord
100
AcDbViewportTableRecord
  2
*Active
 70
0
 10
0.0
 20
0.0
 11
1.0
 21
1.0
 12
0.0
 22
0.0
 13
0.0
 23
0.0
 14
0.5
 24
0.5
 15
0.5
 25
0.5
 16
0.0
 26
0.0
 36
1.0
 17
0.0
 27
0.0
 37
0.0
 40
1000.0
 41
1.34
 42
50.0
 43
0.0
 44
0.0
 50
0.0
 51
0.0
 71
0
 72
1000
 73
1
 74
3
 75
0
 76
0
 77
0
 78
0
281
0
 65
0
146
0.0
  0
ENDTAB
  0
TABLE
  2
LTYPE
  5
2
330
0
100
AcDbSymbolTable
 70
3
  0
LTYPE
  5
24
330
2
100
AcDbSymbolTableRecord
100
AcDbLinetypeTableRecord
  2
ByBlock
 70
0
  3

 72
65
 73
0
 40
0.0
  0
LTYPE
  5
25
330
2
100
AcDbSymbolTableRecord
100
AcDbLinetypeTableRecord
  2
ByLayer
 70
0
  3

 72
65
 73
0
 40
0.0
  0
LTYPE
  5
26
330
2
100
AcDbSymbolTableRecord
100
AcDbLinetypeTableRecord
  2
Continuous
 70
0
  3

 72
65
 73
0
 40
0.0
  0
ENDTAB
  0
TABLE
  2
LAYER
  5
1
330
0
100
AcDbSymbolTable
 70
7
  0
LAYER
  5
27
330
1
100
AcDbSymbolTableRecord
100
AcDbLayerTableRecord
  2
0
 70
0
 62
7
  6
Continuous
370
-3
390
13
347
21
  0
LAYER
  5
28
330
1
100
AcDbSymbolTableRecord
100
AcDbLayerTableRecord
  2
Defpoints
 70
0
 62
7
  6
Continuous
290
0
370
-3
390
13
347
21
  0
LAYER
  5
2F
330
1
100
AcDbSymbolTableRecord
100
AcDbLayerTableRecord
  2
MIKRA
 70
0
 62
7
  6
Continuous
370
-3
390
13
347
21
  0
LAYER
  5
30
330
1
100
AcDbSymbolTableRecord
100
AcDbLayerTableRecord
  2
kir
 70
0
 62
7
  6
Continuous
370
-3
390
13
347
21
  0
LAYER
  5
31
330
1
100
AcDbSymbolTableRecord
100
AcDbLayerTableRecord
  2
8
 70
0
 62
7
  6
Continuous
370
-3
390
13
347
21
  0
LAYER
  5
32
330
1
100
AcDbSymbolTableRecord
100
AcDbLayerTableRecord
  2
BAR-GAL
 70
0
 62
7
  6
Continuous
370
-3
390
13
347
21
  0
LAYER
  5
33
330
1
100
AcDbSymbolTableRecord
100
AcDbLayerTableRecord
  2
VP
 70
0
 62
-30
  6
Continuous
370
-3
390
13
347
21
  0
ENDTAB
  0
TABLE
  2
STYLE
  5
5
330
0
100
AcDbSymbolTable
 70
1
  0
STYLE
  5
29
330
5
100
AcDbSymbolTableRecord
100
AcDbTextStyleTableRecord
  2
Standard
 70
0
 40
0.0
 41
1.0
 50
0.0
 71
0
 42
2.5
  3
txt
  4

  0
ENDTAB
  0
TABLE
  2
VIEW
  5
7
330
0
100
AcDbSymbolTable
 70
0
  0
ENDTAB
  0
TABLE
  2
UCS
  5
6
330
0
100
AcDbSymbolTable
 70
0
  0
ENDTAB
  0
TABLE
  2
APPID
  5
3
330
0
100
AcDbSymbolTable
 70
3
  0
APPID
  5
2A
330
3
100
AcDbSymbolTableRecord
100
AcDbRegAppTableRecord
  2
ACAD
 70
0
  0
APPID
  5
1FC
330
3
100
AcDbSymbolTableRecord
100
AcDbRegAppTableRecord
  2
HATCHBACKGROUNDCOLOR
 70
0
  0
APPID
  5
1FD
330
3
100
AcDbSymbolTableRecord
100
AcDbRegAppTableRecord
  2
EZDXF
 70
0
  0
ENDTAB
  0
TABLE
  2
DIMSTYLE
  5
4
330
0
100
AcDbSymbolTable
 70
2
100
AcDbDimStyleTable
  0
DIMSTYLE
105
2B
330
4
100
AcDbSymbolTableRecord
100
AcDbDimStyleTableRecord
  2
Standard
 70
0
 40
1.0
 41
2.5
 42
0.625
 43
3.75
 44
1.25
 45
0.0
 46
0.0
 47
0.0
 48
0.0
 49
2.5
140
2.5
141
2.5
142
0.0
143
0.03937007874
144
1.0
145
0.0
146
1.0
147
0.625
148
0.0
 69
0
 70
0
 71
0
 72
0
 73
0
 74
0
 75
0
 76
0
 77
1
 78
8
 79
3
170
0
171
3
172
1
173
0
174
0
175
0
176
0
177
0
178
0
179
2
271
2
272
2
273
2
274
3
275
0
276
0
277
2
278
44
279
0
280
0
281
0
282
0
283
0
284
8
285
0
286
0
288
0
289
3
290
0
371
-2
372
-2
  0
DIMSTYLE
105
27
330
4
100
AcDbSymbolTableRecord
100
AcDbDimStyleTableRecord
  2
ISO-25
 70
0
 40
1.0
 41
30.0
 42
0.625
 43
3.75
 44
1.25
 45
0.0
 46
0.0
 47
0.0
 48
0.0
 49
2.5
140
30.0
141
2.5
142
0.0
143
0.03937007874016
144
1.0
145
0.0
146
1.0
147
10.0
148
0.0
 69
0
 70
0
 71
0
 72
0
 73
0
 74
0
 75
0
 76
0
 77
1
 78
8
 79
3
170
0
171
3
172
1
173
0
174
0
175
0
176
0
177
0
178
0
179
2
271
0
272
0
273
2
274
3
275
0
276
0
277
2
278
44
279
0
280
0
281
0
282
0
283
0
284
8
285
0
286
0
288
0
289
3
290
0
340
29
371
-2
372
-2
  0
ENDTAB
  0
TABLE
  2
BLOCK_RECORD
  5
9
330
0
100
AcDbSymbolTable
 70
31
  0
BLOCK_RECORD
  5
17
330
9
100
AcDbSymbolTableRecord
100
AcDbBlockTableRecord
  2
*Model_Space
340
1A
 70
0
280
1
281
0
  0
BLOCK_RECORD
  5
1B
330
9
100
AcDbSymbolTableRecord
100
AcDbBlockTableRecord
  2
*Paper_Space
340
1E
 70
0
280
1
281
0
  0
BLOCK_RECORD
  5
37
330
9
100
AcDbSymbolTableRecord
100
AcDbBlockTableRecord
  2
*D1
340
0
 70
0
280
1
281
0
  0
BLOCK_RECORD
  5
44
330
9
100
AcDbSymbolTableRecord
100
AcDbBlockTableRecord
  2
*D2
340
0
 70
0
280
1
281
0
  0
BLOCK_RECORD
  5
52
330
9
100
AcDbSymbolTableRecord
100
AcDbBlockTableRecord
  2
*D3
340
0
 70
0
280
1
281
0
  0
BLOCK_RECORD
  5
5F
330
9
100
AcDbSymbolTableRecord
100
AcDbBlockTableRecord
  2
*D4
340
0
 70
0
280
1
281
0
  0
BLOCK_RECORD
  5
8D
330
9
100
AcDbSymbolTableRecord
100
AcDbBlockTableRecord
  2
*D5
340
0
 70
0
280
1
281
0
  0
BLOCK_RECORD
  5
9A
330
9
100
AcDbSymbolTableRecord
100
AcDbBlockTableRecord
  2
*D6
340
0
 70
0
280
1
281
0
  0
BLOCK_RECORD
  5
AA
330
9
100
AcDbSymbolTableRecord
100
AcDbBlockTableRecord
  2
*D7
340
0
 70
0
280
1
281
0
  0
BLOCK_RECORD
  5
B7
330
9
100
AcDbSymbolTableRecord
100
AcDbBlockTableRecord
  2
*D8
340
0
 70
0
280
1
281
0
  0
BLOCK_RECORD
  5
C4
330
9
100
AcDbSymbolTableRecord
100
AcDbBlockTableRecord
  2
*D9
340
0
 70
0
280
1
281
0
  0
BLOCK_RECORD
  5
D1
330
9
100
AcDbSymbolTableRecord
100
AcDbBlockTableRecord
  2
*D10
340
0
 70
0
280
1
281
0
  0
BLOCK_RECORD
  5
DF
330
9
100
AcDbSymbolTableRecord
100
AcDbBlockTableRecord
  2
*D11
340
0
 70
0
280
1
281
0
  0
BLOCK_RECORD
  5
EC
330
9
100
AcDbSymbolTableRecord
100
AcDbBlockTableRecord
  2
*D12
340
0
 70
0
280
1
281
0
  0
BLOCK_RECORD
  5
F9
330
9
100
AcDbSymbolTableRecord
100
AcDbBlockTableRecord
  2
*D13
340
0
 70
0
280
1
281
0
  0
BLOCK_RECORD
  5
109
330
9
100
AcDbSymbolTableRecord
100
AcDbBlockTableRecord
  2
*D14
340
0
 70
0
280
1
281
0
  0
BLOCK_RECORD
  5
116
330
9
100
AcDbSymbolTableRecord
100
AcDbBlockTableRecord
  2
*D15
340
0
 70
0
280
1
281
0
  0
BLOCK_RECORD
  5
124
330
9
100
AcDbSymbolTableRecord
100
AcDbBlockTableRecord
  2
*D16
340
0
 70
0
280
1
281
0
  0
BLOCK_RECORD
  5
131
330
9
100
AcDbSymbolTableRecord
100
AcDbBlockTableRecord
  2
*D17
340
0
 70
0
280
1
281
0
  0
BLOCK_RECORD
  5
141
330
9
100
AcDbSymbolTableRecord
100
AcDbBlockTableRecord
  2
*D18
340
0
 70
0
280
1
281
0
  0
BLOCK_RECORD
  5
14E
330
9
100
AcDbSymbolTableRecord
100
AcDbBlockTableRecord
  2
*D19
340
0
 70
0
280
1
281
0
  0
BLOCK_RECORD
  5
15B
330
9
100
AcDbSymbolTableRecord
100
AcDbBlockTableRecord
  2
*D20
340
0
 70
0
280
1
281
0
  0
BLOCK_RECORD
  5
16A
330
9
100
AcDbSymbolTableRecord
100
AcDbBlockTableRecord
  2
*D21
340
0
 70
0
280
1
281
0
  0
BLOCK_RECORD
  5
178
330
9
100
AcDbSymbolTableRecord
100
AcDbBlockTableRecord
  2
*D22
340
0
 70
0
280
1
281
0
  0
BLOCK_RECORD
  5
185
330
9
100
AcDbSymbolTableRecord
100
AcDbBlockTableRecord
  2
*D23
340
0
 70
0
280
1
281
0
  0
BLOCK_RECORD
  5
1A4
330
9
100
AcDbSymbolTableRecord
100
AcDbBlockTableRecord
  2
*D24
340
0
 70
0
280
1
281
0
  0
BLOCK_RECORD
  5
1B1
330
9
100
AcDbSymbolTableRecord
100
AcDbBlockTableRecord
  2
*D25
340
0
 70
0
280
1
281
0
  0
BLOCK_RECORD
  5
1BF
330
9
100
AcDbSymbolTableRecord
100
AcDbBlockTableRecord
  2
*D26
340
0
 70
0
280
1
281
0
  0
BLOCK_RECORD
  5
1CC
330
9
100
AcDbSymbolTableRecord
100
AcDbBlockTableRecord
  2
*D27
340
0
 70
0
280
1
281
0
  0
BLOCK_RECORD
  5
1DB
330
9
100
AcDbSymbolTableRecord
100
AcDbBlockTableRecord
  2
*D28
340
0
 70
0
280
1
281
0
  0
BLOCK_RECORD
  5
1E9
330
9
100
AcDbSymbolTableRecord
100
AcDbBlockTableRecord
  2
*D29
340
0
 70
0
280
1
281
0
  0
ENDTAB
  0
ENDSEC
  0
SECTION
  2
BLOCKS
  0
BLOCK
  5
18
330
17
100
AcDbEntity
  8
0
100
AcDbBlockBegin
  2
*Model_Space
 70
0
 10
0.0
 20
0.0
 30
0.0
  3
*Model_Space
  1

  0
ENDBLK
  5
19
330
17
100
AcDbEntity
  8
0
100
AcDbBlockEnd
  0
BLOCK
  5
1C
330
1B
100
AcDbEntity
  8
0
100
AcDbBlockBegin
  2
*Paper_Space
 70
0
 10
0.0
 20
0.0
 30
0.0
  3
*Paper_Space
  1

  0
ENDBLK
  5
1D
330
1B
100
AcDbEntity
  8
0
100
AcDbBlockEnd
  0
BLOCK
  5
38
330
37
100
AcDbEntity
  8
0
100
AcDbBlockBegin
  2
*D1
 70
1
 10
0.0
 20
0.0
 30
0.0
  3
*D1
  1

  0
LINE
  5
3A
330
37
100
AcDbEntity
  8
VP
 62
0
370
-2
440
16777216
100
AcDbLine
 10
1041700.092606977
 20
85324.73707073076
 30
0.0
 11
1041700.092606977
 21
85088.10246383154
 31
0.0
  0
LINE
  5
3B
330
37
100
AcDbEntity
  8
VP
 62
0
370
-2
440
16777216
100
AcDbLine
 10
1044033.740735809
 20
85346.54058749712
 30
0.0
 11
1044033.740735809
 21
85088.10246383154
 31
0.0
  0
LINE
  5
3C
330
37
100
AcDbEntity
  8
VP
 62
0
370
-2
440
16777216
100
AcDbLine
 10
1041735.092606977
 20
85089.35246383154
 30
0.0
 11
1043998.740735809
 21
85089.35246383154
 31
0.0
  0
SOLID
  5
3D
330
37
100
AcDbEntity
  8
VP
 62
0
370
13
440
16777216
100
AcDbTrace
 10
1041735.092606977
 20
85095.18579716489
 30
0.0
 11
1041735.092606977
 21
85083.51913049821
 31
0.0
 12
1041700.092606977
 22
85089.35246383154
 32
0.0
 13
1041700.092606977
 23
85089.35246383154
 33
0.0
  0
SOLID
  5
3E
330
37
100
AcDbEntity
  8
VP
 62
0
370
13
440
16777216
100
AcDbTrace
 10
1043998.740735809
 20
85095.18579716489
 30
0.0
 11
1043998.740735809
 21
85083.51913049821
 31
0.0
 12
1044033.740735809
 22
85089.35246383154
 32
0.0
 13
1044033.740735809
 23
85089.35246383154
 33
0.0
  0
MTEXT
  5
3F
330
37
100
AcDbEntity
  8
VP
 62
0
370
13
440
16777216
100
AcDbMText
 10
1042866.916671393
 20
85117.234455646
 30
0.0
 40
35.0
 41
0.0
 46
0.0
 71
5
  1
2334
  0
POINT
  5
40
330
37
100
AcDbEntity
  8
Defpoints
 62
0
370
13
440
16777216
100
AcDbPoint
 10
1041700.092606977
 20
85325.36207073076
 30
0.0
  0
POINT
  5
41
330
37
100
AcDbEntity
  8
Defpoints
 62
0
370
13
440
16777216
100
AcDbPoint
 10
1044033.740735809
 20
85347.16558749712
 30
0.0
  0
POINT
  5
42
330
37
100
AcDbEntity
  8
Defpoints
 62
0
370
13
440
16777216
100
AcDbPoint
 10
1044033.740735809
 20
85089.35246383154
 30
0.0
  0
ENDBLK
  5
39
330
37
100
AcDbEntity
  8
0
100
AcDbBlockEnd
  0
BLOCK
  5
45
330
44
100
AcDbEntity
  8
0
100
AcDbBlockBegin
  2
*D2
 70
1
 10
0.0
 20
0.0
 30
0.0
  3
*D2
  1

  0
LINE
  5
47
330
44
100
AcDbEntity
  8
VP
 62
0
370
-2
440
16777216
100
AcDbLine
 10
1041699.467606978
 20
85271.15516746635
 30
0.0
 11
1041487.086692986
 21
85271.15516746635
 31
0.0
  0
LINE
  5
48
330
44
100
AcDbEntity
  8
VP
 62
0
370
-2
440
16777216
100
AcDbLine
 10
1041699.467606978
 20
89675.78456499791
 30
0.0
 11
1041487.086692986
 21
89675.78456499791
 31
0.0
  0
LINE
  5
49
330
44
100
AcDbEntity
  8
VP
 62
0
370
-2
440
16777216
100
AcDbLine
 10
1041488.336692986
 20
85306.15516746635
 30
0.0
 11
1041488.336692986
 21
89640.78456499791
 31
0.0
  0
SOLID
  5
4A
330
44
100
AcDbEntity
  8
VP
 62
0
370
13
440
16777216
100
AcDbTrace
 10
1041482.503359653
 20
85306.15516746635
 30
0.0
 11
1041494.17002632
 21
85306.15516746635
 31
0.0
 12
1041488.336692986
 22
85271.15516746635
 32
0.0
 13
1041488.336692986
 23
85271.15516746635
 33
0.0
  0
SOLID
  5
4B
330
44
100
AcDbEntity
  8
VP
 62
0
370
13
440
16777216
100
AcDbTrace
 10
1041482.503359653
 20
89640.78456499791
 30
0.0
 11
1041494.17002632
 21
89640.78456499791
 31
0.0
 12
1041488.336692986
 22
89675.78456499791
 32
0.0
 13
1041488.336692986
 23
89675.78456499791
 33
0.0
  0
MTEXT
  5
4C
330
44
100
AcDbEntity
  8
VP
 62
0
370
13
440
16777216
100
AcDbMText
 10
1041460.466638416
 20
87473.46986623183
 30
0.0
 40
35.0
 41
0.0
 46
0.0
 71
5
  1
4405
 11
1e-16
 21
1.0
 31
0.0
  0
POINT
  5
4D
330
44
100
AcDbEntity
  8
Defpoints
 62
0
370
13
440
16777216
100
AcDbPoint
 10
1041700.092606978
 20
85271.15516746635
 30
0.0
  0
POINT
  5
4E
330
44
100
AcDbEntity
  8
Defpoints
 62
0
370
13
440
16777216
100
AcDbPoint
 10
1041700.092606978
 20
89675.78456499791
 30
0.0
  0
POINT
  5
4F
330
44
100
AcDbEntity
  8
Defpoints
 62
0
370
13
440
16777216
100
AcDbPoint
 10
1041488.336692986
 20
89675.78456499791
 30
0.0
  0
ENDBLK
  5
46
330
44
100
AcDbEntity
  8
0
100
AcDbBlockEnd
  0
BLOCK
  5
53
330
52
100
AcDbEntity
  8
0
100
AcDbBlockBegin
  2
*D3
 70
1
 10
0.0
 20
0.0
 30
0.0
  3
*D3
  1

  0
LINE
  5
55
330
52
100
AcDbEntity
  8
VP
 62
0
370
-2
440
16777216
100
AcDbLine
 10
1044033.286783305
 20
85273.04811418997
 30
0.0
 11
1044181.650945608
 21
85273.04811418997
 31
0.0
  0
LINE
  5
56
330
52
100
AcDbEntity
  8
VP
 62
0
370
-2
440
16777216
100
AcDbLine
 10
1044034.305776438
 20
89678.54048481285
 30
0.0
 11
1044181.650945608
 21
89678.54048481285
 31
0.0
  0
LINE
  5
57
330
52
100
AcDbEntity
  8
VP
 62
0
370
-2
440
16777216
100
AcDbLine
 10
1044180.400945608
 20
85308.04811418997
 30
0.0
 11
1044180.400945608
 21
89643.54048481284
 31
0.0
  0
SOLID
  5
58
330
52
100
AcDbEntity
  8
VP
 62
0
370
13
440
16777216
100
AcDbTrace
 10
1044174.567612275
 20
85308.04811418997
 30
0.0
 11
1044186.234278942
 21
85308.04811418997
 31
0.0
 12
1044180.400945608
 22
85273.04811418997
 32
0.0
 13
1044180.400945608
 23
85273.04811418997
 33
0.0
  0
SOLID
  5
59
330
52
100
AcDbEntity
  8
VP
 62
0
370
13
440
16777216
100
AcDbTrace
 10
1044174.567612275
 20
89643.54048481284
 30
0.0
 11
1044186.234278942
 21
89643.54048481284
 31
0.0
 12
1044180.400945608
 22
89678.54048481285
 32
0.0
 13
1044180.400945608
 23
89678.54048481285
 33
0.0
  0
MTEXT
  5
5A
330
52
100
AcDbEntity
  8
VP
 62
0
370
13
440
16777216
100
AcDbMText
 10
1044152.530891038
 20
87475.79429950111
 30
0.0
 40
35.0
 41
0.0
 46
0.0
 71
5
  1
4405
 11
1e-16
 21
1.0
 31
0.0
  0
POINT
  5
5B
330
52
100
AcDbEntity
  8
Defpoints
 62
0
370
13
440
16777216
100
AcDbPoint
 10
1044032.661783305
 20
85273.04811418997
 30
0.0
  0
POINT
  5
5C
330
52
100
AcDbEntity
  8
Defpoints
 62
0
370
13
440
16777216
100
AcDbPoint
 10
1044033.680776438
 20
89678.54048481285
 30
0.0
  0
POINT
  5
5D
330
52
100
AcDbEntity
  8
Defpoints
 62
0
370
13
440
16777216
100
AcDbPoint
 10
1044180.400945608
 20
89678.54048481285
 30
0.0
  0
ENDBLK
  5
54
330
52
100
AcDbEntity
  8
0
100
AcDbBlockEnd
  0
BLOCK
  5
60
330
5F
100
AcDbEntity
  8
0
100
AcDbBlockBegin
  2
*D4
 70
1
 10
0.0
 20
0.0
 30
0.0
  3
*D4
  1

  0
LINE
  5
62
330
5F
100
AcDbEntity
  8
VP
 62
0
370
-2
440
16777216
100
AcDbLine
 10
1041700.092606977
 20
89676.40956499788
 30
0.0
 11
1041700.092606977
 21
89770.75988070405
 31
0.0
  0
LINE
  5
63
330
5F
100
AcDbEntity
  8
VP
 62
0
370
-2
440
16777216
100
AcDbLine
 10
1044032.894979966
 20
89672.19701494704
 30
0.0
 11
1044032.894979966
 21
89770.75988070405
 31
0.0
  0
LINE
  5
64
330
5F
100
AcDbEntity
  8
VP
 62
0
370
-2
440
16777216
100
AcDbLine
 10
1041735.092606977
 20
89769.50988070403
 30
0.0
 11
1043997.894979966
 21
89769.50988070403
 31
0.0
  0
SOLID
  5
65
330
5F
100
AcDbEntity
  8
VP
 62
0
370
13
440
16777216
100
AcDbTrace
 10
1041735.092606977
 20
89775.34321403738
 30
0.0
 11
1041735.092606977
 21
89763.67654737073
 31
0.0
 12
1041700.092606977
 22
89769.50988070403
 32
0.0
 13
1041700.092606977
 23
89769.50988070403
 33
0.0
  0
SOLID
  5
66
330
5F
100
AcDbEntity
  8
VP
 62
0
370
13
440
16777216
100
AcDbTrace
 10
1043997.894979966
 20
89775.34321403738
 30
0.0
 11
1043997.894979966
 21
89763.67654737073
 31
0.0
 12
1044032.894979966
 22
89769.50988070403
 32
0.0
 13
1044032.894979966
 23
89769.50988070403
 33
0.0
  0
MTEXT
  5
67
330
5F
100
AcDbEntity
  8
VP
 62
0
370
13
440
16777216
100
AcDbMText
 10
1042866.493793471
 20
89797.3918725185
 30
0.0
 40
35.0
 41
0.0
 46
0.0
 71
5
  1
2333
  0
POINT
  5
68
330
5F
100
AcDbEntity
  8
Defpoints
 62
0
370
13
440
16777216
100
AcDbPoint
 10
1041700.092606977
 20
89675.78456499788
 30
0.0
  0
POINT
  5
69
330
5F
100
AcDbEntity
  8
Defpoints
 62
0
370
13
440
16777216
100
AcDbPoint
 10
1044032.894979966
 20
89671.57201494704
 30
0.0
  0
POINT
  5
6A
330
5F
100
AcDbEntity
  8
Defpoints
 62
0
370
13
440
16777216
100
AcDbPoint
 10
1044032.894979966
 20
89769.50988070403
 30
0.0
  0
ENDBLK
  5
61
330
5F
100
AcDbEntity
  8
0
100
AcDbBlockEnd
  0
BLOCK
  5
8E
330
8D
100
AcDbEntity
  8
0
100
AcDbBlockBegin
  2
*D5
 70
1
 10
0.0
 20
0.0
 30
0.0
  3
*D5
  1

  0
LINE
  5
90
330
8D
100
AcDbEntity
  8
VP
 62
0
370
-2
440
16777216
100
AcDbLine
 10
1042930.271566772
 20
87156.26051566526
 30
0.0
 11
1042985.020764506
 21
87156.26051566526
 31
0.0
  0
LINE
  5
91
330
8D
100
AcDbEntity
  8
VP
 62
0
370
-2
440
16777216
100
AcDbLine
 10
1042930.271566772
 20
87546.24714456566
 30
0.0
 11
1042985.020764506
 21
87546.24714456566
 31
0.0
  0
LINE
  5
92
330
8D
100
AcDbEntity
  8
VP
 62
0
370
-2
440
16777216
100
AcDbLine
 10
1042983.770764506
 20
87191.26051566526
 30
0.0
 11
1042983.770764506
 21
87511.24714456566
 31
0.0
  0
SOLID
  5
93
330
8D
100
AcDbEntity
  8
VP
 62
0
370
13
440
16777216
100
AcDbTrace
 10
1042977.937431173
 20
87191.26051566526
 30
0.0
 11
1042989.60409784
 21
87191.26051566526
 31
0.0
 12
1042983.770764506
 22
87156.26051566526
 32
0.0
 13
1042983.770764506
 23
87156.26051566526
 33
0.0
  0
SOLID
  5
94
330
8D
100
AcDbEntity
  8
VP
 62
0
370
13
440
16777216
100
AcDbTrace
 10
1042977.937431173
 20
87511.24714456566
 30
0.0
 11
1042989.60409784
 21
87511.24714456566
 31
0.0
 12
1042983.770764506
 22
87546.24714456566
 32
0.0
 13
1042983.770764506
 23
87546.24714456566
 33
0.0
  0
MTEXT
  5
95
330
8D
100
AcDbEntity
  8
VP
 62
0
370
13
440
16777216
100
AcDbMText
 10
1042955.888772691
 20
87351.25383011515
 30
0.0
 40
35.0
 41
0.0
 46
0.0
 71
5
  1
390
 11
1e-16
 21
1.0
 31
0.0
  0
POINT
  5
96
330
8D
100
AcDbEntity
  8
Defpoints
 62
0
370
13
440
16777216
100
AcDbPoint
 10
1042929.646566773
 20
87156.26051566526
 30
0.0
  0
POINT
  5
97
330
8D
100
AcDbEntity
  8
Defpoints
 62
0
370
13
440
16777216
100
AcDbPoint
 10
1042929.646566773
 20
87546.24714456566
 30
0.0
  0
POINT
  5
98
330
8D
100
AcDbEntity
  8
Defpoints
 62
0
370
13
440
16777216
100
AcDbPoint
 10
1042983.770764506
 20
87546.24714456566
 30
0.0
  0
ENDBLK
  5
8F
330
8D
100
AcDbEntity
  8
0
100
AcDbBlockEnd
  0
BLOCK
  5
9B
330
9A
100
AcDbEntity
  8
0
100
AcDbBlockBegin
  2
*D6
 70
1
 10
0.0
 20
0.0
 30
0.0
  3
*D6
  1

  0
LINE
  5
9D
330
9A
100
AcDbEntity
  8
VP
 62
0
370
-2
440
16777216
100
AcDbLine
 10
1042649.155872368
 20
87493.41724858739
 30
0.0
 11
1042649.155872368
 21
87596.88319419463
 31
0.0
  0
LINE
  5
9E
330
9A
100
AcDbEntity
  8
VP
 62
0
370
-2
440
16777216
100
AcDbLine
 10
1042929.646566772
 20
87492.46206958423
 30
0.0
 11
1042929.646566772
 21
87596.88319419463
 31
0.0
  0
LINE
  5
9F
330
9A
100
AcDbEntity
  8
VP
 62
0
370
-2
440
16777216
100
AcDbLine
 10
1042684.155872368
 20
87595.63319419461
 30
0.0
 11
1042894.646566772
 21
87595.63319419461
 31
0.0
  0
SOLID
  5
A0
330
9A
100
AcDbEntity
  8
VP
 62
0
370
13
440
16777216
100
AcDbTrace
 10
1042684.155872368
 20
87601.46652752794
 30
0.0
 11
1042684.155872368
 21
87589.79986086128
 31
0.0
 12
1042649.155872368
 22
87595.63319419461
 32
0.0
 13
1042649.155872368
 23
87595.63319419461
 33
0.0
  0
SOLID
  5
A1
330
9A
100
AcDbEntity
  8
VP
 62
0
370
13
440
16777216
100
AcDbTrace
 10
1042894.646566772
 20
87601.46652752794
 30
0.0
 11
1042894.646566772
 21
87589.79986086128
 31
0.0
 12
1042929.646566772
 22
87595.63319419461
 32
0.0
 13
1042929.646566772
 23
87595.63319419461
 33
0.0
  0
MTEXT
  5
A2
330
9A
100
AcDbEntity
  8
VP
 62
0
370
13
440
16777216
100
AcDbMText
 10
1042789.40121957
 20
87623.50324876489
 30
0.0
 40
35.0
 41
0.0
 46
0.0
 71
5
  1
280
  0
POINT
  5
A3
330
9A
100
AcDbEntity
  8
Defpoints
 62
0
370
13
440
16777216
100
AcDbPoint
 10
1042649.155872368
 20
87492.79224858739
 30
0.0
  0
POINT
  5
A4
330
9A
100
AcDbEntity
  8
Defpoints
 62
0
370
13
440
16777216
100
AcDbPoint
 10
1042929.646566772
 20
87491.83706958422
 30
0.0
  0
POINT
  5
A5
330
9A
100
AcDbEntity
  8
Defpoints
 62
0
370
13
440
16777216
100
AcDbPoint
 10
1042929.646566772
 20
87595.63319419461
 30
0.0
  0
ENDBLK
  5
9C
330
9A
100
AcDbEntity
  8
0
100
AcDbBlockEnd
  0
BLOCK
  5
AB
330
AA
100
AcDbEntity
  8
0
100
AcDbBlockBegin
  2
*D7
 70
1
 10
0.0
 20
0.0
 30
0.0
  3
*D7
  1

  0
LINE
  5
AD
330
AA
100
AcDbEntity
  8
VP
 62
0
370
-2
440
16777216
100
AcDbLine
 10
1042650.040495171
 20
87942.8376444651
 30
0.0
 11
1042650.040495171
 21
87989.83886413125
 31
0.0
  0
LINE
  5
AE
330
AA
100
AcDbEntity
  8
VP
 62
0
370
-2
440
16777216
100
AcDbLine
 10
1043030.008069014
 20
87941.16560866628
 30
0.0
 11
1043030.008069014
 21
87989.83886413125
 31
0.0
  0
LINE
  5
AF
330
AA
100
AcDbEntity
  8
VP
 62
0
370
-2
440
16777216
100
AcDbLine
 10
1042685.040495171
 20
87988.58886413125
 30
0.0
 11
1042995.008069014
 21
87988.58886413125
 31
0.0
  0
SOLID
  5
B0
330
AA
100
AcDbEntity
  8
VP
 62
0
370
13
440
16777216
100
AcDbTrace
 10
1042685.040495171
 20
87994.42219746458
 30
0.0
 11
1042685.040495171
 21
87982.75553079792
 31
0.0
 12
1042650.040495171
 22
87988.58886413125
 32
0.0
 13
1042650.040495171
 23
87988.58886413125
 33
0.0
  0
SOLID
  5
B1
330
AA
100
AcDbEntity
  8
VP
 62
0
370
13
440
16777216
100
AcDbTrace
 10
1042995.008069014
 20
87994.42219746458
 30
0.0
 11
1042995.008069014
 21
87982.75553079792
 31
0.0
 12
1043030.008069014
 22
87988.58886413125
 32
0.0
 13
1043030.008069014
 23
87988.58886413125
 33
0.0
  0
MTEXT
  5
B2
330
AA
100
AcDbEntity
  8
VP
 62
0
370
13
440
16777216
100
AcDbMText
 10
1042840.024282093
 20
88016.4708559457
 30
0.0
 40
35.0
 41
0.0
 46
0.0
 71
5
  1
380
  0
POINT
  5
B3
330
AA
100
AcDbEntity
  8
Defpoints
 62
0
370
13
440
16777216
100
AcDbPoint
 10
1042650.040495171
 20
87942.2126444651
 30
0.0
  0
POINT
  5
B4
330
AA
100
AcDbEntity
  8
Defpoints
 62
0
370
13
440
16777216
100
AcDbPoint
 10
1043030.008069014
 20
87940.54060866628
 30
0.0
  0
POINT
  5
B5
330
AA
100
AcDbEntity
  8
Defpoints
 62
0
370
13
440
16777216
100
AcDbPoint
 10
1043030.008069014
 20
87988.58886413125
 30
0.0
  0
ENDBLK
  5
AC
330
AA
100
AcDbEntity
  8
0
100
AcDbBlockEnd
  0
BLOCK
  5
B8
330
B7
100
AcDbEntity
  8
0
100
AcDbBlockBegin
  2
*D8
 70
1
 10
0.0
 20
0.0
 30
0.0
  3
*D8
  1

  0
LINE
  5
BA
330
B7
100
AcDbEntity
  8
VP
 62
0
370
-2
440
16777216
100
AcDbLine
 10
1042649.415495172
 20
87942.21264446512
 30
0.0
 11
1042598.894284525
 21
87942.21264446512
 31
0.0
  0
LINE
  5
BB
330
B7
100
AcDbEntity
  8
VP
 62
0
370
-2
440
16777216
100
AcDbLine
 10
1042646.434437199
 20
87762.49017006098
 30
0.0
 11
1042598.894284525
 21
87762.49017006098
 31
0.0
  0
LINE
  5
BC
330
B7
100
AcDbEntity
  8
VP
 62
0
370
-2
440
16777216
100
AcDbLine
 10
1042600.144284525
 20
87907.21264446512
 30
0.0
 11
1042600.144284525
 21
87797.49017006098
 31
0.0
  0
SOLID
  5
BD
330
B7
100
AcDbEntity
  8
VP
 62
0
370
13
440
16777216
100
AcDbTrace
 10
1042594.310951191
 20
87907.21264446512
 30
0.0
 11
1042605.977617858
 21
87907.21264446512
 31
0.0
 12
1042600.144284525
 22
87942.21264446512
 32
0.0
 13
1042600.144284525
 23
87942.21264446512
 33
0.0
  0
SOLID
  5
BE
330
B7
100
AcDbEntity
  8
VP
 62
0
370
13
440
16777216
100
AcDbTrace
 10
1042594.310951191
 20
87797.49017006098
 30
0.0
 11
1042605.977617858
 21
87797.49017006098
 31
0.0
 12
1042600.144284525
 22
87762.49017006098
 32
0.0
 13
1042600.144284525
 23
87762.49017006098
 33
0.0
  0
MTEXT
  5
BF
330
B7
100
AcDbEntity
  8
VP
 62
0
370
13
440
16777216
100
AcDbMText
 10
1042572.274229954
 20
87852.35140726274
 30
0.0
 40
35.0
 41
0.0
 46
0.0
 71
5
  1
180
 11
1e-16
 21
1.0
 31
0.0
  0
POINT
  5
C0
330
B7
100
AcDbEntity
  8
Defpoints
 62
0
370
13
440
16777216
100
AcDbPoint
 10
1042650.040495172
 20
87942.21264446512
 30
0.0
  0
POINT
  5
C1
330
B7
100
AcDbEntity
  8
Defpoints
 62
0
370
13
440
16777216
100
AcDbPoint
 10
1042647.059437199
 20
87762.49017006098
 30
0.0
  0
POINT
  5
C2
330
B7
100
AcDbEntity
  8
Defpoints
 62
0
370
13
440
16777216
100
AcDbPoint
 10
1042600.144284525
 20
87762.49017006098
 30
0.0
  0
ENDBLK
  5
B9
330
B7
100
AcDbEntity
  8
0
100
AcDbBlockEnd
  0
BLOCK
  5
C5
330
C4
100
AcDbEntity
  8
0
100
AcDbBlockBegin
  2
*D9
 70
1
 10
0.0
 20
0.0
 30
0.0
  3
*D9
  1

  0
LINE
  5
C7
330
C4
100
AcDbEntity
  8
VP
 62
0
370
-2
440
16777216
100
AcDbLine
 10
1043002.713006707
 20
87951.01691399052
 30
0.0
 11
1043072.758540204
 21
87951.01691399052
 31
0.0
  0
LINE
  5
C8
330
C4
100
AcDbEntity
  8
VP
 62
0
370
-2
440
16777216
100
AcDbLine
 10
1043004.616951891
 20
87035.97406487064
 30
0.0
 11
1043072.758540204
 21
87035.97406487064
 31
0.0
  0
LINE
  5
C9
330
C4
100
AcDbEntity
  8
VP
 62
0
370
-2
440
16777216
100
AcDbLine
 10
1043071.508540204
 20
87916.0169139905
 30
0.0
 11
1043071.508540204
 21
87070.97406487065
 31
0.0
  0
SOLID
  5
CA
330
C4
100
AcDbEntity
  8
VP
 62
0
370
13
440
16777216
100
AcDbTrace
 10
1043065.67520687
 20
87916.0169139905
 30
0.0
 11
1043077.341873537
 21
87916.0169139905
 31
0.0
 12
1043071.508540204
 22
87951.01691399052
 32
0.0
 13
1043071.508540204
 23
87951.01691399052
 33
0.0
  0
SOLID
  5
CB
330
C4
100
AcDbEntity
  8
VP
 62
0
370
13
440
16777216
100
AcDbTrace
 10
1043065.67520687
 20
87070.97406487065
 30
0.0
 11
1043077.341873537
 21
87070.97406487065
 31
0.0
 12
1043071.508540204
 22
87035.97406487064
 32
0.0
 13
1043071.508540204
 23
87035.97406487064
 33
0.0
  0
MTEXT
  5
CC
330
C4
100
AcDbEntity
  8
VP
 62
0
370
13
440
16777216
100
AcDbMText
 10
1043043.638485633
 20
87493.49548943028
 30
0.0
 40
35.0
 41
0.0
 46
0.0
 71
5
  1
915
 11
1e-16
 21
1.0
 31
0.0
  0
POINT
  5
CD
330
C4
100
AcDbEntity
  8
Defpoints
 62
0
370
13
440
16777216
100
AcDbPoint
 10
1043002.088006707
 20
87951.01691399052
 30
0.0
  0
POINT
  5
CE
330
C4
100
AcDbEntity
  8
Defpoints
 62
0
370
13
440
16777216
100
AcDbPoint
 10
1043003.991951891
 20
87035.97406487064
 30
0.0
  0
POINT
  5
CF
330
C4
100
AcDbEntity
  8
Defpoints
 62
0
370
13
440
16777216
100
AcDbPoint
 10
1043071.508540204
 20
87035.97406487064
 30
0.0
  0
ENDBLK
  5
C6
330
C4
100
AcDbEntity
  8
0
100
AcDbBlockEnd
  0
BLOCK
  5
D2
330
D1
100
AcDbEntity
  8
0
100
AcDbBlockBegin
  2
*D10
 70
1
 10
0.0
 20
0.0
 30
0.0
  3
*D10
  1

  0
LINE
  5
D4
330
D1
100
AcDbEntity
  8
VP
 62
0
370
-2
440
16777216
100
AcDbLine
 10
1043100.070662761
 20
87025.19089683381
 30
0.0
 11
1043100.070662761
 21
86973.23784278726
 31
0.0
  0
LINE
  5
D5
330
D1
100
AcDbEntity
  8
VP
 62
0
370
-2
440
16777216
100
AcDbLine
 10
1042889.990442632
 20
87027.4916760315
 30
0.0
 11
1042889.990442632
 21
86973.23784278726
 31
0.0
  0
LINE
  5
D6
330
D1
100
AcDbEntity
  8
VP
 62
0
370
-2
440
16777216
100
AcDbLine
 10
1043065.070662761
 20
86974.48784278726
 30
0.0
 11
1042924.990442632
 21
86974.48784278726
 31
0.0
  0
SOLID
  5
D7
330
D1
100
AcDbEntity
  8
VP
 62
0
370
13
440
16777216
100
AcDbTrace
 10
1043065.070662761
 20
86980.3211761206
 30
0.0
 11
1043065.070662761
 21
86968.65450945393
 31
0.0
 12
1043100.070662761
 22
86974.48784278726
 32
0.0
 13
1043100.070662761
 23
86974.48784278726
 33
0.0
  0
SOLID
  5
D8
330
D1
100
AcDbEntity
  8
VP
 62
0
370
13
440
16777216
100
AcDbTrace
 10
1042924.990442632
 20
86980.3211761206
 30
0.0
 11
1042924.990442632
 21
86968.65450945393
 31
0.0
 12
1042889.990442632
 22
86974.48784278726
 32
0.0
 13
1042889.990442632
 23
86974.48784278726
 33
0.0
  0
MTEXT
  5
D9
330
D1
100
AcDbEntity
  8
VP
 62
0
370
13
440
16777216
100
AcDbMText
 10
1042995.030552696
 20
87002.3578973575
 30
0.0
 40
35.0
 41
0.0
 46
0.0
 71
5
  1
210
  0
POINT
  5
DA
330
D1
100
AcDbEntity
  8
Defpoints
 62
0
370
13
440
16777216
100
AcDbPoint
 10
1043100.070662761
 20
87025.81589683381
 30
0.0
  0
POINT
  5
DB
330
D1
100
AcDbEntity
  8
Defpoints
 62
0
370
13
440
16777216
100
AcDbPoint
 10
1042889.990442632
 20
87028.1166760315
 30
0.0
  0
POINT
  5
DC
330
D1
100
AcDbEntity
  8
Defpoints
 62
0
370
13
440
16777216
100
AcDbPoint
 10
1042889.990442632
 20
86974.48784278726
 30
0.0
  0
ENDBLK
  5
D3
330
D1
100
AcDbEntity
  8
0
100
AcDbBlockEnd
  0
BLOCK
  5
E0
330
DF
100
AcDbEntity
  8
0
100
AcDbBlockBegin
  2
*D11
 70
1
 10
0.0
 20
0.0
 30
0.0
  3
*D11
  1

  0
LINE
  5
E2
330
DF
100
AcDbEntity
  8
VP
 62
0
370
-2
440
16777216
100
AcDbLine
 10
1042938.023575314
 20
85764.79033061893
 30
0.0
 11
1042938.023575314
 21
85817.78375163832
 31
0.0
  0
LINE
  5
E3
330
DF
100
AcDbEntity
  8
VP
 62
0
370
-2
440
16777216
100
AcDbLine
 10
1043423.286716671
 20
85760.34656866846
 30
0.0
 11
1043423.286716671
 21
85817.78375163832
 31
0.0
  0
LINE
  5
E4
330
DF
100
AcDbEntity
  8
VP
 62
0
370
-2
440
16777216
100
AcDbLine
 10
1042968.023575314
 20
85816.53375163832
 30
0.0
 11
1043393.286716671
 21
85816.53375163832
 31
0.0
  0
SOLID
  5
E5
330
DF
100
AcDbEntity
  8
VP
 62
0
370
13
440
16777216
100
AcDbTrace
 10
1042968.023575314
 20
85821.53375163832
 30
0.0
 11
1042968.023575314
 21
85811.53375163832
 31
0.0
 12
1042938.023575314
 22
85816.53375163832
 32
0.0
 13
1042938.023575314
 23
85816.53375163832
 33
0.0
  0
SOLID
  5
E6
330
DF
100
AcDbEntity
  8
VP
 62
0
370
13
440
16777216
100
AcDbTrace
 10
1043393.286716671
 20
85821.53375163832
 30
0.0
 11
1043393.286716671
 21
85811.53375163832
 31
0.0
 12
1043423.286716671
 22
85816.53375163832
 32
0.0
 13
1043423.286716671
 23
85816.53375163832
 33
0.0
  0
MTEXT
  5
E7
330
DF
100
AcDbEntity
  8
VP
 62
0
370
13
440
16777216
100
AcDbMText
 10
1043180.655145992
 20
85841.85094126996
 30
0.0
 40
30.0
 41
0.0
 46
0.0
 71
5
  1
485
  0
POINT
  5
E8
330
DF
100
AcDbEntity
  8
Defpoints
 62
0
370
13
440
16777216
100
AcDbPoint
 10
1042938.023575314
 20
85764.16533061895
 30
0.0
  0
POINT
  5
E9
330
DF
100
AcDbEntity
  8
Defpoints
 62
0
370
13
440
16777216
100
AcDbPoint
 10
1043423.286716671
 20
85759.72156866846
 30
0.0
  0
POINT
  5
EA
330
DF
100
AcDbEntity
  8
Defpoints
 62
0
370
13
440
16777216
100
AcDbPoint
 10
1043423.286716671
 20
85816.53375163832
 30
0.0
  0
ENDBLK
  5
E1
330
DF
100
AcDbEntity
  8
0
100
AcDbBlockEnd
  0
BLOCK
  5
ED
330
EC
100
AcDbEntity
  8
0
100
AcDbBlockBegin
  2
*D12
 70
1
 10
0.0
 20
0.0
 30
0.0
  3
*D12
  1

  0
LINE
  5
EF
330
EC
100
AcDbEntity
  8
VP
 62
0
370
-2
440
16777216
100
AcDbLine
 10
1042938.19469558
 20
85763.03083469308
 30
0.0
 11
1042938.19469558
 21
85817.78375163832
 31
0.0
  0
LINE
  5
F0
330
EC
100
AcDbEntity
  8
VP
 62
0
370
-2
440
16777216
100
AcDbLine
 10
1042748.276863378
 20
85761.82993933384
 30
0.0
 11
1042748.276863378
 21
85817.78375163832
 31
0.0
  0
LINE
  5
F1
330
EC
100
AcDbEntity
  8
VP
 62
0
370
-2
440
16777216
100
AcDbLine
 10
1042908.19469558
 20
85816.53375163832
 30
0.0
 11
1042778.276863378
 21
85816.53375163832
 31
0.0
  0
SOLID
  5
F2
330
EC
100
AcDbEntity
  8
VP
 62
0
370
13
440
16777216
100
AcDbTrace
 10
1042908.19469558
 20
85821.53375163832
 30
0.0
 11
1042908.19469558
 21
85811.53375163832
 31
0.0
 12
1042938.19469558
 22
85816.53375163832
 32
0.0
 13
1042938.19469558
 23
85816.53375163832
 33
0.0
  0
SOLID
  5
F3
330
EC
100
AcDbEntity
  8
VP
 62
0
370
13
440
16777216
100
AcDbTrace
 10
1042778.276863378
 20
85821.53375163832
 30
0.0
 11
1042778.276863378
 21
85811.53375163832
 31
0.0
 12
1042748.276863378
 22
85816.53375163832
 32
0.0
 13
1042748.276863378
 23
85816.53375163832
 33
0.0
  0
MTEXT
  5
F4
330
EC
100
AcDbEntity
  8
VP
 62
0
370
13
440
16777216
100
AcDbMText
 10
1042843.235779479
 20
85841.85094126996
 30
0.0
 40
30.0
 41
0.0
 46
0.0
 71
5
  1
190
  0
POINT
  5
F5
330
EC
100
AcDbEntity
  8
Defpoints
 62
0
370
13
440
16777216
100
AcDbPoint
 10
1042938.19469558
 20
85762.40583469308
 30
0.0
  0
POINT
  5
F6
330
EC
100
AcDbEntity
  8
Defpoints
 62
0
370
13
440
16777216
100
AcDbPoint
 10
1042748.276863378
 20
85761.20493933384
 30
0.0
  0
POINT
  5
F7
330
EC
100
AcDbEntity
  8
Defpoints
 62
0
370
13
440
16777216
100
AcDbPoint
 10
1042748.276863378
 20
85816.53375163832
 30
0.0
  0
ENDBLK
  5
EE
330
EC
100
AcDbEntity
  8
0
100
AcDbBlockEnd
  0
BLOCK
  5
FA
330
F9
100
AcDbEntity
  8
0
100
AcDbBlockBegin
  2
*D13
 70
1
 10
0.0
 20
0.0
 30
0.0
  3
*D13
  1

  0
LINE
  5
FC
330
F9
100
AcDbEntity
  8
VP
 62
0
370
-2
440
16777216
100
AcDbLine
 10
1043423.911716671
 20
85764.16787063723
 30
0.0
 11
1043507.146697852
 21
85764.16787063723
 31
0.0
  0
LINE
  5
FD
330
F9
100
AcDbEntity
  8
VP
 62
0
370
-2
440
16777216
100
AcDbLine
 10
1043424.386947407
 20
85269.13177853834
 30
0.0
 11
1043507.146697852
 21
85269.13177853834
 31
0.0
  0
LINE
  5
FE
330
F9
100
AcDbEntity
  8
VP
 62
0
370
-2
440
16777216
100
AcDbLine
 10
1043505.896697852
 20
85734.16787063723
 30
0.0
 11
1043505.896697852
 21
85299.13177853834
 31
0.0
  0
SOLID
  5
FF
330
F9
100
AcDbEntity
  8
VP
 62
0
370
13
440
16777216
100
AcDbTrace
 10
1043500.896697852
 20
85734.16787063723
 30
0.0
 11
1043510.896697853
 21
85734.16787063723
 31
0.0
 12
1043505.896697852
 22
85764.16787063723
 32
0.0
 13
1043505.896697852
 23
85764.16787063723
 33
0.0
  0
SOLID
  5
100
330
F9
100
AcDbEntity
  8
VP
 62
0
370
13
440
16777216
100
AcDbTrace
 10
1043500.896697852
 20
85299.13177853834
 30
0.0
 11
1043510.896697853
 21
85299.13177853834
 31
0.0
 12
1043505.896697852
 22
85269.13177853834
 32
0.0
 13
1043505.896697852
 23
85269.13177853834
 33
0.0
  0
MTEXT
  5
101
330
F9
100
AcDbEntity
  8
VP
 62
0
370
13
440
16777216
100
AcDbMText
 10
1043480.579508221
 20
85516.64982458747
 30
0.0
 40
30.0
 41
0.0
 46
0.0
 71
5
  1
495
 11
1e-16
 21
1.0
 31
0.0
  0
POINT
  5
102
330
F9
100
AcDbEntity
  8
Defpoints
 62
0
370
13
440
16777216
100
AcDbPoint
 10
1043423.286716671
 20
85764.16787063723
 30
0.0
  0
POINT
  5
103
330
F9
100
AcDbEntity
  8
Defpoints
 62
0
370
13
440
16777216
100
AcDbPoint
 10
1043423.761947406
 20
85269.13177853834
 30
0.0
  0
POINT
  5
104
330
F9
100
AcDbEntity
  8
Defpoints
 62
0
370
13
440
16777216
100
AcDbPoint
 10
1043505.896697852
 20
85269.13177853834
 30
0.0
  0
ENDBLK
  5
FB
330
F9
100
AcDbEntity
  8
0
100
AcDbBlockEnd
  0
BLOCK
  5
10A
330
109
100
AcDbEntity
  8
0
100
AcDbBlockBegin
  2
*D14
 70
1
 10
0.0
 20
0.0
 30
0.0
  3
*D14
  1

  0
LINE
  5
10C
330
109
100
AcDbEntity
  8
VP
 62
0
370
-2
440
16777216
100
AcDbLine
 10
1042550.368800428
 20
86332.06403929321
 30
0.0
 11
1042550.368800428
 21
86376.57517050715
 31
0.0
  0
LINE
  5
10D
330
109
100
AcDbEntity
  8
VP
 62
0
370
-2
440
16777216
100
AcDbLine
 10
1042828.287438651
 20
86332.06403929321
 30
0.0
 11
1042828.287438651
 21
86376.57517050715
 31
0.0
  0
LINE
  5
10E
330
109
100
AcDbEntity
  8
VP
 62
0
370
-2
440
16777216
100
AcDbLine
 10
1042580.368800428
 20
86375.32517050713
 30
0.0
 11
1042798.287438651
 21
86375.32517050713
 31
0.0
  0
SOLID
  5
10F
330
109
100
AcDbEntity
  8
VP
 62
0
370
13
440
16777216
100
AcDbTrace
 10
1042580.368800428
 20
86380.32517050715
 30
0.0
 11
1042580.368800428
 21
86370.32517050712
 31
0.0
 12
1042550.368800428
 22
86375.32517050713
 32
0.0
 13
1042550.368800428
 23
86375.32517050713
 33
0.0
  0
SOLID
  5
110
330
109
100
AcDbEntity
  8
VP
 62
0
370
13
440
16777216
100
AcDbTrace
 10
1042798.287438651
 20
86380.32517050715
 30
0.0
 11
1042798.287438651
 21
86370.32517050712
 31
0.0
 12
1042828.287438651
 22
86375.32517050713
 32
0.0
 13
1042828.287438651
 23
86375.32517050713
 33
0.0
  0
MTEXT
  5
111
330
109
100
AcDbEntity
  8
VP
 62
0
370
13
440
16777216
100
AcDbMText
 10
1042689.328119539
 20
86400.64236013877
 30
0.0
 40
30.0
 41
0.0
 46
0.0
 71
5
  1
278
  0
POINT
  5
112
330
109
100
AcDbEntity
  8
Defpoints
 62
0
370
13
440
16777216
100
AcDbPoint
 10
1042550.368800428
 20
86331.43903929321
 30
0.0
  0
POINT
  5
113
330
109
100
AcDbEntity
  8
Defpoints
 62
0
370
13
440
16777216
100
AcDbPoint
 10
1042828.287438651
 20
86331.43903929321
 30
0.0
  0
POINT
  5
114
330
109
100
AcDbEntity
  8
Defpoints
 62
0
370
13
440
16777216
100
AcDbPoint
 10
1042828.287438651
 20
86375.32517050713
 30
0.0
  0
ENDBLK
  5
10B
330
109
100
AcDbEntity
  8
0
100
AcDbBlockEnd
  0
BLOCK
  5
117
330
116
100
AcDbEntity
  8
0
100
AcDbBlockBegin
  2
*D15
 70
1
 10
0.0
 20
0.0
 30
0.0
  3
*D15
  1

  0
LINE
  5
119
330
116
100
AcDbEntity
  8
VP
 62
0
370
-2
440
16777216
100
AcDbLine
 10
1042549.743800428
 20
86333.7695060492
 30
0.0
 11
1042478.629133752
 21
86333.7695060492
 31
0.0
  0
LINE
  5
11A
330
116
100
AcDbEntity
  8
VP
 62
0
370
-2
440
16777216
100
AcDbLine
 10
1042549.743800428
 20
85926.43903929324
 30
0.0
 11
1042478.629133752
 21
85926.43903929324
 31
0.0
  0
LINE
  5
11B
330
116
100
AcDbEntity
  8
VP
 62
0
370
-2
440
16777216
100
AcDbLine
 10
1042479.879133752
 20
86303.7695060492
 30
0.0
 11
1042479.879133752
 21
85956.43903929325
 31
0.0
  0
SOLID
  5
11C
330
116
100
AcDbEntity
  8
VP
 62
0
370
13
440
16777216
100
AcDbTrace
 10
1042474.879133752
 20
86303.7695060492
 30
0.0
 11
1042484.879133752
 21
86303.7695060492
 31
0.0
 12
1042479.879133752
 22
86333.7695060492
 32
0.0
 13
1042479.879133752
 23
86333.7695060492
 33
0.0
  0
SOLID
  5
11D
330
116
100
AcDbEntity
  8
VP
 62
0
370
13
440
16777216
100
AcDbTrace
 10
1042474.879133752
 20
85956.43903929325
 30
0.0
 11
1042484.879133752
 21
85956.43903929325
 31
0.0
 12
1042479.879133752
 22
85926.43903929324
 32
0.0
 13
1042479.879133752
 23
85926.43903929324
 33
0.0
  0
MTEXT
  5
11E
330
116
100
AcDbEntity
  8
VP
 62
0
370
13
440
16777216
100
AcDbMText
 10
1042454.56194412
 20
86130.10427267091
 30
0.0
 40
30.0
 41
0.0
 46
0.0
 71
5
  1
407
 11
1e-16
 21
1.0
 31
0.0
  0
POINT
  5
11F
330
116
100
AcDbEntity
  8
Defpoints
 62
0
370
13
440
16777216
100
AcDbPoint
 10
1042550.368800428
 20
86333.7695060492
 30
0.0
  0
POINT
  5
120
330
116
100
AcDbEntity
  8
Defpoints
 62
0
370
13
440
16777216
100
AcDbPoint
 10
1042550.368800428
 20
85926.43903929324
 30
0.0
  0
POINT
  5
121
330
116
100
AcDbEntity
  8
Defpoints
 62
0
370
13
440
16777216
100
AcDbPoint
 10
1042479.879133752
 20
85926.43903929324
 30
0.0
  0
ENDBLK
  5
118
330
116
100
AcDbEntity
  8
0
100
AcDbBlockEnd
  0
BLOCK
  5
125
330
124
100
AcDbEntity
  8
0
100
AcDbBlockBegin
  2
*D16
 70
1
 10
0.0
 20
0.0
 30
0.0
  3
*D16
  1

  0
LINE
  5
127
330
124
100
AcDbEntity
  8
VP
 62
0
370
-2
440
16777216
100
AcDbLine
 10
1043097.95228753
 20
87941.80188324107
 30
0.0
 11
1043097.95228753
 21
87989.83886413125
 31
0.0
  0
LINE
  5
128
330
124
100
AcDbEntity
  8
VP
 62
0
370
-2
440
16777216
100
AcDbLine
 10
1043307.988434871
 20
87941.80188324107
 30
0.0
 11
1043307.988434871
 21
87989.83886413125
 31
0.0
  0
LINE
  5
129
330
124
100
AcDbEntity
  8
VP
 62
0
370
-2
440
16777216
100
AcDbLine
 10
1043132.95228753
 20
87988.58886413125
 30
0.0
 11
1043272.988434871
 21
87988.58886413125
 31
0.0
  0
SOLID
  5
12A
330
124
100
AcDbEntity
  8
VP
 62
0
370
13
440
16777216
100
AcDbTrace
 10
1043132.95228753
 20
87994.42219746458
 30
0.0
 11
1043132.95228753
 21
87982.75553079792
 31
0.0
 12
1043097.95228753
 22
87988.58886413125
 32
0.0
 13
1043097.95228753
 23
87988.58886413125
 33
0.0
  0
SOLID
  5
12B
330
124
100
AcDbEntity
  8
VP
 62
0
370
13
440
16777216
100
AcDbTrace
 10
1043272.988434871
 20
87994.42219746458
 30
0.0
 11
1043272.988434871
 21
87982.75553079792
 31
0.0
 12
1043307.988434871
 22
87988.58886413125
 32
0.0
 13
1043307.988434871
 23
87988.58886413125
 33
0.0
  0
MTEXT
  5
12C
330
124
100
AcDbEntity
  8
VP
 62
0
370
13
440
16777216
100
AcDbMText
 10
1043202.9703612
 20
88016.45891870151
 30
0.0
 40
35.0
 41
0.0
 46
0.0
 71
5
  1
210
  0
POINT
  5
12D
330
124
100
AcDbEntity
  8
Defpoints
 62
0
370
13
440
16777216
100
AcDbPoint
 10
1043097.95228753
 20
87941.17688324107
 30
0.0
  0
POINT
  5
12E
330
124
100
AcDbEntity
  8
Defpoints
 62
0
370
13
440
16777216
100
AcDbPoint
 10
1043307.988434871
 20
87941.17688324107
 30
0.0
  0
POINT
  5
12F
330
124
100
AcDbEntity
  8
Defpoints
 62
0
370
13
440
16777216
100
AcDbPoint
 10
1043307.988434871
 20
87988.58886413125
 30
0.0
  0
ENDBLK
  5
126
330
124
100
AcDbEntity
  8
0
100
AcDbBlockEnd
  0
BLOCK
  5
132
330
131
100
AcDbEntity
  8
0
100
AcDbBlockBegin
  2
*D17
 70
1
 10
0.0
 20
0.0
 30
0.0
  3
*D17
  1

  0
LINE
  5
134
330
131
100
AcDbEntity
  8
VP
 62
0
370
-2
440
16777216
100
AcDbLine
 10
1043307.282968115
 20
87941.1768832411
 30
0.0
 11
1043379.241768817
 21
87941.1768832411
 31
0.0
  0
LINE
  5
135
330
131
100
AcDbEntity
  8
VP
 62
0
370
-2
440
16777216
100
AcDbLine
 10
1043307.282968115
 20
87705.68517568563
 30
0.0
 11
1043379.241768817
 21
87705.68517568563
 31
0.0
  0
LINE
  5
136
330
131
100
AcDbEntity
  8
VP
 62
0
370
-2
440
16777216
100
AcDbLine
 10
1043377.991768817
 20
87906.1768832411
 30
0.0
 11
1043377.991768817
 21
87740.68517568565
 31
0.0
  0
SOLID
  5
137
330
131
100
AcDbEntity
  8
VP
 62
0
370
13
440
16777216
100
AcDbTrace
 10
1043372.158435484
 20
87906.1768832411
 30
0.0
 11
1043383.82510215
 21
87906.1768832411
 31
0.0
 12
1043377.991768817
 22
87941.1768832411
 32
0.0
 13
1043377.991768817
 23
87941.1768832411
 33
0.0
  0
SOLID
  5
138
330
131
100
AcDbEntity
  8
VP
 62
0
370
13
440
16777216
100
AcDbTrace
 10
1043372.158435484
 20
87740.68517568565
 30
0.0
 11
1043383.82510215
 21
87740.68517568565
 31
0.0
 12
1043377.991768817
 22
87705.68517568563
 32
0.0
 13
1043377.991768817
 23
87705.68517568563
 33
0.0
  0
MTEXT
  5
139
330
131
100
AcDbEntity
  8
VP
 62
0
370
13
440
16777216
100
AcDbMText
 10
1043350.109777003
 20
87823.43102946306
 30
0.0
 40
35.0
 41
0.0
 46
0.0
 71
5
  1
235
 11
1e-16
 21
1.0
 31
0.0
  0
POINT
  5
13A
330
131
100
AcDbEntity
  8
Defpoints
 62
0
370
13
440
16777216
100
AcDbPoint
 10
1043306.657968115
 20
87941.1768832411
 30
0.0
  0
POINT
  5
13B
330
131
100
AcDbEntity
  8
Defpoints
 62
0
370
13
440
16777216
100
AcDbPoint
 10
1043306.657968115
 20
87705.68517568563
 30
0.0
  0
POINT
  5
13C
330
131
100
AcDbEntity
  8
Defpoints
 62
0
370
13
440
16777216
100
AcDbPoint
 10
1043377.991768817
 20
87705.68517568563
 30
0.0
  0
ENDBLK
  5
133
330
131
100
AcDbEntity
  8
0
100
AcDbBlockEnd
  0
BLOCK
  5
142
330
141
100
AcDbEntity
  8
0
100
AcDbBlockBegin
  2
*D18
 70
1
 10
0.0
 20
0.0
 30
0.0
  3
*D18
  1

  0
LINE
  5
144
330
141
100
AcDbEntity
  8
VP
 62
0
370
-2
440
16777216
100
AcDbLine
 10
1043099.008935127
 20
87589.16098776778
 30
0.0
 11
1043099.008935127
 21
87620.36951680866
 31
0.0
  0
LINE
  5
145
330
141
100
AcDbEntity
  8
VP
 62
0
370
-2
440
16777216
100
AcDbLine
 10
1043308.669662579
 20
87587.89034363188
 30
0.0
 11
1043308.669662579
 21
87620.36951680866
 31
0.0
  0
LINE
  5
146
330
141
100
AcDbEntity
  8
VP
 62
0
370
-2
440
16777216
100
AcDbLine
 10
1043134.008935127
 20
87619.11951680866
 30
0.0
 11
1043273.669662579
 21
87619.11951680866
 31
0.0
  0
SOLID
  5
147
330
141
100
AcDbEntity
  8
VP
 62
0
370
13
440
16777216
100
AcDbTrace
 10
1043134.008935127
 20
87624.95285014198
 30
0.0
 11
1043134.008935127
 21
87613.28618347533
 31
0.0
 12
1043099.008935127
 22
87619.11951680866
 32
0.0
 13
1043099.008935127
 23
87619.11951680866
 33
0.0
  0
SOLID
  5
148
330
141
100
AcDbEntity
  8
VP
 62
0
370
13
440
16777216
100
AcDbTrace
 10
1043273.669662579
 20
87624.95285014198
 30
0.0
 11
1043273.669662579
 21
87613.28618347533
 31
0.0
 12
1043308.669662579
 22
87619.11951680866
 32
0.0
 13
1043308.669662579
 23
87619.11951680866
 33
0.0
  0
MTEXT
  5
149
330
141
100
AcDbEntity
  8
VP
 62
0
370
13
440
16777216
100
AcDbMText
 10
1043203.839298853
 20
87646.98957137892
 30
0.0
 40
35.0
 41
0.0
 46
0.0
 71
5
  1
210
  0
POINT
  5
14A
330
141
100
AcDbEntity
  8
Defpoints
 62
0
370
13
440
16777216
100
AcDbPoint
 10
1043099.008935127
 20
87588.53598776777
 30
0.0
  0
POINT
  5
14B
330
141
100
AcDbEntity
  8
Defpoints
 62
0
370
13
440
16777216
100
AcDbPoint
 10
1043308.669662579
 20
87587.26534363187
 30
0.0
  0
POINT
  5
14C
330
141
100
AcDbEntity
  8
Defpoints
 62
0
370
13
440
16777216
100
AcDbPoint
 10
1043308.669662579
 20
87619.11951680866
 30
0.0
  0
ENDBLK
  5
143
330
141
100
AcDbEntity
  8
0
100
AcDbBlockEnd
  0
BLOCK
  5
14F
330
14E
100
AcDbEntity
  8
0
100
AcDbBlockBegin
  2
*D19
 70
1
 10
0.0
 20
0.0
 30
0.0
  3
*D19
  1

  0
LINE
  5
151
330
14E
100
AcDbEntity
  8
VP
 62
0
370
-2
440
16777216
100
AcDbLine
 10
1043327.584382268
 20
87588.53725777694
 30
0.0
 11
1043381.684075634
 21
87588.53725777694
 31
0.0
  0
LINE
  5
152
330
14E
100
AcDbEntity
  8
VP
 62
0
370
-2
440
16777216
100
AcDbLine
 10
1043330.336596779
 20
87343.63631694939
 30
0.0
 11
1043381.684075634
 21
87343.63631694939
 31
0.0
  0
LINE
  5
153
330
14E
100
AcDbEntity
  8
VP
 62
0
370
-2
440
16777216
100
AcDbLine
 10
1043380.434075634
 20
87553.53725777693
 30
0.0
 11
1043380.434075634
 21
87378.63631694939
 31
0.0
  0
SOLID
  5
154
330
14E
100
AcDbEntity
  8
VP
 62
0
370
13
440
16777216
100
AcDbTrace
 10
1043374.6007423
 20
87553.53725777693
 30
0.0
 11
1043386.267408967
 21
87553.53725777693
 31
0.0
 12
1043380.434075634
 22
87588.53725777694
 32
0.0
 13
1043380.434075634
 23
87588.53725777694
 33
0.0
  0
SOLID
  5
155
330
14E
100
AcDbEntity
  8
VP
 62
0
370
13
440
16777216
100
AcDbTrace
 10
1043374.6007423
 20
87378.63631694939
 30
0.0
 11
1043386.267408967
 21
87378.63631694939
 31
0.0
 12
1043380.434075634
 22
87343.63631694939
 32
0.0
 13
1043380.434075634
 23
87343.63631694939
 33
0.0
  0
MTEXT
  5
156
330
14E
100
AcDbEntity
  8
VP
 62
0
370
13
440
16777216
100
AcDbMText
 10
1043352.564021063
 20
87466.08678736284
 30
0.0
 40
35.0
 41
0.0
 46
0.0
 71
5
  1
245
 11
1e-16
 21
1.0
 31
0.0
  0
POINT
  5
157
330
14E
100
AcDbEntity
  8
Defpoints
 62
0
370
13
440
16777216
100
AcDbPoint
 10
1043326.959382268
 20
87588.53725777694
 30
0.0
  0
POINT
  5
158
330
14E
100
AcDbEntity
  8
Defpoints
 62
0
370
13
440
16777216
100
AcDbPoint
 10
1043329.711596779
 20
87343.63631694939
 30
0.0
  0
POINT
  5
159
330
14E
100
AcDbEntity
  8
Defpoints
 62
0
370
13
440
16777216
100
AcDbPoint
 10
1043380.434075634
 20
87343.63631694939
 30
0.0
  0
ENDBLK
  5
150
330
14E
100
AcDbEntity
  8
0
100
AcDbBlockEnd
  0
BLOCK
  5
15C
330
15B
100
AcDbEntity
  8
0
100
AcDbBlockBegin
  2
*D20
 70
1
 10
0.0
 20
0.0
 30
0.0
  3
*D20
  1

  0
LINE
  5
15E
330
15B
100
AcDbEntity
  8
VP
 62
0
370
-2
440
16777216
100
AcDbLine
 10
1043329.300449438
 20
87343.53598776778
 30
0.0
 11
1043381.684075636
 21
87343.53598776778
 31
0.0
  0
LINE
  5
15F
330
15B
100
AcDbEntity
  8
VP
 62
0
370
-2
440
16777216
100
AcDbLine
 10
1043328.484239922
 20
87108.75215216217
 30
0.0
 11
1043381.684075636
 21
87108.75215216217
 31
0.0
  0
LINE
  5
160
330
15B
100
AcDbEntity
  8
VP
 62
0
370
-2
440
16777216
100
AcDbLine
 10
1043380.434075636
 20
87308.5359877678
 30
0.0
 11
1043380.434075636
 21
87143.75215216215
 31
0.0
  0
SOLID
  5
161
330
15B
100
AcDbEntity
  8
VP
 62
0
370
13
440
16777216
100
AcDbTrace
 10
1043374.600742302
 20
87308.5359877678
 30
0.0
 11
1043386.267408969
 21
87308.5359877678
 31
0.0
 12
1043380.434075636
 22
87343.53598776778
 32
0.0
 13
1043380.434075636
 23
87343.53598776778
 33
0.0
  0
SOLID
  5
162
330
15B
100
AcDbEntity
  8
VP
 62
0
370
13
440
16777216
100
AcDbTrace
 10
1043374.600742302
 20
87143.75215216215
 30
0.0
 11
1043386.267408969
 21
87143.75215216215
 31
0.0
 12
1043380.434075636
 22
87108.75215216217
 32
0.0
 13
1043380.434075636
 23
87108.75215216217
 33
0.0
  0
MTEXT
  5
163
330
15B
100
AcDbEntity
  8
VP
 62
0
370
13
440
16777216
100
AcDbMText
 10
1043352.552083821
 20
87226.14406996468
 30
0.0
 40
35.0
 41
0.0
 46
0.0
 71
5
  1
235
 11
1e-16
 21
1.0
 31
0.0
  0
POINT
  5
164
330
15B
100
AcDbEntity
  8
Defpoints
 62
0
370
13
440
16777216
100
AcDbPoint
 10
1043328.675449438
 20
87343.53598776778
 30
0.0
  0
POINT
  5
165
330
15B
100
AcDbEntity
  8
Defpoints
 62
0
370
13
440
16777216
100
AcDbPoint
 10
1043327.859239922
 20
87108.75215216217
 30
0.0
  0
POINT
  5
166
330
15B
100
AcDbEntity
  8
Defpoints
 62
0
370
13
440
16777216
100
AcDbPoint
 10
1043380.434075636
 20
87108.75215216217
 30
0.0
  0
ENDBLK
  5
15D
330
15B
100
AcDbEntity
  8
0
100
AcDbBlockEnd
  0
BLOCK
  5
16B
330
16A
100
AcDbEntity
  8
0
100
AcDbBlockBegin
  2
*D21
 70
1
 10
0.0
 20
0.0
 30
0.0
  3
*D21
  1

  0
LINE
  5
16D
330
16A
100
AcDbEntity
  8
VP
 62
0
370
-2
440
16777216
100
AcDbLine
 10
1043492.706841305
 20
87108.47507614989
 30
0.0
 11
1043560.512339128
 21
87108.47507614989
 31
0.0
  0
LINE
  5
16E
330
16A
100
AcDbEntity
  8
VP
 62
0
370
-2
440
16777216
100
AcDbLine
 10
1043492.695662761
 20
86838.89922008313
 30
0.0
 11
1043560.512339128
 21
86838.89922008313
 31
0.0
  0
LINE
  5
16F
330
16A
100
AcDbEntity
  8
VP
 62
0
370
-2
440
16777216
100
AcDbLine
 10
1043559.262339128
 20
87073.47507614989
 30
0.0
 11
1043559.262339128
 21
86873.89922008311
 31
0.0
  0
SOLID
  5
170
330
16A
100
AcDbEntity
  8
VP
 62
0
370
13
440
16777216
100
AcDbTrace
 10
1043553.429005794
 20
87073.47507614989
 30
0.0
 11
1043565.095672461
 21
87073.47507614989
 31
0.0
 12
1043559.262339128
 22
87108.47507614989
 32
0.0
 13
1043559.262339128
 23
87108.47507614989
 33
0.0
  0
SOLID
  5
171
330
16A
100
AcDbEntity
  8
VP
 62
0
370
13
440
16777216
100
AcDbTrace
 10
1043553.429005794
 20
86873.89922008311
 30
0.0
 11
1043565.095672461
 21
86873.89922008311
 31
0.0
 12
1043559.262339128
 22
86838.89922008313
 32
0.0
 13
1043559.262339128
 23
86838.89922008313
 33
0.0
  0
MTEXT
  5
172
330
16A
100
AcDbEntity
  8
VP
 62
0
370
13
440
16777216
100
AcDbMText
 10
1043531.392284557
 20
86973.6871481162
 30
0.0
 40
35.0
 41
0.0
 46
0.0
 71
5
  1
270
 11
1e-16
 21
1.0
 31
0.0
  0
POINT
  5
173
330
16A
100
AcDbEntity
  8
Defpoints
 62
0
370
13
440
16777216
100
AcDbPoint
 10
1043492.081841305
 20
87108.47507614989
 30
0.0
  0
POINT
  5
174
330
16A
100
AcDbEntity
  8
Defpoints
 62
0
370
13
440
16777216
100
AcDbPoint
 10
1043492.070662761
 20
86838.89922008313
 30
0.0
  0
POINT
  5
175
330
16A
100
AcDbEntity
  8
Defpoints
 62
0
370
13
440
16777216
100
AcDbPoint
 10
1043559.262339128
 20
86838.89922008313
 30
0.0
  0
ENDBLK
  5
16C
330
16A
100
AcDbEntity
  8
0
100
AcDbBlockEnd
  0
BLOCK
  5
179
330
178
100
AcDbEntity
  8
0
100
AcDbBlockBegin
  2
*D22
 70
1
 10
0.0
 20
0.0
 30
0.0
  3
*D22
  1

  0
LINE
  5
17B
330
178
100
AcDbEntity
  8
VP
 62
0
370
-2
440
16777216
100
AcDbLine
 10
1043100.070662761
 20
86839.6643601872
 30
0.0
 11
1043100.070662761
 21
86772.55357409634
 31
0.0
  0
LINE
  5
17C
330
178
100
AcDbEntity
  8
VP
 62
0
370
-2
440
16777216
100
AcDbLine
 10
1043295.631083398
 20
86840.70333631431
 30
0.0
 11
1043295.631083398
 21
86772.55357409634
 31
0.0
  0
LINE
  5
17D
330
178
100
AcDbEntity
  8
VP
 62
0
370
-2
440
16777216
100
AcDbLine
 10
1043135.070662761
 20
86773.80357409635
 30
0.0
 11
1043260.631083398
 21
86773.80357409635
 31
0.0
  0
SOLID
  5
17E
330
178
100
AcDbEntity
  8
VP
 62
0
370
13
440
16777216
100
AcDbTrace
 10
1043135.070662761
 20
86779.63690742968
 30
0.0
 11
1043135.070662761
 21
86767.97024076302
 31
0.0
 12
1043100.070662761
 22
86773.80357409635
 32
0.0
 13
1043100.070662761
 23
86773.80357409635
 33
0.0
  0
SOLID
  5
17F
330
178
100
AcDbEntity
  8
VP
 62
0
370
13
440
16777216
100
AcDbTrace
 10
1043260.631083398
 20
86779.63690742968
 30
0.0
 11
1043260.631083398
 21
86767.97024076302
 31
0.0
 12
1043295.631083398
 22
86773.80357409635
 32
0.0
 13
1043295.631083398
 23
86773.80357409635
 33
0.0
  0
MTEXT
  5
180
330
178
100
AcDbEntity
  8
VP
 62
0
370
13
440
16777216
100
AcDbMText
 10
1043197.850873079
 20
86801.67362866661
 30
0.0
 40
35.0
 41
0.0
 46
0.0
 71
5
  1
196
  0
POINT
  5
181
330
178
100
AcDbEntity
  8
Defpoints
 62
0
370
13
440
16777216
100
AcDbPoint
 10
1043100.070662761
 20
86840.2893601872
 30
0.0
  0
POINT
  5
182
330
178
100
AcDbEntity
  8
Defpoints
 62
0
370
13
440
16777216
100
AcDbPoint
 10
1043295.631083398
 20
86841.32833631431
 30
0.0
  0
POINT
  5
183
330
178
100
AcDbEntity
  8
Defpoints
 62
0
370
13
440
16777216
100
AcDbPoint
 10
1043295.631083398
 20
86773.80357409635
 30
0.0
  0
ENDBLK
  5
17A
330
178
100
AcDbEntity
  8
0
100
AcDbBlockEnd
  0
BLOCK
  5
186
330
185
100
AcDbEntity
  8
0
100
AcDbBlockBegin
  2
*D23
 70
1
 10
0.0
 20
0.0
 30
0.0
  3
*D23
  1

  0
LINE
  5
188
330
185
100
AcDbEntity
  8
VP
 62
0
370
-2
440
16777216
100
AcDbLine
 10
1043295.631083398
 20
86840.70333631431
 30
0.0
 11
1043295.631083398
 21
86772.55357409634
 31
0.0
  0
LINE
  5
189
330
185
100
AcDbEntity
  8
VP
 62
0
370
-2
440
16777216
100
AcDbLine
 10
1043492.081841305
 20
86839.23806484073
 30
0.0
 11
1043492.081841305
 21
86772.55357409634
 31
0.0
  0
LINE
  5
18A
330
185
100
AcDbEntity
  8
VP
 62
0
370
-2
440
16777216
100
AcDbLine
 10
1043330.631083398
 20
86773.80357409635
 30
0.0
 11
1043457.081841305
 21
86773.80357409635
 31
0.0
  0
SOLID
  5
18B
330
185
100
AcDbEntity
  8
VP
 62
0
370
13
440
16777216
100
AcDbTrace
 10
1043330.631083398
 20
86779.63690742968
 30
0.0
 11
1043330.631083398
 21
86767.97024076302
 31
0.0
 12
1043295.631083398
 22
86773.80357409635
 32
0.0
 13
1043295.631083398
 23
86773.80357409635
 33
0.0
  0
SOLID
  5
18C
330
185
100
AcDbEntity
  8
VP
 62
0
370
13
440
16777216
100
AcDbTrace
 10
1043457.081841305
 20
86779.63690742968
 30
0.0
 11
1043457.081841305
 21
86767.97024076302
 31
0.0
 12
1043492.081841305
 22
86773.80357409635
 32
0.0
 13
1043492.081841305
 23
86773.80357409635
 33
0.0
  0
MTEXT
  5
18D
330
185
100
AcDbEntity
  8
VP
 62
0
370
13
440
16777216
100
AcDbMText
 10
1043393.856462351
 20
86801.67362866661
 30
0.0
 40
35.0
 41
0.0
 46
0.0
 71
5
  1
196
  0
POINT
  5
18E
330
185
100
AcDbEntity
  8
Defpoints
 62
0
370
13
440
16777216
100
AcDbPoint
 10
1043295.631083398
 20
86841.32833631431
 30
0.0
  0
POINT
  5
18F
330
185
100
AcDbEntity
  8
Defpoints
 62
0
370
13
440
16777216
100
AcDbPoint
 10
1043492.081841305
 20
86839.86306484073
 30
0.0
  0
POINT
  5
190
330
185
100
AcDbEntity
  8
Defpoints
 62
0
370
13
440
16777216
100
AcDbPoint
 10
1043492.081841305
 20
86773.80357409635
 30
0.0
  0
ENDBLK
  5
187
330
185
100
AcDbEntity
  8
0
100
AcDbBlockEnd
  0
BLOCK
  5
1A5
330
1A4
100
AcDbEntity
  8
0
100
AcDbBlockBegin
  2
*D24
 70
1
 10
0.0
 20
0.0
 30
0.0
  3
*D24
  1

  0
LINE
  5
1A7
330
1A4
100
AcDbEntity
  8
VP
 62
0
370
-2
440
16777216
100
AcDbLine
 10
1041700.092606977
 20
85725.22181799621
 30
0.0
 11
1041700.092606977
 21
85772.11308746731
 31
0.0
  0
LINE
  5
1A8
330
1A4
100
AcDbEntity
  8
VP
 62
0
370
-2
440
16777216
100
AcDbLine
 10
1042045.092606977
 20
85725.63975326056
 30
0.0
 11
1042045.092606977
 21
85772.11308746731
 31
0.0
  0
LINE
  5
1A9
330
1A4
100
AcDbEntity
  8
VP
 62
0
370
-2
440
16777216
100
AcDbLine
 10
1041730.092606977
 20
85770.8630874673
 30
0.0
 11
1042015.092606977
 21
85770.8630874673
 31
0.0
  0
SOLID
  5
1AA
330
1A4
100
AcDbEntity
  8
VP
 62
0
370
13
440
16777216
100
AcDbTrace
 10
1041730.092606977
 20
85775.86308746731
 30
0.0
 11
1041730.092606977
 21
85765.86308746733
 31
0.0
 12
1041700.092606977
 22
85770.8630874673
 32
0.0
 13
1041700.092606977
 23
85770.8630874673
 33
0.0
  0
SOLID
  5
1AB
330
1A4
100
AcDbEntity
  8
VP
 62
0
370
13
440
16777216
100
AcDbTrace
 10
1042015.092606977
 20
85775.86308746731
 30
0.0
 11
1042015.092606977
 21
85765.86308746733
 31
0.0
 12
1042045.092606977
 22
85770.8630874673
 32
0.0
 13
1042045.092606977
 23
85770.8630874673
 33
0.0
  0
MTEXT
  5
1AC
330
1A4
100
AcDbEntity
  8
VP
 62
0
370
13
440
16777216
100
AcDbMText
 10
1041872.592606977
 20
85796.19050902255
 30
0.0
 40
30.0
 41
0.0
 46
0.0
 71
5
  1
345
  0
POINT
  5
1AD
330
1A4
100
AcDbEntity
  8
Defpoints
 62
0
370
13
440
16777216
100
AcDbPoint
 10
1041700.092606977
 20
85724.59681799624
 30
0.0
  0
POINT
  5
1AE
330
1A4
100
AcDbEntity
  8
Defpoints
 62
0
370
13
440
16777216
100
AcDbPoint
 10
1042045.092606977
 20
85725.01475326056
 30
0.0
  0
POINT
  5
1AF
330
1A4
100
AcDbEntity
  8
Defpoints
 62
0
370
13
440
16777216
100
AcDbPoint
 10
1042045.092606977
 20
85770.8630874673
 30
0.0
  0
ENDBLK
  5
1A6
330
1A4
100
AcDbEntity
  8
0
100
AcDbBlockEnd
  0
BLOCK
  5
1B2
330
1B1
100
AcDbEntity
  8
0
100
AcDbBlockBegin
  2
*D25
 70
1
 10
0.0
 20
0.0
 30
0.0
  3
*D25
  1

  0
LINE
  5
1B4
330
1B1
100
AcDbEntity
  8
VP
 62
0
370
-2
440
16777216
100
AcDbLine
 10
1041700.092606977
 20
85268.87313874153
 30
0.0
 11
1041700.092606977
 21
85307.11800273953
 31
0.0
  0
LINE
  5
1B5
330
1B1
100
AcDbEntity
  8
VP
 62
0
370
-2
440
16777216
100
AcDbLine
 10
1042148.092606977
 20
85268.87313874153
 30
0.0
 11
1042148.092606977
 21
85307.11800273953
 31
0.0
  0
LINE
  5
1B6
330
1B1
100
AcDbEntity
  8
VP
 62
0
370
-2
440
16777216
100
AcDbLine
 10
1041730.092606977
 20
85305.86800273953
 30
0.0
 11
1042118.092606977
 21
85305.86800273953
 31
0.0
  0
SOLID
  5
1B7
330
1B1
100
AcDbEntity
  8
VP
 62
0
370
13
440
16777216
100
AcDbTrace
 10
1041730.092606977
 20
85310.86800273953
 30
0.0
 11
1041730.092606977
 21
85300.86800273952
 31
0.0
 12
1041700.092606977
 22
85305.86800273953
 32
0.0
 13
1041700.092606977
 23
85305.86800273953
 33
0.0
  0
SOLID
  5
1B8
330
1B1
100
AcDbEntity
  8
VP
 62
0
370
13
440
16777216
100
AcDbTrace
 10
1042118.092606977
 20
85310.86800273953
 30
0.0
 11
1042118.092606977
 21
85300.86800273952
 31
0.0
 12
1042148.092606977
 22
85305.86800273953
 32
0.0
 13
1042148.092606977
 23
85305.86800273953
 33
0.0
  0
MTEXT
  5
1B9
330
1B1
100
AcDbEntity
  8
VP
 62
0
370
13
440
16777216
100
AcDbMText
 10
1041924.092606977
 20
85331.1851923712
 30
0.0
 40
30.0
 41
0.0
 46
0.0
 71
5
  1
448
  0
POINT
  5
1BA
330
1B1
100
AcDbEntity
  8
Defpoints
 62
0
370
13
440
16777216
100
AcDbPoint
 10
1041700.092606977
 20
85268.24813874153
 30
0.0
  0
POINT
  5
1BB
330
1B1
100
AcDbEntity
  8
Defpoints
 62
0
370
13
440
16777216
100
AcDbPoint
 10
1042148.092606977
 20
85268.24813874153
 30
0.0
  0
POINT
  5
1BC
330
1B1
100
AcDbEntity
  8
Defpoints
 62
0
370
13
440
16777216
100
AcDbPoint
 10
1042148.092606977
 20
85305.86800273953
 30
0.0
  0
ENDBLK
  5
1B3
330
1B1
100
AcDbEntity
  8
0
100
AcDbBlockEnd
  0
BLOCK
  5
1C0
330
1BF
100
AcDbEntity
  8
0
100
AcDbBlockBegin
  2
*D26
 70
1
 10
0.0
 20
0.0
 30
0.0
  3
*D26
  1

  0
LINE
  5
1C2
330
1BF
100
AcDbEntity
  8
VP
 62
0
370
-2
440
16777216
100
AcDbLine
 10
1042148.717606978
 20
85268.24813874156
 30
0.0
 11
1042211.254448224
 21
85268.24813874156
 31
0.0
  0
LINE
  5
1C3
330
1BF
100
AcDbEntity
  8
VP
 62
0
370
-2
440
16777216
100
AcDbLine
 10
1042148.717606978
 20
85498.45017832096
 30
0.0
 11
1042211.254448224
 21
85498.45017832096
 31
0.0
  0
LINE
  5
1C4
330
1BF
100
AcDbEntity
  8
VP
 62
0
370
-2
440
16777216
100
AcDbLine
 10
1042210.004448224
 20
85298.24813874158
 30
0.0
 11
1042210.004448224
 21
85468.45017832096
 31
0.0
  0
SOLID
  5
1C5
330
1BF
100
AcDbEntity
  8
VP
 62
0
370
13
440
16777216
100
AcDbTrace
 10
1042205.004448224
 20
85298.24813874158
 30
0.0
 11
1042215.004448225
 21
85298.24813874158
 31
0.0
 12
1042210.004448224
 22
85268.24813874156
 32
0.0
 13
1042210.004448224
 23
85268.24813874156
 33
0.0
  0
SOLID
  5
1C6
330
1BF
100
AcDbEntity
  8
VP
 62
0
370
13
440
16777216
100
AcDbTrace
 10
1042205.004448224
 20
85468.45017832096
 30
0.0
 11
1042215.004448225
 21
85468.45017832096
 31
0.0
 12
1042210.004448224
 22
85498.45017832096
 32
0.0
 13
1042210.004448224
 23
85498.45017832096
 33
0.0
  0
MTEXT
  5
1C7
330
1BF
100
AcDbEntity
  8
VP
 62
0
370
13
440
16777216
100
AcDbMText
 10
1042184.677026669
 20
85383.34915853095
 30
0.0
 40
30.0
 41
0.0
 46
0.0
 71
5
  1
230
 11
1e-16
 21
1.0
 31
0.0
  0
POINT
  5
1C8
330
1BF
100
AcDbEntity
  8
Defpoints
 62
0
370
13
440
16777216
100
AcDbPoint
 10
1042148.092606978
 20
85268.24813874156
 30
0.0
  0
POINT
  5
1C9
330
1BF
100
AcDbEntity
  8
Defpoints
 62
0
370
13
440
16777216
100
AcDbPoint
 10
1042148.092606978
 20
85498.45017832096
 30
0.0
  0
POINT
  5
1CA
330
1BF
100
AcDbEntity
  8
Defpoints
 62
0
370
13
440
16777216
100
AcDbPoint
 10
1042210.004448224
 20
85498.45017832096
 30
0.0
  0
ENDBLK
  5
1C1
330
1BF
100
AcDbEntity
  8
0
100
AcDbBlockEnd
  0
BLOCK
  5
1CD
330
1CC
100
AcDbEntity
  8
0
100
AcDbBlockBegin
  2
*D27
 70
1
 10
0.0
 20
0.0
 30
0.0
  3
*D27
  1

  0
LINE
  5
1CF
330
1CC
100
AcDbEntity
  8
VP
 62
0
370
-2
440
16777216
100
AcDbLine
 10
1042148.717606978
 20
85498.45017832096
 30
0.0
 11
1042211.254448226
 21
85498.45017832096
 31
0.0
  0
LINE
  5
1D0
330
1CC
100
AcDbEntity
  8
VP
 62
0
370
-2
440
16777216
100
AcDbLine
 10
1042045.717606978
 20
85723.01475326058
 30
0.0
 11
1042211.254448226
 21
85723.01475326058
 31
0.0
  0
LINE
  5
1D1
330
1CC
100
AcDbEntity
  8
VP
 62
0
370
-2
440
16777216
100
AcDbLine
 10
1042210.004448226
 20
85528.45017832096
 30
0.0
 11
1042210.004448226
 21
85693.01475326058
 31
0.0
  0
SOLID
  5
1D2
330
1CC
100
AcDbEntity
  8
VP
 62
0
370
13
440
16777216
100
AcDbTrace
 10
1042205.004448226
 20
85528.45017832096
 30
0.0
 11
1042215.004448226
 21
85528.45017832096
 31
0.0
 12
1042210.004448226
 22
85498.45017832096
 32
0.0
 13
1042210.004448226
 23
85498.45017832096
 33
0.0
  0
SOLID
  5
1D3
330
1CC
100
AcDbEntity
  8
VP
 62
0
370
13
440
16777216
100
AcDbTrace
 10
1042205.004448226
 20
85693.01475326058
 30
0.0
 11
1042215.004448226
 21
85693.01475326058
 31
0.0
 12
1042210.004448226
 22
85723.01475326058
 32
0.0
 13
1042210.004448226
 23
85723.01475326058
 33
0.0
  0
MTEXT
  5
1D4
330
1CC
100
AcDbEntity
  8
VP
 62
0
370
13
440
16777216
100
AcDbMText
 10
1042184.687258594
 20
85610.73246579047
 30
0.0
 40
30.0
 41
0.0
 46
0.0
 71
5
  1
225
 11
1e-16
 21
1.0
 31
0.0
  0
POINT
  5
1D5
330
1CC
100
AcDbEntity
  8
Defpoints
 62
0
370
13
440
16777216
100
AcDbPoint
 10
1042148.092606978
 20
85498.45017832096
 30
0.0
  0
POINT
  5
1D6
330
1CC
100
AcDbEntity
  8
Defpoints
 62
0
370
13
440
16777216
100
AcDbPoint
 10
1042045.092606978
 20
85723.01475326058
 30
0.0
  0
POINT
  5
1D7
330
1CC
100
AcDbEntity
  8
Defpoints
 62
0
370
13
440
16777216
100
AcDbPoint
 10
1042210.004448226
 20
85723.01475326058
 30
0.0
  0
ENDBLK
  5
1CE
330
1CC
100
AcDbEntity
  8
0
100
AcDbBlockEnd
  0
BLOCK
  5
1DC
330
1DB
100
AcDbEntity
  8
0
100
AcDbBlockBegin
  2
*D28
 70
1
 10
0.0
 20
0.0
 30
0.0
  3
*D28
  1

  0
LINE
  5
1DE
330
1DB
100
AcDbEntity
  8
VP
 62
0
370
-2
440
16777216
100
AcDbLine
 10
1042549.743800428
 20
85922.63906384484
 30
0.0
 11
1042478.62913375
 21
85922.63906384484
 31
0.0
  0
LINE
  5
1DF
330
1DB
100
AcDbEntity
  8
VP
 62
0
370
-2
440
16777216
100
AcDbLine
 10
1042549.743800428
 20
85610.29345615985
 30
0.0
 11
1042478.62913375
 21
85610.29345615985
 31
0.0
  0
LINE
  5
1E0
330
1DB
100
AcDbEntity
  8
VP
 62
0
370
-2
440
16777216
100
AcDbLine
 10
1042479.87913375
 20
85892.63906384482
 30
0.0
 11
1042479.87913375
 21
85640.29345615985
 31
0.0
  0
SOLID
  5
1E1
330
1DB
100
AcDbEntity
  8
VP
 62
0
370
13
440
16777216
100
AcDbTrace
 10
1042474.87913375
 20
85892.63906384482
 30
0.0
 11
1042484.87913375
 21
85892.63906384482
 31
0.0
 12
1042479.87913375
 22
85922.63906384484
 32
0.0
 13
1042479.87913375
 23
85922.63906384484
 33
0.0
  0
SOLID
  5
1E2
330
1DB
100
AcDbEntity
  8
VP
 62
0
370
13
440
16777216
100
AcDbTrace
 10
1042474.87913375
 20
85640.29345615985
 30
0.0
 11
1042484.87913375
 21
85640.29345615985
 31
0.0
 12
1042479.87913375
 22
85610.29345615985
 32
0.0
 13
1042479.87913375
 23
85610.29345615985
 33
0.0
  0
MTEXT
  5
1E3
330
1DB
100
AcDbEntity
  8
VP
 62
0
370
13
440
16777216
100
AcDbMText
 10
1042454.551712195
 20
85766.46626000202
 30
0.0
 40
30.0
 41
0.0
 46
0.0
 71
5
  1
312
 11
1e-16
 21
1.0
 31
0.0
  0
POINT
  5
1E4
330
1DB
100
AcDbEntity
  8
Defpoints
 62
0
370
13
440
16777216
100
AcDbPoint
 10
1042550.368800428
 20
85922.63906384484
 30
0.0
  0
POINT
  5
1E5
330
1DB
100
AcDbEntity
  8
Defpoints
 62
0
370
13
440
16777216
100
AcDbPoint
 10
1042550.368800428
 20
85610.29345615985
 30
0.0
  0
POINT
  5
1E6
330
1DB
100
AcDbEntity
  8
Defpoints
 62
0
370
13
440
16777216
100
AcDbPoint
 10
1042479.87913375
 20
85610.29345615985
 30
0.0
  0
ENDBLK
  5
1DD
330
1DB
100
AcDbEntity
  8
0
100
AcDbBlockEnd
  0
BLOCK
  5
1EA
330
1E9
100
AcDbEntity
  8
0
100
AcDbBlockBegin
  2
*D29
 70
1
 10
0.0
 20
0.0
 30
0.0
  3
*D29
  1

  0
LINE
  5
1EC
330
1E9
100
AcDbEntity
  8
VP
 62
0
370
-2
440
16777216
100
AcDbLine
 10
1042550.368800427
 20
85608.72769788982
 30
0.0
 11
1042550.368800427
 21
85548.29637939089
 31
0.0
  0
LINE
  5
1ED
330
1E9
100
AcDbEntity
  8
VP
 62
0
370
-2
440
16777216
100
AcDbLine
 10
1042748.276863378
 20
85609.66845615982
 30
0.0
 11
1042748.276863378
 21
85548.29637939089
 31
0.0
  0
LINE
  5
1EE
330
1E9
100
AcDbEntity
  8
VP
 62
0
370
-2
440
16777216
100
AcDbLine
 10
1042580.368800427
 20
85549.54637939086
 30
0.0
 11
1042718.276863378
 21
85549.54637939086
 31
0.0
  0
SOLID
  5
1EF
330
1E9
100
AcDbEntity
  8
VP
 62
0
370
13
440
16777216
100
AcDbTrace
 10
1042580.368800427
 20
85554.54637939087
 30
0.0
 11
1042580.368800427
 21
85544.54637939089
 31
0.0
 12
1042550.368800427
 22
85549.54637939086
 32
0.0
 13
1042550.368800427
 23
85549.54637939086
 33
0.0
  0
SOLID
  5
1F0
330
1E9
100
AcDbEntity
  8
VP
 62
0
370
13
440
16777216
100
AcDbTrace
 10
1042718.276863378
 20
85554.54637939087
 30
0.0
 11
1042718.276863378
 21
85544.54637939089
 31
0.0
 12
1042748.276863378
 22
85549.54637939086
 32
0.0
 13
1042748.276863378
 23
85549.54637939086
 33
0.0
  0
MTEXT
  5
1F1
330
1E9
100
AcDbEntity
  8
VP
 62
0
370
13
440
16777216
100
AcDbMText
 10
1042649.322831903
 20
85574.86356902252
 30
0.0
 40
30.0
 41
0.0
 46
0.0
 71
5
  1
198
  0
POINT
  5
1F2
330
1E9
100
AcDbEntity
  8
Defpoints
 62
0
370
13
440
16777216
100
AcDbPoint
 10
1042550.368800427
 20
85609.35269788982
 30
0.0
  0
POINT
  5
1F3
330
1E9
100
AcDbEntity
  8
Defpoints
 62
0
370
13
440
16777216
100
AcDbPoint
 10
1042748.276863378
 20
85610.29345615982
 30
0.0
  0
POINT
  5
1F4
330
1E9
100
AcDbEntity
  8
Defpoints
 62
0
370
13
440
16777216
100
AcDbPoint
 10
1042748.276863378
 20
85549.54637939086
 30
0.0
  0
ENDBLK
  5
1EB
330
1E9
100
AcDbEntity
  8
0
100
AcDbBlockEnd
  0
ENDSEC
  0
SECTION
  2
ENTITIES
  0
LWPOLYLINE
  5
34
330
17
100
AcDbEntity
  8
0
370
13
100
AcDbPolyline
 90
4
 70
1
 43
4.114242282453472
 10
1045809.357898705
 20
84971.61422095948
 10
1039568.084158456
 20
84971.61422095948
 10
1039568.084158456
 20
89910.71905842939
 10
1045809.357898705
 20
89910.71905842939
  0
LWPOLYLINE
  5
35
330
17
100
AcDbEntity
  8
BAR-GAL
 62
7
370
13
100
AcDbPolyline
 90
4
 70
1
 43
17.0
 10
1044033.680776437
 20
85272.04811418994
 10
1041700.092606977
 20
85272.04811418994
 10
1041700.092606977
 20
89678.54048481282
 10
1044033.680776437
 20
89678.54048481282
  0
DIMENSION
  5
36
330
17
100
AcDbEntity
  8
VP
370
13
100
AcDbDimension
280
0
  2
*D1
  3
ISO-25
 10
1044033.740735809
 20
85089.35246383154
 30
0.0
 11
1042866.916671393
 21
85117.234455646
 31
0.0
 70
32
 71
5
 42
2333.648128831992
 73
0
 74
0
 75
0
100
AcDbAlignedDimension
 13
1041700.092606977
 23
85325.36207073076
 33
0.0
 14
1044033.740735809
 24
85347.16558749712
 34
0.0
 50
0.0
100
AcDbRotatedDimension
1001
ACAD
1000
DSTYLE
1002
{
1070
41
1040
35.0
1070
140
1040
35.0
1002
}
  0
DIMENSION
  5
43
330
17
100
AcDbEntity
  8
VP
370
13
100
AcDbDimension
280
0
  2
*D2
  3
ISO-25
 10
1041488.336692986
 20
89675.78456499791
 30
0.0
 11
1041460.466638416
 21
87473.46986623183
 31
0.0
 70
32
 71
5
 42
4404.629397531564
 73
0
 74
0
 75
0
100
AcDbAlignedDimension
 13
1041700.092606977
 23
85271.15516746634
 33
0.0
 14
1041700.092606977
 24
89675.78456499788
 34
0.0
 50
90.0
100
AcDbRotatedDimension
1001
ACAD
1000
DSTYLE
1002
{
1070
41
1040
35.0
1070
140
1040
35.0
1002
}
  0
DIMENSION
  5
50
102
{ACAD_XDICTIONARY
360
51
102
}
330
17
100
AcDbEntity
  8
VP
370
13
100
AcDbDimension
280
0
  2
*D3
  3
ISO-25
 10
1044180.400945608
 20
89678.54048481285
 30
0.0
 11
1044152.530891038
 21
87475.79429950111
 31
0.0
 70
32
 71
5
 42
4405.492370622887
 73
0
 74
0
 75
0
100
AcDbAlignedDimension
 13
1044032.661783304
 23
85273.04811418994
 33
0.0
 14
1044033.680776437
 24
89678.54048481282
 34
0.0
 50
90.0
100
AcDbRotatedDimension
1001
ACAD
1000
DSTYLE
1002
{
1070
41
1040
35.0
1070
140
1040
35.0
1002
}
  0
DIMENSION
  5
5E
330
17
100
AcDbEntity
  8
VP
370
13
100
AcDbDimension
280
0
  2
*D4
  3
ISO-25
 10
1044032.894979966
 20
89769.50988070403
 30
0.0
 11
1042866.493793471
 21
89797.3918725185
 31
0.0
 70
32
 71
5
 42
2332.802372988314
 73
0
 74
0
 75
0
100
AcDbAlignedDimension
 13
1041700.092606977
 23
89675.78456499788
 33
0.0
 14
1044032.894979966
 24
89671.57201494704
 34
0.0
 50
0.0
100
AcDbRotatedDimension
1001
ACAD
1000
DSTYLE
1002
{
1070
140
1040
35.0
1070
41
1040
35.0
1002
}
  0
LWPOLYLINE
  5
6B
330
17
100
AcDbEntity
  8
BAR-GAL
 62
7
370
13
100
AcDbPolyline
 90
5
 70
0
 43
17.0
 10
1042649.617458603
 20
87942.2126444651
 10
1042649.617458603
 20
87157.366617678
 10
1042929.221125724
 20
87157.366617678
 10
1042929.646566772
 20
87547.24714456563
 10
1042649.617458603
 20
87545.97844125926
  0
LWPOLYLINE
  5
6C
330
17
100
AcDbEntity
  8
BAR-GAL
 62
7
370
13
100
AcDbPolyline
 90
4
 70
1
 43
5.0
 10
1042678.176392716
 20
87923.32526447189
 10
1042830.997656268
 20
87923.32526447189
 10
1042830.997656268
 20
87783.23233554994
 10
1042678.176392716
 20
87783.23233554994
  0
LWPOLYLINE
  5
6D
330
17
100
AcDbEntity
  8
BAR-GAL
 62
7
370
13
100
AcDbPolyline
 90
4
 70
1
 43
5.0
 10
1042849.317535731
 20
87923.32526447189
 10
1043002.138799521
 20
87923.32526447189
 10
1043002.138799521
 20
87783.23233554994
 10
1042849.317535731
 20
87783.23233554994
  0
LINE
  5
6E
330
17
100
AcDbEntity
  8
BAR-GAL
 62
7
370
13
100
AcDbLine
 10
1042678.176392716
 20
87923.32526447189
 30
0.0
 11
1042830.997656268
 21
87783.23233554994
 31
0.0
  0
LINE
  5
6F
330
17
100
AcDbEntity
  8
BAR-GAL
 62
7
370
13
100
AcDbLine
 10
1042830.997656268
 20
87923.32526447189
 30
0.0
 11
1042678.176392716
 21
87783.23233554994
 31
0.0
  0
LINE
  5
70
330
17
100
AcDbEntity
  8
BAR-GAL
 62
7
370
13
100
AcDbLine
 10
1042849.317535731
 20
87923.32526447189
 30
0.0
 11
1043002.138799521
 21
87783.23233554994
 31
0.0
  0
LINE
  5
71
330
17
100
AcDbEntity
  8
BAR-GAL
 62
7
370
13
100
AcDbLine
 10
1043002.138799521
 20
87923.32526447189
 30
0.0
 11
1042849.317535731
 21
87783.23233554994
 31
0.0
  0
LWPOLYLINE
  5
72
330
17
100
AcDbEntity
  8
BAR-GAL
 62
7
370
13
100
AcDbPolyline
 90
4
 70
1
 43
5.0
 10
1042758.996155643
 20
87429.8049410225
 10
1042819.487905884
 20
87429.8049410225
 10
1042819.487905884
 20
87267.42450068114
 10
1042758.996155643
 20
87267.42450068114
  0
LINE
  5
73
330
17
100
AcDbEntity
  8
BAR-GAL
 62
7
370
13
100
AcDbLine
 10
1042758.996155643
 20
87429.8049410225
 30
0.0
 11
1042758.996155643
 21
87547.24714456563
 31
0.0
  0
LINE
  5
74
330
17
100
AcDbEntity
  8
BAR-GAL
 62
7
370
13
100
AcDbLine
 10
1042788.996155643
 20
87429.8049410225
 30
0.0
 11
1042788.996155643
 21
87547.24714456563
 31
0.0
  0
LINE
  5
75
330
17
100
AcDbEntity
  8
BAR-GAL
 62
7
370
13
100
AcDbLine
 10
1042818.996155643
 20
87429.8049410225
 30
0.0
 11
1042818.996155643
 21
87547.24714456563
 31
0.0
  0
LINE
  5
76
330
17
100
AcDbEntity
  8
BAR-GAL
 62
7
370
13
100
AcDbLine
 10
1042758.996155643
 20
87423.24145177264
 30
0.0
 11
1042649.821780975
 21
87423.24145177264
 31
0.0
  0
LINE
  5
77
330
17
100
AcDbEntity
  8
BAR-GAL
 62
7
370
13
100
AcDbLine
 10
1042758.996155643
 20
87393.24145177264
 30
0.0
 11
1042649.821780975
 21
87393.24145177264
 31
0.0
  0
LINE
  5
78
330
17
100
AcDbEntity
  8
BAR-GAL
 62
7
370
13
100
AcDbLine
 10
1042758.996155643
 20
87363.24145177264
 30
0.0
 11
1042649.821780975
 21
87363.24145177264
 31
0.0
  0
LINE
  5
79
330
17
100
AcDbEntity
  8
BAR-GAL
 62
7
370
13
100
AcDbLine
 10
1042758.996155643
 20
87333.24145177264
 30
0.0
 11
1042649.821780975
 21
87333.24145177264
 31
0.0
  0
LINE
  5
7A
330
17
100
AcDbEntity
  8
BAR-GAL
 62
7
370
13
100
AcDbLine
 10
1042758.996155643
 20
87303.24145177264
 30
0.0
 11
1042649.821780975
 21
87303.24145177264
 31
0.0
  0
LINE
  5
7B
330
17
100
AcDbEntity
  8
BAR-GAL
 62
7
370
13
100
AcDbLine
 10
1042758.996155643
 20
87273.24145177266
 30
0.0
 11
1042649.821780975
 21
87273.24145177266
 31
0.0
  0
LINE
  5
7C
330
17
100
AcDbEntity
  8
BAR-GAL
 62
7
370
13
100
AcDbLine
 10
1042758.996155643
 20
87149.98229713803
 30
0.0
 11
1042758.996155643
 21
87267.42450068114
 31
0.0
  0
LINE
  5
7D
330
17
100
AcDbEntity
  8
BAR-GAL
 62
7
370
13
100
AcDbLine
 10
1042788.996155643
 20
87149.98229713803
 30
0.0
 11
1042788.996155643
 21
87267.42450068114
 31
0.0
  0
LINE
  5
7E
330
17
100
AcDbEntity
  8
BAR-GAL
 62
7
370
13
100
AcDbLine
 10
1042818.996155643
 20
87149.98229713803
 30
0.0
 11
1042818.996155643
 21
87267.42450068114
 31
0.0
  0
LINE
  5
7F
330
17
100
AcDbEntity
  8
BAR-GAL
 62
7
370
13
100
AcDbLine
 10
1042929.646566772
 20
87423.24145177264
 30
0.0
 11
1042820.472192104
 21
87423.24145177264
 31
0.0
  0
LINE
  5
80
330
17
100
AcDbEntity
  8
BAR-GAL
 62
7
370
13
100
AcDbLine
 10
1042929.646566772
 20
87393.24145177264
 30
0.0
 11
1042820.472192104
 21
87393.24145177264
 31
0.0
  0
LINE
  5
81
330
17
100
AcDbEntity
  8
BAR-GAL
 62
7
370
13
100
AcDbLine
 10
1042929.646566772
 20
87363.24145177264
 30
0.0
 11
1042820.472192104
 21
87363.24145177264
 31
0.0
  0
LINE
  5
82
330
17
100
AcDbEntity
  8
BAR-GAL
 62
7
370
13
100
AcDbLine
 10
1042929.646566772
 20
87333.24145177264
 30
0.0
 11
1042820.472192104
 21
87333.24145177264
 31
0.0
  0
LINE
  5
83
330
17
100
AcDbEntity
  8
BAR-GAL
 62
7
370
13
100
AcDbLine
 10
1042929.646566772
 20
87303.24145177264
 30
0.0
 11
1042820.472192104
 21
87303.24145177264
 31
0.0
  0
LINE
  5
84
330
17
100
AcDbEntity
  8
BAR-GAL
 62
7
370
13
100
AcDbLine
 10
1042929.646566772
 20
87273.24145177266
 30
0.0
 11
1042820.472192104
 21
87273.24145177266
 31
0.0
  0
LWPOLYLINE
  5
85
330
17
100
AcDbEntity
  8
BAR-GAL
 62
7
370
13
100
AcDbPolyline
 90
4
 70
1
 43
5.0
 10
1042649.617458603
 20
87156.9246108678
 10
1042891.604673853
 20
87156.9246108678
 10
1042891.604673853
 20
87096.68329366637
 10
1042649.617458603
 20
87096.68329366637
  0
LWPOLYLINE
  5
86
330
17
100
AcDbEntity
  8
BAR-GAL
 62
7
370
13
100
AcDbPolyline
 90
2
 70
0
 43
5.0
 10
1042766.780427372
 20
87156.9246108678
 10
1042766.780427372
 20
87097.68329366641
  0
LWPOLYLINE
  5
87
330
17
100
AcDbEntity
  8
BAR-GAL
 62
7
370
13
100
AcDbPolyline
 90
2
 70
0
 43
20.0
 10
1042891.604673853
 20
87156.26760939739
 10
1042891.604673853
 20
87096.68329366637
  0
LINE
  5
88
330
17
100
AcDbEntity
  8
BAR-GAL
 62
7
370
13
100
AcDbLine
 10
1042649.617458603
 20
87156.9246108678
 30
0.0
 11
1042766.780427372
 21
87097.68329366641
 31
0.0
  0
LINE
  5
89
330
17
100
AcDbEntity
  8
BAR-GAL
 62
7
370
13
100
AcDbLine
 10
1042766.780427372
 20
87097.68329366641
 30
0.0
 11
1042891.604673853
 21
87156.26760939739
 31
0.0
  0
LINE
  5
8A
330
17
100
AcDbEntity
  8
BAR-GAL
 62
7
370
13
100
AcDbLine
 10
1042891.604673853
 20
87097.68329366637
 30
0.0
 11
1042766.780427372
 21
87156.9246108678
 31
0.0
  0
LINE
  5
8B
330
17
100
AcDbEntity
  8
BAR-GAL
 62
7
370
13
100
AcDbLine
 10
1042766.780427372
 20
87156.9246108678
 30
0.0
 11
1042650.911183587
 21
87096.68329366637
 31
0.0
  0
DIMENSION
  5
8C
330
17
100
AcDbEntity
  8
VP
370
13
100
AcDbDimension
280
0
  2
*D5
  3
ISO-25
 10
1042983.770764506
 20
87546.24714456566
 30
0.0
 11
1042955.888772691
 21
87351.25383011515
 31
0.0
 70
32
 71
5
 42
389.9866289003985
 73
0
 74
0
 75
0
100
AcDbAlignedDimension
 13
1042929.646566772
 23
87156.26051566523
 33
0.0
 14
1042929.646566772
 24
87546.24714456563
 34
0.0
 50
90.0
100
AcDbRotatedDimension
1001
ACAD
1000
DSTYLE
1002
{
1070
41
1040
35.0
1070
140
1040
35.0
1002
}
  0
DIMENSION
  5
99
330
17
100
AcDbEntity
  8
VP
370
13
100
AcDbDimension
280
0
  2
*D6
  3
ISO-25
 10
1042929.646566772
 20
87595.63319419461
 30
0.0
 11
1042789.40121957
 21
87623.50324876489
 31
0.0
 70
32
 71
5
 42
280.4906944036484
 73
0
 74
0
 75
0
100
AcDbAlignedDimension
 13
1042649.155872368
 23
87492.79224858739
 33
0.0
 14
1042929.646566772
 24
87491.83706958422
 34
0.0
 50
0.0
100
AcDbRotatedDimension
1001
ACAD
1000
DSTYLE
1002
{
1070
41
1040
35.0
1070
140
1040
35.0
1002
}
  0
LWPOLYLINE
  5
A6
330
17
100
AcDbEntity
  8
BAR-GAL
 62
7
370
13
100
AcDbPolyline
 90
2
 70
0
 43
15.0
 10
1042649.617458603
 20
87157.366617678
 10
1042650.061977217
 20
87095.13744025279
  0
LWPOLYLINE
  5
A7
330
17
100
AcDbEntity
  8
BAR-GAL
 62
7
370
13
100
AcDbPolyline
 90
4
 70
0
 43
17.0
 10
1042649.617458603
 20
87942.2126444651
 10
1043029.550284791
 20
87942.2126444651
 10
1043029.550284791
 20
87763.5864263731
 10
1042649.617458603
 20
87763.5864263731
  0
LWPOLYLINE
  5
A8
330
17
100
AcDbEntity
  8
BAR-GAL
 62
7
370
13
100
AcDbPolyline
 90
6
 70
0
 43
17.0
 10
1043028.416392659
 20
87942.2126444651
 10
1043097.95228753
 20
87942.2126444651
 10
1043100.06578422
 20
87026.1340341212
 10
1042892.001256751
 20
87026.1340341212
 10
1042891.604673853
 20
87098.84285909699
 10
1042646.356558373
 20
87098.84285909699
  0
DIMENSION
  5
A9
330
17
100
AcDbEntity
  8
VP
370
13
100
AcDbDimension
280
0
  2
*D7
  3
ISO-25
 10
1043030.008069014
 20
87988.58886413125
 30
0.0
 11
1042840.024282093
 21
88016.4708559457
 31
0.0
 70
32
 71
5
 42
379.9675738422666
 73
0
 74
0
 75
0
100
AcDbAlignedDimension
 13
1042650.040495171
 23
87942.2126444651
 33
0.0
 14
1043030.008069014
 24
87940.54060866628
 34
0.0
 50
0.0
100
AcDbRotatedDimension
1001
ACAD
1000
DSTYLE
1002
{
1070
41
1040
35.0
1070
140
1040
35.0
1002
}
  0
DIMENSION
  5
B6
330
17
100
AcDbEntity
  8
VP
370
13
100
AcDbDimension
280
0
  2
*D8
  3
ISO-25
 10
1042600.144284525
 20
87762.49017006098
 30
0.0
 11
1042572.274229954
 21
87852.35140726274
 31
0.0
 70
32
 71
5
 42
179.722474404145
 73
0
 74
0
 75
0
100
AcDbAlignedDimension
 13
1042650.040495171
 23
87942.2126444651
 33
0.0
 14
1042647.059437199
 24
87762.49017006096
 34
0.0
 50
90.0
100
AcDbRotatedDimension
1001
ACAD
1000
DSTYLE
1002
{
1070
41
1040
35.0
1070
140
1040
35.0
1002
}
  0
DIMENSION
  5
C3
330
17
100
AcDbEntity
  8
VP
370
13
100
AcDbDimension
280
0
  2
*D9
  3
ISO-25
 10
1043071.508540204
 20
87035.97406487064
 30
0.0
 11
1043043.638485633
 21
87493.49548943028
 31
0.0
 70
32
 71
5
 42
915.042849119869
 73
0
 74
0
 75
0
100
AcDbAlignedDimension
 13
1043002.088006707
 23
87951.01691399048
 33
0.0
 14
1043003.991951891
 24
87035.97406487062
 34
0.0
 50
90.0
100
AcDbRotatedDimension
1001
ACAD
1000
DSTYLE
1002
{
1070
41
1040
35.0
1070
140
1040
35.0
1002
}
  0
DIMENSION
  5
D0
330
17
100
AcDbEntity
  8
VP
370
13
100
AcDbDimension
280
0
  2
*D10
  3
ISO-25
 10
1042889.990442632
 20
86974.48784278726
 30
0.0
 11
1042995.030552696
 21
87002.3578973575
 31
0.0
 70
32
 71
5
 42
210.080220129108
 73
0
 74
0
 75
0
100
AcDbAlignedDimension
 13
1043100.070662761
 23
87025.81589683381
 33
0.0
 14
1042889.990442632
 24
87028.1166760315
 34
0.0
 50
0.0
100
AcDbRotatedDimension
1001
ACAD
1000
DSTYLE
1002
{
1070
41
1040
35.0
1070
140
1040
35.0
1002
}
  0
LWPOLYLINE
  5
DD
330
17
100
AcDbEntity
  8
BAR-GAL
 62
7
370
13
100
AcDbPolyline
 90
4
 70
1
 43
17.0
 10
1043423.286716671
 20
85764.1678706372
 10
1042938.19469558
 20
85764.1678706372
 10
1042938.19469558
 20
85270.13177853831
 10
1043423.286716671
 20
85270.13177853831
  0
DIMENSION
  5
DE
330
17
100
AcDbEntity
  8
VP
370
13
100
AcDbDimension
280
0
  2
*D11
  3
ISO-25
 10
1043423.286716671
 20
85816.53375163832
 30
0.0
 11
1043180.655145992
 21
85841.85094126996
 31
0.0
 70
32
 71
5
 42
485.2631413566414
 73
0
 74
0
 75
0
100
AcDbAlignedDimension
 13
1042938.023575314
 23
85764.16533061895
 33
0.0
 14
1043423.286716671
 24
85759.72156866846
 34
0.0
 50
0.0
100
AcDbRotatedDimension
  0
DIMENSION
  5
EB
330
17
100
AcDbEntity
  8
VP
370
13
100
AcDbDimension
280
0
  2
*D12
  3
ISO-25
 10
1042748.276863378
 20
85816.53375163832
 30
0.0
 11
1042843.235779479
 21
85841.85094126996
 31
0.0
 70
32
 71
5
 42
189.9178322018124
 73
0
 74
0
 75
0
100
AcDbAlignedDimension
 13
1042938.19469558
 23
85762.40583469308
 33
0.0
 14
1042748.276863378
 24
85761.20493933384
 34
0.0
 50
0.0
100
AcDbRotatedDimension
  0
DIMENSION
  5
F8
330
17
100
AcDbEntity
  8
VP
370
13
100
AcDbDimension
280
0
  2
*D13
  3
ISO-25
 10
1043505.896697852
 20
85269.13177853834
 30
0.0
 11
1043480.579508221
 21
85516.64982458747
 31
0.0
 70
32
 71
5
 42
495.0360920988896
 73
0
 74
0
 75
0
100
AcDbAlignedDimension
 13
1043423.286716671
 23
85764.1678706372
 33
0.0
 14
1043423.761947406
 24
85269.13177853831
 34
0.0
 50
90.0
100
AcDbRotatedDimension
  0
LWPOLYLINE
  5
105
330
17
100
AcDbEntity
  8
BAR-GAL
 62
7
370
13
100
AcDbPolyline
 90
4
 70
1
 43
17.0
 10
1042938.19469558
 20
85764.16533061895
 10
1042748.19469558
 20
85764.16533061895
 10
1042748.19469558
 20
85270.13177853831
 10
1042938.19469558
 20
85270.13177853831
  0
LWPOLYLINE
  5
106
330
17
100
AcDbEntity
  8
BAR-GAL
 62
7
370
13
100
AcDbPolyline
 90
4
 70
1
 43
17.0
 10
1042550.368800428
 20
86331.43903929321
 10
1042830.368800428
 20
86331.43903929321
 10
1042830.368800428
 20
85924.43903929321
 10
1042550.368800428
 20
85924.43903929321
  0
DIMENSION
  5
107
102
{ACAD_XDICTIONARY
360
108
102
}
330
17
100
AcDbEntity
  8
VP
370
13
100
AcDbDimension
280
0
  2
*D14
  3
ISO-25
 10
1042828.287438651
 20
86375.32517050713
 30
0.0
 11
1042689.328119539
 21
86400.64236013877
 31
0.0
 70
32
 71
5
 42
277.9186382233165
 73
0
 74
0
 75
0
100
AcDbAlignedDimension
 13
1042550.368800428
 23
86331.43903929321
 33
0.0
 14
1042828.287438651
 24
86331.43903929321
 34
0.0
 50
0.0
100
AcDbRotatedDimension
  0
DIMENSION
  5
115
330
17
100
AcDbEntity
  8
VP
370
13
100
AcDbDimension
280
0
  2
*D15
  3
ISO-25
 10
1042479.879133752
 20
85926.43903929324
 30
0.0
 11
1042454.56194412
 21
86130.10427267091
 31
0.0
 70
32
 71
5
 42
407.3304667559568
 73
0
 74
0
 75
0
100
AcDbAlignedDimension
 13
1042550.368800428
 23
86333.76950604917
 33
0.0
 14
1042550.368800428
 24
85926.43903929321
 34
0.0
 50
90.0
100
AcDbRotatedDimension
  0
LWPOLYLINE
  5
122
330
17
100
AcDbEntity
  8
BAR-GAL
 62
7
370
13
100
AcDbPolyline
 90
4
 70
1
 43
17.0
 10
1043098.161839036
 20
87941.17688324107
 10
1043308.988434871
 20
87941.17688324107
 10
1043308.988434871
 20
87703.6851756856
 10
1043098.161839036
 20
87703.6851756856
  0
DIMENSION
  5
123
330
17
100
AcDbEntity
  8
VP
370
13
100
AcDbDimension
280
0
  2
*D16
  3
ISO-25
 10
1043307.988434871
 20
87988.58886413125
 30
0.0
 11
1043202.9703612
 21
88016.45891870151
 31
0.0
 70
32
 71
5
 42
210.0361473411322
 73
0
 74
0
 75
0
100
AcDbAlignedDimension
 13
1043097.95228753
 23
87941.17688324107
 33
0.0
 14
1043307.988434871
 24
87941.17688324107
 34
0.0
 50
0.0
100
AcDbRotatedDimension
1001
ACAD
1000
DSTYLE
1002
{
1070
41
1040
35.0
1070
140
1040
35.0
1002
}
  0
DIMENSION
  5
130
330
17
100
AcDbEntity
  8
VP
370
13
100
AcDbDimension
280
0
  2
*D17
  3
ISO-25
 10
1043377.991768817
 20
87705.68517568563
 30
0.0
 11
1043350.109777003
 21
87823.43102946306
 31
0.0
 70
32
 71
5
 42
235.4917075554549
 73
0
 74
0
 75
0
100
AcDbAlignedDimension
 13
1043306.657968115
 23
87941.17688324107
 33
0.0
 14
1043306.657968115
 24
87705.68517568563
 34
0.0
 50
90.0
100
AcDbRotatedDimension
1001
ACAD
1000
DSTYLE
1002
{
1070
41
1040
35.0
1070
140
1040
35.0
1002
}
  0
LWPOLYLINE
  5
13D
330
17
100
AcDbEntity
  8
BAR-GAL
 62
7
370
13
100
AcDbPolyline
 90
4
 70
1
 43
17.0
 10
1043099.008935127
 20
87588.53598776777
 10
1043309.008935127
 20
87588.53598776777
 10
1043309.008935127
 20
87343.53598776777
 10
1043099.008935127
 20
87343.53598776777
  0
LWPOLYLINE
  5
13E
330
17
100
AcDbEntity
  8
BAR-GAL
 62
7
370
13
100
AcDbPolyline
 90
4
 70
1
 43
17.0
 10
1043100.070662761
 20
87345.75215216214
 10
1043310.070662761
 20
87345.75215216214
 10
1043310.070662761
 20
87107.75215216214
 10
1043100.070662761
 20
87107.75215216214
  0
DIMENSION
  5
13F
102
{ACAD_XDICTIONARY
360
140
102
}
330
17
100
AcDbEntity
  8
VP
370
13
100
AcDbDimension
280
0
  2
*D18
  3
ISO-25
 10
1043308.669662579
 20
87619.11951680866
 30
0.0
 11
1043203.839298853
 21
87646.98957137892
 31
0.0
 70
32
 71
5
 42
209.6607274515554
 73
0
 74
0
 75
0
100
AcDbAlignedDimension
 13
1043099.008935127
 23
87588.53598776777
 33
0.0
 14
1043308.669662579
 24
87587.26534363187
 34
0.0
 50
0.0
100
AcDbRotatedDimension
1001
ACAD
1000
DSTYLE
1002
{
1070
41
1040
35.0
1070
140
1040
35.0
1002
}
  0
DIMENSION
  5
14D
330
17
100
AcDbEntity
  8
VP
370
13
100
AcDbDimension
280
0
  2
*D19
  3
ISO-25
 10
1043380.434075634
 20
87343.63631694939
 30
0.0
 11
1043352.564021063
 21
87466.08678736284
 31
0.0
 70
32
 71
5
 42
244.9009408275451
 73
0
 74
0
 75
0
100
AcDbAlignedDimension
 13
1043326.959382268
 23
87588.5372577769
 33
0.0
 14
1043329.711596779
 24
87343.63631694936
 34
0.0
 50
90.0
100
AcDbRotatedDimension
1001
ACAD
1000
DSTYLE
1002
{
1070
41
1040
35.0
1070
140
1040
35.0
1002
}
  0
DIMENSION
  5
15A
330
17
100
AcDbEntity
  8
VP
370
13
100
AcDbDimension
280
0
  2
*D20
  3
ISO-25
 10
1043380.434075636
 20
87108.75215216217
 30
0.0
 11
1043352.552083821
 21
87226.14406996468
 31
0.0
 70
32
 71
5
 42
234.7838356056309
 73
0
 74
0
 75
0
100
AcDbAlignedDimension
 13
1043328.675449438
 23
87343.53598776777
 33
0.0
 14
1043327.859239921
 24
87108.75215216214
 34
0.0
 50
90.0
100
AcDbRotatedDimension
1001
ACAD
1000
DSTYLE
1002
{
1070
41
1040
35.0
1070
140
1040
35.0
1002
}
  0
LWPOLYLINE
  5
167
330
17
100
AcDbEntity
  8
BAR-GAL
 62
7
370
13
100
AcDbPolyline
 90
4
 70
1
 43
17.0
 10
1043100.070662761
 20
87108.89922008308
 10
1043492.070662761
 20
87108.89922008308
 10
1043492.070662761
 20
86838.89922008308
 10
1043100.070662761
 20
86838.89922008308
  0
DIMENSION
  5
168
102
{ACAD_XDICTIONARY
360
169
102
}
330
17
100
AcDbEntity
  8
VP
370
13
100
AcDbDimension
280
0
  2
*D21
  3
ISO-25
 10
1043559.262339128
 20
86838.89922008313
 30
0.0
 11
1043531.392284557
 21
86973.6871481162
 31
0.0
 70
32
 71
5
 42
269.5758560667746
 73
0
 74
0
 75
0
100
AcDbAlignedDimension
 13
1043492.081841305
 23
87108.47507614984
 33
0.0
 14
1043492.070662761
 24
86838.89922008308
 34
0.0
 50
90.0
100
AcDbRotatedDimension
1001
ACAD
1000
DSTYLE
1002
{
1070
41
1040
35.0
1070
140
1040
35.0
1002
}
  0
LWPOLYLINE
  5
176
330
17
100
AcDbEntity
  8
BAR-GAL
 62
7
370
13
100
AcDbPolyline
 90
2
 70
0
 43
17.0
 10
1043295.914273969
 20
86835.84348594012
 10
1043295.914273969
 20
87108.89922008308
  0
DIMENSION
  5
177
330
17
100
AcDbEntity
  8
VP
370
13
100
AcDbDimension
280
0
  2
*D22
  3
ISO-25
 10
1043295.631083398
 20
86773.80357409635
 30
0.0
 11
1043197.850873079
 21
86801.67362866661
 31
0.0
 70
32
 71
5
 42
195.5604206367861
 73
0
 74
0
 75
0
100
AcDbAlignedDimension
 13
1043100.070662761
 23
86840.2893601872
 33
0.0
 14
1043295.631083398
 24
86841.32833631431
 34
0.0
 50
0.0
100
AcDbRotatedDimension
1001
ACAD
1000
DSTYLE
1002
{
1070
41
1040
35.0
1070
140
1040
35.0
1002
}
  0
DIMENSION
  5
184
330
17
100
AcDbEntity
  8
VP
370
13
100
AcDbDimension
280
0
  2
*D23
  3
ISO-25
 10
1043492.081841305
 20
86773.80357409635
 30
0.0
 11
1043393.856462351
 21
86801.67362866661
 31
0.0
 70
32
 71
5
 42
196.450757907005
 73
0
 74
0
 75
0
100
AcDbAlignedDimension
 13
1043295.631083398
 23
86841.32833631431
 33
0.0
 14
1043492.081841305
 24
86839.86306484073
 34
0.0
 50
0.0
100
AcDbRotatedDimension
1001
ACAD
1000
DSTYLE
1002
{
1070
41
1040
35.0
1070
140
1040
35.0
1002
}
  0
TEXT
  5
191
330
17
100
AcDbEntity
  8
0
 62
7
100
AcDbText
 10
1042574.242236639
 20
86106.87685409386
 30
0.0
 40
59.201694284898
  1
מחסן 5
100
AcDbText
  0
TEXT
  5
192
330
17
100
AcDbEntity
  8
0
 62
7
100
AcDbText
 10
1043009.753225147
 20
85490.23309042199
 30
0.0
 40
59.201694284898
  1
חדר אשפה
100
AcDbText
  0
TEXT
  5
193
330
17
100
AcDbEntity
  8
0
 62
7
100
AcDbText
 10
1042782.498984922
 20
85568.37068249064
 30
0.0
 40
59.201694284898
  1
חדר 
100
AcDbText
  0
TEXT
  5
194
330
17
100
AcDbEntity
  8
0
 62
7
100
AcDbText
 10
1042815.330341737
 20
85431.78071840377
 30
0.0
 40
59.201694284898
  1
גז
100
AcDbText
  0
TEXT
  5
195
330
17
100
AcDbEntity
  8
0
 62
7
100
AcDbText
 10
1043146.864021973
 20
87245.64381885841
 30
0.0
 40
59.201694284898
  1
מוני
100
AcDbText
  0
TEXT
  5
196
330
17
100
AcDbEntity
  8
0
 62
7
100
AcDbText
 10
1043109.618551274
 20
87152.7528104001
 30
0.0
 40
59.201694284898
  1
חשמל
100
AcDbText
  0
TEXT
  5
197
330
17
100
AcDbEntity
  8
0
 62
7
100
AcDbText
 10
1043114.387172911
 20
86981.42922348587
 30
0.0
 40
59.201694284898
  1
מחסן 
100
AcDbText
  0
TEXT
  5
198
330
17
100
AcDbEntity
  8
0
 62
7
100
AcDbText
 10
1043183.316773951
 20
86882.00447140366
 30
0.0
 40
59.201694284898
  1
7
100
AcDbText
  0
TEXT
  5
199
330
17
100
AcDbEntity
  8
0
 62
7
100
AcDbText
 10
1043310.516124877
 20
86982.84986973216
 30
0.0
 40
59.201694284898
  1
מחסן 
100
AcDbText
  0
TEXT
  5
19A
330
17
100
AcDbEntity
  8
0
 62
7
100
AcDbText
 10
1043379.445725918
 20
86883.42511764995
 30
0.0
 40
59.201694284898
  1
6
100
AcDbText
  0
TEXT
  5
19B
330
17
100
AcDbEntity
  8
0
 62
7
100
AcDbText
 10
1043121.063735574
 20
87482.91325143108
 30
0.0
 40
59.201694284898
  1
מחסן 
100
AcDbText
  0
TEXT
  5
19C
330
17
100
AcDbEntity
  8
0
 62
7
100
AcDbText
 10
1043189.993336615
 20
87383.48849934887
 30
0.0
 40
59.201694284898
  1
9
100
AcDbText
  0
TEXT
  5
19D
330
17
100
AcDbEntity
  8
0
 62
7
100
AcDbText
 10
1043117.004129442
 20
87843.47982401995
 30
0.0
 40
59.201694284898
  1
מחסן 
100
AcDbText
  0
TEXT
  5
19E
330
17
100
AcDbEntity
  8
0
 62
7
100
AcDbText
 10
1043185.933730482
 20
87744.05507193774
 30
0.0
 40
59.201694284898
  1
8
100
AcDbText
  0
LWPOLYLINE
  5
19F
330
17
100
AcDbEntity
  8
BAR-GAL
 62
3
370
13
100
AcDbPolyline
 90
17
 70
1
 10
1042929.646566772
 20
87547.2471445653
 10
1042929.221125723
 20
87157.366617678
 10
1042891.604673853
 20
87157.366617678
 10
1042891.604673853
 20
87098.8428591208
 10
1042892.001256751
 20
87026.1340341212
 10
1043100.065784221
 20
87026.1340341212
 10
1043099.333502109
 20
87343.53598776777
 10
1043099.008935127
 20
87343.53598776777
 10
1043099.008935127
 20
87484.2170076969
 10
1043098.502597307
 20
87703.6851756856
 10
1043098.161839036
 20
87703.6851756856
 10
1043098.161839037
 20
87851.38418284366
 10
1043097.95228753
 20
87942.2126444651
 10
1043029.550284791
 20
87942.2126444651
 10
1043029.550284791
 20
87763.5864263731
 10
1042649.617458603
 20
87763.58642637312
 10
1042649.617458603
 20
87545.97844125926
  0
LWPOLYLINE
  5
1A0
330
17
100
AcDbEntity
  8
BAR-GAL
 62
5
370
13
100
AcDbPolyline
 90
4
 70
1
 43
15.0
 10
1041700.092606977
 20
85268.45017832093
 10
1042148.092606977
 20
85268.45017832093
 10
1042148.092606977
 20
85498.45017832093
 10
1041700.092606977
 20
85498.45017832093
  0
LWPOLYLINE
  5
1A1
330
17
100
AcDbEntity
  8
BAR-GAL
 62
5
370
13
100
AcDbPolyline
 90
4
 70
1
 43
15.0
 10
1041700.092606977
 20
85500.01475326055
 10
1042045.092606977
 20
85500.01475326055
 10
1042045.092606977
 20
85725.01475326056
 10
1041700.092606977
 20
85725.01475326056
  0
DIMENSION
  5
1A2
102
{ACAD_XDICTIONARY
360
1A3
102
}
330
17
100
AcDbEntity
  8
VP
370
13
100
AcDbDimension
280
0
  2
*D24
  3
ISO-25
 10
1042045.092606977
 20
85770.8630874673
 30
0.0
 11
1041872.592606977
 21
85796.19050902255
 31
0.0
 70
32
 71
5
 42
345.0
 73
0
 74
0
 75
0
100
AcDbAlignedDimension
 13
1041700.092606977
 23
85724.59681799624
 33
0.0
 14
1042045.092606977
 24
85725.01475326056
 34
0.0
 50
0.0
100
AcDbRotatedDimension
  0
DIMENSION
  5
1B0
330
17
100
AcDbEntity
  8
VP
370
13
100
AcDbDimension
280
0
  2
*D25
  3
ISO-25
 10
1042148.092606977
 20
85305.86800273953
 30
0.0
 11
1041924.092606977
 21
85331.1851923712
 31
0.0
 70
32
 71
5
 42
448.0
 73
0
 74
0
 75
0
100
AcDbAlignedDimension
 13
1041700.092606977
 23
85268.24813874153
 33
0.0
 14
1042148.092606977
 24
85268.24813874153
 34
0.0
 50
0.0
100
AcDbRotatedDimension
  0
DIMENSION
  5
1BD
102
{ACAD_XDICTIONARY
360
1BE
102
}
330
17
100
AcDbEntity
  8
VP
370
13
100
AcDbDimension
280
0
  2
*D26
  3
ISO-25
 10
1042210.004448224
 20
85498.45017832096
 30
0.0
 11
1042184.677026669
 21
85383.34915853095
 31
0.0
 70
32
 71
5
 42
230.2020395793952
 73
0
 74
0
 75
0
100
AcDbAlignedDimension
 13
1042148.092606977
 23
85268.24813874153
 33
0.0
 14
1042148.092606977
 24
85498.45017832093
 34
0.0
 50
90.0
100
AcDbRotatedDimension
  0
DIMENSION
  5
1CB
330
17
100
AcDbEntity
  8
VP
370
13
100
AcDbDimension
280
0
  2
*D27
  3
ISO-25
 10
1042210.004448226
 20
85723.01475326058
 30
0.0
 11
1042184.687258594
 21
85610.73246579047
 31
0.0
 70
32
 71
5
 42
224.5645749396353
 73
0
 74
0
 75
0
100
AcDbAlignedDimension
 13
1042148.092606977
 23
85498.45017832093
 33
0.0
 14
1042045.092606977
 24
85723.01475326058
 34
0.0
 50
90.0
100
AcDbRotatedDimension
  0
LWPOLYLINE
  5
1D8
330
17
100
AcDbEntity
  8
BAR-GAL
 62
5
370
13
100
AcDbPolyline
 90
5
 70
1
 43
15.0
 10
1042748.276863378
 20
85757.40496388543
 10
1042747.469883296
 20
85921.62130149102
 10
1042550.368800427
 20
85922.63906384479
 10
1042550.368800427
 20
85610.29345615982
 10
1042748.276863378
 20
85609.02471703765
  0
DIMENSION
  5
1D9
102
{ACAD_XDICTIONARY
360
1DA
102
}
330
17
100
AcDbEntity
  8
VP
370
13
100
AcDbDimension
280
0
  2
*D28
  3
ISO-25
 10
1042479.87913375
 20
85610.29345615985
 30
0.0
 11
1042454.551712195
 21
85766.46626000202
 31
0.0
 70
32
 71
5
 42
312.3456076849688
 73
0
 74
0
 75
0
100
AcDbAlignedDimension
 13
1042550.368800427
 23
85922.63906384479
 33
0.0
 14
1042550.368800427
 24
85610.29345615982
 34
0.0
 50
90.0
100
AcDbRotatedDimension
  0
DIMENSION
  5
1E7
102
{ACAD_XDICTIONARY
360
1E8
102
}
330
17
100
AcDbEntity
  8
VP
370
13
100
AcDbDimension
280
0
  2
*D29
  3
ISO-25
 10
1042748.276863378
 20
85549.54637939086
 30
0.0
 11
1042649.322831903
 21
85574.86356902252
 31
0.0
 70
32
 71
5
 42
197.9080629505915
 73
0
 74
0
 75
0
100
AcDbAlignedDimension
 13
1042550.368800427
 23
85609.35269788982
 33
0.0
 14
1042748.276863378
 24
85610.29345615982
 34
0.0
 50
0.0
100
AcDbRotatedDimension
  0
TEXT
  5
1F5
330
17
100
AcDbEntity
  8
0
100
AcDbText
 10
1041738.76203249
 20
85582.96391399276
 30
0.0
 40
63.93782982768984
  1
? מחסן
100
AcDbText
  0
TEXT
  5
1F6
330
17
100
AcDbEntity
  8
0
100
AcDbText
 10
1041772.006644194
 20
85383.64710481979
 30
0.0
 40
63.93782982768984
  1
? מחסן
100
AcDbText
  0
TEXT
  5
1F7
330
17
100
AcDbEntity
  8
0
 62
7
100
AcDbText
 10
1042558.720069862
 20
85797.65677790916
 30
0.0
 40
59.201694284898
  1
מחסן 
100
AcDbText
  0
TEXT
  5
1F8
330
17
100
AcDbEntity
  8
0
 62
7
100
AcDbText
 10
1042627.649670902
 20
85698.23202582693
 30
0.0
 40
59.201694284898
  1
?
100
AcDbText
  0
LWPOLYLINE
  5
1F9
330
17
100
AcDbEntity
  8
BAR-GAL
 62
6
370
13
100
AcDbPolyline
 90
14
 70
1
 10
1042649.617458603
 20
87942.2126444651
 10
1043307.988434871
 20
87941.17688324107
 10
1043308.988434871
 20
87703.6851756856
 10
1043098.503717669
 20
87703.19956369986
 10
1043099.008935127
 20
87588.53598776777
 10
1043308.669662579
 20
87587.26534363187
 10
1043310.070662761
 20
87107.75215216214
 10
1043492.070662761
 20
87107.75215216214
 10
1043492.070662761
 20
86838.89922008308
 10
1043100.070662761
 20
86840.2893601872
 10
1043100.06578422
 20
87026.1340341212
 10
1042892.001256751
 20
87026.1340341212
 10
1042889.161414858
 20
87098.84285909699
 10
1042649.617458603
 20
87096.68329366637
  0
LWPOLYLINE
  5
1FA
330
17
100
AcDbEntity
  8
BAR-GAL
 62
1
370
13
100
AcDbPolyline
 90
18
 70
1
 10
1041700.092606977
 20
85724.59681799624
 10
1041700.092606977
 20
89678.54048481282
 10
1044033.680776437
 20
89678.54048481282
 10
1044033.680776437
 20
85272.04811418994
 10
1043423.286716671
 20
85272.04811418994
 10
1043423.286716671
 20
85764.1678706372
 10
1042748.19469558
 20
85764.16533061895
 10
1042747.469883296
 20
85921.62130149102
 10
1042830.368800428
 20
85924.43903929321
 10
1042830.368800428
 20
86331.43903929321
 10
1042550.368800428
 20
86333.76950604917
 10
1042550.368800427
 20
85609.35269788982
 10
1042748.276863378
 20
85610.29345615982
 10
1042748.276863378
 20
85270.13177853831
 10
1042148.092606977
 20
85270.13177853831
 10
1042148.092606977
 20
85498.45017832096
 10
1042045.092606977
 20
85500.01475326055
 10
1042045.092606977
 20
85723.01475326058
  0
TEXT
  5
1FB
330
17
100
AcDbEntity
  8
0
100
AcDbText
 10
1042835.852019105
 20
88818.40792778428
 30
0.0
 40
63.93782982768984
  1
חניון
100
AcDbText
  0
ENDSEC
  0
SECTION
  2
OBJECTS
  0
DICTIONARY
  5
A
330
0
100
AcDbDictionary
281
1
  3
ACAD_COLOR
350
B
  3
ACAD_GROUP
350
C
  3
ACAD_LAYOUT
350
D
  3
ACAD_MATERIAL
350
E
  3
ACAD_MLEADERSTYLE
350
F
  3
ACAD_MLINESTYLE
350
10
  3
ACAD_PLOTSETTINGS
350
11
  3
ACAD_PLOTSTYLENAME
350
12
  3
ACAD_SCALELIST
350
14
  3
ACAD_TABLESTYLE
350
15
  3
ACAD_VISUALSTYLE
350
16
  3
EZDXF_META
350
2D
  0
DICTIONARY
  5
B
330
A
100
AcDbDictionary
281
1
  0
DICTIONARY
  5
C
330
A
100
AcDbDictionary
281
1
  0
DICTIONARY
  5
D
330
A
100
AcDbDictionary
281
1
  3
Model
350
1A
  3
Layout1
350
1E
  0
DICTIONARY
  5
E
330
A
100
AcDbDictionary
281
1
  3
ByBlock
350
1F
  3
ByLayer
350
20
  3
Global
350
21
  0
DICTIONARY
  5
F
330
A
100
AcDbDictionary
281
1
  3
Standard
350
2C
  0
DICTIONARY
  5
10
330
A
100
AcDbDictionary
281
1
  3
Standard
350
22
  0
DICTIONARY
  5
11
330
A
100
AcDbDictionary
281
1
  0
ACDBDICTIONARYWDFLT
  5
12
330
A
100
AcDbDictionary
281
1
  3
Normal
350
13
100
AcDbDictionaryWithDefault
340
13
  0
ACDBPLACEHOLDER
  5
13
330
12
  0
DICTIONARY
  5
14
330
A
100
AcDbDictionary
281
1
  0
DICTIONARY
  5
15
330
A
100
AcDbDictionary
281
1
  0
DICTIONARY
  5
16
330
A
100
AcDbDictionary
281
1
  0
LAYOUT
  5
1A
330
D
100
AcDbPlotSettings
  1

  4
A3
  6

 40
7.5
 41
20.0
 42
7.5
 43
20.0
 44
420.0
 45
297.0
 46
0.0
 47
0.0
 48
0.0
 49
0.0
140
0.0
141
0.0
142
1.0
143
1.0
 70
1024
 72
1
 73
0
 74
5
  7

 75
16
 76
0
 77
2
 78
300
147
1.0
148
0.0
149
0.0
100
AcDbLayout
  1
Model
 70
1
 71
0
 10
0.0
 20
0.0
 11
420.0
 21
297.0
 12
0.0
 22
0.0
 32
0.0
 14
1e+20
 24
1e+20
 34
1e+20
 15
-1e+20
 25
-1e+20
 35
-1e+20
146
0.0
 13
0.0
 23
0.0
 33
0.0
 16
1.0
 26
0.0
 36
0.0
 17
0.0
 27
1.0
 37
0.0
 76
1
330
17
  0
LAYOUT
  5
1E
330
D
100
AcDbPlotSettings
  1

  4
A3
  6

 40
7.5
 41
20.0
 42
7.5
 43
20.0
 44
420.0
 45
297.0
 46
0.0
 47
0.0
 48
0.0
 49
0.0
140
0.0
141
0.0
142
1.0
143
1.0
 70
0
 72
1
 73
0
 74
5
  7

 75
16
 76
0
 77
2
 78
300
147
1.0
148
0.0
149
0.0
100
AcDbLayout
  1
Layout1
 70
1
 71
1
 10
0.0
 20
0.0
 11
420.0
 21
297.0
 12
0.0
 22
0.0
 32
0.0
 14
1e+20
 24
1e+20
 34
1e+20
 15
-1e+20
 25
-1e+20
 35
-1e+20
146
0.0
 13
0.0
 23
0.0
 33
0.0
 16
1.0
 26
0.0
 36
0.0
 17
0.0
 27
1.0
 37
0.0
 76
1
330
1B
  0
MATERIAL
  5
1F
102
{ACAD_REACTORS
330
E
102
}
330
E
100
AcDbMaterial
  1
ByBlock
  2

 70
0
 40
1.0
 71
1
 41
1.0
 91
-1023410177
 42
1.0
 72
1
  3

 73
1
 74
1
 75
1
 44
0.5
 73
0
 45
1.0
 46
1.0
 77
1
  4

 78
1
 79
1
170
1
 48
1.0
171
1
  6

172
1
173
1
174
1
140
1.0
141
1.0
175
1
  7

176
1
177
1
178
1
143
1.0
179
1
  8

270
1
271
1
272
1
145
1.0
146
1.0
273
1
  9

274
1
275
1
276
1
 42
1.0
 72
1
  3

 73
1
 74
1
 75
1
 94
63
  0
MATERIAL
  5
20
102
{ACAD_REACTORS
330
E
102
}
330
E
100
AcDbMaterial
  1
ByLayer
  2

 70
0
 40
1.0
 71
1
 41
1.0
 91
-1023410177
 42
1.0
 72
1
  3

 73
1
 74
1
 75
1
 44
0.5
 73
0
 45
1.0
 46
1.0
 77
1
  4

 78
1
 79
1
170
1
 48
1.0
171
1
  6

172
1
173
1
174
1
140
1.0
141
1.0
175
1
  7

176
1
177
1
178
1
143
1.0
179
1
  8

270
1
271
1
272
1
145
1.0
146
1.0
273
1
  9

274
1
275
1
276
1
 42
1.0
 72
1
  3

 73
1
 74
1
 75
1
 94
63
  0
MATERIAL
  5
21
102
{ACAD_REACTORS
330
E
102
}
330
E
100
AcDbMaterial
  1
Global
  2

 70
0
 40
1.0
 71
1
 41
1.0
 91
-1023410177
 42
1.0
 72
1
  3

 73
1
 74
1
 75
1
 44
0.5
 73
0
 45
1.0
 46
1.0
 77
1
  4

 78
1
 79
1
170
1
 48
1.0
171
1
  6

172
1
173
1
174
1
140
1.0
141
1.0
175
1
  7

176
1
177
1
178
1
143
1.0
179
1
  8

270
1
271
1
272
1
145
1.0
146
1.0
273
1
  9

274
1
275
1
276
1
 42
1.0
 72
1
  3

 73
1
 74
1
 75
1
 94
63
  0
MLINESTYLE
  5
22
102
{ACAD_REACTORS
330
10
102
}
330
10
100
AcDbMlineStyle
  2
Standard
 70
0
  3

 62
256
 51
90.0
 52
90.0
 71
2
 49
0.5
 62
256
  6
BYLAYER
 49
-0.5
 62
256
  6
BYLAYER
  0
MLEADERSTYLE
  5
2C
102
{ACAD_REACTORS
330
F
102
}
330
F
100
AcDbMLeaderStyle
179
2
170
2
171
1
172
0
 90
2
 40
0.0
 41
0.0
173
1
 91
-1056964608
 92
-2
290
1
 42
2.0
291
1
 43
8.0
  3
Standard
 44
4.0
300

342
29
174
1
175
1
176
0
178
1
 93
-1056964608
 45
4.0
292
0
297
0
 46
4.0
 94
-1056964608
 47
1.0
 49
1.0
140
1.0
294
1
141
0.0
177
0
142
1.0
295
0
296
0
143
3.75
271
0
272
9
273
9
  0
DICTIONARY
  5
2D
330
A
100
AcDbDictionary
280
1
281
1
  3
CREATED_BY_EZDXF
350
2E
  3
WRITTEN_BY_EZDXF
350
1FE
  0
DICTIONARYVAR
  5
2E
330
2D
100
DictionaryVariables
280
0
  1
1.4.3 @ 2026-05-15T06:57:54.647235+00:00
  0
DICTIONARY
  5
51
330
50
100
AcDbDictionary
280
1
281
1
  0
DICTIONARY
  5
108
330
107
100
AcDbDictionary
280
1
281
1
  0
DICTIONARY
  5
140
330
13F
100
AcDbDictionary
280
1
281
1
  0
DICTIONARY
  5
169
330
168
100
AcDbDictionary
280
1
281
1
  0
DICTIONARY
  5
1A3
330
1A2
100
AcDbDictionary
280
1
281
1
  0
DICTIONARY
  5
1BE
330
1BD
100
AcDbDictionary
280
1
281
1
  0
DICTIONARY
  5
1DA
330
1D9
100
AcDbDictionary
280
1
281
1
  0
DICTIONARY
  5
1E8
330
1E7
100
AcDbDictionary
280
1
281
1
  0
DICTIONARYVAR
  5
1FE
330
2D
100
DictionaryVariables
280
0
  1
1.4.3 @ 2026-05-15T06:57:54.667302+00:00
  0
ENDSEC
  0
EOF
