  0
SECTION
  2
HEADER
  9
$ACADVER
  1
AC1032
  9
$ACADMAINTVER
 90
4
  9
$DWGCODEPAGE
  3
ANSI_1252
  9
$LASTSAVEDBY
  1
ezdxf
  9
$REQUIREDVERSIONS
160
0
  9
$INSBASE
 10
0.0
 20
0.0
 30
0.0
  9
$EXTMIN
 10
1e+20
 20
1e+20
 30
1e+20
  9
$EXTMAX
 10
-1e+20
 20
-1e+20
 30
-1e+20
  9
$LIMMIN
 10
0.0
 20
0.0
  9
$LIMMAX
 10
420.0
 20
297.0
  9
$ORTHOMODE
 70
0
  9
$REGENMODE
 70
1
  9
$FILLMODE
 70
1
  9
$QTEXTMODE
 70
0
  9
$MIRRTEXT
 70
1
  9
$LTSCALE
 40
1.0
  9
$ATTMODE
 70
1
  9
$TEXTSIZE
 40
2.5
  9
$TRACEWID
 40
1.0
  9
$TEXTSTYLE
  7
Standard
  9
$CLAYER
  8
0
  9
$CELTYPE
  6
ByLayer
  9
$CECOLOR
 62
256
  9
$CELTSCALE
 40
1.0
  9
$DISPSILH
 70
0
  9
$DIMSCALE
 40
1.0
  9
$DIMASZ
 40
2.5
  9
$DIMEXO
 40
0.625
  9
$DIMDLI
 40
3.75
  9
$DIMRND
 40
0.0
  9
$DIMDLE
 40
0.0
  9
$DIMEXE
 40
1.25
  9
$DIMTP
 40
0.0
  9
$DIMTM
 40
0.0
  9
$DIMTXT
 40
2.5
  9
$DIMCEN
 40
2.5
  9
$DIMTSZ
 40
0.0
  9
$DIMTOL
 70
0
  9
$DIMLIM
 70
0
  9
$DIMTIH
 70
0
  9
$DIMTOH
 70
0
  9
$DIMSE1
 70
0
  9
$DIMSE2
 70
0
  9
$DIMTAD
 70
1
  9
$DIMZIN
 70
8
  9
$DIMBLK
  1

  9
$DIMASO
 70
1
  9
$DIMSHO
 70
1
  9
$DIMPOST
  1

  9
$DIMAPOST
  1

  9
$DIMALT
 70
0
  9
$DIMALTD
 70
3
  9
$DIMALTF
 40
0.03937007874
  9
$DIMLFAC
 40
1.0
  9
$DIMTOFL
 70
1
  9
$DIMTVP
 40
0.0
  9
$DIMTIX
 70
0
  9
$DIMSOXD
 70
0
  9
$DIMSAH
 70
0
  9
$DIMBLK1
  1

  9
$DIMBLK2
  1

  9
$DIMSTYLE
  2
ISO-25
  9
$DIMCLRD
 70
0
  9
$DIMCLRE
 70
0
  9
$DIMCLRT
 70
0
  9
$DIMTFAC
 40
1.0
  9
$DIMGAP
 40
0.625
  9
$DIMJUST
 70
0
  9
$DIMSD1
 70
0
  9
$DIMSD2
 70
0
  9
$DIMTOLJ
 70
0
  9
$DIMTZIN
 70
8
  9
$DIMALTZ
 70
0
  9
$DIMALTTZ
 70
0
  9
$DIMUPT
 70
0
  9
$DIMDEC
 70
2
  9
$DIMTDEC
 70
2
  9
$DIMALTU
 70
2
  9
$DIMALTTD
 70
3
  9
$DIMTXSTY
  7
Standard
  9
$DIMAUNIT
 70
0
  9
$DIMADEC
 70
0
  9
$DIMALTRND
 40
0.0
  9
$DIMAZIN
 70
0
  9
$DIMDSEP
 70
44
  9
$DIMATFIT
 70
3
  9
$DIMFRAC
 70
0
  9
$DIMLDRBLK
  1

  9
$DIMLUNIT
 70
2
  9
$DIMLWD
 70
-2
  9
$DIMLWE
 70
-2
  9
$DIMTMOVE
 70
0
  9
$DIMFXL
 40
1.0
  9
$DIMFXLON
 70
0
  9
$DIMJOGANG
 40
0.785398163397
  9
$DIMTFILL
 70
0
  9
$DIMTFILLCLR
 70
0
  9
$DIMARCSYM
 70
0
  9
$DIMLTYPE
  6

  9
$DIMLTEX1
  6

  9
$DIMLTEX2
  6

  9
$DIMTXTDIRECTION
 70
0
  9
$LUNITS
 70
2
  9
$LUPREC
 70
4
  9
$SKETCHINC
 40
1.0
  9
$FILLETRAD
 40
10.0
  9
$AUNITS
 70
0
  9
$AUPREC
 70
2
  9
$MENU
  1
.
  9
$ELEVATION
 40
0.0
  9
$PELEVATION
 40
0.0
  9
$THICKNESS
 40
0.0
  9
$LIMCHECK
 70
0
  9
$CHAMFERA
 40
0.0
  9
$CHAMFERB
 40
0.0
  9
$CHAMFERC
 40
0.0
  9
$CHAMFERD
 40
0.0
  9
$SKPOLY
 70
0
  9
$TDCREATE
 40
2461167.095023148
  9
$TDUCREATE
 40
2458532.153996898
  9
$TDUPDATE
 40
2461167.095023148
  9
$TDUUPDATE
 40
2458532.1544311
  9
$TDINDWG
 40
0.0
  9
$TDUSRTIMER
 40
0.0
  9
$USRTIMER
 70
1
  9
$ANGBASE
 50
0.0
  9
$ANGDIR
 70
0
  9
$PDMODE
 70
0
  9
$PDSIZE
 40
0.0
  9
$PLINEWID
 40
0.0
  9
$SPLFRAME
 70
0
  9
$SPLINETYPE
 70
6
  9
$SPLINESEGS
 70
8
  9
$HANDSEED
  5
173
  9
$SURFTAB1
 70
6
  9
$SURFTAB2
 70
6
  9
$SURFTYPE
 70
6
  9
$SURFU
 70
6
  9
$SURFV
 70
6
  9
$UCSBASE
  2

  9
$UCSNAME
  2

  9
$UCSORG
 10
0.0
 20
0.0
 30
0.0
  9
$UCSXDIR
 10
1.0
 20
0.0
 30
0.0
  9
$UCSYDIR
 10
0.0
 20
1.0
 30
0.0
  9
$UCSORTHOREF
  2

  9
$UCSORTHOVIEW
 70
0
  9
$UCSORGTOP
 10
0.0
 20
0.0
 30
0.0
  9
$UCSORGBOTTOM
 10
0.0
 20
0.0
 30
0.0
  9
$UCSORGLEFT
 10
0.0
 20
0.0
 30
0.0
  9
$UCSORGRIGHT
 10
0.0
 20
0.0
 30
0.0
  9
$UCSORGFRONT
 10
0.0
 20
0.0
 30
0.0
  9
$UCSORGBACK
 10
0.0
 20
0.0
 30
0.0
  9
$PUCSBASE
  2

  9
$PUCSNAME
  2

  9
$PUCSORG
 10
0.0
 20
0.0
 30
0.0
  9
$PUCSXDIR
 10
1.0
 20
0.0
 30
0.0
  9
$PUCSYDIR
 10
0.0
 20
1.0
 30
0.0
  9
$PUCSORTHOREF
  2

  9
$PUCSORTHOVIEW
 70
0
  9
$PUCSORGTOP
 10
0.0
 20
0.0
 30
0.0
  9
$PUCSORGBOTTOM
 10
0.0
 20
0.0
 30
0.0
  9
$PUCSORGLEFT
 10
0.0
 20
0.0
 30
0.0
  9
$PUCSORGRIGHT
 10
0.0
 20
0.0
 30
0.0
  9
$PUCSORGFRONT
 10
0.0
 20
0.0
 30
0.0
  9
$PUCSORGBACK
 10
0.0
 20
0.0
 30
0.0
  9
$USERI1
 70
0
  9
$USERI2
 70
0
  9
$USERI3
 70
0
  9
$USERI4
 70
0
  9
$USERI5
 70
0
  9
$USERR1
 40
0.0
  9
$USERR2
 40
0.0
  9
$USERR3
 40
0.0
  9
$USERR4
 40
0.0
  9
$USERR5
 40
0.0
  9
$WORLDVIEW
 70
1
  9
$SHADEDGE
 70
3
  9
$SHADEDIF
 70
70
  9
$TILEMODE
 70
1
  9
$MAXACTVP
 70
64
  9
$PINSBASE
 10
0.0
 20
0.0
 30
0.0
  9
$PLIMCHECK
 70
0
  9
$PEXTMIN
 10
1e+20
 20
1e+20
 30
1e+20
  9
$PEXTMAX
 10
-1e+20
 20
-1e+20
 30
-1e+20
  9
$PLIMMIN
 10
0.0
 20
0.0
  9
$PLIMMAX
 10
420.0
 20
297.0
  9
$UNITMODE
 70
0
  9
$VISRETAIN
 70
1
  9
$PLINEGEN
 70
0
  9
$PSLTSCALE
 70
1
  9
$TREEDEPTH
 70
3020
  9
$CMLSTYLE
  2
Standard
  9
$CMLJUST
 70
0
  9
$CMLSCALE
 40
20.0
  9
$PROXYGRAPHICS
 70
1
  9
$MEASUREMENT
 70
1
  9
$CELWEIGHT
370
-1
  9
$ENDCAPS
280
0
  9
$JOINSTYLE
280
0
  9
$LWDISPLAY
290
0
  9
$INSUNITS
 70
6
  9
$HYPERLINKBASE
  1

  9
$STYLESHEET
  1

  9
$XEDIT
290
1
  9
$CEPSNTYPE
380
0
  9
$PSTYLEMODE
290
1
  9
$FINGERPRINTGUID
  2
{A2821041-CFAB-4074-95D1-D25B0CD752E8}
  9
$VERSIONGUID
  2
{FC5D2556-0DE0-42C6-BBA1-EE2D9A572195}
  9
$EXTNAMES
290
1
  9
$PSVPSCALE
 40
0.0
  9
$OLESTARTUP
290
0
  9
$SORTENTS
280
127
  9
$INDEXCTL
280
0
  9
$HIDETEXT
280
1
  9
$XCLIPFRAME
280
1
  9
$HALOGAP
280
0
  9
$OBSCOLOR
 70
257
  9
$OBSLTYPE
280
0
  9
$INTERSECTIONDISPLAY
280
0
  9
$INTERSECTIONCOLOR
 70
257
  9
$DIMASSOC
280
2
  9
$PROJECTNAME
  1

  9
$CAMERADISPLAY
290
0
  9
$LENSLENGTH
 40
50.0
  9
$CAMERAHEIGHT
 40
0.0
  9
$STEPSPERSEC
 40
24.0
  9
$STEPSIZE
 40
100.0
  9
$3DDWFPREC
 40
2.0
  9
$PSOLWIDTH
 40
0.005
  9
$PSOLHEIGHT
 40
0.08
  9
$LOFTANG1
 40
1.570796326795
  9
$LOFTANG2
 40
1.570796326795
  9
$LOFTMAG1
 40
0.0
  9
$LOFTMAG2
 40
0.0
  9
$LOFTPARAM
 70
7
  9
$LOFTNORMALS
280
1
  9
$LATITUDE
 40
37.795
  9
$LONGITUDE
 40
-122.394
  9
$NORTHDIRECTION
 40
0.0
  9
$TIMEZONE
 70
-8000
  9
$LIGHTGLYPHDISPLAY
280
1
  9
$TILEMODELIGHTSYNCH
280
1
  9
$CMATERIAL
347
20
  9
$SOLIDHIST
280
0
  9
$SHOWHIST
280
1
  9
$DWFFRAME
280
2
  9
$DGNFRAME
280
2
  9
$REALWORLDSCALE
290
1
  9
$INTERFERECOLOR
 62
256
  9
$CSHADOW
280
0
  9
$SHADOWPLANELOCATION
 40
0.0
  0
ENDSEC
  0
SECTION
  2
CLASSES
  0
CLASS
  1
ACDBDICTIONARYWDFLT
  2
AcDbDictionaryWithDefault
  3
ObjectDBX Classes
 90
0
 91
0
280
0
281
0
  0
CLASS
  1
SUN
  2
AcDbSun
  3
SCENEOE
 90
1153
 91
0
280
0
281
0
  0
CLASS
  1
VISUALSTYLE
  2
AcDbVisualStyle
  3
ObjectDBX Classes
 90
4095
 91
0
280
0
281
0
  0
CLASS
  1
MATERIAL
  2
AcDbMaterial
  3
ObjectDBX Classes
 90
1153
 91
0
280
0
281
0
  0
CLASS
  1
SCALE
  2
AcDbScale
  3
ObjectDBX Classes
 90
1153
 91
0
280
0
281
0
  0
CLASS
  1
TABLESTYLE
  2
AcDbTableStyle
  3
ObjectDBX Classes
 90
4095
 91
0
280
0
281
0
  0
CLASS
  1
MLEADERSTYLE
  2
AcDbMLeaderStyle
  3
ACDB_MLEADERSTYLE_CLASS
 90
4095
 91
0
280
0
281
0
  0
CLASS
  1
DICTIONARYVAR
  2
AcDbDictionaryVar
  3
ObjectDBX Classes
 90
0
 91
0
280
0
281
0
  0
CLASS
  1
CELLSTYLEMAP
  2
AcDbCellStyleMap
  3
ObjectDBX Classes
 90
1152
 91
0
280
0
281
0
  0
CLASS
  1
MENTALRAYRENDERSETTINGS
  2
AcDbMentalRayRenderSettings
  3
SCENEOE
 90
1024
 91
0
280
0
281
0
  0
CLASS
  1
ACDBDETAILVIEWSTYLE
  2
AcDbDetailViewStyle
  3
ObjectDBX Classes
 90
1025
 91
0
280
0
281
0
  0
CLASS
  1
ACDBSECTIONVIEWSTYLE
  2
AcDbSectionViewStyle
  3
ObjectDBX Classes
 90
1025
 91
0
280
0
281
0
  0
CLASS
  1
RASTERVARIABLES
  2
AcDbRasterVariables
  3
ISM
 90
0
 91
0
280
0
281
0
  0
CLASS
  1
ACDBPLACEHOLDER
  2
AcDbPlaceHolder
  3
ObjectDBX Classes
 90
0
 91
0
280
0
281
0
  0
CLASS
  1
LAYOUT
  2
AcDbLayout
  3
ObjectDBX Classes
 90
0
 91
0
280
0
281
0
  0
ENDSEC
  0
SECTION
  2
TABLES
  0
TABLE
  2
VPORT
  5
8
330
0
100
AcDbSymbolTable
 70
1
  0
VPORT
  5
23
330
8
100
AcDbSymbolTableRecord
100
AcDbViewportTableRecord
  2
*Active
 70
0
 10
0.0
 20
0.0
 11
1.0
 21
1.0
 12
0.0
 22
0.0
 13
0.0
 23
0.0
 14
0.5
 24
0.5
 15
0.5
 25
0.5
 16
0.0
 26
0.0
 36
1.0
 17
0.0
 27
0.0
 37
0.0
 40
1000.0
 41
1.34
 42
50.0
 43
0.0
 44
0.0
 50
0.0
 51
0.0
 71
0
 72
1000
 73
1
 74
3
 75
0
 76
0
 77
0
 78
0
281
0
 65
0
146
0.0
  0
ENDTAB
  0
TABLE
  2
LTYPE
  5
2
330
0
100
AcDbSymbolTable
 70
3
  0
LTYPE
  5
24
330
2
100
AcDbSymbolTableRecord
100
AcDbLinetypeTableRecord
  2
ByBlock
 70
0
  3

 72
65
 73
0
 40
0.0
  0
LTYPE
  5
25
330
2
100
AcDbSymbolTableRecord
100
AcDbLinetypeTableRecord
  2
ByLayer
 70
0
  3

 72
65
 73
0
 40
0.0
  0
LTYPE
  5
26
330
2
100
AcDbSymbolTableRecord
100
AcDbLinetypeTableRecord
  2
Continuous
 70
0
  3

 72
65
 73
0
 40
0.0
  0
ENDTAB
  0
TABLE
  2
LAYER
  5
1
330
0
100
AcDbSymbolTable
 70
8
  0
LAYER
  5
27
330
1
100
AcDbSymbolTableRecord
100
AcDbLayerTableRecord
  2
0
 70
0
 62
7
  6
Continuous
370
-3
390
13
347
21
  0
LAYER
  5
28
330
1
100
AcDbSymbolTableRecord
100
AcDbLayerTableRecord
  2
Defpoints
 70
0
 62
7
  6
Continuous
290
0
370
-3
390
13
347
21
  0
LAYER
  5
2F
330
1
100
AcDbSymbolTableRecord
100
AcDbLayerTableRecord
  2
MIKRA
 70
0
 62
7
  6
Continuous
370
-3
390
13
347
21
  0
LAYER
  5
30
330
1
100
AcDbSymbolTableRecord
100
AcDbLayerTableRecord
  2
kir
 70
0
 62
7
  6
Continuous
370
-3
390
13
347
21
  0
LAYER
  5
31
330
1
100
AcDbSymbolTableRecord
100
AcDbLayerTableRecord
  2
8
 70
0
 62
7
  6
Continuous
370
-3
390
13
347
21
  0
LAYER
  5
32
330
1
100
AcDbSymbolTableRecord
100
AcDbLayerTableRecord
  2
BAR-GAL
 70
0
 62
7
  6
Continuous
370
-3
390
13
347
21
  0
LAYER
  5
33
330
1
100
AcDbSymbolTableRecord
100
AcDbLayerTableRecord
  2
BAR_GAL
 70
0
 62
7
  6
Continuous
370
-3
390
13
347
21
  0
LAYER
  5
34
330
1
100
AcDbSymbolTableRecord
100
AcDbLayerTableRecord
  2
VP
 70
0
 62
-30
  6
Continuous
370
-3
390
13
347
21
  0
ENDTAB
  0
TABLE
  2
STYLE
  5
5
330
0
100
AcDbSymbolTable
 70
1
  0
STYLE
  5
29
330
5
100
AcDbSymbolTableRecord
100
AcDbTextStyleTableRecord
  2
Standard
 70
0
 40
0.0
 41
1.0
 50
0.0
 71
0
 42
2.5
  3
txt
  4

  0
ENDTAB
  0
TABLE
  2
VIEW
  5
7
330
0
100
AcDbSymbolTable
 70
0
  0
ENDTAB
  0
TABLE
  2
UCS
  5
6
330
0
100
AcDbSymbolTable
 70
0
  0
ENDTAB
  0
TABLE
  2
APPID
  5
3
330
0
100
AcDbSymbolTable
 70
3
  0
APPID
  5
2A
330
3
100
AcDbSymbolTableRecord
100
AcDbRegAppTableRecord
  2
ACAD
 70
0
  0
APPID
  5
170
330
3
100
AcDbSymbolTableRecord
100
AcDbRegAppTableRecord
  2
HATCHBACKGROUNDCOLOR
 70
0
  0
APPID
  5
171
330
3
100
AcDbSymbolTableRecord
100
AcDbRegAppTableRecord
  2
EZDXF
 70
0
  0
ENDTAB
  0
TABLE
  2
DIMSTYLE
  5
4
330
0
100
AcDbSymbolTable
 70
3
100
AcDbDimStyleTable
  0
DIMSTYLE
105
2B
330
4
100
AcDbSymbolTableRecord
100
AcDbDimStyleTableRecord
  2
Standard
 70
0
 40
1.0
 41
2.5
 42
0.625
 43
3.75
 44
1.25
 45
0.0
 46
0.0
 47
0.0
 48
0.0
 49
2.5
140
2.5
141
2.5
142
0.0
143
0.03937007874
144
1.0
145
0.0
146
1.0
147
0.625
148
0.0
 69
0
 70
0
 71
0
 72
0
 73
0
 74
0
 75
0
 76
0
 77
1
 78
8
 79
3
170
0
171
3
172
1
173
0
174
0
175
0
176
0
177
0
178
0
179
2
271
2
272
2
273
2
274
3
275
0
276
0
277
2
278
44
279
0
280
0
281
0
282
0
283
0
284
8
285
0
286
0
288
0
289
3
290
0
371
-2
372
-2
  0
DIMSTYLE
105
27
330
4
100
AcDbSymbolTableRecord
100
AcDbDimStyleTableRecord
  2
ISO-25
 70
0
 40
1.0
 41
30.0
 42
0.625
 43
3.75
 44
1.25
 45
0.0
 46
0.0
 47
0.0
 48
0.0
 49
2.5
140
30.0
141
2.5
142
0.0
143
0.03937007874016
144
1.0
145
0.0
146
1.0
147
10.0
148
0.0
 69
0
 70
0
 71
0
 72
0
 73
0
 74
0
 75
0
 76
0
 77
1
 78
8
 79
3
170
0
171
3
172
1
173
0
174
0
175
0
176
0
177
0
178
0
179
2
271
0
272
0
273
2
274
3
275
0
276
0
277
2
278
44
279
0
280
0
281
0
282
0
283
0
284
8
285
0
286
0
288
0
289
3
290
0
340
29
371
-2
372
-2
  0
DIMSTYLE
105
24441B
330
4
100
AcDbSymbolTableRecord
100
AcDbDimStyleTableRecord
  2
100A
 70
0
 40
1.0
 41
30.0
 42
0.625
 43
3.75
 44
1.25
 45
0.0
 46
0.0
 47
0.0
 48
0.0
 49
2.5
140
35.0
141
2.5
142
0.0
143
0.03937007874016
144
1.0
145
0.0
146
1.0
147
10.0
148
0.0
 69
0
 70
0
 71
0
 72
0
 73
0
 74
0
 75
0
 76
0
 77
1
 78
8
 79
3
170
0
171
3
172
1
173
0
174
0
175
0
176
0
177
0
178
0
179
2
271
0
272
0
273
2
274
3
275
0
276
0
277
2
278
44
279
0
280
0
281
0
282
0
283
0
284
8
285
0
286
0
288
0
289
3
290
0
340
29
371
-2
372
-2
  0
ENDTAB
  0
TABLE
  2
BLOCK_RECORD
  5
9
330
0
100
AcDbSymbolTable
 70
21
  0
BLOCK_RECORD
  5
17
330
9
100
AcDbSymbolTableRecord
100
AcDbBlockTableRecord
  2
*Model_Space
340
1A
 70
0
280
1
281
0
  0
BLOCK_RECORD
  5
1B
330
9
100
AcDbSymbolTableRecord
100
AcDbBlockTableRecord
  2
*Paper_Space
340
1E
 70
0
280
1
281
0
  0
BLOCK_RECORD
  5
39
330
9
100
AcDbSymbolTableRecord
100
AcDbBlockTableRecord
  2
*D1
340
0
 70
0
280
1
281
0
  0
BLOCK_RECORD
  5
49
330
9
100
AcDbSymbolTableRecord
100
AcDbBlockTableRecord
  2
*D2
340
0
 70
0
280
1
281
0
  0
BLOCK_RECORD
  5
56
330
9
100
AcDbSymbolTableRecord
100
AcDbBlockTableRecord
  2
*D3
340
0
 70
0
280
1
281
0
  0
BLOCK_RECORD
  5
66
330
9
100
AcDbSymbolTableRecord
100
AcDbBlockTableRecord
  2
*D4
340
0
 70
0
280
1
281
0
  0
BLOCK_RECORD
  5
86
330
9
100
AcDbSymbolTableRecord
100
AcDbBlockTableRecord
  2
*D5
340
0
 70
0
280
1
281
0
  0
BLOCK_RECORD
  5
94
330
9
100
AcDbSymbolTableRecord
100
AcDbBlockTableRecord
  2
*D6
340
0
 70
0
280
1
281
0
  0
BLOCK_RECORD
  5
A1
330
9
100
AcDbSymbolTableRecord
100
AcDbBlockTableRecord
  2
*D7
340
0
 70
0
280
1
281
0
  0
BLOCK_RECORD
  5
AE
330
9
100
AcDbSymbolTableRecord
100
AcDbBlockTableRecord
  2
*D8
340
0
 70
0
280
1
281
0
  0
BLOCK_RECORD
  5
BD
330
9
100
AcDbSymbolTableRecord
100
AcDbBlockTableRecord
  2
*D9
340
0
 70
0
280
1
281
0
  0
BLOCK_RECORD
  5
CB
330
9
100
AcDbSymbolTableRecord
100
AcDbBlockTableRecord
  2
*D10
340
0
 70
0
280
1
281
0
  0
BLOCK_RECORD
  5
D9
330
9
100
AcDbSymbolTableRecord
100
AcDbBlockTableRecord
  2
*D11
340
0
 70
0
280
1
281
0
  0
BLOCK_RECORD
  5
E7
330
9
100
AcDbSymbolTableRecord
100
AcDbBlockTableRecord
  2
*D12
340
0
 70
0
280
1
281
0
  0
BLOCK_RECORD
  5
F4
330
9
100
AcDbSymbolTableRecord
100
AcDbBlockTableRecord
  2
*D13
340
0
 70
0
280
1
281
0
  0
BLOCK_RECORD
  5
101
330
9
100
AcDbSymbolTableRecord
100
AcDbBlockTableRecord
  2
*D14
340
0
 70
0
280
1
281
0
  0
BLOCK_RECORD
  5
10E
330
9
100
AcDbSymbolTableRecord
100
AcDbBlockTableRecord
  2
*D15
340
0
 70
0
280
1
281
0
  0
BLOCK_RECORD
  5
11C
330
9
100
AcDbSymbolTableRecord
100
AcDbBlockTableRecord
  2
*D16
340
0
 70
0
280
1
281
0
  0
BLOCK_RECORD
  5
12A
330
9
100
AcDbSymbolTableRecord
100
AcDbBlockTableRecord
  2
*D17
340
0
 70
0
280
1
281
0
  0
BLOCK_RECORD
  5
155
330
9
100
AcDbSymbolTableRecord
100
AcDbBlockTableRecord
  2
*D18
340
0
 70
0
280
1
281
0
  0
BLOCK_RECORD
  5
163
330
9
100
AcDbSymbolTableRecord
100
AcDbBlockTableRecord
  2
*D19
340
0
 70
0
280
1
281
0
  0
ENDTAB
  0
ENDSEC
  0
SECTION
  2
BLOCKS
  0
BLOCK
  5
18
330
17
100
AcDbEntity
  8
0
100
AcDbBlockBegin
  2
*Model_Space
 70
0
 10
0.0
 20
0.0
 30
0.0
  3
*Model_Space
  1

  0
ENDBLK
  5
19
330
17
100
AcDbEntity
  8
0
100
AcDbBlockEnd
  0
BLOCK
  5
1C
330
1B
100
AcDbEntity
  8
0
100
AcDbBlockBegin
  2
*Paper_Space
 70
0
 10
0.0
 20
0.0
 30
0.0
  3
*Paper_Space
  1

  0
ENDBLK
  5
1D
330
1B
100
AcDbEntity
  8
0
100
AcDbBlockEnd
  0
BLOCK
  5
3A
330
39
100
AcDbEntity
  8
0
100
AcDbBlockBegin
  2
*D1
 70
1
 10
0.0
 20
0.0
 30
0.0
  3
*D1
  1

  0
LINE
  5
3C
330
39
100
AcDbEntity
  8
BAR-GAL
 62
0
370
-2
440
16777216
100
AcDbLine
 10
990630.4331205083
 20
61805.77924254997
 30
0.0
 11
990630.4331205083
 21
61731.57474833836
 31
0.0
  0
LINE
  5
3D
330
39
100
AcDbEntity
  8
BAR-GAL
 62
0
370
-2
440
16777216
100
AcDbLine
 10
991090.4331205083
 20
61805.77924254997
 30
0.0
 11
991090.4331205083
 21
61731.57474833836
 31
0.0
  0
LINE
  5
3E
330
39
100
AcDbEntity
  8
BAR-GAL
 62
0
370
-2
440
16777216
100
AcDbLine
 10
990660.4331205082
 20
61732.82474833836
 30
0.0
 11
991060.4331205083
 21
61732.82474833836
 31
0.0
  0
SOLID
  5
3F
330
39
100
AcDbEntity
  8
BAR-GAL
 62
0
370
13
440
16777216
100
AcDbTrace
 10
990660.4331205082
 20
61737.82474833836
 30
0.0
 11
990660.4331205082
 21
61727.82474833836
 31
0.0
 12
990630.4331205083
 22
61732.82474833836
 32
0.0
 13
990630.4331205083
 23
61732.82474833836
 33
0.0
  0
SOLID
  5
40
330
39
100
AcDbEntity
  8
BAR-GAL
 62
0
370
13
440
16777216
100
AcDbTrace
 10
991060.4331205083
 20
61737.82474833836
 30
0.0
 11
991060.4331205083
 21
61727.82474833836
 31
0.0
 12
991090.4331205083
 22
61732.82474833836
 32
0.0
 13
991090.4331205083
 23
61732.82474833836
 33
0.0
  0
MTEXT
  5
41
330
39
100
AcDbEntity
  8
BAR-GAL
 62
0
370
13
440
16777216
100
AcDbMText
 10
990860.4331205083
 20
61758.14193797001
 30
0.0
 40
30.0
 41
0.0
 46
0.0
 71
5
  1
460
  0
POINT
  5
42
330
39
100
AcDbEntity
  8
Defpoints
 62
0
370
13
440
16777216
100
AcDbPoint
 10
990630.4331205083
 20
61806.40424254997
 30
0.0
  0
POINT
  5
43
330
39
100
AcDbEntity
  8
Defpoints
 62
0
370
13
440
16777216
100
AcDbPoint
 10
991090.4331205083
 20
61806.40424254997
 30
0.0
  0
POINT
  5
44
330
39
100
AcDbEntity
  8
Defpoints
 62
0
370
13
440
16777216
100
AcDbPoint
 10
991090.4331205083
 20
61732.82474833836
 30
0.0
  0
ENDBLK
  5
3B
330
39
100
AcDbEntity
  8
0
100
AcDbBlockEnd
  0
BLOCK
  5
4A
330
49
100
AcDbEntity
  8
0
100
AcDbBlockBegin
  2
*D2
 70
1
 10
0.0
 20
0.0
 30
0.0
  3
*D2
  1

  0
LINE
  5
4C
330
49
100
AcDbEntity
  8
BAR-GAL
 62
0
370
-2
440
16777216
100
AcDbLine
 10
991370.8671925263
 20
61856.91718916624
 30
0.0
 11
991425.6163902619
 21
61856.91718916624
 31
0.0
  0
LINE
  5
4D
330
49
100
AcDbEntity
  8
BAR-GAL
 62
0
370
-2
440
16777216
100
AcDbLine
 10
991370.8671925263
 20
62246.90381806665
 30
0.0
 11
991425.6163902619
 21
62246.90381806665
 31
0.0
  0
LINE
  5
4E
330
49
100
AcDbEntity
  8
BAR-GAL
 62
0
370
-2
440
16777216
100
AcDbLine
 10
991424.3663902619
 20
61886.91718916624
 30
0.0
 11
991424.3663902619
 21
62216.90381806665
 31
0.0
  0
SOLID
  5
4F
330
49
100
AcDbEntity
  8
BAR-GAL
 62
0
370
13
440
16777216
100
AcDbTrace
 10
991419.3663902619
 20
61886.91718916624
 30
0.0
 11
991429.3663902618
 21
61886.91718916624
 31
0.0
 12
991424.3663902619
 22
61856.91718916624
 32
0.0
 13
991424.3663902619
 23
61856.91718916624
 33
0.0
  0
SOLID
  5
50
330
49
100
AcDbEntity
  8
BAR-GAL
 62
0
370
13
440
16777216
100
AcDbTrace
 10
991419.3663902619
 20
62216.90381806665
 30
0.0
 11
991429.3663902618
 21
62216.90381806665
 31
0.0
 12
991424.3663902619
 22
62246.90381806665
 32
0.0
 13
991424.3663902619
 23
62246.90381806665
 33
0.0
  0
MTEXT
  5
51
330
49
100
AcDbEntity
  8
BAR-GAL
 62
0
370
13
440
16777216
100
AcDbMText
 10
991399.0389687064
 20
62051.91050361615
 30
0.0
 40
30.0
 41
0.0
 46
0.0
 71
5
  1
390
 11
1e-16
 21
1.0
 31
0.0
  0
POINT
  5
52
330
49
100
AcDbEntity
  8
Defpoints
 62
0
370
13
440
16777216
100
AcDbPoint
 10
991370.2421925265
 20
61856.91718916624
 30
0.0
  0
POINT
  5
53
330
49
100
AcDbEntity
  8
Defpoints
 62
0
370
13
440
16777216
100
AcDbPoint
 10
991370.2421925265
 20
62246.90381806665
 30
0.0
  0
POINT
  5
54
330
49
100
AcDbEntity
  8
Defpoints
 62
0
370
13
440
16777216
100
AcDbPoint
 10
991424.3663902619
 20
62246.90381806665
 30
0.0
  0
ENDBLK
  5
4B
330
49
100
AcDbEntity
  8
0
100
AcDbBlockEnd
  0
BLOCK
  5
57
330
56
100
AcDbEntity
  8
0
100
AcDbBlockBegin
  2
*D3
 70
1
 10
0.0
 20
0.0
 30
0.0
  3
*D3
  1

  0
LINE
  5
59
330
56
100
AcDbEntity
  8
BAR-GAL
 62
0
370
-2
440
16777216
100
AcDbLine
 10
991090.0698757364
 20
62200.03969193086
 30
0.0
 11
991090.0698757364
 21
62303.50563753809
 31
0.0
  0
LINE
  5
5A
330
56
100
AcDbEntity
  8
BAR-GAL
 62
0
370
-2
440
16777216
100
AcDbLine
 10
991370.56057014
 20
62199.08451292771
 30
0.0
 11
991370.56057014
 21
62303.50563753809
 31
0.0
  0
LINE
  5
5B
330
56
100
AcDbEntity
  8
BAR-GAL
 62
0
370
-2
440
16777216
100
AcDbLine
 10
991120.0698757363
 20
62302.25563753808
 30
0.0
 11
991340.5605701399
 21
62302.25563753808
 31
0.0
  0
SOLID
  5
5C
330
56
100
AcDbEntity
  8
BAR-GAL
 62
0
370
13
440
16777216
100
AcDbTrace
 10
991120.0698757363
 20
62307.25563753809
 30
0.0
 11
991120.0698757363
 21
62297.25563753809
 31
0.0
 12
991090.0698757364
 22
62302.25563753808
 32
0.0
 13
991090.0698757364
 23
62302.25563753808
 33
0.0
  0
SOLID
  5
5D
330
56
100
AcDbEntity
  8
BAR-GAL
 62
0
370
13
440
16777216
100
AcDbTrace
 10
991340.5605701399
 20
62307.25563753809
 30
0.0
 11
991340.5605701399
 21
62297.25563753809
 31
0.0
 12
991370.56057014
 22
62302.25563753808
 32
0.0
 13
991370.56057014
 23
62302.25563753808
 33
0.0
  0
MTEXT
  5
5E
330
56
100
AcDbEntity
  8
BAR-GAL
 62
0
370
13
440
16777216
100
AcDbMText
 10
991230.3152229382
 20
62327.57282716973
 30
0.0
 40
30.0
 41
0.0
 46
0.0
 71
5
  1
280
  0
POINT
  5
5F
330
56
100
AcDbEntity
  8
Defpoints
 62
0
370
13
440
16777216
100
AcDbPoint
 10
991090.0698757364
 20
62199.41469193086
 30
0.0
  0
POINT
  5
60
330
56
100
AcDbEntity
  8
Defpoints
 62
0
370
13
440
16777216
100
AcDbPoint
 10
991370.56057014
 20
62198.45951292771
 30
0.0
  0
POINT
  5
61
330
56
100
AcDbEntity
  8
Defpoints
 62
0
370
13
440
16777216
100
AcDbPoint
 10
991370.56057014
 20
62302.25563753808
 30
0.0
  0
ENDBLK
  5
58
330
56
100
AcDbEntity
  8
0
100
AcDbBlockEnd
  0
BLOCK
  5
67
330
66
100
AcDbEntity
  8
0
100
AcDbBlockBegin
  2
*D4
 70
1
 10
0.0
 20
0.0
 30
0.0
  3
*D4
  1

  0
LINE
  5
69
330
66
100
AcDbEntity
  8
BAR-GAL
 62
0
370
-2
440
16777216
100
AcDbLine
 10
990258.5239648288
 20
62182.77258109847
 30
0.0
 11
989968.1781310803
 21
62182.77258109847
 31
0.0
  0
LINE
  5
6A
330
66
100
AcDbEntity
  8
BAR-GAL
 62
0
370
-2
440
16777216
100
AcDbLine
 10
990258.5239648288
 20
61542.77258109851
 30
0.0
 11
989968.1781310803
 21
61542.77258109851
 31
0.0
  0
LINE
  5
6B
330
66
100
AcDbEntity
  8
BAR-GAL
 62
0
370
-2
440
16777216
100
AcDbLine
 10
989969.4281310803
 20
62152.77258109847
 30
0.0
 11
989969.4281310803
 21
61572.77258109851
 31
0.0
  0
SOLID
  5
6C
330
66
100
AcDbEntity
  8
BAR-GAL
 62
0
370
13
440
16777216
100
AcDbTrace
 10
989964.4281310803
 20
62152.77258109847
 30
0.0
 11
989974.4281310802
 21
62152.77258109847
 31
0.0
 12
989969.4281310803
 22
62182.77258109847
 32
0.0
 13
989969.4281310803
 23
62182.77258109847
 33
0.0
  0
SOLID
  5
6D
330
66
100
AcDbEntity
  8
BAR-GAL
 62
0
370
13
440
16777216
100
AcDbTrace
 10
989964.4281310803
 20
61572.77258109851
 30
0.0
 11
989974.4281310802
 21
61572.77258109851
 31
0.0
 12
989969.4281310803
 22
61542.77258109851
 32
0.0
 13
989969.4281310803
 23
61542.77258109851
 33
0.0
  0
MTEXT
  5
6E
330
66
100
AcDbEntity
  8
BAR-GAL
 62
0
370
13
440
16777216
100
AcDbMText
 10
989944.1109414484
 20
61862.7725810982
 30
0.0
 40
30.0
 41
0.0
 46
0.0
 71
5
  1
640
 11
1e-16
 21
1.0
 31
0.0
  0
POINT
  5
6F
330
66
100
AcDbEntity
  8
Defpoints
 62
0
370
13
440
16777216
100
AcDbPoint
 10
990259.1489648289
 20
62182.77258109847
 30
0.0
  0
POINT
  5
70
330
66
100
AcDbEntity
  8
Defpoints
 62
0
370
13
440
16777216
100
AcDbPoint
 10
990259.1489648289
 20
61542.77258109851
 30
0.0
  0
POINT
  5
71
330
66
100
AcDbEntity
  8
Defpoints
 62
0
370
13
440
16777216
100
AcDbPoint
 10
989969.4281310803
 20
61542.77258109851
 30
0.0
  0
ENDBLK
  5
68
330
66
100
AcDbEntity
  8
0
100
AcDbBlockEnd
  0
BLOCK
  5
87
330
86
100
AcDbEntity
  8
0
100
AcDbBlockBegin
  2
*D5
 70
1
 10
0.0
 20
0.0
 30
0.0
  3
*D5
  1

  0
LINE
  5
89
330
86
100
AcDbEntity
  8
BAR-GAL
 62
0
370
-2
440
16777216
100
AcDbLine
 10
991370.1805024338
 20
61802.80230024989
 30
0.0
 11
991370.1805024338
 21
61731.57474833836
 31
0.0
  0
LINE
  5
8A
330
86
100
AcDbEntity
  8
BAR-GAL
 62
0
370
-2
440
16777216
100
AcDbLine
 10
991090.4331205083
 20
61808.46496153381
 30
0.0
 11
991090.4331205083
 21
61731.57474833836
 31
0.0
  0
LINE
  5
8B
330
86
100
AcDbEntity
  8
BAR-GAL
 62
0
370
-2
440
16777216
100
AcDbLine
 10
991340.1805024339
 20
61732.82474833836
 30
0.0
 11
991120.4331205084
 21
61732.82474833836
 31
0.0
  0
SOLID
  5
8C
330
86
100
AcDbEntity
  8
BAR-GAL
 62
0
370
13
440
16777216
100
AcDbTrace
 10
991340.1805024339
 20
61737.82474833836
 30
0.0
 11
991340.1805024339
 21
61727.82474833836
 31
0.0
 12
991370.1805024338
 22
61732.82474833836
 32
0.0
 13
991370.1805024338
 23
61732.82474833836
 33
0.0
  0
SOLID
  5
8D
330
86
100
AcDbEntity
  8
BAR-GAL
 62
0
370
13
440
16777216
100
AcDbTrace
 10
991120.4331205084
 20
61737.82474833836
 30
0.0
 11
991120.4331205084
 21
61727.82474833836
 31
0.0
 12
991090.4331205083
 22
61732.82474833836
 32
0.0
 13
991090.4331205083
 23
61732.82474833836
 33
0.0
  0
MTEXT
  5
8E
330
86
100
AcDbEntity
  8
BAR-GAL
 62
0
370
13
440
16777216
100
AcDbMText
 10
991230.3068114709
 20
61758.14193797001
 30
0.0
 40
30.0
 41
0.0
 46
0.0
 71
5
  1
280
  0
POINT
  5
8F
330
86
100
AcDbEntity
  8
Defpoints
 62
0
370
13
440
16777216
100
AcDbPoint
 10
991370.1805024338
 20
61803.42730024989
 30
0.0
  0
POINT
  5
90
330
86
100
AcDbEntity
  8
Defpoints
 62
0
370
13
440
16777216
100
AcDbPoint
 10
991090.4331205083
 20
61809.08996153381
 30
0.0
  0
POINT
  5
91
330
86
100
AcDbEntity
  8
Defpoints
 62
0
370
13
440
16777216
100
AcDbPoint
 10
991090.4331205083
 20
61732.82474833836
 30
0.0
  0
ENDBLK
  5
88
330
86
100
AcDbEntity
  8
0
100
AcDbBlockEnd
  0
BLOCK
  5
95
330
94
100
AcDbEntity
  8
0
100
AcDbBlockBegin
  2
*D6
 70
1
 10
0.0
 20
0.0
 30
0.0
  3
*D6
  1

  0
LINE
  5
97
330
94
100
AcDbEntity
  8
BAR-GAL
 62
0
370
-2
440
16777216
100
AcDbLine
 10
991371.5416458648
 20
61806.35159433546
 30
0.0
 11
991371.5416458648
 21
61731.57474833836
 31
0.0
  0
LINE
  5
98
330
94
100
AcDbEntity
  8
BAR-GAL
 62
0
370
-2
440
16777216
100
AcDbLine
 10
991536.371984394
 20
61800.2996456925
 30
0.0
 11
991536.371984394
 21
61731.57474833836
 31
0.0
  0
LINE
  5
99
330
94
100
AcDbEntity
  8
BAR-GAL
 62
0
370
-2
440
16777216
100
AcDbLine
 10
991401.5416458648
 20
61732.82474833836
 30
0.0
 11
991506.371984394
 21
61732.82474833836
 31
0.0
  0
SOLID
  5
9A
330
94
100
AcDbEntity
  8
BAR-GAL
 62
0
370
13
440
16777216
100
AcDbTrace
 10
991401.5416458648
 20
61737.82474833836
 30
0.0
 11
991401.5416458648
 21
61727.82474833836
 31
0.0
 12
991371.5416458648
 22
61732.82474833836
 32
0.0
 13
991371.5416458648
 23
61732.82474833836
 33
0.0
  0
SOLID
  5
9B
330
94
100
AcDbEntity
  8
BAR-GAL
 62
0
370
13
440
16777216
100
AcDbTrace
 10
991506.371984394
 20
61737.82474833836
 30
0.0
 11
991506.371984394
 21
61727.82474833836
 31
0.0
 12
991536.371984394
 22
61732.82474833836
 32
0.0
 13
991536.371984394
 23
61732.82474833836
 33
0.0
  0
MTEXT
  5
9C
330
94
100
AcDbEntity
  8
BAR-GAL
 62
0
370
13
440
16777216
100
AcDbMText
 10
991453.9568151294
 20
61758.14193797001
 30
0.0
 40
30.0
 41
0.0
 46
0.0
 71
5
  1
165
  0
POINT
  5
9D
330
94
100
AcDbEntity
  8
Defpoints
 62
0
370
13
440
16777216
100
AcDbPoint
 10
991371.5416458648
 20
61806.97659433547
 30
0.0
  0
POINT
  5
9E
330
94
100
AcDbEntity
  8
Defpoints
 62
0
370
13
440
16777216
100
AcDbPoint
 10
991536.371984394
 20
61800.9246456925
 30
0.0
  0
POINT
  5
9F
330
94
100
AcDbEntity
  8
Defpoints
 62
0
370
13
440
16777216
100
AcDbPoint
 10
991536.371984394
 20
61732.82474833836
 30
0.0
  0
ENDBLK
  5
96
330
94
100
AcDbEntity
  8
0
100
AcDbBlockEnd
  0
BLOCK
  5
A2
330
A1
100
AcDbEntity
  8
0
100
AcDbBlockBegin
  2
*D7
 70
1
 10
0.0
 20
0.0
 30
0.0
  3
*D7
  1

  0
LINE
  5
A4
330
A1
100
AcDbEntity
  8
BAR-GAL
 62
0
370
-2
440
16777216
100
AcDbLine
 10
991535.1778805051
 20
62888.57104569582
 30
0.0
 11
991535.1778805051
 21
62954.64202458529
 31
0.0
  0
LINE
  5
A5
330
A1
100
AcDbEntity
  8
BAR-GAL
 62
0
370
-2
440
16777216
100
AcDbLine
 10
991315.1778805051
 20
62888.57104569582
 30
0.0
 11
991315.1778805051
 21
62954.64202458529
 31
0.0
  0
LINE
  5
A6
330
A1
100
AcDbEntity
  8
BAR-GAL
 62
0
370
-2
440
16777216
100
AcDbLine
 10
991505.177880505
 20
62953.39202458529
 30
0.0
 11
991345.177880505
 21
62953.39202458529
 31
0.0
  0
SOLID
  5
A7
330
A1
100
AcDbEntity
  8
BAR-GAL
 62
0
370
13
440
16777216
100
AcDbTrace
 10
991505.177880505
 20
62958.39202458529
 30
0.0
 11
991505.177880505
 21
62948.39202458528
 31
0.0
 12
991535.1778805051
 22
62953.39202458529
 32
0.0
 13
991535.1778805051
 23
62953.39202458529
 33
0.0
  0
SOLID
  5
A8
330
A1
100
AcDbEntity
  8
BAR-GAL
 62
0
370
13
440
16777216
100
AcDbTrace
 10
991345.177880505
 20
62958.39202458529
 30
0.0
 11
991345.177880505
 21
62948.39202458528
 31
0.0
 12
991315.1778805051
 22
62953.39202458529
 32
0.0
 13
991315.1778805051
 23
62953.39202458529
 33
0.0
  0
MTEXT
  5
A9
330
A1
100
AcDbEntity
  8
BAR-GAL
 62
0
370
13
440
16777216
100
AcDbMText
 10
991425.177880505
 20
62978.70921421694
 30
0.0
 40
30.0
 41
0.0
 46
0.0
 71
5
  1
220
  0
POINT
  5
AA
330
A1
100
AcDbEntity
  8
Defpoints
 62
0
370
13
440
16777216
100
AcDbPoint
 10
991535.1778805051
 20
62887.94604569582
 30
0.0
  0
POINT
  5
AB
330
A1
100
AcDbEntity
  8
Defpoints
 62
0
370
13
440
16777216
100
AcDbPoint
 10
991315.1778805051
 20
62887.94604569582
 30
0.0
  0
POINT
  5
AC
330
A1
100
AcDbEntity
  8
Defpoints
 62
0
370
13
440
16777216
100
AcDbPoint
 10
991315.1778805051
 20
62953.39202458529
 30
0.0
  0
ENDBLK
  5
A3
330
A1
100
AcDbEntity
  8
0
100
AcDbBlockEnd
  0
BLOCK
  5
AF
330
AE
100
AcDbEntity
  8
0
100
AcDbBlockBegin
  2
*D8
 70
1
 10
0.0
 20
0.0
 30
0.0
  3
*D8
  1

  0
LINE
  5
B1
330
AE
100
AcDbEntity
  8
BAR-GAL
 62
0
370
-2
440
16777216
100
AcDbLine
 10
991315.4215903627
 20
62918.49998960184
 30
0.0
 11
991315.4215903627
 21
62954.64202458529
 31
0.0
  0
LINE
  5
B2
330
AE
100
AcDbEntity
  8
BAR-GAL
 62
0
370
-2
440
16777216
100
AcDbLine
 10
991055.4215903628
 20
62918.49998960184
 30
0.0
 11
991055.4215903628
 21
62954.64202458529
 31
0.0
  0
LINE
  5
B3
330
AE
100
AcDbEntity
  8
BAR-GAL
 62
0
370
-2
440
16777216
100
AcDbLine
 10
991285.4215903628
 20
62953.39202458529
 30
0.0
 11
991085.4215903627
 21
62953.39202458529
 31
0.0
  0
SOLID
  5
B4
330
AE
100
AcDbEntity
  8
BAR-GAL
 62
0
370
13
440
16777216
100
AcDbTrace
 10
991285.4215903628
 20
62958.39202458529
 30
0.0
 11
991285.4215903628
 21
62948.39202458528
 31
0.0
 12
991315.4215903627
 22
62953.39202458529
 32
0.0
 13
991315.4215903627
 23
62953.39202458529
 33
0.0
  0
SOLID
  5
B5
330
AE
100
AcDbEntity
  8
BAR-GAL
 62
0
370
13
440
16777216
100
AcDbTrace
 10
991085.4215903627
 20
62958.39202458529
 30
0.0
 11
991085.4215903627
 21
62948.39202458528
 31
0.0
 12
991055.4215903628
 22
62953.39202458529
 32
0.0
 13
991055.4215903628
 23
62953.39202458529
 33
0.0
  0
MTEXT
  5
B6
330
AE
100
AcDbEntity
  8
BAR-GAL
 62
0
370
13
440
16777216
100
AcDbMText
 10
991185.4215903627
 20
62978.70921421694
 30
0.0
 40
30.0
 41
0.0
 46
0.0
 71
5
  1
260
  0
POINT
  5
B7
330
AE
100
AcDbEntity
  8
Defpoints
 62
0
370
13
440
16777216
100
AcDbPoint
 10
991315.4215903627
 20
62917.87498960185
 30
0.0
  0
POINT
  5
B8
330
AE
100
AcDbEntity
  8
Defpoints
 62
0
370
13
440
16777216
100
AcDbPoint
 10
991055.4215903628
 20
62917.87498960185
 30
0.0
  0
POINT
  5
B9
330
AE
100
AcDbEntity
  8
Defpoints
 62
0
370
13
440
16777216
100
AcDbPoint
 10
991055.4215903628
 20
62953.39202458529
 30
0.0
  0
ENDBLK
  5
B0
330
AE
100
AcDbEntity
  8
0
100
AcDbBlockEnd
  0
BLOCK
  5
BE
330
BD
100
AcDbEntity
  8
0
100
AcDbBlockBegin
  2
*D9
 70
1
 10
0.0
 20
0.0
 30
0.0
  3
*D9
  1

  0
LINE
  5
C0
330
BD
100
AcDbEntity
  8
BAR-GAL
 62
0
370
-2
440
16777216
100
AcDbLine
 10
991053.8716486826
 20
62831.4906329097
 30
0.0
 11
991006.0536529341
 21
62831.4906329097
 31
0.0
  0
LINE
  5
C1
330
BD
100
AcDbEntity
  8
BAR-GAL
 62
0
370
-2
440
16777216
100
AcDbLine
 10
991053.8716486826
 20
62911.50712919633
 30
0.0
 11
991006.0536529341
 21
62911.50712919633
 31
0.0
  0
LINE
  5
C2
330
BD
100
AcDbEntity
  8
BAR-GAL
 62
0
370
-2
440
16777216
100
AcDbLine
 10
991007.303652934
 20
62861.4906329097
 30
0.0
 11
991007.303652934
 21
62881.50712919633
 31
0.0
  0
SOLID
  5
C3
330
BD
100
AcDbEntity
  8
BAR-GAL
 62
0
370
13
440
16777216
100
AcDbTrace
 10
991002.3036529341
 20
62861.4906329097
 30
0.0
 11
991012.3036529341
 21
62861.4906329097
 31
0.0
 12
991007.303652934
 22
62831.4906329097
 32
0.0
 13
991007.303652934
 23
62831.4906329097
 33
0.0
  0
SOLID
  5
C4
330
BD
100
AcDbEntity
  8
BAR-GAL
 62
0
370
13
440
16777216
100
AcDbTrace
 10
991002.3036529341
 20
62881.50712919633
 30
0.0
 11
991012.3036529341
 21
62881.50712919633
 31
0.0
 12
991007.303652934
 22
62911.50712919633
 32
0.0
 13
991007.303652934
 23
62911.50712919633
 33
0.0
  0
MTEXT
  5
C5
330
BD
100
AcDbEntity
  8
BAR-GAL
 62
0
370
13
440
16777216
100
AcDbMText
 10
990981.986463302
 20
62871.49888105273
 30
0.0
 40
30.0
 41
0.0
 46
0.0
 71
5
  1
80
 11
1e-16
 21
1.0
 31
0.0
  0
POINT
  5
C6
330
BD
100
AcDbEntity
  8
Defpoints
 62
0
370
13
440
16777216
100
AcDbPoint
 10
991054.4966486826
 20
62831.4906329097
 30
0.0
  0
POINT
  5
C7
330
BD
100
AcDbEntity
  8
Defpoints
 62
0
370
13
440
16777216
100
AcDbPoint
 10
991054.4966486826
 20
62911.50712919633
 30
0.0
  0
POINT
  5
C8
330
BD
100
AcDbEntity
  8
Defpoints
 62
0
370
13
440
16777216
100
AcDbPoint
 10
991007.303652934
 20
62911.50712919633
 30
0.0
  0
ENDBLK
  5
BF
330
BD
100
AcDbEntity
  8
0
100
AcDbBlockEnd
  0
BLOCK
  5
CC
330
CB
100
AcDbEntity
  8
0
100
AcDbBlockBegin
  2
*D10
 70
1
 10
0.0
 20
0.0
 30
0.0
  3
*D10
  1

  0
LINE
  5
CE
330
CB
100
AcDbEntity
  8
BAR-GAL
 62
0
370
-2
440
16777216
100
AcDbLine
 10
991315.5545522108
 20
62912.49063290971
 30
0.0
 11
991380.4918340597
 21
62912.49063290971
 31
0.0
  0
LINE
  5
CF
330
CB
100
AcDbEntity
  8
BAR-GAL
 62
0
370
-2
440
16777216
100
AcDbLine
 10
991315.5545522108
 20
62642.60257547559
 30
0.0
 11
991380.4918340597
 21
62642.60257547559
 31
0.0
  0
LINE
  5
D0
330
CB
100
AcDbEntity
  8
BAR-GAL
 62
0
370
-2
440
16777216
100
AcDbLine
 10
991379.2418340596
 20
62882.49063290971
 30
0.0
 11
991379.2418340596
 21
62672.60257547559
 31
0.0
  0
SOLID
  5
D1
330
CB
100
AcDbEntity
  8
BAR-GAL
 62
0
370
13
440
16777216
100
AcDbTrace
 10
991374.2418340596
 20
62882.49063290971
 30
0.0
 11
991384.2418340596
 21
62882.49063290971
 31
0.0
 12
991379.2418340596
 22
62912.49063290971
 32
0.0
 13
991379.2418340596
 23
62912.49063290971
 33
0.0
  0
SOLID
  5
D2
330
CB
100
AcDbEntity
  8
BAR-GAL
 62
0
370
13
440
16777216
100
AcDbTrace
 10
991374.2418340596
 20
62672.60257547559
 30
0.0
 11
991384.2418340596
 21
62672.60257547559
 31
0.0
 12
991379.2418340596
 22
62642.60257547559
 32
0.0
 13
991379.2418340596
 23
62642.60257547559
 33
0.0
  0
MTEXT
  5
D3
330
CB
100
AcDbEntity
  8
BAR-GAL
 62
0
370
13
440
16777216
100
AcDbMText
 10
991353.9246444278
 20
62777.54660419236
 30
0.0
 40
30.0
 41
0.0
 46
0.0
 71
5
  1
270
 11
1e-16
 21
1.0
 31
0.0
  0
POINT
  5
D4
330
CB
100
AcDbEntity
  8
Defpoints
 62
0
370
13
440
16777216
100
AcDbPoint
 10
991314.9295522108
 20
62912.49063290971
 30
0.0
  0
POINT
  5
D5
330
CB
100
AcDbEntity
  8
Defpoints
 62
0
370
13
440
16777216
100
AcDbPoint
 10
991314.9295522108
 20
62642.60257547559
 30
0.0
  0
POINT
  5
D6
330
CB
100
AcDbEntity
  8
Defpoints
 62
0
370
13
440
16777216
100
AcDbPoint
 10
991379.2418340596
 20
62642.60257547559
 30
0.0
  0
ENDBLK
  5
CD
330
CB
100
AcDbEntity
  8
0
100
AcDbBlockEnd
  0
BLOCK
  5
DA
330
D9
100
AcDbEntity
  8
0
100
AcDbBlockBegin
  2
*D11
 70
1
 10
0.0
 20
0.0
 30
0.0
  3
*D11
  1

  0
LINE
  5
DC
330
D9
100
AcDbEntity
  8
BAR-GAL
 62
0
370
-2
440
16777216
100
AcDbLine
 10
991054.9295522101
 20
62911.11563290968
 30
0.0
 11
991054.9295522101
 21
62954.64202458529
 31
0.0
  0
LINE
  5
DD
330
D9
100
AcDbEntity
  8
BAR-GAL
 62
0
370
-2
440
16777216
100
AcDbLine
 10
990339.9295522104
 20
62828.94604585284
 30
0.0
 11
990339.9295522104
 21
62954.64202458529
 31
0.0
  0
LINE
  5
DE
330
D9
100
AcDbEntity
  8
BAR-GAL
 62
0
370
-2
440
16777216
100
AcDbLine
 10
991024.9295522103
 20
62953.39202458529
 30
0.0
 11
990369.9295522104
 21
62953.39202458529
 31
0.0
  0
SOLID
  5
DF
330
D9
100
AcDbEntity
  8
BAR-GAL
 62
0
370
13
440
16777216
100
AcDbTrace
 10
991024.9295522103
 20
62958.39202458529
 30
0.0
 11
991024.9295522103
 21
62948.39202458528
 31
0.0
 12
991054.9295522101
 22
62953.39202458529
 32
0.0
 13
991054.9295522101
 23
62953.39202458529
 33
0.0
  0
SOLID
  5
E0
330
D9
100
AcDbEntity
  8
BAR-GAL
 62
0
370
13
440
16777216
100
AcDbTrace
 10
990369.9295522104
 20
62958.39202458529
 30
0.0
 11
990369.9295522104
 21
62948.39202458528
 31
0.0
 12
990339.9295522104
 22
62953.39202458529
 32
0.0
 13
990339.9295522104
 23
62953.39202458529
 33
0.0
  0
MTEXT
  5
E1
330
D9
100
AcDbEntity
  8
BAR-GAL
 62
0
370
13
440
16777216
100
AcDbMText
 10
990697.4295522104
 20
62978.70921421694
 30
0.0
 40
30.0
 41
0.0
 46
0.0
 71
5
  1
715
  0
POINT
  5
E2
330
D9
100
AcDbEntity
  8
Defpoints
 62
0
370
13
440
16777216
100
AcDbPoint
 10
991054.9295522101
 20
62910.49063290968
 30
0.0
  0
POINT
  5
E3
330
D9
100
AcDbEntity
  8
Defpoints
 62
0
370
13
440
16777216
100
AcDbPoint
 10
990339.9295522104
 20
62828.32104585284
 30
0.0
  0
POINT
  5
E4
330
D9
100
AcDbEntity
  8
Defpoints
 62
0
370
13
440
16777216
100
AcDbPoint
 10
990339.9295522104
 20
62953.39202458529
 30
0.0
  0
ENDBLK
  5
DB
330
D9
100
AcDbEntity
  8
0
100
AcDbBlockEnd
  0
BLOCK
  5
E8
330
E7
100
AcDbEntity
  8
0
100
AcDbBlockBegin
  2
*D12
 70
1
 10
0.0
 20
0.0
 30
0.0
  3
*D12
  1

  0
LINE
  5
EA
330
E7
100
AcDbEntity
  8
BAR-GAL
 62
0
370
-2
440
16777216
100
AcDbLine
 10
990339.3045522108
 20
62380.4906329097
 30
0.0
 11
990275.1317140015
 21
62380.4906329097
 31
0.0
  0
LINE
  5
EB
330
E7
100
AcDbEntity
  8
BAR-GAL
 62
0
370
-2
440
16777216
100
AcDbLine
 10
990336.8852194682
 20
62830.36172996481
 30
0.0
 11
990275.1317140015
 21
62830.36172996481
 31
0.0
  0
LINE
  5
EC
330
E7
100
AcDbEntity
  8
BAR-GAL
 62
0
370
-2
440
16777216
100
AcDbLine
 10
990276.3817140016
 20
62410.4906329097
 30
0.0
 11
990276.3817140016
 21
62800.36172996481
 31
0.0
  0
SOLID
  5
ED
330
E7
100
AcDbEntity
  8
BAR-GAL
 62
0
370
13
440
16777216
100
AcDbTrace
 10
990271.3817140016
 20
62410.4906329097
 30
0.0
 11
990281.3817140016
 21
62410.4906329097
 31
0.0
 12
990276.3817140016
 22
62380.4906329097
 32
0.0
 13
990276.3817140016
 23
62380.4906329097
 33
0.0
  0
SOLID
  5
EE
330
E7
100
AcDbEntity
  8
BAR-GAL
 62
0
370
13
440
16777216
100
AcDbTrace
 10
990271.3817140016
 20
62800.36172996481
 30
0.0
 11
990281.3817140016
 21
62800.36172996481
 31
0.0
 12
990276.3817140016
 22
62830.36172996481
 32
0.0
 13
990276.3817140016
 23
62830.36172996481
 33
0.0
  0
MTEXT
  5
EF
330
E7
100
AcDbEntity
  8
BAR-GAL
 62
0
370
13
440
16777216
100
AcDbMText
 10
990251.0645243697
 20
62605.42618143697
 30
0.0
 40
30.0
 41
0.0
 46
0.0
 71
5
  1
450
 11
1e-16
 21
1.0
 31
0.0
  0
POINT
  5
F0
330
E7
100
AcDbEntity
  8
Defpoints
 62
0
370
13
440
16777216
100
AcDbPoint
 10
990339.9295522108
 20
62380.4906329097
 30
0.0
  0
POINT
  5
F1
330
E7
100
AcDbEntity
  8
Defpoints
 62
0
370
13
440
16777216
100
AcDbPoint
 10
990337.5102194682
 20
62830.36172996481
 30
0.0
  0
POINT
  5
F2
330
E7
100
AcDbEntity
  8
Defpoints
 62
0
370
13
440
16777216
100
AcDbPoint
 10
990276.3817140016
 20
62830.36172996481
 30
0.0
  0
ENDBLK
  5
E9
330
E7
100
AcDbEntity
  8
0
100
AcDbBlockEnd
  0
BLOCK
  5
F5
330
F4
100
AcDbEntity
  8
0
100
AcDbBlockBegin
  2
*D13
 70
1
 10
0.0
 20
0.0
 30
0.0
  3
*D13
  1

  0
LINE
  5
F7
330
F4
100
AcDbEntity
  8
BAR-GAL
 62
0
370
-2
440
16777216
100
AcDbLine
 10
990339.9295522104
 20
62379.86563290967
 30
0.0
 11
990339.9295522104
 21
62300.62245862067
 31
0.0
  0
LINE
  5
F8
330
F4
100
AcDbEntity
  8
BAR-GAL
 62
0
370
-2
440
16777216
100
AcDbLine
 10
990629.7855529977
 20
62379.86563290967
 30
0.0
 11
990629.7855529977
 21
62300.62245862067
 31
0.0
  0
LINE
  5
F9
330
F4
100
AcDbEntity
  8
BAR-GAL
 62
0
370
-2
440
16777216
100
AcDbLine
 10
990369.9295522104
 20
62301.87245862067
 30
0.0
 11
990599.7855529976
 21
62301.87245862067
 31
0.0
  0
SOLID
  5
FA
330
F4
100
AcDbEntity
  8
BAR-GAL
 62
0
370
13
440
16777216
100
AcDbTrace
 10
990369.9295522104
 20
62306.87245862067
 30
0.0
 11
990369.9295522104
 21
62296.87245862067
 31
0.0
 12
990339.9295522104
 22
62301.87245862067
 32
0.0
 13
990339.9295522104
 23
62301.87245862067
 33
0.0
  0
SOLID
  5
FB
330
F4
100
AcDbEntity
  8
BAR-GAL
 62
0
370
13
440
16777216
100
AcDbTrace
 10
990599.7855529976
 20
62306.87245862067
 30
0.0
 11
990599.7855529976
 21
62296.87245862067
 31
0.0
 12
990629.7855529977
 22
62301.87245862067
 32
0.0
 13
990629.7855529977
 23
62301.87245862067
 33
0.0
  0
MTEXT
  5
FC
330
F4
100
AcDbEntity
  8
BAR-GAL
 62
0
370
13
440
16777216
100
AcDbMText
 10
990484.857552604
 20
62327.18964825232
 30
0.0
 40
30.0
 41
0.0
 46
0.0
 71
5
  1
290
  0
POINT
  5
FD
330
F4
100
AcDbEntity
  8
Defpoints
 62
0
370
13
440
16777216
100
AcDbPoint
 10
990339.9295522104
 20
62380.49063290968
 30
0.0
  0
POINT
  5
FE
330
F4
100
AcDbEntity
  8
Defpoints
 62
0
370
13
440
16777216
100
AcDbPoint
 10
990629.7855529977
 20
62380.49063290968
 30
0.0
  0
POINT
  5
FF
330
F4
100
AcDbEntity
  8
Defpoints
 62
0
370
13
440
16777216
100
AcDbPoint
 10
990629.7855529977
 20
62301.87245862067
 30
0.0
  0
ENDBLK
  5
F6
330
F4
100
AcDbEntity
  8
0
100
AcDbBlockEnd
  0
BLOCK
  5
102
330
101
100
AcDbEntity
  8
0
100
AcDbBlockBegin
  2
*D14
 70
1
 10
0.0
 20
0.0
 30
0.0
  3
*D14
  1

  0
LINE
  5
104
330
101
100
AcDbEntity
  8
BAR-GAL
 62
0
370
-2
440
16777216
100
AcDbLine
 10
990336.8852194682
 20
62380.4906329097
 30
0.0
 11
990276.4052246958
 21
62380.4906329097
 31
0.0
  0
LINE
  5
105
330
101
100
AcDbEntity
  8
BAR-GAL
 62
0
370
-2
440
16777216
100
AcDbLine
 10
990331.8607348076
 20
62181.56784754829
 30
0.0
 11
990276.4052246958
 21
62181.56784754829
 31
0.0
  0
LINE
  5
106
330
101
100
AcDbEntity
  8
BAR-GAL
 62
0
370
-2
440
16777216
100
AcDbLine
 10
990277.6552246956
 20
62350.4906329097
 30
0.0
 11
990277.6552246956
 21
62211.56784754829
 31
0.0
  0
SOLID
  5
107
330
101
100
AcDbEntity
  8
BAR-GAL
 62
0
370
13
440
16777216
100
AcDbTrace
 10
990272.6552246956
 20
62350.4906329097
 30
0.0
 11
990282.6552246956
 21
62350.4906329097
 31
0.0
 12
990277.6552246956
 22
62380.4906329097
 32
0.0
 13
990277.6552246956
 23
62380.4906329097
 33
0.0
  0
SOLID
  5
108
330
101
100
AcDbEntity
  8
BAR-GAL
 62
0
370
13
440
16777216
100
AcDbTrace
 10
990272.6552246956
 20
62211.56784754829
 30
0.0
 11
990282.6552246956
 21
62211.56784754829
 31
0.0
 12
990277.6552246956
 22
62181.56784754829
 32
0.0
 13
990277.6552246956
 23
62181.56784754829
 33
0.0
  0
MTEXT
  5
109
330
101
100
AcDbEntity
  8
BAR-GAL
 62
0
370
13
440
16777216
100
AcDbMText
 10
990252.3380350638
 20
62281.02924022871
 30
0.0
 40
30.0
 41
0.0
 46
0.0
 71
5
  1
199
 11
1e-16
 21
1.0
 31
0.0
  0
POINT
  5
10A
330
101
100
AcDbEntity
  8
Defpoints
 62
0
370
13
440
16777216
100
AcDbPoint
 10
990337.5102194682
 20
62380.4906329097
 30
0.0
  0
POINT
  5
10B
330
101
100
AcDbEntity
  8
Defpoints
 62
0
370
13
440
16777216
100
AcDbPoint
 10
990332.4857348076
 20
62181.56784754829
 30
0.0
  0
POINT
  5
10C
330
101
100
AcDbEntity
  8
Defpoints
 62
0
370
13
440
16777216
100
AcDbPoint
 10
990277.6552246956
 20
62181.56784754829
 30
0.0
  0
ENDBLK
  5
103
330
101
100
AcDbEntity
  8
0
100
AcDbBlockEnd
  0
BLOCK
  5
10F
330
10E
100
AcDbEntity
  8
0
100
AcDbBlockBegin
  2
*D15
 70
1
 10
0.0
 20
0.0
 30
0.0
  3
*D15
  1

  0
LINE
  5
111
330
10E
100
AcDbEntity
  8
BAR-GAL
 62
0
370
-2
440
16777216
100
AcDbLine
 10
991536.5086294546
 20
63112.34100660952
 30
0.0
 11
991635.1321336975
 21
63112.34100660952
 31
0.0
  0
LINE
  5
112
330
10E
100
AcDbEntity
  8
BAR-GAL
 62
0
370
-2
440
16777216
100
AcDbLine
 10
991536.5086294546
 20
62642.07437716983
 30
0.0
 11
991635.1321336975
 21
62642.07437716983
 31
0.0
  0
LINE
  5
113
330
10E
100
AcDbEntity
  8
BAR-GAL
 62
0
370
-2
440
16777216
100
AcDbLine
 10
991633.8821336974
 20
63082.34100660952
 30
0.0
 11
991633.8821336974
 21
62672.07437716983
 31
0.0
  0
SOLID
  5
114
330
10E
100
AcDbEntity
  8
BAR-GAL
 62
0
370
13
440
16777216
100
AcDbTrace
 10
991628.8821336975
 20
63082.34100660952
 30
0.0
 11
991638.8821336974
 21
63082.34100660952
 31
0.0
 12
991633.8821336974
 22
63112.34100660952
 32
0.0
 13
991633.8821336974
 23
63112.34100660952
 33
0.0
  0
SOLID
  5
115
330
10E
100
AcDbEntity
  8
BAR-GAL
 62
0
370
13
440
16777216
100
AcDbTrace
 10
991628.8821336975
 20
62672.07437716983
 30
0.0
 11
991638.8821336974
 21
62672.07437716983
 31
0.0
 12
991633.8821336974
 22
62642.07437716983
 32
0.0
 13
991633.8821336974
 23
62642.07437716983
 33
0.0
  0
MTEXT
  5
116
330
10E
100
AcDbEntity
  8
BAR-GAL
 62
0
370
13
440
16777216
100
AcDbMText
 10
991608.5649440656
 20
62877.20769188939
 30
0.0
 40
30.0
 41
0.0
 46
0.0
 71
5
  1
470
 11
1e-16
 21
1.0
 31
0.0
  0
POINT
  5
117
330
10E
100
AcDbEntity
  8
Defpoints
 62
0
370
13
440
16777216
100
AcDbPoint
 10
991535.8836294545
 20
63112.34100660952
 30
0.0
  0
POINT
  5
118
330
10E
100
AcDbEntity
  8
Defpoints
 62
0
370
13
440
16777216
100
AcDbPoint
 10
991535.8836294545
 20
62642.07437716983
 30
0.0
  0
POINT
  5
119
330
10E
100
AcDbEntity
  8
Defpoints
 62
0
370
13
440
16777216
100
AcDbPoint
 10
991633.8821336974
 20
62642.07437716983
 30
0.0
  0
ENDBLK
  5
110
330
10E
100
AcDbEntity
  8
0
100
AcDbBlockEnd
  0
BLOCK
  5
11D
330
11C
100
AcDbEntity
  8
0
100
AcDbBlockBegin
  2
*D16
 70
1
 10
0.0
 20
0.0
 30
0.0
  3
*D16
  1

  0
LINE
  5
11F
330
11C
100
AcDbEntity
  8
BAR-GAL
 62
0
370
-2
440
16777216
100
AcDbLine
 10
991536.1177842813
 20
62642.07437716983
 30
0.0
 11
991635.1321336975
 21
62642.07437716983
 31
0.0
  0
LINE
  5
120
330
11C
100
AcDbEntity
  8
BAR-GAL
 62
0
370
-2
440
16777216
100
AcDbLine
 10
991536.1177842813
 20
61201.664491926
 30
0.0
 11
991635.1321336975
 21
61201.664491926
 31
0.0
  0
LINE
  5
121
330
11C
100
AcDbEntity
  8
BAR-GAL
 62
0
370
-2
440
16777216
100
AcDbLine
 10
991633.8821336974
 20
62612.07437716983
 30
0.0
 11
991633.8821336974
 21
61231.66449192599
 31
0.0
  0
SOLID
  5
122
330
11C
100
AcDbEntity
  8
BAR-GAL
 62
0
370
13
440
16777216
100
AcDbTrace
 10
991628.8821336975
 20
62612.07437716983
 30
0.0
 11
991638.8821336974
 21
62612.07437716983
 31
0.0
 12
991633.8821336974
 22
62642.07437716983
 32
0.0
 13
991633.8821336974
 23
62642.07437716983
 33
0.0
  0
SOLID
  5
123
330
11C
100
AcDbEntity
  8
BAR-GAL
 62
0
370
13
440
16777216
100
AcDbTrace
 10
991628.8821336975
 20
61231.66449192599
 30
0.0
 11
991638.8821336974
 21
61231.66449192599
 31
0.0
 12
991633.8821336974
 22
61201.664491926
 32
0.0
 13
991633.8821336974
 23
61201.664491926
 33
0.0
  0
MTEXT
  5
124
330
11C
100
AcDbEntity
  8
BAR-GAL
 62
0
370
13
440
16777216
100
AcDbMText
 10
991608.5649440656
 20
61921.86943454762
 30
0.0
 40
30.0
 41
0.0
 46
0.0
 71
5
  1
1440
 11
1e-16
 21
1.0
 31
0.0
  0
POINT
  5
125
330
11C
100
AcDbEntity
  8
Defpoints
 62
0
370
13
440
16777216
100
AcDbPoint
 10
991535.4927842813
 20
62642.07437716983
 30
0.0
  0
POINT
  5
126
330
11C
100
AcDbEntity
  8
Defpoints
 62
0
370
13
440
16777216
100
AcDbPoint
 10
991535.4927842813
 20
61201.664491926
 30
0.0
  0
POINT
  5
127
330
11C
100
AcDbEntity
  8
Defpoints
 62
0
370
13
440
16777216
100
AcDbPoint
 10
991633.8821336974
 20
61201.664491926
 30
0.0
  0
ENDBLK
  5
11E
330
11C
100
AcDbEntity
  8
0
100
AcDbBlockEnd
  0
BLOCK
  5
12B
330
12A
100
AcDbEntity
  8
0
100
AcDbBlockBegin
  2
*D17
 70
1
 10
0.0
 20
0.0
 30
0.0
  3
*D17
  1

  0
LINE
  5
12D
330
12A
100
AcDbEntity
  8
BAR-GAL
 62
0
370
-2
440
16777216
100
AcDbLine
 10
990137.7855529977
 20
63112.96600660948
 30
0.0
 11
990137.7855529977
 21
63214.37341002932
 31
0.0
  0
LINE
  5
12E
330
12A
100
AcDbEntity
  8
BAR-GAL
 62
0
370
-2
440
16777216
100
AcDbLine
 10
991537.8836294541
 20
63112.96600660948
 30
0.0
 11
991537.8836294541
 21
63214.37341002932
 31
0.0
  0
LINE
  5
12F
330
12A
100
AcDbEntity
  8
BAR-GAL
 62
0
370
-2
440
16777216
100
AcDbLine
 10
990167.7855529976
 20
63213.12341002931
 30
0.0
 11
991507.883629454
 21
63213.12341002931
 31
0.0
  0
SOLID
  5
130
330
12A
100
AcDbEntity
  8
BAR-GAL
 62
0
370
13
440
16777216
100
AcDbTrace
 10
990167.7855529976
 20
63218.12341002932
 30
0.0
 11
990167.7855529976
 21
63208.12341002931
 31
0.0
 12
990137.7855529977
 22
63213.12341002931
 32
0.0
 13
990137.7855529977
 23
63213.12341002931
 33
0.0
  0
SOLID
  5
131
330
12A
100
AcDbEntity
  8
BAR-GAL
 62
0
370
13
440
16777216
100
AcDbTrace
 10
991507.883629454
 20
63218.12341002932
 30
0.0
 11
991507.883629454
 21
63208.12341002931
 31
0.0
 12
991537.8836294541
 22
63213.12341002931
 32
0.0
 13
991537.8836294541
 23
63213.12341002931
 33
0.0
  0
MTEXT
  5
132
330
12A
100
AcDbEntity
  8
BAR-GAL
 62
0
370
13
440
16777216
100
AcDbMText
 10
990837.834591226
 20
63238.44059966096
 30
0.0
 40
30.0
 41
0.0
 46
0.0
 71
5
  1
1400
  0
POINT
  5
133
330
12A
100
AcDbEntity
  8
Defpoints
 62
0
370
13
440
16777216
100
AcDbPoint
 10
990137.7855529977
 20
63112.34100660948
 30
0.0
  0
POINT
  5
134
330
12A
100
AcDbEntity
  8
Defpoints
 62
0
370
13
440
16777216
100
AcDbPoint
 10
991537.8836294541
 20
63112.34100660948
 30
0.0
  0
POINT
  5
135
330
12A
100
AcDbEntity
  8
Defpoints
 62
0
370
13
440
16777216
100
AcDbPoint
 10
991537.8836294541
 20
63213.12341002931
 30
0.0
  0
ENDBLK
  5
12C
330
12A
100
AcDbEntity
  8
0
100
AcDbBlockEnd
  0
BLOCK
  5
156
330
155
100
AcDbEntity
  8
0
100
AcDbBlockBegin
  2
*D18
 70
1
 10
0.0
 20
0.0
 30
0.0
  3
*D18
  1

  0
LINE
  5
158
330
155
100
AcDbEntity
  8
BAR-GAL
 62
0
370
-2
440
16777216
100
AcDbLine
 10
991089.4331205083
 20
62457.41821144958
 30
0.0
 11
991089.4331205083
 21
62406.31535611947
 31
0.0
  0
LINE
  5
159
330
155
100
AcDbEntity
  8
BAR-GAL
 62
0
370
-2
440
16777216
100
AcDbLine
 10
991384.9726315866
 20
62455.5801101999
 30
0.0
 11
991384.9726315866
 21
62406.31535611947
 31
0.0
  0
LINE
  5
15A
330
155
100
AcDbEntity
  8
BAR-GAL
 62
0
370
-2
440
16777216
100
AcDbLine
 10
991119.4331205082
 20
62407.56535611946
 30
0.0
 11
991354.9726315865
 21
62407.56535611946
 31
0.0
  0
SOLID
  5
15B
330
155
100
AcDbEntity
  8
BAR-GAL
 62
0
370
13
440
16777216
100
AcDbTrace
 10
991119.4331205082
 20
62412.56535611947
 30
0.0
 11
991119.4331205082
 21
62402.56535611947
 31
0.0
 12
991089.4331205083
 22
62407.56535611946
 32
0.0
 13
991089.4331205083
 23
62407.56535611946
 33
0.0
  0
SOLID
  5
15C
330
155
100
AcDbEntity
  8
BAR-GAL
 62
0
370
13
440
16777216
100
AcDbTrace
 10
991354.9726315865
 20
62412.56535611947
 30
0.0
 11
991354.9726315865
 21
62402.56535611947
 31
0.0
 12
991384.9726315866
 22
62407.56535611946
 32
0.0
 13
991384.9726315866
 23
62407.56535611946
 33
0.0
  0
MTEXT
  5
15D
330
155
100
AcDbEntity
  8
BAR-GAL
 62
0
370
13
440
16777216
100
AcDbMText
 10
991237.2028760473
 20
62432.88254575111
 30
0.0
 40
30.0
 41
0.0
 46
0.0
 71
5
  1
296
  0
POINT
  5
15E
330
155
100
AcDbEntity
  8
Defpoints
 62
0
370
13
440
16777216
100
AcDbPoint
 10
991089.4331205083
 20
62458.04321144958
 30
0.0
  0
POINT
  5
15F
330
155
100
AcDbEntity
  8
Defpoints
 62
0
370
13
440
16777216
100
AcDbPoint
 10
991384.9726315866
 20
62456.20511019989
 30
0.0
  0
POINT
  5
160
330
155
100
AcDbEntity
  8
Defpoints
 62
0
370
13
440
16777216
100
AcDbPoint
 10
991384.9726315866
 20
62407.56535611946
 30
0.0
  0
ENDBLK
  5
157
330
155
100
AcDbEntity
  8
0
100
AcDbBlockEnd
  0
BLOCK
  5
164
330
163
100
AcDbEntity
  8
0
100
AcDbBlockBegin
  2
*D19
 70
1
 10
0.0
 20
0.0
 30
0.0
  3
*D19
  1

  0
LINE
  5
166
330
163
100
AcDbEntity
  8
BAR-GAL
 62
0
370
-2
440
16777216
100
AcDbLine
 10
991088.8081205087
 20
62642.71116321038
 30
0.0
 11
991043.9059481625
 21
62642.71116321038
 31
0.0
  0
LINE
  5
167
330
163
100
AcDbEntity
  8
BAR-GAL
 62
0
370
-2
440
16777216
100
AcDbLine
 10
991088.8081205087
 20
62458.0432114496
 30
0.0
 11
991043.9059481625
 21
62458.0432114496
 31
0.0
  0
LINE
  5
168
330
163
100
AcDbEntity
  8
BAR-GAL
 62
0
370
-2
440
16777216
100
AcDbLine
 10
991045.1559481629
 20
62612.71116321038
 30
0.0
 11
991045.1559481629
 21
62488.04321144961
 31
0.0
  0
SOLID
  5
169
330
163
100
AcDbEntity
  8
BAR-GAL
 62
0
370
13
440
16777216
100
AcDbTrace
 10
991040.1559481627
 20
62612.71116321038
 30
0.0
 11
991050.1559481627
 21
62612.71116321038
 31
0.0
 12
991045.1559481629
 22
62642.71116321038
 32
0.0
 13
991045.1559481629
 23
62642.71116321038
 33
0.0
  0
SOLID
  5
16A
330
163
100
AcDbEntity
  8
BAR-GAL
 62
0
370
13
440
16777216
100
AcDbTrace
 10
991040.1559481627
 20
62488.04321144961
 30
0.0
 11
991050.1559481627
 21
62488.04321144961
 31
0.0
 12
991045.1559481629
 22
62458.0432114496
 32
0.0
 13
991045.1559481629
 23
62458.0432114496
 33
0.0
  0
MTEXT
  5
16B
330
163
100
AcDbEntity
  8
BAR-GAL
 62
0
370
13
440
16777216
100
AcDbMText
 10
991019.8387585309
 20
62550.37718732971
 30
0.0
 40
30.0
 41
0.0
 46
0.0
 71
5
  1
185
 11
1e-16
 21
1.0
 31
0.0
  0
POINT
  5
16C
330
163
100
AcDbEntity
  8
Defpoints
 62
0
370
13
440
16777216
100
AcDbPoint
 10
991089.4331205087
 20
62642.71116321038
 30
0.0
  0
POINT
  5
16D
330
163
100
AcDbEntity
  8
Defpoints
 62
0
370
13
440
16777216
100
AcDbPoint
 10
991089.4331205087
 20
62458.0432114496
 30
0.0
  0
POINT
  5
16E
330
163
100
AcDbEntity
  8
Defpoints
 62
0
370
13
440
16777216
100
AcDbPoint
 10
991045.1559481629
 20
62458.0432114496
 30
0.0
  0
ENDBLK
  5
165
330
163
100
AcDbEntity
  8
0
100
AcDbBlockEnd
  0
ENDSEC
  0
SECTION
  2
ENTITIES
  0
LWPOLYLINE
  5
35
330
17
100
AcDbEntity
  8
0
370
13
100
AcDbPolyline
 90
4
 70
1
 43
3.428535235377893
 10
993227.7216141497
 20
60156.51927490788
 10
988135.509055791
 20
60156.51927490788
 10
988135.509055791
 20
64272.43997279946
 10
993230.3966665571
 20
64272.43997279946
  0
LWPOLYLINE
  5
36
330
17
100
AcDbEntity
  8
BAR-GAL
 62
7
370
13
100
AcDbPolyline
 90
10
 70
0
 43
5.0
 10
990808.1222010077
 20
61542.77258109845
 10
990627.7855529978
 20
61542.77258109845
 10
990627.7855529978
 20
62182.77258109845
 10
990457.3983916673
 20
62182.77258109845
 10
990457.3983916673
 20
62182.77258109845
 10
990157.7855529977
 20
62182.77258109845
 10
990137.7855529977
 20
62182.77258109845
 10
990137.7855529977
 20
63112.34100660948
 10
990133.9817059106
 20
63112.34100660948
 10
991535.8836294542
 20
63112.34100660948
  0
LWPOLYLINE
  5
37
330
17
100
AcDbEntity
  8
BAR-GAL
 62
7
370
13
100
AcDbPolyline
 90
5
 70
0
 43
15.0
 10
991470.2127692892
 20
62467.34729427211
 10
991470.2127692892
 20
62458.04321144958
 10
991535.4927842809
 20
62458.04321144958
 10
991535.4927842809
 20
62642.0743771698
 10
991470.2127692892
 20
62642.0743771698
  0
DIMENSION
  5
38
330
17
100
AcDbEntity
  8
BAR-GAL
 62
7
370
13
100
AcDbDimension
280
0
  2
*D1
  3
ISO-25
 10
991090.4331205083
 20
61732.82474833836
 30
0.0
 11
990860.4331205083
 21
61758.14193797001
 31
0.0
 70
32
 71
5
 42
460.0
 73
0
 74
0
 75
0
100
AcDbAlignedDimension
 13
990630.4331205083
 23
61806.40424254997
 33
0.0
 14
991090.4331205083
 24
61806.40424254997
 34
0.0
 50
0.0
100
AcDbRotatedDimension
  0
LWPOLYLINE
  5
45
330
17
100
AcDbEntity
  8
BAR-GAL
 62
7
370
13
100
AcDbPolyline
 90
4
 70
0
 43
15.0
 10
991371.1805024339
 20
61856.91718916621
 10
991089.4331205083
 20
61856.91718916621
 10
991089.4331205083
 20
62642.71116321035
 10
991535.4927842809
 20
62642.0743771698
  0
LWPOLYLINE
  5
46
330
17
100
AcDbEntity
  8
BAR-GAL
 62
7
370
13
100
AcDbPolyline
 90
3
 70
0
 43
15.0
 10
991370.2421925259
 20
61856.91718916621
 10
991370.2421925259
 20
62247.90381806662
 10
991087.4612332355
 20
62247.90381806664
  0
DIMENSION
  5
47
102
{ACAD_XDICTIONARY
360
48
102
}
330
17
100
AcDbEntity
  8
BAR-GAL
 62
7
370
13
100
AcDbDimension
280
0
  2
*D2
  3
ISO-25
 10
991424.3663902619
 20
62246.90381806665
 30
0.0
 11
991399.0389687064
 21
62051.91050361615
 31
0.0
 70
32
 71
5
 42
389.9866289004058
 73
0
 74
0
 75
0
100
AcDbAlignedDimension
 13
991370.2421925259
 23
61856.91718916621
 33
0.0
 14
991370.2421925259
 24
62246.90381806661
 34
0.0
 50
90.0
100
AcDbRotatedDimension
  0
DIMENSION
  5
55
330
17
100
AcDbEntity
  8
BAR-GAL
 62
7
370
13
100
AcDbDimension
280
0
  2
*D3
  3
ISO-25
 10
991370.56057014
 20
62302.25563753808
 30
0.0
 11
991230.3152229382
 21
62327.57282716973
 31
0.0
 70
32
 71
5
 42
280.4906944036484
 73
0
 74
0
 75
0
100
AcDbAlignedDimension
 13
991090.0698757364
 23
62199.41469193086
 33
0.0
 14
991370.56057014
 24
62198.45951292771
 34
0.0
 50
0.0
100
AcDbRotatedDimension
  0
LWPOLYLINE
  5
62
330
17
100
AcDbEntity
  8
BAR-GAL
 62
7
370
13
100
AcDbPolyline
 90
6
 70
0
 43
15.0
 10
991470.2127692892
 20
62467.34729427211
 10
991470.2127692892
 20
62458.04321144958
 10
991089.4331205083
 20
62458.04321144958
 10
991089.4331205083
 20
62642.71116321035
 10
991470.2127692892
 20
62642.71116321035
 10
991470.2127692892
 20
62642.0743771698
  0
LWPOLYLINE
  5
63
330
17
100
AcDbEntity
  8
BAR-GAL
 62
7
370
13
100
AcDbPolyline
 90
2
 70
0
 43
15.0
 10
991089.4331205083
 20
61858.19076124732
 10
991089.4331205083
 20
61856.9171891662
  0
LWPOLYLINE
  5
64
330
17
100
AcDbEntity
  8
BAR-GAL
 62
7
370
13
100
AcDbPolyline
 90
4
 70
1
 43
5.0
 10
991199.5917813969
 20
62129.46161452349
 10
991260.0835316373
 20
62129.46161452349
 10
991260.0835316373
 20
61967.08117418213
 10
991199.5917813969
 20
61967.08117418213
  0
DIMENSION
  5
65
330
17
100
AcDbEntity
  8
BAR-GAL
 62
7
370
13
100
AcDbDimension
280
0
  2
*D4
  3
ISO-25
 10
989969.4281310803
 20
61542.77258109851
 30
0.0
 11
989944.1109414484
 21
61862.7725810982
 31
0.0
 70
32
 71
5
 42
639.9999999999709
 73
0
 74
0
 75
0
100
AcDbAlignedDimension
 13
990259.1489648285
 23
62182.77258109845
 33
0.0
 14
990259.1489648285
 24
61542.77258109847
 34
0.0
 50
90.0
100
AcDbRotatedDimension
  0
LINE
  5
72
330
17
100
AcDbEntity
  8
BAR-GAL
 62
7
370
13
100
AcDbLine
 10
991199.5917813969
 20
62129.46161452349
 30
0.0
 11
991199.5917813969
 21
62246.90381806661
 31
0.0
  0
LINE
  5
73
330
17
100
AcDbEntity
  8
BAR-GAL
 62
7
370
13
100
AcDbLine
 10
991229.591781397
 20
62129.46161452349
 30
0.0
 11
991229.591781397
 21
62246.90381806661
 31
0.0
  0
LINE
  5
74
330
17
100
AcDbEntity
  8
BAR-GAL
 62
7
370
13
100
AcDbLine
 10
991259.591781397
 20
62129.46161452349
 30
0.0
 11
991259.591781397
 21
62246.90381806661
 31
0.0
  0
LINE
  5
75
330
17
100
AcDbEntity
  8
BAR-GAL
 62
7
370
13
100
AcDbLine
 10
991199.5917813969
 20
62122.89812527363
 30
0.0
 11
991090.4174067285
 21
62122.89812527363
 31
0.0
  0
LINE
  5
76
330
17
100
AcDbEntity
  8
BAR-GAL
 62
7
370
13
100
AcDbLine
 10
991199.5917813969
 20
62092.89812527363
 30
0.0
 11
991090.4174067285
 21
62092.89812527363
 31
0.0
  0
LINE
  5
77
330
17
100
AcDbEntity
  8
BAR-GAL
 62
7
370
13
100
AcDbLine
 10
991199.5917813969
 20
62062.89812527363
 30
0.0
 11
991090.4174067285
 21
62062.89812527363
 31
0.0
  0
LINE
  5
78
330
17
100
AcDbEntity
  8
BAR-GAL
 62
7
370
13
100
AcDbLine
 10
991199.5917813969
 20
62032.89812527363
 30
0.0
 11
991090.4174067285
 21
62032.89812527363
 31
0.0
  0
LINE
  5
79
330
17
100
AcDbEntity
  8
BAR-GAL
 62
7
370
13
100
AcDbLine
 10
991199.5917813969
 20
62002.89812527363
 30
0.0
 11
991090.4174067285
 21
62002.89812527363
 31
0.0
  0
LINE
  5
7A
330
17
100
AcDbEntity
  8
BAR-GAL
 62
7
370
13
100
AcDbLine
 10
991199.5917813969
 20
61972.89812527364
 30
0.0
 11
991090.4174067285
 21
61972.89812527364
 31
0.0
  0
LINE
  5
7B
330
17
100
AcDbEntity
  8
BAR-GAL
 62
7
370
13
100
AcDbLine
 10
991199.5917813969
 20
61849.638970639
 30
0.0
 11
991199.5917813969
 21
61967.08117418213
 31
0.0
  0
LINE
  5
7C
330
17
100
AcDbEntity
  8
BAR-GAL
 62
7
370
13
100
AcDbLine
 10
991229.591781397
 20
61849.638970639
 30
0.0
 11
991229.591781397
 21
61967.08117418213
 31
0.0
  0
LINE
  5
7D
330
17
100
AcDbEntity
  8
BAR-GAL
 62
7
370
13
100
AcDbLine
 10
991259.591781397
 20
61849.638970639
 30
0.0
 11
991259.591781397
 21
61967.08117418213
 31
0.0
  0
LINE
  5
7E
330
17
100
AcDbEntity
  8
BAR-GAL
 62
7
370
13
100
AcDbLine
 10
991370.2421925259
 20
62122.89812527363
 30
0.0
 11
991261.0678178575
 21
62122.89812527363
 31
0.0
  0
LINE
  5
7F
330
17
100
AcDbEntity
  8
BAR-GAL
 62
7
370
13
100
AcDbLine
 10
991370.2421925259
 20
62092.89812527363
 30
0.0
 11
991261.0678178575
 21
62092.89812527363
 31
0.0
  0
LINE
  5
80
330
17
100
AcDbEntity
  8
BAR-GAL
 62
7
370
13
100
AcDbLine
 10
991370.2421925259
 20
62062.89812527363
 30
0.0
 11
991261.0678178575
 21
62062.89812527363
 31
0.0
  0
LINE
  5
81
330
17
100
AcDbEntity
  8
BAR-GAL
 62
7
370
13
100
AcDbLine
 10
991370.2421925259
 20
62032.89812527363
 30
0.0
 11
991261.0678178575
 21
62032.89812527363
 31
0.0
  0
LINE
  5
82
330
17
100
AcDbEntity
  8
BAR-GAL
 62
7
370
13
100
AcDbLine
 10
991370.2421925259
 20
62002.89812527363
 30
0.0
 11
991261.0678178575
 21
62002.89812527363
 31
0.0
  0
LINE
  5
83
330
17
100
AcDbEntity
  8
BAR-GAL
 62
7
370
13
100
AcDbLine
 10
991370.2421925259
 20
61972.89812527364
 30
0.0
 11
991261.0678178575
 21
61972.89812527364
 31
0.0
  0
LWPOLYLINE
  5
84
330
17
100
AcDbEntity
  8
BAR-GAL
 62
7
370
13
100
AcDbPolyline
 90
2
 70
0
 43
5.0
 10
991535.8836294542
 20
63112.34100660948
 10
991537.3410008267
 20
62642.07437716983
  0
DIMENSION
  5
85
330
17
100
AcDbEntity
  8
BAR-GAL
 62
7
370
13
100
AcDbDimension
280
0
  2
*D5
  3
ISO-25
 10
991090.4331205083
 20
61732.82474833836
 30
0.0
 11
991230.3068114709
 21
61758.14193797001
 31
0.0
 70
32
 71
5
 42
279.7473819255829
 73
0
 74
0
 75
0
100
AcDbAlignedDimension
 13
991370.1805024338
 23
61803.42730024989
 33
0.0
 14
991090.4331205083
 24
61809.08996153381
 34
0.0
 50
0.0
100
AcDbRotatedDimension
  0
LWPOLYLINE
  5
92
330
17
100
AcDbEntity
  8
BAR-GAL
 62
7
370
13
100
AcDbPolyline
 90
4
 70
1
 43
15.0
 10
991089.4331205083
 20
61858.19076124732
 10
991371.1805024339
 20
61858.19076124732
 10
991371.1805024339
 20
61803.42730024989
 10
991089.4331205083
 20
61803.42730024989
  0
DIMENSION
  5
93
330
17
100
AcDbEntity
  8
BAR-GAL
 62
7
370
13
100
AcDbDimension
280
0
  2
*D6
  3
ISO-25
 10
991536.371984394
 20
61732.82474833836
 30
0.0
 11
991453.9568151294
 21
61758.14193797001
 31
0.0
 70
32
 71
5
 42
164.8303385291947
 73
0
 74
0
 75
0
100
AcDbAlignedDimension
 13
991371.5416458648
 23
61806.97659433547
 33
0.0
 14
991536.371984394
 24
61800.9246456925
 34
0.0
 50
0.0
100
AcDbRotatedDimension
  0
DIMENSION
  5
A0
330
17
100
AcDbEntity
  8
BAR-GAL
 62
7
370
13
100
AcDbDimension
280
0
  2
*D7
  3
ISO-25
 10
991315.1778805051
 20
62953.39202458529
 30
0.0
 11
991425.177880505
 21
62978.70921421694
 31
0.0
 70
32
 71
5
 42
220.0
 73
0
 74
0
 75
0
100
AcDbAlignedDimension
 13
991535.1778805051
 23
62887.94604569582
 33
0.0
 14
991315.1778805051
 24
62887.94604569582
 34
0.0
 50
0.0
100
AcDbRotatedDimension
  0
DIMENSION
  5
AD
330
17
100
AcDbEntity
  8
BAR-GAL
 62
7
370
13
100
AcDbDimension
280
0
  2
*D8
  3
ISO-25
 10
991055.4215903628
 20
62953.39202458529
 30
0.0
 11
991185.4215903627
 21
62978.70921421694
 31
0.0
 70
32
 71
5
 42
260.0
 73
0
 74
0
 75
0
100
AcDbAlignedDimension
 13
991315.4215903627
 23
62917.87498960185
 33
0.0
 14
991055.4215903628
 24
62917.87498960185
 34
0.0
 50
0.0
100
AcDbRotatedDimension
  0
LWPOLYLINE
  5
BA
330
17
100
AcDbEntity
  8
BAR-GAL
 62
7
370
13
100
AcDbPolyline
 90
7
 70
0
 43
15.0
 10
991314.9295522103
 20
62640.49063290968
 10
991314.9295522103
 20
62910.49063290968
 10
991054.9295522101
 20
62910.49063290968
 10
991054.9295522101
 20
62830.49063290968
 10
990339.9295522104
 20
62830.49063290968
 10
990339.9295522104
 20
62380.49063290968
 10
991093.2521043591
 20
62382.59007129501
  0
LWPOLYLINE
  5
BB
330
17
100
AcDbEntity
  8
BAR-GAL
 62
7
370
13
100
AcDbPolyline
 90
2
 70
0
 43
5.0
 10
990627.7855529978
 20
62182.77258109845
 10
990627.7855529978
 20
62381.29286023684
  0
DIMENSION
  5
BC
330
17
100
AcDbEntity
  8
BAR-GAL
 62
7
370
13
100
AcDbDimension
280
0
  2
*D9
  3
ISO-25
 10
991007.303652934
 20
62911.50712919633
 30
0.0
 11
990981.986463302
 21
62871.49888105273
 31
0.0
 70
32
 71
5
 42
80.01649628662562
 73
0
 74
0
 75
0
100
AcDbAlignedDimension
 13
991054.496648682
 23
62831.49063290967
 33
0.0
 14
991054.496648682
 24
62911.5071291963
 34
0.0
 50
90.0
100
AcDbRotatedDimension
  0
DIMENSION
  5
C9
102
{ACAD_XDICTIONARY
360
CA
102
}
330
17
100
AcDbEntity
  8
BAR-GAL
 62
7
370
13
100
AcDbDimension
280
0
  2
*D10
  3
ISO-25
 10
991379.2418340596
 20
62642.60257547559
 30
0.0
 11
991353.9246444278
 21
62777.54660419236
 31
0.0
 70
32
 71
5
 42
269.8880574341165
 73
0
 74
0
 75
0
100
AcDbAlignedDimension
 13
991314.9295522103
 23
62912.49063290967
 33
0.0
 14
991314.9295522103
 24
62642.60257547556
 34
0.0
 50
90.0
100
AcDbRotatedDimension
  0
DIMENSION
  5
D7
102
{ACAD_XDICTIONARY
360
D8
102
}
330
17
100
AcDbEntity
  8
BAR-GAL
 62
7
370
13
100
AcDbDimension
280
0
  2
*D11
  3
ISO-25
 10
990339.9295522104
 20
62953.39202458529
 30
0.0
 11
990697.4295522104
 21
62978.70921421694
 31
0.0
 70
32
 71
5
 42
715.0
 73
0
 74
0
 75
0
100
AcDbAlignedDimension
 13
991054.9295522101
 23
62910.49063290968
 33
0.0
 14
990339.9295522104
 24
62828.32104585284
 34
0.0
 50
0.0
100
AcDbRotatedDimension
  0
DIMENSION
  5
E5
102
{ACAD_XDICTIONARY
360
E6
102
}
330
17
100
AcDbEntity
  8
BAR-GAL
 62
7
370
13
100
AcDbDimension
280
0
  2
*D12
  3
ISO-25
 10
990276.3817140016
 20
62830.36172996481
 30
0.0
 11
990251.0645243697
 21
62605.42618143697
 31
0.0
 70
32
 71
5
 42
449.8710970551037
 73
0
 74
0
 75
0
100
AcDbAlignedDimension
 13
990339.9295522104
 23
62380.49063290968
 33
0.0
 14
990337.5102194676
 24
62830.36172996478
 34
0.0
 50
90.0
100
AcDbRotatedDimension
  0
DIMENSION
  5
F3
330
17
100
AcDbEntity
  8
BAR-GAL
 62
7
370
13
100
AcDbDimension
280
0
  2
*D13
  3
ISO-25
 10
990629.7855529977
 20
62301.87245862067
 30
0.0
 11
990484.857552604
 21
62327.18964825232
 31
0.0
 70
32
 71
5
 42
289.8560007873457
 73
0
 74
0
 75
0
100
AcDbAlignedDimension
 13
990339.9295522104
 23
62380.49063290968
 33
0.0
 14
990629.7855529977
 24
62380.49063290968
 34
0.0
 50
0.0
100
AcDbRotatedDimension
  0
DIMENSION
  5
100
330
17
100
AcDbEntity
  8
BAR-GAL
 62
7
370
13
100
AcDbDimension
280
0
  2
*D14
  3
ISO-25
 10
990277.6552246956
 20
62181.56784754829
 30
0.0
 11
990252.3380350638
 21
62281.02924022871
 31
0.0
 70
32
 71
5
 42
198.9227853614138
 73
0
 74
0
 75
0
100
AcDbAlignedDimension
 13
990337.5102194676
 23
62380.49063290968
 33
0.0
 14
990332.4857348072
 24
62181.56784754826
 34
0.0
 50
90.0
100
AcDbRotatedDimension
  0
DIMENSION
  5
10D
330
17
100
AcDbEntity
  8
BAR-GAL
 62
7
370
13
100
AcDbDimension
280
0
  2
*D15
  3
ISO-25
 10
991633.8821336974
 20
62642.07437716983
 30
0.0
 11
991608.5649440656
 21
62877.20769188939
 31
0.0
 70
32
 71
5
 42
470.266629439684
 73
0
 74
0
 75
0
100
AcDbAlignedDimension
 13
991535.8836294542
 23
63112.34100660948
 33
0.0
 14
991535.8836294542
 24
62642.0743771698
 34
0.0
 50
90.0
100
AcDbRotatedDimension
  0
DIMENSION
  5
11A
102
{ACAD_XDICTIONARY
360
11B
102
}
330
17
100
AcDbEntity
  8
BAR-GAL
 62
7
370
13
100
AcDbDimension
280
0
  2
*D16
  3
ISO-25
 10
991633.8821336974
 20
61201.664491926
 30
0.0
 11
991608.5649440656
 21
61921.86943454762
 31
0.0
 70
32
 71
5
 42
1440.409885243833
 73
0
 74
0
 75
0
100
AcDbAlignedDimension
 13
991535.4927842809
 23
62642.0743771698
 33
0.0
 14
991535.4927842809
 24
61201.66449192597
 34
0.0
 50
90.0
100
AcDbRotatedDimension
  0
DIMENSION
  5
128
102
{ACAD_XDICTIONARY
360
129
102
}
330
17
100
AcDbEntity
  8
BAR-GAL
 62
7
370
13
100
AcDbDimension
280
0
  2
*D17
  3
ISO-25
 10
991537.8836294541
 20
63213.12341002931
 30
0.0
 11
990837.834591226
 21
63238.44059966096
 31
0.0
 70
32
 71
5
 42
1400.098076456459
 73
0
 74
0
 75
0
100
AcDbAlignedDimension
 13
990137.7855529977
 23
63112.34100660948
 33
0.0
 14
991537.8836294541
 24
63112.34100660948
 34
0.0
 50
0.0
100
AcDbRotatedDimension
  0
LWPOLYLINE
  5
136
330
17
100
AcDbEntity
  8
BAR-GAL
 62
7
370
13
100
AcDbPolyline
 90
2
 70
0
 43
15.0
 10
991384.9726315866
 20
62456.20511019989
 10
991384.9726315866
 20
62647.24092236622
  0
LWPOLYLINE
  5
137
330
17
100
AcDbEntity
  8
BAR-GAL
 62
7
370
13
100
AcDbPolyline
 90
5
 70
0
 43
5.0
 10
990841.8203898798
 20
62376.62670055158
 10
990841.8203898798
 20
62495.04905867371
 10
990462.9510067829
 20
62496.32263075482
 10
990462.9510067829
 20
62550.44944420195
 10
990341.3307510668
 20
62550.44944420195
  0
LINE
  5
138
330
17
100
AcDbEntity
  8
BAR-GAL
 62
7
370
13
100
AcDbLine
 10
990462.9510067829
 20
62496.32263075482
 30
0.0
 11
990335.8151864988
 21
62496.7499987039
 31
0.0
  0
LINE
  5
139
330
17
100
AcDbEntity
  8
BAR-GAL
 62
7
370
13
100
AcDbLine
 10
990462.5692550167
 20
62380.68258702441
 30
0.0
 11
990483.7703915669
 21
62380.61259767587
 31
0.0
  0
LINE
  5
13A
330
17
100
AcDbEntity
  8
BAR-GAL
 62
7
370
13
100
AcDbLine
 10
990462.9510067829
 20
62496.32263075482
 30
0.0
 11
990462.9510067829
 21
62380.68132678265
 31
0.0
  0
LINE
  5
13B
330
17
100
AcDbEntity
  8
BAR-GAL
 62
7
370
13
100
AcDbLine
 10
990492.951006783
 20
62496.32263075479
 30
0.0
 11
990492.951006783
 21
62380.68132678263
 31
0.0
  0
LINE
  5
13C
330
17
100
AcDbEntity
  8
BAR-GAL
 62
7
370
13
100
AcDbLine
 10
990462.9510067829
 20
62496.32263075482
 30
0.0
 11
990339.9295522104
 21
62496.32263075482
 31
0.0
  0
LINE
  5
13D
330
17
100
AcDbEntity
  8
BAR-GAL
 62
7
370
13
100
AcDbLine
 10
990462.9510067829
 20
62526.32263075482
 30
0.0
 11
990339.9295522104
 21
62526.32263075482
 31
0.0
  0
LWPOLYLINE
  5
13E
330
17
100
AcDbEntity
  8
BAR-GAL
 62
7
370
13
100
AcDbPolyline
 90
3
 70
0
 43
15.0
 10
991537.3410008267
 20
62642.07437716983
 10
991538.9927532475
 20
62109.08459971893
 10
991369.906991978
 20
62109.08459971601
  0
LINE
  5
13F
330
17
100
AcDbEntity
  8
BAR-GAL
 62
7
370
13
100
AcDbLine
 10
990522.951006783
 20
62496.32263075477
 30
0.0
 11
990522.951006783
 21
62380.6813267826
 31
0.0
  0
LINE
  5
140
330
17
100
AcDbEntity
  8
BAR-GAL
 62
7
370
13
100
AcDbLine
 10
990552.9510067829
 20
62496.32263075474
 30
0.0
 11
990552.9510067829
 21
62380.68132678256
 31
0.0
  0
LINE
  5
141
330
17
100
AcDbEntity
  8
BAR-GAL
 62
7
370
13
100
AcDbLine
 10
990582.951006783
 20
62496.3226307547
 30
0.0
 11
990582.951006783
 21
62380.68132678254
 31
0.0
  0
LINE
  5
142
330
17
100
AcDbEntity
  8
BAR-GAL
 62
7
370
13
100
AcDbLine
 10
990612.9510067829
 20
62496.32263075468
 30
0.0
 11
990612.9510067829
 21
62380.68132678251
 31
0.0
  0
LINE
  5
143
330
17
100
AcDbEntity
  8
BAR-GAL
 62
7
370
13
100
AcDbLine
 10
990642.951006783
 20
62496.32263075465
 30
0.0
 11
990642.951006783
 21
62380.68132678249
 31
0.0
  0
LINE
  5
144
330
17
100
AcDbEntity
  8
BAR-GAL
 62
7
370
13
100
AcDbLine
 10
990672.951006783
 20
62496.32263075462
 30
0.0
 11
990672.951006783
 21
62380.68132678245
 31
0.0
  0
LINE
  5
145
330
17
100
AcDbEntity
  8
BAR-GAL
 62
7
370
13
100
AcDbLine
 10
990702.9510067829
 20
62496.32263075459
 30
0.0
 11
990702.9510067829
 21
62380.68132678242
 31
0.0
  0
LINE
  5
146
330
17
100
AcDbEntity
  8
BAR-GAL
 62
7
370
13
100
AcDbLine
 10
990732.951006783
 20
62496.32263075456
 30
0.0
 11
990732.951006783
 21
62380.6813267824
 31
0.0
  0
LINE
  5
147
330
17
100
AcDbEntity
  8
BAR-GAL
 62
7
370
13
100
AcDbLine
 10
990762.9510067829
 20
62496.32263075453
 30
0.0
 11
990762.9510067829
 21
62380.68132678237
 31
0.0
  0
LINE
  5
148
330
17
100
AcDbEntity
  8
BAR-GAL
 62
7
370
13
100
AcDbLine
 10
990792.951006783
 20
62496.3226307545
 30
0.0
 11
990792.9510067829
 21
62380.68132678233
 31
0.0
  0
LWPOLYLINE
  5
149
330
17
100
AcDbEntity
  8
BAR-GAL
 62
7
370
13
100
AcDbPolyline
 90
4
 70
0
 10
990402.1408789248
 20
62550.44944420195
 10
990402.1408789248
 20
62432.78674746053
 10
990841.8203898798
 20
62432.78674746053
 10
990841.8203898798
 20
62430.16026626858
  0
LINE
  5
14A
330
17
100
AcDbEntity
  8
BAR-GAL
 62
7
370
13
100
AcDbLine
 10
990339.9295522104
 20
62526.32263075482
 30
0.0
 11
990402.1408789248
 21
62550.44944420195
 31
0.0
  0
LINE
  5
14B
330
17
100
AcDbEntity
  8
BAR-GAL
 62
7
370
13
100
AcDbLine
 10
990402.1408789248
 20
62550.44944420195
 30
0.0
 11
990462.9510067829
 21
62526.32263075482
 31
0.0
  0
LWPOLYLINE
  5
14C
330
17
100
AcDbEntity
  8
BAR-GAL
 62
8
370
13
100
AcDbPolyline
 90
4
 70
1
 10
991371.2421925261
 20
61858.19076124732
 10
991090.4331205083
 20
61857.55397520676
 10
991090.4331205083
 20
61803.42730024989
 10
991108.5680075103
 20
61831.34004328072
  0
LWPOLYLINE
  5
14D
330
17
100
AcDbEntity
  8
BAR-GAL
 62
1
370
13
100
AcDbPolyline
 90
12
 70
1
 10
990339.9295522104
 20
62830.49063290968
 10
990339.9295522104
 20
62550.44944420195
 10
990462.9510067829
 20
62550.44944420195
 10
990462.9510067829
 20
62496.32263075482
 10
990841.8203898798
 20
62495.04905867371
 10
990841.8203898798
 20
62381.88935499339
 10
991089.4331205083
 20
62382.57942814984
 10
991089.4331205083
 20
62642.71116321035
 10
991314.9295522103
 20
62642.71116321035
 10
991314.9295522103
 20
62910.49063290967
 10
991054.9295522101
 20
62910.49063290968
 10
991054.9295522101
 20
62830.49063290968
  0
LWPOLYLINE
  5
14E
330
17
100
AcDbEntity
  8
BAR-GAL
 62
8
370
13
100
AcDbPolyline
 90
4
 70
1
 10
991535.4927842809
 20
62642.0743771698
 10
991383.9726315865
 20
62646.60413632566
 10
991383.9726315865
 20
62463.20975664599
 10
991417.2446936641
 20
62608.87540633008
  0
TEXT
  5
14F
330
17
100
AcDbEntity
  8
0
100
AcDbText
 10
991151.1918493472
 20
62566.33920420894
 30
0.0
 40
59.201694284898
  1
מאגר 
100
AcDbText
  0
TEXT
  5
150
330
17
100
AcDbEntity
  8
0
100
AcDbText
 10
991153.6213841166
 20
62496.85517743639
 30
0.0
 40
59.201694284898
  1
 מים
100
AcDbText
  0
LWPOLYLINE
  5
151
330
17
100
AcDbEntity
  8
BAR-GAL
 62
3
370
13
100
AcDbPolyline
 90
19
 70
1
 10
990137.785552998
 20
63112.34100660948
 10
990137.7855529977
 20
62182.77258109845
 10
990157.7855529977
 20
62182.77258109845
 10
990457.3983916673
 20
62182.77258109845
 10
990627.7855529978
 20
62182.77258109844
 10
990627.7855529975
 20
62381.29286023684
 10
990339.9295522104
 20
62380.49063290967
 10
990339.9295522104
 20
62830.49063290968
 10
991054.9295522101
 20
62830.49063290968
 10
991054.9295522101
 20
62910.49063290968
 10
991314.9295522103
 20
62910.49063290967
 10
991314.9295522103
 20
62642.71116321035
 10
991383.9726315865
 20
62642.71116321035
 10
991383.4726315865
 20
62642.39277019011
 10
991384.4726315865
 20
62643.0295562306
 10
991383.9726315865
 20
62642.71116321035
 10
991537.3411720741
 20
62642.01911883366
 10
991537.3410008267
 20
62642.07437716983
 10
991535.8836294542
 20
63112.34100660948
  0
LWPOLYLINE
  5
152
330
17
100
AcDbEntity
  8
BAR-GAL
 62
3
370
13
100
AcDbPolyline
 90
10
 70
1
 10
991537.3411720741
 20
62458.01558228149
 10
991535.4927842809
 20
62458.07084061764
 10
991535.4927842809
 20
62458.04321144957
 10
991470.2127692892
 20
62458.04321144958
 10
991089.4331205083
 20
62458.04321144958
 10
991089.4331205083
 20
62382.57942814984
 10
991089.4331205081
 20
62247.90381806663
 10
991370.2421925259
 20
62247.90381806661
 10
991370.2421925259
 20
62109.08459971602
 10
991538.9927532476
 20
62109.08459971892
  0
DIMENSION
  5
153
102
{ACAD_XDICTIONARY
360
154
102
}
330
17
100
AcDbEntity
  8
BAR-GAL
 62
7
370
13
100
AcDbDimension
280
0
  2
*D18
  3
ISO-25
 10
991384.9726315866
 20
62407.56535611946
 30
0.0
 11
991237.2028760473
 21
62432.88254575111
 31
0.0
 70
32
 71
5
 42
295.5395110782701
 73
0
 74
0
 75
0
100
AcDbAlignedDimension
 13
991089.4331205083
 23
62458.04321144958
 33
0.0
 14
991384.9726315866
 24
62456.20511019989
 34
0.0
 50
0.0
100
AcDbRotatedDimension
  0
DIMENSION
  5
161
102
{ACAD_XDICTIONARY
360
162
102
}
330
17
100
AcDbEntity
  8
BAR-GAL
 62
7
370
13
100
AcDbDimension
280
0
  2
*D19
  3
ISO-25
 10
991045.1559481629
 20
62458.0432114496
 30
0.0
 11
991019.8387585309
 21
62550.37718732971
 31
0.0
 70
32
 71
5
 42
184.6679517607772
 73
0
 74
0
 75
0
100
AcDbAlignedDimension
 13
991089.4331205083
 23
62642.71116321035
 33
0.0
 14
991089.4331205083
 24
62458.04321144958
 34
0.0
 50
90.0
100
AcDbRotatedDimension
  0
TEXT
  5
16F
330
17
100
AcDbEntity
  8
0
100
AcDbText
 10
990595.722016575
 20
62623.93790681664
 30
0.0
 40
59.201694284898
  1
21 דירה
100
AcDbText
  0
ENDSEC
  0
SECTION
  2
OBJECTS
  0
DICTIONARY
  5
A
330
0
100
AcDbDictionary
281
1
  3
ACAD_COLOR
350
B
  3
ACAD_GROUP
350
C
  3
ACAD_LAYOUT
350
D
  3
ACAD_MATERIAL
350
E
  3
ACAD_MLEADERSTYLE
350
F
  3
ACAD_MLINESTYLE
350
10
  3
ACAD_PLOTSETTINGS
350
11
  3
ACAD_PLOTSTYLENAME
350
12
  3
ACAD_SCALELIST
350
14
  3
ACAD_TABLESTYLE
350
15
  3
ACAD_VISUALSTYLE
350
16
  3
EZDXF_META
350
2D
  0
DICTIONARY
  5
B
330
A
100
AcDbDictionary
281
1
  0
DICTIONARY
  5
C
330
A
100
AcDbDictionary
281
1
  0
DICTIONARY
  5
D
330
A
100
AcDbDictionary
281
1
  3
Model
350
1A
  3
Layout1
350
1E
  0
DICTIONARY
  5
E
330
A
100
AcDbDictionary
281
1
  3
ByBlock
350
1F
  3
ByLayer
350
20
  3
Global
350
21
  0
DICTIONARY
  5
F
330
A
100
AcDbDictionary
281
1
  3
Standard
350
2C
  0
DICTIONARY
  5
10
330
A
100
AcDbDictionary
281
1
  3
Standard
350
22
  0
DICTIONARY
  5
11
330
A
100
AcDbDictionary
281
1
  0
ACDBDICTIONARYWDFLT
  5
12
330
A
100
AcDbDictionary
281
1
  3
Normal
350
13
100
AcDbDictionaryWithDefault
340
13
  0
ACDBPLACEHOLDER
  5
13
330
12
  0
DICTIONARY
  5
14
330
A
100
AcDbDictionary
281
1
  0
DICTIONARY
  5
15
330
A
100
AcDbDictionary
281
1
  0
DICTIONARY
  5
16
330
A
100
AcDbDictionary
281
1
  0
LAYOUT
  5
1A
330
D
100
AcDbPlotSettings
  1

  4
A3
  6

 40
7.5
 41
20.0
 42
7.5
 43
20.0
 44
420.0
 45
297.0
 46
0.0
 47
0.0
 48
0.0
 49
0.0
140
0.0
141
0.0
142
1.0
143
1.0
 70
1024
 72
1
 73
0
 74
5
  7

 75
16
 76
0
 77
2
 78
300
147
1.0
148
0.0
149
0.0
100
AcDbLayout
  1
Model
 70
1
 71
0
 10
0.0
 20
0.0
 11
420.0
 21
297.0
 12
0.0
 22
0.0
 32
0.0
 14
1e+20
 24
1e+20
 34
1e+20
 15
-1e+20
 25
-1e+20
 35
-1e+20
146
0.0
 13
0.0
 23
0.0
 33
0.0
 16
1.0
 26
0.0
 36
0.0
 17
0.0
 27
1.0
 37
0.0
 76
1
330
17
  0
LAYOUT
  5
1E
330
D
100
AcDbPlotSettings
  1

  4
A3
  6

 40
7.5
 41
20.0
 42
7.5
 43
20.0
 44
420.0
 45
297.0
 46
0.0
 47
0.0
 48
0.0
 49
0.0
140
0.0
141
0.0
142
1.0
143
1.0
 70
0
 72
1
 73
0
 74
5
  7

 75
16
 76
0
 77
2
 78
300
147
1.0
148
0.0
149
0.0
100
AcDbLayout
  1
Layout1
 70
1
 71
1
 10
0.0
 20
0.0
 11
420.0
 21
297.0
 12
0.0
 22
0.0
 32
0.0
 14
1e+20
 24
1e+20
 34
1e+20
 15
-1e+20
 25
-1e+20
 35
-1e+20
146
0.0
 13
0.0
 23
0.0
 33
0.0
 16
1.0
 26
0.0
 36
0.0
 17
0.0
 27
1.0
 37
0.0
 76
1
330
1B
  0
MATERIAL
  5
1F
102
{ACAD_REACTORS
330
E
102
}
330
E
100
AcDbMaterial
  1
ByBlock
  2

 70
0
 40
1.0
 71
1
 41
1.0
 91
-1023410177
 42
1.0
 72
1
  3

 73
1
 74
1
 75
1
 44
0.5
 73
0
 45
1.0
 46
1.0
 77
1
  4

 78
1
 79
1
170
1
 48
1.0
171
1
  6

172
1
173
1
174
1
140
1.0
141
1.0
175
1
  7

176
1
177
1
178
1
143
1.0
179
1
  8

270
1
271
1
272
1
145
1.0
146
1.0
273
1
  9

274
1
275
1
276
1
 42
1.0
 72
1
  3

 73
1
 74
1
 75
1
 94
63
  0
MATERIAL
  5
20
102
{ACAD_REACTORS
330
E
102
}
330
E
100
AcDbMaterial
  1
ByLayer
  2

 70
0
 40
1.0
 71
1
 41
1.0
 91
-1023410177
 42
1.0
 72
1
  3

 73
1
 74
1
 75
1
 44
0.5
 73
0
 45
1.0
 46
1.0
 77
1
  4

 78
1
 79
1
170
1
 48
1.0
171
1
  6

172
1
173
1
174
1
140
1.0
141
1.0
175
1
  7

176
1
177
1
178
1
143
1.0
179
1
  8

270
1
271
1
272
1
145
1.0
146
1.0
273
1
  9

274
1
275
1
276
1
 42
1.0
 72
1
  3

 73
1
 74
1
 75
1
 94
63
  0
MATERIAL
  5
21
102
{ACAD_REACTORS
330
E
102
}
330
E
100
AcDbMaterial
  1
Global
  2

 70
0
 40
1.0
 71
1
 41
1.0
 91
-1023410177
 42
1.0
 72
1
  3

 73
1
 74
1
 75
1
 44
0.5
 73
0
 45
1.0
 46
1.0
 77
1
  4

 78
1
 79
1
170
1
 48
1.0
171
1
  6

172
1
173
1
174
1
140
1.0
141
1.0
175
1
  7

176
1
177
1
178
1
143
1.0
179
1
  8

270
1
271
1
272
1
145
1.0
146
1.0
273
1
  9

274
1
275
1
276
1
 42
1.0
 72
1
  3

 73
1
 74
1
 75
1
 94
63
  0
MLINESTYLE
  5
22
102
{ACAD_REACTORS
330
10
102
}
330
10
100
AcDbMlineStyle
  2
Standard
 70
0
  3

 62
256
 51
90.0
 52
90.0
 71
2
 49
0.5
 62
256
  6
BYLAYER
 49
-0.5
 62
256
  6
BYLAYER
  0
MLEADERSTYLE
  5
2C
102
{ACAD_REACTORS
330
F
102
}
330
F
100
AcDbMLeaderStyle
179
2
170
2
171
1
172
0
 90
2
 40
0.0
 41
0.0
173
1
 91
-1056964608
 92
-2
290
1
 42
2.0
291
1
 43
8.0
  3
Standard
 44
4.0
300

342
29
174
1
175
1
176
0
178
1
 93
-1056964608
 45
4.0
292
0
297
0
 46
4.0
 94
-1056964608
 47
1.0
 49
1.0
140
1.0
294
1
141
0.0
177
0
142
1.0
295
0
296
0
143
3.75
271
0
272
9
273
9
  0
DICTIONARY
  5
2D
330
A
100
AcDbDictionary
280
1
281
1
  3
CREATED_BY_EZDXF
350
2E
  3
WRITTEN_BY_EZDXF
350
172
  0
DICTIONARYVAR
  5
2E
330
2D
100
DictionaryVariables
280
0
  1
1.4.3 @ 2026-05-05T23:16:50.764646+00:00
  0
DICTIONARY
  5
48
330
47
100
AcDbDictionary
280
1
281
1
  0
DICTIONARY
  5
CA
330
C9
100
AcDbDictionary
280
1
281
1
  0
DICTIONARY
  5
D8
330
D7
100
AcDbDictionary
280
1
281
1
  0
DICTIONARY
  5
E6
330
E5
100
AcDbDictionary
280
1
281
1
  0
DICTIONARY
  5
11B
330
11A
100
AcDbDictionary
280
1
281
1
  0
DICTIONARY
  5
129
330
128
100
AcDbDictionary
280
1
281
1
  0
DICTIONARY
  5
154
330
153
100
AcDbDictionary
280
1
281
1
  0
DICTIONARY
  5
162
330
161
100
AcDbDictionary
280
1
281
1
  0
DICTIONARYVAR
  5
172
330
2D
100
DictionaryVariables
280
0
  1
1.4.3 @ 2026-05-05T23:16:50.781669+00:00
  0
ENDSEC
  0
EOF
