  0
SECTION
  2
HEADER
  9
$ACADVER
  1
AC1032
  9
$ACADMAINTVER
 90
4
  9
$DWGCODEPAGE
  3
ANSI_1252
  9
$LASTSAVEDBY
  1
ezdxf
  9
$REQUIREDVERSIONS
160
0
  9
$INSBASE
 10
0.0
 20
0.0
 30
0.0
  9
$EXTMIN
 10
1e+20
 20
1e+20
 30
1e+20
  9
$EXTMAX
 10
-1e+20
 20
-1e+20
 30
-1e+20
  9
$LIMMIN
 10
0.0
 20
0.0
  9
$LIMMAX
 10
420.0
 20
297.0
  9
$ORTHOMODE
 70
0
  9
$REGENMODE
 70
1
  9
$FILLMODE
 70
1
  9
$QTEXTMODE
 70
0
  9
$MIRRTEXT
 70
1
  9
$LTSCALE
 40
1.0
  9
$ATTMODE
 70
1
  9
$TEXTSIZE
 40
2.5
  9
$TRACEWID
 40
1.0
  9
$TEXTSTYLE
  7
Standard
  9
$CLAYER
  8
0
  9
$CELTYPE
  6
ByLayer
  9
$CECOLOR
 62
256
  9
$CELTSCALE
 40
1.0
  9
$DISPSILH
 70
0
  9
$DIMSCALE
 40
1.0
  9
$DIMASZ
 40
2.5
  9
$DIMEXO
 40
0.625
  9
$DIMDLI
 40
3.75
  9
$DIMRND
 40
0.0
  9
$DIMDLE
 40
0.0
  9
$DIMEXE
 40
1.25
  9
$DIMTP
 40
0.0
  9
$DIMTM
 40
0.0
  9
$DIMTXT
 40
2.5
  9
$DIMCEN
 40
2.5
  9
$DIMTSZ
 40
0.0
  9
$DIMTOL
 70
0
  9
$DIMLIM
 70
0
  9
$DIMTIH
 70
0
  9
$DIMTOH
 70
0
  9
$DIMSE1
 70
0
  9
$DIMSE2
 70
0
  9
$DIMTAD
 70
1
  9
$DIMZIN
 70
8
  9
$DIMBLK
  1

  9
$DIMASO
 70
1
  9
$DIMSHO
 70
1
  9
$DIMPOST
  1

  9
$DIMAPOST
  1

  9
$DIMALT
 70
0
  9
$DIMALTD
 70
3
  9
$DIMALTF
 40
0.03937007874
  9
$DIMLFAC
 40
1.0
  9
$DIMTOFL
 70
1
  9
$DIMTVP
 40
0.0
  9
$DIMTIX
 70
0
  9
$DIMSOXD
 70
0
  9
$DIMSAH
 70
0
  9
$DIMBLK1
  1

  9
$DIMBLK2
  1

  9
$DIMSTYLE
  2
ISO-25
  9
$DIMCLRD
 70
0
  9
$DIMCLRE
 70
0
  9
$DIMCLRT
 70
0
  9
$DIMTFAC
 40
1.0
  9
$DIMGAP
 40
0.625
  9
$DIMJUST
 70
0
  9
$DIMSD1
 70
0
  9
$DIMSD2
 70
0
  9
$DIMTOLJ
 70
0
  9
$DIMTZIN
 70
8
  9
$DIMALTZ
 70
0
  9
$DIMALTTZ
 70
0
  9
$DIMUPT
 70
0
  9
$DIMDEC
 70
2
  9
$DIMTDEC
 70
2
  9
$DIMALTU
 70
2
  9
$DIMALTTD
 70
3
  9
$DIMTXSTY
  7
Standard
  9
$DIMAUNIT
 70
0
  9
$DIMADEC
 70
0
  9
$DIMALTRND
 40
0.0
  9
$DIMAZIN
 70
0
  9
$DIMDSEP
 70
44
  9
$DIMATFIT
 70
3
  9
$DIMFRAC
 70
0
  9
$DIMLDRBLK
  1

  9
$DIMLUNIT
 70
2
  9
$DIMLWD
 70
-2
  9
$DIMLWE
 70
-2
  9
$DIMTMOVE
 70
0
  9
$DIMFXL
 40
1.0
  9
$DIMFXLON
 70
0
  9
$DIMJOGANG
 40
0.785398163397
  9
$DIMTFILL
 70
0
  9
$DIMTFILLCLR
 70
0
  9
$DIMARCSYM
 70
0
  9
$DIMLTYPE
  6

  9
$DIMLTEX1
  6

  9
$DIMLTEX2
  6

  9
$DIMTXTDIRECTION
 70
0
  9
$LUNITS
 70
2
  9
$LUPREC
 70
4
  9
$SKETCHINC
 40
1.0
  9
$FILLETRAD
 40
10.0
  9
$AUNITS
 70
0
  9
$AUPREC
 70
2
  9
$MENU
  1
.
  9
$ELEVATION
 40
0.0
  9
$PELEVATION
 40
0.0
  9
$THICKNESS
 40
0.0
  9
$LIMCHECK
 70
0
  9
$CHAMFERA
 40
0.0
  9
$CHAMFERB
 40
0.0
  9
$CHAMFERC
 40
0.0
  9
$CHAMFERD
 40
0.0
  9
$SKPOLY
 70
0
  9
$TDCREATE
 40
2461167.095023148
  9
$TDUCREATE
 40
2458532.153996898
  9
$TDUPDATE
 40
2461167.095023148
  9
$TDUUPDATE
 40
2458532.1544311
  9
$TDINDWG
 40
0.0
  9
$TDUSRTIMER
 40
0.0
  9
$USRTIMER
 70
1
  9
$ANGBASE
 50
0.0
  9
$ANGDIR
 70
0
  9
$PDMODE
 70
0
  9
$PDSIZE
 40
0.0
  9
$PLINEWID
 40
0.0
  9
$SPLFRAME
 70
0
  9
$SPLINETYPE
 70
6
  9
$SPLINESEGS
 70
8
  9
$HANDSEED
  5
1A3
  9
$SURFTAB1
 70
6
  9
$SURFTAB2
 70
6
  9
$SURFTYPE
 70
6
  9
$SURFU
 70
6
  9
$SURFV
 70
6
  9
$UCSBASE
  2

  9
$UCSNAME
  2

  9
$UCSORG
 10
0.0
 20
0.0
 30
0.0
  9
$UCSXDIR
 10
1.0
 20
0.0
 30
0.0
  9
$UCSYDIR
 10
0.0
 20
1.0
 30
0.0
  9
$UCSORTHOREF
  2

  9
$UCSORTHOVIEW
 70
0
  9
$UCSORGTOP
 10
0.0
 20
0.0
 30
0.0
  9
$UCSORGBOTTOM
 10
0.0
 20
0.0
 30
0.0
  9
$UCSORGLEFT
 10
0.0
 20
0.0
 30
0.0
  9
$UCSORGRIGHT
 10
0.0
 20
0.0
 30
0.0
  9
$UCSORGFRONT
 10
0.0
 20
0.0
 30
0.0
  9
$UCSORGBACK
 10
0.0
 20
0.0
 30
0.0
  9
$PUCSBASE
  2

  9
$PUCSNAME
  2

  9
$PUCSORG
 10
0.0
 20
0.0
 30
0.0
  9
$PUCSXDIR
 10
1.0
 20
0.0
 30
0.0
  9
$PUCSYDIR
 10
0.0
 20
1.0
 30
0.0
  9
$PUCSORTHOREF
  2

  9
$PUCSORTHOVIEW
 70
0
  9
$PUCSORGTOP
 10
0.0
 20
0.0
 30
0.0
  9
$PUCSORGBOTTOM
 10
0.0
 20
0.0
 30
0.0
  9
$PUCSORGLEFT
 10
0.0
 20
0.0
 30
0.0
  9
$PUCSORGRIGHT
 10
0.0
 20
0.0
 30
0.0
  9
$PUCSORGFRONT
 10
0.0
 20
0.0
 30
0.0
  9
$PUCSORGBACK
 10
0.0
 20
0.0
 30
0.0
  9
$USERI1
 70
0
  9
$USERI2
 70
0
  9
$USERI3
 70
0
  9
$USERI4
 70
0
  9
$USERI5
 70
0
  9
$USERR1
 40
0.0
  9
$USERR2
 40
0.0
  9
$USERR3
 40
0.0
  9
$USERR4
 40
0.0
  9
$USERR5
 40
0.0
  9
$WORLDVIEW
 70
1
  9
$SHADEDGE
 70
3
  9
$SHADEDIF
 70
70
  9
$TILEMODE
 70
1
  9
$MAXACTVP
 70
64
  9
$PINSBASE
 10
0.0
 20
0.0
 30
0.0
  9
$PLIMCHECK
 70
0
  9
$PEXTMIN
 10
1e+20
 20
1e+20
 30
1e+20
  9
$PEXTMAX
 10
-1e+20
 20
-1e+20
 30
-1e+20
  9
$PLIMMIN
 10
0.0
 20
0.0
  9
$PLIMMAX
 10
420.0
 20
297.0
  9
$UNITMODE
 70
0
  9
$VISRETAIN
 70
1
  9
$PLINEGEN
 70
0
  9
$PSLTSCALE
 70
1
  9
$TREEDEPTH
 70
3020
  9
$CMLSTYLE
  2
Standard
  9
$CMLJUST
 70
0
  9
$CMLSCALE
 40
20.0
  9
$PROXYGRAPHICS
 70
1
  9
$MEASUREMENT
 70
1
  9
$CELWEIGHT
370
-1
  9
$ENDCAPS
280
0
  9
$JOINSTYLE
280
0
  9
$LWDISPLAY
290
0
  9
$INSUNITS
 70
6
  9
$HYPERLINKBASE
  1

  9
$STYLESHEET
  1

  9
$XEDIT
290
1
  9
$CEPSNTYPE
380
0
  9
$PSTYLEMODE
290
1
  9
$FINGERPRINTGUID
  2
{2FB15EE1-4364-4DD3-8BEB-E12DC0551E5B}
  9
$VERSIONGUID
  2
{2B97D026-46CB-48E4-B732-0BBB4DE2738F}
  9
$EXTNAMES
290
1
  9
$PSVPSCALE
 40
0.0
  9
$OLESTARTUP
290
0
  9
$SORTENTS
280
127
  9
$INDEXCTL
280
0
  9
$HIDETEXT
280
1
  9
$XCLIPFRAME
280
1
  9
$HALOGAP
280
0
  9
$OBSCOLOR
 70
257
  9
$OBSLTYPE
280
0
  9
$INTERSECTIONDISPLAY
280
0
  9
$INTERSECTIONCOLOR
 70
257
  9
$DIMASSOC
280
2
  9
$PROJECTNAME
  1

  9
$CAMERADISPLAY
290
0
  9
$LENSLENGTH
 40
50.0
  9
$CAMERAHEIGHT
 40
0.0
  9
$STEPSPERSEC
 40
24.0
  9
$STEPSIZE
 40
100.0
  9
$3DDWFPREC
 40
2.0
  9
$PSOLWIDTH
 40
0.005
  9
$PSOLHEIGHT
 40
0.08
  9
$LOFTANG1
 40
1.570796326795
  9
$LOFTANG2
 40
1.570796326795
  9
$LOFTMAG1
 40
0.0
  9
$LOFTMAG2
 40
0.0
  9
$LOFTPARAM
 70
7
  9
$LOFTNORMALS
280
1
  9
$LATITUDE
 40
37.795
  9
$LONGITUDE
 40
-122.394
  9
$NORTHDIRECTION
 40
0.0
  9
$TIMEZONE
 70
-8000
  9
$LIGHTGLYPHDISPLAY
280
1
  9
$TILEMODELIGHTSYNCH
280
1
  9
$CMATERIAL
347
20
  9
$SOLIDHIST
280
0
  9
$SHOWHIST
280
1
  9
$DWFFRAME
280
2
  9
$DGNFRAME
280
2
  9
$REALWORLDSCALE
290
1
  9
$INTERFERECOLOR
 62
256
  9
$CSHADOW
280
0
  9
$SHADOWPLANELOCATION
 40
0.0
  0
ENDSEC
  0
SECTION
  2
CLASSES
  0
CLASS
  1
ACDBDICTIONARYWDFLT
  2
AcDbDictionaryWithDefault
  3
ObjectDBX Classes
 90
0
 91
0
280
0
281
0
  0
CLASS
  1
SUN
  2
AcDbSun
  3
SCENEOE
 90
1153
 91
0
280
0
281
0
  0
CLASS
  1
VISUALSTYLE
  2
AcDbVisualStyle
  3
ObjectDBX Classes
 90
4095
 91
0
280
0
281
0
  0
CLASS
  1
MATERIAL
  2
AcDbMaterial
  3
ObjectDBX Classes
 90
1153
 91
0
280
0
281
0
  0
CLASS
  1
SCALE
  2
AcDbScale
  3
ObjectDBX Classes
 90
1153
 91
0
280
0
281
0
  0
CLASS
  1
TABLESTYLE
  2
AcDbTableStyle
  3
ObjectDBX Classes
 90
4095
 91
0
280
0
281
0
  0
CLASS
  1
MLEADERSTYLE
  2
AcDbMLeaderStyle
  3
ACDB_MLEADERSTYLE_CLASS
 90
4095
 91
0
280
0
281
0
  0
CLASS
  1
DICTIONARYVAR
  2
AcDbDictionaryVar
  3
ObjectDBX Classes
 90
0
 91
0
280
0
281
0
  0
CLASS
  1
CELLSTYLEMAP
  2
AcDbCellStyleMap
  3
ObjectDBX Classes
 90
1152
 91
0
280
0
281
0
  0
CLASS
  1
MENTALRAYRENDERSETTINGS
  2
AcDbMentalRayRenderSettings
  3
SCENEOE
 90
1024
 91
0
280
0
281
0
  0
CLASS
  1
ACDBDETAILVIEWSTYLE
  2
AcDbDetailViewStyle
  3
ObjectDBX Classes
 90
1025
 91
0
280
0
281
0
  0
CLASS
  1
ACDBSECTIONVIEWSTYLE
  2
AcDbSectionViewStyle
  3
ObjectDBX Classes
 90
1025
 91
0
280
0
281
0
  0
CLASS
  1
RASTERVARIABLES
  2
AcDbRasterVariables
  3
ISM
 90
0
 91
0
280
0
281
0
  0
CLASS
  1
ACDBPLACEHOLDER
  2
AcDbPlaceHolder
  3
ObjectDBX Classes
 90
0
 91
0
280
0
281
0
  0
CLASS
  1
LAYOUT
  2
AcDbLayout
  3
ObjectDBX Classes
 90
0
 91
0
280
0
281
0
  0
ENDSEC
  0
SECTION
  2
TABLES
  0
TABLE
  2
VPORT
  5
8
330
0
100
AcDbSymbolTable
 70
1
  0
VPORT
  5
23
330
8
100
AcDbSymbolTableRecord
100
AcDbViewportTableRecord
  2
*Active
 70
0
 10
0.0
 20
0.0
 11
1.0
 21
1.0
 12
0.0
 22
0.0
 13
0.0
 23
0.0
 14
0.5
 24
0.5
 15
0.5
 25
0.5
 16
0.0
 26
0.0
 36
1.0
 17
0.0
 27
0.0
 37
0.0
 40
1000.0
 41
1.34
 42
50.0
 43
0.0
 44
0.0
 50
0.0
 51
0.0
 71
0
 72
1000
 73
1
 74
3
 75
0
 76
0
 77
0
 78
0
281
0
 65
0
146
0.0
  0
ENDTAB
  0
TABLE
  2
LTYPE
  5
2
330
0
100
AcDbSymbolTable
 70
3
  0
LTYPE
  5
24
330
2
100
AcDbSymbolTableRecord
100
AcDbLinetypeTableRecord
  2
ByBlock
 70
0
  3

 72
65
 73
0
 40
0.0
  0
LTYPE
  5
25
330
2
100
AcDbSymbolTableRecord
100
AcDbLinetypeTableRecord
  2
ByLayer
 70
0
  3

 72
65
 73
0
 40
0.0
  0
LTYPE
  5
26
330
2
100
AcDbSymbolTableRecord
100
AcDbLinetypeTableRecord
  2
Continuous
 70
0
  3

 72
65
 73
0
 40
0.0
  0
ENDTAB
  0
TABLE
  2
LAYER
  5
1
330
0
100
AcDbSymbolTable
 70
8
  0
LAYER
  5
27
330
1
100
AcDbSymbolTableRecord
100
AcDbLayerTableRecord
  2
0
 70
0
 62
7
  6
Continuous
370
-3
390
13
347
21
  0
LAYER
  5
28
330
1
100
AcDbSymbolTableRecord
100
AcDbLayerTableRecord
  2
Defpoints
 70
0
 62
7
  6
Continuous
290
0
370
-3
390
13
347
21
  0
LAYER
  5
2F
330
1
100
AcDbSymbolTableRecord
100
AcDbLayerTableRecord
  2
MIKRA
 70
0
 62
7
  6
Continuous
370
-3
390
13
347
21
  0
LAYER
  5
30
330
1
100
AcDbSymbolTableRecord
100
AcDbLayerTableRecord
  2
kir
 70
0
 62
7
  6
Continuous
370
-3
390
13
347
21
  0
LAYER
  5
31
330
1
100
AcDbSymbolTableRecord
100
AcDbLayerTableRecord
  2
8
 70
0
 62
7
  6
Continuous
370
-3
390
13
347
21
  0
LAYER
  5
32
330
1
100
AcDbSymbolTableRecord
100
AcDbLayerTableRecord
  2
BAR-GAL
 70
0
 62
7
  6
Continuous
370
-3
390
13
347
21
  0
LAYER
  5
33
330
1
100
AcDbSymbolTableRecord
100
AcDbLayerTableRecord
  2
BAR_GAL
 70
0
 62
7
  6
Continuous
370
-3
390
13
347
21
  0
LAYER
  5
34
330
1
100
AcDbSymbolTableRecord
100
AcDbLayerTableRecord
  2
VP
 70
0
 62
-30
  6
Continuous
370
-3
390
13
347
21
  0
ENDTAB
  0
TABLE
  2
STYLE
  5
5
330
0
100
AcDbSymbolTable
 70
1
  0
STYLE
  5
29
330
5
100
AcDbSymbolTableRecord
100
AcDbTextStyleTableRecord
  2
Standard
 70
0
 40
0.0
 41
1.0
 50
0.0
 71
0
 42
2.5
  3
txt
  4

  0
ENDTAB
  0
TABLE
  2
VIEW
  5
7
330
0
100
AcDbSymbolTable
 70
0
  0
ENDTAB
  0
TABLE
  2
UCS
  5
6
330
0
100
AcDbSymbolTable
 70
0
  0
ENDTAB
  0
TABLE
  2
APPID
  5
3
330
0
100
AcDbSymbolTable
 70
3
  0
APPID
  5
2A
330
3
100
AcDbSymbolTableRecord
100
AcDbRegAppTableRecord
  2
ACAD
 70
0
  0
APPID
  5
1A0
330
3
100
AcDbSymbolTableRecord
100
AcDbRegAppTableRecord
  2
HATCHBACKGROUNDCOLOR
 70
0
  0
APPID
  5
1A1
330
3
100
AcDbSymbolTableRecord
100
AcDbRegAppTableRecord
  2
EZDXF
 70
0
  0
ENDTAB
  0
TABLE
  2
DIMSTYLE
  5
4
330
0
100
AcDbSymbolTable
 70
3
100
AcDbDimStyleTable
  0
DIMSTYLE
105
2B
330
4
100
AcDbSymbolTableRecord
100
AcDbDimStyleTableRecord
  2
Standard
 70
0
 40
1.0
 41
2.5
 42
0.625
 43
3.75
 44
1.25
 45
0.0
 46
0.0
 47
0.0
 48
0.0
 49
2.5
140
2.5
141
2.5
142
0.0
143
0.03937007874
144
1.0
145
0.0
146
1.0
147
0.625
148
0.0
 69
0
 70
0
 71
0
 72
0
 73
0
 74
0
 75
0
 76
0
 77
1
 78
8
 79
3
170
0
171
3
172
1
173
0
174
0
175
0
176
0
177
0
178
0
179
2
271
2
272
2
273
2
274
3
275
0
276
0
277
2
278
44
279
0
280
0
281
0
282
0
283
0
284
8
285
0
286
0
288
0
289
3
290
0
371
-2
372
-2
  0
DIMSTYLE
105
27
330
4
100
AcDbSymbolTableRecord
100
AcDbDimStyleTableRecord
  2
ISO-25
 70
0
 40
1.0
 41
30.0
 42
0.625
 43
3.75
 44
1.25
 45
0.0
 46
0.0
 47
0.0
 48
0.0
 49
2.5
140
30.0
141
2.5
142
0.0
143
0.03937007874016
144
1.0
145
0.0
146
1.0
147
10.0
148
0.0
 69
0
 70
0
 71
0
 72
0
 73
0
 74
0
 75
0
 76
0
 77
1
 78
8
 79
3
170
0
171
3
172
1
173
0
174
0
175
0
176
0
177
0
178
0
179
2
271
0
272
0
273
2
274
3
275
0
276
0
277
2
278
44
279
0
280
0
281
0
282
0
283
0
284
8
285
0
286
0
288
0
289
3
290
0
340
29
371
-2
372
-2
  0
DIMSTYLE
105
24441B
330
4
100
AcDbSymbolTableRecord
100
AcDbDimStyleTableRecord
  2
100A
 70
0
 40
1.0
 41
30.0
 42
0.625
 43
3.75
 44
1.25
 45
0.0
 46
0.0
 47
0.0
 48
0.0
 49
2.5
140
35.0
141
2.5
142
0.0
143
0.03937007874016
144
1.0
145
0.0
146
1.0
147
10.0
148
0.0
 69
0
 70
0
 71
0
 72
0
 73
0
 74
0
 75
0
 76
0
 77
1
 78
8
 79
3
170
0
171
3
172
1
173
0
174
0
175
0
176
0
177
0
178
0
179
2
271
0
272
0
273
2
274
3
275
0
276
0
277
2
278
44
279
0
280
0
281
0
282
0
283
0
284
8
285
0
286
0
288
0
289
3
290
0
340
29
371
-2
372
-2
  0
ENDTAB
  0
TABLE
  2
BLOCK_RECORD
  5
9
330
0
100
AcDbSymbolTable
 70
25
  0
BLOCK_RECORD
  5
17
330
9
100
AcDbSymbolTableRecord
100
AcDbBlockTableRecord
  2
*Model_Space
340
1A
 70
0
280
1
281
0
  0
BLOCK_RECORD
  5
1B
330
9
100
AcDbSymbolTableRecord
100
AcDbBlockTableRecord
  2
*Paper_Space
340
1E
 70
0
280
1
281
0
  0
BLOCK_RECORD
  5
3B
330
9
100
AcDbSymbolTableRecord
100
AcDbBlockTableRecord
  2
*D1
340
0
 70
0
280
1
281
0
  0
BLOCK_RECORD
  5
4A
330
9
100
AcDbSymbolTableRecord
100
AcDbBlockTableRecord
  2
*D2
340
0
 70
0
280
1
281
0
  0
BLOCK_RECORD
  5
57
330
9
100
AcDbSymbolTableRecord
100
AcDbBlockTableRecord
  2
*D3
340
0
 70
0
280
1
281
0
  0
BLOCK_RECORD
  5
66
330
9
100
AcDbSymbolTableRecord
100
AcDbBlockTableRecord
  2
*D4
340
0
 70
0
280
1
281
0
  0
BLOCK_RECORD
  5
74
330
9
100
AcDbSymbolTableRecord
100
AcDbBlockTableRecord
  2
*D5
340
0
 70
0
280
1
281
0
  0
BLOCK_RECORD
  5
84
330
9
100
AcDbSymbolTableRecord
100
AcDbBlockTableRecord
  2
*D6
340
0
 70
0
280
1
281
0
  0
BLOCK_RECORD
  5
91
330
9
100
AcDbSymbolTableRecord
100
AcDbBlockTableRecord
  2
*D7
340
0
 70
0
280
1
281
0
  0
BLOCK_RECORD
  5
A5
330
9
100
AcDbSymbolTableRecord
100
AcDbBlockTableRecord
  2
*D8
340
0
 70
0
280
1
281
0
  0
BLOCK_RECORD
  5
B6
330
9
100
AcDbSymbolTableRecord
100
AcDbBlockTableRecord
  2
*D9
340
0
 70
0
280
1
281
0
  0
BLOCK_RECORD
  5
DC
330
9
100
AcDbSymbolTableRecord
100
AcDbBlockTableRecord
  2
*D10
340
0
 70
0
280
1
281
0
  0
BLOCK_RECORD
  5
E9
330
9
100
AcDbSymbolTableRecord
100
AcDbBlockTableRecord
  2
*D11
340
0
 70
0
280
1
281
0
  0
BLOCK_RECORD
  5
F6
330
9
100
AcDbSymbolTableRecord
100
AcDbBlockTableRecord
  2
*D12
340
0
 70
0
280
1
281
0
  0
BLOCK_RECORD
  5
103
330
9
100
AcDbSymbolTableRecord
100
AcDbBlockTableRecord
  2
*D13
340
0
 70
0
280
1
281
0
  0
BLOCK_RECORD
  5
110
330
9
100
AcDbSymbolTableRecord
100
AcDbBlockTableRecord
  2
*D14
340
0
 70
0
280
1
281
0
  0
BLOCK_RECORD
  5
11F
330
9
100
AcDbSymbolTableRecord
100
AcDbBlockTableRecord
  2
*D15
340
0
 70
0
280
1
281
0
  0
BLOCK_RECORD
  5
12E
330
9
100
AcDbSymbolTableRecord
100
AcDbBlockTableRecord
  2
*D16
340
0
 70
0
280
1
281
0
  0
BLOCK_RECORD
  5
13D
330
9
100
AcDbSymbolTableRecord
100
AcDbBlockTableRecord
  2
*D17
340
0
 70
0
280
1
281
0
  0
BLOCK_RECORD
  5
14A
330
9
100
AcDbSymbolTableRecord
100
AcDbBlockTableRecord
  2
*D18
340
0
 70
0
280
1
281
0
  0
BLOCK_RECORD
  5
158
330
9
100
AcDbSymbolTableRecord
100
AcDbBlockTableRecord
  2
*D19
340
0
 70
0
280
1
281
0
  0
BLOCK_RECORD
  5
165
330
9
100
AcDbSymbolTableRecord
100
AcDbBlockTableRecord
  2
*D20
340
0
 70
0
280
1
281
0
  0
BLOCK_RECORD
  5
177
330
9
100
AcDbSymbolTableRecord
100
AcDbBlockTableRecord
  2
*D21
340
0
 70
0
280
1
281
0
  0
BLOCK_RECORD
  5
185
330
9
100
AcDbSymbolTableRecord
100
AcDbBlockTableRecord
  2
*D22
340
0
 70
0
280
1
281
0
  0
BLOCK_RECORD
  5
193
330
9
100
AcDbSymbolTableRecord
100
AcDbBlockTableRecord
  2
*D23
340
0
 70
0
280
1
281
0
  0
ENDTAB
  0
ENDSEC
  0
SECTION
  2
BLOCKS
  0
BLOCK
  5
18
330
17
100
AcDbEntity
  8
0
100
AcDbBlockBegin
  2
*Model_Space
 70
0
 10
0.0
 20
0.0
 30
0.0
  3
*Model_Space
  1

  0
ENDBLK
  5
19
330
17
100
AcDbEntity
  8
0
100
AcDbBlockEnd
  0
BLOCK
  5
1C
330
1B
100
AcDbEntity
  8
0
100
AcDbBlockBegin
  2
*Paper_Space
 70
0
 10
0.0
 20
0.0
 30
0.0
  3
*Paper_Space
  1

  0
ENDBLK
  5
1D
330
1B
100
AcDbEntity
  8
0
100
AcDbBlockEnd
  0
BLOCK
  5
3C
330
3B
100
AcDbEntity
  8
0
100
AcDbBlockBegin
  2
*D1
 70
1
 10
0.0
 20
0.0
 30
0.0
  3
*D1
  1

  0
LINE
  5
3E
330
3B
100
AcDbEntity
  8
BAR-GAL
 62
0
370
-2
440
16777216
100
AcDbLine
 10
1005278.313659749
 20
61627.63877881724
 30
0.0
 11
1005254.765470348
 21
61627.63877881724
 31
0.0
  0
LINE
  5
3F
330
3B
100
AcDbEntity
  8
BAR-GAL
 62
0
370
-2
440
16777216
100
AcDbLine
 10
1005278.313659749
 20
61567.63877881724
 30
0.0
 11
1005254.765470348
 21
61567.63877881724
 31
0.0
  0
LINE
  5
40
330
3B
100
AcDbEntity
  8
BAR-GAL
 62
0
370
-2
440
16777216
100
AcDbLine
 10
1005256.015470348
 20
61657.63877881724
 30
0.0
 11
1005256.015470348
 21
61687.63877881724
 31
0.0
  0
LINE
  5
41
330
3B
100
AcDbEntity
  8
BAR-GAL
 62
0
370
-2
440
16777216
100
AcDbLine
 10
1005256.015470348
 20
61537.63877881724
 30
0.0
 11
1005256.015470348
 21
61507.63877881724
 31
0.0
  0
LINE
  5
42
330
3B
100
AcDbEntity
  8
BAR-GAL
 62
0
370
-2
440
16777216
100
AcDbLine
 10
1005256.015470348
 20
61627.63877881724
 30
0.0
 11
1005256.015470348
 21
61567.63877881724
 31
0.0
  0
SOLID
  5
43
330
3B
100
AcDbEntity
  8
BAR-GAL
 62
0
370
13
440
16777216
100
AcDbTrace
 10
1005251.015470348
 20
61657.63877881724
 30
0.0
 11
1005261.015470348
 21
61657.63877881724
 31
0.0
 12
1005256.015470348
 22
61627.63877881724
 32
0.0
 13
1005256.015470348
 23
61627.63877881724
 33
0.0
  0
SOLID
  5
44
330
3B
100
AcDbEntity
  8
BAR-GAL
 62
0
370
13
440
16777216
100
AcDbTrace
 10
1005251.015470348
 20
61537.63877881724
 30
0.0
 11
1005261.015470348
 21
61537.63877881724
 31
0.0
 12
1005256.015470348
 22
61567.63877881724
 32
0.0
 13
1005256.015470348
 23
61567.63877881724
 33
0.0
  0
MTEXT
  5
45
330
3B
100
AcDbEntity
  8
BAR-GAL
 62
0
370
13
440
16777216
100
AcDbMText
 10
1005230.698280716
 20
61597.63877881695
 30
0.0
 40
30.0
 41
0.0
 46
0.0
 71
5
  1
60
 11
1e-16
 21
1.0
 31
0.0
  0
POINT
  5
46
330
3B
100
AcDbEntity
  8
Defpoints
 62
0
370
13
440
16777216
100
AcDbPoint
 10
1005278.938659749
 20
61627.63877881724
 30
0.0
  0
POINT
  5
47
330
3B
100
AcDbEntity
  8
Defpoints
 62
0
370
13
440
16777216
100
AcDbPoint
 10
1005278.938659749
 20
61567.63877881724
 30
0.0
  0
POINT
  5
48
330
3B
100
AcDbEntity
  8
Defpoints
 62
0
370
13
440
16777216
100
AcDbPoint
 10
1005256.015470348
 20
61567.63877881724
 30
0.0
  0
ENDBLK
  5
3D
330
3B
100
AcDbEntity
  8
0
100
AcDbBlockEnd
  0
BLOCK
  5
4B
330
4A
100
AcDbEntity
  8
0
100
AcDbBlockBegin
  2
*D2
 70
1
 10
0.0
 20
0.0
 30
0.0
  3
*D2
  1

  0
LINE
  5
4D
330
4A
100
AcDbEntity
  8
BAR-GAL
 62
0
370
-2
440
16777216
100
AcDbLine
 10
1005155.499688088
 20
61940.71399424576
 30
0.0
 11
1005155.499688088
 21
61880.24198630188
 31
0.0
  0
LINE
  5
4E
330
4A
100
AcDbEntity
  8
BAR-GAL
 62
0
370
-2
440
16777216
100
AcDbLine
 10
1005495.548047817
 20
61940.71399424576
 30
0.0
 11
1005495.548047817
 21
61880.24198630188
 31
0.0
  0
LINE
  5
4F
330
4A
100
AcDbEntity
  8
BAR-GAL
 62
0
370
-2
440
16777216
100
AcDbLine
 10
1005185.499688088
 20
61881.49198630187
 30
0.0
 11
1005465.548047817
 21
61881.49198630187
 31
0.0
  0
SOLID
  5
50
330
4A
100
AcDbEntity
  8
BAR-GAL
 62
0
370
13
440
16777216
100
AcDbTrace
 10
1005185.499688088
 20
61886.49198630188
 30
0.0
 11
1005185.499688088
 21
61876.49198630188
 31
0.0
 12
1005155.499688088
 22
61881.49198630187
 32
0.0
 13
1005155.499688088
 23
61881.49198630187
 33
0.0
  0
SOLID
  5
51
330
4A
100
AcDbEntity
  8
BAR-GAL
 62
0
370
13
440
16777216
100
AcDbTrace
 10
1005465.548047817
 20
61886.49198630188
 30
0.0
 11
1005465.548047817
 21
61876.49198630188
 31
0.0
 12
1005495.548047817
 22
61881.49198630187
 32
0.0
 13
1005495.548047817
 23
61881.49198630187
 33
0.0
  0
MTEXT
  5
52
330
4A
100
AcDbEntity
  8
BAR-GAL
 62
0
370
13
440
16777216
100
AcDbMText
 10
1005325.523867952
 20
61906.81940785713
 30
0.0
 40
30.0
 41
0.0
 46
0.0
 71
5
  1
340
  0
POINT
  5
53
330
4A
100
AcDbEntity
  8
Defpoints
 62
0
370
13
440
16777216
100
AcDbPoint
 10
1005155.499688088
 20
61941.33899424576
 30
0.0
  0
POINT
  5
54
330
4A
100
AcDbEntity
  8
Defpoints
 62
0
370
13
440
16777216
100
AcDbPoint
 10
1005495.548047817
 20
61941.33899424576
 30
0.0
  0
POINT
  5
55
330
4A
100
AcDbEntity
  8
Defpoints
 62
0
370
13
440
16777216
100
AcDbPoint
 10
1005495.548047817
 20
61881.49198630187
 30
0.0
  0
ENDBLK
  5
4C
330
4A
100
AcDbEntity
  8
0
100
AcDbBlockEnd
  0
BLOCK
  5
58
330
57
100
AcDbEntity
  8
0
100
AcDbBlockBegin
  2
*D3
 70
1
 10
0.0
 20
0.0
 30
0.0
  3
*D3
  1

  0
LINE
  5
5A
330
57
100
AcDbEntity
  8
BAR-GAL
 62
0
370
-2
440
16777216
100
AcDbLine
 10
1005005.633414806
 20
60875.71399424577
 30
0.0
 11
1005005.633414806
 21
60576.73395994162
 31
0.0
  0
LINE
  5
5B
330
57
100
AcDbEntity
  8
BAR-GAL
 62
0
370
-2
440
16777216
100
AcDbLine
 10
1005539.149060511
 20
60875.2824197568
 30
0.0
 11
1005539.149060511
 21
60576.73395994162
 31
0.0
  0
LINE
  5
5C
330
57
100
AcDbEntity
  8
BAR-GAL
 62
0
370
-2
440
16777216
100
AcDbLine
 10
1005035.633414806
 20
60577.98395994161
 30
0.0
 11
1005509.149060511
 21
60577.98395994161
 31
0.0
  0
SOLID
  5
5D
330
57
100
AcDbEntity
  8
BAR-GAL
 62
0
370
13
440
16777216
100
AcDbTrace
 10
1005035.633414806
 20
60582.98395994161
 30
0.0
 11
1005035.633414806
 21
60572.98395994162
 31
0.0
 12
1005005.633414806
 22
60577.98395994161
 32
0.0
 13
1005005.633414806
 23
60577.98395994161
 33
0.0
  0
SOLID
  5
5E
330
57
100
AcDbEntity
  8
BAR-GAL
 62
0
370
13
440
16777216
100
AcDbTrace
 10
1005509.149060511
 20
60582.98395994161
 30
0.0
 11
1005509.149060511
 21
60572.98395994162
 31
0.0
 12
1005539.149060511
 22
60577.98395994161
 32
0.0
 13
1005539.149060511
 23
60577.98395994161
 33
0.0
  0
MTEXT
  5
5F
330
57
100
AcDbEntity
  8
BAR-GAL
 62
0
370
13
440
16777216
100
AcDbMText
 10
1005272.391237659
 20
60603.31138149686
 30
0.0
 40
30.0
 41
0.0
 46
0.0
 71
5
  1
534
  0
POINT
  5
60
330
57
100
AcDbEntity
  8
Defpoints
 62
0
370
13
440
16777216
100
AcDbPoint
 10
1005005.633414806
 20
60876.33899424577
 30
0.0
  0
POINT
  5
61
330
57
100
AcDbEntity
  8
Defpoints
 62
0
370
13
440
16777216
100
AcDbPoint
 10
1005539.149060511
 20
60875.90741975679
 30
0.0
  0
POINT
  5
62
330
57
100
AcDbEntity
  8
Defpoints
 62
0
370
13
440
16777216
100
AcDbPoint
 10
1005539.149060511
 20
60577.98395994161
 30
0.0
  0
ENDBLK
  5
59
330
57
100
AcDbEntity
  8
0
100
AcDbBlockEnd
  0
BLOCK
  5
67
330
66
100
AcDbEntity
  8
0
100
AcDbBlockBegin
  2
*D4
 70
1
 10
0.0
 20
0.0
 30
0.0
  3
*D4
  1

  0
LINE
  5
69
330
66
100
AcDbEntity
  8
BAR-GAL
 62
0
370
-2
440
16777216
100
AcDbLine
 10
1005900.034547127
 20
62255.48360231355
 30
0.0
 11
1005954.783744861
 21
62255.48360231355
 31
0.0
  0
LINE
  5
6A
330
66
100
AcDbEntity
  8
BAR-GAL
 62
0
370
-2
440
16777216
100
AcDbLine
 10
1005900.034547127
 20
62645.47023121395
 30
0.0
 11
1005954.783744861
 21
62645.47023121395
 31
0.0
  0
LINE
  5
6B
330
66
100
AcDbEntity
  8
BAR-GAL
 62
0
370
-2
440
16777216
100
AcDbLine
 10
1005953.533744861
 20
62285.48360231354
 30
0.0
 11
1005953.533744861
 21
62615.47023121395
 31
0.0
  0
SOLID
  5
6C
330
66
100
AcDbEntity
  8
BAR-GAL
 62
0
370
13
440
16777216
100
AcDbTrace
 10
1005948.533744861
 20
62285.48360231354
 30
0.0
 11
1005958.533744861
 21
62285.48360231354
 31
0.0
 12
1005953.533744861
 22
62255.48360231355
 32
0.0
 13
1005953.533744861
 23
62255.48360231355
 33
0.0
  0
SOLID
  5
6D
330
66
100
AcDbEntity
  8
BAR-GAL
 62
0
370
13
440
16777216
100
AcDbTrace
 10
1005948.533744861
 20
62615.47023121395
 30
0.0
 11
1005958.533744861
 21
62615.47023121395
 31
0.0
 12
1005953.533744861
 22
62645.47023121395
 32
0.0
 13
1005953.533744861
 23
62645.47023121395
 33
0.0
  0
MTEXT
  5
6E
330
66
100
AcDbEntity
  8
BAR-GAL
 62
0
370
13
440
16777216
100
AcDbMText
 10
1005928.206323305
 20
62450.47691676345
 30
0.0
 40
30.0
 41
0.0
 46
0.0
 71
5
  1
390
 11
1e-16
 21
1.0
 31
0.0
  0
POINT
  5
6F
330
66
100
AcDbEntity
  8
Defpoints
 62
0
370
13
440
16777216
100
AcDbPoint
 10
1005899.409547127
 20
62255.48360231355
 30
0.0
  0
POINT
  5
70
330
66
100
AcDbEntity
  8
Defpoints
 62
0
370
13
440
16777216
100
AcDbPoint
 10
1005899.409547127
 20
62645.47023121395
 30
0.0
  0
POINT
  5
71
330
66
100
AcDbEntity
  8
Defpoints
 62
0
370
13
440
16777216
100
AcDbPoint
 10
1005953.533744861
 20
62645.47023121395
 30
0.0
  0
ENDBLK
  5
68
330
66
100
AcDbEntity
  8
0
100
AcDbBlockEnd
  0
BLOCK
  5
75
330
74
100
AcDbEntity
  8
0
100
AcDbBlockBegin
  2
*D5
 70
1
 10
0.0
 20
0.0
 30
0.0
  3
*D5
  1

  0
LINE
  5
77
330
74
100
AcDbEntity
  8
BAR-GAL
 62
0
370
-2
440
16777216
100
AcDbLine
 10
1005618.918852723
 20
62648.05041021707
 30
0.0
 11
1005618.918852723
 21
62751.5163558243
 31
0.0
  0
LINE
  5
78
330
74
100
AcDbEntity
  8
BAR-GAL
 62
0
370
-2
440
16777216
100
AcDbLine
 10
1005899.409547126
 20
62647.09523121393
 30
0.0
 11
1005899.409547126
 21
62751.5163558243
 31
0.0
  0
LINE
  5
79
330
74
100
AcDbEntity
  8
BAR-GAL
 62
0
370
-2
440
16777216
100
AcDbLine
 10
1005648.918852723
 20
62750.2663558243
 30
0.0
 11
1005869.409547127
 21
62750.2663558243
 31
0.0
  0
SOLID
  5
7A
330
74
100
AcDbEntity
  8
BAR-GAL
 62
0
370
13
440
16777216
100
AcDbTrace
 10
1005648.918852723
 20
62755.2663558243
 30
0.0
 11
1005648.918852723
 21
62745.2663558243
 31
0.0
 12
1005618.918852723
 22
62750.2663558243
 32
0.0
 13
1005618.918852723
 23
62750.2663558243
 33
0.0
  0
SOLID
  5
7B
330
74
100
AcDbEntity
  8
BAR-GAL
 62
0
370
13
440
16777216
100
AcDbTrace
 10
1005869.409547127
 20
62755.2663558243
 30
0.0
 11
1005869.409547127
 21
62745.2663558243
 31
0.0
 12
1005899.409547126
 22
62750.2663558243
 32
0.0
 13
1005899.409547126
 23
62750.2663558243
 33
0.0
  0
MTEXT
  5
7C
330
74
100
AcDbEntity
  8
BAR-GAL
 62
0
370
13
440
16777216
100
AcDbMText
 10
1005759.164199925
 20
62775.58354545595
 30
0.0
 40
30.0
 41
0.0
 46
0.0
 71
5
  1
280
  0
POINT
  5
7D
330
74
100
AcDbEntity
  8
Defpoints
 62
0
370
13
440
16777216
100
AcDbPoint
 10
1005618.918852723
 20
62647.42541021707
 30
0.0
  0
POINT
  5
7E
330
74
100
AcDbEntity
  8
Defpoints
 62
0
370
13
440
16777216
100
AcDbPoint
 10
1005899.409547126
 20
62646.47023121392
 30
0.0
  0
POINT
  5
7F
330
74
100
AcDbEntity
  8
Defpoints
 62
0
370
13
440
16777216
100
AcDbPoint
 10
1005899.409547126
 20
62750.2663558243
 30
0.0
  0
ENDBLK
  5
76
330
74
100
AcDbEntity
  8
0
100
AcDbBlockEnd
  0
BLOCK
  5
85
330
84
100
AcDbEntity
  8
0
100
AcDbBlockBegin
  2
*D6
 70
1
 10
0.0
 20
0.0
 30
0.0
  3
*D6
  1

  0
LINE
  5
87
330
84
100
AcDbEntity
  8
BAR-GAL
 62
0
370
-2
440
16777216
100
AcDbLine
 10
1006001.938900269
 20
62856.60962459691
 30
0.0
 11
1005970.749647427
 21
62856.60962459691
 31
0.0
  0
LINE
  5
88
330
84
100
AcDbEntity
  8
BAR-GAL
 62
0
370
-2
440
16777216
100
AcDbLine
 10
1005998.75512389
 20
63041.27757635769
 30
0.0
 11
1005970.749647427
 21
63041.27757635769
 31
0.0
  0
LINE
  5
89
330
84
100
AcDbEntity
  8
BAR-GAL
 62
0
370
-2
440
16777216
100
AcDbLine
 10
1005971.999647427
 20
62886.60962459691
 30
0.0
 11
1005971.999647427
 21
63011.27757635769
 31
0.0
  0
SOLID
  5
8A
330
84
100
AcDbEntity
  8
BAR-GAL
 62
0
370
13
440
16777216
100
AcDbTrace
 10
1005966.999647427
 20
62886.60962459691
 30
0.0
 11
1005976.999647427
 21
62886.60962459691
 31
0.0
 12
1005971.999647427
 22
62856.60962459691
 32
0.0
 13
1005971.999647427
 23
62856.60962459691
 33
0.0
  0
SOLID
  5
8B
330
84
100
AcDbEntity
  8
BAR-GAL
 62
0
370
13
440
16777216
100
AcDbTrace
 10
1005966.999647427
 20
63011.27757635769
 30
0.0
 11
1005976.999647427
 21
63011.27757635769
 31
0.0
 12
1005971.999647427
 22
63041.27757635769
 32
0.0
 13
1005971.999647427
 23
63041.27757635769
 33
0.0
  0
MTEXT
  5
8C
330
84
100
AcDbEntity
  8
BAR-GAL
 62
0
370
13
440
16777216
100
AcDbMText
 10
1005946.682457796
 20
62948.94360047701
 30
0.0
 40
30.0
 41
0.0
 46
0.0
 71
5
  1
185
 11
1e-16
 21
1.0
 31
0.0
  0
POINT
  5
8D
330
84
100
AcDbEntity
  8
Defpoints
 62
0
370
13
440
16777216
100
AcDbPoint
 10
1006002.563900269
 20
62856.60962459691
 30
0.0
  0
POINT
  5
8E
330
84
100
AcDbEntity
  8
Defpoints
 62
0
370
13
440
16777216
100
AcDbPoint
 10
1005999.38012389
 20
63041.27757635769
 30
0.0
  0
POINT
  5
8F
330
84
100
AcDbEntity
  8
Defpoints
 62
0
370
13
440
16777216
100
AcDbPoint
 10
1005971.999647427
 20
63041.27757635769
 30
0.0
  0
ENDBLK
  5
86
330
84
100
AcDbEntity
  8
0
100
AcDbBlockEnd
  0
BLOCK
  5
92
330
91
100
AcDbEntity
  8
0
100
AcDbBlockBegin
  2
*D7
 70
1
 10
0.0
 20
0.0
 30
0.0
  3
*D7
  1

  0
LINE
  5
94
330
91
100
AcDbEntity
  8
BAR-GAL
 62
0
370
-2
440
16777216
100
AcDbLine
 10
1005618.600475109
 20
62856.62141063744
 30
0.0
 11
1005618.600475109
 21
62802.50638323087
 31
0.0
  0
LINE
  5
95
330
91
100
AcDbEntity
  8
BAR-GAL
 62
0
370
-2
440
16777216
100
AcDbLine
 10
1005998.38012389
 20
62856.62141063744
 30
0.0
 11
1005998.38012389
 21
62802.50638323087
 31
0.0
  0
LINE
  5
96
330
91
100
AcDbEntity
  8
BAR-GAL
 62
0
370
-2
440
16777216
100
AcDbLine
 10
1005648.600475109
 20
62803.75638323087
 30
0.0
 11
1005968.38012389
 21
62803.75638323087
 31
0.0
  0
SOLID
  5
97
330
91
100
AcDbEntity
  8
BAR-GAL
 62
0
370
13
440
16777216
100
AcDbTrace
 10
1005648.600475109
 20
62808.75638323087
 30
0.0
 11
1005648.600475109
 21
62798.75638323087
 31
0.0
 12
1005618.600475109
 22
62803.75638323087
 32
0.0
 13
1005618.600475109
 23
62803.75638323087
 33
0.0
  0
SOLID
  5
98
330
91
100
AcDbEntity
  8
BAR-GAL
 62
0
370
13
440
16777216
100
AcDbTrace
 10
1005968.38012389
 20
62808.75638323087
 30
0.0
 11
1005968.38012389
 21
62798.75638323087
 31
0.0
 12
1005998.38012389
 22
62803.75638323087
 32
0.0
 13
1005998.38012389
 23
62803.75638323087
 33
0.0
  0
MTEXT
  5
99
330
91
100
AcDbEntity
  8
BAR-GAL
 62
0
370
13
440
16777216
100
AcDbMText
 10
1005808.490299499
 20
62829.08380478612
 30
0.0
 40
30.0
 41
0.0
 46
0.0
 71
5
  1
380
  0
POINT
  5
9A
330
91
100
AcDbEntity
  8
Defpoints
 62
0
370
13
440
16777216
100
AcDbPoint
 10
1005618.600475109
 20
62857.24641063744
 30
0.0
  0
POINT
  5
9B
330
91
100
AcDbEntity
  8
Defpoints
 62
0
370
13
440
16777216
100
AcDbPoint
 10
1005998.38012389
 20
62857.24641063744
 30
0.0
  0
POINT
  5
9C
330
91
100
AcDbEntity
  8
Defpoints
 62
0
370
13
440
16777216
100
AcDbPoint
 10
1005998.38012389
 20
62803.75638323087
 30
0.0
  0
ENDBLK
  5
93
330
91
100
AcDbEntity
  8
0
100
AcDbBlockEnd
  0
BLOCK
  5
A6
330
A5
100
AcDbEntity
  8
0
100
AcDbBlockBegin
  2
*D8
 70
1
 10
0.0
 20
0.0
 30
0.0
  3
*D8
  1

  0
LINE
  5
A8
330
A5
100
AcDbEntity
  8
BAR-GAL
 62
0
370
-2
440
16777216
100
AcDbLine
 10
1006064.589747822
 20
62256.10860231352
 30
0.0
 11
1006064.589747822
 21
62309.33185762135
 31
0.0
  0
LINE
  5
A9
330
A5
100
AcDbEntity
  8
BAR-GAL
 62
0
370
-2
440
16777216
100
AcDbLine
 10
1005899.409547126
 20
62256.10860231352
 30
0.0
 11
1005899.409547126
 21
62309.33185762135
 31
0.0
  0
LINE
  5
AA
330
A5
100
AcDbEntity
  8
BAR-GAL
 62
0
370
-2
440
16777216
100
AcDbLine
 10
1006034.589747822
 20
62308.08185762136
 30
0.0
 11
1005929.409547126
 21
62308.08185762136
 31
0.0
  0
SOLID
  5
AB
330
A5
100
AcDbEntity
  8
BAR-GAL
 62
0
370
13
440
16777216
100
AcDbTrace
 10
1006034.589747822
 20
62313.08185762135
 30
0.0
 11
1006034.589747822
 21
62303.08185762136
 31
0.0
 12
1006064.589747822
 22
62308.08185762136
 32
0.0
 13
1006064.589747822
 23
62308.08185762136
 33
0.0
  0
SOLID
  5
AC
330
A5
100
AcDbEntity
  8
BAR-GAL
 62
0
370
13
440
16777216
100
AcDbTrace
 10
1005929.409547126
 20
62313.08185762135
 30
0.0
 11
1005929.409547126
 21
62303.08185762136
 31
0.0
 12
1005899.409547126
 22
62308.08185762136
 32
0.0
 13
1005899.409547126
 23
62308.08185762136
 33
0.0
  0
MTEXT
  5
AD
330
A5
100
AcDbEntity
  8
BAR-GAL
 62
0
370
13
440
16777216
100
AcDbMText
 10
1005981.999647475
 20
62333.399047253
 30
0.0
 40
30.0
 41
0.0
 46
0.0
 71
5
  1
165
  0
POINT
  5
AE
330
A5
100
AcDbEntity
  8
Defpoints
 62
0
370
13
440
16777216
100
AcDbPoint
 10
1006064.589747822
 20
62255.48360231352
 30
0.0
  0
POINT
  5
AF
330
A5
100
AcDbEntity
  8
Defpoints
 62
0
370
13
440
16777216
100
AcDbPoint
 10
1005899.409547126
 20
62255.48360231352
 30
0.0
  0
POINT
  5
B0
330
A5
100
AcDbEntity
  8
Defpoints
 62
0
370
13
440
16777216
100
AcDbPoint
 10
1005899.409547126
 20
62308.08185762136
 30
0.0
  0
ENDBLK
  5
A7
330
A5
100
AcDbEntity
  8
0
100
AcDbBlockEnd
  0
BLOCK
  5
B7
330
B6
100
AcDbEntity
  8
0
100
AcDbBlockBegin
  2
*D9
 70
1
 10
0.0
 20
0.0
 30
0.0
  3
*D9
  1

  0
LINE
  5
B9
330
B6
100
AcDbEntity
  8
BAR-GAL
 62
0
370
-2
440
16777216
100
AcDbLine
 10
1006064.035138882
 20
62856.60962459691
 30
0.0
 11
1006004.577969612
 21
62856.60962459691
 31
0.0
  0
LINE
  5
BA
330
B6
100
AcDbEntity
  8
BAR-GAL
 62
0
370
-2
440
16777216
100
AcDbLine
 10
1006062.691237248
 20
62256.48360231355
 30
0.0
 11
1006004.577969612
 21
62256.48360231355
 31
0.0
  0
LINE
  5
BB
330
B6
100
AcDbEntity
  8
BAR-GAL
 62
0
370
-2
440
16777216
100
AcDbLine
 10
1006005.827969612
 20
62826.60962459692
 30
0.0
 11
1006005.827969612
 21
62286.48360231355
 31
0.0
  0
SOLID
  5
BC
330
B6
100
AcDbEntity
  8
BAR-GAL
 62
0
370
13
440
16777216
100
AcDbTrace
 10
1006000.827969612
 20
62826.60962459692
 30
0.0
 11
1006010.827969612
 21
62826.60962459692
 31
0.0
 12
1006005.827969612
 22
62856.60962459691
 32
0.0
 13
1006005.827969612
 23
62856.60962459691
 33
0.0
  0
SOLID
  5
BD
330
B6
100
AcDbEntity
  8
BAR-GAL
 62
0
370
13
440
16777216
100
AcDbTrace
 10
1006000.827969612
 20
62286.48360231355
 30
0.0
 11
1006010.827969612
 21
62286.48360231355
 31
0.0
 12
1006005.827969612
 22
62256.48360231355
 32
0.0
 13
1006005.827969612
 23
62256.48360231355
 33
0.0
  0
MTEXT
  5
BE
330
B6
100
AcDbEntity
  8
BAR-GAL
 62
0
370
13
440
16777216
100
AcDbMText
 10
1005980.51077998
 20
62556.54661345493
 30
0.0
 40
30.0
 41
0.0
 46
0.0
 71
5
  1
600
 11
1e-16
 21
1.0
 31
0.0
  0
POINT
  5
BF
330
B6
100
AcDbEntity
  8
Defpoints
 62
0
370
13
440
16777216
100
AcDbPoint
 10
1006064.660138882
 20
62856.60962459691
 30
0.0
  0
POINT
  5
C0
330
B6
100
AcDbEntity
  8
Defpoints
 62
0
370
13
440
16777216
100
AcDbPoint
 10
1006063.316237248
 20
62256.48360231355
 30
0.0
  0
POINT
  5
C1
330
B6
100
AcDbEntity
  8
Defpoints
 62
0
370
13
440
16777216
100
AcDbPoint
 10
1006005.827969612
 20
62256.48360231355
 30
0.0
  0
ENDBLK
  5
B8
330
B6
100
AcDbEntity
  8
0
100
AcDbBlockEnd
  0
BLOCK
  5
DD
330
DC
100
AcDbEntity
  8
0
100
AcDbBlockBegin
  2
*D10
 70
1
 10
0.0
 20
0.0
 30
0.0
  3
*D10
  1

  0
LINE
  5
DF
330
DC
100
AcDbEntity
  8
BAR-GAL
 62
0
370
-2
440
16777216
100
AcDbLine
 10
1004861.952907598
 20
62580.71399424577
 30
0.0
 11
1004861.952907598
 21
62480.10151026949
 31
0.0
  0
LINE
  5
E0
330
DC
100
AcDbEntity
  8
BAR-GAL
 62
0
370
-2
440
16777216
100
AcDbLine
 10
1005156.952907598
 20
62580.71399424576
 30
0.0
 11
1005156.952907598
 21
62480.10151026949
 31
0.0
  0
LINE
  5
E1
330
DC
100
AcDbEntity
  8
BAR-GAL
 62
0
370
-2
440
16777216
100
AcDbLine
 10
1004891.952907598
 20
62481.35151026949
 30
0.0
 11
1005126.952907598
 21
62481.35151026949
 31
0.0
  0
SOLID
  5
E2
330
DC
100
AcDbEntity
  8
BAR-GAL
 62
0
370
13
440
16777216
100
AcDbTrace
 10
1004891.952907598
 20
62486.35151026949
 30
0.0
 11
1004891.952907598
 21
62476.35151026949
 31
0.0
 12
1004861.952907598
 22
62481.35151026949
 32
0.0
 13
1004861.952907598
 23
62481.35151026949
 33
0.0
  0
SOLID
  5
E3
330
DC
100
AcDbEntity
  8
BAR-GAL
 62
0
370
13
440
16777216
100
AcDbTrace
 10
1005126.952907598
 20
62486.35151026949
 30
0.0
 11
1005126.952907598
 21
62476.35151026949
 31
0.0
 12
1005156.952907598
 22
62481.35151026949
 32
0.0
 13
1005156.952907598
 23
62481.35151026949
 33
0.0
  0
MTEXT
  5
E4
330
DC
100
AcDbEntity
  8
BAR-GAL
 62
0
370
13
440
16777216
100
AcDbMText
 10
1005009.452907598
 20
62506.66869990114
 30
0.0
 40
30.0
 41
0.0
 46
0.0
 71
5
  1
295
  0
POINT
  5
E5
330
DC
100
AcDbEntity
  8
Defpoints
 62
0
370
13
440
16777216
100
AcDbPoint
 10
1004861.952907598
 20
62581.33899424576
 30
0.0
  0
POINT
  5
E6
330
DC
100
AcDbEntity
  8
Defpoints
 62
0
370
13
440
16777216
100
AcDbPoint
 10
1005156.952907598
 20
62581.33899424575
 30
0.0
  0
POINT
  5
E7
330
DC
100
AcDbEntity
  8
Defpoints
 62
0
370
13
440
16777216
100
AcDbPoint
 10
1005156.952907598
 20
62481.35151026949
 30
0.0
  0
ENDBLK
  5
DE
330
DC
100
AcDbEntity
  8
0
100
AcDbBlockEnd
  0
BLOCK
  5
EA
330
E9
100
AcDbEntity
  8
0
100
AcDbBlockBegin
  2
*D11
 70
1
 10
0.0
 20
0.0
 30
0.0
  3
*D11
  1

  0
LINE
  5
EC
330
E9
100
AcDbEntity
  8
BAR-GAL
 62
0
370
-2
440
16777216
100
AcDbLine
 10
1005539.149060511
 20
61015.28241975679
 30
0.0
 11
1005539.149060511
 21
60576.73395994162
 31
0.0
  0
LINE
  5
ED
330
E9
100
AcDbEntity
  8
BAR-GAL
 62
0
370
-2
440
16777216
100
AcDbLine
 10
1005835.149060511
 20
61015.28241975679
 30
0.0
 11
1005835.149060511
 21
60576.73395994162
 31
0.0
  0
LINE
  5
EE
330
E9
100
AcDbEntity
  8
BAR-GAL
 62
0
370
-2
440
16777216
100
AcDbLine
 10
1005569.149060511
 20
60577.98395994161
 30
0.0
 11
1005805.149060511
 21
60577.98395994161
 31
0.0
  0
SOLID
  5
EF
330
E9
100
AcDbEntity
  8
BAR-GAL
 62
0
370
13
440
16777216
100
AcDbTrace
 10
1005569.149060511
 20
60582.98395994161
 30
0.0
 11
1005569.149060511
 21
60572.98395994162
 31
0.0
 12
1005539.149060511
 22
60577.98395994161
 32
0.0
 13
1005539.149060511
 23
60577.98395994161
 33
0.0
  0
SOLID
  5
F0
330
E9
100
AcDbEntity
  8
BAR-GAL
 62
0
370
13
440
16777216
100
AcDbTrace
 10
1005805.149060511
 20
60582.98395994161
 30
0.0
 11
1005805.149060511
 21
60572.98395994162
 31
0.0
 12
1005835.149060511
 22
60577.98395994161
 32
0.0
 13
1005835.149060511
 23
60577.98395994161
 33
0.0
  0
MTEXT
  5
F1
330
E9
100
AcDbEntity
  8
BAR-GAL
 62
0
370
13
440
16777216
100
AcDbMText
 10
1005687.149060511
 20
60603.30114957326
 30
0.0
 40
30.0
 41
0.0
 46
0.0
 71
5
  1
296
  0
POINT
  5
F2
330
E9
100
AcDbEntity
  8
Defpoints
 62
0
370
13
440
16777216
100
AcDbPoint
 10
1005539.149060511
 20
61015.90741975679
 30
0.0
  0
POINT
  5
F3
330
E9
100
AcDbEntity
  8
Defpoints
 62
0
370
13
440
16777216
100
AcDbPoint
 10
1005835.149060511
 20
61015.90741975679
 30
0.0
  0
POINT
  5
F4
330
E9
100
AcDbEntity
  8
Defpoints
 62
0
370
13
440
16777216
100
AcDbPoint
 10
1005835.149060511
 20
60577.98395994161
 30
0.0
  0
ENDBLK
  5
EB
330
E9
100
AcDbEntity
  8
0
100
AcDbBlockEnd
  0
BLOCK
  5
F7
330
F6
100
AcDbEntity
  8
0
100
AcDbBlockBegin
  2
*D12
 70
1
 10
0.0
 20
0.0
 30
0.0
  3
*D12
  1

  0
LINE
  5
F9
330
F6
100
AcDbEntity
  8
BAR-GAL
 62
0
370
-2
440
16777216
100
AcDbLine
 10
1005835.149060511
 20
61015.28241975679
 30
0.0
 11
1005835.149060511
 21
60576.73395994162
 31
0.0
  0
LINE
  5
FA
330
F6
100
AcDbEntity
  8
BAR-GAL
 62
0
370
-2
440
16777216
100
AcDbLine
 10
1006299.149060511
 20
61015.28241975679
 30
0.0
 11
1006299.149060511
 21
60576.73395994162
 31
0.0
  0
LINE
  5
FB
330
F6
100
AcDbEntity
  8
BAR-GAL
 62
0
370
-2
440
16777216
100
AcDbLine
 10
1005865.149060511
 20
60577.98395994161
 30
0.0
 11
1006269.149060511
 21
60577.98395994161
 31
0.0
  0
SOLID
  5
FC
330
F6
100
AcDbEntity
  8
BAR-GAL
 62
0
370
13
440
16777216
100
AcDbTrace
 10
1005865.149060511
 20
60582.98395994161
 30
0.0
 11
1005865.149060511
 21
60572.98395994162
 31
0.0
 12
1005835.149060511
 22
60577.98395994161
 32
0.0
 13
1005835.149060511
 23
60577.98395994161
 33
0.0
  0
SOLID
  5
FD
330
F6
100
AcDbEntity
  8
BAR-GAL
 62
0
370
13
440
16777216
100
AcDbTrace
 10
1006269.149060511
 20
60582.98395994161
 30
0.0
 11
1006269.149060511
 21
60572.98395994162
 31
0.0
 12
1006299.149060511
 22
60577.98395994161
 32
0.0
 13
1006299.149060511
 23
60577.98395994161
 33
0.0
  0
MTEXT
  5
FE
330
F6
100
AcDbEntity
  8
BAR-GAL
 62
0
370
13
440
16777216
100
AcDbMText
 10
1006067.149060511
 20
60603.30114957326
 30
0.0
 40
30.0
 41
0.0
 46
0.0
 71
5
  1
464
  0
POINT
  5
FF
330
F6
100
AcDbEntity
  8
Defpoints
 62
0
370
13
440
16777216
100
AcDbPoint
 10
1005835.149060511
 20
61015.90741975679
 30
0.0
  0
POINT
  5
100
330
F6
100
AcDbEntity
  8
Defpoints
 62
0
370
13
440
16777216
100
AcDbPoint
 10
1006299.149060511
 20
61015.90741975679
 30
0.0
  0
POINT
  5
101
330
F6
100
AcDbEntity
  8
Defpoints
 62
0
370
13
440
16777216
100
AcDbPoint
 10
1006299.149060511
 20
60577.98395994161
 30
0.0
  0
ENDBLK
  5
F8
330
F6
100
AcDbEntity
  8
0
100
AcDbBlockEnd
  0
BLOCK
  5
104
330
103
100
AcDbEntity
  8
0
100
AcDbBlockBegin
  2
*D13
 70
1
 10
0.0
 20
0.0
 30
0.0
  3
*D13
  1

  0
LINE
  5
106
330
103
100
AcDbEntity
  8
BAR-GAL
 62
0
370
-2
440
16777216
100
AcDbLine
 10
1006325.157520928
 20
62034.39423567409
 30
0.0
 11
1006325.157520928
 21
62080.33116729573
 31
0.0
  0
LINE
  5
107
330
103
100
AcDbEntity
  8
BAR-GAL
 62
0
370
-2
440
16777216
100
AcDbLine
 10
1006064.660138881
 20
62034.39423567409
 30
0.0
 11
1006064.660138881
 21
62080.33116729573
 31
0.0
  0
LINE
  5
108
330
103
100
AcDbEntity
  8
BAR-GAL
 62
0
370
-2
440
16777216
100
AcDbLine
 10
1006295.157520928
 20
62079.08116729574
 30
0.0
 11
1006094.660138881
 21
62079.08116729574
 31
0.0
  0
SOLID
  5
109
330
103
100
AcDbEntity
  8
BAR-GAL
 62
0
370
13
440
16777216
100
AcDbTrace
 10
1006295.157520928
 20
62084.08116729573
 30
0.0
 11
1006295.157520928
 21
62074.08116729573
 31
0.0
 12
1006325.157520928
 22
62079.08116729574
 32
0.0
 13
1006325.157520928
 23
62079.08116729574
 33
0.0
  0
SOLID
  5
10A
330
103
100
AcDbEntity
  8
BAR-GAL
 62
0
370
13
440
16777216
100
AcDbTrace
 10
1006094.660138881
 20
62084.08116729573
 30
0.0
 11
1006094.660138881
 21
62074.08116729573
 31
0.0
 12
1006064.660138881
 22
62079.08116729574
 32
0.0
 13
1006064.660138881
 23
62079.08116729574
 33
0.0
  0
MTEXT
  5
10B
330
103
100
AcDbEntity
  8
BAR-GAL
 62
0
370
13
440
16777216
100
AcDbMText
 10
1006194.908829905
 20
62104.39835692739
 30
0.0
 40
30.0
 41
0.0
 46
0.0
 71
5
  1
260
  0
POINT
  5
10C
330
103
100
AcDbEntity
  8
Defpoints
 62
0
370
13
440
16777216
100
AcDbPoint
 10
1006325.157520928
 20
62033.76923567408
 30
0.0
  0
POINT
  5
10D
330
103
100
AcDbEntity
  8
Defpoints
 62
0
370
13
440
16777216
100
AcDbPoint
 10
1006064.660138881
 20
62033.76923567408
 30
0.0
  0
POINT
  5
10E
330
103
100
AcDbEntity
  8
Defpoints
 62
0
370
13
440
16777216
100
AcDbPoint
 10
1006064.660138881
 20
62079.08116729574
 30
0.0
  0
ENDBLK
  5
105
330
103
100
AcDbEntity
  8
0
100
AcDbBlockEnd
  0
BLOCK
  5
111
330
110
100
AcDbEntity
  8
0
100
AcDbBlockBegin
  2
*D14
 70
1
 10
0.0
 20
0.0
 30
0.0
  3
*D14
  1

  0
LINE
  5
113
330
110
100
AcDbEntity
  8
BAR-GAL
 62
0
370
-2
440
16777216
100
AcDbLine
 10
1005004.938659749
 20
61710.98362112826
 30
0.0
 11
1005004.938659749
 21
61810.67376410425
 31
0.0
  0
LINE
  5
114
330
110
100
AcDbEntity
  8
BAR-GAL
 62
0
370
-2
440
16777216
100
AcDbLine
 10
1005278.938659748
 20
61710.98362112826
 30
0.0
 11
1005278.938659748
 21
61810.67376410425
 31
0.0
  0
LINE
  5
115
330
110
100
AcDbEntity
  8
BAR-GAL
 62
0
370
-2
440
16777216
100
AcDbLine
 10
1005034.938659749
 20
61809.42376410425
 30
0.0
 11
1005248.938659748
 21
61809.42376410425
 31
0.0
  0
SOLID
  5
116
330
110
100
AcDbEntity
  8
BAR-GAL
 62
0
370
13
440
16777216
100
AcDbTrace
 10
1005034.938659749
 20
61814.42376410425
 30
0.0
 11
1005034.938659749
 21
61804.42376410424
 31
0.0
 12
1005004.938659749
 22
61809.42376410425
 32
0.0
 13
1005004.938659749
 23
61809.42376410425
 33
0.0
  0
SOLID
  5
117
330
110
100
AcDbEntity
  8
BAR-GAL
 62
0
370
13
440
16777216
100
AcDbTrace
 10
1005248.938659748
 20
61814.42376410425
 30
0.0
 11
1005248.938659748
 21
61804.42376410424
 31
0.0
 12
1005278.938659748
 22
61809.42376410425
 32
0.0
 13
1005278.938659748
 23
61809.42376410425
 33
0.0
  0
MTEXT
  5
118
330
110
100
AcDbEntity
  8
BAR-GAL
 62
0
370
13
440
16777216
100
AcDbMText
 10
1005141.938659748
 20
61834.48515564585
 30
0.0
 40
30.0
 41
0.0
 46
0.0
 71
5
  1
274
  0
POINT
  5
119
330
110
100
AcDbEntity
  8
Defpoints
 62
0
370
13
440
16777216
100
AcDbPoint
 10
1005004.938659749
 20
61710.35862112827
 30
0.0
  0
POINT
  5
11A
330
110
100
AcDbEntity
  8
Defpoints
 62
0
370
13
440
16777216
100
AcDbPoint
 10
1005278.938659748
 20
61710.35862112827
 30
0.0
  0
POINT
  5
11B
330
110
100
AcDbEntity
  8
Defpoints
 62
0
370
13
440
16777216
100
AcDbPoint
 10
1005278.938659748
 20
61809.42376410425
 30
0.0
  0
ENDBLK
  5
112
330
110
100
AcDbEntity
  8
0
100
AcDbBlockEnd
  0
BLOCK
  5
120
330
11F
100
AcDbEntity
  8
0
100
AcDbBlockBegin
  2
*D15
 70
1
 10
0.0
 20
0.0
 30
0.0
  3
*D15
  1

  0
LINE
  5
122
330
11F
100
AcDbEntity
  8
BAR-GAL
 62
0
370
-2
440
16777216
100
AcDbLine
 10
1005278.21797378
 20
61773.21394992497
 30
0.0
 11
1005278.21797378
 21
61810.5536497762
 31
0.0
  0
LINE
  5
123
330
11F
100
AcDbEntity
  8
BAR-GAL
 62
0
370
-2
440
16777216
100
AcDbLine
 10
1005429.21797378
 20
61773.21394992497
 30
0.0
 11
1005429.21797378
 21
61810.5536497762
 31
0.0
  0
LINE
  5
124
330
11F
100
AcDbEntity
  8
BAR-GAL
 62
0
370
-2
440
16777216
100
AcDbLine
 10
1005308.21797378
 20
61809.3036497762
 30
0.0
 11
1005399.21797378
 21
61809.3036497762
 31
0.0
  0
SOLID
  5
125
330
11F
100
AcDbEntity
  8
BAR-GAL
 62
0
370
13
440
16777216
100
AcDbTrace
 10
1005308.21797378
 20
61814.3036497762
 30
0.0
 11
1005308.21797378
 21
61804.30364977619
 31
0.0
 12
1005278.21797378
 22
61809.3036497762
 32
0.0
 13
1005278.21797378
 23
61809.3036497762
 33
0.0
  0
SOLID
  5
126
330
11F
100
AcDbEntity
  8
BAR-GAL
 62
0
370
13
440
16777216
100
AcDbTrace
 10
1005399.21797378
 20
61814.3036497762
 30
0.0
 11
1005399.21797378
 21
61804.30364977619
 31
0.0
 12
1005429.21797378
 22
61809.3036497762
 32
0.0
 13
1005429.21797378
 23
61809.3036497762
 33
0.0
  0
MTEXT
  5
127
330
11F
100
AcDbEntity
  8
BAR-GAL
 62
0
370
13
440
16777216
100
AcDbMText
 10
1005353.71797378
 20
61834.62083940785
 30
0.0
 40
30.0
 41
0.0
 46
0.0
 71
5
  1
151
  0
POINT
  5
128
330
11F
100
AcDbEntity
  8
Defpoints
 62
0
370
13
440
16777216
100
AcDbPoint
 10
1005278.21797378
 20
61772.58894992497
 30
0.0
  0
POINT
  5
129
330
11F
100
AcDbEntity
  8
Defpoints
 62
0
370
13
440
16777216
100
AcDbPoint
 10
1005429.21797378
 20
61772.58894992497
 30
0.0
  0
POINT
  5
12A
330
11F
100
AcDbEntity
  8
Defpoints
 62
0
370
13
440
16777216
100
AcDbPoint
 10
1005429.21797378
 20
61809.3036497762
 30
0.0
  0
ENDBLK
  5
121
330
11F
100
AcDbEntity
  8
0
100
AcDbBlockEnd
  0
BLOCK
  5
12F
330
12E
100
AcDbEntity
  8
0
100
AcDbBlockBegin
  2
*D16
 70
1
 10
0.0
 20
0.0
 30
0.0
  3
*D16
  1

  0
LINE
  5
131
330
12E
100
AcDbEntity
  8
BAR-GAL
 62
0
370
-2
440
16777216
100
AcDbLine
 10
1005429.21797378
 20
61778.34558435373
 30
0.0
 11
1005429.21797378
 21
61810.5536497762
 31
0.0
  0
LINE
  5
132
330
12E
100
AcDbEntity
  8
BAR-GAL
 62
0
370
-2
440
16777216
100
AcDbLine
 10
1005494.21797378
 20
61778.34558435373
 30
0.0
 11
1005494.21797378
 21
61810.5536497762
 31
0.0
  0
LINE
  5
133
330
12E
100
AcDbEntity
  8
BAR-GAL
 62
0
370
-2
440
16777216
100
AcDbLine
 10
1005399.21797378
 20
61809.3036497762
 30
0.0
 11
1005369.21797378
 21
61809.3036497762
 31
0.0
  0
LINE
  5
134
330
12E
100
AcDbEntity
  8
BAR-GAL
 62
0
370
-2
440
16777216
100
AcDbLine
 10
1005524.21797378
 20
61809.3036497762
 30
0.0
 11
1005554.21797378
 21
61809.3036497762
 31
0.0
  0
LINE
  5
135
330
12E
100
AcDbEntity
  8
BAR-GAL
 62
0
370
-2
440
16777216
100
AcDbLine
 10
1005429.21797378
 20
61809.3036497762
 30
0.0
 11
1005494.21797378
 21
61809.3036497762
 31
0.0
  0
SOLID
  5
136
330
12E
100
AcDbEntity
  8
BAR-GAL
 62
0
370
13
440
16777216
100
AcDbTrace
 10
1005399.21797378
 20
61814.3036497762
 30
0.0
 11
1005399.21797378
 21
61804.30364977619
 31
0.0
 12
1005429.21797378
 22
61809.3036497762
 32
0.0
 13
1005429.21797378
 23
61809.3036497762
 33
0.0
  0
SOLID
  5
137
330
12E
100
AcDbEntity
  8
BAR-GAL
 62
0
370
13
440
16777216
100
AcDbTrace
 10
1005524.21797378
 20
61814.3036497762
 30
0.0
 11
1005524.21797378
 21
61804.30364977619
 31
0.0
 12
1005494.21797378
 22
61809.3036497762
 32
0.0
 13
1005494.21797378
 23
61809.3036497762
 33
0.0
  0
MTEXT
  5
138
330
12E
100
AcDbEntity
  8
BAR-GAL
 62
0
370
13
440
16777216
100
AcDbMText
 10
1005461.71797378
 20
61834.62083940785
 30
0.0
 40
30.0
 41
0.0
 46
0.0
 71
5
  1
65
  0
POINT
  5
139
330
12E
100
AcDbEntity
  8
Defpoints
 62
0
370
13
440
16777216
100
AcDbPoint
 10
1005429.21797378
 20
61777.72058435373
 30
0.0
  0
POINT
  5
13A
330
12E
100
AcDbEntity
  8
Defpoints
 62
0
370
13
440
16777216
100
AcDbPoint
 10
1005494.21797378
 20
61777.72058435373
 30
0.0
  0
POINT
  5
13B
330
12E
100
AcDbEntity
  8
Defpoints
 62
0
370
13
440
16777216
100
AcDbPoint
 10
1005494.21797378
 20
61809.3036497762
 30
0.0
  0
ENDBLK
  5
130
330
12E
100
AcDbEntity
  8
0
100
AcDbBlockEnd
  0
BLOCK
  5
13E
330
13D
100
AcDbEntity
  8
0
100
AcDbBlockBegin
  2
*D17
 70
1
 10
0.0
 20
0.0
 30
0.0
  3
*D17
  1

  0
LINE
  5
140
330
13D
100
AcDbEntity
  8
BAR-GAL
 62
0
370
-2
440
16777216
100
AcDbLine
 10
1005539.846606523
 20
60875.90741975683
 30
0.0
 11
1005608.419735146
 21
60875.90741975683
 31
0.0
  0
LINE
  5
141
330
13D
100
AcDbEntity
  8
BAR-GAL
 62
0
370
-2
440
16777216
100
AcDbLine
 10
1005539.774060512
 20
61015.90741975682
 30
0.0
 11
1005608.419735146
 21
61015.90741975682
 31
0.0
  0
LINE
  5
142
330
13D
100
AcDbEntity
  8
BAR-GAL
 62
0
370
-2
440
16777216
100
AcDbLine
 10
1005607.169735146
 20
60905.90741975683
 30
0.0
 11
1005607.169735146
 21
60985.90741975683
 31
0.0
  0
SOLID
  5
143
330
13D
100
AcDbEntity
  8
BAR-GAL
 62
0
370
13
440
16777216
100
AcDbTrace
 10
1005602.169735146
 20
60905.90741975683
 30
0.0
 11
1005612.169735146
 21
60905.90741975683
 31
0.0
 12
1005607.169735146
 22
60875.90741975683
 32
0.0
 13
1005607.169735146
 23
60875.90741975683
 33
0.0
  0
SOLID
  5
144
330
13D
100
AcDbEntity
  8
BAR-GAL
 62
0
370
13
440
16777216
100
AcDbTrace
 10
1005602.169735146
 20
60985.90741975683
 30
0.0
 11
1005612.169735146
 21
60985.90741975683
 31
0.0
 12
1005607.169735146
 22
61015.90741975682
 32
0.0
 13
1005607.169735146
 23
61015.90741975682
 33
0.0
  0
MTEXT
  5
145
330
13D
100
AcDbEntity
  8
BAR-GAL
 62
0
370
13
440
16777216
100
AcDbMText
 10
1005581.852545514
 20
60945.90741975652
 30
0.0
 40
30.0
 41
0.0
 46
0.0
 71
5
  1
140
 11
1e-16
 21
1.0
 31
0.0
  0
POINT
  5
146
330
13D
100
AcDbEntity
  8
Defpoints
 62
0
370
13
440
16777216
100
AcDbPoint
 10
1005539.221606523
 20
60875.90741975683
 30
0.0
  0
POINT
  5
147
330
13D
100
AcDbEntity
  8
Defpoints
 62
0
370
13
440
16777216
100
AcDbPoint
 10
1005539.149060512
 20
61015.90741975682
 30
0.0
  0
POINT
  5
148
330
13D
100
AcDbEntity
  8
Defpoints
 62
0
370
13
440
16777216
100
AcDbPoint
 10
1005607.169735146
 20
61015.90741975682
 30
0.0
  0
ENDBLK
  5
13F
330
13D
100
AcDbEntity
  8
0
100
AcDbBlockEnd
  0
BLOCK
  5
14B
330
14A
100
AcDbEntity
  8
0
100
AcDbBlockBegin
  2
*D18
 70
1
 10
0.0
 20
0.0
 30
0.0
  3
*D18
  1

  0
LINE
  5
14D
330
14A
100
AcDbEntity
  8
BAR-GAL
 62
0
370
-2
440
16777216
100
AcDbLine
 10
1006065.035645062
 20
62036.80604577591
 30
0.0
 11
1006065.035645062
 21
62081.58116729573
 31
0.0
  0
LINE
  5
14E
330
14A
100
AcDbEntity
  8
BAR-GAL
 62
0
370
-2
440
16777216
100
AcDbLine
 10
1005617.122099406
 20
62036.80604577591
 30
0.0
 11
1005617.122099406
 21
62081.58116729573
 31
0.0
  0
LINE
  5
14F
330
14A
100
AcDbEntity
  8
BAR-GAL
 62
0
370
-2
440
16777216
100
AcDbLine
 10
1006035.035645062
 20
62080.33116729573
 30
0.0
 11
1005647.122099406
 21
62080.33116729573
 31
0.0
  0
SOLID
  5
150
330
14A
100
AcDbEntity
  8
BAR-GAL
 62
0
370
13
440
16777216
100
AcDbTrace
 10
1006035.035645062
 20
62085.33116729573
 30
0.0
 11
1006035.035645062
 21
62075.33116729574
 31
0.0
 12
1006065.035645062
 22
62080.33116729573
 32
0.0
 13
1006065.035645062
 23
62080.33116729573
 33
0.0
  0
SOLID
  5
151
330
14A
100
AcDbEntity
  8
BAR-GAL
 62
0
370
13
440
16777216
100
AcDbTrace
 10
1005647.122099406
 20
62085.33116729573
 30
0.0
 11
1005647.122099406
 21
62075.33116729574
 31
0.0
 12
1005617.122099406
 22
62080.33116729573
 32
0.0
 13
1005617.122099406
 23
62080.33116729573
 33
0.0
  0
MTEXT
  5
152
330
14A
100
AcDbEntity
  8
BAR-GAL
 62
0
370
13
440
16777216
100
AcDbMText
 10
1005841.078872234
 20
62105.64835692738
 30
0.0
 40
30.0
 41
0.0
 46
0.0
 71
5
  1
448
  0
POINT
  5
153
330
14A
100
AcDbEntity
  8
Defpoints
 62
0
370
13
440
16777216
100
AcDbPoint
 10
1006065.035645062
 20
62036.18104577591
 30
0.0
  0
POINT
  5
154
330
14A
100
AcDbEntity
  8
Defpoints
 62
0
370
13
440
16777216
100
AcDbPoint
 10
1005617.122099406
 20
62036.18104577591
 30
0.0
  0
POINT
  5
155
330
14A
100
AcDbEntity
  8
Defpoints
 62
0
370
13
440
16777216
100
AcDbPoint
 10
1005617.122099406
 20
62080.33116729573
 30
0.0
  0
ENDBLK
  5
14C
330
14A
100
AcDbEntity
  8
0
100
AcDbBlockEnd
  0
BLOCK
  5
159
330
158
100
AcDbEntity
  8
0
100
AcDbBlockBegin
  2
*D19
 70
1
 10
0.0
 20
0.0
 30
0.0
  3
*D19
  1

  0
LINE
  5
15B
330
158
100
AcDbEntity
  8
BAR-GAL
 62
0
370
-2
440
16777216
100
AcDbLine
 10
1005617.122099406
 20
62036.80604577591
 30
0.0
 11
1005617.122099406
 21
62081.67308978192
 31
0.0
  0
LINE
  5
15C
330
158
100
AcDbEntity
  8
BAR-GAL
 62
0
370
-2
440
16777216
100
AcDbLine
 10
1005156.952907598
 20
62036.80604577591
 30
0.0
 11
1005156.952907598
 21
62081.67308978192
 31
0.0
  0
LINE
  5
15D
330
158
100
AcDbEntity
  8
BAR-GAL
 62
0
370
-2
440
16777216
100
AcDbLine
 10
1005587.122099406
 20
62080.42308978193
 30
0.0
 11
1005186.952907598
 21
62080.42308978193
 31
0.0
  0
SOLID
  5
15E
330
158
100
AcDbEntity
  8
BAR-GAL
 62
0
370
13
440
16777216
100
AcDbTrace
 10
1005587.122099406
 20
62085.42308978192
 30
0.0
 11
1005587.122099406
 21
62075.42308978193
 31
0.0
 12
1005617.122099406
 22
62080.42308978193
 32
0.0
 13
1005617.122099406
 23
62080.42308978193
 33
0.0
  0
SOLID
  5
15F
330
158
100
AcDbEntity
  8
BAR-GAL
 62
0
370
13
440
16777216
100
AcDbTrace
 10
1005186.952907598
 20
62085.42308978192
 30
0.0
 11
1005186.952907598
 21
62075.42308978193
 31
0.0
 12
1005156.952907598
 22
62080.42308978193
 32
0.0
 13
1005156.952907598
 23
62080.42308978193
 33
0.0
  0
MTEXT
  5
160
330
158
100
AcDbEntity
  8
BAR-GAL
 62
0
370
13
440
16777216
100
AcDbMText
 10
1005387.037503503
 20
62105.74027941357
 30
0.0
 40
30.0
 41
0.0
 46
0.0
 71
5
  1
460
  0
POINT
  5
161
330
158
100
AcDbEntity
  8
Defpoints
 62
0
370
13
440
16777216
100
AcDbPoint
 10
1005617.122099406
 20
62036.18104577591
 30
0.0
  0
POINT
  5
162
330
158
100
AcDbEntity
  8
Defpoints
 62
0
370
13
440
16777216
100
AcDbPoint
 10
1005156.952907598
 20
62036.18104577591
 30
0.0
  0
POINT
  5
163
330
158
100
AcDbEntity
  8
Defpoints
 62
0
370
13
440
16777216
100
AcDbPoint
 10
1005156.952907598
 20
62080.42308978193
 30
0.0
  0
ENDBLK
  5
15A
330
158
100
AcDbEntity
  8
0
100
AcDbBlockEnd
  0
BLOCK
  5
166
330
165
100
AcDbEntity
  8
0
100
AcDbBlockBegin
  2
*D20
 70
1
 10
0.0
 20
0.0
 30
0.0
  3
*D20
  1

  0
LINE
  5
168
330
165
100
AcDbEntity
  8
BAR-GAL
 62
0
370
-2
440
16777216
100
AcDbLine
 10
1004667.149060511
 20
60875.2824197568
 30
0.0
 11
1004667.149060511
 21
60433.8225571381
 31
0.0
  0
LINE
  5
169
330
165
100
AcDbEntity
  8
BAR-GAL
 62
0
370
-2
440
16777216
100
AcDbLine
 10
1006327.157520928
 20
61573.08082385671
 30
0.0
 11
1006327.157520928
 21
60433.8225571381
 31
0.0
  0
LINE
  5
16A
330
165
100
AcDbEntity
  8
BAR-GAL
 62
0
370
-2
440
16777216
100
AcDbLine
 10
1004697.149060511
 20
60435.0725571381
 30
0.0
 11
1006297.157520928
 21
60435.0725571381
 31
0.0
  0
SOLID
  5
16B
330
165
100
AcDbEntity
  8
BAR-GAL
 62
0
370
13
440
16777216
100
AcDbTrace
 10
1004697.149060511
 20
60440.07255713809
 30
0.0
 11
1004697.149060511
 21
60430.0725571381
 31
0.0
 12
1004667.149060511
 22
60435.0725571381
 32
0.0
 13
1004667.149060511
 23
60435.0725571381
 33
0.0
  0
SOLID
  5
16C
330
165
100
AcDbEntity
  8
BAR-GAL
 62
0
370
13
440
16777216
100
AcDbTrace
 10
1006297.157520928
 20
60440.07255713809
 30
0.0
 11
1006297.157520928
 21
60430.0725571381
 31
0.0
 12
1006327.157520928
 22
60435.0725571381
 32
0.0
 13
1006327.157520928
 23
60435.0725571381
 33
0.0
  0
MTEXT
  5
16D
330
165
100
AcDbEntity
  8
BAR-GAL
 62
0
370
13
440
16777216
100
AcDbMText
 10
1005497.153290719
 20
60460.38974676974
 30
0.0
 40
30.0
 41
0.0
 46
0.0
 71
5
  1
1660
  0
POINT
  5
16E
330
165
100
AcDbEntity
  8
Defpoints
 62
0
370
13
440
16777216
100
AcDbPoint
 10
1004667.149060511
 20
60875.90741975679
 30
0.0
  0
POINT
  5
16F
330
165
100
AcDbEntity
  8
Defpoints
 62
0
370
13
440
16777216
100
AcDbPoint
 10
1006327.157520928
 20
61573.70582385671
 30
0.0
  0
POINT
  5
170
330
165
100
AcDbEntity
  8
Defpoints
 62
0
370
13
440
16777216
100
AcDbPoint
 10
1006327.157520928
 20
60435.0725571381
 30
0.0
  0
ENDBLK
  5
167
330
165
100
AcDbEntity
  8
0
100
AcDbBlockEnd
  0
BLOCK
  5
178
330
177
100
AcDbEntity
  8
0
100
AcDbBlockBegin
  2
*D21
 70
1
 10
0.0
 20
0.0
 30
0.0
  3
*D21
  1

  0
LINE
  5
17A
330
177
100
AcDbEntity
  8
BAR-GAL
 62
0
370
-2
440
16777216
100
AcDbLine
 10
1005430.829099281
 20
61777.72058435376
 30
0.0
 11
1005558.543282938
 21
61777.72058435376
 31
0.0
  0
LINE
  5
17B
330
177
100
AcDbEntity
  8
BAR-GAL
 62
0
370
-2
440
16777216
100
AcDbLine
 10
1005430.829099281
 20
61566.33899424578
 30
0.0
 11
1005558.543282938
 21
61566.33899424578
 31
0.0
  0
LINE
  5
17C
330
177
100
AcDbEntity
  8
BAR-GAL
 62
0
370
-2
440
16777216
100
AcDbLine
 10
1005557.293282938
 20
61747.72058435376
 30
0.0
 11
1005557.293282938
 21
61596.33899424577
 31
0.0
  0
SOLID
  5
17D
330
177
100
AcDbEntity
  8
BAR-GAL
 62
0
370
13
440
16777216
100
AcDbTrace
 10
1005552.293282938
 20
61747.72058435376
 30
0.0
 11
1005562.293282938
 21
61747.72058435376
 31
0.0
 12
1005557.293282938
 22
61777.72058435376
 32
0.0
 13
1005557.293282938
 23
61777.72058435376
 33
0.0
  0
SOLID
  5
17E
330
177
100
AcDbEntity
  8
BAR-GAL
 62
0
370
13
440
16777216
100
AcDbTrace
 10
1005552.293282938
 20
61596.33899424577
 30
0.0
 11
1005562.293282938
 21
61596.33899424577
 31
0.0
 12
1005557.293282938
 22
61566.33899424578
 32
0.0
 13
1005557.293282938
 23
61566.33899424578
 33
0.0
  0
MTEXT
  5
17F
330
177
100
AcDbEntity
  8
BAR-GAL
 62
0
370
13
440
16777216
100
AcDbMText
 10
1005532.231891397
 20
61672.02978929947
 30
0.0
 40
30.0
 41
0.0
 46
0.0
 71
5
  1
211
 11
1e-16
 21
1.0
 31
0.0
  0
POINT
  5
180
330
177
100
AcDbEntity
  8
Defpoints
 62
0
370
13
440
16777216
100
AcDbPoint
 10
1005430.204099281
 20
61777.72058435376
 30
0.0
  0
POINT
  5
181
330
177
100
AcDbEntity
  8
Defpoints
 62
0
370
13
440
16777216
100
AcDbPoint
 10
1005430.204099281
 20
61566.33899424578
 30
0.0
  0
POINT
  5
182
330
177
100
AcDbEntity
  8
Defpoints
 62
0
370
13
440
16777216
100
AcDbPoint
 10
1005557.293282938
 20
61566.33899424578
 30
0.0
  0
ENDBLK
  5
179
330
177
100
AcDbEntity
  8
0
100
AcDbBlockEnd
  0
BLOCK
  5
186
330
185
100
AcDbEntity
  8
0
100
AcDbBlockBegin
  2
*D22
 70
1
 10
0.0
 20
0.0
 30
0.0
  3
*D22
  1

  0
LINE
  5
188
330
185
100
AcDbEntity
  8
BAR-GAL
 62
0
370
-2
440
16777216
100
AcDbLine
 10
1005494.842973781
 20
61777.72058435376
 30
0.0
 11
1005558.543282939
 21
61777.72058435376
 31
0.0
  0
LINE
  5
189
330
185
100
AcDbEntity
  8
BAR-GAL
 62
0
370
-2
440
16777216
100
AcDbLine
 10
1005496.173047818
 20
61941.33899424579
 30
0.0
 11
1005558.543282939
 21
61941.33899424579
 31
0.0
  0
LINE
  5
18A
330
185
100
AcDbEntity
  8
BAR-GAL
 62
0
370
-2
440
16777216
100
AcDbLine
 10
1005557.293282939
 20
61807.72058435375
 30
0.0
 11
1005557.293282939
 21
61911.33899424579
 31
0.0
  0
SOLID
  5
18B
330
185
100
AcDbEntity
  8
BAR-GAL
 62
0
370
13
440
16777216
100
AcDbTrace
 10
1005552.293282939
 20
61807.72058435375
 30
0.0
 11
1005562.293282939
 21
61807.72058435375
 31
0.0
 12
1005557.293282939
 22
61777.72058435376
 32
0.0
 13
1005557.293282939
 23
61777.72058435376
 33
0.0
  0
SOLID
  5
18C
330
185
100
AcDbEntity
  8
BAR-GAL
 62
0
370
13
440
16777216
100
AcDbTrace
 10
1005552.293282939
 20
61911.33899424579
 30
0.0
 11
1005562.293282939
 21
61911.33899424579
 31
0.0
 12
1005557.293282939
 22
61941.33899424579
 32
0.0
 13
1005557.293282939
 23
61941.33899424579
 33
0.0
  0
MTEXT
  5
18D
330
185
100
AcDbEntity
  8
BAR-GAL
 62
0
370
13
440
16777216
100
AcDbMText
 10
1005531.976093307
 20
61859.52978929947
 30
0.0
 40
30.0
 41
0.0
 46
0.0
 71
5
  1
164
 11
1e-16
 21
1.0
 31
0.0
  0
POINT
  5
18E
330
185
100
AcDbEntity
  8
Defpoints
 62
0
370
13
440
16777216
100
AcDbPoint
 10
1005494.217973781
 20
61777.72058435376
 30
0.0
  0
POINT
  5
18F
330
185
100
AcDbEntity
  8
Defpoints
 62
0
370
13
440
16777216
100
AcDbPoint
 10
1005495.548047818
 20
61941.33899424579
 30
0.0
  0
POINT
  5
190
330
185
100
AcDbEntity
  8
Defpoints
 62
0
370
13
440
16777216
100
AcDbPoint
 10
1005557.293282939
 20
61941.33899424579
 30
0.0
  0
ENDBLK
  5
187
330
185
100
AcDbEntity
  8
0
100
AcDbBlockEnd
  0
BLOCK
  5
194
330
193
100
AcDbEntity
  8
0
100
AcDbBlockBegin
  2
*D23
 70
1
 10
0.0
 20
0.0
 30
0.0
  3
*D23
  1

  0
LINE
  5
196
330
193
100
AcDbEntity
  8
BAR-GAL
 62
0
370
-2
440
16777216
100
AcDbLine
 10
1006291.682585102
 20
60873.7058238567
 30
0.0
 11
1006772.780367377
 21
60873.7058238567
 31
0.0
  0
LINE
  5
197
330
193
100
AcDbEntity
  8
BAR-GAL
 62
0
370
-2
440
16777216
100
AcDbLine
 10
1006067.852876241
 20
63512.70582385674
 30
0.0
 11
1006772.780367377
 21
63512.70582385674
 31
0.0
  0
LINE
  5
198
330
193
100
AcDbEntity
  8
BAR-GAL
 62
0
370
-2
440
16777216
100
AcDbLine
 10
1006771.530367377
 20
60903.7058238567
 30
0.0
 11
1006771.530367377
 21
63482.70582385674
 31
0.0
  0
SOLID
  5
199
330
193
100
AcDbEntity
  8
BAR-GAL
 62
0
370
13
440
16777216
100
AcDbTrace
 10
1006766.530367377
 20
60903.7058238567
 30
0.0
 11
1006776.530367377
 21
60903.7058238567
 31
0.0
 12
1006771.530367377
 22
60873.7058238567
 32
0.0
 13
1006771.530367377
 23
60873.7058238567
 33
0.0
  0
SOLID
  5
19A
330
193
100
AcDbEntity
  8
BAR-GAL
 62
0
370
13
440
16777216
100
AcDbTrace
 10
1006766.530367377
 20
63482.70582385674
 30
0.0
 11
1006776.530367377
 21
63482.70582385674
 31
0.0
 12
1006771.530367377
 22
63512.70582385674
 32
0.0
 13
1006771.530367377
 23
63512.70582385674
 33
0.0
  0
MTEXT
  5
19B
330
193
100
AcDbEntity
  8
BAR-GAL
 62
0
370
13
440
16777216
100
AcDbMText
 10
1006746.202945821
 20
62193.20582385642
 30
0.0
 40
30.0
 41
0.0
 46
0.0
 71
5
  1
2639
 11
1e-16
 21
1.0
 31
0.0
  0
POINT
  5
19C
330
193
100
AcDbEntity
  8
Defpoints
 62
0
370
13
440
16777216
100
AcDbPoint
 10
1006291.057585102
 20
60873.7058238567
 30
0.0
  0
POINT
  5
19D
330
193
100
AcDbEntity
  8
Defpoints
 62
0
370
13
440
16777216
100
AcDbPoint
 10
1006067.227876241
 20
63512.70582385674
 30
0.0
  0
POINT
  5
19E
330
193
100
AcDbEntity
  8
Defpoints
 62
0
370
13
440
16777216
100
AcDbPoint
 10
1006771.530367377
 20
63512.70582385674
 30
0.0
  0
ENDBLK
  5
195
330
193
100
AcDbEntity
  8
0
100
AcDbBlockEnd
  0
ENDSEC
  0
SECTION
  2
ENTITIES
  0
LWPOLYLINE
  5
35
330
17
100
AcDbEntity
  8
0
370
13
100
AcDbPolyline
 90
4
 70
1
 43
3.428535235377893
 10
1007886.43429578
 20
60156.51927490788
 10
1002794.221737422
 20
60156.51927490788
 10
1002794.221737422
 20
64272.43997279946
 10
1007889.109348188
 20
64272.43997279946
  0
LWPOLYLINE
  5
36
330
17
100
AcDbEntity
  8
BAR-GAL
 62
7
370
13
100
AcDbPolyline
 90
17
 70
0
 43
15.0
 10
1006064.589747822
 20
62255.48360231352
 10
1005618.600475109
 20
62255.48360231352
 10
1005618.600475109
 20
63041.27757635766
 10
1006064.660138881
 20
63040.64079031711
 10
1006064.660138881
 20
62033.76923567408
 10
1006325.157520928
 20
62033.76923567408
 10
1006325.157520928
 20
61573.70582385671
 10
1006317.157520928
 20
61573.70582385671
 10
1006299.157520928
 20
61573.70582385671
 10
1006299.157520928
 20
60979.89494215951
 10
1005835.149060511
 20
60979.89494215951
 10
1005835.149060511
 20
61015.90741975679
 10
1005539.149060511
 20
61015.90741975679
 10
1005539.149060511
 20
60875.90741975679
 10
1005005.633414806
 20
60876.33899424577
 10
1005005.633414806
 20
61626.33899424577
 10
1005278.938659748
 20
61626.33899424577
  0
LWPOLYLINE
  5
37
330
17
100
AcDbEntity
  8
BAR-GAL
 62
7
370
13
100
AcDbPolyline
 90
4
 70
1
 43
15.0
 10
1005999.38012389
 20
62856.60962459688
 10
1006064.660138881
 20
62856.60962459688
 10
1006064.660138881
 20
63040.64079031711
 10
1005999.38012389
 20
63040.64079031711
  0
LWPOLYLINE
  5
38
330
17
100
AcDbEntity
  8
BAR-GAL
 62
8
370
13
100
AcDbPolyline
 90
4
 70
1
 10
1006064.660138881
 20
63040.64079031711
 10
1005998.38012389
 20
63040.64079031711
 10
1005998.38012389
 20
62857.24641063744
 10
1006016.515010892
 20
63014.42685839107
  0
LWPOLYLINE
  5
39
330
17
100
AcDbEntity
  8
BAR-GAL
 62
7
370
13
100
AcDbPolyline
 90
4
 70
1
 43
5.0
 10
1005278.21797378
 20
61568.180630907
 10
1005429.21797378
 20
61568.180630907
 10
1005429.21797378
 20
61772.58894992497
 10
1005278.21797378
 20
61772.58894992497
  0
DIMENSION
  5
3A
330
17
100
AcDbEntity
  8
BAR-GAL
 62
7
370
13
100
AcDbDimension
280
0
  2
*D1
  3
ISO-25
 10
1005256.015470348
 20
61567.63877881724
 30
0.0
 11
1005256.015470348
 21
61597.63877881695
 31
0.0
 70
160
 71
5
 42
60.0
 73
0
 74
0
 75
0
100
AcDbAlignedDimension
 13
1005278.938659748
 23
61627.63877881721
 33
0.0
 14
1005278.938659748
 24
61567.63877881721
 34
0.0
 50
90.0
100
AcDbRotatedDimension
  0
DIMENSION
  5
49
330
17
100
AcDbEntity
  8
BAR-GAL
 62
7
370
13
100
AcDbDimension
280
0
  2
*D2
  3
ISO-25
 10
1005495.548047817
 20
61881.49198630187
 30
0.0
 11
1005325.523867952
 21
61906.81940785713
 31
0.0
 70
32
 71
5
 42
340.0483597293496
 73
0
 74
0
 75
0
100
AcDbAlignedDimension
 13
1005155.499688088
 23
61941.33899424576
 33
0.0
 14
1005495.548047817
 24
61941.33899424576
 34
0.0
 50
0.0
100
AcDbRotatedDimension
  0
DIMENSION
  5
56
330
17
100
AcDbEntity
  8
BAR-GAL
 62
7
370
13
100
AcDbDimension
280
0
  2
*D3
  3
ISO-25
 10
1005539.149060511
 20
60577.98395994161
 30
0.0
 11
1005272.391237659
 21
60603.31138149686
 31
0.0
 70
32
 71
5
 42
533.5156457051635
 73
0
 74
0
 75
0
100
AcDbAlignedDimension
 13
1005005.633414806
 23
60876.33899424577
 33
0.0
 14
1005539.149060511
 24
60875.90741975679
 34
0.0
 50
0.0
100
AcDbRotatedDimension
  0
LWPOLYLINE
  5
63
330
17
100
AcDbEntity
  8
BAR-GAL
 62
7
370
13
100
AcDbPolyline
 90
3
 70
0
 43
15.0
 10
1005899.409547126
 20
62255.48360231352
 10
1005899.409547126
 20
62646.47023121392
 10
1005616.628587836
 20
62646.47023121395
  0
DIMENSION
  5
64
102
{ACAD_XDICTIONARY
360
65
102
}
330
17
100
AcDbEntity
  8
BAR-GAL
 62
7
370
13
100
AcDbDimension
280
0
  2
*D4
  3
ISO-25
 10
1005953.533744861
 20
62645.47023121395
 30
0.0
 11
1005928.206323305
 21
62450.47691676345
 31
0.0
 70
32
 71
5
 42
389.9866289004058
 73
0
 74
0
 75
0
100
AcDbAlignedDimension
 13
1005899.409547126
 23
62255.48360231352
 33
0.0
 14
1005899.409547126
 24
62645.47023121393
 34
0.0
 50
90.0
100
AcDbRotatedDimension
  0
DIMENSION
  5
72
102
{ACAD_XDICTIONARY
360
73
102
}
330
17
100
AcDbEntity
  8
BAR-GAL
 62
7
370
13
100
AcDbDimension
280
0
  2
*D5
  3
ISO-25
 10
1005899.409547126
 20
62750.2663558243
 30
0.0
 11
1005759.164199925
 21
62775.58354545595
 31
0.0
 70
32
 71
5
 42
280.4906944036484
 73
0
 74
0
 75
0
100
AcDbAlignedDimension
 13
1005618.918852723
 23
62647.42541021707
 33
0.0
 14
1005899.409547126
 24
62646.47023121392
 34
0.0
 50
0.0
100
AcDbRotatedDimension
  0
LWPOLYLINE
  5
80
330
17
100
AcDbEntity
  8
BAR-GAL
 62
7
370
13
100
AcDbPolyline
 90
4
 70
1
 43
5.0
 10
1005617.306750125
 20
62705.71154841534
 10
1005899.409547126
 20
62705.71154841534
 10
1005899.409547126
 20
62645.47023121393
 10
1005617.306750125
 20
62645.47023121393
  0
LWPOLYLINE
  5
81
330
17
100
AcDbEntity
  8
BAR-GAL
 62
7
370
13
100
AcDbPolyline
 90
4
 70
1
 43
15.0
 10
1005618.600475109
 20
63041.27757635766
 10
1005999.38012389
 20
63041.27757635766
 10
1005999.38012389
 20
62856.60962459688
 10
1005618.600475109
 20
62856.60962459688
  0
DIMENSION
  5
82
102
{ACAD_XDICTIONARY
360
83
102
}
330
17
100
AcDbEntity
  8
BAR-GAL
 62
7
370
13
100
AcDbDimension
280
0
  2
*D6
  3
ISO-25
 10
1005971.999647427
 20
63041.27757635769
 30
0.0
 11
1005946.682457796
 21
62948.94360047701
 31
0.0
 70
32
 71
5
 42
184.6679517607772
 73
0
 74
0
 75
0
100
AcDbAlignedDimension
 13
1006002.563900268
 23
62856.60962459688
 33
0.0
 14
1005999.38012389
 24
63041.27757635766
 34
0.0
 50
90.0
100
AcDbRotatedDimension
  0
DIMENSION
  5
90
330
17
100
AcDbEntity
  8
BAR-GAL
 62
7
370
13
100
AcDbDimension
280
0
  2
*D7
  3
ISO-25
 10
1005998.38012389
 20
62803.75638323087
 30
0.0
 11
1005808.490299499
 21
62829.08380478612
 31
0.0
 70
32
 71
5
 42
379.7796487808227
 73
0
 74
0
 75
0
100
AcDbAlignedDimension
 13
1005618.600475109
 23
62857.24641063744
 33
0.0
 14
1005998.38012389
 24
62857.24641063744
 34
0.0
 50
0.0
100
AcDbRotatedDimension
  0
LWPOLYLINE
  5
9D
330
17
100
AcDbEntity
  8
BAR-GAL
 62
7
370
13
100
AcDbPolyline
 90
4
 70
1
 43
5.0
 10
1005633.882601536
 20
63018.18666149356
 10
1005786.703865087
 20
63018.18666149356
 10
1005786.703865087
 20
62878.09373257158
 10
1005633.882601536
 20
62878.09373257158
  0
LWPOLYLINE
  5
9E
330
17
100
AcDbEntity
  8
BAR-GAL
 62
7
370
13
100
AcDbPolyline
 90
4
 70
1
 43
5.0
 10
1005805.02374455
 20
63018.18666149356
 10
1005957.84500834
 20
63018.18666149356
 10
1005957.84500834
 20
62878.09373257158
 10
1005805.02374455
 20
62878.09373257158
  0
LINE
  5
9F
330
17
100
AcDbEntity
  8
BAR-GAL
 62
7
370
13
100
AcDbLine
 10
1005633.882601536
 20
63018.18666149356
 30
0.0
 11
1005786.703865087
 21
62878.09373257158
 31
0.0
  0
LINE
  5
A0
330
17
100
AcDbEntity
  8
BAR-GAL
 62
7
370
13
100
AcDbLine
 10
1005786.703865087
 20
63018.18666149356
 30
0.0
 11
1005633.882601536
 21
62878.09373257158
 31
0.0
  0
LINE
  5
A1
330
17
100
AcDbEntity
  8
BAR-GAL
 62
7
370
13
100
AcDbLine
 10
1005805.02374455
 20
63018.18666149356
 30
0.0
 11
1005957.84500834
 21
62878.09373257158
 31
0.0
  0
LINE
  5
A2
330
17
100
AcDbEntity
  8
BAR-GAL
 62
7
370
13
100
AcDbLine
 10
1005957.84500834
 20
63018.18666149356
 30
0.0
 11
1005805.02374455
 21
62878.09373257158
 31
0.0
  0
LWPOLYLINE
  5
A3
330
17
100
AcDbEntity
  8
BAR-GAL
 62
7
370
13
100
AcDbPolyline
 90
3
 70
0
 43
15.0
 10
1005618.600475109
 20
62256.75717439463
 10
1005618.600475109
 20
61941.33899424576
 10
1005495.548047817
 20
61941.33899424576
  0
DIMENSION
  5
A4
330
17
100
AcDbEntity
  8
BAR-GAL
 62
7
370
13
100
AcDbDimension
280
0
  2
*D8
  3
ISO-25
 10
1005899.409547126
 20
62308.08185762136
 30
0.0
 11
1005981.999647475
 21
62333.399047253
 31
0.0
 70
32
 71
5
 42
165.1802006959915
 73
0
 74
0
 75
0
100
AcDbAlignedDimension
 13
1006064.589747822
 23
62255.48360231352
 33
0.0
 14
1005899.409547126
 24
62255.48360231352
 34
0.0
 50
0.0
100
AcDbRotatedDimension
  0
LWPOLYLINE
  5
B1
330
17
100
AcDbEntity
  8
BAR-GAL
 62
7
370
13
100
AcDbPolyline
 90
4
 70
1
 43
5.0
 10
1005728.759135998
 20
62528.02802767081
 10
1005789.250886238
 20
62528.02802767081
 10
1005789.250886238
 20
62365.64758732943
 10
1005728.759135998
 20
62365.64758732943
  0
LWPOLYLINE
  5
B2
330
17
100
AcDbEntity
  8
BAR-GAL
 62
7
370
13
100
AcDbPolyline
 90
2
 70
0
 43
5.0
 10
1005734.469718895
 20
62705.71154841534
 10
1005734.469718895
 20
62646.47023121394
  0
LWPOLYLINE
  5
B3
330
17
100
AcDbEntity
  8
BAR-GAL
 62
7
370
13
100
AcDbPolyline
 90
2
 70
0
 43
5.0
 10
1005859.293965376
 20
62705.05454694493
 10
1005859.293965376
 20
62645.47023121393
  0
DIMENSION
  5
B4
102
{ACAD_XDICTIONARY
360
B5
102
}
330
17
100
AcDbEntity
  8
BAR-GAL
 62
7
370
13
100
AcDbDimension
280
0
  2
*D9
  3
ISO-25
 10
1006005.827969612
 20
62256.48360231355
 30
0.0
 11
1005980.51077998
 21
62556.54661345493
 31
0.0
 70
32
 71
5
 42
600.1260222833662
 73
0
 74
0
 75
0
100
AcDbAlignedDimension
 13
1006064.660138881
 23
62856.60962459688
 33
0.0
 14
1006063.316237247
 24
62256.48360231352
 34
0.0
 50
90.0
100
AcDbRotatedDimension
  0
LINE
  5
C2
330
17
100
AcDbEntity
  8
BAR-GAL
 62
7
370
13
100
AcDbLine
 10
1005728.759135998
 20
62528.02802767081
 30
0.0
 11
1005728.759135998
 21
62645.47023121393
 31
0.0
  0
LINE
  5
C3
330
17
100
AcDbEntity
  8
BAR-GAL
 62
7
370
13
100
AcDbLine
 10
1005758.759135997
 20
62528.02802767081
 30
0.0
 11
1005758.759135997
 21
62645.47023121393
 31
0.0
  0
LINE
  5
C4
330
17
100
AcDbEntity
  8
BAR-GAL
 62
7
370
13
100
AcDbLine
 10
1005788.759135997
 20
62528.02802767081
 30
0.0
 11
1005788.759135997
 21
62645.47023121393
 31
0.0
  0
LINE
  5
C5
330
17
100
AcDbEntity
  8
BAR-GAL
 62
7
370
13
100
AcDbLine
 10
1005728.759135998
 20
62521.46453842094
 30
0.0
 11
1005619.584761329
 21
62521.46453842094
 31
0.0
  0
LINE
  5
C6
330
17
100
AcDbEntity
  8
BAR-GAL
 62
7
370
13
100
AcDbLine
 10
1005728.759135998
 20
62491.46453842094
 30
0.0
 11
1005619.584761329
 21
62491.46453842094
 31
0.0
  0
LINE
  5
C7
330
17
100
AcDbEntity
  8
BAR-GAL
 62
7
370
13
100
AcDbLine
 10
1005728.759135998
 20
62461.46453842094
 30
0.0
 11
1005619.584761329
 21
62461.46453842094
 31
0.0
  0
LINE
  5
C8
330
17
100
AcDbEntity
  8
BAR-GAL
 62
7
370
13
100
AcDbLine
 10
1005728.759135998
 20
62431.46453842094
 30
0.0
 11
1005619.584761329
 21
62431.46453842094
 31
0.0
  0
LINE
  5
C9
330
17
100
AcDbEntity
  8
BAR-GAL
 62
7
370
13
100
AcDbLine
 10
1005728.759135998
 20
62401.46453842094
 30
0.0
 11
1005619.584761329
 21
62401.46453842094
 31
0.0
  0
LINE
  5
CA
330
17
100
AcDbEntity
  8
BAR-GAL
 62
7
370
13
100
AcDbLine
 10
1005728.759135998
 20
62371.46453842094
 30
0.0
 11
1005619.584761329
 21
62371.46453842094
 31
0.0
  0
LINE
  5
CB
330
17
100
AcDbEntity
  8
BAR-GAL
 62
7
370
13
100
AcDbLine
 10
1005728.759135998
 20
62248.20538378631
 30
0.0
 11
1005728.759135998
 21
62365.64758732943
 31
0.0
  0
LINE
  5
CC
330
17
100
AcDbEntity
  8
BAR-GAL
 62
7
370
13
100
AcDbLine
 10
1005758.759135997
 20
62248.20538378631
 30
0.0
 11
1005758.759135997
 21
62365.64758732943
 31
0.0
  0
LINE
  5
CD
330
17
100
AcDbEntity
  8
BAR-GAL
 62
7
370
13
100
AcDbLine
 10
1005788.759135997
 20
62248.20538378631
 30
0.0
 11
1005788.759135997
 21
62365.64758732943
 31
0.0
  0
LINE
  5
CE
330
17
100
AcDbEntity
  8
BAR-GAL
 62
7
370
13
100
AcDbLine
 10
1005899.409547126
 20
62521.46453842094
 30
0.0
 11
1005790.235172458
 21
62521.46453842094
 31
0.0
  0
LINE
  5
CF
330
17
100
AcDbEntity
  8
BAR-GAL
 62
7
370
13
100
AcDbLine
 10
1005899.409547126
 20
62491.46453842094
 30
0.0
 11
1005790.235172458
 21
62491.46453842094
 31
0.0
  0
LINE
  5
D0
330
17
100
AcDbEntity
  8
BAR-GAL
 62
7
370
13
100
AcDbLine
 10
1005899.409547126
 20
62461.46453842094
 30
0.0
 11
1005790.235172458
 21
62461.46453842094
 31
0.0
  0
LINE
  5
D1
330
17
100
AcDbEntity
  8
BAR-GAL
 62
7
370
13
100
AcDbLine
 10
1005899.409547126
 20
62431.46453842094
 30
0.0
 11
1005790.235172458
 21
62431.46453842094
 31
0.0
  0
LINE
  5
D2
330
17
100
AcDbEntity
  8
BAR-GAL
 62
7
370
13
100
AcDbLine
 10
1005899.409547126
 20
62401.46453842094
 30
0.0
 11
1005790.235172458
 21
62401.46453842094
 31
0.0
  0
LINE
  5
D3
330
17
100
AcDbEntity
  8
BAR-GAL
 62
7
370
13
100
AcDbLine
 10
1005899.409547126
 20
62371.46453842094
 30
0.0
 11
1005790.235172458
 21
62371.46453842094
 31
0.0
  0
LWPOLYLINE
  5
D4
330
17
100
AcDbEntity
  8
BAR-GAL
 62
7
370
13
100
AcDbPolyline
 90
8
 70
1
 10
1005618.600475109
 20
62856.60962459688
 10
1005618.600475109
 20
62705.71154841534
 10
1005899.409547126
 20
62705.71154841534
 10
1005899.409547126
 20
62645.47023121393
 10
1005899.409547126
 20
62255.48360231351
 10
1006064.660138881
 20
62255.48360231352
 10
1006064.660138881
 20
62856.60962459687
 10
1005999.38012389
 20
62856.60962459688
  0
LINE
  5
D5
330
17
100
AcDbEntity
  8
BAR-GAL
 62
7
370
13
100
AcDbLine
 10
1005617.306750125
 20
62705.71154841534
 30
0.0
 11
1005734.469718895
 21
62646.47023121394
 31
0.0
  0
LINE
  5
D6
330
17
100
AcDbEntity
  8
BAR-GAL
 62
7
370
13
100
AcDbLine
 10
1005734.469718895
 20
62646.47023121394
 30
0.0
 11
1005859.293965376
 21
62705.05454694493
 31
0.0
  0
LINE
  5
D7
330
17
100
AcDbEntity
  8
BAR-GAL
 62
7
370
13
100
AcDbLine
 10
1005859.293965376
 20
62705.05454694493
 30
0.0
 11
1005899.409547126
 21
62646.47023121392
 31
0.0
  0
LINE
  5
D8
330
17
100
AcDbEntity
  8
BAR-GAL
 62
7
370
13
100
AcDbLine
 10
1005899.409547126
 20
62705.71154841534
 30
0.0
 11
1005859.293965376
 21
62646.47023121392
 31
0.0
  0
LINE
  5
D9
330
17
100
AcDbEntity
  8
BAR-GAL
 62
7
370
13
100
AcDbLine
 10
1005859.293965376
 20
62646.47023121392
 30
0.0
 11
1005734.469718895
 21
62705.71154841534
 31
0.0
  0
LINE
  5
DA
330
17
100
AcDbEntity
  8
BAR-GAL
 62
7
370
13
100
AcDbLine
 10
1005734.469718895
 20
62705.71154841534
 30
0.0
 11
1005618.600475109
 21
62645.47023121393
 31
0.0
  0
DIMENSION
  5
DB
330
17
100
AcDbEntity
  8
BAR-GAL
 62
7
370
13
100
AcDbDimension
280
0
  2
*D10
  3
ISO-25
 10
1005156.952907598
 20
62481.35151026949
 30
0.0
 11
1005009.452907598
 21
62506.66869990114
 31
0.0
 70
32
 71
5
 42
294.9999999998836
 73
0
 74
0
 75
0
100
AcDbAlignedDimension
 13
1004861.952907598
 23
62581.33899424576
 33
0.0
 14
1005156.952907598
 24
62581.33899424575
 34
0.0
 50
0.0
100
AcDbRotatedDimension
  0
DIMENSION
  5
E8
330
17
100
AcDbEntity
  8
BAR-GAL
 62
7
370
13
100
AcDbDimension
280
0
  2
*D11
  3
ISO-25
 10
1005835.149060511
 20
60577.98395994161
 30
0.0
 11
1005687.149060511
 21
60603.30114957326
 31
0.0
 70
32
 71
5
 42
296.0
 73
0
 74
0
 75
0
100
AcDbAlignedDimension
 13
1005539.149060511
 23
61015.90741975679
 33
0.0
 14
1005835.149060511
 24
61015.90741975679
 34
0.0
 50
0.0
100
AcDbRotatedDimension
  0
DIMENSION
  5
F5
330
17
100
AcDbEntity
  8
BAR-GAL
 62
7
370
13
100
AcDbDimension
280
0
  2
*D12
  3
ISO-25
 10
1006299.149060511
 20
60577.98395994161
 30
0.0
 11
1006067.149060511
 21
60603.30114957326
 31
0.0
 70
32
 71
5
 42
464.0
 73
0
 74
0
 75
0
100
AcDbAlignedDimension
 13
1005835.149060511
 23
61015.90741975679
 33
0.0
 14
1006299.149060511
 24
61015.90741975679
 34
0.0
 50
0.0
100
AcDbRotatedDimension
  0
DIMENSION
  5
102
330
17
100
AcDbEntity
  8
BAR-GAL
 62
7
370
13
100
AcDbDimension
280
0
  2
*D13
  3
ISO-25
 10
1006064.660138881
 20
62079.08116729574
 30
0.0
 11
1006194.908829905
 21
62104.39835692739
 31
0.0
 70
32
 71
5
 42
260.497382046422
 73
0
 74
0
 75
0
100
AcDbAlignedDimension
 13
1006325.157520928
 23
62033.76923567408
 33
0.0
 14
1006064.660138881
 24
62033.76923567408
 34
0.0
 50
0.0
100
AcDbRotatedDimension
  0
DIMENSION
  5
10F
330
17
100
AcDbEntity
  8
BAR-GAL
 62
7
370
13
100
AcDbDimension
280
0
  2
*D14
  3
ISO-25
 10
1005278.938659748
 20
61809.42376410425
 30
0.0
 11
1005141.938659748
 21
61834.48515564585
 31
0.0
 70
32
 71
5
 42
274.0
 73
0
 74
0
 75
0
100
AcDbAlignedDimension
 13
1005004.938659749
 23
61710.35862112827
 33
0.0
 14
1005278.938659748
 24
61710.35862112827
 34
0.0
 50
0.0
100
AcDbRotatedDimension
  0
LWPOLYLINE
  5
11C
330
17
100
AcDbEntity
  8
BAR-GAL
 62
7
370
13
100
AcDbPolyline
 90
13
 70
0
 43
15.0
 10
1005429.21797378
 20
61777.72058435373
 10
1005495.548047817
 20
61777.72058435373
 10
1005495.548047817
 20
61941.33899424576
 10
1005156.952907598
 20
61941.33899424576
 10
1005156.952907598
 20
62581.33899424575
 10
1004861.952907598
 20
62581.33899424575
 10
1004861.952907598
 20
62701.33899424576
 10
1004686.952907598
 20
62701.33899424576
 10
1004666.952907598
 20
62701.33899424576
 10
1004666.952907598
 20
63510.9074197568
 10
1004663.149060511
 20
63510.9074197568
 10
1006064.660138881
 20
63510.9074197568
 10
1006064.660138881
 20
63040.64079031711
  0
DIMENSION
  5
11D
102
{ACAD_XDICTIONARY
360
11E
102
}
330
17
100
AcDbEntity
  8
BAR-GAL
 62
7
370
13
100
AcDbDimension
280
0
  2
*D15
  3
ISO-25
 10
1005429.21797378
 20
61809.3036497762
 30
0.0
 11
1005353.71797378
 21
61834.62083940785
 31
0.0
 70
32
 71
5
 42
151.0
 73
0
 74
0
 75
0
100
AcDbAlignedDimension
 13
1005278.21797378
 23
61772.58894992497
 33
0.0
 14
1005429.21797378
 24
61772.58894992497
 34
0.0
 50
0.0
100
AcDbRotatedDimension
  0
LWPOLYLINE
  5
12B
330
17
100
AcDbEntity
  8
BAR-GAL
 62
7
370
13
100
AcDbPolyline
 90
4
 70
0
 43
15.0
 10
1005430.204099281
 20
61777.72058435373
 10
1005430.204099281
 20
61566.33899424575
 10
1005278.938659748
 20
61566.33899424575
 10
1005278.938659748
 20
61627.63877881721
  0
DIMENSION
  5
12C
102
{ACAD_XDICTIONARY
360
12D
102
}
330
17
100
AcDbEntity
  8
BAR-GAL
 62
7
370
13
100
AcDbDimension
280
0
  2
*D16
  3
ISO-25
 10
1005494.21797378
 20
61809.3036497762
 30
0.0
 11
1005461.71797378
 21
61834.62083940785
 31
0.0
 70
32
 71
5
 42
65.0
 73
0
 74
0
 75
0
100
AcDbAlignedDimension
 13
1005429.21797378
 23
61777.72058435373
 33
0.0
 14
1005494.21797378
 24
61777.72058435373
 34
0.0
 50
0.0
100
AcDbRotatedDimension
  0
DIMENSION
  5
13C
330
17
100
AcDbEntity
  8
BAR-GAL
 62
7
370
13
100
AcDbDimension
280
0
  2
*D17
  3
ISO-25
 10
1005607.169735146
 20
61015.90741975682
 30
0.0
 11
1005581.852545514
 21
60945.90741975652
 31
0.0
 70
32
 71
5
 42
140.0
 73
0
 74
0
 75
0
100
AcDbAlignedDimension
 13
1005539.221606523
 23
60875.90741975679
 33
0.0
 14
1005539.149060511
 24
61015.90741975679
 34
0.0
 50
90.0
100
AcDbRotatedDimension
  0
DIMENSION
  5
149
330
17
100
AcDbEntity
  8
BAR-GAL
 62
7
370
13
100
AcDbDimension
280
0
  2
*D18
  3
ISO-25
 10
1005617.122099406
 20
62080.33116729573
 30
0.0
 11
1005841.078872234
 21
62105.64835692738
 31
0.0
 70
32
 71
5
 42
447.9135456561343
 73
0
 74
0
 75
0
100
AcDbAlignedDimension
 13
1006065.035645062
 23
62036.18104577591
 33
0.0
 14
1005617.122099406
 24
62036.18104577591
 34
0.0
 50
0.0
100
AcDbRotatedDimension
  0
DIMENSION
  5
156
102
{ACAD_XDICTIONARY
360
157
102
}
330
17
100
AcDbEntity
  8
BAR-GAL
 62
7
370
13
100
AcDbDimension
280
0
  2
*D19
  3
ISO-25
 10
1005156.952907598
 20
62080.42308978193
 30
0.0
 11
1005387.037503503
 21
62105.74027941357
 31
0.0
 70
32
 71
5
 42
460.1691918080905
 73
0
 74
0
 75
0
100
AcDbAlignedDimension
 13
1005617.122099406
 23
62036.18104577591
 33
0.0
 14
1005156.952907598
 24
62036.18104577591
 34
0.0
 50
0.0
100
AcDbRotatedDimension
  0
DIMENSION
  5
164
330
17
100
AcDbEntity
  8
BAR-GAL
 62
7
370
13
100
AcDbDimension
280
0
  2
*D20
  3
ISO-25
 10
1006327.157520928
 20
60435.0725571381
 30
0.0
 11
1005497.153290719
 21
60460.38974676974
 31
0.0
 70
32
 71
5
 42
1660.008460416691
 73
0
 74
0
 75
0
100
AcDbAlignedDimension
 13
1004667.149060511
 23
60875.90741975679
 33
0.0
 14
1006327.157520928
 24
61573.70582385671
 34
0.0
 50
0.0
100
AcDbRotatedDimension
  0
TEXT
  5
171
330
17
100
AcDbEntity
  8
0
 62
7
100
AcDbText
 10
1005071.867432156
 20
62980.01152369719
 30
0.0
 40
59.201694284898
  1
19 דירה
100
AcDbText
  0
TEXT
  5
172
330
17
100
AcDbEntity
  8
0
 62
7
100
AcDbText
 10
1005688.208035569
 20
61498.67804688066
 30
0.0
 40
59.201694284898
  1
20 דירה
100
AcDbText
  0
LWPOLYLINE
  5
173
330
17
100
AcDbEntity
  8
BAR-GAL
 62
1
370
13
100
AcDbPolyline
 90
19
 70
1
 10
1004666.952907598
 20
63510.90741975681
 10
1004666.952907598
 20
62701.33899424575
 10
1004686.952907598
 20
62701.33899424576
 10
1004861.952907598
 20
62701.33899424576
 10
1004861.952907598
 20
62581.33899424575
 10
1005156.952907598
 20
62581.33899424575
 10
1005156.952907598
 20
61941.33899424576
 10
1005495.548047817
 20
61941.33899424576
 10
1005618.600475109
 20
61941.33899424575
 10
1005618.600475109
 20
62256.75717439463
 10
1005618.600475109
 20
62645.47023121393
 10
1005617.306750125
 20
62645.47023121393
 10
1005616.628587836
 20
62646.47023121394
 10
1005617.306750125
 20
62646.47023121395
 10
1005617.306750125
 20
62705.71154841534
 10
1005618.600475109
 20
63041.27757635765
 10
1005999.38012389
 20
63041.27757635766
 10
1006064.660138882
 20
63040.64079031711
 10
1006064.660138881
 20
63510.90741975678
  0
LWPOLYLINE
  5
174
330
17
100
AcDbEntity
  8
BAR-GAL
 62
1
370
13
100
AcDbPolyline
 90
22
 70
1
 10
1006064.660138881
 20
62033.76923567407
 10
1006064.660138881
 20
62255.48360231351
 10
1005899.409547126
 20
62255.48360231351
 10
1005618.600475109
 20
62255.48360231351
 10
1005618.600475109
 20
61941.33899424575
 10
1005495.548047817
 20
61941.33899424576
 10
1005495.548047817
 20
61777.72058435373
 10
1005430.204099281
 20
61777.72058435373
 10
1005430.204099281
 20
61566.33899424575
 10
1005278.21797378
 20
61566.33899424575
 10
1005278.21797378
 20
61626.33899424577
 10
1005005.633414806
 20
61626.33899424577
 10
1005005.633414806
 20
60876.33899424578
 10
1005539.149060511
 20
60875.90741975679
 10
1005539.149060511
 20
61015.90741975678
 10
1005835.149060511
 20
61015.90741975678
 10
1005835.149060511
 20
60979.89494215951
 10
1006299.157520928
 20
60979.89494215951
 10
1006299.157520928
 20
61573.70582385671
 10
1006317.157520928
 20
61573.70582385671
 10
1006325.157520928
 20
61573.70582385671
 10
1006325.157520928
 20
62033.76923567408
  0
DIMENSION
  5
175
102
{ACAD_XDICTIONARY
360
176
102
}
330
17
100
AcDbEntity
  8
BAR-GAL
 62
7
370
13
100
AcDbDimension
280
0
  2
*D21
  3
ISO-25
 10
1005557.293282938
 20
61566.33899424578
 30
0.0
 11
1005532.231891397
 21
61672.02978929947
 31
0.0
 70
32
 71
5
 42
211.3815901079797
 73
0
 74
0
 75
0
100
AcDbAlignedDimension
 13
1005430.204099281
 23
61777.72058435373
 33
0.0
 14
1005430.204099281
 24
61566.33899424575
 34
0.0
 50
90.0
100
AcDbRotatedDimension
  0
DIMENSION
  5
183
102
{ACAD_XDICTIONARY
360
184
102
}
330
17
100
AcDbEntity
  8
BAR-GAL
 62
7
370
13
100
AcDbDimension
280
0
  2
*D22
  3
ISO-25
 10
1005557.293282939
 20
61941.33899424579
 30
0.0
 11
1005531.976093307
 21
61859.52978929947
 31
0.0
 70
32
 71
5
 42
163.6184098920275
 73
0
 74
0
 75
0
100
AcDbAlignedDimension
 13
1005494.21797378
 23
61777.72058435373
 33
0.0
 14
1005495.548047817
 24
61941.33899424576
 34
0.0
 50
90.0
100
AcDbRotatedDimension
  0
MTEXT
  5
191
330
17
100
AcDbEntity
  8
VP
370
13
100
AcDbMText
 10
1005735.778715055
 20
61259.36756670634
 30
0.0
 40
59.201694284898
 41
262.1310489581865
 46
0.0
 71
1
  1
 13085
  0
DIMENSION
  5
192
330
17
100
AcDbEntity
  8
BAR-GAL
 62
7
370
13
100
AcDbDimension
280
0
  2
*D23
  3
ISO-25
 10
1006771.530367377
 20
63512.70582385674
 30
0.0
 11
1006746.202945821
 21
62193.20582385642
 31
0.0
 70
32
 71
5
 42
2639.000000000044
 73
0
 74
0
 75
0
100
AcDbAlignedDimension
 13
1006291.057585102
 23
60873.70582385666
 33
0.0
 14
1006067.22787624
 24
63512.70582385671
 34
0.0
 50
90.0
100
AcDbRotatedDimension
  0
LWPOLYLINE
  5
19F
330
17
100
AcDbEntity
  8
BAR-GAL
 62
7
370
13
100
AcDbPolyline
 90
7
 70
1
 10
1005835.149060511
 20
60979.8949421595
 10
1005835.149060511
 20
61015.90741975678
 10
1005539.149060511
 20
61015.90741975679
 10
1005539.149060511
 20
60875.90741975679
 10
1005538.058802891
 20
60700.77252956749
 10
1006299.157520928
 20
60700.77252956749
 10
1006299.157520928
 20
60979.89494215951
  0
ENDSEC
  0
SECTION
  2
OBJECTS
  0
DICTIONARY
  5
A
330
0
100
AcDbDictionary
281
1
  3
ACAD_COLOR
350
B
  3
ACAD_GROUP
350
C
  3
ACAD_LAYOUT
350
D
  3
ACAD_MATERIAL
350
E
  3
ACAD_MLEADERSTYLE
350
F
  3
ACAD_MLINESTYLE
350
10
  3
ACAD_PLOTSETTINGS
350
11
  3
ACAD_PLOTSTYLENAME
350
12
  3
ACAD_SCALELIST
350
14
  3
ACAD_TABLESTYLE
350
15
  3
ACAD_VISUALSTYLE
350
16
  3
EZDXF_META
350
2D
  0
DICTIONARY
  5
B
330
A
100
AcDbDictionary
281
1
  0
DICTIONARY
  5
C
330
A
100
AcDbDictionary
281
1
  0
DICTIONARY
  5
D
330
A
100
AcDbDictionary
281
1
  3
Model
350
1A
  3
Layout1
350
1E
  0
DICTIONARY
  5
E
330
A
100
AcDbDictionary
281
1
  3
ByBlock
350
1F
  3
ByLayer
350
20
  3
Global
350
21
  0
DICTIONARY
  5
F
330
A
100
AcDbDictionary
281
1
  3
Standard
350
2C
  0
DICTIONARY
  5
10
330
A
100
AcDbDictionary
281
1
  3
Standard
350
22
  0
DICTIONARY
  5
11
330
A
100
AcDbDictionary
281
1
  0
ACDBDICTIONARYWDFLT
  5
12
330
A
100
AcDbDictionary
281
1
  3
Normal
350
13
100
AcDbDictionaryWithDefault
340
13
  0
ACDBPLACEHOLDER
  5
13
330
12
  0
DICTIONARY
  5
14
330
A
100
AcDbDictionary
281
1
  0
DICTIONARY
  5
15
330
A
100
AcDbDictionary
281
1
  0
DICTIONARY
  5
16
330
A
100
AcDbDictionary
281
1
  0
LAYOUT
  5
1A
330
D
100
AcDbPlotSettings
  1

  4
A3
  6

 40
7.5
 41
20.0
 42
7.5
 43
20.0
 44
420.0
 45
297.0
 46
0.0
 47
0.0
 48
0.0
 49
0.0
140
0.0
141
0.0
142
1.0
143
1.0
 70
1024
 72
1
 73
0
 74
5
  7

 75
16
 76
0
 77
2
 78
300
147
1.0
148
0.0
149
0.0
100
AcDbLayout
  1
Model
 70
1
 71
0
 10
0.0
 20
0.0
 11
420.0
 21
297.0
 12
0.0
 22
0.0
 32
0.0
 14
1e+20
 24
1e+20
 34
1e+20
 15
-1e+20
 25
-1e+20
 35
-1e+20
146
0.0
 13
0.0
 23
0.0
 33
0.0
 16
1.0
 26
0.0
 36
0.0
 17
0.0
 27
1.0
 37
0.0
 76
1
330
17
  0
LAYOUT
  5
1E
330
D
100
AcDbPlotSettings
  1

  4
A3
  6

 40
7.5
 41
20.0
 42
7.5
 43
20.0
 44
420.0
 45
297.0
 46
0.0
 47
0.0
 48
0.0
 49
0.0
140
0.0
141
0.0
142
1.0
143
1.0
 70
0
 72
1
 73
0
 74
5
  7

 75
16
 76
0
 77
2
 78
300
147
1.0
148
0.0
149
0.0
100
AcDbLayout
  1
Layout1
 70
1
 71
1
 10
0.0
 20
0.0
 11
420.0
 21
297.0
 12
0.0
 22
0.0
 32
0.0
 14
1e+20
 24
1e+20
 34
1e+20
 15
-1e+20
 25
-1e+20
 35
-1e+20
146
0.0
 13
0.0
 23
0.0
 33
0.0
 16
1.0
 26
0.0
 36
0.0
 17
0.0
 27
1.0
 37
0.0
 76
1
330
1B
  0
MATERIAL
  5
1F
102
{ACAD_REACTORS
330
E
102
}
330
E
100
AcDbMaterial
  1
ByBlock
  2

 70
0
 40
1.0
 71
1
 41
1.0
 91
-1023410177
 42
1.0
 72
1
  3

 73
1
 74
1
 75
1
 44
0.5
 73
0
 45
1.0
 46
1.0
 77
1
  4

 78
1
 79
1
170
1
 48
1.0
171
1
  6

172
1
173
1
174
1
140
1.0
141
1.0
175
1
  7

176
1
177
1
178
1
143
1.0
179
1
  8

270
1
271
1
272
1
145
1.0
146
1.0
273
1
  9

274
1
275
1
276
1
 42
1.0
 72
1
  3

 73
1
 74
1
 75
1
 94
63
  0
MATERIAL
  5
20
102
{ACAD_REACTORS
330
E
102
}
330
E
100
AcDbMaterial
  1
ByLayer
  2

 70
0
 40
1.0
 71
1
 41
1.0
 91
-1023410177
 42
1.0
 72
1
  3

 73
1
 74
1
 75
1
 44
0.5
 73
0
 45
1.0
 46
1.0
 77
1
  4

 78
1
 79
1
170
1
 48
1.0
171
1
  6

172
1
173
1
174
1
140
1.0
141
1.0
175
1
  7

176
1
177
1
178
1
143
1.0
179
1
  8

270
1
271
1
272
1
145
1.0
146
1.0
273
1
  9

274
1
275
1
276
1
 42
1.0
 72
1
  3

 73
1
 74
1
 75
1
 94
63
  0
MATERIAL
  5
21
102
{ACAD_REACTORS
330
E
102
}
330
E
100
AcDbMaterial
  1
Global
  2

 70
0
 40
1.0
 71
1
 41
1.0
 91
-1023410177
 42
1.0
 72
1
  3

 73
1
 74
1
 75
1
 44
0.5
 73
0
 45
1.0
 46
1.0
 77
1
  4

 78
1
 79
1
170
1
 48
1.0
171
1
  6

172
1
173
1
174
1
140
1.0
141
1.0
175
1
  7

176
1
177
1
178
1
143
1.0
179
1
  8

270
1
271
1
272
1
145
1.0
146
1.0
273
1
  9

274
1
275
1
276
1
 42
1.0
 72
1
  3

 73
1
 74
1
 75
1
 94
63
  0
MLINESTYLE
  5
22
102
{ACAD_REACTORS
330
10
102
}
330
10
100
AcDbMlineStyle
  2
Standard
 70
0
  3

 62
256
 51
90.0
 52
90.0
 71
2
 49
0.5
 62
256
  6
BYLAYER
 49
-0.5
 62
256
  6
BYLAYER
  0
MLEADERSTYLE
  5
2C
102
{ACAD_REACTORS
330
F
102
}
330
F
100
AcDbMLeaderStyle
179
2
170
2
171
1
172
0
 90
2
 40
0.0
 41
0.0
173
1
 91
-1056964608
 92
-2
290
1
 42
2.0
291
1
 43
8.0
  3
Standard
 44
4.0
300

342
29
174
1
175
1
176
0
178
1
 93
-1056964608
 45
4.0
292
0
297
0
 46
4.0
 94
-1056964608
 47
1.0
 49
1.0
140
1.0
294
1
141
0.0
177
0
142
1.0
295
0
296
0
143
3.75
271
0
272
9
273
9
  0
DICTIONARY
  5
2D
330
A
100
AcDbDictionary
280
1
281
1
  3
CREATED_BY_EZDXF
350
2E
  3
WRITTEN_BY_EZDXF
350
1A2
  0
DICTIONARYVAR
  5
2E
330
2D
100
DictionaryVariables
280
0
  1
1.4.3 @ 2026-05-05T23:16:50.860048+00:00
  0
DICTIONARY
  5
65
330
64
100
AcDbDictionary
280
1
281
1
  0
DICTIONARY
  5
73
330
72
100
AcDbDictionary
280
1
281
1
  0
DICTIONARY
  5
83
330
82
100
AcDbDictionary
280
1
281
1
  0
DICTIONARY
  5
B5
330
B4
100
AcDbDictionary
280
1
281
1
  0
DICTIONARY
  5
11E
330
11D
100
AcDbDictionary
280
1
281
1
  0
DICTIONARY
  5
12D
330
12C
100
AcDbDictionary
280
1
281
1
  0
DICTIONARY
  5
157
330
156
100
AcDbDictionary
280
1
281
1
  0
DICTIONARY
  5
176
330
175
100
AcDbDictionary
280
1
281
1
  0
DICTIONARY
  5
184
330
183
100
AcDbDictionary
280
1
281
1
  0
DICTIONARYVAR
  5
1A2
330
2D
100
DictionaryVariables
280
0
  1
1.4.3 @ 2026-05-05T23:16:50.877359+00:00
  0
ENDSEC
  0
EOF
