  0
SECTION
  2
HEADER
  9
$ACADVER
  1
AC1032
  9
$ACADMAINTVER
 90
4
  9
$DWGCODEPAGE
  3
ANSI_1252
  9
$LASTSAVEDBY
  1
ezdxf
  9
$REQUIREDVERSIONS
160
0
  9
$INSBASE
 10
0.0
 20
0.0
 30
0.0
  9
$EXTMIN
 10
1e+20
 20
1e+20
 30
1e+20
  9
$EXTMAX
 10
-1e+20
 20
-1e+20
 30
-1e+20
  9
$LIMMIN
 10
0.0
 20
0.0
  9
$LIMMAX
 10
420.0
 20
297.0
  9
$ORTHOMODE
 70
0
  9
$REGENMODE
 70
1
  9
$FILLMODE
 70
1
  9
$QTEXTMODE
 70
0
  9
$MIRRTEXT
 70
1
  9
$LTSCALE
 40
1.0
  9
$ATTMODE
 70
1
  9
$TEXTSIZE
 40
2.5
  9
$TRACEWID
 40
1.0
  9
$TEXTSTYLE
  7
Standard
  9
$CLAYER
  8
0
  9
$CELTYPE
  6
ByLayer
  9
$CECOLOR
 62
256
  9
$CELTSCALE
 40
1.0
  9
$DISPSILH
 70
0
  9
$DIMSCALE
 40
1.0
  9
$DIMASZ
 40
2.5
  9
$DIMEXO
 40
0.625
  9
$DIMDLI
 40
3.75
  9
$DIMRND
 40
0.0
  9
$DIMDLE
 40
0.0
  9
$DIMEXE
 40
1.25
  9
$DIMTP
 40
0.0
  9
$DIMTM
 40
0.0
  9
$DIMTXT
 40
2.5
  9
$DIMCEN
 40
2.5
  9
$DIMTSZ
 40
0.0
  9
$DIMTOL
 70
0
  9
$DIMLIM
 70
0
  9
$DIMTIH
 70
0
  9
$DIMTOH
 70
0
  9
$DIMSE1
 70
0
  9
$DIMSE2
 70
0
  9
$DIMTAD
 70
1
  9
$DIMZIN
 70
8
  9
$DIMBLK
  1

  9
$DIMASO
 70
1
  9
$DIMSHO
 70
1
  9
$DIMPOST
  1

  9
$DIMAPOST
  1

  9
$DIMALT
 70
0
  9
$DIMALTD
 70
3
  9
$DIMALTF
 40
0.03937007874
  9
$DIMLFAC
 40
1.0
  9
$DIMTOFL
 70
1
  9
$DIMTVP
 40
0.0
  9
$DIMTIX
 70
0
  9
$DIMSOXD
 70
0
  9
$DIMSAH
 70
0
  9
$DIMBLK1
  1

  9
$DIMBLK2
  1

  9
$DIMSTYLE
  2
ISO-25
  9
$DIMCLRD
 70
0
  9
$DIMCLRE
 70
0
  9
$DIMCLRT
 70
0
  9
$DIMTFAC
 40
1.0
  9
$DIMGAP
 40
0.625
  9
$DIMJUST
 70
0
  9
$DIMSD1
 70
0
  9
$DIMSD2
 70
0
  9
$DIMTOLJ
 70
0
  9
$DIMTZIN
 70
8
  9
$DIMALTZ
 70
0
  9
$DIMALTTZ
 70
0
  9
$DIMUPT
 70
0
  9
$DIMDEC
 70
2
  9
$DIMTDEC
 70
2
  9
$DIMALTU
 70
2
  9
$DIMALTTD
 70
3
  9
$DIMTXSTY
  7
Standard
  9
$DIMAUNIT
 70
0
  9
$DIMADEC
 70
0
  9
$DIMALTRND
 40
0.0
  9
$DIMAZIN
 70
0
  9
$DIMDSEP
 70
44
  9
$DIMATFIT
 70
3
  9
$DIMFRAC
 70
0
  9
$DIMLDRBLK
  1

  9
$DIMLUNIT
 70
2
  9
$DIMLWD
 70
-2
  9
$DIMLWE
 70
-2
  9
$DIMTMOVE
 70
0
  9
$DIMFXL
 40
1.0
  9
$DIMFXLON
 70
0
  9
$DIMJOGANG
 40
0.785398163397
  9
$DIMTFILL
 70
0
  9
$DIMTFILLCLR
 70
0
  9
$DIMARCSYM
 70
0
  9
$DIMLTYPE
  6

  9
$DIMLTEX1
  6

  9
$DIMLTEX2
  6

  9
$DIMTXTDIRECTION
 70
0
  9
$LUNITS
 70
2
  9
$LUPREC
 70
4
  9
$SKETCHINC
 40
1.0
  9
$FILLETRAD
 40
10.0
  9
$AUNITS
 70
0
  9
$AUPREC
 70
2
  9
$MENU
  1
.
  9
$ELEVATION
 40
0.0
  9
$PELEVATION
 40
0.0
  9
$THICKNESS
 40
0.0
  9
$LIMCHECK
 70
0
  9
$CHAMFERA
 40
0.0
  9
$CHAMFERB
 40
0.0
  9
$CHAMFERC
 40
0.0
  9
$CHAMFERD
 40
0.0
  9
$SKPOLY
 70
0
  9
$TDCREATE
 40
2461167.095023148
  9
$TDUCREATE
 40
2458532.153996898
  9
$TDUPDATE
 40
2461167.095023148
  9
$TDUUPDATE
 40
2458532.1544311
  9
$TDINDWG
 40
0.0
  9
$TDUSRTIMER
 40
0.0
  9
$USRTIMER
 70
1
  9
$ANGBASE
 50
0.0
  9
$ANGDIR
 70
0
  9
$PDMODE
 70
0
  9
$PDSIZE
 40
0.0
  9
$PLINEWID
 40
0.0
  9
$SPLFRAME
 70
0
  9
$SPLINETYPE
 70
6
  9
$SPLINESEGS
 70
8
  9
$HANDSEED
  5
17D
  9
$SURFTAB1
 70
6
  9
$SURFTAB2
 70
6
  9
$SURFTYPE
 70
6
  9
$SURFU
 70
6
  9
$SURFV
 70
6
  9
$UCSBASE
  2

  9
$UCSNAME
  2

  9
$UCSORG
 10
0.0
 20
0.0
 30
0.0
  9
$UCSXDIR
 10
1.0
 20
0.0
 30
0.0
  9
$UCSYDIR
 10
0.0
 20
1.0
 30
0.0
  9
$UCSORTHOREF
  2

  9
$UCSORTHOVIEW
 70
0
  9
$UCSORGTOP
 10
0.0
 20
0.0
 30
0.0
  9
$UCSORGBOTTOM
 10
0.0
 20
0.0
 30
0.0
  9
$UCSORGLEFT
 10
0.0
 20
0.0
 30
0.0
  9
$UCSORGRIGHT
 10
0.0
 20
0.0
 30
0.0
  9
$UCSORGFRONT
 10
0.0
 20
0.0
 30
0.0
  9
$UCSORGBACK
 10
0.0
 20
0.0
 30
0.0
  9
$PUCSBASE
  2

  9
$PUCSNAME
  2

  9
$PUCSORG
 10
0.0
 20
0.0
 30
0.0
  9
$PUCSXDIR
 10
1.0
 20
0.0
 30
0.0
  9
$PUCSYDIR
 10
0.0
 20
1.0
 30
0.0
  9
$PUCSORTHOREF
  2

  9
$PUCSORTHOVIEW
 70
0
  9
$PUCSORGTOP
 10
0.0
 20
0.0
 30
0.0
  9
$PUCSORGBOTTOM
 10
0.0
 20
0.0
 30
0.0
  9
$PUCSORGLEFT
 10
0.0
 20
0.0
 30
0.0
  9
$PUCSORGRIGHT
 10
0.0
 20
0.0
 30
0.0
  9
$PUCSORGFRONT
 10
0.0
 20
0.0
 30
0.0
  9
$PUCSORGBACK
 10
0.0
 20
0.0
 30
0.0
  9
$USERI1
 70
0
  9
$USERI2
 70
0
  9
$USERI3
 70
0
  9
$USERI4
 70
0
  9
$USERI5
 70
0
  9
$USERR1
 40
0.0
  9
$USERR2
 40
0.0
  9
$USERR3
 40
0.0
  9
$USERR4
 40
0.0
  9
$USERR5
 40
0.0
  9
$WORLDVIEW
 70
1
  9
$SHADEDGE
 70
3
  9
$SHADEDIF
 70
70
  9
$TILEMODE
 70
1
  9
$MAXACTVP
 70
64
  9
$PINSBASE
 10
0.0
 20
0.0
 30
0.0
  9
$PLIMCHECK
 70
0
  9
$PEXTMIN
 10
1e+20
 20
1e+20
 30
1e+20
  9
$PEXTMAX
 10
-1e+20
 20
-1e+20
 30
-1e+20
  9
$PLIMMIN
 10
0.0
 20
0.0
  9
$PLIMMAX
 10
420.0
 20
297.0
  9
$UNITMODE
 70
0
  9
$VISRETAIN
 70
1
  9
$PLINEGEN
 70
0
  9
$PSLTSCALE
 70
1
  9
$TREEDEPTH
 70
3020
  9
$CMLSTYLE
  2
Standard
  9
$CMLJUST
 70
0
  9
$CMLSCALE
 40
20.0
  9
$PROXYGRAPHICS
 70
1
  9
$MEASUREMENT
 70
1
  9
$CELWEIGHT
370
-1
  9
$ENDCAPS
280
0
  9
$JOINSTYLE
280
0
  9
$LWDISPLAY
290
0
  9
$INSUNITS
 70
6
  9
$HYPERLINKBASE
  1

  9
$STYLESHEET
  1

  9
$XEDIT
290
1
  9
$CEPSNTYPE
380
0
  9
$PSTYLEMODE
290
1
  9
$FINGERPRINTGUID
  2
{BBF9A2BD-E1EE-4AB5-A718-F7828E515772}
  9
$VERSIONGUID
  2
{8B56D660-D641-4265-B432-45C04A76B0BC}
  9
$EXTNAMES
290
1
  9
$PSVPSCALE
 40
0.0
  9
$OLESTARTUP
290
0
  9
$SORTENTS
280
127
  9
$INDEXCTL
280
0
  9
$HIDETEXT
280
1
  9
$XCLIPFRAME
280
1
  9
$HALOGAP
280
0
  9
$OBSCOLOR
 70
257
  9
$OBSLTYPE
280
0
  9
$INTERSECTIONDISPLAY
280
0
  9
$INTERSECTIONCOLOR
 70
257
  9
$DIMASSOC
280
2
  9
$PROJECTNAME
  1

  9
$CAMERADISPLAY
290
0
  9
$LENSLENGTH
 40
50.0
  9
$CAMERAHEIGHT
 40
0.0
  9
$STEPSPERSEC
 40
24.0
  9
$STEPSIZE
 40
100.0
  9
$3DDWFPREC
 40
2.0
  9
$PSOLWIDTH
 40
0.005
  9
$PSOLHEIGHT
 40
0.08
  9
$LOFTANG1
 40
1.570796326795
  9
$LOFTANG2
 40
1.570796326795
  9
$LOFTMAG1
 40
0.0
  9
$LOFTMAG2
 40
0.0
  9
$LOFTPARAM
 70
7
  9
$LOFTNORMALS
280
1
  9
$LATITUDE
 40
37.795
  9
$LONGITUDE
 40
-122.394
  9
$NORTHDIRECTION
 40
0.0
  9
$TIMEZONE
 70
-8000
  9
$LIGHTGLYPHDISPLAY
280
1
  9
$TILEMODELIGHTSYNCH
280
1
  9
$CMATERIAL
347
20
  9
$SOLIDHIST
280
0
  9
$SHOWHIST
280
1
  9
$DWFFRAME
280
2
  9
$DGNFRAME
280
2
  9
$REALWORLDSCALE
290
1
  9
$INTERFERECOLOR
 62
256
  9
$CSHADOW
280
0
  9
$SHADOWPLANELOCATION
 40
0.0
  0
ENDSEC
  0
SECTION
  2
CLASSES
  0
CLASS
  1
ACDBDICTIONARYWDFLT
  2
AcDbDictionaryWithDefault
  3
ObjectDBX Classes
 90
0
 91
0
280
0
281
0
  0
CLASS
  1
SUN
  2
AcDbSun
  3
SCENEOE
 90
1153
 91
0
280
0
281
0
  0
CLASS
  1
VISUALSTYLE
  2
AcDbVisualStyle
  3
ObjectDBX Classes
 90
4095
 91
0
280
0
281
0
  0
CLASS
  1
MATERIAL
  2
AcDbMaterial
  3
ObjectDBX Classes
 90
1153
 91
0
280
0
281
0
  0
CLASS
  1
SCALE
  2
AcDbScale
  3
ObjectDBX Classes
 90
1153
 91
0
280
0
281
0
  0
CLASS
  1
TABLESTYLE
  2
AcDbTableStyle
  3
ObjectDBX Classes
 90
4095
 91
0
280
0
281
0
  0
CLASS
  1
MLEADERSTYLE
  2
AcDbMLeaderStyle
  3
ACDB_MLEADERSTYLE_CLASS
 90
4095
 91
0
280
0
281
0
  0
CLASS
  1
DICTIONARYVAR
  2
AcDbDictionaryVar
  3
ObjectDBX Classes
 90
0
 91
0
280
0
281
0
  0
CLASS
  1
CELLSTYLEMAP
  2
AcDbCellStyleMap
  3
ObjectDBX Classes
 90
1152
 91
0
280
0
281
0
  0
CLASS
  1
MENTALRAYRENDERSETTINGS
  2
AcDbMentalRayRenderSettings
  3
SCENEOE
 90
1024
 91
0
280
0
281
0
  0
CLASS
  1
ACDBDETAILVIEWSTYLE
  2
AcDbDetailViewStyle
  3
ObjectDBX Classes
 90
1025
 91
0
280
0
281
0
  0
CLASS
  1
ACDBSECTIONVIEWSTYLE
  2
AcDbSectionViewStyle
  3
ObjectDBX Classes
 90
1025
 91
0
280
0
281
0
  0
CLASS
  1
RASTERVARIABLES
  2
AcDbRasterVariables
  3
ISM
 90
0
 91
0
280
0
281
0
  0
CLASS
  1
ACDBPLACEHOLDER
  2
AcDbPlaceHolder
  3
ObjectDBX Classes
 90
0
 91
0
280
0
281
0
  0
CLASS
  1
LAYOUT
  2
AcDbLayout
  3
ObjectDBX Classes
 90
0
 91
0
280
0
281
0
  0
ENDSEC
  0
SECTION
  2
TABLES
  0
TABLE
  2
VPORT
  5
8
330
0
100
AcDbSymbolTable
 70
1
  0
VPORT
  5
23
330
8
100
AcDbSymbolTableRecord
100
AcDbViewportTableRecord
  2
*Active
 70
0
 10
0.0
 20
0.0
 11
1.0
 21
1.0
 12
0.0
 22
0.0
 13
0.0
 23
0.0
 14
0.5
 24
0.5
 15
0.5
 25
0.5
 16
0.0
 26
0.0
 36
1.0
 17
0.0
 27
0.0
 37
0.0
 40
1000.0
 41
1.34
 42
50.0
 43
0.0
 44
0.0
 50
0.0
 51
0.0
 71
0
 72
1000
 73
1
 74
3
 75
0
 76
0
 77
0
 78
0
281
0
 65
0
146
0.0
  0
ENDTAB
  0
TABLE
  2
LTYPE
  5
2
330
0
100
AcDbSymbolTable
 70
3
  0
LTYPE
  5
24
330
2
100
AcDbSymbolTableRecord
100
AcDbLinetypeTableRecord
  2
ByBlock
 70
0
  3

 72
65
 73
0
 40
0.0
  0
LTYPE
  5
25
330
2
100
AcDbSymbolTableRecord
100
AcDbLinetypeTableRecord
  2
ByLayer
 70
0
  3

 72
65
 73
0
 40
0.0
  0
LTYPE
  5
26
330
2
100
AcDbSymbolTableRecord
100
AcDbLinetypeTableRecord
  2
Continuous
 70
0
  3

 72
65
 73
0
 40
0.0
  0
ENDTAB
  0
TABLE
  2
LAYER
  5
1
330
0
100
AcDbSymbolTable
 70
8
  0
LAYER
  5
27
330
1
100
AcDbSymbolTableRecord
100
AcDbLayerTableRecord
  2
0
 70
0
 62
7
  6
Continuous
370
-3
390
13
347
21
  0
LAYER
  5
28
330
1
100
AcDbSymbolTableRecord
100
AcDbLayerTableRecord
  2
Defpoints
 70
0
 62
7
  6
Continuous
290
0
370
-3
390
13
347
21
  0
LAYER
  5
2F
330
1
100
AcDbSymbolTableRecord
100
AcDbLayerTableRecord
  2
MIKRA
 70
0
 62
7
  6
Continuous
370
-3
390
13
347
21
  0
LAYER
  5
30
330
1
100
AcDbSymbolTableRecord
100
AcDbLayerTableRecord
  2
kir
 70
0
 62
7
  6
Continuous
370
-3
390
13
347
21
  0
LAYER
  5
31
330
1
100
AcDbSymbolTableRecord
100
AcDbLayerTableRecord
  2
8
 70
0
 62
7
  6
Continuous
370
-3
390
13
347
21
  0
LAYER
  5
32
330
1
100
AcDbSymbolTableRecord
100
AcDbLayerTableRecord
  2
BAR-GAL
 70
0
 62
7
  6
Continuous
370
-3
390
13
347
21
  0
LAYER
  5
33
330
1
100
AcDbSymbolTableRecord
100
AcDbLayerTableRecord
  2
BAR_GAL
 70
0
 62
7
  6
Continuous
370
-3
390
13
347
21
  0
LAYER
  5
34
330
1
100
AcDbSymbolTableRecord
100
AcDbLayerTableRecord
  2
VP
 70
0
 62
-30
  6
Continuous
370
-3
390
13
347
21
  0
ENDTAB
  0
TABLE
  2
STYLE
  5
5
330
0
100
AcDbSymbolTable
 70
1
  0
STYLE
  5
29
330
5
100
AcDbSymbolTableRecord
100
AcDbTextStyleTableRecord
  2
Standard
 70
0
 40
0.0
 41
1.0
 50
0.0
 71
0
 42
2.5
  3
txt
  4

  0
ENDTAB
  0
TABLE
  2
VIEW
  5
7
330
0
100
AcDbSymbolTable
 70
0
  0
ENDTAB
  0
TABLE
  2
UCS
  5
6
330
0
100
AcDbSymbolTable
 70
0
  0
ENDTAB
  0
TABLE
  2
APPID
  5
3
330
0
100
AcDbSymbolTable
 70
3
  0
APPID
  5
2A
330
3
100
AcDbSymbolTableRecord
100
AcDbRegAppTableRecord
  2
ACAD
 70
0
  0
APPID
  5
17A
330
3
100
AcDbSymbolTableRecord
100
AcDbRegAppTableRecord
  2
HATCHBACKGROUNDCOLOR
 70
0
  0
APPID
  5
17B
330
3
100
AcDbSymbolTableRecord
100
AcDbRegAppTableRecord
  2
EZDXF
 70
0
  0
ENDTAB
  0
TABLE
  2
DIMSTYLE
  5
4
330
0
100
AcDbSymbolTable
 70
3
100
AcDbDimStyleTable
  0
DIMSTYLE
105
2B
330
4
100
AcDbSymbolTableRecord
100
AcDbDimStyleTableRecord
  2
Standard
 70
0
 40
1.0
 41
2.5
 42
0.625
 43
3.75
 44
1.25
 45
0.0
 46
0.0
 47
0.0
 48
0.0
 49
2.5
140
2.5
141
2.5
142
0.0
143
0.03937007874
144
1.0
145
0.0
146
1.0
147
0.625
148
0.0
 69
0
 70
0
 71
0
 72
0
 73
0
 74
0
 75
0
 76
0
 77
1
 78
8
 79
3
170
0
171
3
172
1
173
0
174
0
175
0
176
0
177
0
178
0
179
2
271
2
272
2
273
2
274
3
275
0
276
0
277
2
278
44
279
0
280
0
281
0
282
0
283
0
284
8
285
0
286
0
288
0
289
3
290
0
371
-2
372
-2
  0
DIMSTYLE
105
27
330
4
100
AcDbSymbolTableRecord
100
AcDbDimStyleTableRecord
  2
ISO-25
 70
0
 40
1.0
 41
30.0
 42
0.625
 43
3.75
 44
1.25
 45
0.0
 46
0.0
 47
0.0
 48
0.0
 49
2.5
140
30.0
141
2.5
142
0.0
143
0.03937007874016
144
1.0
145
0.0
146
1.0
147
10.0
148
0.0
 69
0
 70
0
 71
0
 72
0
 73
0
 74
0
 75
0
 76
0
 77
1
 78
8
 79
3
170
0
171
3
172
1
173
0
174
0
175
0
176
0
177
0
178
0
179
2
271
0
272
0
273
2
274
3
275
0
276
0
277
2
278
44
279
0
280
0
281
0
282
0
283
0
284
8
285
0
286
0
288
0
289
3
290
0
340
29
371
-2
372
-2
  0
DIMSTYLE
105
24441B
330
4
100
AcDbSymbolTableRecord
100
AcDbDimStyleTableRecord
  2
100A
 70
0
 40
1.0
 41
30.0
 42
0.625
 43
3.75
 44
1.25
 45
0.0
 46
0.0
 47
0.0
 48
0.0
 49
2.5
140
35.0
141
2.5
142
0.0
143
0.03937007874016
144
1.0
145
0.0
146
1.0
147
10.0
148
0.0
 69
0
 70
0
 71
0
 72
0
 73
0
 74
0
 75
0
 76
0
 77
1
 78
8
 79
3
170
0
171
3
172
1
173
0
174
0
175
0
176
0
177
0
178
0
179
2
271
0
272
0
273
2
274
3
275
0
276
0
277
2
278
44
279
0
280
0
281
0
282
0
283
0
284
8
285
0
286
0
288
0
289
3
290
0
340
29
371
-2
372
-2
  0
ENDTAB
  0
TABLE
  2
BLOCK_RECORD
  5
9
330
0
100
AcDbSymbolTable
 70
22
  0
BLOCK_RECORD
  5
17
330
9
100
AcDbSymbolTableRecord
100
AcDbBlockTableRecord
  2
*Model_Space
340
1A
 70
0
280
1
281
0
  0
BLOCK_RECORD
  5
1B
330
9
100
AcDbSymbolTableRecord
100
AcDbBlockTableRecord
  2
*Paper_Space
340
1E
 70
0
280
1
281
0
  0
BLOCK_RECORD
  5
3B
330
9
100
AcDbSymbolTableRecord
100
AcDbBlockTableRecord
  2
*D1
340
0
 70
0
280
1
281
0
  0
BLOCK_RECORD
  5
48
330
9
100
AcDbSymbolTableRecord
100
AcDbBlockTableRecord
  2
*D2
340
0
 70
0
280
1
281
0
  0
BLOCK_RECORD
  5
57
330
9
100
AcDbSymbolTableRecord
100
AcDbBlockTableRecord
  2
*D3
340
0
 70
0
280
1
281
0
  0
BLOCK_RECORD
  5
64
330
9
100
AcDbSymbolTableRecord
100
AcDbBlockTableRecord
  2
*D4
340
0
 70
0
280
1
281
0
  0
BLOCK_RECORD
  5
71
330
9
100
AcDbSymbolTableRecord
100
AcDbBlockTableRecord
  2
*D5
340
0
 70
0
280
1
281
0
  0
BLOCK_RECORD
  5
7E
330
9
100
AcDbSymbolTableRecord
100
AcDbBlockTableRecord
  2
*D6
340
0
 70
0
280
1
281
0
  0
BLOCK_RECORD
  5
8C
330
9
100
AcDbSymbolTableRecord
100
AcDbBlockTableRecord
  2
*D7
340
0
 70
0
280
1
281
0
  0
BLOCK_RECORD
  5
9A
330
9
100
AcDbSymbolTableRecord
100
AcDbBlockTableRecord
  2
*D8
340
0
 70
0
280
1
281
0
  0
BLOCK_RECORD
  5
A7
330
9
100
AcDbSymbolTableRecord
100
AcDbBlockTableRecord
  2
*D9
340
0
 70
0
280
1
281
0
  0
BLOCK_RECORD
  5
B4
330
9
100
AcDbSymbolTableRecord
100
AcDbBlockTableRecord
  2
*D10
340
0
 70
0
280
1
281
0
  0
BLOCK_RECORD
  5
C9
330
9
100
AcDbSymbolTableRecord
100
AcDbBlockTableRecord
  2
*D11
340
0
 70
0
280
1
281
0
  0
BLOCK_RECORD
  5
D7
330
9
100
AcDbSymbolTableRecord
100
AcDbBlockTableRecord
  2
*D12
340
0
 70
0
280
1
281
0
  0
BLOCK_RECORD
  5
106
330
9
100
AcDbSymbolTableRecord
100
AcDbBlockTableRecord
  2
*D13
340
0
 70
0
280
1
281
0
  0
BLOCK_RECORD
  5
113
330
9
100
AcDbSymbolTableRecord
100
AcDbBlockTableRecord
  2
*D14
340
0
 70
0
280
1
281
0
  0
BLOCK_RECORD
  5
125
330
9
100
AcDbSymbolTableRecord
100
AcDbBlockTableRecord
  2
*D15
340
0
 70
0
280
1
281
0
  0
BLOCK_RECORD
  5
133
330
9
100
AcDbSymbolTableRecord
100
AcDbBlockTableRecord
  2
*D16
340
0
 70
0
280
1
281
0
  0
BLOCK_RECORD
  5
141
330
9
100
AcDbSymbolTableRecord
100
AcDbBlockTableRecord
  2
*D17
340
0
 70
0
280
1
281
0
  0
BLOCK_RECORD
  5
14E
330
9
100
AcDbSymbolTableRecord
100
AcDbBlockTableRecord
  2
*D18
340
0
 70
0
280
1
281
0
  0
BLOCK_RECORD
  5
15C
330
9
100
AcDbSymbolTableRecord
100
AcDbBlockTableRecord
  2
*D19
340
0
 70
0
280
1
281
0
  0
BLOCK_RECORD
  5
16A
330
9
100
AcDbSymbolTableRecord
100
AcDbBlockTableRecord
  2
*D20
340
0
 70
0
280
1
281
0
  0
ENDTAB
  0
ENDSEC
  0
SECTION
  2
BLOCKS
  0
BLOCK
  5
18
330
17
100
AcDbEntity
  8
0
100
AcDbBlockBegin
  2
*Model_Space
 70
0
 10
0.0
 20
0.0
 30
0.0
  3
*Model_Space
  1

  0
ENDBLK
  5
19
330
17
100
AcDbEntity
  8
0
100
AcDbBlockEnd
  0
BLOCK
  5
1C
330
1B
100
AcDbEntity
  8
0
100
AcDbBlockBegin
  2
*Paper_Space
 70
0
 10
0.0
 20
0.0
 30
0.0
  3
*Paper_Space
  1

  0
ENDBLK
  5
1D
330
1B
100
AcDbEntity
  8
0
100
AcDbBlockEnd
  0
BLOCK
  5
3C
330
3B
100
AcDbEntity
  8
0
100
AcDbBlockBegin
  2
*D1
 70
1
 10
0.0
 20
0.0
 30
0.0
  3
*D1
  1

  0
LINE
  5
3E
330
3B
100
AcDbEntity
  8
BAR-GAL
 62
0
370
-2
440
16777216
100
AcDbLine
 10
1019686.101022635
 20
63658.03438367303
 30
0.0
 11
1019686.101022635
 21
63984.19544437254
 31
0.0
  0
LINE
  5
3F
330
3B
100
AcDbEntity
  8
BAR-GAL
 62
0
370
-2
440
16777216
100
AcDbLine
 10
1020470.096167325
 20
63658.03438367303
 30
0.0
 11
1020470.096167325
 21
63984.19544437254
 31
0.0
  0
LINE
  5
40
330
3B
100
AcDbEntity
  8
BAR-GAL
 62
0
370
-2
440
16777216
100
AcDbLine
 10
1019716.101022635
 20
63982.94544437254
 30
0.0
 11
1020440.096167325
 21
63982.94544437254
 31
0.0
  0
SOLID
  5
41
330
3B
100
AcDbEntity
  8
BAR-GAL
 62
0
370
13
440
16777216
100
AcDbTrace
 10
1019716.101022635
 20
63987.94544437254
 30
0.0
 11
1019716.101022635
 21
63977.94544437254
 31
0.0
 12
1019686.101022635
 22
63982.94544437254
 32
0.0
 13
1019686.101022635
 23
63982.94544437254
 33
0.0
  0
SOLID
  5
42
330
3B
100
AcDbEntity
  8
BAR-GAL
 62
0
370
13
440
16777216
100
AcDbTrace
 10
1020440.096167325
 20
63987.94544437254
 30
0.0
 11
1020440.096167325
 21
63977.94544437254
 31
0.0
 12
1020470.096167325
 22
63982.94544437254
 32
0.0
 13
1020470.096167325
 23
63982.94544437254
 33
0.0
  0
MTEXT
  5
43
330
3B
100
AcDbEntity
  8
BAR-GAL
 62
0
370
13
440
16777216
100
AcDbMText
 10
1020078.09859498
 20
64008.26263400419
 30
0.0
 40
30.0
 41
0.0
 46
0.0
 71
5
  1
784
  0
POINT
  5
44
330
3B
100
AcDbEntity
  8
Defpoints
 62
0
370
13
440
16777216
100
AcDbPoint
 10
1019686.101022635
 20
63657.40938367303
 30
0.0
  0
POINT
  5
45
330
3B
100
AcDbEntity
  8
Defpoints
 62
0
370
13
440
16777216
100
AcDbPoint
 10
1020470.096167325
 20
63657.40938367303
 30
0.0
  0
POINT
  5
46
330
3B
100
AcDbEntity
  8
Defpoints
 62
0
370
13
440
16777216
100
AcDbPoint
 10
1020470.096167325
 20
63982.94544437254
 30
0.0
  0
ENDBLK
  5
3D
330
3B
100
AcDbEntity
  8
0
100
AcDbBlockEnd
  0
BLOCK
  5
49
330
48
100
AcDbEntity
  8
0
100
AcDbBlockBegin
  2
*D2
 70
1
 10
0.0
 20
0.0
 30
0.0
  3
*D2
  1

  0
LINE
  5
4B
330
48
100
AcDbEntity
  8
BAR-GAL
 62
0
370
-2
440
16777216
100
AcDbLine
 10
1019686.101022635
 20
63658.03438367303
 30
0.0
 11
1019686.101022635
 21
63984.19544437254
 31
0.0
  0
LINE
  5
4C
330
48
100
AcDbEntity
  8
BAR-GAL
 62
0
370
-2
440
16777216
100
AcDbLine
 10
1018913.111466386
 20
63498.01648046041
 30
0.0
 11
1018913.111466386
 21
63984.19544437254
 31
0.0
  0
LINE
  5
4D
330
48
100
AcDbEntity
  8
BAR-GAL
 62
0
370
-2
440
16777216
100
AcDbLine
 10
1019656.101022635
 20
63982.94544437254
 30
0.0
 11
1018943.111466386
 21
63982.94544437254
 31
0.0
  0
SOLID
  5
4E
330
48
100
AcDbEntity
  8
BAR-GAL
 62
0
370
13
440
16777216
100
AcDbTrace
 10
1019656.101022635
 20
63987.94544437254
 30
0.0
 11
1019656.101022635
 21
63977.94544437254
 31
0.0
 12
1019686.101022635
 22
63982.94544437254
 32
0.0
 13
1019686.101022635
 23
63982.94544437254
 33
0.0
  0
SOLID
  5
4F
330
48
100
AcDbEntity
  8
BAR-GAL
 62
0
370
13
440
16777216
100
AcDbTrace
 10
1018943.111466386
 20
63987.94544437254
 30
0.0
 11
1018943.111466386
 21
63977.94544437254
 31
0.0
 12
1018913.111466386
 22
63982.94544437254
 32
0.0
 13
1018913.111466386
 23
63982.94544437254
 33
0.0
  0
MTEXT
  5
50
330
48
100
AcDbEntity
  8
BAR-GAL
 62
0
370
13
440
16777216
100
AcDbMText
 10
1019299.60624451
 20
64008.27286592779
 30
0.0
 40
30.0
 41
0.0
 46
0.0
 71
5
  1
773
  0
POINT
  5
51
330
48
100
AcDbEntity
  8
Defpoints
 62
0
370
13
440
16777216
100
AcDbPoint
 10
1019686.101022635
 20
63657.40938367303
 30
0.0
  0
POINT
  5
52
330
48
100
AcDbEntity
  8
Defpoints
 62
0
370
13
440
16777216
100
AcDbPoint
 10
1018913.111466386
 20
63497.39148046042
 30
0.0
  0
POINT
  5
53
330
48
100
AcDbEntity
  8
Defpoints
 62
0
370
13
440
16777216
100
AcDbPoint
 10
1018913.111466386
 20
63982.94544437254
 30
0.0
  0
ENDBLK
  5
4A
330
48
100
AcDbEntity
  8
0
100
AcDbBlockEnd
  0
BLOCK
  5
58
330
57
100
AcDbEntity
  8
0
100
AcDbBlockBegin
  2
*D3
 70
1
 10
0.0
 20
0.0
 30
0.0
  3
*D3
  1

  0
LINE
  5
5A
330
57
100
AcDbEntity
  8
BAR-GAL
 62
0
370
-2
440
16777216
100
AcDbLine
 10
1019220.476022635
 20
63797.39148046045
 30
0.0
 11
1019147.896552544
 21
63797.39148046045
 31
0.0
  0
LINE
  5
5B
330
57
100
AcDbEntity
  8
BAR-GAL
 62
0
370
-2
440
16777216
100
AcDbLine
 10
1019220.476022635
 20
63497.39148046045
 30
0.0
 11
1019147.896552544
 21
63497.39148046045
 31
0.0
  0
LINE
  5
5C
330
57
100
AcDbEntity
  8
BAR-GAL
 62
0
370
-2
440
16777216
100
AcDbLine
 10
1019149.146552544
 20
63767.39148046045
 30
0.0
 11
1019149.146552544
 21
63527.39148046045
 31
0.0
  0
SOLID
  5
5D
330
57
100
AcDbEntity
  8
BAR-GAL
 62
0
370
13
440
16777216
100
AcDbTrace
 10
1019144.146552544
 20
63767.39148046045
 30
0.0
 11
1019154.146552544
 21
63767.39148046045
 31
0.0
 12
1019149.146552544
 22
63797.39148046045
 32
0.0
 13
1019149.146552544
 23
63797.39148046045
 33
0.0
  0
SOLID
  5
5E
330
57
100
AcDbEntity
  8
BAR-GAL
 62
0
370
13
440
16777216
100
AcDbTrace
 10
1019144.146552544
 20
63527.39148046045
 30
0.0
 11
1019154.146552544
 21
63527.39148046045
 31
0.0
 12
1019149.146552544
 22
63497.39148046045
 32
0.0
 13
1019149.146552544
 23
63497.39148046045
 33
0.0
  0
MTEXT
  5
5F
330
57
100
AcDbEntity
  8
BAR-GAL
 62
0
370
13
440
16777216
100
AcDbMText
 10
1019123.819130989
 20
63647.39148046014
 30
0.0
 40
30.0
 41
0.0
 46
0.0
 71
5
  1
300
 11
1e-16
 21
1.0
 31
0.0
  0
POINT
  5
60
330
57
100
AcDbEntity
  8
Defpoints
 62
0
370
13
440
16777216
100
AcDbPoint
 10
1019221.101022635
 20
63797.39148046045
 30
0.0
  0
POINT
  5
61
330
57
100
AcDbEntity
  8
Defpoints
 62
0
370
13
440
16777216
100
AcDbPoint
 10
1019221.101022635
 20
63497.39148046045
 30
0.0
  0
POINT
  5
62
330
57
100
AcDbEntity
  8
Defpoints
 62
0
370
13
440
16777216
100
AcDbPoint
 10
1019149.146552544
 20
63497.39148046045
 30
0.0
  0
ENDBLK
  5
59
330
57
100
AcDbEntity
  8
0
100
AcDbBlockEnd
  0
BLOCK
  5
65
330
64
100
AcDbEntity
  8
0
100
AcDbBlockBegin
  2
*D4
 70
1
 10
0.0
 20
0.0
 30
0.0
  3
*D4
  1

  0
LINE
  5
67
330
64
100
AcDbEntity
  8
BAR-GAL
 62
0
370
-2
440
16777216
100
AcDbLine
 10
1018913.486466387
 20
63497.39148046045
 30
0.0
 11
1018764.756967879
 21
63497.39148046045
 31
0.0
  0
LINE
  5
68
330
64
100
AcDbEntity
  8
BAR-GAL
 62
0
370
-2
440
16777216
100
AcDbLine
 10
1018913.486466387
 20
63657.40938367306
 30
0.0
 11
1018764.756967879
 21
63657.40938367306
 31
0.0
  0
LINE
  5
69
330
64
100
AcDbEntity
  8
BAR-GAL
 62
0
370
-2
440
16777216
100
AcDbLine
 10
1018766.006967879
 20
63527.39148046045
 30
0.0
 11
1018766.006967879
 21
63627.40938367306
 31
0.0
  0
SOLID
  5
6A
330
64
100
AcDbEntity
  8
BAR-GAL
 62
0
370
13
440
16777216
100
AcDbTrace
 10
1018761.006967879
 20
63527.39148046045
 30
0.0
 11
1018771.006967879
 21
63527.39148046045
 31
0.0
 12
1018766.006967879
 22
63497.39148046045
 32
0.0
 13
1018766.006967879
 23
63497.39148046045
 33
0.0
  0
SOLID
  5
6B
330
64
100
AcDbEntity
  8
BAR-GAL
 62
0
370
13
440
16777216
100
AcDbTrace
 10
1018761.006967879
 20
63627.40938367306
 30
0.0
 11
1018771.006967879
 21
63627.40938367306
 31
0.0
 12
1018766.006967879
 22
63657.40938367306
 32
0.0
 13
1018766.006967879
 23
63657.40938367306
 33
0.0
  0
MTEXT
  5
6C
330
64
100
AcDbEntity
  8
BAR-GAL
 62
0
370
13
440
16777216
100
AcDbMText
 10
1018740.689778248
 20
63577.40043206645
 30
0.0
 40
30.0
 41
0.0
 46
0.0
 71
5
  1
160
 11
1e-16
 21
1.0
 31
0.0
  0
POINT
  5
6D
330
64
100
AcDbEntity
  8
Defpoints
 62
0
370
13
440
16777216
100
AcDbPoint
 10
1018914.111466387
 20
63497.39148046045
 30
0.0
  0
POINT
  5
6E
330
64
100
AcDbEntity
  8
Defpoints
 62
0
370
13
440
16777216
100
AcDbPoint
 10
1018914.111466387
 20
63657.40938367306
 30
0.0
  0
POINT
  5
6F
330
64
100
AcDbEntity
  8
Defpoints
 62
0
370
13
440
16777216
100
AcDbPoint
 10
1018766.006967879
 20
63657.40938367306
 30
0.0
  0
ENDBLK
  5
66
330
64
100
AcDbEntity
  8
0
100
AcDbBlockEnd
  0
BLOCK
  5
72
330
71
100
AcDbEntity
  8
0
100
AcDbBlockBegin
  2
*D5
 70
1
 10
0.0
 20
0.0
 30
0.0
  3
*D5
  1

  0
LINE
  5
74
330
71
100
AcDbEntity
  8
BAR-GAL
 62
0
370
-2
440
16777216
100
AcDbLine
 10
1018912.486466387
 20
63497.39148046046
 30
0.0
 11
1018764.302103624
 21
63497.39148046046
 31
0.0
  0
LINE
  5
75
330
71
100
AcDbEntity
  8
BAR-GAL
 62
0
370
-2
440
16777216
100
AcDbLine
 10
1018912.486466387
 20
62563.11150777356
 30
0.0
 11
1018764.302103624
 21
62563.11150777356
 31
0.0
  0
LINE
  5
76
330
71
100
AcDbEntity
  8
BAR-GAL
 62
0
370
-2
440
16777216
100
AcDbLine
 10
1018765.552103624
 20
63467.39148046046
 30
0.0
 11
1018765.552103624
 21
62593.11150777357
 31
0.0
  0
SOLID
  5
77
330
71
100
AcDbEntity
  8
BAR-GAL
 62
0
370
13
440
16777216
100
AcDbTrace
 10
1018760.552103624
 20
63467.39148046046
 30
0.0
 11
1018770.552103624
 21
63467.39148046046
 31
0.0
 12
1018765.552103624
 22
63497.39148046046
 32
0.0
 13
1018765.552103624
 23
63497.39148046046
 33
0.0
  0
SOLID
  5
78
330
71
100
AcDbEntity
  8
BAR-GAL
 62
0
370
13
440
16777216
100
AcDbTrace
 10
1018760.552103624
 20
62593.11150777357
 30
0.0
 11
1018770.552103624
 21
62593.11150777357
 31
0.0
 12
1018765.552103624
 22
62563.11150777356
 32
0.0
 13
1018765.552103624
 23
62563.11150777356
 33
0.0
  0
MTEXT
  5
79
330
71
100
AcDbEntity
  8
BAR-GAL
 62
0
370
13
440
16777216
100
AcDbMText
 10
1018740.224682068
 20
63030.25149411671
 30
0.0
 40
30.0
 41
0.0
 46
0.0
 71
5
  1
934
 11
1e-16
 21
1.0
 31
0.0
  0
POINT
  5
7A
330
71
100
AcDbEntity
  8
Defpoints
 62
0
370
13
440
16777216
100
AcDbPoint
 10
1018913.111466387
 20
63497.39148046046
 30
0.0
  0
POINT
  5
7B
330
71
100
AcDbEntity
  8
Defpoints
 62
0
370
13
440
16777216
100
AcDbPoint
 10
1018913.111466387
 20
62563.11150777356
 30
0.0
  0
POINT
  5
7C
330
71
100
AcDbEntity
  8
Defpoints
 62
0
370
13
440
16777216
100
AcDbPoint
 10
1018765.552103624
 20
62563.11150777356
 30
0.0
  0
ENDBLK
  5
73
330
71
100
AcDbEntity
  8
0
100
AcDbBlockEnd
  0
BLOCK
  5
7F
330
7E
100
AcDbEntity
  8
0
100
AcDbBlockBegin
  2
*D6
 70
1
 10
0.0
 20
0.0
 30
0.0
  3
*D6
  1

  0
LINE
  5
81
330
7E
100
AcDbEntity
  8
BAR-GAL
 62
0
370
-2
440
16777216
100
AcDbLine
 10
1019400.365751374
 20
62563.11150777356
 30
0.0
 11
1018764.302103625
 21
62563.11150777356
 31
0.0
  0
LINE
  5
82
330
7E
100
AcDbEntity
  8
BAR-GAL
 62
0
370
-2
440
16777216
100
AcDbLine
 10
1018914.384840872
 20
61923.04370484295
 30
0.0
 11
1018764.302103625
 21
61923.04370484295
 31
0.0
  0
LINE
  5
83
330
7E
100
AcDbEntity
  8
BAR-GAL
 62
0
370
-2
440
16777216
100
AcDbLine
 10
1018765.552103625
 20
62533.11150777356
 30
0.0
 11
1018765.552103625
 21
61953.04370484295
 31
0.0
  0
SOLID
  5
84
330
7E
100
AcDbEntity
  8
BAR-GAL
 62
0
370
13
440
16777216
100
AcDbTrace
 10
1018760.552103625
 20
62533.11150777356
 30
0.0
 11
1018770.552103625
 21
62533.11150777356
 31
0.0
 12
1018765.552103625
 22
62563.11150777356
 32
0.0
 13
1018765.552103625
 23
62563.11150777356
 33
0.0
  0
SOLID
  5
85
330
7E
100
AcDbEntity
  8
BAR-GAL
 62
0
370
13
440
16777216
100
AcDbTrace
 10
1018760.552103625
 20
61953.04370484295
 30
0.0
 11
1018770.552103625
 21
61953.04370484295
 31
0.0
 12
1018765.552103625
 22
61923.04370484295
 32
0.0
 13
1018765.552103625
 23
61923.04370484295
 33
0.0
  0
MTEXT
  5
86
330
7E
100
AcDbEntity
  8
BAR-GAL
 62
0
370
13
440
16777216
100
AcDbMText
 10
1018740.234913993
 20
62243.07760630795
 30
0.0
 40
30.0
 41
0.0
 46
0.0
 71
5
  1
640
 11
1e-16
 21
1.0
 31
0.0
  0
POINT
  5
87
330
7E
100
AcDbEntity
  8
Defpoints
 62
0
370
13
440
16777216
100
AcDbPoint
 10
1019400.990751374
 20
62563.11150777356
 30
0.0
  0
POINT
  5
88
330
7E
100
AcDbEntity
  8
Defpoints
 62
0
370
13
440
16777216
100
AcDbPoint
 10
1018915.009840872
 20
61923.04370484295
 30
0.0
  0
POINT
  5
89
330
7E
100
AcDbEntity
  8
Defpoints
 62
0
370
13
440
16777216
100
AcDbPoint
 10
1018765.552103625
 20
61923.04370484295
 30
0.0
  0
ENDBLK
  5
80
330
7E
100
AcDbEntity
  8
0
100
AcDbBlockEnd
  0
BLOCK
  5
8D
330
8C
100
AcDbEntity
  8
0
100
AcDbBlockBegin
  2
*D7
 70
1
 10
0.0
 20
0.0
 30
0.0
  3
*D7
  1

  0
LINE
  5
8F
330
8C
100
AcDbEntity
  8
BAR-GAL
 62
0
370
-2
440
16777216
100
AcDbLine
 10
1019400.990751374
 20
61922.41870484292
 30
0.0
 11
1019400.990751374
 21
61868.30254171774
 31
0.0
  0
LINE
  5
90
330
8C
100
AcDbEntity
  8
BAR-GAL
 62
0
370
-2
440
16777216
100
AcDbLine
 10
1019741.134044736
 20
61922.35938417315
 30
0.0
 11
1019741.134044736
 21
61868.30254171774
 31
0.0
  0
LINE
  5
91
330
8C
100
AcDbEntity
  8
BAR-GAL
 62
0
370
-2
440
16777216
100
AcDbLine
 10
1019430.990751374
 20
61869.55254171775
 30
0.0
 11
1019711.134044736
 21
61869.55254171775
 31
0.0
  0
SOLID
  5
92
330
8C
100
AcDbEntity
  8
BAR-GAL
 62
0
370
13
440
16777216
100
AcDbTrace
 10
1019430.990751374
 20
61874.55254171775
 30
0.0
 11
1019430.990751374
 21
61864.55254171774
 31
0.0
 12
1019400.990751374
 22
61869.55254171775
 32
0.0
 13
1019400.990751374
 23
61869.55254171775
 33
0.0
  0
SOLID
  5
93
330
8C
100
AcDbEntity
  8
BAR-GAL
 62
0
370
13
440
16777216
100
AcDbTrace
 10
1019711.134044736
 20
61874.55254171775
 30
0.0
 11
1019711.134044736
 21
61864.55254171774
 31
0.0
 12
1019741.134044736
 22
61869.55254171775
 32
0.0
 13
1019741.134044736
 23
61869.55254171775
 33
0.0
  0
MTEXT
  5
94
330
8C
100
AcDbEntity
  8
BAR-GAL
 62
0
370
13
440
16777216
100
AcDbMText
 10
1019571.062398055
 20
61894.879963273
 30
0.0
 40
30.0
 41
0.0
 46
0.0
 71
5
  1
340
  0
POINT
  5
95
330
8C
100
AcDbEntity
  8
Defpoints
 62
0
370
13
440
16777216
100
AcDbPoint
 10
1019400.990751374
 20
61923.04370484292
 30
0.0
  0
POINT
  5
96
330
8C
100
AcDbEntity
  8
Defpoints
 62
0
370
13
440
16777216
100
AcDbPoint
 10
1019741.134044736
 20
61922.98438417315
 30
0.0
  0
POINT
  5
97
330
8C
100
AcDbEntity
  8
Defpoints
 62
0
370
13
440
16777216
100
AcDbPoint
 10
1019741.134044736
 20
61869.55254171775
 30
0.0
  0
ENDBLK
  5
8E
330
8C
100
AcDbEntity
  8
0
100
AcDbBlockEnd
  0
BLOCK
  5
9B
330
9A
100
AcDbEntity
  8
0
100
AcDbBlockBegin
  2
*D8
 70
1
 10
0.0
 20
0.0
 30
0.0
  3
*D8
  1

  0
LINE
  5
9D
330
9A
100
AcDbEntity
  8
BAR-GAL
 62
0
370
-2
440
16777216
100
AcDbLine
 10
1018913.134044736
 20
62562.41870484292
 30
0.0
 11
1018913.134044736
 21
62496.81401065664
 31
0.0
  0
LINE
  5
9E
330
9A
100
AcDbEntity
  8
BAR-GAL
 62
0
370
-2
440
16777216
100
AcDbLine
 10
1019400.990751374
 20
62562.48650777354
 30
0.0
 11
1019400.990751374
 21
62496.81401065664
 31
0.0
  0
LINE
  5
9F
330
9A
100
AcDbEntity
  8
BAR-GAL
 62
0
370
-2
440
16777216
100
AcDbLine
 10
1018943.134044736
 20
62498.06401065665
 30
0.0
 11
1019370.990751374
 21
62498.06401065665
 31
0.0
  0
SOLID
  5
A0
330
9A
100
AcDbEntity
  8
BAR-GAL
 62
0
370
13
440
16777216
100
AcDbTrace
 10
1018943.134044736
 20
62503.06401065665
 30
0.0
 11
1018943.134044736
 21
62493.06401065664
 31
0.0
 12
1018913.134044736
 22
62498.06401065665
 32
0.0
 13
1018913.134044736
 23
62498.06401065665
 33
0.0
  0
SOLID
  5
A1
330
9A
100
AcDbEntity
  8
BAR-GAL
 62
0
370
13
440
16777216
100
AcDbTrace
 10
1019370.990751374
 20
62503.06401065665
 30
0.0
 11
1019370.990751374
 21
62493.06401065664
 31
0.0
 12
1019400.990751374
 22
62498.06401065665
 32
0.0
 13
1019400.990751374
 23
62498.06401065665
 33
0.0
  0
MTEXT
  5
A2
330
9A
100
AcDbEntity
  8
BAR-GAL
 62
0
370
13
440
16777216
100
AcDbMText
 10
1019157.062398055
 20
62523.3812002883
 30
0.0
 40
30.0
 41
0.0
 46
0.0
 71
5
  1
488
  0
POINT
  5
A3
330
9A
100
AcDbEntity
  8
Defpoints
 62
0
370
13
440
16777216
100
AcDbPoint
 10
1018913.134044736
 20
62563.04370484292
 30
0.0
  0
POINT
  5
A4
330
9A
100
AcDbEntity
  8
Defpoints
 62
0
370
13
440
16777216
100
AcDbPoint
 10
1019400.990751374
 20
62563.11150777354
 30
0.0
  0
POINT
  5
A5
330
9A
100
AcDbEntity
  8
Defpoints
 62
0
370
13
440
16777216
100
AcDbPoint
 10
1019400.990751374
 20
62498.06401065665
 30
0.0
  0
ENDBLK
  5
9C
330
9A
100
AcDbEntity
  8
0
100
AcDbBlockEnd
  0
BLOCK
  5
A8
330
A7
100
AcDbEntity
  8
0
100
AcDbBlockBegin
  2
*D9
 70
1
 10
0.0
 20
0.0
 30
0.0
  3
*D9
  1

  0
LINE
  5
AA
330
A7
100
AcDbEntity
  8
BAR-GAL
 62
0
370
-2
440
16777216
100
AcDbLine
 10
1018913.486466387
 20
63657.40938367306
 30
0.0
 11
1018580.080614563
 21
63657.40938367306
 31
0.0
  0
LINE
  5
AB
330
A7
100
AcDbEntity
  8
BAR-GAL
 62
0
370
-2
440
16777216
100
AcDbLine
 10
1018938.308833083
 20
60858.59782085554
 30
0.0
 11
1018580.080614563
 21
60858.59782085554
 31
0.0
  0
LINE
  5
AC
330
A7
100
AcDbEntity
  8
BAR-GAL
 62
0
370
-2
440
16777216
100
AcDbLine
 10
1018581.330614563
 20
63627.40938367306
 30
0.0
 11
1018581.330614563
 21
60888.59782085554
 31
0.0
  0
SOLID
  5
AD
330
A7
100
AcDbEntity
  8
BAR-GAL
 62
0
370
13
440
16777216
100
AcDbTrace
 10
1018576.330614563
 20
63627.40938367306
 30
0.0
 11
1018586.330614563
 21
63627.40938367306
 31
0.0
 12
1018581.330614563
 22
63657.40938367306
 32
0.0
 13
1018581.330614563
 23
63657.40938367306
 33
0.0
  0
SOLID
  5
AE
330
A7
100
AcDbEntity
  8
BAR-GAL
 62
0
370
13
440
16777216
100
AcDbTrace
 10
1018576.330614563
 20
60888.59782085554
 30
0.0
 11
1018586.330614563
 21
60888.59782085554
 31
0.0
 12
1018581.330614563
 22
60858.59782085554
 32
0.0
 13
1018581.330614563
 23
60858.59782085554
 33
0.0
  0
MTEXT
  5
AF
330
A7
100
AcDbEntity
  8
BAR-GAL
 62
0
370
13
440
16777216
100
AcDbMText
 10
1018556.013424931
 20
62258.003602264
 30
0.0
 40
30.0
 41
0.0
 46
0.0
 71
5
  1
2799
 11
1e-16
 21
1.0
 31
0.0
  0
POINT
  5
B0
330
A7
100
AcDbEntity
  8
Defpoints
 62
0
370
13
440
16777216
100
AcDbPoint
 10
1018914.111466387
 20
63657.40938367306
 30
0.0
  0
POINT
  5
B1
330
A7
100
AcDbEntity
  8
Defpoints
 62
0
370
13
440
16777216
100
AcDbPoint
 10
1018938.933833082
 20
60858.59782085554
 30
0.0
  0
POINT
  5
B2
330
A7
100
AcDbEntity
  8
Defpoints
 62
0
370
13
440
16777216
100
AcDbPoint
 10
1018581.330614563
 20
60858.59782085554
 30
0.0
  0
ENDBLK
  5
A9
330
A7
100
AcDbEntity
  8
0
100
AcDbBlockEnd
  0
BLOCK
  5
B5
330
B4
100
AcDbEntity
  8
0
100
AcDbBlockBegin
  2
*D10
 70
1
 10
0.0
 20
0.0
 30
0.0
  3
*D10
  1

  0
LINE
  5
B7
330
B4
100
AcDbEntity
  8
BAR-GAL
 62
0
370
-2
440
16777216
100
AcDbLine
 10
1020470.721167325
 20
63243.82864140027
 30
0.0
 11
1021340.646687191
 21
63243.82864140027
 31
0.0
  0
LINE
  5
B8
330
B4
100
AcDbEntity
  8
BAR-GAL
 62
0
370
-2
440
16777216
100
AcDbLine
 10
1020470.736466387
 20
63657.39148046045
 30
0.0
 11
1021340.646687191
 21
63657.39148046045
 31
0.0
  0
LINE
  5
B9
330
B4
100
AcDbEntity
  8
BAR-GAL
 62
0
370
-2
440
16777216
100
AcDbLine
 10
1021339.396687191
 20
63273.82864140027
 30
0.0
 11
1021339.396687191
 21
63627.39148046045
 31
0.0
  0
SOLID
  5
BA
330
B4
100
AcDbEntity
  8
BAR-GAL
 62
0
370
13
440
16777216
100
AcDbTrace
 10
1021334.396687191
 20
63273.82864140027
 30
0.0
 11
1021344.396687191
 21
63273.82864140027
 31
0.0
 12
1021339.396687191
 22
63243.82864140027
 32
0.0
 13
1021339.396687191
 23
63243.82864140027
 33
0.0
  0
SOLID
  5
BB
330
B4
100
AcDbEntity
  8
BAR-GAL
 62
0
370
13
440
16777216
100
AcDbTrace
 10
1021334.396687191
 20
63627.39148046045
 30
0.0
 11
1021344.396687191
 21
63627.39148046045
 31
0.0
 12
1021339.396687191
 22
63657.39148046045
 32
0.0
 13
1021339.396687191
 23
63657.39148046045
 33
0.0
  0
MTEXT
  5
BC
330
B4
100
AcDbEntity
  8
BAR-GAL
 62
0
370
13
440
16777216
100
AcDbMText
 10
1021314.335295649
 20
63450.61006093005
 30
0.0
 40
30.0
 41
0.0
 46
0.0
 71
5
  1
414
 11
1e-16
 21
1.0
 31
0.0
  0
POINT
  5
BD
330
B4
100
AcDbEntity
  8
Defpoints
 62
0
370
13
440
16777216
100
AcDbPoint
 10
1020470.096167325
 20
63243.82864140027
 30
0.0
  0
POINT
  5
BE
330
B4
100
AcDbEntity
  8
Defpoints
 62
0
370
13
440
16777216
100
AcDbPoint
 10
1020470.111466387
 20
63657.39148046045
 30
0.0
  0
POINT
  5
BF
330
B4
100
AcDbEntity
  8
Defpoints
 62
0
370
13
440
16777216
100
AcDbPoint
 10
1021339.396687191
 20
63657.39148046045
 30
0.0
  0
ENDBLK
  5
B6
330
B4
100
AcDbEntity
  8
0
100
AcDbBlockEnd
  0
BLOCK
  5
CA
330
C9
100
AcDbEntity
  8
0
100
AcDbBlockBegin
  2
*D11
 70
1
 10
0.0
 20
0.0
 30
0.0
  3
*D11
  1

  0
LINE
  5
CC
330
C9
100
AcDbEntity
  8
BAR-GAL
 62
0
370
-2
440
16777216
100
AcDbLine
 10
1019863.051479585
 20
62845.90390465255
 30
0.0
 11
1019863.051479585
 21
62791.30377029298
 31
0.0
  0
LINE
  5
CD
330
C9
100
AcDbEntity
  8
BAR-GAL
 62
0
370
-2
440
16777216
100
AcDbLine
 10
1020242.984305774
 20
62845.26764803943
 30
0.0
 11
1020242.984305774
 21
62791.30377029298
 31
0.0
  0
LINE
  5
CE
330
C9
100
AcDbEntity
  8
BAR-GAL
 62
0
370
-2
440
16777216
100
AcDbLine
 10
1019893.051479585
 20
62792.55377029299
 30
0.0
 11
1020212.984305773
 21
62792.55377029299
 31
0.0
  0
SOLID
  5
CF
330
C9
100
AcDbEntity
  8
BAR-GAL
 62
0
370
13
440
16777216
100
AcDbTrace
 10
1019893.051479585
 20
62797.55377029299
 30
0.0
 11
1019893.051479585
 21
62787.55377029298
 31
0.0
 12
1019863.051479585
 22
62792.55377029299
 32
0.0
 13
1019863.051479585
 23
62792.55377029299
 33
0.0
  0
SOLID
  5
D0
330
C9
100
AcDbEntity
  8
BAR-GAL
 62
0
370
13
440
16777216
100
AcDbTrace
 10
1020212.984305773
 20
62797.55377029299
 30
0.0
 11
1020212.984305773
 21
62787.55377029298
 31
0.0
 12
1020242.984305774
 22
62792.55377029299
 32
0.0
 13
1020242.984305774
 23
62792.55377029299
 33
0.0
  0
MTEXT
  5
D1
330
C9
100
AcDbEntity
  8
BAR-GAL
 62
0
370
13
440
16777216
100
AcDbMText
 10
1020053.017892679
 20
62817.88119184824
 30
0.0
 40
30.0
 41
0.0
 46
0.0
 71
5
  1
380
  0
POINT
  5
D2
330
C9
100
AcDbEntity
  8
Defpoints
 62
0
370
13
440
16777216
100
AcDbPoint
 10
1019863.051479585
 20
62846.52890465255
 30
0.0
  0
POINT
  5
D3
330
C9
100
AcDbEntity
  8
Defpoints
 62
0
370
13
440
16777216
100
AcDbPoint
 10
1020242.984305774
 20
62845.89264803943
 30
0.0
  0
POINT
  5
D4
330
C9
100
AcDbEntity
  8
Defpoints
 62
0
370
13
440
16777216
100
AcDbPoint
 10
1020242.984305774
 20
62792.55377029299
 30
0.0
  0
ENDBLK
  5
CB
330
C9
100
AcDbEntity
  8
0
100
AcDbBlockEnd
  0
BLOCK
  5
D8
330
D7
100
AcDbEntity
  8
0
100
AcDbBlockBegin
  2
*D12
 70
1
 10
0.0
 20
0.0
 30
0.0
  3
*D12
  1

  0
LINE
  5
DA
330
D7
100
AcDbEntity
  8
BAR-GAL
 62
0
370
-2
440
16777216
100
AcDbLine
 10
1020246.389904745
 20
62838.60059427792
 30
0.0
 11
1020215.200651901
 21
62838.60059427792
 31
0.0
  0
LINE
  5
DB
330
D7
100
AcDbEntity
  8
BAR-GAL
 62
0
370
-2
440
16777216
100
AcDbLine
 10
1020243.206128367
 20
63023.2685460387
 30
0.0
 11
1020215.200651901
 21
63023.2685460387
 31
0.0
  0
LINE
  5
DC
330
D7
100
AcDbEntity
  8
BAR-GAL
 62
0
370
-2
440
16777216
100
AcDbLine
 10
1020216.450651901
 20
62868.60059427792
 30
0.0
 11
1020216.450651901
 21
62993.2685460387
 31
0.0
  0
SOLID
  5
DD
330
D7
100
AcDbEntity
  8
BAR-GAL
 62
0
370
13
440
16777216
100
AcDbTrace
 10
1020211.450651901
 20
62868.60059427792
 30
0.0
 11
1020221.450651901
 21
62868.60059427792
 31
0.0
 12
1020216.450651901
 22
62838.60059427792
 32
0.0
 13
1020216.450651901
 23
62838.60059427792
 33
0.0
  0
SOLID
  5
DE
330
D7
100
AcDbEntity
  8
BAR-GAL
 62
0
370
13
440
16777216
100
AcDbTrace
 10
1020211.450651901
 20
62993.2685460387
 30
0.0
 11
1020221.450651901
 21
62993.2685460387
 31
0.0
 12
1020216.450651901
 22
63023.2685460387
 32
0.0
 13
1020216.450651901
 23
63023.2685460387
 33
0.0
  0
MTEXT
  5
DF
330
D7
100
AcDbEntity
  8
BAR-GAL
 62
0
370
13
440
16777216
100
AcDbMText
 10
1020191.133462269
 20
62930.93457015801
 30
0.0
 40
30.0
 41
0.0
 46
0.0
 71
5
  1
185
 11
1e-16
 21
1.0
 31
0.0
  0
POINT
  5
E0
330
D7
100
AcDbEntity
  8
Defpoints
 62
0
370
13
440
16777216
100
AcDbPoint
 10
1020247.014904745
 20
62838.60059427792
 30
0.0
  0
POINT
  5
E1
330
D7
100
AcDbEntity
  8
Defpoints
 62
0
370
13
440
16777216
100
AcDbPoint
 10
1020243.831128367
 20
63023.2685460387
 30
0.0
  0
POINT
  5
E2
330
D7
100
AcDbEntity
  8
Defpoints
 62
0
370
13
440
16777216
100
AcDbPoint
 10
1020216.450651901
 20
63023.2685460387
 30
0.0
  0
ENDBLK
  5
D9
330
D7
100
AcDbEntity
  8
0
100
AcDbBlockEnd
  0
BLOCK
  5
107
330
106
100
AcDbEntity
  8
0
100
AcDbBlockBegin
  2
*D13
 70
1
 10
0.0
 20
0.0
 30
0.0
  3
*D13
  1

  0
LINE
  5
109
330
106
100
AcDbEntity
  8
BAR-GAL
 62
0
370
-2
440
16777216
100
AcDbLine
 10
1020143.705587755
 20
62239.01056159392
 30
0.0
 11
1020198.454785486
 21
62239.01056159392
 31
0.0
  0
LINE
  5
10A
330
106
100
AcDbEntity
  8
BAR-GAL
 62
0
370
-2
440
16777216
100
AcDbLine
 10
1020143.705587755
 20
62628.99719049432
 30
0.0
 11
1020198.454785486
 21
62628.99719049432
 31
0.0
  0
LINE
  5
10B
330
106
100
AcDbEntity
  8
BAR-GAL
 62
0
370
-2
440
16777216
100
AcDbLine
 10
1020197.204785486
 20
62269.01056159391
 30
0.0
 11
1020197.204785486
 21
62598.99719049432
 31
0.0
  0
SOLID
  5
10C
330
106
100
AcDbEntity
  8
BAR-GAL
 62
0
370
13
440
16777216
100
AcDbTrace
 10
1020192.204785486
 20
62269.01056159391
 30
0.0
 11
1020202.204785486
 21
62269.01056159391
 31
0.0
 12
1020197.204785486
 22
62239.01056159392
 32
0.0
 13
1020197.204785486
 23
62239.01056159392
 33
0.0
  0
SOLID
  5
10D
330
106
100
AcDbEntity
  8
BAR-GAL
 62
0
370
13
440
16777216
100
AcDbTrace
 10
1020192.204785486
 20
62598.99719049432
 30
0.0
 11
1020202.204785486
 21
62598.99719049432
 31
0.0
 12
1020197.204785486
 22
62628.99719049432
 32
0.0
 13
1020197.204785486
 23
62628.99719049432
 33
0.0
  0
MTEXT
  5
10E
330
106
100
AcDbEntity
  8
BAR-GAL
 62
0
370
13
440
16777216
100
AcDbMText
 10
1020171.87736393
 20
62434.00387604381
 30
0.0
 40
30.0
 41
0.0
 46
0.0
 71
5
  1
390
 11
1e-16
 21
1.0
 31
0.0
  0
POINT
  5
10F
330
106
100
AcDbEntity
  8
Defpoints
 62
0
370
13
440
16777216
100
AcDbPoint
 10
1020143.080587755
 20
62239.01056159392
 30
0.0
  0
POINT
  5
110
330
106
100
AcDbEntity
  8
Defpoints
 62
0
370
13
440
16777216
100
AcDbPoint
 10
1020143.080587755
 20
62628.99719049432
 30
0.0
  0
POINT
  5
111
330
106
100
AcDbEntity
  8
Defpoints
 62
0
370
13
440
16777216
100
AcDbPoint
 10
1020197.204785486
 20
62628.99719049432
 30
0.0
  0
ENDBLK
  5
108
330
106
100
AcDbEntity
  8
0
100
AcDbBlockEnd
  0
BLOCK
  5
114
330
113
100
AcDbEntity
  8
0
100
AcDbBlockBegin
  2
*D14
 70
1
 10
0.0
 20
0.0
 30
0.0
  3
*D14
  1

  0
LINE
  5
116
330
113
100
AcDbEntity
  8
BAR-GAL
 62
0
370
-2
440
16777216
100
AcDbLine
 10
1019862.589893351
 20
62631.57736949744
 30
0.0
 11
1019862.589893351
 21
62735.04331510467
 31
0.0
  0
LINE
  5
117
330
113
100
AcDbEntity
  8
BAR-GAL
 62
0
370
-2
440
16777216
100
AcDbLine
 10
1020143.080587754
 20
62630.62219049429
 30
0.0
 11
1020143.080587754
 21
62735.04331510467
 31
0.0
  0
LINE
  5
118
330
113
100
AcDbEntity
  8
BAR-GAL
 62
0
370
-2
440
16777216
100
AcDbLine
 10
1019892.589893351
 20
62733.79331510467
 30
0.0
 11
1020113.080587754
 21
62733.79331510467
 31
0.0
  0
SOLID
  5
119
330
113
100
AcDbEntity
  8
BAR-GAL
 62
0
370
13
440
16777216
100
AcDbTrace
 10
1019892.589893351
 20
62738.79331510467
 30
0.0
 11
1019892.589893351
 21
62728.79331510466
 31
0.0
 12
1019862.589893351
 22
62733.79331510467
 32
0.0
 13
1019862.589893351
 23
62733.79331510467
 33
0.0
  0
SOLID
  5
11A
330
113
100
AcDbEntity
  8
BAR-GAL
 62
0
370
13
440
16777216
100
AcDbTrace
 10
1020113.080587754
 20
62738.79331510467
 30
0.0
 11
1020113.080587754
 21
62728.79331510466
 31
0.0
 12
1020143.080587754
 22
62733.79331510467
 32
0.0
 13
1020143.080587754
 23
62733.79331510467
 33
0.0
  0
MTEXT
  5
11B
330
113
100
AcDbEntity
  8
BAR-GAL
 62
0
370
13
440
16777216
100
AcDbMText
 10
1020002.835240553
 20
62759.11050473632
 30
0.0
 40
30.0
 41
0.0
 46
0.0
 71
5
  1
280
  0
POINT
  5
11C
330
113
100
AcDbEntity
  8
Defpoints
 62
0
370
13
440
16777216
100
AcDbPoint
 10
1019862.589893351
 20
62630.95236949744
 30
0.0
  0
POINT
  5
11D
330
113
100
AcDbEntity
  8
Defpoints
 62
0
370
13
440
16777216
100
AcDbPoint
 10
1020143.080587754
 20
62629.99719049429
 30
0.0
  0
POINT
  5
11E
330
113
100
AcDbEntity
  8
Defpoints
 62
0
370
13
440
16777216
100
AcDbPoint
 10
1020143.080587754
 20
62733.79331510467
 30
0.0
  0
ENDBLK
  5
115
330
113
100
AcDbEntity
  8
0
100
AcDbBlockEnd
  0
BLOCK
  5
126
330
125
100
AcDbEntity
  8
0
100
AcDbBlockBegin
  2
*D15
 70
1
 10
0.0
 20
0.0
 30
0.0
  3
*D15
  1

  0
LINE
  5
128
330
125
100
AcDbEntity
  8
BAR-GAL
 62
0
370
-2
440
16777216
100
AcDbLine
 10
1019861.146914101
 20
61966.21368525012
 30
0.0
 11
1019861.146914101
 21
61967.1159465523
 31
0.0
  0
LINE
  5
129
330
125
100
AcDbEntity
  8
BAR-GAL
 62
0
370
-2
440
16777216
100
AcDbLine
 10
1020290.739530828
 20
61966.21368525012
 30
0.0
 11
1020290.739530828
 21
61967.1159465523
 31
0.0
  0
LINE
  5
12A
330
125
100
AcDbEntity
  8
BAR-GAL
 62
0
370
-2
440
16777216
100
AcDbLine
 10
1019891.146914101
 20
61965.8659465523
 30
0.0
 11
1020260.739530828
 21
61965.8659465523
 31
0.0
  0
SOLID
  5
12B
330
125
100
AcDbEntity
  8
BAR-GAL
 62
0
370
13
440
16777216
100
AcDbTrace
 10
1019891.146914101
 20
61970.8659465523
 30
0.0
 11
1019891.146914101
 21
61960.8659465523
 31
0.0
 12
1019861.146914101
 22
61965.8659465523
 32
0.0
 13
1019861.146914101
 23
61965.8659465523
 33
0.0
  0
SOLID
  5
12C
330
125
100
AcDbEntity
  8
BAR-GAL
 62
0
370
13
440
16777216
100
AcDbTrace
 10
1020260.739530828
 20
61970.8659465523
 30
0.0
 11
1020260.739530828
 21
61960.8659465523
 31
0.0
 12
1020290.739530828
 22
61965.8659465523
 32
0.0
 13
1020290.739530828
 23
61965.8659465523
 33
0.0
  0
MTEXT
  5
12D
330
125
100
AcDbEntity
  8
BAR-GAL
 62
0
370
13
440
16777216
100
AcDbMText
 10
1020075.943222465
 20
61991.19336810755
 30
0.0
 40
30.0
 41
0.0
 46
0.0
 71
5
  1
430
  0
POINT
  5
12E
330
125
100
AcDbEntity
  8
Defpoints
 62
0
370
13
440
16777216
100
AcDbPoint
 10
1019861.146914101
 20
61965.58868525012
 30
0.0
  0
POINT
  5
12F
330
125
100
AcDbEntity
  8
Defpoints
 62
0
370
13
440
16777216
100
AcDbPoint
 10
1020290.739530828
 20
61965.58868525012
 30
0.0
  0
POINT
  5
130
330
125
100
AcDbEntity
  8
Defpoints
 62
0
370
13
440
16777216
100
AcDbPoint
 10
1020290.739530828
 20
61965.8659465523
 30
0.0
  0
ENDBLK
  5
127
330
125
100
AcDbEntity
  8
0
100
AcDbBlockEnd
  0
BLOCK
  5
134
330
133
100
AcDbEntity
  8
0
100
AcDbBlockBegin
  2
*D16
 70
1
 10
0.0
 20
0.0
 30
0.0
  3
*D16
  1

  0
LINE
  5
136
330
133
100
AcDbEntity
  8
BAR-GAL
 62
0
370
-2
440
16777216
100
AcDbLine
 10
1019863.051479585
 20
61923.66870484292
 30
0.0
 11
1019863.051479585
 21
61967.43337413301
 31
0.0
  0
LINE
  5
137
330
133
100
AcDbEntity
  8
BAR-GAL
 62
0
370
-2
440
16777216
100
AcDbLine
 10
1019400.990751374
 20
61923.66870484292
 30
0.0
 11
1019400.990751374
 21
61967.43337413301
 31
0.0
  0
LINE
  5
138
330
133
100
AcDbEntity
  8
BAR-GAL
 62
0
370
-2
440
16777216
100
AcDbLine
 10
1019833.051479585
 20
61966.18337413301
 30
0.0
 11
1019430.990751374
 21
61966.18337413301
 31
0.0
  0
SOLID
  5
139
330
133
100
AcDbEntity
  8
BAR-GAL
 62
0
370
13
440
16777216
100
AcDbTrace
 10
1019833.051479585
 20
61971.18337413301
 30
0.0
 11
1019833.051479585
 21
61961.18337413301
 31
0.0
 12
1019863.051479585
 22
61966.18337413301
 32
0.0
 13
1019863.051479585
 23
61966.18337413301
 33
0.0
  0
SOLID
  5
13A
330
133
100
AcDbEntity
  8
BAR-GAL
 62
0
370
13
440
16777216
100
AcDbTrace
 10
1019430.990751374
 20
61971.18337413301
 30
0.0
 11
1019430.990751374
 21
61961.18337413301
 31
0.0
 12
1019400.990751374
 22
61966.18337413301
 32
0.0
 13
1019400.990751374
 23
61966.18337413301
 33
0.0
  0
MTEXT
  5
13B
330
133
100
AcDbEntity
  8
BAR-GAL
 62
0
370
13
440
16777216
100
AcDbMText
 10
1019632.02111548
 20
61991.50056376466
 30
0.0
 40
30.0
 41
0.0
 46
0.0
 71
5
  1
462
  0
POINT
  5
13C
330
133
100
AcDbEntity
  8
Defpoints
 62
0
370
13
440
16777216
100
AcDbPoint
 10
1019863.051479585
 20
61923.04370484292
 30
0.0
  0
POINT
  5
13D
330
133
100
AcDbEntity
  8
Defpoints
 62
0
370
13
440
16777216
100
AcDbPoint
 10
1019400.990751374
 20
61923.04370484292
 30
0.0
  0
POINT
  5
13E
330
133
100
AcDbEntity
  8
Defpoints
 62
0
370
13
440
16777216
100
AcDbPoint
 10
1019400.990751374
 20
61966.18337413301
 30
0.0
  0
ENDBLK
  5
135
330
133
100
AcDbEntity
  8
0
100
AcDbBlockEnd
  0
BLOCK
  5
142
330
141
100
AcDbEntity
  8
0
100
AcDbBlockBegin
  2
*D17
 70
1
 10
0.0
 20
0.0
 30
0.0
  3
*D17
  1

  0
LINE
  5
144
330
141
100
AcDbEntity
  8
BAR-GAL
 62
0
370
-2
440
16777216
100
AcDbLine
 10
1020438.136019768
 20
63025.45723828032
 30
0.0
 11
1020438.136019768
 21
63058.89963081965
 31
0.0
  0
LINE
  5
145
330
141
100
AcDbEntity
  8
BAR-GAL
 62
0
370
-2
440
16777216
100
AcDbLine
 10
1019862.30791023
 20
63026.85512372687
 30
0.0
 11
1019862.30791023
 21
63058.89963081965
 31
0.0
  0
LINE
  5
146
330
141
100
AcDbEntity
  8
BAR-GAL
 62
0
370
-2
440
16777216
100
AcDbLine
 10
1020408.136019768
 20
63057.64963081966
 30
0.0
 11
1019892.30791023
 21
63057.64963081966
 31
0.0
  0
SOLID
  5
147
330
141
100
AcDbEntity
  8
BAR-GAL
 62
0
370
13
440
16777216
100
AcDbTrace
 10
1020408.136019768
 20
63062.64963081965
 30
0.0
 11
1020408.136019768
 21
63052.64963081966
 31
0.0
 12
1020438.136019768
 22
63057.64963081966
 32
0.0
 13
1020438.136019768
 23
63057.64963081966
 33
0.0
  0
SOLID
  5
148
330
141
100
AcDbEntity
  8
BAR-GAL
 62
0
370
13
440
16777216
100
AcDbTrace
 10
1019892.30791023
 20
63062.64963081965
 30
0.0
 11
1019892.30791023
 21
63052.64963081966
 31
0.0
 12
1019862.30791023
 22
63057.64963081966
 32
0.0
 13
1019862.30791023
 23
63057.64963081966
 33
0.0
  0
MTEXT
  5
149
330
141
100
AcDbEntity
  8
BAR-GAL
 62
0
370
13
440
16777216
100
AcDbMText
 10
1020150.221964999
 20
63082.9668204513
 30
0.0
 40
30.0
 41
0.0
 46
0.0
 71
5
  1
576
  0
POINT
  5
14A
330
141
100
AcDbEntity
  8
Defpoints
 62
0
370
13
440
16777216
100
AcDbPoint
 10
1020438.136019768
 20
63024.83223828033
 30
0.0
  0
POINT
  5
14B
330
141
100
AcDbEntity
  8
Defpoints
 62
0
370
13
440
16777216
100
AcDbPoint
 10
1019862.30791023
 20
63026.23012372688
 30
0.0
  0
POINT
  5
14C
330
141
100
AcDbEntity
  8
Defpoints
 62
0
370
13
440
16777216
100
AcDbPoint
 10
1019862.30791023
 20
63057.64963081966
 30
0.0
  0
ENDBLK
  5
143
330
141
100
AcDbEntity
  8
0
100
AcDbBlockEnd
  0
BLOCK
  5
14F
330
14E
100
AcDbEntity
  8
0
100
AcDbBlockBegin
  2
*D18
 70
1
 10
0.0
 20
0.0
 30
0.0
  3
*D18
  1

  0
LINE
  5
151
330
14E
100
AcDbEntity
  8
BAR-GAL
 62
0
370
-2
440
16777216
100
AcDbLine
 10
1018913.111466386
 20
62688.62060020388
 30
0.0
 11
1018913.111466386
 21
62719.16408566802
 31
0.0
  0
LINE
  5
152
330
14E
100
AcDbEntity
  8
BAR-GAL
 62
0
370
-2
440
16777216
100
AcDbLine
 10
1019108.156501951
 20
62687.45351540412
 30
0.0
 11
1019108.156501951
 21
62719.16408566802
 31
0.0
  0
LINE
  5
153
330
14E
100
AcDbEntity
  8
BAR-GAL
 62
0
370
-2
440
16777216
100
AcDbLine
 10
1018943.111466386
 20
62717.91408566802
 30
0.0
 11
1019078.156501951
 21
62717.91408566802
 31
0.0
  0
SOLID
  5
154
330
14E
100
AcDbEntity
  8
BAR-GAL
 62
0
370
13
440
16777216
100
AcDbTrace
 10
1018943.111466386
 20
62722.91408566802
 30
0.0
 11
1018943.111466386
 21
62712.91408566802
 31
0.0
 12
1018913.111466386
 22
62717.91408566802
 32
0.0
 13
1018913.111466386
 23
62717.91408566802
 33
0.0
  0
SOLID
  5
155
330
14E
100
AcDbEntity
  8
BAR-GAL
 62
0
370
13
440
16777216
100
AcDbTrace
 10
1019078.156501951
 20
62722.91408566802
 30
0.0
 11
1019078.156501951
 21
62712.91408566802
 31
0.0
 12
1019108.156501951
 22
62717.91408566802
 32
0.0
 13
1019108.156501951
 23
62717.91408566802
 33
0.0
  0
MTEXT
  5
156
330
14E
100
AcDbEntity
  8
BAR-GAL
 62
0
370
13
440
16777216
100
AcDbMText
 10
1019010.633984169
 20
62743.23127529967
 30
0.0
 40
30.0
 41
0.0
 46
0.0
 71
5
  1
195
  0
POINT
  5
157
330
14E
100
AcDbEntity
  8
Defpoints
 62
0
370
13
440
16777216
100
AcDbPoint
 10
1018913.111466386
 20
62687.99560020387
 30
0.0
  0
POINT
  5
158
330
14E
100
AcDbEntity
  8
Defpoints
 62
0
370
13
440
16777216
100
AcDbPoint
 10
1019108.156501951
 20
62686.82851540412
 30
0.0
  0
POINT
  5
159
330
14E
100
AcDbEntity
  8
Defpoints
 62
0
370
13
440
16777216
100
AcDbPoint
 10
1019108.156501951
 20
62717.91408566802
 30
0.0
  0
ENDBLK
  5
150
330
14E
100
AcDbEntity
  8
0
100
AcDbBlockEnd
  0
BLOCK
  5
15D
330
15C
100
AcDbEntity
  8
0
100
AcDbBlockBegin
  2
*D19
 70
1
 10
0.0
 20
0.0
 30
0.0
  3
*D19
  1

  0
LINE
  5
15F
330
15C
100
AcDbEntity
  8
BAR-GAL
 62
0
370
-2
440
16777216
100
AcDbLine
 10
1019108.676094844
 20
62685.56233140004
 30
0.0
 11
1019172.857552707
 21
62685.56233140004
 31
0.0
  0
LINE
  5
160
330
15C
100
AcDbEntity
  8
BAR-GAL
 62
0
370
-2
440
16777216
100
AcDbLine
 10
1019108.676094844
 20
62563.04370484295
 30
0.0
 11
1019172.857552707
 21
62563.04370484295
 31
0.0
  0
LINE
  5
161
330
15C
100
AcDbEntity
  8
BAR-GAL
 62
0
370
-2
440
16777216
100
AcDbLine
 10
1019171.607552707
 20
62655.56233140004
 30
0.0
 11
1019171.607552707
 21
62593.04370484295
 31
0.0
  0
SOLID
  5
162
330
15C
100
AcDbEntity
  8
BAR-GAL
 62
0
370
13
440
16777216
100
AcDbTrace
 10
1019166.607552707
 20
62655.56233140004
 30
0.0
 11
1019176.607552707
 21
62655.56233140004
 31
0.0
 12
1019171.607552707
 22
62685.56233140004
 32
0.0
 13
1019171.607552707
 23
62685.56233140004
 33
0.0
  0
SOLID
  5
163
330
15C
100
AcDbEntity
  8
BAR-GAL
 62
0
370
13
440
16777216
100
AcDbTrace
 10
1019166.607552707
 20
62593.04370484295
 30
0.0
 11
1019176.607552707
 21
62593.04370484295
 31
0.0
 12
1019171.607552707
 22
62563.04370484295
 32
0.0
 13
1019171.607552707
 23
62563.04370484295
 33
0.0
  0
MTEXT
  5
164
330
15C
100
AcDbEntity
  8
BAR-GAL
 62
0
370
13
440
16777216
100
AcDbMText
 10
1019146.280131152
 20
62624.30301812118
 30
0.0
 40
30.0
 41
0.0
 46
0.0
 71
5
  1
123
 11
1e-16
 21
1.0
 31
0.0
  0
POINT
  5
165
330
15C
100
AcDbEntity
  8
Defpoints
 62
0
370
13
440
16777216
100
AcDbPoint
 10
1019108.051094844
 20
62685.56233140004
 30
0.0
  0
POINT
  5
166
330
15C
100
AcDbEntity
  8
Defpoints
 62
0
370
13
440
16777216
100
AcDbPoint
 10
1019108.051094844
 20
62563.04370484295
 30
0.0
  0
POINT
  5
167
330
15C
100
AcDbEntity
  8
Defpoints
 62
0
370
13
440
16777216
100
AcDbPoint
 10
1019171.607552707
 20
62563.04370484295
 30
0.0
  0
ENDBLK
  5
15E
330
15C
100
AcDbEntity
  8
0
100
AcDbBlockEnd
  0
BLOCK
  5
16B
330
16A
100
AcDbEntity
  8
0
100
AcDbBlockBegin
  2
*D20
 70
1
 10
0.0
 20
0.0
 30
0.0
  3
*D20
  1

  0
LINE
  5
16D
330
16A
100
AcDbEntity
  8
BAR-GAL
 62
0
370
-2
440
16777216
100
AcDbLine
 10
1019863.051479585
 20
62910.84639077991
 30
0.0
 11
1019863.051479585
 21
63060.14963081966
 31
0.0
  0
LINE
  5
16E
330
16A
100
AcDbEntity
  8
BAR-GAL
 62
0
370
-2
440
16777216
100
AcDbLine
 10
1018913.134044736
 20
62960.13655249946
 30
0.0
 11
1018913.134044736
 21
63060.14963081966
 31
0.0
  0
LINE
  5
16F
330
16A
100
AcDbEntity
  8
BAR-GAL
 62
0
370
-2
440
16777216
100
AcDbLine
 10
1019833.051479585
 20
63058.89963081965
 30
0.0
 11
1018943.134044736
 21
63058.89963081965
 31
0.0
  0
SOLID
  5
170
330
16A
100
AcDbEntity
  8
BAR-GAL
 62
0
370
13
440
16777216
100
AcDbTrace
 10
1019833.051479585
 20
63063.89963081966
 30
0.0
 11
1019833.051479585
 21
63053.89963081966
 31
0.0
 12
1019863.051479585
 22
63058.89963081965
 32
0.0
 13
1019863.051479585
 23
63058.89963081965
 33
0.0
  0
SOLID
  5
171
330
16A
100
AcDbEntity
  8
BAR-GAL
 62
0
370
13
440
16777216
100
AcDbTrace
 10
1018943.134044736
 20
63063.89963081966
 30
0.0
 11
1018943.134044736
 21
63053.89963081966
 31
0.0
 12
1018913.134044736
 22
63058.89963081965
 32
0.0
 13
1018913.134044736
 23
63058.89963081965
 33
0.0
  0
MTEXT
  5
172
330
16A
100
AcDbEntity
  8
BAR-GAL
 62
0
370
13
440
16777216
100
AcDbMText
 10
1019388.092762161
 20
63084.2168204513
 30
0.0
 40
30.0
 41
0.0
 46
0.0
 71
5
  1
950
  0
POINT
  5
173
330
16A
100
AcDbEntity
  8
Defpoints
 62
0
370
13
440
16777216
100
AcDbPoint
 10
1019863.051479585
 20
62910.22139077991
 30
0.0
  0
POINT
  5
174
330
16A
100
AcDbEntity
  8
Defpoints
 62
0
370
13
440
16777216
100
AcDbPoint
 10
1018913.134044736
 20
62959.51155249946
 30
0.0
  0
POINT
  5
175
330
16A
100
AcDbEntity
  8
Defpoints
 62
0
370
13
440
16777216
100
AcDbPoint
 10
1018913.134044736
 20
63058.89963081965
 30
0.0
  0
ENDBLK
  5
16C
330
16A
100
AcDbEntity
  8
0
100
AcDbBlockEnd
  0
ENDSEC
  0
SECTION
  2
ENTITIES
  0
LWPOLYLINE
  5
35
330
17
100
AcDbEntity
  8
0
370
13
100
AcDbPolyline
 90
4
 70
1
 43
3.428535235377893
 10
1022370.881522085
 20
60156.51927490788
 10
1017278.668963727
 20
60156.51927490788
 10
1017278.668963727
 20
64272.43997279946
 10
1022373.556574493
 20
64272.43997279946
  0
LWPOLYLINE
  5
36
330
17
100
AcDbEntity
  8
BAR-GAL
 62
8
370
13
100
AcDbPolyline
 90
4
 70
1
 10
1020286.991807539
 20
63024.32590435321
 10
1020240.711792547
 20
63024.32590435321
 10
1020240.711792547
 20
62840.93152467353
 10
1020258.846679549
 20
62998.11197242717
  0
LWPOLYLINE
  5
37
330
17
100
AcDbEntity
  8
BAR-GAL
 62
8
370
13
100
AcDbPolyline
 90
4
 70
1
 10
1020436.656500898
 20
63024.32590435321
 10
1020291.514533654
 20
63024.32590435321
 10
1020291.514533654
 20
62840.93152467353
 10
1020313.498901492
 20
62994.30303830894
  0
LWPOLYLINE
  5
38
330
17
100
AcDbEntity
  8
BAR-GAL
 62
7
370
13
100
AcDbPolyline
 90
6
 70
0
 43
15.0
 10
1019676.366259558
 20
61761.94888877085
 10
1019741.134044736
 20
61762.18380934588
 10
1019741.134044736
 20
61923.04370484292
 10
1019401.134044736
 20
61923.04370484292
 10
1019401.134044736
 20
62563.04370484292
 10
1019108.051094844
 20
62563.04370484292
  0
LWPOLYLINE
  5
39
330
17
100
AcDbEntity
  8
BAR-GAL
 62
7
370
13
100
AcDbPolyline
 90
3
 70
0
 43
5.0
 10
1019108.051094844
 20
62563.04370484292
 10
1018913.134044736
 20
62563.04370484292
 10
1018913.134044736
 20
62685.45438367124
  0
DIMENSION
  5
3A
330
17
100
AcDbEntity
  8
BAR-GAL
 62
7
370
13
100
AcDbDimension
280
0
  2
*D1
  3
ISO-25
 10
1020470.096167325
 20
63982.94544437254
 30
0.0
 11
1020078.09859498
 21
64008.26263400419
 31
0.0
 70
32
 71
5
 42
783.9951446900377
 73
0
 74
0
 75
0
100
AcDbAlignedDimension
 13
1019686.101022635
 23
63657.40938367303
 33
0.0
 14
1020470.096167325
 24
63657.40938367303
 34
0.0
 50
0.0
100
AcDbRotatedDimension
  0
DIMENSION
  5
47
330
17
100
AcDbEntity
  8
BAR-GAL
 62
7
370
13
100
AcDbDimension
280
0
  2
*D2
  3
ISO-25
 10
1018913.111466386
 20
63982.94544437254
 30
0.0
 11
1019299.60624451
 21
64008.27286592779
 31
0.0
 70
32
 71
5
 42
772.9895562484162
 73
0
 74
0
 75
0
100
AcDbAlignedDimension
 13
1019686.101022635
 23
63657.40938367303
 33
0.0
 14
1018913.111466386
 24
63497.39148046042
 34
0.0
 50
0.0
100
AcDbRotatedDimension
  0
LWPOLYLINE
  5
54
330
17
100
AcDbEntity
  8
BAR-GAL
 62
7
370
13
100
AcDbPolyline
 90
4
 70
1
 43
5.0
 10
1019686.101022635
 20
63497.39148046042
 10
1019221.101022635
 20
63497.39148046042
 10
1019221.101022635
 20
63797.39148046042
 10
1019686.101022635
 20
63797.39148046042
  0
DIMENSION
  5
55
102
{ACAD_XDICTIONARY
360
56
102
}
330
17
100
AcDbEntity
  8
BAR-GAL
 62
7
370
13
100
AcDbDimension
280
0
  2
*D3
  3
ISO-25
 10
1019149.146552544
 20
63497.39148046045
 30
0.0
 11
1019123.819130989
 21
63647.39148046014
 31
0.0
 70
32
 71
5
 42
300.0
 73
0
 74
0
 75
0
100
AcDbAlignedDimension
 13
1019221.101022635
 23
63797.39148046042
 33
0.0
 14
1019221.101022635
 24
63497.39148046042
 34
0.0
 50
90.0
100
AcDbRotatedDimension
  0
DIMENSION
  5
63
330
17
100
AcDbEntity
  8
BAR-GAL
 62
7
370
13
100
AcDbDimension
280
0
  2
*D4
  3
ISO-25
 10
1018766.006967879
 20
63657.40938367306
 30
0.0
 11
1018740.689778248
 21
63577.40043206645
 31
0.0
 70
32
 71
5
 42
160.0179032126107
 73
0
 74
0
 75
0
100
AcDbAlignedDimension
 13
1018914.111466386
 23
63497.39148046042
 33
0.0
 14
1018914.111466386
 24
63657.40938367303
 34
0.0
 50
90.0
100
AcDbRotatedDimension
  0
DIMENSION
  5
70
330
17
100
AcDbEntity
  8
BAR-GAL
 62
7
370
13
100
AcDbDimension
280
0
  2
*D5
  3
ISO-25
 10
1018765.552103624
 20
62563.11150777356
 30
0.0
 11
1018740.224682068
 21
63030.25149411671
 31
0.0
 70
32
 71
5
 42
934.279972686898
 73
0
 74
0
 75
0
100
AcDbAlignedDimension
 13
1018913.111466386
 23
63497.39148046043
 33
0.0
 14
1018913.111466386
 24
62563.11150777354
 34
0.0
 50
90.0
100
AcDbRotatedDimension
  0
DIMENSION
  5
7D
330
17
100
AcDbEntity
  8
BAR-GAL
 62
7
370
13
100
AcDbDimension
280
0
  2
*D6
  3
ISO-25
 10
1018765.552103625
 20
61923.04370484295
 30
0.0
 11
1018740.234913993
 21
62243.07760630795
 31
0.0
 70
32
 71
5
 42
640.0678029306146
 73
0
 74
0
 75
0
100
AcDbAlignedDimension
 13
1019400.990751374
 23
62563.11150777354
 33
0.0
 14
1018915.009840871
 24
61923.04370484292
 34
0.0
 50
90.0
100
AcDbRotatedDimension
  0
DIMENSION
  5
8A
102
{ACAD_XDICTIONARY
360
8B
102
}
330
17
100
AcDbEntity
  8
BAR-GAL
 62
7
370
13
100
AcDbDimension
280
0
  2
*D7
  3
ISO-25
 10
1019741.134044736
 20
61869.55254171775
 30
0.0
 11
1019571.062398055
 21
61894.879963273
 31
0.0
 70
32
 71
5
 42
340.1432933624601
 73
0
 74
0
 75
0
100
AcDbAlignedDimension
 13
1019400.990751374
 23
61923.04370484292
 33
0.0
 14
1019741.134044736
 24
61922.98438417315
 34
0.0
 50
0.0
100
AcDbRotatedDimension
  0
DIMENSION
  5
98
102
{ACAD_XDICTIONARY
360
99
102
}
330
17
100
AcDbEntity
  8
BAR-GAL
 62
7
370
13
100
AcDbDimension
280
0
  2
*D8
  3
ISO-25
 10
1019400.990751374
 20
62498.06401065665
 30
0.0
 11
1019157.062398055
 21
62523.3812002883
 31
0.0
 70
32
 71
5
 42
487.8567066375398
 73
0
 74
0
 75
0
100
AcDbAlignedDimension
 13
1018913.134044736
 23
62563.04370484292
 33
0.0
 14
1019400.990751374
 24
62563.11150777354
 34
0.0
 50
0.0
100
AcDbRotatedDimension
  0
DIMENSION
  5
A6
330
17
100
AcDbEntity
  8
BAR-GAL
 62
7
370
13
100
AcDbDimension
280
0
  2
*D9
  3
ISO-25
 10
1018581.330614563
 20
60858.59782085554
 30
0.0
 11
1018556.013424931
 21
62258.003602264
 31
0.0
 70
32
 71
5
 42
2798.811562817515
 73
0
 74
0
 75
0
100
AcDbAlignedDimension
 13
1018914.111466386
 23
63657.40938367303
 33
0.0
 14
1018938.933833082
 24
60858.59782085552
 34
0.0
 50
90.0
100
AcDbRotatedDimension
  0
DIMENSION
  5
B3
330
17
100
AcDbEntity
  8
BAR-GAL
 62
7
370
13
100
AcDbDimension
280
0
  2
*D10
  3
ISO-25
 10
1021339.396687191
 20
63657.39148046045
 30
0.0
 11
1021314.335295649
 21
63450.61006093005
 31
0.0
 70
32
 71
5
 42
413.5628390601778
 73
0
 74
0
 75
0
100
AcDbAlignedDimension
 13
1020470.096167325
 23
63243.82864140024
 33
0.0
 14
1020470.111466386
 24
63657.39148046042
 34
0.0
 50
90.0
100
AcDbRotatedDimension
  0
LWPOLYLINE
  5
C0
330
17
100
AcDbEntity
  8
BAR-GAL
 62
7
370
13
100
AcDbPolyline
 90
4
 70
1
 10
1018913.111466386
 20
62685.45438367124
 10
1019106.147404897
 20
62685.45438367124
 10
1019106.147404897
 20
62563.11150777354
 10
1018913.111466386
 20
62563.11150777354
  0
LWPOLYLINE
  5
C1
330
17
100
AcDbEntity
  8
BAR-GAL
 62
7
370
13
100
AcDbPolyline
 90
7
 70
0
 43
15.0
 10
1020470.111466386
 20
63657.39148046042
 10
1019686.111466386
 20
63657.39148046042
 10
1019686.111466386
 20
63497.39148046042
 10
1018913.134044736
 20
63497.39148046042
 10
1018913.134044736
 20
62685.45438367124
 10
1019108.051094844
 20
62685.45438367124
 10
1019108.051094844
 20
62560.6976711056
  0
LWPOLYLINE
  5
C2
330
17
100
AcDbEntity
  8
BAR-GAL
 62
7
370
13
100
AcDbPolyline
 90
5
 70
0
 43
15.0
 10
1019863.051479585
 20
63024.96269039376
 10
1019863.051479585
 20
62240.11666360666
 10
1020142.655146706
 20
62240.11666360666
 10
1020143.080587754
 20
62629.99719049429
 10
1019863.051479585
 20
62628.7284871879
  0
LWPOLYLINE
  5
C3
330
17
100
AcDbEntity
  8
BAR-GAL
 62
7
370
13
100
AcDbPolyline
 90
3
 70
0
 43
15.0
 10
1019863.051479585
 20
63024.74806490949
 10
1020290.610739789
 20
63025.0919099979
 10
1020291.242020428
 20
62240.11666360666
  0
LWPOLYLINE
  5
C4
330
17
100
AcDbEntity
  8
BAR-GAL
 62
7
370
13
100
AcDbPolyline
 90
2
 70
0
 43
15.0
 10
1020290.611865046
 20
63023.69269277233
 10
1020290.611865046
 20
63025.09191090284
  0
LWPOLYLINE
  5
C5
330
17
100
AcDbEntity
  8
BAR-GAL
 62
7
370
13
100
AcDbPolyline
 90
4
 70
0
 43
15.0
 10
1020467.980391841
 20
63244.9318927135
 10
1020438.136019768
 20
63244.9318927135
 10
1020438.136019768
 20
63024.83223828033
 10
1020291.667461477
 20
63024.96269039376
  0
LWPOLYLINE
  5
C6
330
17
100
AcDbEntity
  8
BAR-GAL
 62
7
370
13
100
AcDbPolyline
 90
3
 70
0
 43
15.0
 10
1020436.656500898
 20
63025.38305154933
 10
1020436.656500898
 20
62845.04684583517
 10
1020290.739530829
 20
62845.04684583517
  0
LWPOLYLINE
  5
C7
330
17
100
AcDbEntity
  8
BAR-GAL
 62
7
370
13
100
AcDbPolyline
 90
2
 70
0
 43
15.0
 10
1020290.755532843
 20
62845.04684583517
 10
1019863.051479585
 20
62845.04684583517
  0
DIMENSION
  5
C8
330
17
100
AcDbEntity
  8
BAR-GAL
 62
7
370
13
100
AcDbDimension
280
0
  2
*D11
  3
ISO-25
 10
1020242.984305774
 20
62792.55377029299
 30
0.0
 11
1020053.017892679
 21
62817.88119184824
 31
0.0
 70
32
 71
5
 42
379.9328261881601
 73
0
 74
0
 75
0
100
AcDbAlignedDimension
 13
1019863.051479585
 23
62846.52890465255
 33
0.0
 14
1020242.984305774
 24
62845.89264803943
 34
0.0
 50
0.0
100
AcDbRotatedDimension
  0
LWPOLYLINE
  5
D5
330
17
100
AcDbEntity
  8
BAR-GAL
 62
7
370
13
100
AcDbPolyline
 90
2
 70
0
 43
15.0
 10
1020242.984305774
 20
62845.89264803943
 10
1020242.984305774
 20
63025.05360860453
  0
DIMENSION
  5
D6
330
17
100
AcDbEntity
  8
BAR-GAL
 62
7
370
13
100
AcDbDimension
280
0
  2
*D12
  3
ISO-25
 10
1020216.450651901
 20
63023.2685460387
 30
0.0
 11
1020191.133462269
 21
62930.93457015801
 31
0.0
 70
32
 71
5
 42
184.6679517607772
 73
0
 74
0
 75
0
100
AcDbAlignedDimension
 13
1020247.014904745
 23
62838.60059427789
 33
0.0
 14
1020243.831128366
 24
63023.26854603867
 34
0.0
 50
90.0
100
AcDbRotatedDimension
  0
LWPOLYLINE
  5
E3
330
17
100
AcDbEntity
  8
BAR-GAL
 62
7
370
13
100
AcDbPolyline
 90
4
 70
1
 43
5.0
 10
1019878.333606012
 20
63000.17763117456
 10
1020031.154869564
 20
63000.17763117456
 10
1020031.154869564
 20
62860.08470225259
 10
1019878.333606012
 20
62860.08470225259
  0
LWPOLYLINE
  5
E4
330
17
100
AcDbEntity
  8
BAR-GAL
 62
7
370
13
100
AcDbPolyline
 90
4
 70
1
 43
5.0
 10
1020049.474749027
 20
63000.17763117456
 10
1020202.296012817
 20
63000.17763117456
 10
1020202.296012817
 20
62860.08470225259
 10
1020049.474749027
 20
62860.08470225259
  0
LINE
  5
E5
330
17
100
AcDbEntity
  8
BAR-GAL
 62
7
370
13
100
AcDbLine
 10
1019878.333606012
 20
63000.17763117456
 30
0.0
 11
1020031.154869564
 21
62860.08470225259
 31
0.0
  0
LINE
  5
E6
330
17
100
AcDbEntity
  8
BAR-GAL
 62
7
370
13
100
AcDbLine
 10
1020031.154869564
 20
63000.17763117456
 30
0.0
 11
1019878.333606012
 21
62860.08470225259
 31
0.0
  0
LINE
  5
E7
330
17
100
AcDbEntity
  8
BAR-GAL
 62
7
370
13
100
AcDbLine
 10
1020049.474749027
 20
63000.17763117456
 30
0.0
 11
1020202.296012817
 21
62860.08470225259
 31
0.0
  0
LINE
  5
E8
330
17
100
AcDbEntity
  8
BAR-GAL
 62
7
370
13
100
AcDbLine
 10
1020202.296012817
 20
63000.17763117456
 30
0.0
 11
1020049.474749027
 21
62860.08470225259
 31
0.0
  0
LWPOLYLINE
  5
E9
330
17
100
AcDbEntity
  8
BAR-GAL
 62
7
370
13
100
AcDbPolyline
 90
4
 70
1
 43
5.0
 10
1019972.430176625
 20
62512.55498695117
 10
1020032.921926866
 20
62512.55498695117
 10
1020032.921926866
 20
62350.1745466098
 10
1019972.430176625
 20
62350.1745466098
  0
LINE
  5
EA
330
17
100
AcDbEntity
  8
BAR-GAL
 62
7
370
13
100
AcDbLine
 10
1019972.430176625
 20
62512.55498695117
 30
0.0
 11
1019972.430176625
 21
62629.99719049429
 31
0.0
  0
LINE
  5
EB
330
17
100
AcDbEntity
  8
BAR-GAL
 62
7
370
13
100
AcDbLine
 10
1020002.430176625
 20
62512.55498695117
 30
0.0
 11
1020002.430176625
 21
62629.99719049429
 31
0.0
  0
LINE
  5
EC
330
17
100
AcDbEntity
  8
BAR-GAL
 62
7
370
13
100
AcDbLine
 10
1020032.430176625
 20
62512.55498695117
 30
0.0
 11
1020032.430176625
 21
62629.99719049429
 31
0.0
  0
LINE
  5
ED
330
17
100
AcDbEntity
  8
BAR-GAL
 62
7
370
13
100
AcDbLine
 10
1019972.430176625
 20
62505.99149770131
 30
0.0
 11
1019863.255801957
 21
62505.99149770131
 31
0.0
  0
LINE
  5
EE
330
17
100
AcDbEntity
  8
BAR-GAL
 62
7
370
13
100
AcDbLine
 10
1019972.430176625
 20
62475.99149770131
 30
0.0
 11
1019863.255801957
 21
62475.99149770131
 31
0.0
  0
LINE
  5
EF
330
17
100
AcDbEntity
  8
BAR-GAL
 62
7
370
13
100
AcDbLine
 10
1019972.430176625
 20
62445.99149770131
 30
0.0
 11
1019863.255801957
 21
62445.99149770131
 31
0.0
  0
LINE
  5
F0
330
17
100
AcDbEntity
  8
BAR-GAL
 62
7
370
13
100
AcDbLine
 10
1019972.430176625
 20
62415.99149770131
 30
0.0
 11
1019863.255801957
 21
62415.99149770131
 31
0.0
  0
LINE
  5
F1
330
17
100
AcDbEntity
  8
BAR-GAL
 62
7
370
13
100
AcDbLine
 10
1019972.430176625
 20
62385.99149770131
 30
0.0
 11
1019863.255801957
 21
62385.99149770131
 31
0.0
  0
LINE
  5
F2
330
17
100
AcDbEntity
  8
BAR-GAL
 62
7
370
13
100
AcDbLine
 10
1019972.430176625
 20
62355.99149770131
 30
0.0
 11
1019863.255801957
 21
62355.99149770131
 31
0.0
  0
LINE
  5
F3
330
17
100
AcDbEntity
  8
BAR-GAL
 62
7
370
13
100
AcDbLine
 10
1019972.430176625
 20
62232.73234306668
 30
0.0
 11
1019972.430176625
 21
62350.1745466098
 31
0.0
  0
LINE
  5
F4
330
17
100
AcDbEntity
  8
BAR-GAL
 62
7
370
13
100
AcDbLine
 10
1020002.430176625
 20
62232.73234306668
 30
0.0
 11
1020002.430176625
 21
62350.1745466098
 31
0.0
  0
LINE
  5
F5
330
17
100
AcDbEntity
  8
BAR-GAL
 62
7
370
13
100
AcDbLine
 10
1020032.430176625
 20
62232.73234306668
 30
0.0
 11
1020032.430176625
 21
62350.1745466098
 31
0.0
  0
LINE
  5
F6
330
17
100
AcDbEntity
  8
BAR-GAL
 62
7
370
13
100
AcDbLine
 10
1020143.080587754
 20
62505.99149770131
 30
0.0
 11
1020033.906213086
 21
62505.99149770131
 31
0.0
  0
LINE
  5
F7
330
17
100
AcDbEntity
  8
BAR-GAL
 62
7
370
13
100
AcDbLine
 10
1020143.080587754
 20
62475.99149770131
 30
0.0
 11
1020033.906213086
 21
62475.99149770131
 31
0.0
  0
LINE
  5
F8
330
17
100
AcDbEntity
  8
BAR-GAL
 62
7
370
13
100
AcDbLine
 10
1020143.080587754
 20
62445.99149770131
 30
0.0
 11
1020033.906213086
 21
62445.99149770131
 31
0.0
  0
LINE
  5
F9
330
17
100
AcDbEntity
  8
BAR-GAL
 62
7
370
13
100
AcDbLine
 10
1020143.080587754
 20
62415.99149770131
 30
0.0
 11
1020033.906213086
 21
62415.99149770131
 31
0.0
  0
LINE
  5
FA
330
17
100
AcDbEntity
  8
BAR-GAL
 62
7
370
13
100
AcDbLine
 10
1020143.080587754
 20
62385.99149770131
 30
0.0
 11
1020033.906213086
 21
62385.99149770131
 31
0.0
  0
LINE
  5
FB
330
17
100
AcDbEntity
  8
BAR-GAL
 62
7
370
13
100
AcDbLine
 10
1020143.080587754
 20
62355.99149770131
 30
0.0
 11
1020033.906213086
 21
62355.99149770131
 31
0.0
  0
LWPOLYLINE
  5
FC
330
17
100
AcDbEntity
  8
BAR-GAL
 62
7
370
13
100
AcDbPolyline
 90
4
 70
1
 43
5.0
 10
1019863.729641875
 20
62689.23850769569
 10
1020145.832438876
 20
62689.23850769569
 10
1020145.832438876
 20
62628.99719049427
 10
1019863.729641875
 20
62628.99719049427
  0
LWPOLYLINE
  5
FD
330
17
100
AcDbEntity
  8
BAR-GAL
 62
7
370
13
100
AcDbPolyline
 90
2
 70
0
 43
5.0
 10
1019980.892610644
 20
62689.23850769569
 10
1019980.892610644
 20
62629.99719049428
  0
LWPOLYLINE
  5
FE
330
17
100
AcDbEntity
  8
BAR-GAL
 62
7
370
13
100
AcDbPolyline
 90
2
 70
0
 43
5.0
 10
1020105.716857125
 20
62688.58150622528
 10
1020105.716857125
 20
62628.99719049427
  0
LINE
  5
FF
330
17
100
AcDbEntity
  8
BAR-GAL
 62
7
370
13
100
AcDbLine
 10
1019863.729641875
 20
62689.23850769569
 30
0.0
 11
1019980.892610644
 21
62629.99719049428
 31
0.0
  0
LINE
  5
100
330
17
100
AcDbEntity
  8
BAR-GAL
 62
7
370
13
100
AcDbLine
 10
1019980.892610644
 20
62629.99719049428
 30
0.0
 11
1020105.716857125
 21
62688.58150622528
 31
0.0
  0
LINE
  5
101
330
17
100
AcDbEntity
  8
BAR-GAL
 62
7
370
13
100
AcDbLine
 10
1020105.716857125
 20
62688.58150622528
 30
0.0
 11
1020145.832438876
 21
62629.99719049427
 31
0.0
  0
LINE
  5
102
330
17
100
AcDbEntity
  8
BAR-GAL
 62
7
370
13
100
AcDbLine
 10
1020145.832438876
 20
62689.23850769569
 30
0.0
 11
1020105.716857125
 21
62629.99719049427
 31
0.0
  0
LINE
  5
103
330
17
100
AcDbEntity
  8
BAR-GAL
 62
7
370
13
100
AcDbLine
 10
1020105.716857125
 20
62629.99719049427
 30
0.0
 11
1019980.892610644
 21
62689.23850769569
 31
0.0
  0
LINE
  5
104
330
17
100
AcDbEntity
  8
BAR-GAL
 62
7
370
13
100
AcDbLine
 10
1019980.892610644
 20
62689.23850769569
 30
0.0
 11
1019865.023366858
 21
62628.99719049427
 31
0.0
  0
DIMENSION
  5
105
330
17
100
AcDbEntity
  8
BAR-GAL
 62
7
370
13
100
AcDbDimension
280
0
  2
*D13
  3
ISO-25
 10
1020197.204785486
 20
62628.99719049432
 30
0.0
 11
1020171.87736393
 21
62434.00387604381
 31
0.0
 70
32
 71
5
 42
389.9866289004058
 73
0
 74
0
 75
0
100
AcDbAlignedDimension
 13
1020143.080587754
 23
62239.01056159388
 33
0.0
 14
1020143.080587754
 24
62628.99719049429
 34
0.0
 50
90.0
100
AcDbRotatedDimension
  0
DIMENSION
  5
112
330
17
100
AcDbEntity
  8
BAR-GAL
 62
7
370
13
100
AcDbDimension
280
0
  2
*D14
  3
ISO-25
 10
1020143.080587754
 20
62733.79331510467
 30
0.0
 11
1020002.835240553
 21
62759.11050473632
 31
0.0
 70
32
 71
5
 42
280.4906944036484
 73
0
 74
0
 75
0
100
AcDbAlignedDimension
 13
1019862.589893351
 23
62630.95236949744
 33
0.0
 14
1020143.080587754
 24
62629.99719049429
 34
0.0
 50
0.0
100
AcDbRotatedDimension
  0
LWPOLYLINE
  5
11F
330
17
100
AcDbEntity
  8
BAR-GAL
 62
7
370
13
100
AcDbPolyline
 90
8
 70
1
 10
1019864.679867056
 20
62845.04684583517
 10
1019864.679867056
 20
62694.14876965361
 10
1020145.488939073
 20
62694.14876965362
 10
1020145.488939074
 20
62633.90745245221
 10
1020145.488939074
 20
62243.92082355179
 10
1020290.739530828
 20
62243.9208235518
 10
1020290.739530828
 20
62845.04684583516
 10
1020245.459515837
 20
62845.04684583517
  0
LWPOLYLINE
  5
120
330
17
100
AcDbEntity
  8
BAR-GAL
 62
7
370
13
100
AcDbPolyline
 90
2
 70
0
 43
15.0
 10
1020143.080587754
 20
62239.01056159388
 10
1020293.150790267
 20
62239.01056159388
  0
LWPOLYLINE
  5
121
330
17
100
AcDbEntity
  8
BAR-GAL
 62
7
370
13
100
AcDbPolyline
 90
3
 70
0
 43
15.0
 10
1019863.051479585
 20
62240.11666360666
 10
1019863.051479585
 20
61923.04370484292
 10
1019741.134044736
 20
61923.04370484292
  0
LWPOLYLINE
  5
122
330
17
100
AcDbEntity
  8
BAR-GAL
 62
7
370
13
100
AcDbPolyline
 90
3
 70
0
 43
15.0
 10
1020290.739530828
 20
62243.9208235518
 10
1020290.739530828
 20
61890.02757450451
 10
1020702.982822671
 20
61890.02757450451
  0
DIMENSION
  5
123
102
{ACAD_XDICTIONARY
360
124
102
}
330
17
100
AcDbEntity
  8
BAR-GAL
 62
7
370
13
100
AcDbDimension
280
0
  2
*D15
  3
ISO-25
 10
1020290.739530828
 20
61965.8659465523
 30
0.0
 11
1020075.943222465
 21
61991.19336810755
 31
0.0
 70
32
 71
5
 42
429.5926167272264
 73
0
 74
0
 75
0
100
AcDbAlignedDimension
 13
1019861.146914101
 23
61965.58868525012
 33
0.0
 14
1020290.739530828
 24
61965.58868525012
 34
0.0
 50
0.0
100
AcDbRotatedDimension
  0
DIMENSION
  5
131
102
{ACAD_XDICTIONARY
360
132
102
}
330
17
100
AcDbEntity
  8
BAR-GAL
 62
7
370
13
100
AcDbDimension
280
0
  2
*D16
  3
ISO-25
 10
1019400.990751374
 20
61966.18337413301
 30
0.0
 11
1019632.02111548
 21
61991.50056376466
 31
0.0
 70
32
 71
5
 42
462.0607282115379
 73
0
 74
0
 75
0
100
AcDbAlignedDimension
 13
1019863.051479585
 23
61923.04370484292
 33
0.0
 14
1019400.990751374
 24
61923.04370484292
 34
0.0
 50
0.0
100
AcDbRotatedDimension
  0
DIMENSION
  5
13F
102
{ACAD_XDICTIONARY
360
140
102
}
330
17
100
AcDbEntity
  8
BAR-GAL
 62
7
370
13
100
AcDbDimension
280
0
  2
*D17
  3
ISO-25
 10
1019862.30791023
 20
63057.64963081966
 30
0.0
 11
1020150.221964999
 21
63082.9668204513
 31
0.0
 70
32
 71
5
 42
575.828109538299
 73
0
 74
0
 75
0
100
AcDbAlignedDimension
 13
1020438.136019768
 23
63024.83223828033
 33
0.0
 14
1019862.30791023
 24
63026.23012372688
 34
0.0
 50
0.0
100
AcDbRotatedDimension
  0
DIMENSION
  5
14D
330
17
100
AcDbEntity
  8
BAR-GAL
 62
7
370
13
100
AcDbDimension
280
0
  2
*D18
  3
ISO-25
 10
1019108.156501951
 20
62717.91408566802
 30
0.0
 11
1019010.633984169
 21
62743.23127529967
 31
0.0
 70
32
 71
5
 42
195.0450355650391
 73
0
 74
0
 75
0
100
AcDbAlignedDimension
 13
1018913.111466386
 23
62687.99560020387
 33
0.0
 14
1019108.156501951
 24
62686.82851540412
 34
0.0
 50
0.0
100
AcDbRotatedDimension
  0
DIMENSION
  5
15A
102
{ACAD_XDICTIONARY
360
15B
102
}
330
17
100
AcDbEntity
  8
BAR-GAL
 62
7
370
13
100
AcDbDimension
280
0
  2
*D19
  3
ISO-25
 10
1019171.607552707
 20
62563.04370484295
 30
0.0
 11
1019146.280131152
 21
62624.30301812118
 31
0.0
 70
32
 71
5
 42
122.5186265570883
 73
0
 74
0
 75
0
100
AcDbAlignedDimension
 13
1019108.051094844
 23
62685.56233140001
 33
0.0
 14
1019108.051094844
 24
62563.04370484292
 34
0.0
 50
90.0
100
AcDbRotatedDimension
  0
DIMENSION
  5
168
102
{ACAD_XDICTIONARY
360
169
102
}
330
17
100
AcDbEntity
  8
BAR-GAL
 62
7
370
13
100
AcDbDimension
280
0
  2
*D20
  3
ISO-25
 10
1018913.134044736
 20
63058.89963081965
 30
0.0
 11
1019388.092762161
 21
63084.2168204513
 31
0.0
 70
32
 71
5
 42
949.917434849078
 73
0
 74
0
 75
0
100
AcDbAlignedDimension
 13
1019863.051479585
 23
62910.22139077991
 33
0.0
 14
1018913.134044736
 24
62959.51155249946
 34
0.0
 50
0.0
100
AcDbRotatedDimension
  0
LWPOLYLINE
  5
176
330
17
100
AcDbEntity
  8
BAR-GAL
 62
7
370
13
100
AcDbPolyline
 90
20
 70
1
 10
1020467.982822671
 20
63657.39148046043
 10
1019686.111466386
 20
63657.39148046043
 10
1019686.111466387
 20
63497.39148046042
 10
1018913.134044736
 20
63497.39148046041
 10
1018913.134044736
 20
62685.45438367125
 10
1019108.051094844
 20
62685.45438367125
 10
1019108.051094844
 20
62563.04370484292
 10
1019401.134044736
 20
62563.04370484293
 10
1019401.134044736
 20
61923.04370484292
 10
1019741.134044736
 20
61923.04370484292
 10
1019863.051479585
 20
61923.04370484292
 10
1019863.051479585
 20
62240.11666360666
 10
1019863.051479585
 20
63024.74806490949
 10
1020291.514533654
 20
63025.09263683302
 10
1020291.514533654
 20
63024.9628265988
 10
1020436.656500898
 20
63024.83355601271
 10
1020436.656500898
 20
63025.38305154933
 10
1020438.136019768
 20
63244.9318927135
 10
1020467.982822671
 20
63244.9318927135
 10
1020467.982822671
 20
63403.39254853017
  0
MTEXT
  5
177
330
17
100
AcDbEntity
  8
VP
370
13
100
AcDbMText
 10
1019572.969812414
 20
63242.82600680436
 30
0.0
 40
59.201694284898
 41
262.1310489581865
 46
0.0
 71
1
  1
 15674
  0
MTEXT
  5
178
330
17
100
AcDbEntity
  8
VP
370
13
100
AcDbMText
 10
1020358.691928139
 20
62621.11788350359
 30
0.0
 40
59.201694284898
 41
262.1310489581865
 46
0.0
 71
1
  1
 8412
  0
TEXT
  5
179
330
17
100
AcDbEntity
  8
0
100
AcDbText
 10
1019235.478980707
 20
62876.67836528541
 30
0.0
 40
59.201694284898
  1
11, 14 דירה
100
AcDbText
  0
ENDSEC
  0
SECTION
  2
OBJECTS
  0
DICTIONARY
  5
A
330
0
100
AcDbDictionary
281
1
  3
ACAD_COLOR
350
B
  3
ACAD_GROUP
350
C
  3
ACAD_LAYOUT
350
D
  3
ACAD_MATERIAL
350
E
  3
ACAD_MLEADERSTYLE
350
F
  3
ACAD_MLINESTYLE
350
10
  3
ACAD_PLOTSETTINGS
350
11
  3
ACAD_PLOTSTYLENAME
350
12
  3
ACAD_SCALELIST
350
14
  3
ACAD_TABLESTYLE
350
15
  3
ACAD_VISUALSTYLE
350
16
  3
EZDXF_META
350
2D
  0
DICTIONARY
  5
B
330
A
100
AcDbDictionary
281
1
  0
DICTIONARY
  5
C
330
A
100
AcDbDictionary
281
1
  0
DICTIONARY
  5
D
330
A
100
AcDbDictionary
281
1
  3
Model
350
1A
  3
Layout1
350
1E
  0
DICTIONARY
  5
E
330
A
100
AcDbDictionary
281
1
  3
ByBlock
350
1F
  3
ByLayer
350
20
  3
Global
350
21
  0
DICTIONARY
  5
F
330
A
100
AcDbDictionary
281
1
  3
Standard
350
2C
  0
DICTIONARY
  5
10
330
A
100
AcDbDictionary
281
1
  3
Standard
350
22
  0
DICTIONARY
  5
11
330
A
100
AcDbDictionary
281
1
  0
ACDBDICTIONARYWDFLT
  5
12
330
A
100
AcDbDictionary
281
1
  3
Normal
350
13
100
AcDbDictionaryWithDefault
340
13
  0
ACDBPLACEHOLDER
  5
13
330
12
  0
DICTIONARY
  5
14
330
A
100
AcDbDictionary
281
1
  0
DICTIONARY
  5
15
330
A
100
AcDbDictionary
281
1
  0
DICTIONARY
  5
16
330
A
100
AcDbDictionary
281
1
  0
LAYOUT
  5
1A
330
D
100
AcDbPlotSettings
  1

  4
A3
  6

 40
7.5
 41
20.0
 42
7.5
 43
20.0
 44
420.0
 45
297.0
 46
0.0
 47
0.0
 48
0.0
 49
0.0
140
0.0
141
0.0
142
1.0
143
1.0
 70
1024
 72
1
 73
0
 74
5
  7

 75
16
 76
0
 77
2
 78
300
147
1.0
148
0.0
149
0.0
100
AcDbLayout
  1
Model
 70
1
 71
0
 10
0.0
 20
0.0
 11
420.0
 21
297.0
 12
0.0
 22
0.0
 32
0.0
 14
1e+20
 24
1e+20
 34
1e+20
 15
-1e+20
 25
-1e+20
 35
-1e+20
146
0.0
 13
0.0
 23
0.0
 33
0.0
 16
1.0
 26
0.0
 36
0.0
 17
0.0
 27
1.0
 37
0.0
 76
1
330
17
  0
LAYOUT
  5
1E
330
D
100
AcDbPlotSettings
  1

  4
A3
  6

 40
7.5
 41
20.0
 42
7.5
 43
20.0
 44
420.0
 45
297.0
 46
0.0
 47
0.0
 48
0.0
 49
0.0
140
0.0
141
0.0
142
1.0
143
1.0
 70
0
 72
1
 73
0
 74
5
  7

 75
16
 76
0
 77
2
 78
300
147
1.0
148
0.0
149
0.0
100
AcDbLayout
  1
Layout1
 70
1
 71
1
 10
0.0
 20
0.0
 11
420.0
 21
297.0
 12
0.0
 22
0.0
 32
0.0
 14
1e+20
 24
1e+20
 34
1e+20
 15
-1e+20
 25
-1e+20
 35
-1e+20
146
0.0
 13
0.0
 23
0.0
 33
0.0
 16
1.0
 26
0.0
 36
0.0
 17
0.0
 27
1.0
 37
0.0
 76
1
330
1B
  0
MATERIAL
  5
1F
102
{ACAD_REACTORS
330
E
102
}
330
E
100
AcDbMaterial
  1
ByBlock
  2

 70
0
 40
1.0
 71
1
 41
1.0
 91
-1023410177
 42
1.0
 72
1
  3

 73
1
 74
1
 75
1
 44
0.5
 73
0
 45
1.0
 46
1.0
 77
1
  4

 78
1
 79
1
170
1
 48
1.0
171
1
  6

172
1
173
1
174
1
140
1.0
141
1.0
175
1
  7

176
1
177
1
178
1
143
1.0
179
1
  8

270
1
271
1
272
1
145
1.0
146
1.0
273
1
  9

274
1
275
1
276
1
 42
1.0
 72
1
  3

 73
1
 74
1
 75
1
 94
63
  0
MATERIAL
  5
20
102
{ACAD_REACTORS
330
E
102
}
330
E
100
AcDbMaterial
  1
ByLayer
  2

 70
0
 40
1.0
 71
1
 41
1.0
 91
-1023410177
 42
1.0
 72
1
  3

 73
1
 74
1
 75
1
 44
0.5
 73
0
 45
1.0
 46
1.0
 77
1
  4

 78
1
 79
1
170
1
 48
1.0
171
1
  6

172
1
173
1
174
1
140
1.0
141
1.0
175
1
  7

176
1
177
1
178
1
143
1.0
179
1
  8

270
1
271
1
272
1
145
1.0
146
1.0
273
1
  9

274
1
275
1
276
1
 42
1.0
 72
1
  3

 73
1
 74
1
 75
1
 94
63
  0
MATERIAL
  5
21
102
{ACAD_REACTORS
330
E
102
}
330
E
100
AcDbMaterial
  1
Global
  2

 70
0
 40
1.0
 71
1
 41
1.0
 91
-1023410177
 42
1.0
 72
1
  3

 73
1
 74
1
 75
1
 44
0.5
 73
0
 45
1.0
 46
1.0
 77
1
  4

 78
1
 79
1
170
1
 48
1.0
171
1
  6

172
1
173
1
174
1
140
1.0
141
1.0
175
1
  7

176
1
177
1
178
1
143
1.0
179
1
  8

270
1
271
1
272
1
145
1.0
146
1.0
273
1
  9

274
1
275
1
276
1
 42
1.0
 72
1
  3

 73
1
 74
1
 75
1
 94
63
  0
MLINESTYLE
  5
22
102
{ACAD_REACTORS
330
10
102
}
330
10
100
AcDbMlineStyle
  2
Standard
 70
0
  3

 62
256
 51
90.0
 52
90.0
 71
2
 49
0.5
 62
256
  6
BYLAYER
 49
-0.5
 62
256
  6
BYLAYER
  0
MLEADERSTYLE
  5
2C
102
{ACAD_REACTORS
330
F
102
}
330
F
100
AcDbMLeaderStyle
179
2
170
2
171
1
172
0
 90
2
 40
0.0
 41
0.0
173
1
 91
-1056964608
 92
-2
290
1
 42
2.0
291
1
 43
8.0
  3
Standard
 44
4.0
300

342
29
174
1
175
1
176
0
178
1
 93
-1056964608
 45
4.0
292
0
297
0
 46
4.0
 94
-1056964608
 47
1.0
 49
1.0
140
1.0
294
1
141
0.0
177
0
142
1.0
295
0
296
0
143
3.75
271
0
272
9
273
9
  0
DICTIONARY
  5
2D
330
A
100
AcDbDictionary
280
1
281
1
  3
CREATED_BY_EZDXF
350
2E
  3
WRITTEN_BY_EZDXF
350
17C
  0
DICTIONARYVAR
  5
2E
330
2D
100
DictionaryVariables
280
0
  1
1.4.3 @ 2026-05-05T23:16:50.969151+00:00
  0
DICTIONARY
  5
56
330
55
100
AcDbDictionary
280
1
281
1
  0
DICTIONARY
  5
8B
330
8A
100
AcDbDictionary
280
1
281
1
  0
DICTIONARY
  5
99
330
98
100
AcDbDictionary
280
1
281
1
  0
DICTIONARY
  5
124
330
123
100
AcDbDictionary
280
1
281
1
  0
DICTIONARY
  5
132
330
131
100
AcDbDictionary
280
1
281
1
  0
DICTIONARY
  5
140
330
13F
100
AcDbDictionary
280
1
281
1
  0
DICTIONARY
  5
15B
330
15A
100
AcDbDictionary
280
1
281
1
  0
DICTIONARY
  5
169
330
168
100
AcDbDictionary
280
1
281
1
  0
DICTIONARYVAR
  5
17C
330
2D
100
DictionaryVariables
280
0
  1
1.4.3 @ 2026-05-05T23:16:50.986933+00:00
  0
ENDSEC
  0
EOF
