  0
SECTION
  2
HEADER
  9
$ACADVER
  1
AC1032
  9
$ACADMAINTVER
 90
4
  9
$DWGCODEPAGE
  3
ANSI_1252
  9
$LASTSAVEDBY
  1
ezdxf
  9
$REQUIREDVERSIONS
160
0
  9
$INSBASE
 10
0.0
 20
0.0
 30
0.0
  9
$EXTMIN
 10
1e+20
 20
1e+20
 30
1e+20
  9
$EXTMAX
 10
-1e+20
 20
-1e+20
 30
-1e+20
  9
$LIMMIN
 10
0.0
 20
0.0
  9
$LIMMAX
 10
420.0
 20
297.0
  9
$ORTHOMODE
 70
0
  9
$REGENMODE
 70
1
  9
$FILLMODE
 70
1
  9
$QTEXTMODE
 70
0
  9
$MIRRTEXT
 70
1
  9
$LTSCALE
 40
1.0
  9
$ATTMODE
 70
1
  9
$TEXTSIZE
 40
2.5
  9
$TRACEWID
 40
1.0
  9
$TEXTSTYLE
  7
Standard
  9
$CLAYER
  8
0
  9
$CELTYPE
  6
ByLayer
  9
$CECOLOR
 62
256
  9
$CELTSCALE
 40
1.0
  9
$DISPSILH
 70
0
  9
$DIMSCALE
 40
1.0
  9
$DIMASZ
 40
2.5
  9
$DIMEXO
 40
0.625
  9
$DIMDLI
 40
3.75
  9
$DIMRND
 40
0.0
  9
$DIMDLE
 40
0.0
  9
$DIMEXE
 40
1.25
  9
$DIMTP
 40
0.0
  9
$DIMTM
 40
0.0
  9
$DIMTXT
 40
2.5
  9
$DIMCEN
 40
2.5
  9
$DIMTSZ
 40
0.0
  9
$DIMTOL
 70
0
  9
$DIMLIM
 70
0
  9
$DIMTIH
 70
0
  9
$DIMTOH
 70
0
  9
$DIMSE1
 70
0
  9
$DIMSE2
 70
0
  9
$DIMTAD
 70
1
  9
$DIMZIN
 70
8
  9
$DIMBLK
  1

  9
$DIMASO
 70
1
  9
$DIMSHO
 70
1
  9
$DIMPOST
  1

  9
$DIMAPOST
  1

  9
$DIMALT
 70
0
  9
$DIMALTD
 70
3
  9
$DIMALTF
 40
0.03937007874
  9
$DIMLFAC
 40
1.0
  9
$DIMTOFL
 70
1
  9
$DIMTVP
 40
0.0
  9
$DIMTIX
 70
0
  9
$DIMSOXD
 70
0
  9
$DIMSAH
 70
0
  9
$DIMBLK1
  1

  9
$DIMBLK2
  1

  9
$DIMSTYLE
  2
ISO-25
  9
$DIMCLRD
 70
0
  9
$DIMCLRE
 70
0
  9
$DIMCLRT
 70
0
  9
$DIMTFAC
 40
1.0
  9
$DIMGAP
 40
0.625
  9
$DIMJUST
 70
0
  9
$DIMSD1
 70
0
  9
$DIMSD2
 70
0
  9
$DIMTOLJ
 70
0
  9
$DIMTZIN
 70
8
  9
$DIMALTZ
 70
0
  9
$DIMALTTZ
 70
0
  9
$DIMUPT
 70
0
  9
$DIMDEC
 70
2
  9
$DIMTDEC
 70
2
  9
$DIMALTU
 70
2
  9
$DIMALTTD
 70
3
  9
$DIMTXSTY
  7
Standard
  9
$DIMAUNIT
 70
0
  9
$DIMADEC
 70
0
  9
$DIMALTRND
 40
0.0
  9
$DIMAZIN
 70
0
  9
$DIMDSEP
 70
44
  9
$DIMATFIT
 70
3
  9
$DIMFRAC
 70
0
  9
$DIMLDRBLK
  1

  9
$DIMLUNIT
 70
2
  9
$DIMLWD
 70
-2
  9
$DIMLWE
 70
-2
  9
$DIMTMOVE
 70
0
  9
$DIMFXL
 40
1.0
  9
$DIMFXLON
 70
0
  9
$DIMJOGANG
 40
0.785398163397
  9
$DIMTFILL
 70
0
  9
$DIMTFILLCLR
 70
0
  9
$DIMARCSYM
 70
0
  9
$DIMLTYPE
  6

  9
$DIMLTEX1
  6

  9
$DIMLTEX2
  6

  9
$DIMTXTDIRECTION
 70
0
  9
$LUNITS
 70
2
  9
$LUPREC
 70
4
  9
$SKETCHINC
 40
1.0
  9
$FILLETRAD
 40
10.0
  9
$AUNITS
 70
0
  9
$AUPREC
 70
2
  9
$MENU
  1
.
  9
$ELEVATION
 40
0.0
  9
$PELEVATION
 40
0.0
  9
$THICKNESS
 40
0.0
  9
$LIMCHECK
 70
0
  9
$CHAMFERA
 40
0.0
  9
$CHAMFERB
 40
0.0
  9
$CHAMFERC
 40
0.0
  9
$CHAMFERD
 40
0.0
  9
$SKPOLY
 70
0
  9
$TDCREATE
 40
2461167.0950347222
  9
$TDUCREATE
 40
2458532.153996898
  9
$TDUPDATE
 40
2461167.0950347222
  9
$TDUUPDATE
 40
2458532.1544311
  9
$TDINDWG
 40
0.0
  9
$TDUSRTIMER
 40
0.0
  9
$USRTIMER
 70
1
  9
$ANGBASE
 50
0.0
  9
$ANGDIR
 70
0
  9
$PDMODE
 70
0
  9
$PDSIZE
 40
0.0
  9
$PLINEWID
 40
0.0
  9
$SPLFRAME
 70
0
  9
$SPLINETYPE
 70
6
  9
$SPLINESEGS
 70
8
  9
$HANDSEED
  5
1BC
  9
$SURFTAB1
 70
6
  9
$SURFTAB2
 70
6
  9
$SURFTYPE
 70
6
  9
$SURFU
 70
6
  9
$SURFV
 70
6
  9
$UCSBASE
  2

  9
$UCSNAME
  2

  9
$UCSORG
 10
0.0
 20
0.0
 30
0.0
  9
$UCSXDIR
 10
1.0
 20
0.0
 30
0.0
  9
$UCSYDIR
 10
0.0
 20
1.0
 30
0.0
  9
$UCSORTHOREF
  2

  9
$UCSORTHOVIEW
 70
0
  9
$UCSORGTOP
 10
0.0
 20
0.0
 30
0.0
  9
$UCSORGBOTTOM
 10
0.0
 20
0.0
 30
0.0
  9
$UCSORGLEFT
 10
0.0
 20
0.0
 30
0.0
  9
$UCSORGRIGHT
 10
0.0
 20
0.0
 30
0.0
  9
$UCSORGFRONT
 10
0.0
 20
0.0
 30
0.0
  9
$UCSORGBACK
 10
0.0
 20
0.0
 30
0.0
  9
$PUCSBASE
  2

  9
$PUCSNAME
  2

  9
$PUCSORG
 10
0.0
 20
0.0
 30
0.0
  9
$PUCSXDIR
 10
1.0
 20
0.0
 30
0.0
  9
$PUCSYDIR
 10
0.0
 20
1.0
 30
0.0
  9
$PUCSORTHOREF
  2

  9
$PUCSORTHOVIEW
 70
0
  9
$PUCSORGTOP
 10
0.0
 20
0.0
 30
0.0
  9
$PUCSORGBOTTOM
 10
0.0
 20
0.0
 30
0.0
  9
$PUCSORGLEFT
 10
0.0
 20
0.0
 30
0.0
  9
$PUCSORGRIGHT
 10
0.0
 20
0.0
 30
0.0
  9
$PUCSORGFRONT
 10
0.0
 20
0.0
 30
0.0
  9
$PUCSORGBACK
 10
0.0
 20
0.0
 30
0.0
  9
$USERI1
 70
0
  9
$USERI2
 70
0
  9
$USERI3
 70
0
  9
$USERI4
 70
0
  9
$USERI5
 70
0
  9
$USERR1
 40
0.0
  9
$USERR2
 40
0.0
  9
$USERR3
 40
0.0
  9
$USERR4
 40
0.0
  9
$USERR5
 40
0.0
  9
$WORLDVIEW
 70
1
  9
$SHADEDGE
 70
3
  9
$SHADEDIF
 70
70
  9
$TILEMODE
 70
1
  9
$MAXACTVP
 70
64
  9
$PINSBASE
 10
0.0
 20
0.0
 30
0.0
  9
$PLIMCHECK
 70
0
  9
$PEXTMIN
 10
1e+20
 20
1e+20
 30
1e+20
  9
$PEXTMAX
 10
-1e+20
 20
-1e+20
 30
-1e+20
  9
$PLIMMIN
 10
0.0
 20
0.0
  9
$PLIMMAX
 10
420.0
 20
297.0
  9
$UNITMODE
 70
0
  9
$VISRETAIN
 70
1
  9
$PLINEGEN
 70
0
  9
$PSLTSCALE
 70
1
  9
$TREEDEPTH
 70
3020
  9
$CMLSTYLE
  2
Standard
  9
$CMLJUST
 70
0
  9
$CMLSCALE
 40
20.0
  9
$PROXYGRAPHICS
 70
1
  9
$MEASUREMENT
 70
1
  9
$CELWEIGHT
370
-1
  9
$ENDCAPS
280
0
  9
$JOINSTYLE
280
0
  9
$LWDISPLAY
290
0
  9
$INSUNITS
 70
6
  9
$HYPERLINKBASE
  1

  9
$STYLESHEET
  1

  9
$XEDIT
290
1
  9
$CEPSNTYPE
380
0
  9
$PSTYLEMODE
290
1
  9
$FINGERPRINTGUID
  2
{873502C9-467E-4D9B-99A8-5C2C6BF2ABBB}
  9
$VERSIONGUID
  2
{8AFE6770-9209-48C1-906D-7C9AFC703960}
  9
$EXTNAMES
290
1
  9
$PSVPSCALE
 40
0.0
  9
$OLESTARTUP
290
0
  9
$SORTENTS
280
127
  9
$INDEXCTL
280
0
  9
$HIDETEXT
280
1
  9
$XCLIPFRAME
280
1
  9
$HALOGAP
280
0
  9
$OBSCOLOR
 70
257
  9
$OBSLTYPE
280
0
  9
$INTERSECTIONDISPLAY
280
0
  9
$INTERSECTIONCOLOR
 70
257
  9
$DIMASSOC
280
2
  9
$PROJECTNAME
  1

  9
$CAMERADISPLAY
290
0
  9
$LENSLENGTH
 40
50.0
  9
$CAMERAHEIGHT
 40
0.0
  9
$STEPSPERSEC
 40
24.0
  9
$STEPSIZE
 40
100.0
  9
$3DDWFPREC
 40
2.0
  9
$PSOLWIDTH
 40
0.005
  9
$PSOLHEIGHT
 40
0.08
  9
$LOFTANG1
 40
1.570796326795
  9
$LOFTANG2
 40
1.570796326795
  9
$LOFTMAG1
 40
0.0
  9
$LOFTMAG2
 40
0.0
  9
$LOFTPARAM
 70
7
  9
$LOFTNORMALS
280
1
  9
$LATITUDE
 40
37.795
  9
$LONGITUDE
 40
-122.394
  9
$NORTHDIRECTION
 40
0.0
  9
$TIMEZONE
 70
-8000
  9
$LIGHTGLYPHDISPLAY
280
1
  9
$TILEMODELIGHTSYNCH
280
1
  9
$CMATERIAL
347
20
  9
$SOLIDHIST
280
0
  9
$SHOWHIST
280
1
  9
$DWFFRAME
280
2
  9
$DGNFRAME
280
2
  9
$REALWORLDSCALE
290
1
  9
$INTERFERECOLOR
 62
256
  9
$CSHADOW
280
0
  9
$SHADOWPLANELOCATION
 40
0.0
  0
ENDSEC
  0
SECTION
  2
CLASSES
  0
CLASS
  1
ACDBDICTIONARYWDFLT
  2
AcDbDictionaryWithDefault
  3
ObjectDBX Classes
 90
0
 91
0
280
0
281
0
  0
CLASS
  1
SUN
  2
AcDbSun
  3
SCENEOE
 90
1153
 91
0
280
0
281
0
  0
CLASS
  1
VISUALSTYLE
  2
AcDbVisualStyle
  3
ObjectDBX Classes
 90
4095
 91
0
280
0
281
0
  0
CLASS
  1
MATERIAL
  2
AcDbMaterial
  3
ObjectDBX Classes
 90
1153
 91
0
280
0
281
0
  0
CLASS
  1
SCALE
  2
AcDbScale
  3
ObjectDBX Classes
 90
1153
 91
0
280
0
281
0
  0
CLASS
  1
TABLESTYLE
  2
AcDbTableStyle
  3
ObjectDBX Classes
 90
4095
 91
0
280
0
281
0
  0
CLASS
  1
MLEADERSTYLE
  2
AcDbMLeaderStyle
  3
ACDB_MLEADERSTYLE_CLASS
 90
4095
 91
0
280
0
281
0
  0
CLASS
  1
DICTIONARYVAR
  2
AcDbDictionaryVar
  3
ObjectDBX Classes
 90
0
 91
0
280
0
281
0
  0
CLASS
  1
CELLSTYLEMAP
  2
AcDbCellStyleMap
  3
ObjectDBX Classes
 90
1152
 91
0
280
0
281
0
  0
CLASS
  1
MENTALRAYRENDERSETTINGS
  2
AcDbMentalRayRenderSettings
  3
SCENEOE
 90
1024
 91
0
280
0
281
0
  0
CLASS
  1
ACDBDETAILVIEWSTYLE
  2
AcDbDetailViewStyle
  3
ObjectDBX Classes
 90
1025
 91
0
280
0
281
0
  0
CLASS
  1
ACDBSECTIONVIEWSTYLE
  2
AcDbSectionViewStyle
  3
ObjectDBX Classes
 90
1025
 91
0
280
0
281
0
  0
CLASS
  1
RASTERVARIABLES
  2
AcDbRasterVariables
  3
ISM
 90
0
 91
0
280
0
281
0
  0
CLASS
  1
ACDBPLACEHOLDER
  2
AcDbPlaceHolder
  3
ObjectDBX Classes
 90
0
 91
0
280
0
281
0
  0
CLASS
  1
LAYOUT
  2
AcDbLayout
  3
ObjectDBX Classes
 90
0
 91
0
280
0
281
0
  0
ENDSEC
  0
SECTION
  2
TABLES
  0
TABLE
  2
VPORT
  5
8
330
0
100
AcDbSymbolTable
 70
1
  0
VPORT
  5
23
330
8
100
AcDbSymbolTableRecord
100
AcDbViewportTableRecord
  2
*Active
 70
0
 10
0.0
 20
0.0
 11
1.0
 21
1.0
 12
0.0
 22
0.0
 13
0.0
 23
0.0
 14
0.5
 24
0.5
 15
0.5
 25
0.5
 16
0.0
 26
0.0
 36
1.0
 17
0.0
 27
0.0
 37
0.0
 40
1000.0
 41
1.34
 42
50.0
 43
0.0
 44
0.0
 50
0.0
 51
0.0
 71
0
 72
1000
 73
1
 74
3
 75
0
 76
0
 77
0
 78
0
281
0
 65
0
146
0.0
  0
ENDTAB
  0
TABLE
  2
LTYPE
  5
2
330
0
100
AcDbSymbolTable
 70
3
  0
LTYPE
  5
24
330
2
100
AcDbSymbolTableRecord
100
AcDbLinetypeTableRecord
  2
ByBlock
 70
0
  3

 72
65
 73
0
 40
0.0
  0
LTYPE
  5
25
330
2
100
AcDbSymbolTableRecord
100
AcDbLinetypeTableRecord
  2
ByLayer
 70
0
  3

 72
65
 73
0
 40
0.0
  0
LTYPE
  5
26
330
2
100
AcDbSymbolTableRecord
100
AcDbLinetypeTableRecord
  2
Continuous
 70
0
  3

 72
65
 73
0
 40
0.0
  0
ENDTAB
  0
TABLE
  2
LAYER
  5
1
330
0
100
AcDbSymbolTable
 70
8
  0
LAYER
  5
27
330
1
100
AcDbSymbolTableRecord
100
AcDbLayerTableRecord
  2
0
 70
0
 62
7
  6
Continuous
370
-3
390
13
347
21
  0
LAYER
  5
28
330
1
100
AcDbSymbolTableRecord
100
AcDbLayerTableRecord
  2
Defpoints
 70
0
 62
7
  6
Continuous
290
0
370
-3
390
13
347
21
  0
LAYER
  5
2F
330
1
100
AcDbSymbolTableRecord
100
AcDbLayerTableRecord
  2
MIKRA
 70
0
 62
7
  6
Continuous
370
-3
390
13
347
21
  0
LAYER
  5
30
330
1
100
AcDbSymbolTableRecord
100
AcDbLayerTableRecord
  2
kir
 70
0
 62
7
  6
Continuous
370
-3
390
13
347
21
  0
LAYER
  5
31
330
1
100
AcDbSymbolTableRecord
100
AcDbLayerTableRecord
  2
8
 70
0
 62
7
  6
Continuous
370
-3
390
13
347
21
  0
LAYER
  5
32
330
1
100
AcDbSymbolTableRecord
100
AcDbLayerTableRecord
  2
BAR-GAL
 70
0
 62
7
  6
Continuous
370
-3
390
13
347
21
  0
LAYER
  5
33
330
1
100
AcDbSymbolTableRecord
100
AcDbLayerTableRecord
  2
BAR_GAL
 70
0
 62
7
  6
Continuous
370
-3
390
13
347
21
  0
LAYER
  5
34
330
1
100
AcDbSymbolTableRecord
100
AcDbLayerTableRecord
  2
VP
 70
0
 62
-30
  6
Continuous
370
-3
390
13
347
21
  0
ENDTAB
  0
TABLE
  2
STYLE
  5
5
330
0
100
AcDbSymbolTable
 70
1
  0
STYLE
  5
29
330
5
100
AcDbSymbolTableRecord
100
AcDbTextStyleTableRecord
  2
Standard
 70
0
 40
0.0
 41
1.0
 50
0.0
 71
0
 42
2.5
  3
txt
  4

  0
ENDTAB
  0
TABLE
  2
VIEW
  5
7
330
0
100
AcDbSymbolTable
 70
0
  0
ENDTAB
  0
TABLE
  2
UCS
  5
6
330
0
100
AcDbSymbolTable
 70
0
  0
ENDTAB
  0
TABLE
  2
APPID
  5
3
330
0
100
AcDbSymbolTable
 70
3
  0
APPID
  5
2A
330
3
100
AcDbSymbolTableRecord
100
AcDbRegAppTableRecord
  2
ACAD
 70
0
  0
APPID
  5
1B9
330
3
100
AcDbSymbolTableRecord
100
AcDbRegAppTableRecord
  2
HATCHBACKGROUNDCOLOR
 70
0
  0
APPID
  5
1BA
330
3
100
AcDbSymbolTableRecord
100
AcDbRegAppTableRecord
  2
EZDXF
 70
0
  0
ENDTAB
  0
TABLE
  2
DIMSTYLE
  5
4
330
0
100
AcDbSymbolTable
 70
3
100
AcDbDimStyleTable
  0
DIMSTYLE
105
2B
330
4
100
AcDbSymbolTableRecord
100
AcDbDimStyleTableRecord
  2
Standard
 70
0
 40
1.0
 41
2.5
 42
0.625
 43
3.75
 44
1.25
 45
0.0
 46
0.0
 47
0.0
 48
0.0
 49
2.5
140
2.5
141
2.5
142
0.0
143
0.03937007874
144
1.0
145
0.0
146
1.0
147
0.625
148
0.0
 69
0
 70
0
 71
0
 72
0
 73
0
 74
0
 75
0
 76
0
 77
1
 78
8
 79
3
170
0
171
3
172
1
173
0
174
0
175
0
176
0
177
0
178
0
179
2
271
2
272
2
273
2
274
3
275
0
276
0
277
2
278
44
279
0
280
0
281
0
282
0
283
0
284
8
285
0
286
0
288
0
289
3
290
0
371
-2
372
-2
  0
DIMSTYLE
105
27
330
4
100
AcDbSymbolTableRecord
100
AcDbDimStyleTableRecord
  2
ISO-25
 70
0
 40
1.0
 41
30.0
 42
0.625
 43
3.75
 44
1.25
 45
0.0
 46
0.0
 47
0.0
 48
0.0
 49
2.5
140
30.0
141
2.5
142
0.0
143
0.03937007874016
144
1.0
145
0.0
146
1.0
147
10.0
148
0.0
 69
0
 70
0
 71
0
 72
0
 73
0
 74
0
 75
0
 76
0
 77
1
 78
8
 79
3
170
0
171
3
172
1
173
0
174
0
175
0
176
0
177
0
178
0
179
2
271
0
272
0
273
2
274
3
275
0
276
0
277
2
278
44
279
0
280
0
281
0
282
0
283
0
284
8
285
0
286
0
288
0
289
3
290
0
340
29
371
-2
372
-2
  0
DIMSTYLE
105
24441B
330
4
100
AcDbSymbolTableRecord
100
AcDbDimStyleTableRecord
  2
100A
 70
0
 40
1.0
 41
30.0
 42
0.625
 43
3.75
 44
1.25
 45
0.0
 46
0.0
 47
0.0
 48
0.0
 49
2.5
140
35.0
141
2.5
142
0.0
143
0.03937007874016
144
1.0
145
0.0
146
1.0
147
10.0
148
0.0
 69
0
 70
0
 71
0
 72
0
 73
0
 74
0
 75
0
 76
0
 77
1
 78
8
 79
3
170
0
171
3
172
1
173
0
174
0
175
0
176
0
177
0
178
0
179
2
271
0
272
0
273
2
274
3
275
0
276
0
277
2
278
44
279
0
280
0
281
0
282
0
283
0
284
8
285
0
286
0
288
0
289
3
290
0
340
29
371
-2
372
-2
  0
ENDTAB
  0
TABLE
  2
BLOCK_RECORD
  5
9
330
0
100
AcDbSymbolTable
 70
26
  0
BLOCK_RECORD
  5
17
330
9
100
AcDbSymbolTableRecord
100
AcDbBlockTableRecord
  2
*Model_Space
340
1A
 70
0
280
1
281
0
  0
BLOCK_RECORD
  5
1B
330
9
100
AcDbSymbolTableRecord
100
AcDbBlockTableRecord
  2
*Paper_Space
340
1E
 70
0
280
1
281
0
  0
BLOCK_RECORD
  5
38
330
9
100
AcDbSymbolTableRecord
100
AcDbBlockTableRecord
  2
*D1
340
0
 70
0
280
1
281
0
  0
BLOCK_RECORD
  5
45
330
9
100
AcDbSymbolTableRecord
100
AcDbBlockTableRecord
  2
*D2
340
0
 70
0
280
1
281
0
  0
BLOCK_RECORD
  5
52
330
9
100
AcDbSymbolTableRecord
100
AcDbBlockTableRecord
  2
*D3
340
0
 70
0
280
1
281
0
  0
BLOCK_RECORD
  5
5F
330
9
100
AcDbSymbolTableRecord
100
AcDbBlockTableRecord
  2
*D4
340
0
 70
0
280
1
281
0
  0
BLOCK_RECORD
  5
6D
330
9
100
AcDbSymbolTableRecord
100
AcDbBlockTableRecord
  2
*D5
340
0
 70
0
280
1
281
0
  0
BLOCK_RECORD
  5
7A
330
9
100
AcDbSymbolTableRecord
100
AcDbBlockTableRecord
  2
*D6
340
0
 70
0
280
1
281
0
  0
BLOCK_RECORD
  5
87
330
9
100
AcDbSymbolTableRecord
100
AcDbBlockTableRecord
  2
*D7
340
0
 70
0
280
1
281
0
  0
BLOCK_RECORD
  5
94
330
9
100
AcDbSymbolTableRecord
100
AcDbBlockTableRecord
  2
*D8
340
0
 70
0
280
1
281
0
  0
BLOCK_RECORD
  5
A4
330
9
100
AcDbSymbolTableRecord
100
AcDbBlockTableRecord
  2
*D9
340
0
 70
0
280
1
281
0
  0
BLOCK_RECORD
  5
B2
330
9
100
AcDbSymbolTableRecord
100
AcDbBlockTableRecord
  2
*D10
340
0
 70
0
280
1
281
0
  0
BLOCK_RECORD
  5
E1
330
9
100
AcDbSymbolTableRecord
100
AcDbBlockTableRecord
  2
*D11
340
0
 70
0
280
1
281
0
  0
BLOCK_RECORD
  5
EE
330
9
100
AcDbSymbolTableRecord
100
AcDbBlockTableRecord
  2
*D12
340
0
 70
0
280
1
281
0
  0
BLOCK_RECORD
  5
105
330
9
100
AcDbSymbolTableRecord
100
AcDbBlockTableRecord
  2
*D13
340
0
 70
0
280
1
281
0
  0
BLOCK_RECORD
  5
113
330
9
100
AcDbSymbolTableRecord
100
AcDbBlockTableRecord
  2
*D14
340
0
 70
0
280
1
281
0
  0
BLOCK_RECORD
  5
120
330
9
100
AcDbSymbolTableRecord
100
AcDbBlockTableRecord
  2
*D15
340
0
 70
0
280
1
281
0
  0
BLOCK_RECORD
  5
12F
330
9
100
AcDbSymbolTableRecord
100
AcDbBlockTableRecord
  2
*D16
340
0
 70
0
280
1
281
0
  0
BLOCK_RECORD
  5
13C
330
9
100
AcDbSymbolTableRecord
100
AcDbBlockTableRecord
  2
*D17
340
0
 70
0
280
1
281
0
  0
BLOCK_RECORD
  5
14E
330
9
100
AcDbSymbolTableRecord
100
AcDbBlockTableRecord
  2
*D18
340
0
 70
0
280
1
281
0
  0
BLOCK_RECORD
  5
15B
330
9
100
AcDbSymbolTableRecord
100
AcDbBlockTableRecord
  2
*D19
340
0
 70
0
280
1
281
0
  0
BLOCK_RECORD
  5
168
330
9
100
AcDbSymbolTableRecord
100
AcDbBlockTableRecord
  2
*D20
340
0
 70
0
280
1
281
0
  0
BLOCK_RECORD
  5
17C
330
9
100
AcDbSymbolTableRecord
100
AcDbBlockTableRecord
  2
*D21
340
0
 70
0
280
1
281
0
  0
BLOCK_RECORD
  5
18B
330
9
100
AcDbSymbolTableRecord
100
AcDbBlockTableRecord
  2
*D22
340
0
 70
0
280
1
281
0
  0
BLOCK_RECORD
  5
199
330
9
100
AcDbSymbolTableRecord
100
AcDbBlockTableRecord
  2
*D23
340
0
 70
0
280
1
281
0
  0
BLOCK_RECORD
  5
1AD
330
9
100
AcDbSymbolTableRecord
100
AcDbBlockTableRecord
  2
*D24
340
0
 70
0
280
1
281
0
  0
ENDTAB
  0
ENDSEC
  0
SECTION
  2
BLOCKS
  0
BLOCK
  5
18
330
17
100
AcDbEntity
  8
0
100
AcDbBlockBegin
  2
*Model_Space
 70
0
 10
0.0
 20
0.0
 30
0.0
  3
*Model_Space
  1

  0
ENDBLK
  5
19
330
17
100
AcDbEntity
  8
0
100
AcDbBlockEnd
  0
BLOCK
  5
1C
330
1B
100
AcDbEntity
  8
0
100
AcDbBlockBegin
  2
*Paper_Space
 70
0
 10
0.0
 20
0.0
 30
0.0
  3
*Paper_Space
  1

  0
ENDBLK
  5
1D
330
1B
100
AcDbEntity
  8
0
100
AcDbBlockEnd
  0
BLOCK
  5
39
330
38
100
AcDbEntity
  8
0
100
AcDbBlockBegin
  2
*D1
 70
1
 10
0.0
 20
0.0
 30
0.0
  3
*D1
  1

  0
LINE
  5
3B
330
38
100
AcDbEntity
  8
BAR-GAL
 62
0
370
-2
440
16777216
100
AcDbLine
 10
1034042.51978208
 20
63442.56871763734
 30
0.0
 11
1033893.790283572
 21
63442.56871763734
 31
0.0
  0
LINE
  5
3C
330
38
100
AcDbEntity
  8
BAR-GAL
 62
0
370
-2
440
16777216
100
AcDbLine
 10
1034042.51978208
 20
63602.58662084995
 30
0.0
 11
1033893.790283572
 21
63602.58662084995
 31
0.0
  0
LINE
  5
3D
330
38
100
AcDbEntity
  8
BAR-GAL
 62
0
370
-2
440
16777216
100
AcDbLine
 10
1033895.040283572
 20
63472.56871763734
 30
0.0
 11
1033895.040283572
 21
63572.58662084996
 31
0.0
  0
SOLID
  5
3E
330
38
100
AcDbEntity
  8
BAR-GAL
 62
0
370
13
440
16777216
100
AcDbTrace
 10
1033890.040283572
 20
63472.56871763734
 30
0.0
 11
1033900.040283572
 21
63472.56871763734
 31
0.0
 12
1033895.040283572
 22
63442.56871763734
 32
0.0
 13
1033895.040283572
 23
63442.56871763734
 33
0.0
  0
SOLID
  5
3F
330
38
100
AcDbEntity
  8
BAR-GAL
 62
0
370
13
440
16777216
100
AcDbTrace
 10
1033890.040283572
 20
63572.58662084996
 30
0.0
 11
1033900.040283572
 21
63572.58662084996
 31
0.0
 12
1033895.040283572
 22
63602.58662084995
 32
0.0
 13
1033895.040283572
 23
63602.58662084995
 33
0.0
  0
MTEXT
  5
40
330
38
100
AcDbEntity
  8
BAR-GAL
 62
0
370
13
440
16777216
100
AcDbMText
 10
1033869.72309394
 20
63522.57766924333
 30
0.0
 40
30.0
 41
0.0
 46
0.0
 71
5
  1
160
 11
1e-16
 21
1.0
 31
0.0
  0
POINT
  5
41
330
38
100
AcDbEntity
  8
Defpoints
 62
0
370
13
440
16777216
100
AcDbPoint
 10
1034043.14478208
 20
63442.56871763734
 30
0.0
  0
POINT
  5
42
330
38
100
AcDbEntity
  8
Defpoints
 62
0
370
13
440
16777216
100
AcDbPoint
 10
1034043.14478208
 20
63602.58662084995
 30
0.0
  0
POINT
  5
43
330
38
100
AcDbEntity
  8
Defpoints
 62
0
370
13
440
16777216
100
AcDbPoint
 10
1033895.040283572
 20
63602.58662084995
 30
0.0
  0
ENDBLK
  5
3A
330
38
100
AcDbEntity
  8
0
100
AcDbBlockEnd
  0
BLOCK
  5
46
330
45
100
AcDbEntity
  8
0
100
AcDbBlockBegin
  2
*D2
 70
1
 10
0.0
 20
0.0
 30
0.0
  3
*D2
  1

  0
LINE
  5
48
330
45
100
AcDbEntity
  8
BAR-GAL
 62
0
370
-2
440
16777216
100
AcDbLine
 10
1034041.51978208
 20
63442.56871763736
 30
0.0
 11
1033893.335419316
 21
63442.56871763736
 31
0.0
  0
LINE
  5
49
330
45
100
AcDbEntity
  8
BAR-GAL
 62
0
370
-2
440
16777216
100
AcDbLine
 10
1034041.51978208
 20
62508.28874495046
 30
0.0
 11
1033893.335419316
 21
62508.28874495046
 31
0.0
  0
LINE
  5
4A
330
45
100
AcDbEntity
  8
BAR-GAL
 62
0
370
-2
440
16777216
100
AcDbLine
 10
1033894.585419316
 20
63412.56871763736
 30
0.0
 11
1033894.585419316
 21
62538.28874495046
 31
0.0
  0
SOLID
  5
4B
330
45
100
AcDbEntity
  8
BAR-GAL
 62
0
370
13
440
16777216
100
AcDbTrace
 10
1033889.585419316
 20
63412.56871763736
 30
0.0
 11
1033899.585419316
 21
63412.56871763736
 31
0.0
 12
1033894.585419316
 22
63442.56871763736
 32
0.0
 13
1033894.585419316
 23
63442.56871763736
 33
0.0
  0
SOLID
  5
4C
330
45
100
AcDbEntity
  8
BAR-GAL
 62
0
370
13
440
16777216
100
AcDbTrace
 10
1033889.585419316
 20
62538.28874495046
 30
0.0
 11
1033899.585419316
 21
62538.28874495046
 31
0.0
 12
1033894.585419316
 22
62508.28874495046
 32
0.0
 13
1033894.585419316
 23
62508.28874495046
 33
0.0
  0
MTEXT
  5
4D
330
45
100
AcDbEntity
  8
BAR-GAL
 62
0
370
13
440
16777216
100
AcDbMText
 10
1033869.257997761
 20
62975.42873129359
 30
0.0
 40
30.0
 41
0.0
 46
0.0
 71
5
  1
934
 11
1e-16
 21
1.0
 31
0.0
  0
POINT
  5
4E
330
45
100
AcDbEntity
  8
Defpoints
 62
0
370
13
440
16777216
100
AcDbPoint
 10
1034042.14478208
 20
63442.56871763736
 30
0.0
  0
POINT
  5
4F
330
45
100
AcDbEntity
  8
Defpoints
 62
0
370
13
440
16777216
100
AcDbPoint
 10
1034042.14478208
 20
62508.28874495046
 30
0.0
  0
POINT
  5
50
330
45
100
AcDbEntity
  8
Defpoints
 62
0
370
13
440
16777216
100
AcDbPoint
 10
1033894.585419316
 20
62508.28874495046
 30
0.0
  0
ENDBLK
  5
47
330
45
100
AcDbEntity
  8
0
100
AcDbBlockEnd
  0
BLOCK
  5
53
330
52
100
AcDbEntity
  8
0
100
AcDbBlockBegin
  2
*D3
 70
1
 10
0.0
 20
0.0
 30
0.0
  3
*D3
  1

  0
LINE
  5
55
330
52
100
AcDbEntity
  8
BAR-GAL
 62
0
370
-2
440
16777216
100
AcDbLine
 10
1034529.399067068
 20
62508.28874495046
 30
0.0
 11
1033893.335419316
 21
62508.28874495046
 31
0.0
  0
LINE
  5
56
330
52
100
AcDbEntity
  8
BAR-GAL
 62
0
370
-2
440
16777216
100
AcDbLine
 10
1034529.54236043
 20
61868.22094201985
 30
0.0
 11
1033893.335419316
 21
61868.22094201985
 31
0.0
  0
LINE
  5
57
330
52
100
AcDbEntity
  8
BAR-GAL
 62
0
370
-2
440
16777216
100
AcDbLine
 10
1033894.585419317
 20
62478.28874495046
 30
0.0
 11
1033894.585419317
 21
61898.22094201985
 31
0.0
  0
SOLID
  5
58
330
52
100
AcDbEntity
  8
BAR-GAL
 62
0
370
13
440
16777216
100
AcDbTrace
 10
1033889.585419317
 20
62478.28874495046
 30
0.0
 11
1033899.585419316
 21
62478.28874495046
 31
0.0
 12
1033894.585419317
 22
62508.28874495046
 32
0.0
 13
1033894.585419317
 23
62508.28874495046
 33
0.0
  0
SOLID
  5
59
330
52
100
AcDbEntity
  8
BAR-GAL
 62
0
370
13
440
16777216
100
AcDbTrace
 10
1033889.585419317
 20
61898.22094201985
 30
0.0
 11
1033899.585419316
 21
61898.22094201985
 31
0.0
 12
1033894.585419317
 22
61868.22094201985
 32
0.0
 13
1033894.585419317
 23
61868.22094201985
 33
0.0
  0
MTEXT
  5
5A
330
52
100
AcDbEntity
  8
BAR-GAL
 62
0
370
13
440
16777216
100
AcDbMText
 10
1033869.268229685
 20
62188.25484348484
 30
0.0
 40
30.0
 41
0.0
 46
0.0
 71
5
  1
640
 11
1e-16
 21
1.0
 31
0.0
  0
POINT
  5
5B
330
52
100
AcDbEntity
  8
Defpoints
 62
0
370
13
440
16777216
100
AcDbPoint
 10
1034530.024067068
 20
62508.28874495046
 30
0.0
  0
POINT
  5
5C
330
52
100
AcDbEntity
  8
Defpoints
 62
0
370
13
440
16777216
100
AcDbPoint
 10
1034530.16736043
 20
61868.22094201985
 30
0.0
  0
POINT
  5
5D
330
52
100
AcDbEntity
  8
Defpoints
 62
0
370
13
440
16777216
100
AcDbPoint
 10
1033894.585419317
 20
61868.22094201985
 30
0.0
  0
ENDBLK
  5
54
330
52
100
AcDbEntity
  8
0
100
AcDbBlockEnd
  0
BLOCK
  5
60
330
5F
100
AcDbEntity
  8
0
100
AcDbBlockBegin
  2
*D4
 70
1
 10
0.0
 20
0.0
 30
0.0
  3
*D4
  1

  0
LINE
  5
62
330
5F
100
AcDbEntity
  8
BAR-GAL
 62
0
370
-2
440
16777216
100
AcDbLine
 10
1034041.51978208
 20
61867.5891303132
 30
0.0
 11
1033893.335419317
 21
61867.5891303132
 31
0.0
  0
LINE
  5
63
330
5F
100
AcDbEntity
  8
BAR-GAL
 62
0
370
-2
440
16777216
100
AcDbLine
 10
1034041.51978208
 20
61707.3610465228
 30
0.0
 11
1033893.335419317
 21
61707.3610465228
 31
0.0
  0
LINE
  5
64
330
5F
100
AcDbEntity
  8
BAR-GAL
 62
0
370
-2
440
16777216
100
AcDbLine
 10
1033894.585419317
 20
61837.5891303132
 30
0.0
 11
1033894.585419317
 21
61737.3610465228
 31
0.0
  0
SOLID
  5
65
330
5F
100
AcDbEntity
  8
BAR-GAL
 62
0
370
13
440
16777216
100
AcDbTrace
 10
1033889.585419317
 20
61837.5891303132
 30
0.0
 11
1033899.585419317
 21
61837.5891303132
 31
0.0
 12
1033894.585419317
 22
61867.5891303132
 32
0.0
 13
1033894.585419317
 23
61867.5891303132
 33
0.0
  0
SOLID
  5
66
330
5F
100
AcDbEntity
  8
BAR-GAL
 62
0
370
13
440
16777216
100
AcDbTrace
 10
1033889.585419317
 20
61737.3610465228
 30
0.0
 11
1033899.585419317
 21
61737.3610465228
 31
0.0
 12
1033894.585419317
 22
61707.3610465228
 32
0.0
 13
1033894.585419317
 23
61707.3610465228
 33
0.0
  0
MTEXT
  5
67
330
5F
100
AcDbEntity
  8
BAR-GAL
 62
0
370
13
440
16777216
100
AcDbMText
 10
1033869.268229685
 20
61787.4750884177
 30
0.0
 40
30.0
 41
0.0
 46
0.0
 71
5
  1
160
 11
1e-16
 21
1.0
 31
0.0
  0
POINT
  5
68
330
5F
100
AcDbEntity
  8
Defpoints
 62
0
370
13
440
16777216
100
AcDbPoint
 10
1034042.14478208
 20
61867.5891303132
 30
0.0
  0
POINT
  5
69
330
5F
100
AcDbEntity
  8
Defpoints
 62
0
370
13
440
16777216
100
AcDbPoint
 10
1034042.14478208
 20
61707.3610465228
 30
0.0
  0
POINT
  5
6A
330
5F
100
AcDbEntity
  8
Defpoints
 62
0
370
13
440
16777216
100
AcDbPoint
 10
1033894.585419317
 20
61707.3610465228
 30
0.0
  0
ENDBLK
  5
61
330
5F
100
AcDbEntity
  8
0
100
AcDbBlockEnd
  0
BLOCK
  5
6E
330
6D
100
AcDbEntity
  8
0
100
AcDbBlockBegin
  2
*D5
 70
1
 10
0.0
 20
0.0
 30
0.0
  3
*D5
  1

  0
LINE
  5
70
330
6D
100
AcDbEntity
  8
BAR-GAL
 62
0
370
-2
440
16777216
100
AcDbLine
 10
1034530.024067067
 20
61867.59594201982
 30
0.0
 11
1034530.024067067
 21
61813.47977889465
 31
0.0
  0
LINE
  5
71
330
6D
100
AcDbEntity
  8
BAR-GAL
 62
0
370
-2
440
16777216
100
AcDbLine
 10
1034870.16736043
 20
61867.53662135005
 30
0.0
 11
1034870.16736043
 21
61813.47977889465
 31
0.0
  0
LINE
  5
72
330
6D
100
AcDbEntity
  8
BAR-GAL
 62
0
370
-2
440
16777216
100
AcDbLine
 10
1034560.024067067
 20
61814.72977889464
 30
0.0
 11
1034840.16736043
 21
61814.72977889464
 31
0.0
  0
SOLID
  5
73
330
6D
100
AcDbEntity
  8
BAR-GAL
 62
0
370
13
440
16777216
100
AcDbTrace
 10
1034560.024067067
 20
61819.72977889464
 30
0.0
 11
1034560.024067067
 21
61809.72977889465
 31
0.0
 12
1034530.024067067
 22
61814.72977889464
 32
0.0
 13
1034530.024067067
 23
61814.72977889464
 33
0.0
  0
SOLID
  5
74
330
6D
100
AcDbEntity
  8
BAR-GAL
 62
0
370
13
440
16777216
100
AcDbTrace
 10
1034840.16736043
 20
61819.72977889464
 30
0.0
 11
1034840.16736043
 21
61809.72977889465
 31
0.0
 12
1034870.16736043
 22
61814.72977889464
 32
0.0
 13
1034870.16736043
 23
61814.72977889464
 33
0.0
  0
MTEXT
  5
75
330
6D
100
AcDbEntity
  8
BAR-GAL
 62
0
370
13
440
16777216
100
AcDbMText
 10
1034700.095713748
 20
61840.05720044989
 30
0.0
 40
30.0
 41
0.0
 46
0.0
 71
5
  1
340
  0
POINT
  5
76
330
6D
100
AcDbEntity
  8
Defpoints
 62
0
370
13
440
16777216
100
AcDbPoint
 10
1034530.024067067
 20
61868.22094201982
 30
0.0
  0
POINT
  5
77
330
6D
100
AcDbEntity
  8
Defpoints
 62
0
370
13
440
16777216
100
AcDbPoint
 10
1034870.16736043
 20
61868.16162135005
 30
0.0
  0
POINT
  5
78
330
6D
100
AcDbEntity
  8
Defpoints
 62
0
370
13
440
16777216
100
AcDbPoint
 10
1034870.16736043
 20
61814.72977889464
 30
0.0
  0
ENDBLK
  5
6F
330
6D
100
AcDbEntity
  8
0
100
AcDbBlockEnd
  0
BLOCK
  5
7B
330
7A
100
AcDbEntity
  8
0
100
AcDbBlockBegin
  2
*D6
 70
1
 10
0.0
 20
0.0
 30
0.0
  3
*D6
  1

  0
LINE
  5
7D
330
7A
100
AcDbEntity
  8
BAR-GAL
 62
0
370
-2
440
16777216
100
AcDbLine
 10
1034870.16736043
 20
61707.98604652278
 30
0.0
 11
1034870.16736043
 21
61740.14368651907
 31
0.0
  0
LINE
  5
7E
330
7A
100
AcDbEntity
  8
BAR-GAL
 62
0
370
-2
440
16777216
100
AcDbLine
 10
1034654.270632911
 20
61707.98604652278
 30
0.0
 11
1034654.270632911
 21
61740.14368651907
 31
0.0
  0
LINE
  5
7F
330
7A
100
AcDbEntity
  8
BAR-GAL
 62
0
370
-2
440
16777216
100
AcDbLine
 10
1034840.16736043
 20
61738.89368651908
 30
0.0
 11
1034684.270632911
 21
61738.89368651908
 31
0.0
  0
SOLID
  5
80
330
7A
100
AcDbEntity
  8
BAR-GAL
 62
0
370
13
440
16777216
100
AcDbTrace
 10
1034840.16736043
 20
61743.89368651907
 30
0.0
 11
1034840.16736043
 21
61733.89368651908
 31
0.0
 12
1034870.16736043
 22
61738.89368651908
 32
0.0
 13
1034870.16736043
 23
61738.89368651908
 33
0.0
  0
SOLID
  5
81
330
7A
100
AcDbEntity
  8
BAR-GAL
 62
0
370
13
440
16777216
100
AcDbTrace
 10
1034684.270632911
 20
61743.89368651907
 30
0.0
 11
1034684.270632911
 21
61733.89368651908
 31
0.0
 12
1034654.270632911
 22
61738.89368651908
 32
0.0
 13
1034654.270632911
 23
61738.89368651908
 33
0.0
  0
MTEXT
  5
82
330
7A
100
AcDbEntity
  8
BAR-GAL
 62
0
370
13
440
16777216
100
AcDbMText
 10
1034762.21899667
 20
61764.21087615072
 30
0.0
 40
30.0
 41
0.0
 46
0.0
 71
5
  1
216
  0
POINT
  5
83
330
7A
100
AcDbEntity
  8
Defpoints
 62
0
370
13
440
16777216
100
AcDbPoint
 10
1034870.16736043
 20
61707.36104652277
 30
0.0
  0
POINT
  5
84
330
7A
100
AcDbEntity
  8
Defpoints
 62
0
370
13
440
16777216
100
AcDbPoint
 10
1034654.270632911
 20
61707.36104652277
 30
0.0
  0
POINT
  5
85
330
7A
100
AcDbEntity
  8
Defpoints
 62
0
370
13
440
16777216
100
AcDbPoint
 10
1034654.270632911
 20
61738.89368651908
 30
0.0
  0
ENDBLK
  5
7C
330
7A
100
AcDbEntity
  8
0
100
AcDbBlockEnd
  0
BLOCK
  5
88
330
87
100
AcDbEntity
  8
0
100
AcDbBlockBegin
  2
*D7
 70
1
 10
0.0
 20
0.0
 30
0.0
  3
*D7
  1

  0
LINE
  5
8A
330
87
100
AcDbEntity
  8
BAR-GAL
 62
0
370
-2
440
16777216
100
AcDbLine
 10
1034042.16736043
 20
62507.59594201982
 30
0.0
 11
1034042.16736043
 21
62441.99124783355
 31
0.0
  0
LINE
  5
8B
330
87
100
AcDbEntity
  8
BAR-GAL
 62
0
370
-2
440
16777216
100
AcDbLine
 10
1034530.024067067
 20
62507.66374495043
 30
0.0
 11
1034530.024067067
 21
62441.99124783355
 31
0.0
  0
LINE
  5
8C
330
87
100
AcDbEntity
  8
BAR-GAL
 62
0
370
-2
440
16777216
100
AcDbLine
 10
1034072.16736043
 20
62443.24124783354
 30
0.0
 11
1034500.024067067
 21
62443.24124783354
 31
0.0
  0
SOLID
  5
8D
330
87
100
AcDbEntity
  8
BAR-GAL
 62
0
370
13
440
16777216
100
AcDbTrace
 10
1034072.16736043
 20
62448.24124783354
 30
0.0
 11
1034072.16736043
 21
62438.24124783355
 31
0.0
 12
1034042.16736043
 22
62443.24124783354
 32
0.0
 13
1034042.16736043
 23
62443.24124783354
 33
0.0
  0
SOLID
  5
8E
330
87
100
AcDbEntity
  8
BAR-GAL
 62
0
370
13
440
16777216
100
AcDbTrace
 10
1034500.024067067
 20
62448.24124783354
 30
0.0
 11
1034500.024067067
 21
62438.24124783355
 31
0.0
 12
1034530.024067067
 22
62443.24124783354
 32
0.0
 13
1034530.024067067
 23
62443.24124783354
 33
0.0
  0
MTEXT
  5
8F
330
87
100
AcDbEntity
  8
BAR-GAL
 62
0
370
13
440
16777216
100
AcDbMText
 10
1034286.095713748
 20
62468.55843746519
 30
0.0
 40
30.0
 41
0.0
 46
0.0
 71
5
  1
488
  0
POINT
  5
90
330
87
100
AcDbEntity
  8
Defpoints
 62
0
370
13
440
16777216
100
AcDbPoint
 10
1034042.16736043
 20
62508.22094201982
 30
0.0
  0
POINT
  5
91
330
87
100
AcDbEntity
  8
Defpoints
 62
0
370
13
440
16777216
100
AcDbPoint
 10
1034530.024067067
 20
62508.28874495043
 30
0.0
  0
POINT
  5
92
330
87
100
AcDbEntity
  8
Defpoints
 62
0
370
13
440
16777216
100
AcDbPoint
 10
1034530.024067067
 20
62443.24124783354
 30
0.0
  0
ENDBLK
  5
89
330
87
100
AcDbEntity
  8
0
100
AcDbBlockEnd
  0
BLOCK
  5
95
330
94
100
AcDbEntity
  8
0
100
AcDbBlockBegin
  2
*D8
 70
1
 10
0.0
 20
0.0
 30
0.0
  3
*D8
  1

  0
LINE
  5
97
330
94
100
AcDbEntity
  8
BAR-GAL
 62
0
370
-2
440
16777216
100
AcDbLine
 10
1034042.51978208
 20
63602.58662084995
 30
0.0
 11
1033709.113930255
 21
63602.58662084995
 31
0.0
  0
LINE
  5
98
330
94
100
AcDbEntity
  8
BAR-GAL
 62
0
370
-2
440
16777216
100
AcDbLine
 10
1034067.342148776
 20
60803.77505803244
 30
0.0
 11
1033709.113930255
 21
60803.77505803244
 31
0.0
  0
LINE
  5
99
330
94
100
AcDbEntity
  8
BAR-GAL
 62
0
370
-2
440
16777216
100
AcDbLine
 10
1033710.363930255
 20
63572.58662084996
 30
0.0
 11
1033710.363930255
 21
60833.77505803244
 31
0.0
  0
SOLID
  5
9A
330
94
100
AcDbEntity
  8
BAR-GAL
 62
0
370
13
440
16777216
100
AcDbTrace
 10
1033705.363930256
 20
63572.58662084996
 30
0.0
 11
1033715.363930255
 21
63572.58662084996
 31
0.0
 12
1033710.363930255
 22
63602.58662084995
 32
0.0
 13
1033710.363930255
 23
63602.58662084995
 33
0.0
  0
SOLID
  5
9B
330
94
100
AcDbEntity
  8
BAR-GAL
 62
0
370
13
440
16777216
100
AcDbTrace
 10
1033705.363930256
 20
60833.77505803244
 30
0.0
 11
1033715.363930255
 21
60833.77505803244
 31
0.0
 12
1033710.363930255
 22
60803.77505803244
 32
0.0
 13
1033710.363930255
 23
60803.77505803244
 33
0.0
  0
MTEXT
  5
9C
330
94
100
AcDbEntity
  8
BAR-GAL
 62
0
370
13
440
16777216
100
AcDbMText
 10
1033685.046740624
 20
62203.18083944088
 30
0.0
 40
30.0
 41
0.0
 46
0.0
 71
5
  1
2799
 11
1e-16
 21
1.0
 31
0.0
  0
POINT
  5
9D
330
94
100
AcDbEntity
  8
Defpoints
 62
0
370
13
440
16777216
100
AcDbPoint
 10
1034043.14478208
 20
63602.58662084995
 30
0.0
  0
POINT
  5
9E
330
94
100
AcDbEntity
  8
Defpoints
 62
0
370
13
440
16777216
100
AcDbPoint
 10
1034067.967148776
 20
60803.77505803244
 30
0.0
  0
POINT
  5
9F
330
94
100
AcDbEntity
  8
Defpoints
 62
0
370
13
440
16777216
100
AcDbPoint
 10
1033710.363930255
 20
60803.77505803244
 30
0.0
  0
ENDBLK
  5
96
330
94
100
AcDbEntity
  8
0
100
AcDbBlockEnd
  0
BLOCK
  5
A5
330
A4
100
AcDbEntity
  8
0
100
AcDbBlockBegin
  2
*D9
 70
1
 10
0.0
 20
0.0
 30
0.0
  3
*D9
  1

  0
LINE
  5
A7
330
A4
100
AcDbEntity
  8
BAR-GAL
 62
0
370
-2
440
16777216
100
AcDbLine
 10
1034992.084795279
 20
62791.08114182944
 30
0.0
 11
1034992.084795279
 21
62736.48100746989
 31
0.0
  0
LINE
  5
A8
330
A4
100
AcDbEntity
  8
BAR-GAL
 62
0
370
-2
440
16777216
100
AcDbLine
 10
1035372.017621467
 20
62790.44488521632
 30
0.0
 11
1035372.017621467
 21
62736.48100746989
 31
0.0
  0
LINE
  5
A9
330
A4
100
AcDbEntity
  8
BAR-GAL
 62
0
370
-2
440
16777216
100
AcDbLine
 10
1035022.084795279
 20
62737.73100746988
 30
0.0
 11
1035342.017621467
 21
62737.73100746988
 31
0.0
  0
SOLID
  5
AA
330
A4
100
AcDbEntity
  8
BAR-GAL
 62
0
370
13
440
16777216
100
AcDbTrace
 10
1035022.084795279
 20
62742.73100746988
 30
0.0
 11
1035022.084795279
 21
62732.73100746989
 31
0.0
 12
1034992.084795279
 22
62737.73100746988
 32
0.0
 13
1034992.084795279
 23
62737.73100746988
 33
0.0
  0
SOLID
  5
AB
330
A4
100
AcDbEntity
  8
BAR-GAL
 62
0
370
13
440
16777216
100
AcDbTrace
 10
1035342.017621467
 20
62742.73100746988
 30
0.0
 11
1035342.017621467
 21
62732.73100746989
 31
0.0
 12
1035372.017621467
 22
62737.73100746988
 32
0.0
 13
1035372.017621467
 23
62737.73100746988
 33
0.0
  0
MTEXT
  5
AC
330
A4
100
AcDbEntity
  8
BAR-GAL
 62
0
370
13
440
16777216
100
AcDbMText
 10
1035182.051208373
 20
62763.05842902513
 30
0.0
 40
30.0
 41
0.0
 46
0.0
 71
5
  1
380
  0
POINT
  5
AD
330
A4
100
AcDbEntity
  8
Defpoints
 62
0
370
13
440
16777216
100
AcDbPoint
 10
1034992.084795279
 20
62791.70614182945
 30
0.0
  0
POINT
  5
AE
330
A4
100
AcDbEntity
  8
Defpoints
 62
0
370
13
440
16777216
100
AcDbPoint
 10
1035372.017621467
 20
62791.06988521633
 30
0.0
  0
POINT
  5
AF
330
A4
100
AcDbEntity
  8
Defpoints
 62
0
370
13
440
16777216
100
AcDbPoint
 10
1035372.017621467
 20
62737.73100746988
 30
0.0
  0
ENDBLK
  5
A6
330
A4
100
AcDbEntity
  8
0
100
AcDbBlockEnd
  0
BLOCK
  5
B3
330
B2
100
AcDbEntity
  8
0
100
AcDbBlockBegin
  2
*D10
 70
1
 10
0.0
 20
0.0
 30
0.0
  3
*D10
  1

  0
LINE
  5
B5
330
B2
100
AcDbEntity
  8
BAR-GAL
 62
0
370
-2
440
16777216
100
AcDbLine
 10
1035375.423220439
 20
62783.77783145482
 30
0.0
 11
1035344.233967593
 21
62783.77783145482
 31
0.0
  0
LINE
  5
B6
330
B2
100
AcDbEntity
  8
BAR-GAL
 62
0
370
-2
440
16777216
100
AcDbLine
 10
1035372.23944406
 20
62968.44578321559
 30
0.0
 11
1035344.233967593
 21
62968.44578321559
 31
0.0
  0
LINE
  5
B7
330
B2
100
AcDbEntity
  8
BAR-GAL
 62
0
370
-2
440
16777216
100
AcDbLine
 10
1035345.483967593
 20
62813.77783145482
 30
0.0
 11
1035345.483967593
 21
62938.4457832156
 31
0.0
  0
SOLID
  5
B8
330
B2
100
AcDbEntity
  8
BAR-GAL
 62
0
370
13
440
16777216
100
AcDbTrace
 10
1035340.483967593
 20
62813.77783145482
 30
0.0
 11
1035350.483967593
 21
62813.77783145482
 31
0.0
 12
1035345.483967593
 22
62783.77783145482
 32
0.0
 13
1035345.483967593
 23
62783.77783145482
 33
0.0
  0
SOLID
  5
B9
330
B2
100
AcDbEntity
  8
BAR-GAL
 62
0
370
13
440
16777216
100
AcDbTrace
 10
1035340.483967593
 20
62938.4457832156
 30
0.0
 11
1035350.483967593
 21
62938.4457832156
 31
0.0
 12
1035345.483967593
 22
62968.44578321559
 32
0.0
 13
1035345.483967593
 23
62968.44578321559
 33
0.0
  0
MTEXT
  5
BA
330
B2
100
AcDbEntity
  8
BAR-GAL
 62
0
370
13
440
16777216
100
AcDbMText
 10
1035320.166777961
 20
62876.1118073349
 30
0.0
 40
30.0
 41
0.0
 46
0.0
 71
5
  1
185
 11
1e-16
 21
1.0
 31
0.0
  0
POINT
  5
BB
330
B2
100
AcDbEntity
  8
Defpoints
 62
0
370
13
440
16777216
100
AcDbPoint
 10
1035376.048220439
 20
62783.77783145482
 30
0.0
  0
POINT
  5
BC
330
B2
100
AcDbEntity
  8
Defpoints
 62
0
370
13
440
16777216
100
AcDbPoint
 10
1035372.86444406
 20
62968.44578321559
 30
0.0
  0
POINT
  5
BD
330
B2
100
AcDbEntity
  8
Defpoints
 62
0
370
13
440
16777216
100
AcDbPoint
 10
1035345.483967593
 20
62968.44578321559
 30
0.0
  0
ENDBLK
  5
B4
330
B2
100
AcDbEntity
  8
0
100
AcDbBlockEnd
  0
BLOCK
  5
E2
330
E1
100
AcDbEntity
  8
0
100
AcDbBlockBegin
  2
*D11
 70
1
 10
0.0
 20
0.0
 30
0.0
  3
*D11
  1

  0
LINE
  5
E4
330
E1
100
AcDbEntity
  8
BAR-GAL
 62
0
370
-2
440
16777216
100
AcDbLine
 10
1035272.738903448
 20
62184.18779877081
 30
0.0
 11
1035327.488101178
 21
62184.18779877081
 31
0.0
  0
LINE
  5
E5
330
E1
100
AcDbEntity
  8
BAR-GAL
 62
0
370
-2
440
16777216
100
AcDbLine
 10
1035272.738903448
 20
62574.17442767121
 30
0.0
 11
1035327.488101178
 21
62574.17442767121
 31
0.0
  0
LINE
  5
E6
330
E1
100
AcDbEntity
  8
BAR-GAL
 62
0
370
-2
440
16777216
100
AcDbLine
 10
1035326.238101178
 20
62214.18779877081
 30
0.0
 11
1035326.238101178
 21
62544.17442767122
 31
0.0
  0
SOLID
  5
E7
330
E1
100
AcDbEntity
  8
BAR-GAL
 62
0
370
13
440
16777216
100
AcDbTrace
 10
1035321.238101178
 20
62214.18779877081
 30
0.0
 11
1035331.238101178
 21
62214.18779877081
 31
0.0
 12
1035326.238101178
 22
62184.18779877081
 32
0.0
 13
1035326.238101178
 23
62184.18779877081
 33
0.0
  0
SOLID
  5
E8
330
E1
100
AcDbEntity
  8
BAR-GAL
 62
0
370
13
440
16777216
100
AcDbTrace
 10
1035321.238101178
 20
62544.17442767122
 30
0.0
 11
1035331.238101178
 21
62544.17442767122
 31
0.0
 12
1035326.238101178
 22
62574.17442767121
 32
0.0
 13
1035326.238101178
 23
62574.17442767121
 33
0.0
  0
MTEXT
  5
E9
330
E1
100
AcDbEntity
  8
BAR-GAL
 62
0
370
13
440
16777216
100
AcDbMText
 10
1035300.910679622
 20
62379.1811132207
 30
0.0
 40
30.0
 41
0.0
 46
0.0
 71
5
  1
390
 11
1e-16
 21
1.0
 31
0.0
  0
POINT
  5
EA
330
E1
100
AcDbEntity
  8
Defpoints
 62
0
370
13
440
16777216
100
AcDbPoint
 10
1035272.113903448
 20
62184.18779877081
 30
0.0
  0
POINT
  5
EB
330
E1
100
AcDbEntity
  8
Defpoints
 62
0
370
13
440
16777216
100
AcDbPoint
 10
1035272.113903448
 20
62574.17442767121
 30
0.0
  0
POINT
  5
EC
330
E1
100
AcDbEntity
  8
Defpoints
 62
0
370
13
440
16777216
100
AcDbPoint
 10
1035326.238101178
 20
62574.17442767121
 30
0.0
  0
ENDBLK
  5
E3
330
E1
100
AcDbEntity
  8
0
100
AcDbBlockEnd
  0
BLOCK
  5
EF
330
EE
100
AcDbEntity
  8
0
100
AcDbBlockBegin
  2
*D12
 70
1
 10
0.0
 20
0.0
 30
0.0
  3
*D12
  1

  0
LINE
  5
F1
330
EE
100
AcDbEntity
  8
BAR-GAL
 62
0
370
-2
440
16777216
100
AcDbLine
 10
1034991.623209044
 20
62576.75460667433
 30
0.0
 11
1034991.623209044
 21
62680.22055228156
 31
0.0
  0
LINE
  5
F2
330
EE
100
AcDbEntity
  8
BAR-GAL
 62
0
370
-2
440
16777216
100
AcDbLine
 10
1035272.113903448
 20
62575.79942767119
 30
0.0
 11
1035272.113903448
 21
62680.22055228156
 31
0.0
  0
LINE
  5
F3
330
EE
100
AcDbEntity
  8
BAR-GAL
 62
0
370
-2
440
16777216
100
AcDbLine
 10
1035021.623209044
 20
62678.97055228156
 30
0.0
 11
1035242.113903448
 21
62678.97055228156
 31
0.0
  0
SOLID
  5
F4
330
EE
100
AcDbEntity
  8
BAR-GAL
 62
0
370
13
440
16777216
100
AcDbTrace
 10
1035021.623209044
 20
62683.97055228156
 30
0.0
 11
1035021.623209044
 21
62673.97055228157
 31
0.0
 12
1034991.623209044
 22
62678.97055228156
 32
0.0
 13
1034991.623209044
 23
62678.97055228156
 33
0.0
  0
SOLID
  5
F5
330
EE
100
AcDbEntity
  8
BAR-GAL
 62
0
370
13
440
16777216
100
AcDbTrace
 10
1035242.113903448
 20
62683.97055228156
 30
0.0
 11
1035242.113903448
 21
62673.97055228157
 31
0.0
 12
1035272.113903448
 22
62678.97055228156
 32
0.0
 13
1035272.113903448
 23
62678.97055228156
 33
0.0
  0
MTEXT
  5
F6
330
EE
100
AcDbEntity
  8
BAR-GAL
 62
0
370
13
440
16777216
100
AcDbMText
 10
1035131.868556246
 20
62704.28774191321
 30
0.0
 40
30.0
 41
0.0
 46
0.0
 71
5
  1
280
  0
POINT
  5
F7
330
EE
100
AcDbEntity
  8
Defpoints
 62
0
370
13
440
16777216
100
AcDbPoint
 10
1034991.623209044
 20
62576.12960667434
 30
0.0
  0
POINT
  5
F8
330
EE
100
AcDbEntity
  8
Defpoints
 62
0
370
13
440
16777216
100
AcDbPoint
 10
1035272.113903448
 20
62575.17442767118
 30
0.0
  0
POINT
  5
F9
330
EE
100
AcDbEntity
  8
Defpoints
 62
0
370
13
440
16777216
100
AcDbPoint
 10
1035272.113903448
 20
62678.97055228156
 30
0.0
  0
ENDBLK
  5
F0
330
EE
100
AcDbEntity
  8
0
100
AcDbBlockEnd
  0
BLOCK
  5
106
330
105
100
AcDbEntity
  8
0
100
AcDbBlockBegin
  2
*D13
 70
1
 10
0.0
 20
0.0
 30
0.0
  3
*D13
  1

  0
LINE
  5
108
330
105
100
AcDbEntity
  8
BAR-GAL
 62
0
370
-2
440
16777216
100
AcDbLine
 10
1034530.167360429
 20
62087.04333848047
 30
0.0
 11
1034530.167360429
 21
62137.52864933892
 31
0.0
  0
LINE
  5
109
330
105
100
AcDbEntity
  8
BAR-GAL
 62
0
370
-2
440
16777216
100
AcDbLine
 10
1034990.527614526
 20
62090.53876746567
 30
0.0
 11
1034990.527614526
 21
62137.52864933892
 31
0.0
  0
LINE
  5
10A
330
105
100
AcDbEntity
  8
BAR-GAL
 62
0
370
-2
440
16777216
100
AcDbLine
 10
1034560.167360429
 20
62136.27864933892
 30
0.0
 11
1034960.527614526
 21
62136.27864933892
 31
0.0
  0
SOLID
  5
10B
330
105
100
AcDbEntity
  8
BAR-GAL
 62
0
370
13
440
16777216
100
AcDbTrace
 10
1034560.167360429
 20
62141.27864933892
 30
0.0
 11
1034560.167360429
 21
62131.27864933892
 31
0.0
 12
1034530.167360429
 22
62136.27864933892
 32
0.0
 13
1034530.167360429
 23
62136.27864933892
 33
0.0
  0
SOLID
  5
10C
330
105
100
AcDbEntity
  8
BAR-GAL
 62
0
370
13
440
16777216
100
AcDbTrace
 10
1034960.527614526
 20
62141.27864933892
 30
0.0
 11
1034960.527614526
 21
62131.27864933892
 31
0.0
 12
1034990.527614526
 22
62136.27864933892
 32
0.0
 13
1034990.527614526
 23
62136.27864933892
 33
0.0
  0
MTEXT
  5
10D
330
105
100
AcDbEntity
  8
BAR-GAL
 62
0
370
13
440
16777216
100
AcDbMText
 10
1034760.347487478
 20
62161.59583897057
 30
0.0
 40
30.0
 41
0.0
 46
0.0
 71
5
  1
460
  0
POINT
  5
10E
330
105
100
AcDbEntity
  8
Defpoints
 62
0
370
13
440
16777216
100
AcDbPoint
 10
1034530.167360429
 20
62086.41833848048
 30
0.0
  0
POINT
  5
10F
330
105
100
AcDbEntity
  8
Defpoints
 62
0
370
13
440
16777216
100
AcDbPoint
 10
1034990.527614526
 20
62089.91376746567
 30
0.0
  0
POINT
  5
110
330
105
100
AcDbEntity
  8
Defpoints
 62
0
370
13
440
16777216
100
AcDbPoint
 10
1034990.527614526
 20
62136.27864933892
 30
0.0
  0
ENDBLK
  5
107
330
105
100
AcDbEntity
  8
0
100
AcDbBlockEnd
  0
BLOCK
  5
114
330
113
100
AcDbEntity
  8
0
100
AcDbBlockBegin
  2
*D14
 70
1
 10
0.0
 20
0.0
 30
0.0
  3
*D14
  1

  0
LINE
  5
116
330
113
100
AcDbEntity
  8
BAR-GAL
 62
0
370
-2
440
16777216
100
AcDbLine
 10
1034531.226465971
 20
61870.20011140802
 30
0.0
 11
1034485.992859701
 21
61870.20011140802
 31
0.0
  0
LINE
  5
117
330
113
100
AcDbEntity
  8
BAR-GAL
 62
0
370
-2
440
16777216
100
AcDbLine
 10
1034529.295656014
 20
61990.55900188041
 30
0.0
 11
1034485.992859701
 21
61990.55900188041
 31
0.0
  0
LINE
  5
118
330
113
100
AcDbEntity
  8
BAR-GAL
 62
0
370
-2
440
16777216
100
AcDbLine
 10
1034487.242859701
 20
61900.20011140802
 30
0.0
 11
1034487.242859701
 21
61960.55900188041
 31
0.0
  0
SOLID
  5
119
330
113
100
AcDbEntity
  8
BAR-GAL
 62
0
370
13
440
16777216
100
AcDbTrace
 10
1034482.242859701
 20
61900.20011140802
 30
0.0
 11
1034492.242859701
 21
61900.20011140802
 31
0.0
 12
1034487.242859701
 22
61870.20011140802
 32
0.0
 13
1034487.242859701
 23
61870.20011140802
 33
0.0
  0
SOLID
  5
11A
330
113
100
AcDbEntity
  8
BAR-GAL
 62
0
370
13
440
16777216
100
AcDbTrace
 10
1034482.242859701
 20
61960.55900188041
 30
0.0
 11
1034492.242859701
 21
61960.55900188041
 31
0.0
 12
1034487.242859701
 22
61990.55900188041
 32
0.0
 13
1034487.242859701
 23
61990.55900188041
 33
0.0
  0
MTEXT
  5
11B
330
113
100
AcDbEntity
  8
BAR-GAL
 62
0
370
13
440
16777216
100
AcDbMText
 10
1034461.92567007
 20
61930.3795566439
 30
0.0
 40
30.0
 41
0.0
 46
0.0
 71
5
  1
120
 11
1e-16
 21
1.0
 31
0.0
  0
POINT
  5
11C
330
113
100
AcDbEntity
  8
Defpoints
 62
0
370
13
440
16777216
100
AcDbPoint
 10
1034531.851465971
 20
61870.20011140802
 30
0.0
  0
POINT
  5
11D
330
113
100
AcDbEntity
  8
Defpoints
 62
0
370
13
440
16777216
100
AcDbPoint
 10
1034529.920656014
 20
61990.55900188041
 30
0.0
  0
POINT
  5
11E
330
113
100
AcDbEntity
  8
Defpoints
 62
0
370
13
440
16777216
100
AcDbPoint
 10
1034487.242859701
 20
61990.55900188041
 30
0.0
  0
ENDBLK
  5
115
330
113
100
AcDbEntity
  8
0
100
AcDbBlockEnd
  0
BLOCK
  5
121
330
120
100
AcDbEntity
  8
0
100
AcDbBlockBegin
  2
*D15
 70
1
 10
0.0
 20
0.0
 30
0.0
  3
*D15
  1

  0
LINE
  5
123
330
120
100
AcDbEntity
  8
BAR-GAL
 62
0
370
-2
440
16777216
100
AcDbLine
 10
1034529.920656013
 20
61970.83900072948
 30
0.0
 11
1034529.920656013
 21
62015.87151399376
 31
0.0
  0
LINE
  5
124
330
120
100
AcDbEntity
  8
BAR-GAL
 62
0
370
-2
440
16777216
100
AcDbLine
 10
1034870.071854381
 20
61971.53541110629
 30
0.0
 11
1034870.071854381
 21
62015.87151399376
 31
0.0
  0
LINE
  5
125
330
120
100
AcDbEntity
  8
BAR-GAL
 62
0
370
-2
440
16777216
100
AcDbLine
 10
1034559.920656013
 20
62014.62151399376
 30
0.0
 11
1034840.071854381
 21
62014.62151399376
 31
0.0
  0
SOLID
  5
126
330
120
100
AcDbEntity
  8
BAR-GAL
 62
0
370
13
440
16777216
100
AcDbTrace
 10
1034559.920656013
 20
62019.62151399376
 30
0.0
 11
1034559.920656013
 21
62009.62151399376
 31
0.0
 12
1034529.920656013
 22
62014.62151399376
 32
0.0
 13
1034529.920656013
 23
62014.62151399376
 33
0.0
  0
SOLID
  5
127
330
120
100
AcDbEntity
  8
BAR-GAL
 62
0
370
13
440
16777216
100
AcDbTrace
 10
1034840.071854381
 20
62019.62151399376
 30
0.0
 11
1034840.071854381
 21
62009.62151399376
 31
0.0
 12
1034870.071854381
 22
62014.62151399376
 32
0.0
 13
1034870.071854381
 23
62014.62151399376
 33
0.0
  0
MTEXT
  5
128
330
120
100
AcDbEntity
  8
BAR-GAL
 62
0
370
13
440
16777216
100
AcDbMText
 10
1034699.996255197
 20
62039.94893554901
 30
0.0
 40
30.0
 41
0.0
 46
0.0
 71
5
  1
340
  0
POINT
  5
129
330
120
100
AcDbEntity
  8
Defpoints
 62
0
370
13
440
16777216
100
AcDbPoint
 10
1034529.920656013
 20
61970.21400072948
 30
0.0
  0
POINT
  5
12A
330
120
100
AcDbEntity
  8
Defpoints
 62
0
370
13
440
16777216
100
AcDbPoint
 10
1034870.071854381
 20
61970.91041110629
 30
0.0
  0
POINT
  5
12B
330
120
100
AcDbEntity
  8
Defpoints
 62
0
370
13
440
16777216
100
AcDbPoint
 10
1034870.071854381
 20
62014.62151399376
 30
0.0
  0
ENDBLK
  5
122
330
120
100
AcDbEntity
  8
0
100
AcDbBlockEnd
  0
BLOCK
  5
130
330
12F
100
AcDbEntity
  8
0
100
AcDbBlockBegin
  2
*D16
 70
1
 10
0.0
 20
0.0
 30
0.0
  3
*D16
  1

  0
LINE
  5
132
330
12F
100
AcDbEntity
  8
BAR-GAL
 62
0
370
-2
440
16777216
100
AcDbLine
 10
1034062.455070118
 20
63029.5257346968
 30
0.0
 11
1034062.455070118
 21
62967.83637297566
 31
0.0
  0
LINE
  5
133
330
12F
100
AcDbEntity
  8
BAR-GAL
 62
0
370
-2
440
16777216
100
AcDbLine
 10
1034362.616440293
 20
63030.20660579091
 30
0.0
 11
1034362.616440293
 21
62967.83637297566
 31
0.0
  0
LINE
  5
134
330
12F
100
AcDbEntity
  8
BAR-GAL
 62
0
370
-2
440
16777216
100
AcDbLine
 10
1034092.455070118
 20
62969.08637297566
 30
0.0
 11
1034332.616440293
 21
62969.08637297566
 31
0.0
  0
SOLID
  5
135
330
12F
100
AcDbEntity
  8
BAR-GAL
 62
0
370
13
440
16777216
100
AcDbTrace
 10
1034092.455070118
 20
62974.08637297566
 30
0.0
 11
1034092.455070118
 21
62964.08637297566
 31
0.0
 12
1034062.455070118
 22
62969.08637297566
 32
0.0
 13
1034062.455070118
 23
62969.08637297566
 33
0.0
  0
SOLID
  5
136
330
12F
100
AcDbEntity
  8
BAR-GAL
 62
0
370
13
440
16777216
100
AcDbTrace
 10
1034332.616440293
 20
62974.08637297566
 30
0.0
 11
1034332.616440293
 21
62964.08637297566
 31
0.0
 12
1034362.616440293
 22
62969.08637297566
 32
0.0
 13
1034362.616440293
 23
62969.08637297566
 33
0.0
  0
MTEXT
  5
137
330
12F
100
AcDbEntity
  8
BAR-GAL
 62
0
370
13
440
16777216
100
AcDbMText
 10
1034212.535755205
 20
62994.41379453091
 30
0.0
 40
30.0
 41
0.0
 46
0.0
 71
5
  1
300
  0
POINT
  5
138
330
12F
100
AcDbEntity
  8
Defpoints
 62
0
370
13
440
16777216
100
AcDbPoint
 10
1034062.455070118
 20
63030.1507346968
 30
0.0
  0
POINT
  5
139
330
12F
100
AcDbEntity
  8
Defpoints
 62
0
370
13
440
16777216
100
AcDbPoint
 10
1034362.616440293
 20
63030.83160579091
 30
0.0
  0
POINT
  5
13A
330
12F
100
AcDbEntity
  8
Defpoints
 62
0
370
13
440
16777216
100
AcDbPoint
 10
1034362.616440293
 20
62969.08637297566
 30
0.0
  0
ENDBLK
  5
131
330
12F
100
AcDbEntity
  8
0
100
AcDbBlockEnd
  0
BLOCK
  5
13D
330
13C
100
AcDbEntity
  8
0
100
AcDbBlockBegin
  2
*D17
 70
1
 10
0.0
 20
0.0
 30
0.0
  3
*D17
  1

  0
LINE
  5
13F
330
13C
100
AcDbEntity
  8
BAR-GAL
 62
0
370
-2
440
16777216
100
AcDbLine
 10
1034363.241440293
 20
63030.83160579094
 30
0.0
 11
1034424.367900242
 21
63030.83160579094
 31
0.0
  0
LINE
  5
140
330
13C
100
AcDbEntity
  8
BAR-GAL
 62
0
370
-2
440
16777216
100
AcDbLine
 10
1034363.241440293
 20
63440.58481675374
 30
0.0
 11
1034424.367900242
 21
63440.58481675374
 31
0.0
  0
LINE
  5
141
330
13C
100
AcDbEntity
  8
BAR-GAL
 62
0
370
-2
440
16777216
100
AcDbLine
 10
1034423.117900242
 20
63060.83160579094
 30
0.0
 11
1034423.117900242
 21
63410.58481675375
 31
0.0
  0
SOLID
  5
142
330
13C
100
AcDbEntity
  8
BAR-GAL
 62
0
370
13
440
16777216
100
AcDbTrace
 10
1034418.117900242
 20
63060.83160579094
 30
0.0
 11
1034428.117900242
 21
63060.83160579094
 31
0.0
 12
1034423.117900242
 22
63030.83160579094
 32
0.0
 13
1034423.117900242
 23
63030.83160579094
 33
0.0
  0
SOLID
  5
143
330
13C
100
AcDbEntity
  8
BAR-GAL
 62
0
370
13
440
16777216
100
AcDbTrace
 10
1034418.117900242
 20
63410.58481675375
 30
0.0
 11
1034428.117900242
 21
63410.58481675375
 31
0.0
 12
1034423.117900242
 22
63440.58481675374
 32
0.0
 13
1034423.117900242
 23
63440.58481675374
 33
0.0
  0
MTEXT
  5
144
330
13C
100
AcDbEntity
  8
BAR-GAL
 62
0
370
13
440
16777216
100
AcDbMText
 10
1034397.80071061
 20
63235.70821127203
 30
0.0
 40
30.0
 41
0.0
 46
0.0
 71
5
  1
410
 11
1e-16
 21
1.0
 31
0.0
  0
POINT
  5
145
330
13C
100
AcDbEntity
  8
Defpoints
 62
0
370
13
440
16777216
100
AcDbPoint
 10
1034362.616440293
 20
63030.83160579094
 30
0.0
  0
POINT
  5
146
330
13C
100
AcDbEntity
  8
Defpoints
 62
0
370
13
440
16777216
100
AcDbPoint
 10
1034362.616440293
 20
63440.58481675374
 30
0.0
  0
POINT
  5
147
330
13C
100
AcDbEntity
  8
Defpoints
 62
0
370
13
440
16777216
100
AcDbPoint
 10
1034423.117900242
 20
63440.58481675374
 30
0.0
  0
ENDBLK
  5
13E
330
13C
100
AcDbEntity
  8
0
100
AcDbBlockEnd
  0
BLOCK
  5
14F
330
14E
100
AcDbEntity
  8
0
100
AcDbBlockBegin
  2
*D18
 70
1
 10
0.0
 20
0.0
 30
0.0
  3
*D18
  1

  0
LINE
  5
151
330
14E
100
AcDbEntity
  8
BAR-GAL
 62
0
370
-2
440
16777216
100
AcDbLine
 10
1034815.134338328
 20
63433.79018184308
 30
0.0
 11
1034815.134338328
 21
63759.95124254259
 31
0.0
  0
LINE
  5
152
330
14E
100
AcDbEntity
  8
BAR-GAL
 62
0
370
-2
440
16777216
100
AcDbLine
 10
1035599.129483018
 20
63433.79018184308
 30
0.0
 11
1035599.129483018
 21
63759.95124254259
 31
0.0
  0
LINE
  5
153
330
14E
100
AcDbEntity
  8
BAR-GAL
 62
0
370
-2
440
16777216
100
AcDbLine
 10
1034845.134338328
 20
63758.70124254259
 30
0.0
 11
1035569.129483018
 21
63758.70124254259
 31
0.0
  0
SOLID
  5
154
330
14E
100
AcDbEntity
  8
BAR-GAL
 62
0
370
13
440
16777216
100
AcDbTrace
 10
1034845.134338328
 20
63763.70124254259
 30
0.0
 11
1034845.134338328
 21
63753.70124254259
 31
0.0
 12
1034815.134338328
 22
63758.70124254259
 32
0.0
 13
1034815.134338328
 23
63758.70124254259
 33
0.0
  0
SOLID
  5
155
330
14E
100
AcDbEntity
  8
BAR-GAL
 62
0
370
13
440
16777216
100
AcDbTrace
 10
1035569.129483018
 20
63763.70124254259
 30
0.0
 11
1035569.129483018
 21
63753.70124254259
 31
0.0
 12
1035599.129483018
 22
63758.70124254259
 32
0.0
 13
1035599.129483018
 23
63758.70124254259
 33
0.0
  0
MTEXT
  5
156
330
14E
100
AcDbEntity
  8
BAR-GAL
 62
0
370
13
440
16777216
100
AcDbMText
 10
1035207.131910673
 20
63784.01843217424
 30
0.0
 40
30.0
 41
0.0
 46
0.0
 71
5
  1
784
  0
POINT
  5
157
330
14E
100
AcDbEntity
  8
Defpoints
 62
0
370
13
440
16777216
100
AcDbPoint
 10
1034815.134338328
 20
63433.16518184308
 30
0.0
  0
POINT
  5
158
330
14E
100
AcDbEntity
  8
Defpoints
 62
0
370
13
440
16777216
100
AcDbPoint
 10
1035599.129483018
 20
63433.16518184308
 30
0.0
  0
POINT
  5
159
330
14E
100
AcDbEntity
  8
Defpoints
 62
0
370
13
440
16777216
100
AcDbPoint
 10
1035599.129483018
 20
63758.70124254259
 30
0.0
  0
ENDBLK
  5
150
330
14E
100
AcDbEntity
  8
0
100
AcDbBlockEnd
  0
BLOCK
  5
15C
330
15B
100
AcDbEntity
  8
0
100
AcDbBlockBegin
  2
*D19
 70
1
 10
0.0
 20
0.0
 30
0.0
  3
*D19
  1

  0
LINE
  5
15E
330
15B
100
AcDbEntity
  8
BAR-GAL
 62
0
370
-2
440
16777216
100
AcDbLine
 10
1034815.134338328
 20
63433.79018184308
 30
0.0
 11
1034815.134338328
 21
63759.95124254259
 31
0.0
  0
LINE
  5
15F
330
15B
100
AcDbEntity
  8
BAR-GAL
 62
0
370
-2
440
16777216
100
AcDbLine
 10
1034042.14478208
 20
63273.77227863047
 30
0.0
 11
1034042.14478208
 21
63759.95124254259
 31
0.0
  0
LINE
  5
160
330
15B
100
AcDbEntity
  8
BAR-GAL
 62
0
370
-2
440
16777216
100
AcDbLine
 10
1034785.134338328
 20
63758.70124254259
 30
0.0
 11
1034072.14478208
 21
63758.70124254259
 31
0.0
  0
SOLID
  5
161
330
15B
100
AcDbEntity
  8
BAR-GAL
 62
0
370
13
440
16777216
100
AcDbTrace
 10
1034785.134338328
 20
63763.70124254259
 30
0.0
 11
1034785.134338328
 21
63753.70124254259
 31
0.0
 12
1034815.134338328
 22
63758.70124254259
 32
0.0
 13
1034815.134338328
 23
63758.70124254259
 33
0.0
  0
SOLID
  5
162
330
15B
100
AcDbEntity
  8
BAR-GAL
 62
0
370
13
440
16777216
100
AcDbTrace
 10
1034072.14478208
 20
63763.70124254259
 30
0.0
 11
1034072.14478208
 21
63753.70124254259
 31
0.0
 12
1034042.14478208
 22
63758.70124254259
 32
0.0
 13
1034042.14478208
 23
63758.70124254259
 33
0.0
  0
MTEXT
  5
163
330
15B
100
AcDbEntity
  8
BAR-GAL
 62
0
370
13
440
16777216
100
AcDbMText
 10
1034428.639560204
 20
63784.02866409785
 30
0.0
 40
30.0
 41
0.0
 46
0.0
 71
5
  1
773
  0
POINT
  5
164
330
15B
100
AcDbEntity
  8
Defpoints
 62
0
370
13
440
16777216
100
AcDbPoint
 10
1034815.134338328
 20
63433.16518184308
 30
0.0
  0
POINT
  5
165
330
15B
100
AcDbEntity
  8
Defpoints
 62
0
370
13
440
16777216
100
AcDbPoint
 10
1034042.14478208
 20
63273.14727863047
 30
0.0
  0
POINT
  5
166
330
15B
100
AcDbEntity
  8
Defpoints
 62
0
370
13
440
16777216
100
AcDbPoint
 10
1034042.14478208
 20
63758.70124254259
 30
0.0
  0
ENDBLK
  5
15D
330
15B
100
AcDbEntity
  8
0
100
AcDbBlockEnd
  0
BLOCK
  5
169
330
168
100
AcDbEntity
  8
0
100
AcDbBlockBegin
  2
*D20
 70
1
 10
0.0
 20
0.0
 30
0.0
  3
*D20
  1

  0
LINE
  5
16B
330
168
100
AcDbEntity
  8
BAR-GAL
 62
0
370
-2
440
16777216
100
AcDbLine
 10
1034043.14478208
 20
63273.77227863047
 30
0.0
 11
1034043.14478208
 21
63896.14252539414
 31
0.0
  0
LINE
  5
16C
330
168
100
AcDbEntity
  8
BAR-GAL
 62
0
370
-2
440
16777216
100
AcDbLine
 10
1036364.681891628
 20
63603.19478570709
 30
0.0
 11
1036364.681891628
 21
63896.14252539414
 31
0.0
  0
LINE
  5
16D
330
168
100
AcDbEntity
  8
BAR-GAL
 62
0
370
-2
440
16777216
100
AcDbLine
 10
1034073.14478208
 20
63894.89252539413
 30
0.0
 11
1036334.681891628
 21
63894.89252539413
 31
0.0
  0
SOLID
  5
16E
330
168
100
AcDbEntity
  8
BAR-GAL
 62
0
370
13
440
16777216
100
AcDbTrace
 10
1034073.14478208
 20
63899.89252539413
 30
0.0
 11
1034073.14478208
 21
63889.89252539413
 31
0.0
 12
1034043.14478208
 22
63894.89252539413
 32
0.0
 13
1034043.14478208
 23
63894.89252539413
 33
0.0
  0
SOLID
  5
16F
330
168
100
AcDbEntity
  8
BAR-GAL
 62
0
370
13
440
16777216
100
AcDbTrace
 10
1036334.681891628
 20
63899.89252539413
 30
0.0
 11
1036334.681891628
 21
63889.89252539413
 31
0.0
 12
1036364.681891628
 22
63894.89252539413
 32
0.0
 13
1036364.681891628
 23
63894.89252539413
 33
0.0
  0
MTEXT
  5
170
330
168
100
AcDbEntity
  8
BAR-GAL
 62
0
370
13
440
16777216
100
AcDbMText
 10
1035203.913336854
 20
63920.21994694938
 30
0.0
 40
30.0
 41
0.0
 46
0.0
 71
5
  1
2322
  0
POINT
  5
171
330
168
100
AcDbEntity
  8
Defpoints
 62
0
370
13
440
16777216
100
AcDbPoint
 10
1034043.14478208
 20
63273.14727863047
 30
0.0
  0
POINT
  5
172
330
168
100
AcDbEntity
  8
Defpoints
 62
0
370
13
440
16777216
100
AcDbPoint
 10
1036364.681891628
 20
63602.5697857071
 30
0.0
  0
POINT
  5
173
330
168
100
AcDbEntity
  8
Defpoints
 62
0
370
13
440
16777216
100
AcDbPoint
 10
1036364.681891628
 20
63894.89252539413
 30
0.0
  0
ENDBLK
  5
16A
330
168
100
AcDbEntity
  8
0
100
AcDbBlockEnd
  0
BLOCK
  5
17D
330
17C
100
AcDbEntity
  8
0
100
AcDbBlockBegin
  2
*D21
 70
1
 10
0.0
 20
0.0
 30
0.0
  3
*D21
  1

  0
LINE
  5
17F
330
17C
100
AcDbEntity
  8
BAR-GAL
 62
0
370
-2
440
16777216
100
AcDbLine
 10
1034530.024067067
 20
62508.84594201981
 30
0.0
 11
1034530.024067067
 21
62553.37382358773
 31
0.0
  0
LINE
  5
180
330
17C
100
AcDbEntity
  8
BAR-GAL
 62
0
370
-2
440
16777216
100
AcDbLine
 10
1034852.424474841
 20
62508.84594201981
 30
0.0
 11
1034852.424474841
 21
62553.37382358773
 31
0.0
  0
LINE
  5
181
330
17C
100
AcDbEntity
  8
BAR-GAL
 62
0
370
-2
440
16777216
100
AcDbLine
 10
1034560.024067067
 20
62552.12382358773
 30
0.0
 11
1034822.424474841
 21
62552.12382358773
 31
0.0
  0
SOLID
  5
182
330
17C
100
AcDbEntity
  8
BAR-GAL
 62
0
370
13
440
16777216
100
AcDbTrace
 10
1034560.024067067
 20
62557.12382358773
 30
0.0
 11
1034560.024067067
 21
62547.12382358773
 31
0.0
 12
1034530.024067067
 22
62552.12382358773
 32
0.0
 13
1034530.024067067
 23
62552.12382358773
 33
0.0
  0
SOLID
  5
183
330
17C
100
AcDbEntity
  8
BAR-GAL
 62
0
370
13
440
16777216
100
AcDbTrace
 10
1034822.424474841
 20
62557.12382358773
 30
0.0
 11
1034822.424474841
 21
62547.12382358773
 31
0.0
 12
1034852.424474841
 22
62552.12382358773
 32
0.0
 13
1034852.424474841
 23
62552.12382358773
 33
0.0
  0
MTEXT
  5
184
330
17C
100
AcDbEntity
  8
BAR-GAL
 62
0
370
13
440
16777216
100
AcDbMText
 10
1034691.224270954
 20
62577.45124514298
 30
0.0
 40
30.0
 41
0.0
 46
0.0
 71
5
  1
322
  0
POINT
  5
185
330
17C
100
AcDbEntity
  8
Defpoints
 62
0
370
13
440
16777216
100
AcDbPoint
 10
1034530.024067067
 20
62508.22094201982
 30
0.0
  0
POINT
  5
186
330
17C
100
AcDbEntity
  8
Defpoints
 62
0
370
13
440
16777216
100
AcDbPoint
 10
1034852.424474841
 20
62508.22094201982
 30
0.0
  0
POINT
  5
187
330
17C
100
AcDbEntity
  8
Defpoints
 62
0
370
13
440
16777216
100
AcDbPoint
 10
1034852.424474841
 20
62552.12382358773
 30
0.0
  0
ENDBLK
  5
17E
330
17C
100
AcDbEntity
  8
0
100
AcDbBlockEnd
  0
BLOCK
  5
18C
330
18B
100
AcDbEntity
  8
0
100
AcDbBlockBegin
  2
*D22
 70
1
 10
0.0
 20
0.0
 30
0.0
  3
*D22
  1

  0
LINE
  5
18E
330
18B
100
AcDbEntity
  8
BAR-GAL
 62
0
370
-2
440
16777216
100
AcDbLine
 10
1034853.049474842
 20
62508.22094201985
 30
0.0
 11
1034922.422485341
 21
62508.22094201985
 31
0.0
  0
LINE
  5
18F
330
18B
100
AcDbEntity
  8
BAR-GAL
 62
0
370
-2
440
16777216
100
AcDbLine
 10
1034853.049474842
 20
62347.49410126557
 30
0.0
 11
1034922.422485341
 21
62347.49410126557
 31
0.0
  0
LINE
  5
190
330
18B
100
AcDbEntity
  8
BAR-GAL
 62
0
370
-2
440
16777216
100
AcDbLine
 10
1034921.17248534
 20
62478.22094201985
 30
0.0
 11
1034921.17248534
 21
62377.49410126557
 31
0.0
  0
SOLID
  5
191
330
18B
100
AcDbEntity
  8
BAR-GAL
 62
0
370
13
440
16777216
100
AcDbTrace
 10
1034916.172485341
 20
62478.22094201985
 30
0.0
 11
1034926.17248534
 21
62478.22094201985
 31
0.0
 12
1034921.17248534
 22
62508.22094201985
 32
0.0
 13
1034921.17248534
 23
62508.22094201985
 33
0.0
  0
SOLID
  5
192
330
18B
100
AcDbEntity
  8
BAR-GAL
 62
0
370
13
440
16777216
100
AcDbTrace
 10
1034916.172485341
 20
62377.49410126557
 30
0.0
 11
1034926.17248534
 21
62377.49410126557
 31
0.0
 12
1034921.17248534
 22
62347.49410126557
 32
0.0
 13
1034921.17248534
 23
62347.49410126557
 33
0.0
  0
MTEXT
  5
193
330
18B
100
AcDbEntity
  8
BAR-GAL
 62
0
370
13
440
16777216
100
AcDbMText
 10
1034895.855295709
 20
62427.8575216424
 30
0.0
 40
30.0
 41
0.0
 46
0.0
 71
5
  1
161
 11
1e-16
 21
1.0
 31
0.0
  0
POINT
  5
194
330
18B
100
AcDbEntity
  8
Defpoints
 62
0
370
13
440
16777216
100
AcDbPoint
 10
1034852.424474842
 20
62508.22094201985
 30
0.0
  0
POINT
  5
195
330
18B
100
AcDbEntity
  8
Defpoints
 62
0
370
13
440
16777216
100
AcDbPoint
 10
1034852.424474842
 20
62347.49410126557
 30
0.0
  0
POINT
  5
196
330
18B
100
AcDbEntity
  8
Defpoints
 62
0
370
13
440
16777216
100
AcDbPoint
 10
1034921.17248534
 20
62347.49410126557
 30
0.0
  0
ENDBLK
  5
18D
330
18B
100
AcDbEntity
  8
0
100
AcDbBlockEnd
  0
BLOCK
  5
19A
330
199
100
AcDbEntity
  8
0
100
AcDbBlockBegin
  2
*D23
 70
1
 10
0.0
 20
0.0
 30
0.0
  3
*D23
  1

  0
LINE
  5
19C
330
199
100
AcDbEntity
  8
BAR-GAL
 62
0
370
-2
440
16777216
100
AcDbLine
 10
1034853.049474842
 20
62347.49410126557
 30
0.0
 11
1034923.672485341
 21
62347.49410126557
 31
0.0
  0
LINE
  5
19D
330
199
100
AcDbEntity
  8
BAR-GAL
 62
0
370
-2
440
16777216
100
AcDbLine
 10
1034853.049474842
 20
62186.76726051128
 30
0.0
 11
1034923.672485341
 21
62186.76726051128
 31
0.0
  0
LINE
  5
19E
330
199
100
AcDbEntity
  8
BAR-GAL
 62
0
370
-2
440
16777216
100
AcDbLine
 10
1034922.422485341
 20
62317.49410126557
 30
0.0
 11
1034922.422485341
 21
62216.76726051128
 31
0.0
  0
SOLID
  5
19F
330
199
100
AcDbEntity
  8
BAR-GAL
 62
0
370
13
440
16777216
100
AcDbTrace
 10
1034917.422485341
 20
62317.49410126557
 30
0.0
 11
1034927.422485341
 21
62317.49410126557
 31
0.0
 12
1034922.422485341
 22
62347.49410126557
 32
0.0
 13
1034922.422485341
 23
62347.49410126557
 33
0.0
  0
SOLID
  5
1A0
330
199
100
AcDbEntity
  8
BAR-GAL
 62
0
370
13
440
16777216
100
AcDbTrace
 10
1034917.422485341
 20
62216.76726051128
 30
0.0
 11
1034927.422485341
 21
62216.76726051128
 31
0.0
 12
1034922.422485341
 22
62186.76726051128
 32
0.0
 13
1034922.422485341
 23
62186.76726051128
 33
0.0
  0
MTEXT
  5
1A1
330
199
100
AcDbEntity
  8
BAR-GAL
 62
0
370
13
440
16777216
100
AcDbMText
 10
1034897.10529571
 20
62267.13068088811
 30
0.0
 40
30.0
 41
0.0
 46
0.0
 71
5
  1
161
 11
1e-16
 21
1.0
 31
0.0
  0
POINT
  5
1A2
330
199
100
AcDbEntity
  8
Defpoints
 62
0
370
13
440
16777216
100
AcDbPoint
 10
1034852.424474842
 20
62347.49410126557
 30
0.0
  0
POINT
  5
1A3
330
199
100
AcDbEntity
  8
Defpoints
 62
0
370
13
440
16777216
100
AcDbPoint
 10
1034852.424474842
 20
62186.76726051128
 30
0.0
  0
POINT
  5
1A4
330
199
100
AcDbEntity
  8
Defpoints
 62
0
370
13
440
16777216
100
AcDbPoint
 10
1034922.422485341
 20
62186.76726051128
 30
0.0
  0
ENDBLK
  5
19B
330
199
100
AcDbEntity
  8
0
100
AcDbBlockEnd
  0
BLOCK
  5
1AE
330
1AD
100
AcDbEntity
  8
0
100
AcDbBlockBegin
  2
*D24
 70
1
 10
0.0
 20
0.0
 30
0.0
  3
*D24
  1

  0
LINE
  5
1B0
330
1AD
100
AcDbEntity
  8
BAR-GAL
 62
0
370
-2
440
16777216
100
AcDbLine
 10
1034529.54236043
 20
62185.52595247407
 30
0.0
 11
1034484.742859702
 21
62185.52595247407
 31
0.0
  0
LINE
  5
1B1
330
1AD
100
AcDbEntity
  8
BAR-GAL
 62
0
370
-2
440
16777216
100
AcDbLine
 10
1034529.937346524
 20
61990.56030189827
 30
0.0
 11
1034484.742859702
 21
61990.56030189827
 31
0.0
  0
LINE
  5
1B2
330
1AD
100
AcDbEntity
  8
BAR-GAL
 62
0
370
-2
440
16777216
100
AcDbLine
 10
1034485.992859702
 20
62155.52595247407
 30
0.0
 11
1034485.992859702
 21
62020.56030189827
 31
0.0
  0
SOLID
  5
1B3
330
1AD
100
AcDbEntity
  8
BAR-GAL
 62
0
370
13
440
16777216
100
AcDbTrace
 10
1034480.992859702
 20
62155.52595247407
 30
0.0
 11
1034490.992859702
 21
62155.52595247407
 31
0.0
 12
1034485.992859702
 22
62185.52595247407
 32
0.0
 13
1034485.992859702
 23
62185.52595247407
 33
0.0
  0
SOLID
  5
1B4
330
1AD
100
AcDbEntity
  8
BAR-GAL
 62
0
370
13
440
16777216
100
AcDbTrace
 10
1034480.992859702
 20
62020.56030189827
 30
0.0
 11
1034490.992859702
 21
62020.56030189827
 31
0.0
 12
1034485.992859702
 22
61990.56030189827
 32
0.0
 13
1034485.992859702
 23
61990.56030189827
 33
0.0
  0
MTEXT
  5
1B5
330
1AD
100
AcDbEntity
  8
BAR-GAL
 62
0
370
13
440
16777216
100
AcDbMText
 10
1034460.67567007
 20
62088.04312718586
 30
0.0
 40
30.0
 41
0.0
 46
0.0
 71
5
  1
195
 11
1e-16
 21
1.0
 31
0.0
  0
POINT
  5
1B6
330
1AD
100
AcDbEntity
  8
Defpoints
 62
0
370
13
440
16777216
100
AcDbPoint
 10
1034530.16736043
 20
62185.52595247407
 30
0.0
  0
POINT
  5
1B7
330
1AD
100
AcDbEntity
  8
Defpoints
 62
0
370
13
440
16777216
100
AcDbPoint
 10
1034530.562346524
 20
61990.56030189827
 30
0.0
  0
POINT
  5
1B8
330
1AD
100
AcDbEntity
  8
Defpoints
 62
0
370
13
440
16777216
100
AcDbPoint
 10
1034485.992859702
 20
61990.56030189827
 30
0.0
  0
ENDBLK
  5
1AF
330
1AD
100
AcDbEntity
  8
0
100
AcDbBlockEnd
  0
ENDSEC
  0
SECTION
  2
ENTITIES
  0
LWPOLYLINE
  5
35
330
17
100
AcDbEntity
  8
0
370
13
100
AcDbPolyline
 90
4
 70
1
 43
3.428535235377893
 10
1037543.891397419
 20
60156.51927490788
 10
1032451.678839061
 20
60156.51927490788
 10
1032451.678839061
 20
64272.43997279946
 10
1037546.566449827
 20
64272.43997279946
  0
LWPOLYLINE
  5
36
330
17
100
AcDbEntity
  8
BAR-GAL
 62
7
370
13
100
AcDbPolyline
 90
10
 70
0
 43
15.0
 10
1034805.399575251
 20
61707.12612594774
 10
1034870.16736043
 20
61707.36104652277
 10
1034870.16736043
 20
61868.22094201982
 10
1034530.16736043
 20
61868.22094201982
 10
1034530.16736043
 20
62508.22094201982
 10
1034042.16736043
 20
62508.22094201982
 10
1034042.16736043
 20
63442.56871763731
 10
1034815.14478208
 20
63442.56871763731
 10
1034815.14478208
 20
63602.56871763732
 10
1035599.14478208
 20
63602.56871763732
  0
DIMENSION
  5
37
330
17
100
AcDbEntity
  8
BAR-GAL
 62
7
370
13
100
AcDbDimension
280
0
  2
*D1
  3
ISO-25
 10
1033895.040283572
 20
63602.58662084995
 30
0.0
 11
1033869.72309394
 21
63522.57766924333
 31
0.0
 70
32
 71
5
 42
160.0179032126107
 73
0
 74
0
 75
0
100
AcDbAlignedDimension
 13
1034043.14478208
 23
63442.56871763731
 33
0.0
 14
1034043.14478208
 24
63602.58662084993
 34
0.0
 50
90.0
100
AcDbRotatedDimension
  0
DIMENSION
  5
44
330
17
100
AcDbEntity
  8
BAR-GAL
 62
7
370
13
100
AcDbDimension
280
0
  2
*D2
  3
ISO-25
 10
1033894.585419316
 20
62508.28874495046
 30
0.0
 11
1033869.257997761
 21
62975.42873129359
 31
0.0
 70
32
 71
5
 42
934.279972686898
 73
0
 74
0
 75
0
100
AcDbAlignedDimension
 13
1034042.14478208
 23
63442.56871763733
 33
0.0
 14
1034042.14478208
 24
62508.28874495043
 34
0.0
 50
90.0
100
AcDbRotatedDimension
  0
DIMENSION
  5
51
330
17
100
AcDbEntity
  8
BAR-GAL
 62
7
370
13
100
AcDbDimension
280
0
  2
*D3
  3
ISO-25
 10
1033894.585419317
 20
61868.22094201985
 30
0.0
 11
1033869.268229685
 21
62188.25484348484
 31
0.0
 70
32
 71
5
 42
640.0678029306146
 73
0
 74
0
 75
0
100
AcDbAlignedDimension
 13
1034530.024067067
 23
62508.28874495043
 33
0.0
 14
1034530.16736043
 24
61868.22094201982
 34
0.0
 50
90.0
100
AcDbRotatedDimension
  0
DIMENSION
  5
5E
330
17
100
AcDbEntity
  8
BAR-GAL
 62
7
370
13
100
AcDbDimension
280
0
  2
*D4
  3
ISO-25
 10
1033894.585419317
 20
61707.3610465228
 30
0.0
 11
1033869.268229685
 21
61787.4750884177
 31
0.0
 70
32
 71
5
 42
160.2280837904036
 73
0
 74
0
 75
0
100
AcDbAlignedDimension
 13
1034042.14478208
 23
61867.58913031318
 33
0.0
 14
1034042.14478208
 24
61707.36104652277
 34
0.0
 50
90.0
100
AcDbRotatedDimension
  0
DIMENSION
  5
6B
102
{ACAD_XDICTIONARY
360
6C
102
}
330
17
100
AcDbEntity
  8
BAR-GAL
 62
7
370
13
100
AcDbDimension
280
0
  2
*D5
  3
ISO-25
 10
1034870.16736043
 20
61814.72977889464
 30
0.0
 11
1034700.095713748
 21
61840.05720044989
 31
0.0
 70
32
 71
5
 42
340.1432933624601
 73
0
 74
0
 75
0
100
AcDbAlignedDimension
 13
1034530.024067067
 23
61868.22094201982
 33
0.0
 14
1034870.16736043
 24
61868.16162135005
 34
0.0
 50
0.0
100
AcDbRotatedDimension
  0
DIMENSION
  5
79
330
17
100
AcDbEntity
  8
BAR-GAL
 62
7
370
13
100
AcDbDimension
280
0
  2
*D6
  3
ISO-25
 10
1034654.270632911
 20
61738.89368651908
 30
0.0
 11
1034762.21899667
 21
61764.21087615072
 31
0.0
 70
32
 71
5
 42
215.8967275184114
 73
0
 74
0
 75
0
100
AcDbAlignedDimension
 13
1034870.16736043
 23
61707.36104652277
 33
0.0
 14
1034654.270632911
 24
61707.36104652277
 34
0.0
 50
0.0
100
AcDbRotatedDimension
  0
DIMENSION
  5
86
330
17
100
AcDbEntity
  8
BAR-GAL
 62
7
370
13
100
AcDbDimension
280
0
  2
*D7
  3
ISO-25
 10
1034530.024067067
 20
62443.24124783354
 30
0.0
 11
1034286.095713748
 21
62468.55843746519
 31
0.0
 70
32
 71
5
 42
487.8567066375398
 73
0
 74
0
 75
0
100
AcDbAlignedDimension
 13
1034042.16736043
 23
62508.22094201982
 33
0.0
 14
1034530.024067067
 24
62508.28874495043
 34
0.0
 50
0.0
100
AcDbRotatedDimension
  0
DIMENSION
  5
93
330
17
100
AcDbEntity
  8
BAR-GAL
 62
7
370
13
100
AcDbDimension
280
0
  2
*D8
  3
ISO-25
 10
1033710.363930255
 20
60803.77505803244
 30
0.0
 11
1033685.046740624
 21
62203.18083944088
 31
0.0
 70
32
 71
5
 42
2798.811562817515
 73
0
 74
0
 75
0
100
AcDbAlignedDimension
 13
1034043.14478208
 23
63602.58662084993
 33
0.0
 14
1034067.967148775
 24
60803.77505803241
 34
0.0
 50
90.0
100
AcDbRotatedDimension
  0
LWPOLYLINE
  5
A0
330
17
100
AcDbEntity
  8
BAR-GAL
 62
7
370
13
100
AcDbPolyline
 90
5
 70
0
 43
15.0
 10
1034992.084795279
 20
62970.13992757065
 10
1034992.084795279
 20
62185.29390078356
 10
1035271.688462399
 20
62185.29390078356
 10
1035272.113903448
 20
62575.17442767118
 10
1034992.084795279
 20
62573.9057243648
  0
LWPOLYLINE
  5
A1
330
17
100
AcDbEntity
  8
BAR-GAL
 62
7
370
13
100
AcDbPolyline
 90
3
 70
0
 43
15.0
 10
1035597.016138364
 20
63060.56978570707
 10
1035433.007571163
 20
63060.56978570707
 10
1035433.007571163
 20
62972.38461281911
  0
LWPOLYLINE
  5
A2
330
17
100
AcDbEntity
  8
BAR-GAL
 62
7
370
13
100
AcDbPolyline
 90
2
 70
0
 43
15.0
 10
1035419.788848536
 20
62790.22408301206
 10
1035419.772846522
 20
62790.22408301206
  0
DIMENSION
  5
A3
330
17
100
AcDbEntity
  8
BAR-GAL
 62
7
370
13
100
AcDbDimension
280
0
  2
*D9
  3
ISO-25
 10
1035372.017621467
 20
62737.73100746988
 30
0.0
 11
1035182.051208373
 21
62763.05842902513
 31
0.0
 70
32
 71
5
 42
379.9328261881601
 73
0
 74
0
 75
0
100
AcDbAlignedDimension
 13
1034992.084795279
 23
62791.70614182945
 33
0.0
 14
1035372.017621467
 24
62791.06988521633
 34
0.0
 50
0.0
100
AcDbRotatedDimension
  0
LWPOLYLINE
  5
B0
330
17
100
AcDbEntity
  8
BAR-GAL
 62
7
370
13
100
AcDbPolyline
 90
2
 70
0
 43
15.0
 10
1035372.017621467
 20
62791.06988521633
 10
1035372.017621467
 20
62970.23084578142
  0
DIMENSION
  5
B1
330
17
100
AcDbEntity
  8
BAR-GAL
 62
7
370
13
100
AcDbDimension
280
0
  2
*D10
  3
ISO-25
 10
1035345.483967593
 20
62968.44578321559
 30
0.0
 11
1035320.166777961
 21
62876.1118073349
 31
0.0
 70
32
 71
5
 42
184.6679517607772
 73
0
 74
0
 75
0
100
AcDbAlignedDimension
 13
1035376.048220438
 23
62783.77783145479
 33
0.0
 14
1035372.86444406
 24
62968.44578321556
 34
0.0
 50
90.0
100
AcDbRotatedDimension
  0
LWPOLYLINE
  5
BE
330
17
100
AcDbEntity
  8
BAR-GAL
 62
7
370
13
100
AcDbPolyline
 90
4
 70
1
 43
5.0
 10
1035007.366921705
 20
62945.35486835146
 10
1035160.188185257
 20
62945.35486835146
 10
1035160.188185257
 20
62805.26193942948
 10
1035007.366921705
 20
62805.26193942948
  0
LWPOLYLINE
  5
BF
330
17
100
AcDbEntity
  8
BAR-GAL
 62
7
370
13
100
AcDbPolyline
 90
4
 70
1
 43
5.0
 10
1035178.50806472
 20
62945.35486835146
 10
1035331.32932851
 20
62945.35486835146
 10
1035331.32932851
 20
62805.26193942948
 10
1035178.50806472
 20
62805.26193942948
  0
LINE
  5
C0
330
17
100
AcDbEntity
  8
BAR-GAL
 62
7
370
13
100
AcDbLine
 10
1035007.366921705
 20
62945.35486835146
 30
0.0
 11
1035160.188185257
 21
62805.26193942948
 31
0.0
  0
LINE
  5
C1
330
17
100
AcDbEntity
  8
BAR-GAL
 62
7
370
13
100
AcDbLine
 10
1035160.188185257
 20
62945.35486835146
 30
0.0
 11
1035007.366921705
 21
62805.26193942948
 31
0.0
  0
LINE
  5
C2
330
17
100
AcDbEntity
  8
BAR-GAL
 62
7
370
13
100
AcDbLine
 10
1035178.50806472
 20
62945.35486835146
 30
0.0
 11
1035331.32932851
 21
62805.26193942948
 31
0.0
  0
LINE
  5
C3
330
17
100
AcDbEntity
  8
BAR-GAL
 62
7
370
13
100
AcDbLine
 10
1035331.32932851
 20
62945.35486835146
 30
0.0
 11
1035178.50806472
 21
62805.26193942948
 31
0.0
  0
LWPOLYLINE
  5
C4
330
17
100
AcDbEntity
  8
BAR-GAL
 62
7
370
13
100
AcDbPolyline
 90
4
 70
1
 43
5.0
 10
1035101.463492319
 20
62457.73222412807
 10
1035161.955242559
 20
62457.73222412807
 10
1035161.955242559
 20
62295.3517837867
 10
1035101.463492319
 20
62295.3517837867
  0
LINE
  5
C5
330
17
100
AcDbEntity
  8
BAR-GAL
 62
7
370
13
100
AcDbLine
 10
1035101.463492319
 20
62457.73222412807
 30
0.0
 11
1035101.463492319
 21
62575.17442767118
 31
0.0
  0
LINE
  5
C6
330
17
100
AcDbEntity
  8
BAR-GAL
 62
7
370
13
100
AcDbLine
 10
1035131.463492319
 20
62457.73222412807
 30
0.0
 11
1035131.463492319
 21
62575.17442767118
 31
0.0
  0
LINE
  5
C7
330
17
100
AcDbEntity
  8
BAR-GAL
 62
7
370
13
100
AcDbLine
 10
1035161.463492319
 20
62457.73222412807
 30
0.0
 11
1035161.463492319
 21
62575.17442767118
 31
0.0
  0
LINE
  5
C8
330
17
100
AcDbEntity
  8
BAR-GAL
 62
7
370
13
100
AcDbLine
 10
1035101.463492319
 20
62451.16873487821
 30
0.0
 11
1034992.28911765
 21
62451.16873487821
 31
0.0
  0
LINE
  5
C9
330
17
100
AcDbEntity
  8
BAR-GAL
 62
7
370
13
100
AcDbLine
 10
1035101.463492319
 20
62421.1687348782
 30
0.0
 11
1034992.28911765
 21
62421.1687348782
 31
0.0
  0
LINE
  5
CA
330
17
100
AcDbEntity
  8
BAR-GAL
 62
7
370
13
100
AcDbLine
 10
1035101.463492319
 20
62391.1687348782
 30
0.0
 11
1034992.28911765
 21
62391.1687348782
 31
0.0
  0
LINE
  5
CB
330
17
100
AcDbEntity
  8
BAR-GAL
 62
7
370
13
100
AcDbLine
 10
1035101.463492319
 20
62361.1687348782
 30
0.0
 11
1034992.28911765
 21
62361.1687348782
 31
0.0
  0
LINE
  5
CC
330
17
100
AcDbEntity
  8
BAR-GAL
 62
7
370
13
100
AcDbLine
 10
1035101.463492319
 20
62331.1687348782
 30
0.0
 11
1034992.28911765
 21
62331.1687348782
 31
0.0
  0
LINE
  5
CD
330
17
100
AcDbEntity
  8
BAR-GAL
 62
7
370
13
100
AcDbLine
 10
1035101.463492319
 20
62301.16873487821
 30
0.0
 11
1034992.28911765
 21
62301.16873487821
 31
0.0
  0
LINE
  5
CE
330
17
100
AcDbEntity
  8
BAR-GAL
 62
7
370
13
100
AcDbLine
 10
1035101.463492319
 20
62177.90958024357
 30
0.0
 11
1035101.463492319
 21
62295.3517837867
 31
0.0
  0
LINE
  5
CF
330
17
100
AcDbEntity
  8
BAR-GAL
 62
7
370
13
100
AcDbLine
 10
1035131.463492319
 20
62177.90958024357
 30
0.0
 11
1035131.463492319
 21
62295.3517837867
 31
0.0
  0
LINE
  5
D0
330
17
100
AcDbEntity
  8
BAR-GAL
 62
7
370
13
100
AcDbLine
 10
1035161.463492319
 20
62177.90958024357
 30
0.0
 11
1035161.463492319
 21
62295.3517837867
 31
0.0
  0
LINE
  5
D1
330
17
100
AcDbEntity
  8
BAR-GAL
 62
7
370
13
100
AcDbLine
 10
1035272.113903448
 20
62451.16873487821
 30
0.0
 11
1035162.939528779
 21
62451.16873487821
 31
0.0
  0
LINE
  5
D2
330
17
100
AcDbEntity
  8
BAR-GAL
 62
7
370
13
100
AcDbLine
 10
1035272.113903448
 20
62421.1687348782
 30
0.0
 11
1035162.939528779
 21
62421.1687348782
 31
0.0
  0
LINE
  5
D3
330
17
100
AcDbEntity
  8
BAR-GAL
 62
7
370
13
100
AcDbLine
 10
1035272.113903448
 20
62391.1687348782
 30
0.0
 11
1035162.939528779
 21
62391.1687348782
 31
0.0
  0
LINE
  5
D4
330
17
100
AcDbEntity
  8
BAR-GAL
 62
7
370
13
100
AcDbLine
 10
1035272.113903448
 20
62361.1687348782
 30
0.0
 11
1035162.939528779
 21
62361.1687348782
 31
0.0
  0
LINE
  5
D5
330
17
100
AcDbEntity
  8
BAR-GAL
 62
7
370
13
100
AcDbLine
 10
1035272.113903448
 20
62331.1687348782
 30
0.0
 11
1035162.939528779
 21
62331.1687348782
 31
0.0
  0
LINE
  5
D6
330
17
100
AcDbEntity
  8
BAR-GAL
 62
7
370
13
100
AcDbLine
 10
1035272.113903448
 20
62301.16873487821
 30
0.0
 11
1035162.939528779
 21
62301.16873487821
 31
0.0
  0
LWPOLYLINE
  5
D7
330
17
100
AcDbEntity
  8
BAR-GAL
 62
7
370
13
100
AcDbPolyline
 90
4
 70
1
 43
5.0
 10
1034992.762957568
 20
62634.41574487258
 10
1035274.865754569
 20
62634.41574487258
 10
1035274.865754569
 20
62574.17442767117
 10
1034992.762957568
 20
62574.17442767117
  0
LWPOLYLINE
  5
D8
330
17
100
AcDbEntity
  8
BAR-GAL
 62
7
370
13
100
AcDbPolyline
 90
2
 70
0
 43
5.0
 10
1035109.925926337
 20
62634.41574487258
 10
1035109.925926337
 20
62575.17442767118
  0
LWPOLYLINE
  5
D9
330
17
100
AcDbEntity
  8
BAR-GAL
 62
7
370
13
100
AcDbPolyline
 90
2
 70
0
 43
5.0
 10
1035234.750172818
 20
62633.75874340217
 10
1035234.750172818
 20
62574.17442767117
  0
LINE
  5
DA
330
17
100
AcDbEntity
  8
BAR-GAL
 62
7
370
13
100
AcDbLine
 10
1034992.762957568
 20
62634.41574487258
 30
0.0
 11
1035109.925926337
 21
62575.17442767118
 31
0.0
  0
LINE
  5
DB
330
17
100
AcDbEntity
  8
BAR-GAL
 62
7
370
13
100
AcDbLine
 10
1035109.925926337
 20
62575.17442767118
 30
0.0
 11
1035234.750172818
 21
62633.75874340217
 31
0.0
  0
LINE
  5
DC
330
17
100
AcDbEntity
  8
BAR-GAL
 62
7
370
13
100
AcDbLine
 10
1035234.750172818
 20
62633.75874340217
 30
0.0
 11
1035274.865754569
 21
62575.17442767117
 31
0.0
  0
LINE
  5
DD
330
17
100
AcDbEntity
  8
BAR-GAL
 62
7
370
13
100
AcDbLine
 10
1035274.865754569
 20
62634.41574487258
 30
0.0
 11
1035234.750172818
 21
62575.17442767117
 31
0.0
  0
LINE
  5
DE
330
17
100
AcDbEntity
  8
BAR-GAL
 62
7
370
13
100
AcDbLine
 10
1035234.750172818
 20
62575.17442767117
 30
0.0
 11
1035109.925926337
 21
62634.41574487258
 31
0.0
  0
LINE
  5
DF
330
17
100
AcDbEntity
  8
BAR-GAL
 62
7
370
13
100
AcDbLine
 10
1035109.925926337
 20
62634.41574487258
 30
0.0
 11
1034994.056682551
 21
62574.17442767117
 31
0.0
  0
DIMENSION
  5
E0
330
17
100
AcDbEntity
  8
BAR-GAL
 62
7
370
13
100
AcDbDimension
280
0
  2
*D11
  3
ISO-25
 10
1035326.238101178
 20
62574.17442767121
 30
0.0
 11
1035300.910679622
 21
62379.1811132207
 31
0.0
 70
32
 71
5
 42
389.9866289004058
 73
0
 74
0
 75
0
100
AcDbAlignedDimension
 13
1035272.113903448
 23
62184.18779877079
 33
0.0
 14
1035272.113903448
 24
62574.17442767119
 34
0.0
 50
90.0
100
AcDbRotatedDimension
  0
DIMENSION
  5
ED
330
17
100
AcDbEntity
  8
BAR-GAL
 62
7
370
13
100
AcDbDimension
280
0
  2
*D12
  3
ISO-25
 10
1035272.113903448
 20
62678.97055228156
 30
0.0
 11
1035131.868556246
 21
62704.28774191321
 31
0.0
 70
32
 71
5
 42
280.4906944036484
 73
0
 74
0
 75
0
100
AcDbAlignedDimension
 13
1034991.623209044
 23
62576.12960667434
 33
0.0
 14
1035272.113903448
 24
62575.17442767118
 34
0.0
 50
0.0
100
AcDbRotatedDimension
  0
LWPOLYLINE
  5
FA
330
17
100
AcDbEntity
  8
BAR-GAL
 62
7
370
13
100
AcDbPolyline
 90
2
 70
0
 43
15.0
 10
1035272.113903448
 20
62184.18779877079
 10
1035422.18410596
 20
62184.18779877079
  0
LWPOLYLINE
  5
FB
330
17
100
AcDbEntity
  8
BAR-GAL
 62
7
370
13
100
AcDbPolyline
 90
2
 70
0
 43
15.0
 10
1034992.084795279
 20
62185.29390078356
 10
1034992.084795279
 20
62043.20427137832
  0
LWPOLYLINE
  5
FC
330
17
100
AcDbEntity
  8
BAR-GAL
 62
7
370
13
100
AcDbPolyline
 90
2
 70
0
 43
15.0
 10
1034870.925412874
 20
61868.22094201982
 10
1034870.16736043
 20
61868.22094201982
  0
LWPOLYLINE
  5
FD
330
17
100
AcDbEntity
  8
BAR-GAL
 62
7
370
13
100
AcDbPolyline
 90
3
 70
0
 43
15.0
 10
1035419.772846522
 20
62189.09806072869
 10
1035419.772846522
 20
62143.72353936385
 10
1035832.016138364
 20
62143.59454383425
  0
LWPOLYLINE
  5
FE
330
17
100
AcDbEntity
  8
BAR-GAL
 62
7
370
13
100
AcDbPolyline
 90
5
 70
0
 43
15.0
 10
1034815.264222092
 20
63445.24585460483
 10
1034815.264222092
 20
62969.7831021827
 10
1035468.279155472
 20
62970.3082597419
 10
1035467.949282502
 20
62790.22408301206
 10
1034992.084795279
 20
62790.22408301206
  0
LWPOLYLINE
  5
FF
330
17
100
AcDbEntity
  8
BAR-GAL
 62
7
370
13
100
AcDbPolyline
 90
2
 70
0
 43
15.0
 10
1034870.935322758
 20
61865.70887526044
 10
1034870.925412874
 20
61868.22094201982
  0
LWPOLYLINE
  5
100
330
17
100
AcDbEntity
  8
BAR-GAL
 62
7
370
13
100
AcDbPolyline
 90
2
 70
0
 43
15.0
 10
1034870.235118871
 20
62043.20427137832
 10
1034992.084795279
 20
62043.20427137832
  0
LWPOLYLINE
  5
101
330
17
100
AcDbEntity
  8
BAR-GAL
 62
7
370
13
100
AcDbPolyline
 90
2
 70
0
 43
15.0
 10
1034872.335730532
 20
61865.85284540289
 10
1034872.335730532
 20
62048.55852505377
  0
LWPOLYLINE
  5
102
330
17
100
AcDbEntity
  8
BAR-GAL
 62
7
370
13
100
AcDbPolyline
 90
2
 70
0
 43
15.0
 10
1034874.429078875
 20
61991.2569506522
 10
1034529.920656013
 20
61990.55900188039
  0
LWPOLYLINE
  5
103
330
17
100
AcDbEntity
  8
BAR-GAL
 62
7
370
13
100
AcDbPolyline
 90
2
 70
0
 43
15.0
 10
1034992.527614526
 20
62185.52595247405
 10
1034530.16736043
 20
62185.52595247405
  0
DIMENSION
  5
104
330
17
100
AcDbEntity
  8
BAR-GAL
 62
7
370
13
100
AcDbDimension
280
0
  2
*D13
  3
ISO-25
 10
1034990.527614526
 20
62136.27864933892
 30
0.0
 11
1034760.347487478
 21
62161.59583897057
 31
0.0
 70
32
 71
5
 42
460.3602540966821
 73
0
 74
0
 75
0
100
AcDbAlignedDimension
 13
1034530.167360429
 23
62086.41833848048
 33
0.0
 14
1034990.527614526
 24
62089.91376746567
 34
0.0
 50
0.0
100
AcDbRotatedDimension
  0
DIMENSION
  5
111
102
{ACAD_XDICTIONARY
360
112
102
}
330
17
100
AcDbEntity
  8
BAR-GAL
 62
7
370
13
100
AcDbDimension
280
0
  2
*D14
  3
ISO-25
 10
1034487.242859701
 20
61990.55900188041
 30
0.0
 11
1034461.92567007
 21
61930.3795566439
 31
0.0
 70
32
 71
5
 42
120.3588904723947
 73
0
 74
0
 75
0
100
AcDbAlignedDimension
 13
1034531.851465971
 23
61870.20011140798
 33
0.0
 14
1034529.920656013
 24
61990.55900188039
 34
0.0
 50
90.0
100
AcDbRotatedDimension
  0
DIMENSION
  5
11F
330
17
100
AcDbEntity
  8
BAR-GAL
 62
7
370
13
100
AcDbDimension
280
0
  2
*D15
  3
ISO-25
 10
1034870.071854381
 20
62014.62151399376
 30
0.0
 11
1034699.996255197
 21
62039.94893554901
 31
0.0
 70
32
 71
5
 42
340.1511983682867
 73
0
 74
0
 75
0
100
AcDbAlignedDimension
 13
1034529.920656013
 23
61970.21400072948
 33
0.0
 14
1034870.071854381
 24
61970.91041110629
 34
0.0
 50
0.0
100
AcDbRotatedDimension
  0
LWPOLYLINE
  5
12C
330
17
100
AcDbEntity
  8
BAR-GAL
 62
7
370
13
100
AcDbPolyline
 90
3
 70
0
 43
15.0
 10
1034042.617883758
 20
63030.1507346968
 10
1034362.617883758
 20
63030.1507346968
 10
1034361.740347535
 20
63444.07745051381
  0
DIMENSION
  5
12D
102
{ACAD_XDICTIONARY
360
12E
102
}
330
17
100
AcDbEntity
  8
BAR-GAL
 62
7
370
13
100
AcDbDimension
280
0
  2
*D16
  3
ISO-25
 10
1034362.616440293
 20
62969.08637297566
 30
0.0
 11
1034212.535755205
 21
62994.41379453091
 31
0.0
 70
32
 71
5
 42
300.1613701749593
 73
0
 74
0
 75
0
100
AcDbAlignedDimension
 13
1034062.455070118
 23
63030.1507346968
 33
0.0
 14
1034362.616440293
 24
63030.83160579091
 34
0.0
 50
0.0
100
AcDbRotatedDimension
  0
DIMENSION
  5
13B
330
17
100
AcDbEntity
  8
BAR-GAL
 62
7
370
13
100
AcDbDimension
280
0
  2
*D17
  3
ISO-25
 10
1034423.117900242
 20
63440.58481675374
 30
0.0
 11
1034397.80071061
 21
63235.70821127203
 31
0.0
 70
32
 71
5
 42
409.7532109628081
 73
0
 74
0
 75
0
100
AcDbAlignedDimension
 13
1034362.616440293
 23
63030.83160579091
 33
0.0
 14
1034362.616440293
 24
63440.58481675372
 34
0.0
 50
90.0
100
AcDbRotatedDimension
  0
TEXT
  5
148
330
17
100
AcDbEntity
  8
0
 62
7
100
AcDbText
 10
1034128.870806612
 20
63262.13530334062
 30
0.0
 40
59.201694284898
  1
חדר 
100
AcDbText
  0
TEXT
  5
149
330
17
100
AcDbEntity
  8
0
 62
7
100
AcDbText
 10
1034094.655699493
 20
63158.38949726837
 30
0.0
 40
59.201694284898
  1
 עגלות
100
AcDbText
  0
TEXT
  5
14A
330
17
100
AcDbEntity
  8
0
 62
7
100
AcDbText
 10
1034565.250451623
 20
62074.68254347698
 30
0.0
 40
53.28152485640821
  1
חדר משאבות
100
AcDbText
  0
TEXT
  5
14B
330
17
100
AcDbEntity
  8
0
 62
7
100
AcDbText
 10
1034553.577692964
 20
61911.53313535138
 30
0.0
 40
53.28152485640821
  1
מאגר מים
100
AcDbText
  0
TEXT
  5
14C
330
17
100
AcDbEntity
  8
0
 62
7
100
AcDbText
 10
1035059.058690178
 20
63271.29134190129
 30
0.0
 40
59.201694284898
  1
חדר אופנוע 
100
AcDbText
  0
DIMENSION
  5
14D
330
17
100
AcDbEntity
  8
BAR-GAL
 62
7
370
13
100
AcDbDimension
280
0
  2
*D18
  3
ISO-25
 10
1035599.129483018
 20
63758.70124254259
 30
0.0
 11
1035207.131910673
 21
63784.01843217424
 31
0.0
 70
32
 71
5
 42
783.9951446900377
 73
0
 74
0
 75
0
100
AcDbAlignedDimension
 13
1034815.134338328
 23
63433.16518184308
 33
0.0
 14
1035599.129483018
 24
63433.16518184308
 34
0.0
 50
0.0
100
AcDbRotatedDimension
  0
DIMENSION
  5
15A
330
17
100
AcDbEntity
  8
BAR-GAL
 62
7
370
13
100
AcDbDimension
280
0
  2
*D19
  3
ISO-25
 10
1034042.14478208
 20
63758.70124254259
 30
0.0
 11
1034428.639560204
 21
63784.02866409785
 31
0.0
 70
32
 71
5
 42
772.9895562484162
 73
0
 74
0
 75
0
100
AcDbAlignedDimension
 13
1034815.134338328
 23
63433.16518184308
 33
0.0
 14
1034042.14478208
 24
63273.14727863047
 34
0.0
 50
0.0
100
AcDbRotatedDimension
  0
DIMENSION
  5
167
330
17
100
AcDbEntity
  8
BAR-GAL
 62
7
370
13
100
AcDbDimension
280
0
  2
*D20
  3
ISO-25
 10
1036364.681891628
 20
63894.89252539413
 30
0.0
 11
1035203.913336854
 21
63920.21994694938
 31
0.0
 70
32
 71
5
 42
2321.537109548226
 73
0
 74
0
 75
0
100
AcDbAlignedDimension
 13
1034043.14478208
 23
63273.14727863047
 33
0.0
 14
1036364.681891628
 24
63602.5697857071
 34
0.0
 50
0.0
100
AcDbRotatedDimension
  0
LWPOLYLINE
  5
174
330
17
100
AcDbEntity
  8
BAR-GAL
 62
8
370
13
100
AcDbPolyline
 90
4
 70
1
 10
1035468.279155472
 20
62970.3082597419
 10
1035372.711516237
 20
62967.80899717502
 10
1035372.017621467
 20
62791.06988521633
 10
1035394.695884075
 20
62937.78613113075
  0
LWPOLYLINE
  5
175
330
17
100
AcDbEntity
  8
BAR-GAL
 62
1
370
13
100
AcDbPolyline
 90
6
 70
1
 10
1034530.167360429
 20
62185.52595247405
 10
1034530.167360429
 20
61990.55950168541
 10
1034872.335730532
 20
61991.25270968215
 10
1034872.335730532
 20
62043.20427137832
 10
1034992.084795278
 20
62043.20427137831
 10
1034992.084795279
 20
62185.52595247406
  0
LWPOLYLINE
  5
176
330
17
100
AcDbEntity
  8
BAR-GAL
 62
1
370
13
100
AcDbPolyline
 90
7
 70
1
 10
1034815.14478208
 20
63602.56871763732
 10
1034815.14478208
 20
63442.56871763731
 10
1034815.264222092
 20
62969.78310218271
 10
1035433.007571163
 20
62970.27989417447
 10
1035433.007571163
 20
63060.56978570707
 10
1035597.016138364
 20
63060.56978570706
 10
1035597.016138364
 20
63602.56871763732
  0
LWPOLYLINE
  5
177
330
17
100
AcDbEntity
  8
BAR-GAL
 62
1
370
13
100
AcDbPolyline
 90
10
 70
1
 10
1034361.743546091
 20
63442.56871763732
 10
1034362.617883758
 20
63030.15073469679
 10
1034042.16736043
 20
63030.1507346968
 10
1034042.16736043
 20
62508.22094201982
 10
1034852.424474841
 20
62508.22094201982
 10
1034852.424474841
 20
62186.76726051128
 10
1034992.084795279
 20
62185.52595247405
 10
1034992.084795279
 20
62969.92530208638
 10
1034815.264222092
 20
62969.7831021827
 10
1034815.14478208
 20
63442.56871763732
  0
LWPOLYLINE
  5
178
330
17
100
AcDbEntity
  8
BAR-GAL
 62
3
370
13
100
AcDbPolyline
 90
23
 70
1
 10
1036007.016138364
 20
62822.56978570707
 10
1036007.016138364
 20
63060.56978570707
 10
1035597.016138364
 20
63060.56978570707
 10
1035433.007571163
 20
63060.56978570708
 10
1035433.007571162
 20
62970.27989417448
 10
1035468.279155472
 20
62970.30825974192
 10
1035467.949282502
 20
62790.22408301206
 10
1034992.084795279
 20
62790.22408301206
 10
1034992.084795279
 20
62634.75864525927
 10
1034992.762957568
 20
62634.41574487258
 10
1035274.865754569
 20
62634.41574487258
 10
1035274.86575457
 20
62574.17442767116
 10
1035272.112812239
 20
62574.17442767116
 10
1035271.687255411
 20
62184.18779877079
 10
1035419.772846522
 20
62184.18779877079
 10
1035419.772846521
 20
62143.72353936385
 10
1035832.016138364
 20
62143.59454383425
 10
1035832.016138364
 20
62200.56978570707
 10
1035832.016138364
 20
62298.56978570707
 10
1035990.016138364
 20
62298.56978570706
 10
1035990.016138364
 20
62298.53106826597
 10
1036362.016138364
 20
62298.53106826597
 10
1036362.016138364
 20
62822.56978570705
  0
LWPOLYLINE
  5
179
330
17
100
AcDbEntity
  8
BAR-GAL
 62
7
370
13
100
AcDbPolyline
 90
3
 70
0
 43
15.0
 10
1034530.424474841
 20
62508.22094201982
 10
1034852.424474841
 20
62508.22094201982
 10
1034852.424474841
 20
62186.76726051126
  0
DIMENSION
  5
17A
102
{ACAD_XDICTIONARY
360
17B
102
}
330
17
100
AcDbEntity
  8
BAR-GAL
 62
7
370
13
100
AcDbDimension
280
0
  2
*D21
  3
ISO-25
 10
1034852.424474841
 20
62552.12382358773
 30
0.0
 11
1034691.224270954
 21
62577.45124514298
 31
0.0
 70
32
 71
5
 42
322.400407774141
 73
0
 74
0
 75
0
100
AcDbAlignedDimension
 13
1034530.024067067
 23
62508.22094201982
 33
0.0
 14
1034852.424474841
 24
62508.22094201982
 34
0.0
 50
0.0
100
AcDbRotatedDimension
  0
LWPOLYLINE
  5
188
330
17
100
AcDbEntity
  8
BAR-GAL
 62
7
370
13
100
AcDbPolyline
 90
2
 70
0
 43
15.0
 10
1034852.424474841
 20
62347.49410126553
 10
1034532.519496052
 20
62347.49410126553
  0
DIMENSION
  5
189
102
{ACAD_XDICTIONARY
360
18A
102
}
330
17
100
AcDbEntity
  8
BAR-GAL
 62
7
370
13
100
AcDbDimension
280
0
  2
*D22
  3
ISO-25
 10
1034921.17248534
 20
62347.49410126557
 30
0.0
 11
1034895.855295709
 21
62427.8575216424
 31
0.0
 70
32
 71
5
 42
160.7268407542797
 73
0
 74
0
 75
0
100
AcDbAlignedDimension
 13
1034852.424474841
 23
62508.22094201982
 33
0.0
 14
1034852.424474841
 24
62347.49410126553
 34
0.0
 50
90.0
100
AcDbRotatedDimension
  0
DIMENSION
  5
197
102
{ACAD_XDICTIONARY
360
198
102
}
330
17
100
AcDbEntity
  8
BAR-GAL
 62
7
370
13
100
AcDbDimension
280
0
  2
*D23
  3
ISO-25
 10
1034922.422485341
 20
62186.76726051128
 30
0.0
 11
1034897.10529571
 21
62267.13068088811
 31
0.0
 70
32
 71
5
 42
160.7268407542797
 73
0
 74
0
 75
0
100
AcDbAlignedDimension
 13
1034852.424474841
 23
62347.49410126553
 33
0.0
 14
1034852.424474841
 24
62186.76726051126
 34
0.0
 50
90.0
100
AcDbRotatedDimension
  0
TEXT
  5
1A5
330
17
100
AcDbEntity
  8
0
 62
7
100
AcDbText
 10
1034581.122667429
 20
62242.63854218449
 30
0.0
 40
59.201694284898
  1
מחסן 4
100
AcDbText
  0
TEXT
  5
1A6
330
17
100
AcDbEntity
  8
0
 62
7
100
AcDbText
 10
1034581.122667429
 20
62402.96428485436
 30
0.0
 40
59.201694284898
  1
מחסן 3
100
AcDbText
  0
TEXT
  5
1A7
330
17
100
AcDbEntity
  8
0
 62
7
100
AcDbText
 10
1034365.647960441
 20
62801.07422668335
 30
0.0
 40
59.201694284898
  1
חדר כושר
100
AcDbText
  0
MTEXT
  5
1A8
330
17
100
AcDbEntity
  8
VP
370
13
100
AcDbMText
 10
1034515.48401592
 20
63051.28438233371
 30
0.0
 40
59.201694284898
 41
262.1310489581865
 46
0.0
 71
1
  1
7169
  0
MTEXT
  5
1A9
330
17
100
AcDbEntity
  8
VP
370
13
100
AcDbMText
 10
1034951.730103675
 20
63166.68140953845
 30
0.0
 40
59.201694284898
 41
262.1310489581865
 46
0.0
 71
1
  1
4796
  0
MTEXT
  5
1AA
330
17
100
AcDbEntity
  8
VP
370
13
100
AcDbMText
 10
1034561.445292356
 20
62071.75870302071
 30
0.0
 40
59.201694284898
 41
262.1310489581865
 46
0.0
 71
1
  1
  836
  0
DIMENSION
  5
1AB
102
{ACAD_XDICTIONARY
360
1AC
102
}
330
17
100
AcDbEntity
  8
BAR-GAL
 62
7
370
13
100
AcDbDimension
280
0
  2
*D24
  3
ISO-25
 10
1034485.992859702
 20
61990.56030189827
 30
0.0
 11
1034460.67567007
 21
62088.04312718586
 31
0.0
 70
32
 71
5
 42
194.965650575803
 73
0
 74
0
 75
0
100
AcDbAlignedDimension
 13
1034530.16736043
 23
62185.52595247405
 33
0.0
 14
1034530.562346524
 24
61990.56030189824
 34
0.0
 50
90.0
100
AcDbRotatedDimension
  0
ENDSEC
  0
SECTION
  2
OBJECTS
  0
DICTIONARY
  5
A
330
0
100
AcDbDictionary
281
1
  3
ACAD_COLOR
350
B
  3
ACAD_GROUP
350
C
  3
ACAD_LAYOUT
350
D
  3
ACAD_MATERIAL
350
E
  3
ACAD_MLEADERSTYLE
350
F
  3
ACAD_MLINESTYLE
350
10
  3
ACAD_PLOTSETTINGS
350
11
  3
ACAD_PLOTSTYLENAME
350
12
  3
ACAD_SCALELIST
350
14
  3
ACAD_TABLESTYLE
350
15
  3
ACAD_VISUALSTYLE
350
16
  3
EZDXF_META
350
2D
  0
DICTIONARY
  5
B
330
A
100
AcDbDictionary
281
1
  0
DICTIONARY
  5
C
330
A
100
AcDbDictionary
281
1
  0
DICTIONARY
  5
D
330
A
100
AcDbDictionary
281
1
  3
Model
350
1A
  3
Layout1
350
1E
  0
DICTIONARY
  5
E
330
A
100
AcDbDictionary
281
1
  3
ByBlock
350
1F
  3
ByLayer
350
20
  3
Global
350
21
  0
DICTIONARY
  5
F
330
A
100
AcDbDictionary
281
1
  3
Standard
350
2C
  0
DICTIONARY
  5
10
330
A
100
AcDbDictionary
281
1
  3
Standard
350
22
  0
DICTIONARY
  5
11
330
A
100
AcDbDictionary
281
1
  0
ACDBDICTIONARYWDFLT
  5
12
330
A
100
AcDbDictionary
281
1
  3
Normal
350
13
100
AcDbDictionaryWithDefault
340
13
  0
ACDBPLACEHOLDER
  5
13
330
12
  0
DICTIONARY
  5
14
330
A
100
AcDbDictionary
281
1
  0
DICTIONARY
  5
15
330
A
100
AcDbDictionary
281
1
  0
DICTIONARY
  5
16
330
A
100
AcDbDictionary
281
1
  0
LAYOUT
  5
1A
330
D
100
AcDbPlotSettings
  1

  4
A3
  6

 40
7.5
 41
20.0
 42
7.5
 43
20.0
 44
420.0
 45
297.0
 46
0.0
 47
0.0
 48
0.0
 49
0.0
140
0.0
141
0.0
142
1.0
143
1.0
 70
1024
 72
1
 73
0
 74
5
  7

 75
16
 76
0
 77
2
 78
300
147
1.0
148
0.0
149
0.0
100
AcDbLayout
  1
Model
 70
1
 71
0
 10
0.0
 20
0.0
 11
420.0
 21
297.0
 12
0.0
 22
0.0
 32
0.0
 14
1e+20
 24
1e+20
 34
1e+20
 15
-1e+20
 25
-1e+20
 35
-1e+20
146
0.0
 13
0.0
 23
0.0
 33
0.0
 16
1.0
 26
0.0
 36
0.0
 17
0.0
 27
1.0
 37
0.0
 76
1
330
17
  0
LAYOUT
  5
1E
330
D
100
AcDbPlotSettings
  1

  4
A3
  6

 40
7.5
 41
20.0
 42
7.5
 43
20.0
 44
420.0
 45
297.0
 46
0.0
 47
0.0
 48
0.0
 49
0.0
140
0.0
141
0.0
142
1.0
143
1.0
 70
0
 72
1
 73
0
 74
5
  7

 75
16
 76
0
 77
2
 78
300
147
1.0
148
0.0
149
0.0
100
AcDbLayout
  1
Layout1
 70
1
 71
1
 10
0.0
 20
0.0
 11
420.0
 21
297.0
 12
0.0
 22
0.0
 32
0.0
 14
1e+20
 24
1e+20
 34
1e+20
 15
-1e+20
 25
-1e+20
 35
-1e+20
146
0.0
 13
0.0
 23
0.0
 33
0.0
 16
1.0
 26
0.0
 36
0.0
 17
0.0
 27
1.0
 37
0.0
 76
1
330
1B
  0
MATERIAL
  5
1F
102
{ACAD_REACTORS
330
E
102
}
330
E
100
AcDbMaterial
  1
ByBlock
  2

 70
0
 40
1.0
 71
1
 41
1.0
 91
-1023410177
 42
1.0
 72
1
  3

 73
1
 74
1
 75
1
 44
0.5
 73
0
 45
1.0
 46
1.0
 77
1
  4

 78
1
 79
1
170
1
 48
1.0
171
1
  6

172
1
173
1
174
1
140
1.0
141
1.0
175
1
  7

176
1
177
1
178
1
143
1.0
179
1
  8

270
1
271
1
272
1
145
1.0
146
1.0
273
1
  9

274
1
275
1
276
1
 42
1.0
 72
1
  3

 73
1
 74
1
 75
1
 94
63
  0
MATERIAL
  5
20
102
{ACAD_REACTORS
330
E
102
}
330
E
100
AcDbMaterial
  1
ByLayer
  2

 70
0
 40
1.0
 71
1
 41
1.0
 91
-1023410177
 42
1.0
 72
1
  3

 73
1
 74
1
 75
1
 44
0.5
 73
0
 45
1.0
 46
1.0
 77
1
  4

 78
1
 79
1
170
1
 48
1.0
171
1
  6

172
1
173
1
174
1
140
1.0
141
1.0
175
1
  7

176
1
177
1
178
1
143
1.0
179
1
  8

270
1
271
1
272
1
145
1.0
146
1.0
273
1
  9

274
1
275
1
276
1
 42
1.0
 72
1
  3

 73
1
 74
1
 75
1
 94
63
  0
MATERIAL
  5
21
102
{ACAD_REACTORS
330
E
102
}
330
E
100
AcDbMaterial
  1
Global
  2

 70
0
 40
1.0
 71
1
 41
1.0
 91
-1023410177
 42
1.0
 72
1
  3

 73
1
 74
1
 75
1
 44
0.5
 73
0
 45
1.0
 46
1.0
 77
1
  4

 78
1
 79
1
170
1
 48
1.0
171
1
  6

172
1
173
1
174
1
140
1.0
141
1.0
175
1
  7

176
1
177
1
178
1
143
1.0
179
1
  8

270
1
271
1
272
1
145
1.0
146
1.0
273
1
  9

274
1
275
1
276
1
 42
1.0
 72
1
  3

 73
1
 74
1
 75
1
 94
63
  0
MLINESTYLE
  5
22
102
{ACAD_REACTORS
330
10
102
}
330
10
100
AcDbMlineStyle
  2
Standard
 70
0
  3

 62
256
 51
90.0
 52
90.0
 71
2
 49
0.5
 62
256
  6
BYLAYER
 49
-0.5
 62
256
  6
BYLAYER
  0
MLEADERSTYLE
  5
2C
102
{ACAD_REACTORS
330
F
102
}
330
F
100
AcDbMLeaderStyle
179
2
170
2
171
1
172
0
 90
2
 40
0.0
 41
0.0
173
1
 91
-1056964608
 92
-2
290
1
 42
2.0
291
1
 43
8.0
  3
Standard
 44
4.0
300

342
29
174
1
175
1
176
0
178
1
 93
-1056964608
 45
4.0
292
0
297
0
 46
4.0
 94
-1056964608
 47
1.0
 49
1.0
140
1.0
294
1
141
0.0
177
0
142
1.0
295
0
296
0
143
3.75
271
0
272
9
273
9
  0
DICTIONARY
  5
2D
330
A
100
AcDbDictionary
280
1
281
1
  3
CREATED_BY_EZDXF
350
2E
  3
WRITTEN_BY_EZDXF
350
1BB
  0
DICTIONARYVAR
  5
2E
330
2D
100
DictionaryVariables
280
0
  1
1.4.3 @ 2026-05-05T23:16:51.073135+00:00
  0
DICTIONARY
  5
6C
330
6B
100
AcDbDictionary
280
1
281
1
  0
DICTIONARY
  5
112
330
111
100
AcDbDictionary
280
1
281
1
  0
DICTIONARY
  5
12E
330
12D
100
AcDbDictionary
280
1
281
1
  0
DICTIONARY
  5
17B
330
17A
100
AcDbDictionary
280
1
281
1
  0
DICTIONARY
  5
18A
330
189
100
AcDbDictionary
280
1
281
1
  0
DICTIONARY
  5
198
330
197
100
AcDbDictionary
280
1
281
1
  0
DICTIONARY
  5
1AC
330
1AB
100
AcDbDictionary
280
1
281
1
  0
DICTIONARYVAR
  5
1BB
330
2D
100
DictionaryVariables
280
0
  1
1.4.3 @ 2026-05-05T23:16:51.091993+00:00
  0
ENDSEC
  0
EOF
