  0
SECTION
  2
HEADER
  9
$ACADVER
  1
AC1032
  9
$ACADMAINTVER
 90
4
  9
$DWGCODEPAGE
  3
ANSI_1252
  9
$LASTSAVEDBY
  1
ezdxf
  9
$REQUIREDVERSIONS
160
0
  9
$INSBASE
 10
0.0
 20
0.0
 30
0.0
  9
$EXTMIN
 10
1e+20
 20
1e+20
 30
1e+20
  9
$EXTMAX
 10
-1e+20
 20
-1e+20
 30
-1e+20
  9
$LIMMIN
 10
0.0
 20
0.0
  9
$LIMMAX
 10
420.0
 20
297.0
  9
$ORTHOMODE
 70
0
  9
$REGENMODE
 70
1
  9
$FILLMODE
 70
1
  9
$QTEXTMODE
 70
0
  9
$MIRRTEXT
 70
1
  9
$LTSCALE
 40
1.0
  9
$ATTMODE
 70
1
  9
$TEXTSIZE
 40
2.5
  9
$TRACEWID
 40
1.0
  9
$TEXTSTYLE
  7
Standard
  9
$CLAYER
  8
0
  9
$CELTYPE
  6
ByLayer
  9
$CECOLOR
 62
256
  9
$CELTSCALE
 40
1.0
  9
$DISPSILH
 70
0
  9
$DIMSCALE
 40
1.0
  9
$DIMASZ
 40
2.5
  9
$DIMEXO
 40
0.625
  9
$DIMDLI
 40
3.75
  9
$DIMRND
 40
0.0
  9
$DIMDLE
 40
0.0
  9
$DIMEXE
 40
1.25
  9
$DIMTP
 40
0.0
  9
$DIMTM
 40
0.0
  9
$DIMTXT
 40
2.5
  9
$DIMCEN
 40
2.5
  9
$DIMTSZ
 40
0.0
  9
$DIMTOL
 70
0
  9
$DIMLIM
 70
0
  9
$DIMTIH
 70
0
  9
$DIMTOH
 70
0
  9
$DIMSE1
 70
0
  9
$DIMSE2
 70
0
  9
$DIMTAD
 70
1
  9
$DIMZIN
 70
8
  9
$DIMBLK
  1

  9
$DIMASO
 70
1
  9
$DIMSHO
 70
1
  9
$DIMPOST
  1

  9
$DIMAPOST
  1

  9
$DIMALT
 70
0
  9
$DIMALTD
 70
3
  9
$DIMALTF
 40
0.03937007874
  9
$DIMLFAC
 40
1.0
  9
$DIMTOFL
 70
1
  9
$DIMTVP
 40
0.0
  9
$DIMTIX
 70
0
  9
$DIMSOXD
 70
0
  9
$DIMSAH
 70
0
  9
$DIMBLK1
  1

  9
$DIMBLK2
  1

  9
$DIMSTYLE
  2
ISO-25
  9
$DIMCLRD
 70
0
  9
$DIMCLRE
 70
0
  9
$DIMCLRT
 70
0
  9
$DIMTFAC
 40
1.0
  9
$DIMGAP
 40
0.625
  9
$DIMJUST
 70
0
  9
$DIMSD1
 70
0
  9
$DIMSD2
 70
0
  9
$DIMTOLJ
 70
0
  9
$DIMTZIN
 70
8
  9
$DIMALTZ
 70
0
  9
$DIMALTTZ
 70
0
  9
$DIMUPT
 70
0
  9
$DIMDEC
 70
2
  9
$DIMTDEC
 70
2
  9
$DIMALTU
 70
2
  9
$DIMALTTD
 70
3
  9
$DIMTXSTY
  7
Standard
  9
$DIMAUNIT
 70
0
  9
$DIMADEC
 70
0
  9
$DIMALTRND
 40
0.0
  9
$DIMAZIN
 70
0
  9
$DIMDSEP
 70
44
  9
$DIMATFIT
 70
3
  9
$DIMFRAC
 70
0
  9
$DIMLDRBLK
  1

  9
$DIMLUNIT
 70
2
  9
$DIMLWD
 70
-2
  9
$DIMLWE
 70
-2
  9
$DIMTMOVE
 70
0
  9
$DIMFXL
 40
1.0
  9
$DIMFXLON
 70
0
  9
$DIMJOGANG
 40
0.785398163397
  9
$DIMTFILL
 70
0
  9
$DIMTFILLCLR
 70
0
  9
$DIMARCSYM
 70
0
  9
$DIMLTYPE
  6

  9
$DIMLTEX1
  6

  9
$DIMLTEX2
  6

  9
$DIMTXTDIRECTION
 70
0
  9
$LUNITS
 70
2
  9
$LUPREC
 70
4
  9
$SKETCHINC
 40
1.0
  9
$FILLETRAD
 40
10.0
  9
$AUNITS
 70
0
  9
$AUPREC
 70
2
  9
$MENU
  1
.
  9
$ELEVATION
 40
0.0
  9
$PELEVATION
 40
0.0
  9
$THICKNESS
 40
0.0
  9
$LIMCHECK
 70
0
  9
$CHAMFERA
 40
0.0
  9
$CHAMFERB
 40
0.0
  9
$CHAMFERC
 40
0.0
  9
$CHAMFERD
 40
0.0
  9
$SKPOLY
 70
0
  9
$TDCREATE
 40
2461167.0950347222
  9
$TDUCREATE
 40
2458532.153996898
  9
$TDUPDATE
 40
2461167.0950347222
  9
$TDUUPDATE
 40
2458532.1544311
  9
$TDINDWG
 40
0.0
  9
$TDUSRTIMER
 40
0.0
  9
$USRTIMER
 70
1
  9
$ANGBASE
 50
0.0
  9
$ANGDIR
 70
0
  9
$PDMODE
 70
0
  9
$PDSIZE
 40
0.0
  9
$PLINEWID
 40
0.0
  9
$SPLFRAME
 70
0
  9
$SPLINETYPE
 70
6
  9
$SPLINESEGS
 70
8
  9
$HANDSEED
  5
18A
  9
$SURFTAB1
 70
6
  9
$SURFTAB2
 70
6
  9
$SURFTYPE
 70
6
  9
$SURFU
 70
6
  9
$SURFV
 70
6
  9
$UCSBASE
  2

  9
$UCSNAME
  2

  9
$UCSORG
 10
0.0
 20
0.0
 30
0.0
  9
$UCSXDIR
 10
1.0
 20
0.0
 30
0.0
  9
$UCSYDIR
 10
0.0
 20
1.0
 30
0.0
  9
$UCSORTHOREF
  2

  9
$UCSORTHOVIEW
 70
0
  9
$UCSORGTOP
 10
0.0
 20
0.0
 30
0.0
  9
$UCSORGBOTTOM
 10
0.0
 20
0.0
 30
0.0
  9
$UCSORGLEFT
 10
0.0
 20
0.0
 30
0.0
  9
$UCSORGRIGHT
 10
0.0
 20
0.0
 30
0.0
  9
$UCSORGFRONT
 10
0.0
 20
0.0
 30
0.0
  9
$UCSORGBACK
 10
0.0
 20
0.0
 30
0.0
  9
$PUCSBASE
  2

  9
$PUCSNAME
  2

  9
$PUCSORG
 10
0.0
 20
0.0
 30
0.0
  9
$PUCSXDIR
 10
1.0
 20
0.0
 30
0.0
  9
$PUCSYDIR
 10
0.0
 20
1.0
 30
0.0
  9
$PUCSORTHOREF
  2

  9
$PUCSORTHOVIEW
 70
0
  9
$PUCSORGTOP
 10
0.0
 20
0.0
 30
0.0
  9
$PUCSORGBOTTOM
 10
0.0
 20
0.0
 30
0.0
  9
$PUCSORGLEFT
 10
0.0
 20
0.0
 30
0.0
  9
$PUCSORGRIGHT
 10
0.0
 20
0.0
 30
0.0
  9
$PUCSORGFRONT
 10
0.0
 20
0.0
 30
0.0
  9
$PUCSORGBACK
 10
0.0
 20
0.0
 30
0.0
  9
$USERI1
 70
0
  9
$USERI2
 70
0
  9
$USERI3
 70
0
  9
$USERI4
 70
0
  9
$USERI5
 70
0
  9
$USERR1
 40
0.0
  9
$USERR2
 40
0.0
  9
$USERR3
 40
0.0
  9
$USERR4
 40
0.0
  9
$USERR5
 40
0.0
  9
$WORLDVIEW
 70
1
  9
$SHADEDGE
 70
3
  9
$SHADEDIF
 70
70
  9
$TILEMODE
 70
1
  9
$MAXACTVP
 70
64
  9
$PINSBASE
 10
0.0
 20
0.0
 30
0.0
  9
$PLIMCHECK
 70
0
  9
$PEXTMIN
 10
1e+20
 20
1e+20
 30
1e+20
  9
$PEXTMAX
 10
-1e+20
 20
-1e+20
 30
-1e+20
  9
$PLIMMIN
 10
0.0
 20
0.0
  9
$PLIMMAX
 10
420.0
 20
297.0
  9
$UNITMODE
 70
0
  9
$VISRETAIN
 70
1
  9
$PLINEGEN
 70
0
  9
$PSLTSCALE
 70
1
  9
$TREEDEPTH
 70
3020
  9
$CMLSTYLE
  2
Standard
  9
$CMLJUST
 70
0
  9
$CMLSCALE
 40
20.0
  9
$PROXYGRAPHICS
 70
1
  9
$MEASUREMENT
 70
1
  9
$CELWEIGHT
370
-1
  9
$ENDCAPS
280
0
  9
$JOINSTYLE
280
0
  9
$LWDISPLAY
290
0
  9
$INSUNITS
 70
6
  9
$HYPERLINKBASE
  1

  9
$STYLESHEET
  1

  9
$XEDIT
290
1
  9
$CEPSNTYPE
380
0
  9
$PSTYLEMODE
290
1
  9
$FINGERPRINTGUID
  2
{1EB99671-FDB7-4015-9021-C903732FAE41}
  9
$VERSIONGUID
  2
{803FBDCB-0E8B-4EBC-B63F-A0C15B36A840}
  9
$EXTNAMES
290
1
  9
$PSVPSCALE
 40
0.0
  9
$OLESTARTUP
290
0
  9
$SORTENTS
280
127
  9
$INDEXCTL
280
0
  9
$HIDETEXT
280
1
  9
$XCLIPFRAME
280
1
  9
$HALOGAP
280
0
  9
$OBSCOLOR
 70
257
  9
$OBSLTYPE
280
0
  9
$INTERSECTIONDISPLAY
280
0
  9
$INTERSECTIONCOLOR
 70
257
  9
$DIMASSOC
280
2
  9
$PROJECTNAME
  1

  9
$CAMERADISPLAY
290
0
  9
$LENSLENGTH
 40
50.0
  9
$CAMERAHEIGHT
 40
0.0
  9
$STEPSPERSEC
 40
24.0
  9
$STEPSIZE
 40
100.0
  9
$3DDWFPREC
 40
2.0
  9
$PSOLWIDTH
 40
0.005
  9
$PSOLHEIGHT
 40
0.08
  9
$LOFTANG1
 40
1.570796326795
  9
$LOFTANG2
 40
1.570796326795
  9
$LOFTMAG1
 40
0.0
  9
$LOFTMAG2
 40
0.0
  9
$LOFTPARAM
 70
7
  9
$LOFTNORMALS
280
1
  9
$LATITUDE
 40
37.795
  9
$LONGITUDE
 40
-122.394
  9
$NORTHDIRECTION
 40
0.0
  9
$TIMEZONE
 70
-8000
  9
$LIGHTGLYPHDISPLAY
280
1
  9
$TILEMODELIGHTSYNCH
280
1
  9
$CMATERIAL
347
20
  9
$SOLIDHIST
280
0
  9
$SHOWHIST
280
1
  9
$DWFFRAME
280
2
  9
$DGNFRAME
280
2
  9
$REALWORLDSCALE
290
1
  9
$INTERFERECOLOR
 62
256
  9
$CSHADOW
280
0
  9
$SHADOWPLANELOCATION
 40
0.0
  0
ENDSEC
  0
SECTION
  2
CLASSES
  0
CLASS
  1
ACDBDICTIONARYWDFLT
  2
AcDbDictionaryWithDefault
  3
ObjectDBX Classes
 90
0
 91
0
280
0
281
0
  0
CLASS
  1
SUN
  2
AcDbSun
  3
SCENEOE
 90
1153
 91
0
280
0
281
0
  0
CLASS
  1
VISUALSTYLE
  2
AcDbVisualStyle
  3
ObjectDBX Classes
 90
4095
 91
0
280
0
281
0
  0
CLASS
  1
MATERIAL
  2
AcDbMaterial
  3
ObjectDBX Classes
 90
1153
 91
0
280
0
281
0
  0
CLASS
  1
SCALE
  2
AcDbScale
  3
ObjectDBX Classes
 90
1153
 91
0
280
0
281
0
  0
CLASS
  1
TABLESTYLE
  2
AcDbTableStyle
  3
ObjectDBX Classes
 90
4095
 91
0
280
0
281
0
  0
CLASS
  1
MLEADERSTYLE
  2
AcDbMLeaderStyle
  3
ACDB_MLEADERSTYLE_CLASS
 90
4095
 91
0
280
0
281
0
  0
CLASS
  1
DICTIONARYVAR
  2
AcDbDictionaryVar
  3
ObjectDBX Classes
 90
0
 91
0
280
0
281
0
  0
CLASS
  1
CELLSTYLEMAP
  2
AcDbCellStyleMap
  3
ObjectDBX Classes
 90
1152
 91
0
280
0
281
0
  0
CLASS
  1
MENTALRAYRENDERSETTINGS
  2
AcDbMentalRayRenderSettings
  3
SCENEOE
 90
1024
 91
0
280
0
281
0
  0
CLASS
  1
ACDBDETAILVIEWSTYLE
  2
AcDbDetailViewStyle
  3
ObjectDBX Classes
 90
1025
 91
0
280
0
281
0
  0
CLASS
  1
ACDBSECTIONVIEWSTYLE
  2
AcDbSectionViewStyle
  3
ObjectDBX Classes
 90
1025
 91
0
280
0
281
0
  0
CLASS
  1
RASTERVARIABLES
  2
AcDbRasterVariables
  3
ISM
 90
0
 91
0
280
0
281
0
  0
CLASS
  1
ACDBPLACEHOLDER
  2
AcDbPlaceHolder
  3
ObjectDBX Classes
 90
0
 91
0
280
0
281
0
  0
CLASS
  1
LAYOUT
  2
AcDbLayout
  3
ObjectDBX Classes
 90
0
 91
0
280
0
281
0
  0
ENDSEC
  0
SECTION
  2
TABLES
  0
TABLE
  2
VPORT
  5
8
330
0
100
AcDbSymbolTable
 70
1
  0
VPORT
  5
23
330
8
100
AcDbSymbolTableRecord
100
AcDbViewportTableRecord
  2
*Active
 70
0
 10
0.0
 20
0.0
 11
1.0
 21
1.0
 12
0.0
 22
0.0
 13
0.0
 23
0.0
 14
0.5
 24
0.5
 15
0.5
 25
0.5
 16
0.0
 26
0.0
 36
1.0
 17
0.0
 27
0.0
 37
0.0
 40
1000.0
 41
1.34
 42
50.0
 43
0.0
 44
0.0
 50
0.0
 51
0.0
 71
0
 72
1000
 73
1
 74
3
 75
0
 76
0
 77
0
 78
0
281
0
 65
0
146
0.0
  0
ENDTAB
  0
TABLE
  2
LTYPE
  5
2
330
0
100
AcDbSymbolTable
 70
3
  0
LTYPE
  5
24
330
2
100
AcDbSymbolTableRecord
100
AcDbLinetypeTableRecord
  2
ByBlock
 70
0
  3

 72
65
 73
0
 40
0.0
  0
LTYPE
  5
25
330
2
100
AcDbSymbolTableRecord
100
AcDbLinetypeTableRecord
  2
ByLayer
 70
0
  3

 72
65
 73
0
 40
0.0
  0
LTYPE
  5
26
330
2
100
AcDbSymbolTableRecord
100
AcDbLinetypeTableRecord
  2
Continuous
 70
0
  3

 72
65
 73
0
 40
0.0
  0
ENDTAB
  0
TABLE
  2
LAYER
  5
1
330
0
100
AcDbSymbolTable
 70
8
  0
LAYER
  5
27
330
1
100
AcDbSymbolTableRecord
100
AcDbLayerTableRecord
  2
0
 70
0
 62
7
  6
Continuous
370
-3
390
13
347
21
  0
LAYER
  5
28
330
1
100
AcDbSymbolTableRecord
100
AcDbLayerTableRecord
  2
Defpoints
 70
0
 62
7
  6
Continuous
290
0
370
-3
390
13
347
21
  0
LAYER
  5
2F
330
1
100
AcDbSymbolTableRecord
100
AcDbLayerTableRecord
  2
MIKRA
 70
0
 62
7
  6
Continuous
370
-3
390
13
347
21
  0
LAYER
  5
30
330
1
100
AcDbSymbolTableRecord
100
AcDbLayerTableRecord
  2
kir
 70
0
 62
7
  6
Continuous
370
-3
390
13
347
21
  0
LAYER
  5
31
330
1
100
AcDbSymbolTableRecord
100
AcDbLayerTableRecord
  2
8
 70
0
 62
7
  6
Continuous
370
-3
390
13
347
21
  0
LAYER
  5
32
330
1
100
AcDbSymbolTableRecord
100
AcDbLayerTableRecord
  2
BAR-GAL
 70
0
 62
7
  6
Continuous
370
-3
390
13
347
21
  0
LAYER
  5
33
330
1
100
AcDbSymbolTableRecord
100
AcDbLayerTableRecord
  2
BAR_GAL
 70
0
 62
7
  6
Continuous
370
-3
390
13
347
21
  0
LAYER
  5
34
330
1
100
AcDbSymbolTableRecord
100
AcDbLayerTableRecord
  2
VP
 70
0
 62
-30
  6
Continuous
370
-3
390
13
347
21
  0
ENDTAB
  0
TABLE
  2
STYLE
  5
5
330
0
100
AcDbSymbolTable
 70
1
  0
STYLE
  5
29
330
5
100
AcDbSymbolTableRecord
100
AcDbTextStyleTableRecord
  2
Standard
 70
0
 40
0.0
 41
1.0
 50
0.0
 71
0
 42
2.5
  3
txt
  4

  0
ENDTAB
  0
TABLE
  2
VIEW
  5
7
330
0
100
AcDbSymbolTable
 70
0
  0
ENDTAB
  0
TABLE
  2
UCS
  5
6
330
0
100
AcDbSymbolTable
 70
0
  0
ENDTAB
  0
TABLE
  2
APPID
  5
3
330
0
100
AcDbSymbolTable
 70
3
  0
APPID
  5
2A
330
3
100
AcDbSymbolTableRecord
100
AcDbRegAppTableRecord
  2
ACAD
 70
0
  0
APPID
  5
187
330
3
100
AcDbSymbolTableRecord
100
AcDbRegAppTableRecord
  2
HATCHBACKGROUNDCOLOR
 70
0
  0
APPID
  5
188
330
3
100
AcDbSymbolTableRecord
100
AcDbRegAppTableRecord
  2
EZDXF
 70
0
  0
ENDTAB
  0
TABLE
  2
DIMSTYLE
  5
4
330
0
100
AcDbSymbolTable
 70
3
100
AcDbDimStyleTable
  0
DIMSTYLE
105
2B
330
4
100
AcDbSymbolTableRecord
100
AcDbDimStyleTableRecord
  2
Standard
 70
0
 40
1.0
 41
2.5
 42
0.625
 43
3.75
 44
1.25
 45
0.0
 46
0.0
 47
0.0
 48
0.0
 49
2.5
140
2.5
141
2.5
142
0.0
143
0.03937007874
144
1.0
145
0.0
146
1.0
147
0.625
148
0.0
 69
0
 70
0
 71
0
 72
0
 73
0
 74
0
 75
0
 76
0
 77
1
 78
8
 79
3
170
0
171
3
172
1
173
0
174
0
175
0
176
0
177
0
178
0
179
2
271
2
272
2
273
2
274
3
275
0
276
0
277
2
278
44
279
0
280
0
281
0
282
0
283
0
284
8
285
0
286
0
288
0
289
3
290
0
371
-2
372
-2
  0
DIMSTYLE
105
27
330
4
100
AcDbSymbolTableRecord
100
AcDbDimStyleTableRecord
  2
ISO-25
 70
0
 40
1.0
 41
30.0
 42
0.625
 43
3.75
 44
1.25
 45
0.0
 46
0.0
 47
0.0
 48
0.0
 49
2.5
140
30.0
141
2.5
142
0.0
143
0.03937007874016
144
1.0
145
0.0
146
1.0
147
10.0
148
0.0
 69
0
 70
0
 71
0
 72
0
 73
0
 74
0
 75
0
 76
0
 77
1
 78
8
 79
3
170
0
171
3
172
1
173
0
174
0
175
0
176
0
177
0
178
0
179
2
271
0
272
0
273
2
274
3
275
0
276
0
277
2
278
44
279
0
280
0
281
0
282
0
283
0
284
8
285
0
286
0
288
0
289
3
290
0
340
29
371
-2
372
-2
  0
DIMSTYLE
105
24441B
330
4
100
AcDbSymbolTableRecord
100
AcDbDimStyleTableRecord
  2
100A
 70
0
 40
1.0
 41
30.0
 42
0.625
 43
3.75
 44
1.25
 45
0.0
 46
0.0
 47
0.0
 48
0.0
 49
2.5
140
35.0
141
2.5
142
0.0
143
0.03937007874016
144
1.0
145
0.0
146
1.0
147
10.0
148
0.0
 69
0
 70
0
 71
0
 72
0
 73
0
 74
0
 75
0
 76
0
 77
1
 78
8
 79
3
170
0
171
3
172
1
173
0
174
0
175
0
176
0
177
0
178
0
179
2
271
0
272
0
273
2
274
3
275
0
276
0
277
2
278
44
279
0
280
0
281
0
282
0
283
0
284
8
285
0
286
0
288
0
289
3
290
0
340
29
371
-2
372
-2
  0
ENDTAB
  0
TABLE
  2
BLOCK_RECORD
  5
9
330
0
100
AcDbSymbolTable
 70
23
  0
BLOCK_RECORD
  5
17
330
9
100
AcDbSymbolTableRecord
100
AcDbBlockTableRecord
  2
*Model_Space
340
1A
 70
0
280
1
281
0
  0
BLOCK_RECORD
  5
1B
330
9
100
AcDbSymbolTableRecord
100
AcDbBlockTableRecord
  2
*Paper_Space
340
1E
 70
0
280
1
281
0
  0
BLOCK_RECORD
  5
39
330
9
100
AcDbSymbolTableRecord
100
AcDbBlockTableRecord
  2
*D1
340
0
 70
0
280
1
281
0
  0
BLOCK_RECORD
  5
46
330
9
100
AcDbSymbolTableRecord
100
AcDbBlockTableRecord
  2
*D2
340
0
 70
0
280
1
281
0
  0
BLOCK_RECORD
  5
53
330
9
100
AcDbSymbolTableRecord
100
AcDbBlockTableRecord
  2
*D3
340
0
 70
0
280
1
281
0
  0
BLOCK_RECORD
  5
62
330
9
100
AcDbSymbolTableRecord
100
AcDbBlockTableRecord
  2
*D4
340
0
 70
0
280
1
281
0
  0
BLOCK_RECORD
  5
6F
330
9
100
AcDbSymbolTableRecord
100
AcDbBlockTableRecord
  2
*D5
340
0
 70
0
280
1
281
0
  0
BLOCK_RECORD
  5
7C
330
9
100
AcDbSymbolTableRecord
100
AcDbBlockTableRecord
  2
*D6
340
0
 70
0
280
1
281
0
  0
BLOCK_RECORD
  5
89
330
9
100
AcDbSymbolTableRecord
100
AcDbBlockTableRecord
  2
*D7
340
0
 70
0
280
1
281
0
  0
BLOCK_RECORD
  5
97
330
9
100
AcDbSymbolTableRecord
100
AcDbBlockTableRecord
  2
*D8
340
0
 70
0
280
1
281
0
  0
BLOCK_RECORD
  5
A5
330
9
100
AcDbSymbolTableRecord
100
AcDbBlockTableRecord
  2
*D9
340
0
 70
0
280
1
281
0
  0
BLOCK_RECORD
  5
B2
330
9
100
AcDbSymbolTableRecord
100
AcDbBlockTableRecord
  2
*D10
340
0
 70
0
280
1
281
0
  0
BLOCK_RECORD
  5
BF
330
9
100
AcDbSymbolTableRecord
100
AcDbBlockTableRecord
  2
*D11
340
0
 70
0
280
1
281
0
  0
BLOCK_RECORD
  5
D4
330
9
100
AcDbSymbolTableRecord
100
AcDbBlockTableRecord
  2
*D12
340
0
 70
0
280
1
281
0
  0
BLOCK_RECORD
  5
E2
330
9
100
AcDbSymbolTableRecord
100
AcDbBlockTableRecord
  2
*D13
340
0
 70
0
280
1
281
0
  0
BLOCK_RECORD
  5
113
330
9
100
AcDbSymbolTableRecord
100
AcDbBlockTableRecord
  2
*D14
340
0
 70
0
280
1
281
0
  0
BLOCK_RECORD
  5
120
330
9
100
AcDbSymbolTableRecord
100
AcDbBlockTableRecord
  2
*D15
340
0
 70
0
280
1
281
0
  0
BLOCK_RECORD
  5
132
330
9
100
AcDbSymbolTableRecord
100
AcDbBlockTableRecord
  2
*D16
340
0
 70
0
280
1
281
0
  0
BLOCK_RECORD
  5
140
330
9
100
AcDbSymbolTableRecord
100
AcDbBlockTableRecord
  2
*D17
340
0
 70
0
280
1
281
0
  0
BLOCK_RECORD
  5
14E
330
9
100
AcDbSymbolTableRecord
100
AcDbBlockTableRecord
  2
*D18
340
0
 70
0
280
1
281
0
  0
BLOCK_RECORD
  5
15B
330
9
100
AcDbSymbolTableRecord
100
AcDbBlockTableRecord
  2
*D19
340
0
 70
0
280
1
281
0
  0
BLOCK_RECORD
  5
169
330
9
100
AcDbSymbolTableRecord
100
AcDbBlockTableRecord
  2
*D20
340
0
 70
0
280
1
281
0
  0
BLOCK_RECORD
  5
177
330
9
100
AcDbSymbolTableRecord
100
AcDbBlockTableRecord
  2
*D21
340
0
 70
0
280
1
281
0
  0
ENDTAB
  0
ENDSEC
  0
SECTION
  2
BLOCKS
  0
BLOCK
  5
18
330
17
100
AcDbEntity
  8
0
100
AcDbBlockBegin
  2
*Model_Space
 70
0
 10
0.0
 20
0.0
 30
0.0
  3
*Model_Space
  1

  0
ENDBLK
  5
19
330
17
100
AcDbEntity
  8
0
100
AcDbBlockEnd
  0
BLOCK
  5
1C
330
1B
100
AcDbEntity
  8
0
100
AcDbBlockBegin
  2
*Paper_Space
 70
0
 10
0.0
 20
0.0
 30
0.0
  3
*Paper_Space
  1

  0
ENDBLK
  5
1D
330
1B
100
AcDbEntity
  8
0
100
AcDbBlockEnd
  0
BLOCK
  5
3A
330
39
100
AcDbEntity
  8
0
100
AcDbBlockBegin
  2
*D1
 70
1
 10
0.0
 20
0.0
 30
0.0
  3
*D1
  1

  0
LINE
  5
3C
330
39
100
AcDbEntity
  8
BAR-GAL
 62
0
370
-2
440
16777216
100
AcDbLine
 10
1027120.269429437
 20
63602.92127216514
 30
0.0
 11
1027120.269429437
 21
63929.08233286465
 31
0.0
  0
LINE
  5
3D
330
39
100
AcDbEntity
  8
BAR-GAL
 62
0
370
-2
440
16777216
100
AcDbLine
 10
1027904.264574127
 20
63602.92127216514
 30
0.0
 11
1027904.264574127
 21
63929.08233286465
 31
0.0
  0
LINE
  5
3E
330
39
100
AcDbEntity
  8
BAR-GAL
 62
0
370
-2
440
16777216
100
AcDbLine
 10
1027150.269429437
 20
63927.83233286466
 30
0.0
 11
1027874.264574127
 21
63927.83233286466
 31
0.0
  0
SOLID
  5
3F
330
39
100
AcDbEntity
  8
BAR-GAL
 62
0
370
13
440
16777216
100
AcDbTrace
 10
1027150.269429437
 20
63932.83233286465
 30
0.0
 11
1027150.269429437
 21
63922.83233286466
 31
0.0
 12
1027120.269429437
 22
63927.83233286466
 32
0.0
 13
1027120.269429437
 23
63927.83233286466
 33
0.0
  0
SOLID
  5
40
330
39
100
AcDbEntity
  8
BAR-GAL
 62
0
370
13
440
16777216
100
AcDbTrace
 10
1027874.264574127
 20
63932.83233286465
 30
0.0
 11
1027874.264574127
 21
63922.83233286466
 31
0.0
 12
1027904.264574127
 22
63927.83233286466
 32
0.0
 13
1027904.264574127
 23
63927.83233286466
 33
0.0
  0
MTEXT
  5
41
330
39
100
AcDbEntity
  8
BAR-GAL
 62
0
370
13
440
16777216
100
AcDbMText
 10
1027512.267001782
 20
63953.14952249631
 30
0.0
 40
30.0
 41
0.0
 46
0.0
 71
5
  1
784
  0
POINT
  5
42
330
39
100
AcDbEntity
  8
Defpoints
 62
0
370
13
440
16777216
100
AcDbPoint
 10
1027120.269429437
 20
63602.29627216515
 30
0.0
  0
POINT
  5
43
330
39
100
AcDbEntity
  8
Defpoints
 62
0
370
13
440
16777216
100
AcDbPoint
 10
1027904.264574127
 20
63602.29627216515
 30
0.0
  0
POINT
  5
44
330
39
100
AcDbEntity
  8
Defpoints
 62
0
370
13
440
16777216
100
AcDbPoint
 10
1027904.264574127
 20
63927.83233286466
 30
0.0
  0
ENDBLK
  5
3B
330
39
100
AcDbEntity
  8
0
100
AcDbBlockEnd
  0
BLOCK
  5
47
330
46
100
AcDbEntity
  8
0
100
AcDbBlockBegin
  2
*D2
 70
1
 10
0.0
 20
0.0
 30
0.0
  3
*D2
  1

  0
LINE
  5
49
330
46
100
AcDbEntity
  8
BAR-GAL
 62
0
370
-2
440
16777216
100
AcDbLine
 10
1027120.269429437
 20
63602.92127216514
 30
0.0
 11
1027120.269429437
 21
63929.08233286465
 31
0.0
  0
LINE
  5
4A
330
46
100
AcDbEntity
  8
BAR-GAL
 62
0
370
-2
440
16777216
100
AcDbLine
 10
1026347.279873188
 20
63442.90336895253
 30
0.0
 11
1026347.279873188
 21
63929.08233286465
 31
0.0
  0
LINE
  5
4B
330
46
100
AcDbEntity
  8
BAR-GAL
 62
0
370
-2
440
16777216
100
AcDbLine
 10
1027090.269429437
 20
63927.83233286466
 30
0.0
 11
1026377.279873188
 21
63927.83233286466
 31
0.0
  0
SOLID
  5
4C
330
46
100
AcDbEntity
  8
BAR-GAL
 62
0
370
13
440
16777216
100
AcDbTrace
 10
1027090.269429437
 20
63932.83233286465
 30
0.0
 11
1027090.269429437
 21
63922.83233286466
 31
0.0
 12
1027120.269429437
 22
63927.83233286466
 32
0.0
 13
1027120.269429437
 23
63927.83233286466
 33
0.0
  0
SOLID
  5
4D
330
46
100
AcDbEntity
  8
BAR-GAL
 62
0
370
13
440
16777216
100
AcDbTrace
 10
1026377.279873188
 20
63932.83233286465
 30
0.0
 11
1026377.279873188
 21
63922.83233286466
 31
0.0
 12
1026347.279873188
 22
63927.83233286466
 32
0.0
 13
1026347.279873188
 23
63927.83233286466
 33
0.0
  0
MTEXT
  5
4E
330
46
100
AcDbEntity
  8
BAR-GAL
 62
0
370
13
440
16777216
100
AcDbMText
 10
1026733.774651312
 20
63953.15975441991
 30
0.0
 40
30.0
 41
0.0
 46
0.0
 71
5
  1
773
  0
POINT
  5
4F
330
46
100
AcDbEntity
  8
Defpoints
 62
0
370
13
440
16777216
100
AcDbPoint
 10
1027120.269429437
 20
63602.29627216515
 30
0.0
  0
POINT
  5
50
330
46
100
AcDbEntity
  8
Defpoints
 62
0
370
13
440
16777216
100
AcDbPoint
 10
1026347.279873188
 20
63442.27836895254
 30
0.0
  0
POINT
  5
51
330
46
100
AcDbEntity
  8
Defpoints
 62
0
370
13
440
16777216
100
AcDbPoint
 10
1026347.279873188
 20
63927.83233286466
 30
0.0
  0
ENDBLK
  5
48
330
46
100
AcDbEntity
  8
0
100
AcDbBlockEnd
  0
BLOCK
  5
54
330
53
100
AcDbEntity
  8
0
100
AcDbBlockBegin
  2
*D3
 70
1
 10
0.0
 20
0.0
 30
0.0
  3
*D3
  1

  0
LINE
  5
56
330
53
100
AcDbEntity
  8
BAR-GAL
 62
0
370
-2
440
16777216
100
AcDbLine
 10
1026348.279873188
 20
63442.90336895253
 30
0.0
 11
1026348.279873188
 21
64065.2736157162
 31
0.0
  0
LINE
  5
57
330
53
100
AcDbEntity
  8
BAR-GAL
 62
0
370
-2
440
16777216
100
AcDbLine
 10
1028669.816982737
 20
63601.32028365688
 30
0.0
 11
1028669.816982737
 21
64065.2736157162
 31
0.0
  0
LINE
  5
58
330
53
100
AcDbEntity
  8
BAR-GAL
 62
0
370
-2
440
16777216
100
AcDbLine
 10
1026378.279873188
 20
64064.0236157162
 30
0.0
 11
1028639.816982737
 21
64064.0236157162
 31
0.0
  0
SOLID
  5
59
330
53
100
AcDbEntity
  8
BAR-GAL
 62
0
370
13
440
16777216
100
AcDbTrace
 10
1026378.279873188
 20
64069.0236157162
 30
0.0
 11
1026378.279873188
 21
64059.02361571619
 31
0.0
 12
1026348.279873188
 22
64064.0236157162
 32
0.0
 13
1026348.279873188
 23
64064.0236157162
 33
0.0
  0
SOLID
  5
5A
330
53
100
AcDbEntity
  8
BAR-GAL
 62
0
370
13
440
16777216
100
AcDbTrace
 10
1028639.816982737
 20
64069.0236157162
 30
0.0
 11
1028639.816982737
 21
64059.02361571619
 31
0.0
 12
1028669.816982737
 22
64064.0236157162
 32
0.0
 13
1028669.816982737
 23
64064.0236157162
 33
0.0
  0
MTEXT
  5
5B
330
53
100
AcDbEntity
  8
BAR-GAL
 62
0
370
13
440
16777216
100
AcDbMText
 10
1027509.048427962
 20
64089.35103727145
 30
0.0
 40
30.0
 41
0.0
 46
0.0
 71
5
  1
2322
  0
POINT
  5
5C
330
53
100
AcDbEntity
  8
Defpoints
 62
0
370
13
440
16777216
100
AcDbPoint
 10
1026348.279873188
 20
63442.27836895254
 30
0.0
  0
POINT
  5
5D
330
53
100
AcDbEntity
  8
Defpoints
 62
0
370
13
440
16777216
100
AcDbPoint
 10
1028669.816982737
 20
63600.69528365688
 30
0.0
  0
POINT
  5
5E
330
53
100
AcDbEntity
  8
Defpoints
 62
0
370
13
440
16777216
100
AcDbPoint
 10
1028669.816982737
 20
64064.0236157162
 30
0.0
  0
ENDBLK
  5
55
330
53
100
AcDbEntity
  8
0
100
AcDbBlockEnd
  0
BLOCK
  5
63
330
62
100
AcDbEntity
  8
0
100
AcDbBlockBegin
  2
*D4
 70
1
 10
0.0
 20
0.0
 30
0.0
  3
*D4
  1

  0
LINE
  5
65
330
62
100
AcDbEntity
  8
BAR-GAL
 62
0
370
-2
440
16777216
100
AcDbLine
 10
1026654.644429437
 20
63742.27836895257
 30
0.0
 11
1026582.064959344
 21
63742.27836895257
 31
0.0
  0
LINE
  5
66
330
62
100
AcDbEntity
  8
BAR-GAL
 62
0
370
-2
440
16777216
100
AcDbLine
 10
1026654.644429437
 20
63442.27836895257
 30
0.0
 11
1026582.064959344
 21
63442.27836895257
 31
0.0
  0
LINE
  5
67
330
62
100
AcDbEntity
  8
BAR-GAL
 62
0
370
-2
440
16777216
100
AcDbLine
 10
1026583.314959344
 20
63712.27836895257
 30
0.0
 11
1026583.314959344
 21
63472.27836895257
 31
0.0
  0
SOLID
  5
68
330
62
100
AcDbEntity
  8
BAR-GAL
 62
0
370
13
440
16777216
100
AcDbTrace
 10
1026578.314959344
 20
63712.27836895257
 30
0.0
 11
1026588.314959344
 21
63712.27836895257
 31
0.0
 12
1026583.314959344
 22
63742.27836895257
 32
0.0
 13
1026583.314959344
 23
63742.27836895257
 33
0.0
  0
SOLID
  5
69
330
62
100
AcDbEntity
  8
BAR-GAL
 62
0
370
13
440
16777216
100
AcDbTrace
 10
1026578.314959344
 20
63472.27836895257
 30
0.0
 11
1026588.314959344
 21
63472.27836895257
 31
0.0
 12
1026583.314959344
 22
63442.27836895257
 32
0.0
 13
1026583.314959344
 23
63442.27836895257
 33
0.0
  0
MTEXT
  5
6A
330
62
100
AcDbEntity
  8
BAR-GAL
 62
0
370
13
440
16777216
100
AcDbMText
 10
1026557.987537789
 20
63592.27836895226
 30
0.0
 40
30.0
 41
0.0
 46
0.0
 71
5
  1
300
 11
1e-16
 21
1.0
 31
0.0
  0
POINT
  5
6B
330
62
100
AcDbEntity
  8
Defpoints
 62
0
370
13
440
16777216
100
AcDbPoint
 10
1026655.269429437
 20
63742.27836895257
 30
0.0
  0
POINT
  5
6C
330
62
100
AcDbEntity
  8
Defpoints
 62
0
370
13
440
16777216
100
AcDbPoint
 10
1026655.269429437
 20
63442.27836895257
 30
0.0
  0
POINT
  5
6D
330
62
100
AcDbEntity
  8
Defpoints
 62
0
370
13
440
16777216
100
AcDbPoint
 10
1026583.314959344
 20
63442.27836895257
 30
0.0
  0
ENDBLK
  5
64
330
62
100
AcDbEntity
  8
0
100
AcDbBlockEnd
  0
BLOCK
  5
70
330
6F
100
AcDbEntity
  8
0
100
AcDbBlockBegin
  2
*D5
 70
1
 10
0.0
 20
0.0
 30
0.0
  3
*D5
  1

  0
LINE
  5
72
330
6F
100
AcDbEntity
  8
BAR-GAL
 62
0
370
-2
440
16777216
100
AcDbLine
 10
1026347.654873189
 20
63442.27836895257
 30
0.0
 11
1026198.925374679
 21
63442.27836895257
 31
0.0
  0
LINE
  5
73
330
6F
100
AcDbEntity
  8
BAR-GAL
 62
0
370
-2
440
16777216
100
AcDbLine
 10
1026347.654873189
 20
63602.29627216518
 30
0.0
 11
1026198.925374679
 21
63602.29627216518
 31
0.0
  0
LINE
  5
74
330
6F
100
AcDbEntity
  8
BAR-GAL
 62
0
370
-2
440
16777216
100
AcDbLine
 10
1026200.175374679
 20
63472.27836895257
 30
0.0
 11
1026200.175374679
 21
63572.29627216518
 31
0.0
  0
SOLID
  5
75
330
6F
100
AcDbEntity
  8
BAR-GAL
 62
0
370
13
440
16777216
100
AcDbTrace
 10
1026195.175374678
 20
63472.27836895257
 30
0.0
 11
1026205.175374679
 21
63472.27836895257
 31
0.0
 12
1026200.175374679
 22
63442.27836895257
 32
0.0
 13
1026200.175374679
 23
63442.27836895257
 33
0.0
  0
SOLID
  5
76
330
6F
100
AcDbEntity
  8
BAR-GAL
 62
0
370
13
440
16777216
100
AcDbTrace
 10
1026195.175374678
 20
63572.29627216518
 30
0.0
 11
1026205.175374679
 21
63572.29627216518
 31
0.0
 12
1026200.175374679
 22
63602.29627216518
 32
0.0
 13
1026200.175374679
 23
63602.29627216518
 33
0.0
  0
MTEXT
  5
77
330
6F
100
AcDbEntity
  8
BAR-GAL
 62
0
370
13
440
16777216
100
AcDbMText
 10
1026174.858185047
 20
63522.28732055857
 30
0.0
 40
30.0
 41
0.0
 46
0.0
 71
5
  1
160
 11
1e-16
 21
1.0
 31
0.0
  0
POINT
  5
78
330
6F
100
AcDbEntity
  8
Defpoints
 62
0
370
13
440
16777216
100
AcDbPoint
 10
1026348.279873189
 20
63442.27836895257
 30
0.0
  0
POINT
  5
79
330
6F
100
AcDbEntity
  8
Defpoints
 62
0
370
13
440
16777216
100
AcDbPoint
 10
1026348.279873189
 20
63602.29627216518
 30
0.0
  0
POINT
  5
7A
330
6F
100
AcDbEntity
  8
Defpoints
 62
0
370
13
440
16777216
100
AcDbPoint
 10
1026200.175374679
 20
63602.29627216518
 30
0.0
  0
ENDBLK
  5
71
330
6F
100
AcDbEntity
  8
0
100
AcDbBlockEnd
  0
BLOCK
  5
7D
330
7C
100
AcDbEntity
  8
0
100
AcDbBlockBegin
  2
*D6
 70
1
 10
0.0
 20
0.0
 30
0.0
  3
*D6
  1

  0
LINE
  5
7F
330
7C
100
AcDbEntity
  8
BAR-GAL
 62
0
370
-2
440
16777216
100
AcDbLine
 10
1026346.654873189
 20
63442.27836895258
 30
0.0
 11
1026198.470510423
 21
63442.27836895258
 31
0.0
  0
LINE
  5
80
330
7C
100
AcDbEntity
  8
BAR-GAL
 62
0
370
-2
440
16777216
100
AcDbLine
 10
1026346.654873189
 20
62507.99839626568
 30
0.0
 11
1026198.470510423
 21
62507.99839626568
 31
0.0
  0
LINE
  5
81
330
7C
100
AcDbEntity
  8
BAR-GAL
 62
0
370
-2
440
16777216
100
AcDbLine
 10
1026199.720510423
 20
63412.27836895258
 30
0.0
 11
1026199.720510423
 21
62537.99839626569
 31
0.0
  0
SOLID
  5
82
330
7C
100
AcDbEntity
  8
BAR-GAL
 62
0
370
13
440
16777216
100
AcDbTrace
 10
1026194.720510423
 20
63412.27836895258
 30
0.0
 11
1026204.720510423
 21
63412.27836895258
 31
0.0
 12
1026199.720510423
 22
63442.27836895258
 32
0.0
 13
1026199.720510423
 23
63442.27836895258
 33
0.0
  0
SOLID
  5
83
330
7C
100
AcDbEntity
  8
BAR-GAL
 62
0
370
13
440
16777216
100
AcDbTrace
 10
1026194.720510423
 20
62537.99839626569
 30
0.0
 11
1026204.720510423
 21
62537.99839626569
 31
0.0
 12
1026199.720510423
 22
62507.99839626568
 32
0.0
 13
1026199.720510423
 23
62507.99839626568
 33
0.0
  0
MTEXT
  5
84
330
7C
100
AcDbEntity
  8
BAR-GAL
 62
0
370
13
440
16777216
100
AcDbMText
 10
1026174.393088867
 20
62975.13838260883
 30
0.0
 40
30.0
 41
0.0
 46
0.0
 71
5
  1
934
 11
1e-16
 21
1.0
 31
0.0
  0
POINT
  5
85
330
7C
100
AcDbEntity
  8
Defpoints
 62
0
370
13
440
16777216
100
AcDbPoint
 10
1026347.279873189
 20
63442.27836895258
 30
0.0
  0
POINT
  5
86
330
7C
100
AcDbEntity
  8
Defpoints
 62
0
370
13
440
16777216
100
AcDbPoint
 10
1026347.279873189
 20
62507.99839626568
 30
0.0
  0
POINT
  5
87
330
7C
100
AcDbEntity
  8
Defpoints
 62
0
370
13
440
16777216
100
AcDbPoint
 10
1026199.720510423
 20
62507.99839626568
 30
0.0
  0
ENDBLK
  5
7E
330
7C
100
AcDbEntity
  8
0
100
AcDbBlockEnd
  0
BLOCK
  5
8A
330
89
100
AcDbEntity
  8
0
100
AcDbBlockBegin
  2
*D7
 70
1
 10
0.0
 20
0.0
 30
0.0
  3
*D7
  1

  0
LINE
  5
8C
330
89
100
AcDbEntity
  8
BAR-GAL
 62
0
370
-2
440
16777216
100
AcDbLine
 10
1026834.534158176
 20
62507.99839626568
 30
0.0
 11
1026198.470510424
 21
62507.99839626568
 31
0.0
  0
LINE
  5
8D
330
89
100
AcDbEntity
  8
BAR-GAL
 62
0
370
-2
440
16777216
100
AcDbLine
 10
1026348.553247674
 20
61867.93059333507
 30
0.0
 11
1026198.470510424
 21
61867.93059333507
 31
0.0
  0
LINE
  5
8E
330
89
100
AcDbEntity
  8
BAR-GAL
 62
0
370
-2
440
16777216
100
AcDbLine
 10
1026199.720510424
 20
62477.99839626568
 30
0.0
 11
1026199.720510424
 21
61897.93059333506
 31
0.0
  0
SOLID
  5
8F
330
89
100
AcDbEntity
  8
BAR-GAL
 62
0
370
13
440
16777216
100
AcDbTrace
 10
1026194.720510424
 20
62477.99839626568
 30
0.0
 11
1026204.720510424
 21
62477.99839626568
 31
0.0
 12
1026199.720510424
 22
62507.99839626568
 32
0.0
 13
1026199.720510424
 23
62507.99839626568
 33
0.0
  0
SOLID
  5
90
330
89
100
AcDbEntity
  8
BAR-GAL
 62
0
370
13
440
16777216
100
AcDbTrace
 10
1026194.720510424
 20
61897.93059333506
 30
0.0
 11
1026204.720510424
 21
61897.93059333506
 31
0.0
 12
1026199.720510424
 22
61867.93059333507
 32
0.0
 13
1026199.720510424
 23
61867.93059333507
 33
0.0
  0
MTEXT
  5
91
330
89
100
AcDbEntity
  8
BAR-GAL
 62
0
370
13
440
16777216
100
AcDbMText
 10
1026174.403320792
 20
62187.96449480007
 30
0.0
 40
30.0
 41
0.0
 46
0.0
 71
5
  1
640
 11
1e-16
 21
1.0
 31
0.0
  0
POINT
  5
92
330
89
100
AcDbEntity
  8
Defpoints
 62
0
370
13
440
16777216
100
AcDbPoint
 10
1026835.159158176
 20
62507.99839626568
 30
0.0
  0
POINT
  5
93
330
89
100
AcDbEntity
  8
Defpoints
 62
0
370
13
440
16777216
100
AcDbPoint
 10
1026349.178247674
 20
61867.93059333507
 30
0.0
  0
POINT
  5
94
330
89
100
AcDbEntity
  8
Defpoints
 62
0
370
13
440
16777216
100
AcDbPoint
 10
1026199.720510424
 20
61867.93059333507
 30
0.0
  0
ENDBLK
  5
8B
330
89
100
AcDbEntity
  8
0
100
AcDbBlockEnd
  0
BLOCK
  5
98
330
97
100
AcDbEntity
  8
0
100
AcDbBlockBegin
  2
*D8
 70
1
 10
0.0
 20
0.0
 30
0.0
  3
*D8
  1

  0
LINE
  5
9A
330
97
100
AcDbEntity
  8
BAR-GAL
 62
0
370
-2
440
16777216
100
AcDbLine
 10
1026835.159158176
 20
61867.30559333504
 30
0.0
 11
1026835.159158176
 21
61813.18943020986
 31
0.0
  0
LINE
  5
9B
330
97
100
AcDbEntity
  8
BAR-GAL
 62
0
370
-2
440
16777216
100
AcDbLine
 10
1027175.302451538
 20
61867.24627266527
 30
0.0
 11
1027175.302451538
 21
61813.18943020986
 31
0.0
  0
LINE
  5
9C
330
97
100
AcDbEntity
  8
BAR-GAL
 62
0
370
-2
440
16777216
100
AcDbLine
 10
1026865.159158176
 20
61814.43943020987
 30
0.0
 11
1027145.302451538
 21
61814.43943020987
 31
0.0
  0
SOLID
  5
9D
330
97
100
AcDbEntity
  8
BAR-GAL
 62
0
370
13
440
16777216
100
AcDbTrace
 10
1026865.159158176
 20
61819.43943020987
 30
0.0
 11
1026865.159158176
 21
61809.43943020986
 31
0.0
 12
1026835.159158176
 22
61814.43943020987
 32
0.0
 13
1026835.159158176
 23
61814.43943020987
 33
0.0
  0
SOLID
  5
9E
330
97
100
AcDbEntity
  8
BAR-GAL
 62
0
370
13
440
16777216
100
AcDbTrace
 10
1027145.302451538
 20
61819.43943020987
 30
0.0
 11
1027145.302451538
 21
61809.43943020986
 31
0.0
 12
1027175.302451538
 22
61814.43943020987
 32
0.0
 13
1027175.302451538
 23
61814.43943020987
 33
0.0
  0
MTEXT
  5
9F
330
97
100
AcDbEntity
  8
BAR-GAL
 62
0
370
13
440
16777216
100
AcDbMText
 10
1027005.230804857
 20
61839.76685176512
 30
0.0
 40
30.0
 41
0.0
 46
0.0
 71
5
  1
340
  0
POINT
  5
A0
330
97
100
AcDbEntity
  8
Defpoints
 62
0
370
13
440
16777216
100
AcDbPoint
 10
1026835.159158176
 20
61867.93059333504
 30
0.0
  0
POINT
  5
A1
330
97
100
AcDbEntity
  8
Defpoints
 62
0
370
13
440
16777216
100
AcDbPoint
 10
1027175.302451538
 20
61867.87127266527
 30
0.0
  0
POINT
  5
A2
330
97
100
AcDbEntity
  8
Defpoints
 62
0
370
13
440
16777216
100
AcDbPoint
 10
1027175.302451538
 20
61814.43943020987
 30
0.0
  0
ENDBLK
  5
99
330
97
100
AcDbEntity
  8
0
100
AcDbBlockEnd
  0
BLOCK
  5
A6
330
A5
100
AcDbEntity
  8
0
100
AcDbBlockBegin
  2
*D9
 70
1
 10
0.0
 20
0.0
 30
0.0
  3
*D9
  1

  0
LINE
  5
A8
330
A5
100
AcDbEntity
  8
BAR-GAL
 62
0
370
-2
440
16777216
100
AcDbLine
 10
1026347.302451538
 20
62507.30559333504
 30
0.0
 11
1026347.302451538
 21
62441.70089914876
 31
0.0
  0
LINE
  5
A9
330
A5
100
AcDbEntity
  8
BAR-GAL
 62
0
370
-2
440
16777216
100
AcDbLine
 10
1026835.159158176
 20
62507.37339626565
 30
0.0
 11
1026835.159158176
 21
62441.70089914876
 31
0.0
  0
LINE
  5
AA
330
A5
100
AcDbEntity
  8
BAR-GAL
 62
0
370
-2
440
16777216
100
AcDbLine
 10
1026377.302451538
 20
62442.95089914877
 30
0.0
 11
1026805.159158176
 21
62442.95089914877
 31
0.0
  0
SOLID
  5
AB
330
A5
100
AcDbEntity
  8
BAR-GAL
 62
0
370
13
440
16777216
100
AcDbTrace
 10
1026377.302451538
 20
62447.95089914877
 30
0.0
 11
1026377.302451538
 21
62437.95089914876
 31
0.0
 12
1026347.302451538
 22
62442.95089914877
 32
0.0
 13
1026347.302451538
 23
62442.95089914877
 33
0.0
  0
SOLID
  5
AC
330
A5
100
AcDbEntity
  8
BAR-GAL
 62
0
370
13
440
16777216
100
AcDbTrace
 10
1026805.159158176
 20
62447.95089914877
 30
0.0
 11
1026805.159158176
 21
62437.95089914876
 31
0.0
 12
1026835.159158176
 22
62442.95089914877
 32
0.0
 13
1026835.159158176
 23
62442.95089914877
 33
0.0
  0
MTEXT
  5
AD
330
A5
100
AcDbEntity
  8
BAR-GAL
 62
0
370
13
440
16777216
100
AcDbMText
 10
1026591.230804857
 20
62468.26808878042
 30
0.0
 40
30.0
 41
0.0
 46
0.0
 71
5
  1
488
  0
POINT
  5
AE
330
A5
100
AcDbEntity
  8
Defpoints
 62
0
370
13
440
16777216
100
AcDbPoint
 10
1026347.302451538
 20
62507.93059333504
 30
0.0
  0
POINT
  5
AF
330
A5
100
AcDbEntity
  8
Defpoints
 62
0
370
13
440
16777216
100
AcDbPoint
 10
1026835.159158176
 20
62507.99839626565
 30
0.0
  0
POINT
  5
B0
330
A5
100
AcDbEntity
  8
Defpoints
 62
0
370
13
440
16777216
100
AcDbPoint
 10
1026835.159158176
 20
62442.95089914877
 30
0.0
  0
ENDBLK
  5
A7
330
A5
100
AcDbEntity
  8
0
100
AcDbBlockEnd
  0
BLOCK
  5
B3
330
B2
100
AcDbEntity
  8
0
100
AcDbBlockBegin
  2
*D10
 70
1
 10
0.0
 20
0.0
 30
0.0
  3
*D10
  1

  0
LINE
  5
B5
330
B2
100
AcDbEntity
  8
BAR-GAL
 62
0
370
-2
440
16777216
100
AcDbLine
 10
1026347.654873189
 20
63602.29627216518
 30
0.0
 11
1026014.249021362
 21
63602.29627216518
 31
0.0
  0
LINE
  5
B6
330
B2
100
AcDbEntity
  8
BAR-GAL
 62
0
370
-2
440
16777216
100
AcDbLine
 10
1026372.477239885
 20
60803.48470934766
 30
0.0
 11
1026014.249021362
 21
60803.48470934766
 31
0.0
  0
LINE
  5
B7
330
B2
100
AcDbEntity
  8
BAR-GAL
 62
0
370
-2
440
16777216
100
AcDbLine
 10
1026015.499021362
 20
63572.29627216518
 30
0.0
 11
1026015.499021362
 21
60833.48470934766
 31
0.0
  0
SOLID
  5
B8
330
B2
100
AcDbEntity
  8
BAR-GAL
 62
0
370
13
440
16777216
100
AcDbTrace
 10
1026010.499021362
 20
63572.29627216518
 30
0.0
 11
1026020.499021362
 21
63572.29627216518
 31
0.0
 12
1026015.499021362
 22
63602.29627216518
 32
0.0
 13
1026015.499021362
 23
63602.29627216518
 33
0.0
  0
SOLID
  5
B9
330
B2
100
AcDbEntity
  8
BAR-GAL
 62
0
370
13
440
16777216
100
AcDbTrace
 10
1026010.499021362
 20
60833.48470934766
 30
0.0
 11
1026020.499021362
 21
60833.48470934766
 31
0.0
 12
1026015.499021362
 22
60803.48470934766
 32
0.0
 13
1026015.499021362
 23
60803.48470934766
 33
0.0
  0
MTEXT
  5
BA
330
B2
100
AcDbEntity
  8
BAR-GAL
 62
0
370
13
440
16777216
100
AcDbMText
 10
1025990.18183173
 20
62202.89049075612
 30
0.0
 40
30.0
 41
0.0
 46
0.0
 71
5
  1
2799
 11
1e-16
 21
1.0
 31
0.0
  0
POINT
  5
BB
330
B2
100
AcDbEntity
  8
Defpoints
 62
0
370
13
440
16777216
100
AcDbPoint
 10
1026348.279873189
 20
63602.29627216518
 30
0.0
  0
POINT
  5
BC
330
B2
100
AcDbEntity
  8
Defpoints
 62
0
370
13
440
16777216
100
AcDbPoint
 10
1026373.102239884
 20
60803.48470934766
 30
0.0
  0
POINT
  5
BD
330
B2
100
AcDbEntity
  8
Defpoints
 62
0
370
13
440
16777216
100
AcDbPoint
 10
1026015.499021362
 20
60803.48470934766
 30
0.0
  0
ENDBLK
  5
B4
330
B2
100
AcDbEntity
  8
0
100
AcDbBlockEnd
  0
BLOCK
  5
C0
330
BF
100
AcDbEntity
  8
0
100
AcDbBlockBegin
  2
*D11
 70
1
 10
0.0
 20
0.0
 30
0.0
  3
*D11
  1

  0
LINE
  5
C2
330
BF
100
AcDbEntity
  8
BAR-GAL
 62
0
370
-2
440
16777216
100
AcDbLine
 10
1027904.889574127
 20
63060.27943702232
 30
0.0
 11
1028774.815093989
 21
63060.27943702232
 31
0.0
  0
LINE
  5
C3
330
BF
100
AcDbEntity
  8
BAR-GAL
 62
0
370
-2
440
16777216
100
AcDbLine
 10
1027904.904873189
 20
63602.27836895257
 30
0.0
 11
1028774.815093989
 21
63602.27836895257
 31
0.0
  0
LINE
  5
C4
330
BF
100
AcDbEntity
  8
BAR-GAL
 62
0
370
-2
440
16777216
100
AcDbLine
 10
1028773.565093989
 20
63090.27943702232
 30
0.0
 11
1028773.565093989
 21
63572.27836895257
 31
0.0
  0
SOLID
  5
C5
330
BF
100
AcDbEntity
  8
BAR-GAL
 62
0
370
13
440
16777216
100
AcDbTrace
 10
1028768.565093989
 20
63090.27943702232
 30
0.0
 11
1028778.565093989
 21
63090.27943702232
 31
0.0
 12
1028773.565093989
 22
63060.27943702232
 32
0.0
 13
1028773.565093989
 23
63060.27943702232
 33
0.0
  0
SOLID
  5
C6
330
BF
100
AcDbEntity
  8
BAR-GAL
 62
0
370
13
440
16777216
100
AcDbTrace
 10
1028768.565093989
 20
63572.27836895257
 30
0.0
 11
1028778.565093989
 21
63572.27836895257
 31
0.0
 12
1028773.565093989
 22
63602.27836895257
 32
0.0
 13
1028773.565093989
 23
63602.27836895257
 33
0.0
  0
MTEXT
  5
C7
330
BF
100
AcDbEntity
  8
BAR-GAL
 62
0
370
13
440
16777216
100
AcDbMText
 10
1028748.247904357
 20
63331.27890298714
 30
0.0
 40
30.0
 41
0.0
 46
0.0
 71
5
  1
542
 11
1e-16
 21
1.0
 31
0.0
  0
POINT
  5
C8
330
BF
100
AcDbEntity
  8
Defpoints
 62
0
370
13
440
16777216
100
AcDbPoint
 10
1027904.264574127
 20
63060.27943702232
 30
0.0
  0
POINT
  5
C9
330
BF
100
AcDbEntity
  8
Defpoints
 62
0
370
13
440
16777216
100
AcDbPoint
 10
1027904.279873189
 20
63602.27836895257
 30
0.0
  0
POINT
  5
CA
330
BF
100
AcDbEntity
  8
Defpoints
 62
0
370
13
440
16777216
100
AcDbPoint
 10
1028773.565093989
 20
63602.27836895257
 30
0.0
  0
ENDBLK
  5
C1
330
BF
100
AcDbEntity
  8
0
100
AcDbBlockEnd
  0
BLOCK
  5
D5
330
D4
100
AcDbEntity
  8
0
100
AcDbBlockBegin
  2
*D12
 70
1
 10
0.0
 20
0.0
 30
0.0
  3
*D12
  1

  0
LINE
  5
D7
330
D4
100
AcDbEntity
  8
BAR-GAL
 62
0
370
-2
440
16777216
100
AcDbLine
 10
1027297.219886387
 20
62790.79079314467
 30
0.0
 11
1027297.219886387
 21
62736.1906587851
 31
0.0
  0
LINE
  5
D8
330
D4
100
AcDbEntity
  8
BAR-GAL
 62
0
370
-2
440
16777216
100
AcDbLine
 10
1027677.152712575
 20
62790.15453653155
 30
0.0
 11
1027677.152712575
 21
62736.1906587851
 31
0.0
  0
LINE
  5
D9
330
D4
100
AcDbEntity
  8
BAR-GAL
 62
0
370
-2
440
16777216
100
AcDbLine
 10
1027327.219886387
 20
62737.4406587851
 30
0.0
 11
1027647.152712575
 21
62737.4406587851
 31
0.0
  0
SOLID
  5
DA
330
D4
100
AcDbEntity
  8
BAR-GAL
 62
0
370
13
440
16777216
100
AcDbTrace
 10
1027327.219886387
 20
62742.44065878511
 30
0.0
 11
1027327.219886387
 21
62732.4406587851
 31
0.0
 12
1027297.219886387
 22
62737.4406587851
 32
0.0
 13
1027297.219886387
 23
62737.4406587851
 33
0.0
  0
SOLID
  5
DB
330
D4
100
AcDbEntity
  8
BAR-GAL
 62
0
370
13
440
16777216
100
AcDbTrace
 10
1027647.152712575
 20
62742.44065878511
 30
0.0
 11
1027647.152712575
 21
62732.4406587851
 31
0.0
 12
1027677.152712575
 22
62737.4406587851
 32
0.0
 13
1027677.152712575
 23
62737.4406587851
 33
0.0
  0
MTEXT
  5
DC
330
D4
100
AcDbEntity
  8
BAR-GAL
 62
0
370
13
440
16777216
100
AcDbMText
 10
1027487.186299481
 20
62762.76808034036
 30
0.0
 40
30.0
 41
0.0
 46
0.0
 71
5
  1
380
  0
POINT
  5
DD
330
D4
100
AcDbEntity
  8
Defpoints
 62
0
370
13
440
16777216
100
AcDbPoint
 10
1027297.219886387
 20
62791.41579314466
 30
0.0
  0
POINT
  5
DE
330
D4
100
AcDbEntity
  8
Defpoints
 62
0
370
13
440
16777216
100
AcDbPoint
 10
1027677.152712575
 20
62790.77953653154
 30
0.0
  0
POINT
  5
DF
330
D4
100
AcDbEntity
  8
Defpoints
 62
0
370
13
440
16777216
100
AcDbPoint
 10
1027677.152712575
 20
62737.4406587851
 30
0.0
  0
ENDBLK
  5
D6
330
D4
100
AcDbEntity
  8
0
100
AcDbBlockEnd
  0
BLOCK
  5
E3
330
E2
100
AcDbEntity
  8
0
100
AcDbBlockBegin
  2
*D13
 70
1
 10
0.0
 20
0.0
 30
0.0
  3
*D13
  1

  0
LINE
  5
E5
330
E2
100
AcDbEntity
  8
BAR-GAL
 62
0
370
-2
440
16777216
100
AcDbLine
 10
1027680.558311547
 20
62783.48748277004
 30
0.0
 11
1027649.3690587
 21
62783.48748277004
 31
0.0
  0
LINE
  5
E6
330
E2
100
AcDbEntity
  8
BAR-GAL
 62
0
370
-2
440
16777216
100
AcDbLine
 10
1027677.374535169
 20
62968.15543453082
 30
0.0
 11
1027649.3690587
 21
62968.15543453082
 31
0.0
  0
LINE
  5
E7
330
E2
100
AcDbEntity
  8
BAR-GAL
 62
0
370
-2
440
16777216
100
AcDbLine
 10
1027650.6190587
 20
62813.48748277004
 30
0.0
 11
1027650.6190587
 21
62938.15543453082
 31
0.0
  0
SOLID
  5
E8
330
E2
100
AcDbEntity
  8
BAR-GAL
 62
0
370
13
440
16777216
100
AcDbTrace
 10
1027645.6190587
 20
62813.48748277004
 30
0.0
 11
1027655.6190587
 21
62813.48748277004
 31
0.0
 12
1027650.6190587
 22
62783.48748277004
 32
0.0
 13
1027650.6190587
 23
62783.48748277004
 33
0.0
  0
SOLID
  5
E9
330
E2
100
AcDbEntity
  8
BAR-GAL
 62
0
370
13
440
16777216
100
AcDbTrace
 10
1027645.6190587
 20
62938.15543453082
 30
0.0
 11
1027655.6190587
 21
62938.15543453082
 31
0.0
 12
1027650.6190587
 22
62968.15543453082
 32
0.0
 13
1027650.6190587
 23
62968.15543453082
 33
0.0
  0
MTEXT
  5
EA
330
E2
100
AcDbEntity
  8
BAR-GAL
 62
0
370
13
440
16777216
100
AcDbMText
 10
1027625.301869068
 20
62875.82145865012
 30
0.0
 40
30.0
 41
0.0
 46
0.0
 71
5
  1
185
 11
1e-16
 21
1.0
 31
0.0
  0
POINT
  5
EB
330
E2
100
AcDbEntity
  8
Defpoints
 62
0
370
13
440
16777216
100
AcDbPoint
 10
1027681.183311547
 20
62783.48748277004
 30
0.0
  0
POINT
  5
EC
330
E2
100
AcDbEntity
  8
Defpoints
 62
0
370
13
440
16777216
100
AcDbPoint
 10
1027677.999535169
 20
62968.15543453082
 30
0.0
  0
POINT
  5
ED
330
E2
100
AcDbEntity
  8
Defpoints
 62
0
370
13
440
16777216
100
AcDbPoint
 10
1027650.6190587
 20
62968.15543453082
 30
0.0
  0
ENDBLK
  5
E4
330
E2
100
AcDbEntity
  8
0
100
AcDbBlockEnd
  0
BLOCK
  5
114
330
113
100
AcDbEntity
  8
0
100
AcDbBlockBegin
  2
*D14
 70
1
 10
0.0
 20
0.0
 30
0.0
  3
*D14
  1

  0
LINE
  5
116
330
113
100
AcDbEntity
  8
BAR-GAL
 62
0
370
-2
440
16777216
100
AcDbLine
 10
1027577.873994557
 20
62183.89745008603
 30
0.0
 11
1027632.623192285
 21
62183.89745008603
 31
0.0
  0
LINE
  5
117
330
113
100
AcDbEntity
  8
BAR-GAL
 62
0
370
-2
440
16777216
100
AcDbLine
 10
1027577.873994557
 20
62573.88407898644
 30
0.0
 11
1027632.623192285
 21
62573.88407898644
 31
0.0
  0
LINE
  5
118
330
113
100
AcDbEntity
  8
BAR-GAL
 62
0
370
-2
440
16777216
100
AcDbLine
 10
1027631.373192285
 20
62213.89745008603
 30
0.0
 11
1027631.373192285
 21
62543.88407898644
 31
0.0
  0
SOLID
  5
119
330
113
100
AcDbEntity
  8
BAR-GAL
 62
0
370
13
440
16777216
100
AcDbTrace
 10
1027626.373192285
 20
62213.89745008603
 30
0.0
 11
1027636.373192285
 21
62213.89745008603
 31
0.0
 12
1027631.373192285
 22
62183.89745008603
 32
0.0
 13
1027631.373192285
 23
62183.89745008603
 33
0.0
  0
SOLID
  5
11A
330
113
100
AcDbEntity
  8
BAR-GAL
 62
0
370
13
440
16777216
100
AcDbTrace
 10
1027626.373192285
 20
62543.88407898644
 30
0.0
 11
1027636.373192285
 21
62543.88407898644
 31
0.0
 12
1027631.373192285
 22
62573.88407898644
 32
0.0
 13
1027631.373192285
 23
62573.88407898644
 33
0.0
  0
MTEXT
  5
11B
330
113
100
AcDbEntity
  8
BAR-GAL
 62
0
370
13
440
16777216
100
AcDbMText
 10
1027606.045770729
 20
62378.89076453593
 30
0.0
 40
30.0
 41
0.0
 46
0.0
 71
5
  1
390
 11
1e-16
 21
1.0
 31
0.0
  0
POINT
  5
11C
330
113
100
AcDbEntity
  8
Defpoints
 62
0
370
13
440
16777216
100
AcDbPoint
 10
1027577.248994557
 20
62183.89745008603
 30
0.0
  0
POINT
  5
11D
330
113
100
AcDbEntity
  8
Defpoints
 62
0
370
13
440
16777216
100
AcDbPoint
 10
1027577.248994557
 20
62573.88407898644
 30
0.0
  0
POINT
  5
11E
330
113
100
AcDbEntity
  8
Defpoints
 62
0
370
13
440
16777216
100
AcDbPoint
 10
1027631.373192285
 20
62573.88407898644
 30
0.0
  0
ENDBLK
  5
115
330
113
100
AcDbEntity
  8
0
100
AcDbBlockEnd
  0
BLOCK
  5
121
330
120
100
AcDbEntity
  8
0
100
AcDbBlockBegin
  2
*D15
 70
1
 10
0.0
 20
0.0
 30
0.0
  3
*D15
  1

  0
LINE
  5
123
330
120
100
AcDbEntity
  8
BAR-GAL
 62
0
370
-2
440
16777216
100
AcDbLine
 10
1027296.758300153
 20
62576.46425798956
 30
0.0
 11
1027296.758300153
 21
62679.93020359678
 31
0.0
  0
LINE
  5
124
330
120
100
AcDbEntity
  8
BAR-GAL
 62
0
370
-2
440
16777216
100
AcDbLine
 10
1027577.248994556
 20
62575.50907898641
 30
0.0
 11
1027577.248994556
 21
62679.93020359678
 31
0.0
  0
LINE
  5
125
330
120
100
AcDbEntity
  8
BAR-GAL
 62
0
370
-2
440
16777216
100
AcDbLine
 10
1027326.758300153
 20
62678.68020359678
 30
0.0
 11
1027547.248994556
 21
62678.68020359678
 31
0.0
  0
SOLID
  5
126
330
120
100
AcDbEntity
  8
BAR-GAL
 62
0
370
13
440
16777216
100
AcDbTrace
 10
1027326.758300153
 20
62683.68020359678
 30
0.0
 11
1027326.758300153
 21
62673.68020359678
 31
0.0
 12
1027296.758300153
 22
62678.68020359678
 32
0.0
 13
1027296.758300153
 23
62678.68020359678
 33
0.0
  0
SOLID
  5
127
330
120
100
AcDbEntity
  8
BAR-GAL
 62
0
370
13
440
16777216
100
AcDbTrace
 10
1027547.248994556
 20
62683.68020359678
 30
0.0
 11
1027547.248994556
 21
62673.68020359678
 31
0.0
 12
1027577.248994556
 22
62678.68020359678
 32
0.0
 13
1027577.248994556
 23
62678.68020359678
 33
0.0
  0
MTEXT
  5
128
330
120
100
AcDbEntity
  8
BAR-GAL
 62
0
370
13
440
16777216
100
AcDbMText
 10
1027437.003647355
 20
62703.99739322844
 30
0.0
 40
30.0
 41
0.0
 46
0.0
 71
5
  1
280
  0
POINT
  5
129
330
120
100
AcDbEntity
  8
Defpoints
 62
0
370
13
440
16777216
100
AcDbPoint
 10
1027296.758300153
 20
62575.83925798956
 30
0.0
  0
POINT
  5
12A
330
120
100
AcDbEntity
  8
Defpoints
 62
0
370
13
440
16777216
100
AcDbPoint
 10
1027577.248994556
 20
62574.88407898641
 30
0.0
  0
POINT
  5
12B
330
120
100
AcDbEntity
  8
Defpoints
 62
0
370
13
440
16777216
100
AcDbPoint
 10
1027577.248994556
 20
62678.68020359678
 30
0.0
  0
ENDBLK
  5
122
330
120
100
AcDbEntity
  8
0
100
AcDbBlockEnd
  0
BLOCK
  5
133
330
132
100
AcDbEntity
  8
0
100
AcDbBlockBegin
  2
*D16
 70
1
 10
0.0
 20
0.0
 30
0.0
  3
*D16
  1

  0
LINE
  5
135
330
132
100
AcDbEntity
  8
BAR-GAL
 62
0
370
-2
440
16777216
100
AcDbLine
 10
1027295.315320903
 20
61911.10057374223
 30
0.0
 11
1027295.315320903
 21
61912.00283504442
 31
0.0
  0
LINE
  5
136
330
132
100
AcDbEntity
  8
BAR-GAL
 62
0
370
-2
440
16777216
100
AcDbLine
 10
1027724.90793763
 20
61911.10057374223
 30
0.0
 11
1027724.90793763
 21
61912.00283504442
 31
0.0
  0
LINE
  5
137
330
132
100
AcDbEntity
  8
BAR-GAL
 62
0
370
-2
440
16777216
100
AcDbLine
 10
1027325.315320903
 20
61910.75283504441
 30
0.0
 11
1027694.90793763
 21
61910.75283504441
 31
0.0
  0
SOLID
  5
138
330
132
100
AcDbEntity
  8
BAR-GAL
 62
0
370
13
440
16777216
100
AcDbTrace
 10
1027325.315320903
 20
61915.75283504442
 30
0.0
 11
1027325.315320903
 21
61905.75283504442
 31
0.0
 12
1027295.315320903
 22
61910.75283504441
 32
0.0
 13
1027295.315320903
 23
61910.75283504441
 33
0.0
  0
SOLID
  5
139
330
132
100
AcDbEntity
  8
BAR-GAL
 62
0
370
13
440
16777216
100
AcDbTrace
 10
1027694.90793763
 20
61915.75283504442
 30
0.0
 11
1027694.90793763
 21
61905.75283504442
 31
0.0
 12
1027724.90793763
 22
61910.75283504441
 32
0.0
 13
1027724.90793763
 23
61910.75283504441
 33
0.0
  0
MTEXT
  5
13A
330
132
100
AcDbEntity
  8
BAR-GAL
 62
0
370
13
440
16777216
100
AcDbMText
 10
1027510.111629267
 20
61936.08025659967
 30
0.0
 40
30.0
 41
0.0
 46
0.0
 71
5
  1
430
  0
POINT
  5
13B
330
132
100
AcDbEntity
  8
Defpoints
 62
0
370
13
440
16777216
100
AcDbPoint
 10
1027295.315320903
 20
61910.47557374224
 30
0.0
  0
POINT
  5
13C
330
132
100
AcDbEntity
  8
Defpoints
 62
0
370
13
440
16777216
100
AcDbPoint
 10
1027724.90793763
 20
61910.47557374224
 30
0.0
  0
POINT
  5
13D
330
132
100
AcDbEntity
  8
Defpoints
 62
0
370
13
440
16777216
100
AcDbPoint
 10
1027724.90793763
 20
61910.75283504441
 30
0.0
  0
ENDBLK
  5
134
330
132
100
AcDbEntity
  8
0
100
AcDbBlockEnd
  0
BLOCK
  5
141
330
140
100
AcDbEntity
  8
0
100
AcDbBlockBegin
  2
*D17
 70
1
 10
0.0
 20
0.0
 30
0.0
  3
*D17
  1

  0
LINE
  5
143
330
140
100
AcDbEntity
  8
BAR-GAL
 62
0
370
-2
440
16777216
100
AcDbLine
 10
1027297.219886387
 20
61868.55559333504
 30
0.0
 11
1027297.219886387
 21
61912.32026262513
 31
0.0
  0
LINE
  5
144
330
140
100
AcDbEntity
  8
BAR-GAL
 62
0
370
-2
440
16777216
100
AcDbLine
 10
1026835.159158176
 20
61868.55559333504
 30
0.0
 11
1026835.159158176
 21
61912.32026262513
 31
0.0
  0
LINE
  5
145
330
140
100
AcDbEntity
  8
BAR-GAL
 62
0
370
-2
440
16777216
100
AcDbLine
 10
1027267.219886387
 20
61911.07026262513
 30
0.0
 11
1026865.159158176
 21
61911.07026262513
 31
0.0
  0
SOLID
  5
146
330
140
100
AcDbEntity
  8
BAR-GAL
 62
0
370
13
440
16777216
100
AcDbTrace
 10
1027267.219886387
 20
61916.07026262513
 30
0.0
 11
1027267.219886387
 21
61906.07026262513
 31
0.0
 12
1027297.219886387
 22
61911.07026262513
 32
0.0
 13
1027297.219886387
 23
61911.07026262513
 33
0.0
  0
SOLID
  5
147
330
140
100
AcDbEntity
  8
BAR-GAL
 62
0
370
13
440
16777216
100
AcDbTrace
 10
1026865.159158176
 20
61916.07026262513
 30
0.0
 11
1026865.159158176
 21
61906.07026262513
 31
0.0
 12
1026835.159158176
 22
61911.07026262513
 32
0.0
 13
1026835.159158176
 23
61911.07026262513
 33
0.0
  0
MTEXT
  5
148
330
140
100
AcDbEntity
  8
BAR-GAL
 62
0
370
13
440
16777216
100
AcDbMText
 10
1027066.189522282
 20
61936.38745225678
 30
0.0
 40
30.0
 41
0.0
 46
0.0
 71
5
  1
462
  0
POINT
  5
149
330
140
100
AcDbEntity
  8
Defpoints
 62
0
370
13
440
16777216
100
AcDbPoint
 10
1027297.219886387
 20
61867.93059333504
 30
0.0
  0
POINT
  5
14A
330
140
100
AcDbEntity
  8
Defpoints
 62
0
370
13
440
16777216
100
AcDbPoint
 10
1026835.159158176
 20
61867.93059333504
 30
0.0
  0
POINT
  5
14B
330
140
100
AcDbEntity
  8
Defpoints
 62
0
370
13
440
16777216
100
AcDbPoint
 10
1026835.159158176
 20
61911.07026262513
 30
0.0
  0
ENDBLK
  5
142
330
140
100
AcDbEntity
  8
0
100
AcDbBlockEnd
  0
BLOCK
  5
14F
330
14E
100
AcDbEntity
  8
0
100
AcDbBlockBegin
  2
*D18
 70
1
 10
0.0
 20
0.0
 30
0.0
  3
*D18
  1

  0
LINE
  5
151
330
14E
100
AcDbEntity
  8
BAR-GAL
 62
0
370
-2
440
16777216
100
AcDbLine
 10
1027872.30442657
 20
62970.34412677244
 30
0.0
 11
1027872.30442657
 21
63003.78651931177
 31
0.0
  0
LINE
  5
152
330
14E
100
AcDbEntity
  8
BAR-GAL
 62
0
370
-2
440
16777216
100
AcDbLine
 10
1027296.476317032
 20
62971.74201221899
 30
0.0
 11
1027296.476317032
 21
63003.78651931177
 31
0.0
  0
LINE
  5
153
330
14E
100
AcDbEntity
  8
BAR-GAL
 62
0
370
-2
440
16777216
100
AcDbLine
 10
1027842.30442657
 20
63002.53651931178
 30
0.0
 11
1027326.476317032
 21
63002.53651931178
 31
0.0
  0
SOLID
  5
154
330
14E
100
AcDbEntity
  8
BAR-GAL
 62
0
370
13
440
16777216
100
AcDbTrace
 10
1027842.30442657
 20
63007.53651931177
 30
0.0
 11
1027842.30442657
 21
62997.53651931178
 31
0.0
 12
1027872.30442657
 22
63002.53651931178
 32
0.0
 13
1027872.30442657
 23
63002.53651931178
 33
0.0
  0
SOLID
  5
155
330
14E
100
AcDbEntity
  8
BAR-GAL
 62
0
370
13
440
16777216
100
AcDbTrace
 10
1027326.476317032
 20
63007.53651931177
 30
0.0
 11
1027326.476317032
 21
62997.53651931178
 31
0.0
 12
1027296.476317032
 22
63002.53651931178
 32
0.0
 13
1027296.476317032
 23
63002.53651931178
 33
0.0
  0
MTEXT
  5
156
330
14E
100
AcDbEntity
  8
BAR-GAL
 62
0
370
13
440
16777216
100
AcDbMText
 10
1027584.390371801
 20
63027.85370894342
 30
0.0
 40
30.0
 41
0.0
 46
0.0
 71
5
  1
576
  0
POINT
  5
157
330
14E
100
AcDbEntity
  8
Defpoints
 62
0
370
13
440
16777216
100
AcDbPoint
 10
1027872.30442657
 20
62969.71912677244
 30
0.0
  0
POINT
  5
158
330
14E
100
AcDbEntity
  8
Defpoints
 62
0
370
13
440
16777216
100
AcDbPoint
 10
1027296.476317032
 20
62971.11701221899
 30
0.0
  0
POINT
  5
159
330
14E
100
AcDbEntity
  8
Defpoints
 62
0
370
13
440
16777216
100
AcDbPoint
 10
1027296.476317032
 20
63002.53651931178
 30
0.0
  0
ENDBLK
  5
150
330
14E
100
AcDbEntity
  8
0
100
AcDbBlockEnd
  0
BLOCK
  5
15C
330
15B
100
AcDbEntity
  8
0
100
AcDbBlockBegin
  2
*D19
 70
1
 10
0.0
 20
0.0
 30
0.0
  3
*D19
  1

  0
LINE
  5
15E
330
15B
100
AcDbEntity
  8
BAR-GAL
 62
0
370
-2
440
16777216
100
AcDbLine
 10
1026347.279873188
 20
62633.50748869599
 30
0.0
 11
1026347.279873188
 21
62664.05097416014
 31
0.0
  0
LINE
  5
15F
330
15B
100
AcDbEntity
  8
BAR-GAL
 62
0
370
-2
440
16777216
100
AcDbLine
 10
1026542.324908753
 20
62632.34040389624
 30
0.0
 11
1026542.324908753
 21
62664.05097416014
 31
0.0
  0
LINE
  5
160
330
15B
100
AcDbEntity
  8
BAR-GAL
 62
0
370
-2
440
16777216
100
AcDbLine
 10
1026377.279873188
 20
62662.80097416014
 30
0.0
 11
1026512.324908753
 21
62662.80097416014
 31
0.0
  0
SOLID
  5
161
330
15B
100
AcDbEntity
  8
BAR-GAL
 62
0
370
13
440
16777216
100
AcDbTrace
 10
1026377.279873188
 20
62667.80097416014
 30
0.0
 11
1026377.279873188
 21
62657.80097416014
 31
0.0
 12
1026347.279873188
 22
62662.80097416014
 32
0.0
 13
1026347.279873188
 23
62662.80097416014
 33
0.0
  0
SOLID
  5
162
330
15B
100
AcDbEntity
  8
BAR-GAL
 62
0
370
13
440
16777216
100
AcDbTrace
 10
1026512.324908753
 20
62667.80097416014
 30
0.0
 11
1026512.324908753
 21
62657.80097416014
 31
0.0
 12
1026542.324908753
 22
62662.80097416014
 32
0.0
 13
1026542.324908753
 23
62662.80097416014
 33
0.0
  0
MTEXT
  5
163
330
15B
100
AcDbEntity
  8
BAR-GAL
 62
0
370
13
440
16777216
100
AcDbMText
 10
1026444.802390971
 20
62688.11816379179
 30
0.0
 40
30.0
 41
0.0
 46
0.0
 71
5
  1
195
  0
POINT
  5
164
330
15B
100
AcDbEntity
  8
Defpoints
 62
0
370
13
440
16777216
100
AcDbPoint
 10
1026347.279873188
 20
62632.88248869599
 30
0.0
  0
POINT
  5
165
330
15B
100
AcDbEntity
  8
Defpoints
 62
0
370
13
440
16777216
100
AcDbPoint
 10
1026542.324908753
 20
62631.71540389624
 30
0.0
  0
POINT
  5
166
330
15B
100
AcDbEntity
  8
Defpoints
 62
0
370
13
440
16777216
100
AcDbPoint
 10
1026542.324908753
 20
62662.80097416014
 30
0.0
  0
ENDBLK
  5
15D
330
15B
100
AcDbEntity
  8
0
100
AcDbBlockEnd
  0
BLOCK
  5
16A
330
169
100
AcDbEntity
  8
0
100
AcDbBlockBegin
  2
*D20
 70
1
 10
0.0
 20
0.0
 30
0.0
  3
*D20
  1

  0
LINE
  5
16C
330
169
100
AcDbEntity
  8
BAR-GAL
 62
0
370
-2
440
16777216
100
AcDbLine
 10
1026542.844501646
 20
62630.44921989216
 30
0.0
 11
1026607.025959507
 21
62630.44921989216
 31
0.0
  0
LINE
  5
16D
330
169
100
AcDbEntity
  8
BAR-GAL
 62
0
370
-2
440
16777216
100
AcDbLine
 10
1026542.844501646
 20
62507.93059333507
 30
0.0
 11
1026607.025959507
 21
62507.93059333507
 31
0.0
  0
LINE
  5
16E
330
169
100
AcDbEntity
  8
BAR-GAL
 62
0
370
-2
440
16777216
100
AcDbLine
 10
1026605.775959507
 20
62600.44921989216
 30
0.0
 11
1026605.775959507
 21
62537.93059333506
 31
0.0
  0
SOLID
  5
16F
330
169
100
AcDbEntity
  8
BAR-GAL
 62
0
370
13
440
16777216
100
AcDbTrace
 10
1026600.775959507
 20
62600.44921989216
 30
0.0
 11
1026610.775959507
 21
62600.44921989216
 31
0.0
 12
1026605.775959507
 22
62630.44921989216
 32
0.0
 13
1026605.775959507
 23
62630.44921989216
 33
0.0
  0
SOLID
  5
170
330
169
100
AcDbEntity
  8
BAR-GAL
 62
0
370
13
440
16777216
100
AcDbTrace
 10
1026600.775959507
 20
62537.93059333506
 30
0.0
 11
1026610.775959507
 21
62537.93059333506
 31
0.0
 12
1026605.775959507
 22
62507.93059333507
 32
0.0
 13
1026605.775959507
 23
62507.93059333507
 33
0.0
  0
MTEXT
  5
171
330
169
100
AcDbEntity
  8
BAR-GAL
 62
0
370
13
440
16777216
100
AcDbMText
 10
1026580.448537952
 20
62569.18990661331
 30
0.0
 40
30.0
 41
0.0
 46
0.0
 71
5
  1
123
 11
1e-16
 21
1.0
 31
0.0
  0
POINT
  5
172
330
169
100
AcDbEntity
  8
Defpoints
 62
0
370
13
440
16777216
100
AcDbPoint
 10
1026542.219501646
 20
62630.44921989216
 30
0.0
  0
POINT
  5
173
330
169
100
AcDbEntity
  8
Defpoints
 62
0
370
13
440
16777216
100
AcDbPoint
 10
1026542.219501646
 20
62507.93059333507
 30
0.0
  0
POINT
  5
174
330
169
100
AcDbEntity
  8
Defpoints
 62
0
370
13
440
16777216
100
AcDbPoint
 10
1026605.775959507
 20
62507.93059333507
 30
0.0
  0
ENDBLK
  5
16B
330
169
100
AcDbEntity
  8
0
100
AcDbBlockEnd
  0
BLOCK
  5
178
330
177
100
AcDbEntity
  8
0
100
AcDbBlockBegin
  2
*D21
 70
1
 10
0.0
 20
0.0
 30
0.0
  3
*D21
  1

  0
LINE
  5
17A
330
177
100
AcDbEntity
  8
BAR-GAL
 62
0
370
-2
440
16777216
100
AcDbLine
 10
1027297.219886387
 20
62855.73327927203
 30
0.0
 11
1027297.219886387
 21
63005.03651931177
 31
0.0
  0
LINE
  5
17B
330
177
100
AcDbEntity
  8
BAR-GAL
 62
0
370
-2
440
16777216
100
AcDbLine
 10
1026347.302451538
 20
62905.02344099158
 30
0.0
 11
1026347.302451538
 21
63005.03651931177
 31
0.0
  0
LINE
  5
17C
330
177
100
AcDbEntity
  8
BAR-GAL
 62
0
370
-2
440
16777216
100
AcDbLine
 10
1027267.219886387
 20
63003.78651931177
 30
0.0
 11
1026377.302451538
 21
63003.78651931177
 31
0.0
  0
SOLID
  5
17D
330
177
100
AcDbEntity
  8
BAR-GAL
 62
0
370
13
440
16777216
100
AcDbTrace
 10
1027267.219886387
 20
63008.78651931177
 30
0.0
 11
1027267.219886387
 21
62998.78651931178
 31
0.0
 12
1027297.219886387
 22
63003.78651931177
 32
0.0
 13
1027297.219886387
 23
63003.78651931177
 33
0.0
  0
SOLID
  5
17E
330
177
100
AcDbEntity
  8
BAR-GAL
 62
0
370
13
440
16777216
100
AcDbTrace
 10
1026377.302451538
 20
63008.78651931177
 30
0.0
 11
1026377.302451538
 21
62998.78651931178
 31
0.0
 12
1026347.302451538
 22
63003.78651931177
 32
0.0
 13
1026347.302451538
 23
63003.78651931177
 33
0.0
  0
MTEXT
  5
17F
330
177
100
AcDbEntity
  8
BAR-GAL
 62
0
370
13
440
16777216
100
AcDbMText
 10
1026822.261168963
 20
63029.10370894342
 30
0.0
 40
30.0
 41
0.0
 46
0.0
 71
5
  1
950
  0
POINT
  5
180
330
177
100
AcDbEntity
  8
Defpoints
 62
0
370
13
440
16777216
100
AcDbPoint
 10
1027297.219886387
 20
62855.10827927203
 30
0.0
  0
POINT
  5
181
330
177
100
AcDbEntity
  8
Defpoints
 62
0
370
13
440
16777216
100
AcDbPoint
 10
1026347.302451538
 20
62904.39844099157
 30
0.0
  0
POINT
  5
182
330
177
100
AcDbEntity
  8
Defpoints
 62
0
370
13
440
16777216
100
AcDbPoint
 10
1026347.302451538
 20
63003.78651931177
 30
0.0
  0
ENDBLK
  5
179
330
177
100
AcDbEntity
  8
0
100
AcDbBlockEnd
  0
ENDSEC
  0
SECTION
  2
ENTITIES
  0
LWPOLYLINE
  5
35
330
17
100
AcDbEntity
  8
0
370
13
100
AcDbPolyline
 90
4
 70
1
 43
3.428535235377893
 10
1029820.727907813
 20
60156.51927490788
 10
1024728.515349455
 20
60156.51927490788
 10
1024728.515349455
 20
64272.43997279946
 10
1029823.402960221
 20
64272.43997279946
  0
LWPOLYLINE
  5
36
330
17
100
AcDbEntity
  8
BAR-GAL
 62
7
370
13
100
AcDbPolyline
 90
6
 70
0
 43
15.0
 10
1027110.53466636
 20
61706.83577726297
 10
1027175.302451538
 20
61707.070697838
 10
1027175.302451538
 20
61867.93059333504
 10
1026835.302451538
 20
61867.93059333504
 10
1026835.302451538
 20
62507.93059333504
 10
1026542.219501646
 20
62507.93059333504
  0
LWPOLYLINE
  5
37
330
17
100
AcDbEntity
  8
BAR-GAL
 62
7
370
13
100
AcDbPolyline
 90
3
 70
0
 43
5.0
 10
1026542.219501646
 20
62507.93059333504
 10
1026347.302451538
 20
62507.93059333504
 10
1026347.302451538
 20
62630.34127216336
  0
DIMENSION
  5
38
330
17
100
AcDbEntity
  8
BAR-GAL
 62
7
370
13
100
AcDbDimension
280
0
  2
*D1
  3
ISO-25
 10
1027904.264574127
 20
63927.83233286466
 30
0.0
 11
1027512.267001782
 21
63953.14952249631
 31
0.0
 70
32
 71
5
 42
783.9951446900377
 73
0
 74
0
 75
0
100
AcDbAlignedDimension
 13
1027120.269429437
 23
63602.29627216515
 33
0.0
 14
1027904.264574127
 24
63602.29627216515
 34
0.0
 50
0.0
100
AcDbRotatedDimension
  0
DIMENSION
  5
45
330
17
100
AcDbEntity
  8
BAR-GAL
 62
7
370
13
100
AcDbDimension
280
0
  2
*D2
  3
ISO-25
 10
1026347.279873188
 20
63927.83233286466
 30
0.0
 11
1026733.774651312
 21
63953.15975441991
 31
0.0
 70
32
 71
5
 42
772.9895562484162
 73
0
 74
0
 75
0
100
AcDbAlignedDimension
 13
1027120.269429437
 23
63602.29627216515
 33
0.0
 14
1026347.279873188
 24
63442.27836895254
 34
0.0
 50
0.0
100
AcDbRotatedDimension
  0
DIMENSION
  5
52
330
17
100
AcDbEntity
  8
BAR-GAL
 62
7
370
13
100
AcDbDimension
280
0
  2
*D3
  3
ISO-25
 10
1028669.816982737
 20
64064.0236157162
 30
0.0
 11
1027509.048427962
 21
64089.35103727145
 31
0.0
 70
32
 71
5
 42
2321.537109548226
 73
0
 74
0
 75
0
100
AcDbAlignedDimension
 13
1026348.279873188
 23
63442.27836895254
 33
0.0
 14
1028669.816982737
 24
63600.69528365688
 34
0.0
 50
0.0
100
AcDbRotatedDimension
  0
LWPOLYLINE
  5
5F
330
17
100
AcDbEntity
  8
BAR-GAL
 62
7
370
13
100
AcDbPolyline
 90
4
 70
1
 43
5.0
 10
1027120.269429437
 20
63442.27836895254
 10
1026655.269429437
 20
63442.27836895254
 10
1026655.269429437
 20
63742.27836895253
 10
1027120.269429437
 20
63742.27836895253
  0
DIMENSION
  5
60
102
{ACAD_XDICTIONARY
360
61
102
}
330
17
100
AcDbEntity
  8
BAR-GAL
 62
7
370
13
100
AcDbDimension
280
0
  2
*D4
  3
ISO-25
 10
1026583.314959344
 20
63442.27836895257
 30
0.0
 11
1026557.987537789
 21
63592.27836895226
 31
0.0
 70
32
 71
5
 42
300.0
 73
0
 74
0
 75
0
100
AcDbAlignedDimension
 13
1026655.269429437
 23
63742.27836895253
 33
0.0
 14
1026655.269429437
 24
63442.27836895254
 34
0.0
 50
90.0
100
AcDbRotatedDimension
  0
DIMENSION
  5
6E
330
17
100
AcDbEntity
  8
BAR-GAL
 62
7
370
13
100
AcDbDimension
280
0
  2
*D5
  3
ISO-25
 10
1026200.175374679
 20
63602.29627216518
 30
0.0
 11
1026174.858185047
 21
63522.28732055857
 31
0.0
 70
32
 71
5
 42
160.0179032126107
 73
0
 74
0
 75
0
100
AcDbAlignedDimension
 13
1026348.279873188
 23
63442.27836895254
 33
0.0
 14
1026348.279873188
 24
63602.29627216515
 34
0.0
 50
90.0
100
AcDbRotatedDimension
  0
DIMENSION
  5
7B
330
17
100
AcDbEntity
  8
BAR-GAL
 62
7
370
13
100
AcDbDimension
280
0
  2
*D6
  3
ISO-25
 10
1026199.720510423
 20
62507.99839626568
 30
0.0
 11
1026174.393088867
 21
62975.13838260883
 31
0.0
 70
32
 71
5
 42
934.279972686898
 73
0
 74
0
 75
0
100
AcDbAlignedDimension
 13
1026347.279873188
 23
63442.27836895255
 33
0.0
 14
1026347.279873188
 24
62507.99839626565
 34
0.0
 50
90.0
100
AcDbRotatedDimension
  0
DIMENSION
  5
88
330
17
100
AcDbEntity
  8
BAR-GAL
 62
7
370
13
100
AcDbDimension
280
0
  2
*D7
  3
ISO-25
 10
1026199.720510424
 20
61867.93059333507
 30
0.0
 11
1026174.403320792
 21
62187.96449480007
 31
0.0
 70
32
 71
5
 42
640.0678029306146
 73
0
 74
0
 75
0
100
AcDbAlignedDimension
 13
1026835.159158176
 23
62507.99839626565
 33
0.0
 14
1026349.178247673
 24
61867.93059333504
 34
0.0
 50
90.0
100
AcDbRotatedDimension
  0
DIMENSION
  5
95
102
{ACAD_XDICTIONARY
360
96
102
}
330
17
100
AcDbEntity
  8
BAR-GAL
 62
7
370
13
100
AcDbDimension
280
0
  2
*D8
  3
ISO-25
 10
1027175.302451538
 20
61814.43943020987
 30
0.0
 11
1027005.230804857
 21
61839.76685176512
 31
0.0
 70
32
 71
5
 42
340.1432933624601
 73
0
 74
0
 75
0
100
AcDbAlignedDimension
 13
1026835.159158176
 23
61867.93059333504
 33
0.0
 14
1027175.302451538
 24
61867.87127266527
 34
0.0
 50
0.0
100
AcDbRotatedDimension
  0
DIMENSION
  5
A3
102
{ACAD_XDICTIONARY
360
A4
102
}
330
17
100
AcDbEntity
  8
BAR-GAL
 62
7
370
13
100
AcDbDimension
280
0
  2
*D9
  3
ISO-25
 10
1026835.159158176
 20
62442.95089914877
 30
0.0
 11
1026591.230804857
 21
62468.26808878042
 31
0.0
 70
32
 71
5
 42
487.8567066375398
 73
0
 74
0
 75
0
100
AcDbAlignedDimension
 13
1026347.302451538
 23
62507.93059333504
 33
0.0
 14
1026835.159158176
 24
62507.99839626565
 34
0.0
 50
0.0
100
AcDbRotatedDimension
  0
DIMENSION
  5
B1
330
17
100
AcDbEntity
  8
BAR-GAL
 62
7
370
13
100
AcDbDimension
280
0
  2
*D10
  3
ISO-25
 10
1026015.499021362
 20
60803.48470934766
 30
0.0
 11
1025990.18183173
 21
62202.89049075612
 31
0.0
 70
32
 71
5
 42
2798.811562817515
 73
0
 74
0
 75
0
100
AcDbAlignedDimension
 13
1026348.279873188
 23
63602.29627216515
 33
0.0
 14
1026373.102239884
 24
60803.48470934763
 34
0.0
 50
90.0
100
AcDbRotatedDimension
  0
DIMENSION
  5
BE
330
17
100
AcDbEntity
  8
BAR-GAL
 62
7
370
13
100
AcDbDimension
280
0
  2
*D11
  3
ISO-25
 10
1028773.565093989
 20
63602.27836895257
 30
0.0
 11
1028748.247904357
 21
63331.27890298714
 31
0.0
 70
32
 71
5
 42
541.9989319302476
 73
0
 74
0
 75
0
100
AcDbAlignedDimension
 13
1027904.264574127
 23
63060.27943702229
 33
0.0
 14
1027904.279873188
 24
63602.27836895254
 34
0.0
 50
90.0
100
AcDbRotatedDimension
  0
LWPOLYLINE
  5
CB
330
17
100
AcDbEntity
  8
BAR-GAL
 62
7
370
13
100
AcDbPolyline
 90
4
 70
1
 10
1026347.279873188
 20
62630.34127216336
 10
1026540.315811699
 20
62630.34127216336
 10
1026540.315811699
 20
62507.99839626565
 10
1026347.279873188
 20
62507.99839626565
  0
LWPOLYLINE
  5
CC
330
17
100
AcDbEntity
  8
BAR-GAL
 62
7
370
13
100
AcDbPolyline
 90
7
 70
0
 43
15.0
 10
1027904.279873188
 20
63602.27836895254
 10
1027120.279873188
 20
63602.27836895254
 10
1027120.279873188
 20
63442.27836895254
 10
1026347.302451538
 20
63442.27836895254
 10
1026347.302451538
 20
62630.34127216336
 10
1026542.219501646
 20
62630.34127216336
 10
1026542.219501646
 20
62505.58455959771
  0
LWPOLYLINE
  5
CD
330
17
100
AcDbEntity
  8
BAR-GAL
 62
7
370
13
100
AcDbPolyline
 90
5
 70
0
 43
15.0
 10
1027297.219886387
 20
62969.84957888588
 10
1027297.219886387
 20
62185.00355209878
 10
1027576.823553508
 20
62185.00355209878
 10
1027577.248994556
 20
62574.88407898641
 10
1027297.219886387
 20
62573.61537568002
  0
LWPOLYLINE
  5
CE
330
17
100
AcDbEntity
  8
BAR-GAL
 62
7
370
13
100
AcDbPolyline
 90
3
 70
0
 43
15.0
 10
1027297.219886387
 20
62969.63495340161
 10
1027724.779146591
 20
62969.97879849002
 10
1027725.41042723
 20
62185.00355209878
  0
LWPOLYLINE
  5
CF
330
17
100
AcDbEntity
  8
BAR-GAL
 62
7
370
13
100
AcDbPolyline
 90
2
 70
0
 43
15.0
 10
1027724.780271848
 20
62968.57958126445
 10
1027724.780271848
 20
62969.97879939496
  0
LWPOLYLINE
  5
D0
330
17
100
AcDbEntity
  8
BAR-GAL
 62
7
370
13
100
AcDbPolyline
 90
4
 70
0
 43
15.0
 10
1027902.148798643
 20
63061.38268833555
 10
1027872.30442657
 20
63061.38268833555
 10
1027872.30442657
 20
62969.71912677244
 10
1027725.835868279
 20
62969.84957888588
  0
LWPOLYLINE
  5
D1
330
17
100
AcDbEntity
  8
BAR-GAL
 62
7
370
13
100
AcDbPolyline
 90
3
 70
0
 43
15.0
 10
1027870.824907699
 20
62970.26994004145
 10
1027870.824907699
 20
62789.93373432729
 10
1027724.90793763
 20
62789.93373432729
  0
LWPOLYLINE
  5
D2
330
17
100
AcDbEntity
  8
BAR-GAL
 62
7
370
13
100
AcDbPolyline
 90
2
 70
0
 43
15.0
 10
1027724.923939645
 20
62789.93373432729
 10
1027297.219886387
 20
62789.93373432729
  0
DIMENSION
  5
D3
330
17
100
AcDbEntity
  8
BAR-GAL
 62
7
370
13
100
AcDbDimension
280
0
  2
*D12
  3
ISO-25
 10
1027677.152712575
 20
62737.4406587851
 30
0.0
 11
1027487.186299481
 21
62762.76808034036
 31
0.0
 70
32
 71
5
 42
379.9328261881601
 73
0
 74
0
 75
0
100
AcDbAlignedDimension
 13
1027297.219886387
 23
62791.41579314466
 33
0.0
 14
1027677.152712575
 24
62790.77953653154
 34
0.0
 50
0.0
100
AcDbRotatedDimension
  0
LWPOLYLINE
  5
E0
330
17
100
AcDbEntity
  8
BAR-GAL
 62
7
370
13
100
AcDbPolyline
 90
2
 70
0
 43
15.0
 10
1027677.152712575
 20
62790.77953653154
 10
1027677.152712575
 20
62969.94049709665
  0
DIMENSION
  5
E1
330
17
100
AcDbEntity
  8
BAR-GAL
 62
7
370
13
100
AcDbDimension
280
0
  2
*D13
  3
ISO-25
 10
1027650.6190587
 20
62968.15543453082
 30
0.0
 11
1027625.301869068
 21
62875.82145865012
 31
0.0
 70
32
 71
5
 42
184.6679517607772
 73
0
 74
0
 75
0
100
AcDbAlignedDimension
 13
1027681.183311547
 23
62783.48748277001
 33
0.0
 14
1027677.999535168
 24
62968.15543453079
 34
0.0
 50
90.0
100
AcDbRotatedDimension
  0
LWPOLYLINE
  5
EE
330
17
100
AcDbEntity
  8
BAR-GAL
 62
7
370
13
100
AcDbPolyline
 90
4
 70
1
 43
5.0
 10
1027312.502012814
 20
62945.06451966668
 10
1027465.323276366
 20
62945.06451966668
 10
1027465.323276366
 20
62804.97159074471
 10
1027312.502012814
 20
62804.97159074471
  0
LWPOLYLINE
  5
EF
330
17
100
AcDbEntity
  8
BAR-GAL
 62
7
370
13
100
AcDbPolyline
 90
4
 70
1
 43
5.0
 10
1027483.643155829
 20
62945.06451966668
 10
1027636.464419619
 20
62945.06451966668
 10
1027636.464419619
 20
62804.97159074471
 10
1027483.643155829
 20
62804.97159074471
  0
LINE
  5
F0
330
17
100
AcDbEntity
  8
BAR-GAL
 62
7
370
13
100
AcDbLine
 10
1027312.502012814
 20
62945.06451966668
 30
0.0
 11
1027465.323276366
 21
62804.97159074471
 31
0.0
  0
LINE
  5
F1
330
17
100
AcDbEntity
  8
BAR-GAL
 62
7
370
13
100
AcDbLine
 10
1027465.323276366
 20
62945.06451966668
 30
0.0
 11
1027312.502012814
 21
62804.97159074471
 31
0.0
  0
LINE
  5
F2
330
17
100
AcDbEntity
  8
BAR-GAL
 62
7
370
13
100
AcDbLine
 10
1027483.643155829
 20
62945.06451966668
 30
0.0
 11
1027636.464419619
 21
62804.97159074471
 31
0.0
  0
LINE
  5
F3
330
17
100
AcDbEntity
  8
BAR-GAL
 62
7
370
13
100
AcDbLine
 10
1027636.464419619
 20
62945.06451966668
 30
0.0
 11
1027483.643155829
 21
62804.97159074471
 31
0.0
  0
LWPOLYLINE
  5
F4
330
17
100
AcDbEntity
  8
BAR-GAL
 62
8
370
13
100
AcDbPolyline
 90
4
 70
1
 10
1027721.160214341
 20
62969.21279284532
 10
1027674.880199349
 20
62969.21279284532
 10
1027674.880199349
 20
62785.81841316565
 10
1027693.015086351
 20
62942.99886091929
  0
LWPOLYLINE
  5
F5
330
17
100
AcDbEntity
  8
BAR-GAL
 62
8
370
13
100
AcDbPolyline
 90
4
 70
1
 10
1027870.824907699
 20
62969.21279284532
 10
1027725.682940456
 20
62969.21279284532
 10
1027725.682940456
 20
62785.81841316565
 10
1027747.667308294
 20
62939.18992680106
  0
LWPOLYLINE
  5
F6
330
17
100
AcDbEntity
  8
BAR-GAL
 62
7
370
13
100
AcDbPolyline
 90
4
 70
1
 43
5.0
 10
1027406.598583427
 20
62457.44187544329
 10
1027467.090333668
 20
62457.44187544329
 10
1027467.090333668
 20
62295.06143510191
 10
1027406.598583427
 20
62295.06143510191
  0
LINE
  5
F7
330
17
100
AcDbEntity
  8
BAR-GAL
 62
7
370
13
100
AcDbLine
 10
1027406.598583427
 20
62457.44187544329
 30
0.0
 11
1027406.598583427
 21
62574.88407898641
 31
0.0
  0
LINE
  5
F8
330
17
100
AcDbEntity
  8
BAR-GAL
 62
7
370
13
100
AcDbLine
 10
1027436.598583427
 20
62457.44187544329
 30
0.0
 11
1027436.598583427
 21
62574.88407898641
 31
0.0
  0
LINE
  5
F9
330
17
100
AcDbEntity
  8
BAR-GAL
 62
7
370
13
100
AcDbLine
 10
1027466.598583427
 20
62457.44187544329
 30
0.0
 11
1027466.598583427
 21
62574.88407898641
 31
0.0
  0
LINE
  5
FA
330
17
100
AcDbEntity
  8
BAR-GAL
 62
7
370
13
100
AcDbLine
 10
1027406.598583427
 20
62450.87838619342
 30
0.0
 11
1027297.424208759
 21
62450.87838619342
 31
0.0
  0
LINE
  5
FB
330
17
100
AcDbEntity
  8
BAR-GAL
 62
7
370
13
100
AcDbLine
 10
1027406.598583427
 20
62420.87838619343
 30
0.0
 11
1027297.424208759
 21
62420.87838619343
 31
0.0
  0
LINE
  5
FC
330
17
100
AcDbEntity
  8
BAR-GAL
 62
7
370
13
100
AcDbLine
 10
1027406.598583427
 20
62390.87838619343
 30
0.0
 11
1027297.424208759
 21
62390.87838619343
 31
0.0
  0
LINE
  5
FD
330
17
100
AcDbEntity
  8
BAR-GAL
 62
7
370
13
100
AcDbLine
 10
1027406.598583427
 20
62360.87838619343
 30
0.0
 11
1027297.424208759
 21
62360.87838619343
 31
0.0
  0
LINE
  5
FE
330
17
100
AcDbEntity
  8
BAR-GAL
 62
7
370
13
100
AcDbLine
 10
1027406.598583427
 20
62330.87838619343
 30
0.0
 11
1027297.424208759
 21
62330.87838619343
 31
0.0
  0
LINE
  5
FF
330
17
100
AcDbEntity
  8
BAR-GAL
 62
7
370
13
100
AcDbLine
 10
1027406.598583427
 20
62300.87838619343
 30
0.0
 11
1027297.424208759
 21
62300.87838619343
 31
0.0
  0
LINE
  5
100
330
17
100
AcDbEntity
  8
BAR-GAL
 62
7
370
13
100
AcDbLine
 10
1027406.598583427
 20
62177.6192315588
 30
0.0
 11
1027406.598583427
 21
62295.06143510191
 31
0.0
  0
LINE
  5
101
330
17
100
AcDbEntity
  8
BAR-GAL
 62
7
370
13
100
AcDbLine
 10
1027436.598583427
 20
62177.6192315588
 30
0.0
 11
1027436.598583427
 21
62295.06143510191
 31
0.0
  0
LINE
  5
102
330
17
100
AcDbEntity
  8
BAR-GAL
 62
7
370
13
100
AcDbLine
 10
1027466.598583427
 20
62177.6192315588
 30
0.0
 11
1027466.598583427
 21
62295.06143510191
 31
0.0
  0
LINE
  5
103
330
17
100
AcDbEntity
  8
BAR-GAL
 62
7
370
13
100
AcDbLine
 10
1027577.248994556
 20
62450.87838619342
 30
0.0
 11
1027468.074619888
 21
62450.87838619342
 31
0.0
  0
LINE
  5
104
330
17
100
AcDbEntity
  8
BAR-GAL
 62
7
370
13
100
AcDbLine
 10
1027577.248994556
 20
62420.87838619343
 30
0.0
 11
1027468.074619888
 21
62420.87838619343
 31
0.0
  0
LINE
  5
105
330
17
100
AcDbEntity
  8
BAR-GAL
 62
7
370
13
100
AcDbLine
 10
1027577.248994556
 20
62390.87838619343
 30
0.0
 11
1027468.074619888
 21
62390.87838619343
 31
0.0
  0
LINE
  5
106
330
17
100
AcDbEntity
  8
BAR-GAL
 62
7
370
13
100
AcDbLine
 10
1027577.248994556
 20
62360.87838619343
 30
0.0
 11
1027468.074619888
 21
62360.87838619343
 31
0.0
  0
LINE
  5
107
330
17
100
AcDbEntity
  8
BAR-GAL
 62
7
370
13
100
AcDbLine
 10
1027577.248994556
 20
62330.87838619343
 30
0.0
 11
1027468.074619888
 21
62330.87838619343
 31
0.0
  0
LINE
  5
108
330
17
100
AcDbEntity
  8
BAR-GAL
 62
7
370
13
100
AcDbLine
 10
1027577.248994556
 20
62300.87838619343
 30
0.0
 11
1027468.074619888
 21
62300.87838619343
 31
0.0
  0
LWPOLYLINE
  5
109
330
17
100
AcDbEntity
  8
BAR-GAL
 62
7
370
13
100
AcDbPolyline
 90
4
 70
1
 43
5.0
 10
1027297.898048677
 20
62634.12539618781
 10
1027580.000845678
 20
62634.12539618781
 10
1027580.000845678
 20
62573.88407898639
 10
1027297.898048677
 20
62573.88407898639
  0
LWPOLYLINE
  5
10A
330
17
100
AcDbEntity
  8
BAR-GAL
 62
7
370
13
100
AcDbPolyline
 90
2
 70
0
 43
5.0
 10
1027415.061017446
 20
62634.12539618781
 10
1027415.061017446
 20
62574.8840789864
  0
LWPOLYLINE
  5
10B
330
17
100
AcDbEntity
  8
BAR-GAL
 62
7
370
13
100
AcDbPolyline
 90
2
 70
0
 43
5.0
 10
1027539.885263927
 20
62633.4683947174
 10
1027539.885263927
 20
62573.88407898639
  0
LINE
  5
10C
330
17
100
AcDbEntity
  8
BAR-GAL
 62
7
370
13
100
AcDbLine
 10
1027297.898048677
 20
62634.12539618781
 30
0.0
 11
1027415.061017446
 21
62574.8840789864
 31
0.0
  0
LINE
  5
10D
330
17
100
AcDbEntity
  8
BAR-GAL
 62
7
370
13
100
AcDbLine
 10
1027415.061017446
 20
62574.8840789864
 30
0.0
 11
1027539.885263927
 21
62633.4683947174
 31
0.0
  0
LINE
  5
10E
330
17
100
AcDbEntity
  8
BAR-GAL
 62
7
370
13
100
AcDbLine
 10
1027539.885263927
 20
62633.4683947174
 30
0.0
 11
1027580.000845678
 21
62574.88407898639
 31
0.0
  0
LINE
  5
10F
330
17
100
AcDbEntity
  8
BAR-GAL
 62
7
370
13
100
AcDbLine
 10
1027580.000845678
 20
62634.12539618781
 30
0.0
 11
1027539.885263927
 21
62574.88407898639
 31
0.0
  0
LINE
  5
110
330
17
100
AcDbEntity
  8
BAR-GAL
 62
7
370
13
100
AcDbLine
 10
1027539.885263927
 20
62574.88407898639
 30
0.0
 11
1027415.061017446
 21
62634.12539618781
 31
0.0
  0
LINE
  5
111
330
17
100
AcDbEntity
  8
BAR-GAL
 62
7
370
13
100
AcDbLine
 10
1027415.061017446
 20
62634.12539618781
 30
0.0
 11
1027299.19177366
 21
62573.88407898639
 31
0.0
  0
DIMENSION
  5
112
330
17
100
AcDbEntity
  8
BAR-GAL
 62
7
370
13
100
AcDbDimension
280
0
  2
*D14
  3
ISO-25
 10
1027631.373192285
 20
62573.88407898644
 30
0.0
 11
1027606.045770729
 21
62378.89076453593
 31
0.0
 70
32
 71
5
 42
389.9866289004058
 73
0
 74
0
 75
0
100
AcDbAlignedDimension
 13
1027577.248994556
 23
62183.897450086
 33
0.0
 14
1027577.248994556
 24
62573.88407898641
 34
0.0
 50
90.0
100
AcDbRotatedDimension
  0
DIMENSION
  5
11F
330
17
100
AcDbEntity
  8
BAR-GAL
 62
7
370
13
100
AcDbDimension
280
0
  2
*D15
  3
ISO-25
 10
1027577.248994556
 20
62678.68020359678
 30
0.0
 11
1027437.003647355
 21
62703.99739322844
 31
0.0
 70
32
 71
5
 42
280.4906944036484
 73
0
 74
0
 75
0
100
AcDbAlignedDimension
 13
1027296.758300153
 23
62575.83925798956
 33
0.0
 14
1027577.248994556
 24
62574.88407898641
 34
0.0
 50
0.0
100
AcDbRotatedDimension
  0
LWPOLYLINE
  5
12C
330
17
100
AcDbEntity
  8
BAR-GAL
 62
7
370
13
100
AcDbPolyline
 90
8
 70
1
 10
1027298.848273858
 20
62789.93373432729
 10
1027298.848273858
 20
62639.03565814573
 10
1027579.657345875
 20
62639.03565814574
 10
1027579.657345876
 20
62578.79434094432
 10
1027579.657345876
 20
62188.80771204391
 10
1027724.90793763
 20
62188.80771204392
 10
1027724.90793763
 20
62789.93373432728
 10
1027679.627922639
 20
62789.93373432729
  0
LWPOLYLINE
  5
12D
330
17
100
AcDbEntity
  8
BAR-GAL
 62
7
370
13
100
AcDbPolyline
 90
2
 70
0
 43
15.0
 10
1027577.248994556
 20
62183.897450086
 10
1027727.319197069
 20
62183.897450086
  0
LWPOLYLINE
  5
12E
330
17
100
AcDbEntity
  8
BAR-GAL
 62
7
370
13
100
AcDbPolyline
 90
3
 70
0
 43
15.0
 10
1027297.219886387
 20
62185.00355209878
 10
1027297.219886387
 20
61867.93059333504
 10
1027175.302451538
 20
61867.93059333504
  0
LWPOLYLINE
  5
12F
330
17
100
AcDbEntity
  8
BAR-GAL
 62
7
370
13
100
AcDbPolyline
 90
3
 70
0
 43
15.0
 10
1027724.90793763
 20
62188.80771204392
 10
1027724.90793763
 20
61834.91446299663
 10
1028137.151229473
 20
61834.91446299663
  0
DIMENSION
  5
130
102
{ACAD_XDICTIONARY
360
131
102
}
330
17
100
AcDbEntity
  8
BAR-GAL
 62
7
370
13
100
AcDbDimension
280
0
  2
*D16
  3
ISO-25
 10
1027724.90793763
 20
61910.75283504441
 30
0.0
 11
1027510.111629267
 21
61936.08025659967
 31
0.0
 70
32
 71
5
 42
429.5926167272264
 73
0
 74
0
 75
0
100
AcDbAlignedDimension
 13
1027295.315320903
 23
61910.47557374224
 33
0.0
 14
1027724.90793763
 24
61910.47557374224
 34
0.0
 50
0.0
100
AcDbRotatedDimension
  0
DIMENSION
  5
13E
102
{ACAD_XDICTIONARY
360
13F
102
}
330
17
100
AcDbEntity
  8
BAR-GAL
 62
7
370
13
100
AcDbDimension
280
0
  2
*D17
  3
ISO-25
 10
1026835.159158176
 20
61911.07026262513
 30
0.0
 11
1027066.189522282
 21
61936.38745225678
 31
0.0
 70
32
 71
5
 42
462.0607282115379
 73
0
 74
0
 75
0
100
AcDbAlignedDimension
 13
1027297.219886387
 23
61867.93059333504
 33
0.0
 14
1026835.159158176
 24
61867.93059333504
 34
0.0
 50
0.0
100
AcDbRotatedDimension
  0
DIMENSION
  5
14C
102
{ACAD_XDICTIONARY
360
14D
102
}
330
17
100
AcDbEntity
  8
BAR-GAL
 62
7
370
13
100
AcDbDimension
280
0
  2
*D18
  3
ISO-25
 10
1027296.476317032
 20
63002.53651931178
 30
0.0
 11
1027584.390371801
 21
63027.85370894342
 31
0.0
 70
32
 71
5
 42
575.828109538299
 73
0
 74
0
 75
0
100
AcDbAlignedDimension
 13
1027872.30442657
 23
62969.71912677244
 33
0.0
 14
1027296.476317032
 24
62971.11701221899
 34
0.0
 50
0.0
100
AcDbRotatedDimension
  0
DIMENSION
  5
15A
330
17
100
AcDbEntity
  8
BAR-GAL
 62
7
370
13
100
AcDbDimension
280
0
  2
*D19
  3
ISO-25
 10
1026542.324908753
 20
62662.80097416014
 30
0.0
 11
1026444.802390971
 21
62688.11816379179
 31
0.0
 70
32
 71
5
 42
195.0450355650391
 73
0
 74
0
 75
0
100
AcDbAlignedDimension
 13
1026347.279873188
 23
62632.88248869599
 33
0.0
 14
1026542.324908753
 24
62631.71540389624
 34
0.0
 50
0.0
100
AcDbRotatedDimension
  0
DIMENSION
  5
167
102
{ACAD_XDICTIONARY
360
168
102
}
330
17
100
AcDbEntity
  8
BAR-GAL
 62
7
370
13
100
AcDbDimension
280
0
  2
*D20
  3
ISO-25
 10
1026605.775959507
 20
62507.93059333507
 30
0.0
 11
1026580.448537952
 21
62569.18990661331
 31
0.0
 70
32
 71
5
 42
122.5186265570883
 73
0
 74
0
 75
0
100
AcDbAlignedDimension
 13
1026542.219501646
 23
62630.44921989212
 33
0.0
 14
1026542.219501646
 24
62507.93059333504
 34
0.0
 50
90.0
100
AcDbRotatedDimension
  0
DIMENSION
  5
175
102
{ACAD_XDICTIONARY
360
176
102
}
330
17
100
AcDbEntity
  8
BAR-GAL
 62
7
370
13
100
AcDbDimension
280
0
  2
*D21
  3
ISO-25
 10
1026347.302451538
 20
63003.78651931177
 30
0.0
 11
1026822.261168963
 21
63029.10370894342
 31
0.0
 70
32
 71
5
 42
949.917434849078
 73
0
 74
0
 75
0
100
AcDbAlignedDimension
 13
1027297.219886387
 23
62855.10827927203
 33
0.0
 14
1026347.302451538
 24
62904.39844099157
 34
0.0
 50
0.0
100
AcDbRotatedDimension
  0
TEXT
  5
183
330
17
100
AcDbEntity
  8
0
100
AcDbText
 10
1026715.809197781
 20
62837.98094586186
 30
0.0
 40
59.201694284898
  1
2, 5, 8 דירה
100
AcDbText
  0
LWPOLYLINE
  5
184
330
17
100
AcDbEntity
  8
BAR-GAL
 62
1
370
13
100
AcDbPolyline
 90
20
 70
1
 10
1027902.151229473
 20
63602.27836895254
 10
1027120.279873188
 20
63602.27836895254
 10
1027120.279873188
 20
63442.27836895254
 10
1026347.302451538
 20
63442.27836895253
 10
1026347.302451538
 20
62630.34127216337
 10
1026542.219501646
 20
62630.34127216337
 10
1026542.219501646
 20
62507.93059333504
 10
1026835.302451538
 20
62507.93059333505
 10
1026835.302451538
 20
61867.93059333504
 10
1027175.302451538
 20
61867.93059333504
 10
1027297.219886387
 20
61867.93059333504
 10
1027297.219886387
 20
62185.00355209877
 10
1027297.219886387
 20
62969.63495340161
 10
1027725.682940456
 20
62969.97952532514
 10
1027725.682940456
 20
62969.84971509092
 10
1027870.824907699
 20
62969.72044450482
 10
1027870.824907699
 20
62970.26994004145
 10
1027872.30442657
 20
63061.38268833555
 10
1027902.151229472
 20
63061.38268833555
 10
1027902.151229473
 20
63348.27943702229
  0
MTEXT
  5
185
330
17
100
AcDbEntity
  8
VP
370
13
100
AcDbMText
 10
1027007.138219216
 20
63187.71289529648
 30
0.0
 40
59.201694284898
 41
262.1310489581865
 46
0.0
 71
1
  1
 15674
  0
MTEXT
  5
186
330
17
100
AcDbEntity
  8
VP
370
13
100
AcDbMText
 10
1027907.561370081
 20
62417.36129330177
 30
0.0
 40
59.201694284898
 41
262.1310489581865
 46
0.0
 71
1
  1
  7848
  0
ENDSEC
  0
SECTION
  2
OBJECTS
  0
DICTIONARY
  5
A
330
0
100
AcDbDictionary
281
1
  3
ACAD_COLOR
350
B
  3
ACAD_GROUP
350
C
  3
ACAD_LAYOUT
350
D
  3
ACAD_MATERIAL
350
E
  3
ACAD_MLEADERSTYLE
350
F
  3
ACAD_MLINESTYLE
350
10
  3
ACAD_PLOTSETTINGS
350
11
  3
ACAD_PLOTSTYLENAME
350
12
  3
ACAD_SCALELIST
350
14
  3
ACAD_TABLESTYLE
350
15
  3
ACAD_VISUALSTYLE
350
16
  3
EZDXF_META
350
2D
  0
DICTIONARY
  5
B
330
A
100
AcDbDictionary
281
1
  0
DICTIONARY
  5
C
330
A
100
AcDbDictionary
281
1
  0
DICTIONARY
  5
D
330
A
100
AcDbDictionary
281
1
  3
Model
350
1A
  3
Layout1
350
1E
  0
DICTIONARY
  5
E
330
A
100
AcDbDictionary
281
1
  3
ByBlock
350
1F
  3
ByLayer
350
20
  3
Global
350
21
  0
DICTIONARY
  5
F
330
A
100
AcDbDictionary
281
1
  3
Standard
350
2C
  0
DICTIONARY
  5
10
330
A
100
AcDbDictionary
281
1
  3
Standard
350
22
  0
DICTIONARY
  5
11
330
A
100
AcDbDictionary
281
1
  0
ACDBDICTIONARYWDFLT
  5
12
330
A
100
AcDbDictionary
281
1
  3
Normal
350
13
100
AcDbDictionaryWithDefault
340
13
  0
ACDBPLACEHOLDER
  5
13
330
12
  0
DICTIONARY
  5
14
330
A
100
AcDbDictionary
281
1
  0
DICTIONARY
  5
15
330
A
100
AcDbDictionary
281
1
  0
DICTIONARY
  5
16
330
A
100
AcDbDictionary
281
1
  0
LAYOUT
  5
1A
330
D
100
AcDbPlotSettings
  1

  4
A3
  6

 40
7.5
 41
20.0
 42
7.5
 43
20.0
 44
420.0
 45
297.0
 46
0.0
 47
0.0
 48
0.0
 49
0.0
140
0.0
141
0.0
142
1.0
143
1.0
 70
1024
 72
1
 73
0
 74
5
  7

 75
16
 76
0
 77
2
 78
300
147
1.0
148
0.0
149
0.0
100
AcDbLayout
  1
Model
 70
1
 71
0
 10
0.0
 20
0.0
 11
420.0
 21
297.0
 12
0.0
 22
0.0
 32
0.0
 14
1e+20
 24
1e+20
 34
1e+20
 15
-1e+20
 25
-1e+20
 35
-1e+20
146
0.0
 13
0.0
 23
0.0
 33
0.0
 16
1.0
 26
0.0
 36
0.0
 17
0.0
 27
1.0
 37
0.0
 76
1
330
17
  0
LAYOUT
  5
1E
330
D
100
AcDbPlotSettings
  1

  4
A3
  6

 40
7.5
 41
20.0
 42
7.5
 43
20.0
 44
420.0
 45
297.0
 46
0.0
 47
0.0
 48
0.0
 49
0.0
140
0.0
141
0.0
142
1.0
143
1.0
 70
0
 72
1
 73
0
 74
5
  7

 75
16
 76
0
 77
2
 78
300
147
1.0
148
0.0
149
0.0
100
AcDbLayout
  1
Layout1
 70
1
 71
1
 10
0.0
 20
0.0
 11
420.0
 21
297.0
 12
0.0
 22
0.0
 32
0.0
 14
1e+20
 24
1e+20
 34
1e+20
 15
-1e+20
 25
-1e+20
 35
-1e+20
146
0.0
 13
0.0
 23
0.0
 33
0.0
 16
1.0
 26
0.0
 36
0.0
 17
0.0
 27
1.0
 37
0.0
 76
1
330
1B
  0
MATERIAL
  5
1F
102
{ACAD_REACTORS
330
E
102
}
330
E
100
AcDbMaterial
  1
ByBlock
  2

 70
0
 40
1.0
 71
1
 41
1.0
 91
-1023410177
 42
1.0
 72
1
  3

 73
1
 74
1
 75
1
 44
0.5
 73
0
 45
1.0
 46
1.0
 77
1
  4

 78
1
 79
1
170
1
 48
1.0
171
1
  6

172
1
173
1
174
1
140
1.0
141
1.0
175
1
  7

176
1
177
1
178
1
143
1.0
179
1
  8

270
1
271
1
272
1
145
1.0
146
1.0
273
1
  9

274
1
275
1
276
1
 42
1.0
 72
1
  3

 73
1
 74
1
 75
1
 94
63
  0
MATERIAL
  5
20
102
{ACAD_REACTORS
330
E
102
}
330
E
100
AcDbMaterial
  1
ByLayer
  2

 70
0
 40
1.0
 71
1
 41
1.0
 91
-1023410177
 42
1.0
 72
1
  3

 73
1
 74
1
 75
1
 44
0.5
 73
0
 45
1.0
 46
1.0
 77
1
  4

 78
1
 79
1
170
1
 48
1.0
171
1
  6

172
1
173
1
174
1
140
1.0
141
1.0
175
1
  7

176
1
177
1
178
1
143
1.0
179
1
  8

270
1
271
1
272
1
145
1.0
146
1.0
273
1
  9

274
1
275
1
276
1
 42
1.0
 72
1
  3

 73
1
 74
1
 75
1
 94
63
  0
MATERIAL
  5
21
102
{ACAD_REACTORS
330
E
102
}
330
E
100
AcDbMaterial
  1
Global
  2

 70
0
 40
1.0
 71
1
 41
1.0
 91
-1023410177
 42
1.0
 72
1
  3

 73
1
 74
1
 75
1
 44
0.5
 73
0
 45
1.0
 46
1.0
 77
1
  4

 78
1
 79
1
170
1
 48
1.0
171
1
  6

172
1
173
1
174
1
140
1.0
141
1.0
175
1
  7

176
1
177
1
178
1
143
1.0
179
1
  8

270
1
271
1
272
1
145
1.0
146
1.0
273
1
  9

274
1
275
1
276
1
 42
1.0
 72
1
  3

 73
1
 74
1
 75
1
 94
63
  0
MLINESTYLE
  5
22
102
{ACAD_REACTORS
330
10
102
}
330
10
100
AcDbMlineStyle
  2
Standard
 70
0
  3

 62
256
 51
90.0
 52
90.0
 71
2
 49
0.5
 62
256
  6
BYLAYER
 49
-0.5
 62
256
  6
BYLAYER
  0
MLEADERSTYLE
  5
2C
102
{ACAD_REACTORS
330
F
102
}
330
F
100
AcDbMLeaderStyle
179
2
170
2
171
1
172
0
 90
2
 40
0.0
 41
0.0
173
1
 91
-1056964608
 92
-2
290
1
 42
2.0
291
1
 43
8.0
  3
Standard
 44
4.0
300

342
29
174
1
175
1
176
0
178
1
 93
-1056964608
 45
4.0
292
0
297
0
 46
4.0
 94
-1056964608
 47
1.0
 49
1.0
140
1.0
294
1
141
0.0
177
0
142
1.0
295
0
296
0
143
3.75
271
0
272
9
273
9
  0
DICTIONARY
  5
2D
330
A
100
AcDbDictionary
280
1
281
1
  3
CREATED_BY_EZDXF
350
2E
  3
WRITTEN_BY_EZDXF
350
189
  0
DICTIONARYVAR
  5
2E
330
2D
100
DictionaryVariables
280
0
  1
1.4.3 @ 2026-05-05T23:16:51.021901+00:00
  0
DICTIONARY
  5
61
330
60
100
AcDbDictionary
280
1
281
1
  0
DICTIONARY
  5
96
330
95
100
AcDbDictionary
280
1
281
1
  0
DICTIONARY
  5
A4
330
A3
100
AcDbDictionary
280
1
281
1
  0
DICTIONARY
  5
131
330
130
100
AcDbDictionary
280
1
281
1
  0
DICTIONARY
  5
13F
330
13E
100
AcDbDictionary
280
1
281
1
  0
DICTIONARY
  5
14D
330
14C
100
AcDbDictionary
280
1
281
1
  0
DICTIONARY
  5
168
330
167
100
AcDbDictionary
280
1
281
1
  0
DICTIONARY
  5
176
330
175
100
AcDbDictionary
280
1
281
1
  0
DICTIONARYVAR
  5
189
330
2D
100
DictionaryVariables
280
0
  1
1.4.3 @ 2026-05-05T23:16:51.039305+00:00
  0
ENDSEC
  0
EOF
