  0
SECTION
  2
HEADER
  9
$ACADVER
  1
AC1032
  9
$ACADMAINTVER
 90
4
  9
$DWGCODEPAGE
  3
ANSI_1252
  9
$LASTSAVEDBY
  1
ezdxf
  9
$REQUIREDVERSIONS
160
0
  9
$INSBASE
 10
0.0
 20
0.0
 30
0.0
  9
$EXTMIN
 10
1e+20
 20
1e+20
 30
1e+20
  9
$EXTMAX
 10
-1e+20
 20
-1e+20
 30
-1e+20
  9
$LIMMIN
 10
0.0
 20
0.0
  9
$LIMMAX
 10
420.0
 20
297.0
  9
$ORTHOMODE
 70
0
  9
$REGENMODE
 70
1
  9
$FILLMODE
 70
1
  9
$QTEXTMODE
 70
0
  9
$MIRRTEXT
 70
1
  9
$LTSCALE
 40
1.0
  9
$ATTMODE
 70
1
  9
$TEXTSIZE
 40
2.5
  9
$TRACEWID
 40
1.0
  9
$TEXTSTYLE
  7
Standard
  9
$CLAYER
  8
0
  9
$CELTYPE
  6
ByLayer
  9
$CECOLOR
 62
256
  9
$CELTSCALE
 40
1.0
  9
$DISPSILH
 70
0
  9
$DIMSCALE
 40
1.0
  9
$DIMASZ
 40
2.5
  9
$DIMEXO
 40
0.625
  9
$DIMDLI
 40
3.75
  9
$DIMRND
 40
0.0
  9
$DIMDLE
 40
0.0
  9
$DIMEXE
 40
1.25
  9
$DIMTP
 40
0.0
  9
$DIMTM
 40
0.0
  9
$DIMTXT
 40
2.5
  9
$DIMCEN
 40
2.5
  9
$DIMTSZ
 40
0.0
  9
$DIMTOL
 70
0
  9
$DIMLIM
 70
0
  9
$DIMTIH
 70
0
  9
$DIMTOH
 70
0
  9
$DIMSE1
 70
0
  9
$DIMSE2
 70
0
  9
$DIMTAD
 70
1
  9
$DIMZIN
 70
8
  9
$DIMBLK
  1

  9
$DIMASO
 70
1
  9
$DIMSHO
 70
1
  9
$DIMPOST
  1

  9
$DIMAPOST
  1

  9
$DIMALT
 70
0
  9
$DIMALTD
 70
3
  9
$DIMALTF
 40
0.03937007874
  9
$DIMLFAC
 40
1.0
  9
$DIMTOFL
 70
1
  9
$DIMTVP
 40
0.0
  9
$DIMTIX
 70
0
  9
$DIMSOXD
 70
0
  9
$DIMSAH
 70
0
  9
$DIMBLK1
  1

  9
$DIMBLK2
  1

  9
$DIMSTYLE
  2
ISO-25
  9
$DIMCLRD
 70
0
  9
$DIMCLRE
 70
0
  9
$DIMCLRT
 70
0
  9
$DIMTFAC
 40
1.0
  9
$DIMGAP
 40
0.625
  9
$DIMJUST
 70
0
  9
$DIMSD1
 70
0
  9
$DIMSD2
 70
0
  9
$DIMTOLJ
 70
0
  9
$DIMTZIN
 70
8
  9
$DIMALTZ
 70
0
  9
$DIMALTTZ
 70
0
  9
$DIMUPT
 70
0
  9
$DIMDEC
 70
2
  9
$DIMTDEC
 70
2
  9
$DIMALTU
 70
2
  9
$DIMALTTD
 70
3
  9
$DIMTXSTY
  7
Standard
  9
$DIMAUNIT
 70
0
  9
$DIMADEC
 70
0
  9
$DIMALTRND
 40
0.0
  9
$DIMAZIN
 70
0
  9
$DIMDSEP
 70
44
  9
$DIMATFIT
 70
3
  9
$DIMFRAC
 70
0
  9
$DIMLDRBLK
  1

  9
$DIMLUNIT
 70
2
  9
$DIMLWD
 70
-2
  9
$DIMLWE
 70
-2
  9
$DIMTMOVE
 70
0
  9
$DIMFXL
 40
1.0
  9
$DIMFXLON
 70
0
  9
$DIMJOGANG
 40
0.785398163397
  9
$DIMTFILL
 70
0
  9
$DIMTFILLCLR
 70
0
  9
$DIMARCSYM
 70
0
  9
$DIMLTYPE
  6

  9
$DIMLTEX1
  6

  9
$DIMLTEX2
  6

  9
$DIMTXTDIRECTION
 70
0
  9
$LUNITS
 70
2
  9
$LUPREC
 70
4
  9
$SKETCHINC
 40
1.0
  9
$FILLETRAD
 40
10.0
  9
$AUNITS
 70
0
  9
$AUPREC
 70
2
  9
$MENU
  1
.
  9
$ELEVATION
 40
0.0
  9
$PELEVATION
 40
0.0
  9
$THICKNESS
 40
0.0
  9
$LIMCHECK
 70
0
  9
$CHAMFERA
 40
0.0
  9
$CHAMFERB
 40
0.0
  9
$CHAMFERC
 40
0.0
  9
$CHAMFERD
 40
0.0
  9
$SKPOLY
 70
0
  9
$TDCREATE
 40
2461167.0950347222
  9
$TDUCREATE
 40
2458532.153996898
  9
$TDUPDATE
 40
2461167.0950347222
  9
$TDUUPDATE
 40
2458532.1544311
  9
$TDINDWG
 40
0.0
  9
$TDUSRTIMER
 40
0.0
  9
$USRTIMER
 70
1
  9
$ANGBASE
 50
0.0
  9
$ANGDIR
 70
0
  9
$PDMODE
 70
0
  9
$PDSIZE
 40
0.0
  9
$PLINEWID
 40
0.0
  9
$SPLFRAME
 70
0
  9
$SPLINETYPE
 70
6
  9
$SPLINESEGS
 70
8
  9
$HANDSEED
  5
200
  9
$SURFTAB1
 70
6
  9
$SURFTAB2
 70
6
  9
$SURFTYPE
 70
6
  9
$SURFU
 70
6
  9
$SURFV
 70
6
  9
$UCSBASE
  2

  9
$UCSNAME
  2

  9
$UCSORG
 10
0.0
 20
0.0
 30
0.0
  9
$UCSXDIR
 10
1.0
 20
0.0
 30
0.0
  9
$UCSYDIR
 10
0.0
 20
1.0
 30
0.0
  9
$UCSORTHOREF
  2

  9
$UCSORTHOVIEW
 70
0
  9
$UCSORGTOP
 10
0.0
 20
0.0
 30
0.0
  9
$UCSORGBOTTOM
 10
0.0
 20
0.0
 30
0.0
  9
$UCSORGLEFT
 10
0.0
 20
0.0
 30
0.0
  9
$UCSORGRIGHT
 10
0.0
 20
0.0
 30
0.0
  9
$UCSORGFRONT
 10
0.0
 20
0.0
 30
0.0
  9
$UCSORGBACK
 10
0.0
 20
0.0
 30
0.0
  9
$PUCSBASE
  2

  9
$PUCSNAME
  2

  9
$PUCSORG
 10
0.0
 20
0.0
 30
0.0
  9
$PUCSXDIR
 10
1.0
 20
0.0
 30
0.0
  9
$PUCSYDIR
 10
0.0
 20
1.0
 30
0.0
  9
$PUCSORTHOREF
  2

  9
$PUCSORTHOVIEW
 70
0
  9
$PUCSORGTOP
 10
0.0
 20
0.0
 30
0.0
  9
$PUCSORGBOTTOM
 10
0.0
 20
0.0
 30
0.0
  9
$PUCSORGLEFT
 10
0.0
 20
0.0
 30
0.0
  9
$PUCSORGRIGHT
 10
0.0
 20
0.0
 30
0.0
  9
$PUCSORGFRONT
 10
0.0
 20
0.0
 30
0.0
  9
$PUCSORGBACK
 10
0.0
 20
0.0
 30
0.0
  9
$USERI1
 70
0
  9
$USERI2
 70
0
  9
$USERI3
 70
0
  9
$USERI4
 70
0
  9
$USERI5
 70
0
  9
$USERR1
 40
0.0
  9
$USERR2
 40
0.0
  9
$USERR3
 40
0.0
  9
$USERR4
 40
0.0
  9
$USERR5
 40
0.0
  9
$WORLDVIEW
 70
1
  9
$SHADEDGE
 70
3
  9
$SHADEDIF
 70
70
  9
$TILEMODE
 70
1
  9
$MAXACTVP
 70
64
  9
$PINSBASE
 10
0.0
 20
0.0
 30
0.0
  9
$PLIMCHECK
 70
0
  9
$PEXTMIN
 10
1e+20
 20
1e+20
 30
1e+20
  9
$PEXTMAX
 10
-1e+20
 20
-1e+20
 30
-1e+20
  9
$PLIMMIN
 10
0.0
 20
0.0
  9
$PLIMMAX
 10
420.0
 20
297.0
  9
$UNITMODE
 70
0
  9
$VISRETAIN
 70
1
  9
$PLINEGEN
 70
0
  9
$PSLTSCALE
 70
1
  9
$TREEDEPTH
 70
3020
  9
$CMLSTYLE
  2
Standard
  9
$CMLJUST
 70
0
  9
$CMLSCALE
 40
20.0
  9
$PROXYGRAPHICS
 70
1
  9
$MEASUREMENT
 70
1
  9
$CELWEIGHT
370
-1
  9
$ENDCAPS
280
0
  9
$JOINSTYLE
280
0
  9
$LWDISPLAY
290
0
  9
$INSUNITS
 70
6
  9
$HYPERLINKBASE
  1

  9
$STYLESHEET
  1

  9
$XEDIT
290
1
  9
$CEPSNTYPE
380
0
  9
$PSTYLEMODE
290
1
  9
$FINGERPRINTGUID
  2
{10214B33-7C6B-4F82-B0DF-F68C45504446}
  9
$VERSIONGUID
  2
{3D974D1E-5123-4D52-B4BC-2244F9B729E2}
  9
$EXTNAMES
290
1
  9
$PSVPSCALE
 40
0.0
  9
$OLESTARTUP
290
0
  9
$SORTENTS
280
127
  9
$INDEXCTL
280
0
  9
$HIDETEXT
280
1
  9
$XCLIPFRAME
280
1
  9
$HALOGAP
280
0
  9
$OBSCOLOR
 70
257
  9
$OBSLTYPE
280
0
  9
$INTERSECTIONDISPLAY
280
0
  9
$INTERSECTIONCOLOR
 70
257
  9
$DIMASSOC
280
2
  9
$PROJECTNAME
  1

  9
$CAMERADISPLAY
290
0
  9
$LENSLENGTH
 40
50.0
  9
$CAMERAHEIGHT
 40
0.0
  9
$STEPSPERSEC
 40
24.0
  9
$STEPSIZE
 40
100.0
  9
$3DDWFPREC
 40
2.0
  9
$PSOLWIDTH
 40
0.005
  9
$PSOLHEIGHT
 40
0.08
  9
$LOFTANG1
 40
1.570796326795
  9
$LOFTANG2
 40
1.570796326795
  9
$LOFTMAG1
 40
0.0
  9
$LOFTMAG2
 40
0.0
  9
$LOFTPARAM
 70
7
  9
$LOFTNORMALS
280
1
  9
$LATITUDE
 40
37.795
  9
$LONGITUDE
 40
-122.394
  9
$NORTHDIRECTION
 40
0.0
  9
$TIMEZONE
 70
-8000
  9
$LIGHTGLYPHDISPLAY
280
1
  9
$TILEMODELIGHTSYNCH
280
1
  9
$CMATERIAL
347
20
  9
$SOLIDHIST
280
0
  9
$SHOWHIST
280
1
  9
$DWFFRAME
280
2
  9
$DGNFRAME
280
2
  9
$REALWORLDSCALE
290
1
  9
$INTERFERECOLOR
 62
256
  9
$CSHADOW
280
0
  9
$SHADOWPLANELOCATION
 40
0.0
  0
ENDSEC
  0
SECTION
  2
CLASSES
  0
CLASS
  1
ACDBDICTIONARYWDFLT
  2
AcDbDictionaryWithDefault
  3
ObjectDBX Classes
 90
0
 91
0
280
0
281
0
  0
CLASS
  1
SUN
  2
AcDbSun
  3
SCENEOE
 90
1153
 91
0
280
0
281
0
  0
CLASS
  1
VISUALSTYLE
  2
AcDbVisualStyle
  3
ObjectDBX Classes
 90
4095
 91
0
280
0
281
0
  0
CLASS
  1
MATERIAL
  2
AcDbMaterial
  3
ObjectDBX Classes
 90
1153
 91
0
280
0
281
0
  0
CLASS
  1
SCALE
  2
AcDbScale
  3
ObjectDBX Classes
 90
1153
 91
0
280
0
281
0
  0
CLASS
  1
TABLESTYLE
  2
AcDbTableStyle
  3
ObjectDBX Classes
 90
4095
 91
0
280
0
281
0
  0
CLASS
  1
MLEADERSTYLE
  2
AcDbMLeaderStyle
  3
ACDB_MLEADERSTYLE_CLASS
 90
4095
 91
0
280
0
281
0
  0
CLASS
  1
DICTIONARYVAR
  2
AcDbDictionaryVar
  3
ObjectDBX Classes
 90
0
 91
0
280
0
281
0
  0
CLASS
  1
CELLSTYLEMAP
  2
AcDbCellStyleMap
  3
ObjectDBX Classes
 90
1152
 91
0
280
0
281
0
  0
CLASS
  1
MENTALRAYRENDERSETTINGS
  2
AcDbMentalRayRenderSettings
  3
SCENEOE
 90
1024
 91
0
280
0
281
0
  0
CLASS
  1
ACDBDETAILVIEWSTYLE
  2
AcDbDetailViewStyle
  3
ObjectDBX Classes
 90
1025
 91
0
280
0
281
0
  0
CLASS
  1
ACDBSECTIONVIEWSTYLE
  2
AcDbSectionViewStyle
  3
ObjectDBX Classes
 90
1025
 91
0
280
0
281
0
  0
CLASS
  1
RASTERVARIABLES
  2
AcDbRasterVariables
  3
ISM
 90
0
 91
0
280
0
281
0
  0
CLASS
  1
ACDBPLACEHOLDER
  2
AcDbPlaceHolder
  3
ObjectDBX Classes
 90
0
 91
0
280
0
281
0
  0
CLASS
  1
LAYOUT
  2
AcDbLayout
  3
ObjectDBX Classes
 90
0
 91
0
280
0
281
0
  0
ENDSEC
  0
SECTION
  2
TABLES
  0
TABLE
  2
VPORT
  5
8
330
0
100
AcDbSymbolTable
 70
1
  0
VPORT
  5
23
330
8
100
AcDbSymbolTableRecord
100
AcDbViewportTableRecord
  2
*Active
 70
0
 10
0.0
 20
0.0
 11
1.0
 21
1.0
 12
0.0
 22
0.0
 13
0.0
 23
0.0
 14
0.5
 24
0.5
 15
0.5
 25
0.5
 16
0.0
 26
0.0
 36
1.0
 17
0.0
 27
0.0
 37
0.0
 40
1000.0
 41
1.34
 42
50.0
 43
0.0
 44
0.0
 50
0.0
 51
0.0
 71
0
 72
1000
 73
1
 74
3
 75
0
 76
0
 77
0
 78
0
281
0
 65
0
146
0.0
  0
ENDTAB
  0
TABLE
  2
LTYPE
  5
2
330
0
100
AcDbSymbolTable
 70
3
  0
LTYPE
  5
24
330
2
100
AcDbSymbolTableRecord
100
AcDbLinetypeTableRecord
  2
ByBlock
 70
0
  3

 72
65
 73
0
 40
0.0
  0
LTYPE
  5
25
330
2
100
AcDbSymbolTableRecord
100
AcDbLinetypeTableRecord
  2
ByLayer
 70
0
  3

 72
65
 73
0
 40
0.0
  0
LTYPE
  5
26
330
2
100
AcDbSymbolTableRecord
100
AcDbLinetypeTableRecord
  2
Continuous
 70
0
  3

 72
65
 73
0
 40
0.0
  0
ENDTAB
  0
TABLE
  2
LAYER
  5
1
330
0
100
AcDbSymbolTable
 70
8
  0
LAYER
  5
27
330
1
100
AcDbSymbolTableRecord
100
AcDbLayerTableRecord
  2
0
 70
0
 62
7
  6
Continuous
370
-3
390
13
347
21
  0
LAYER
  5
28
330
1
100
AcDbSymbolTableRecord
100
AcDbLayerTableRecord
  2
Defpoints
 70
0
 62
7
  6
Continuous
290
0
370
-3
390
13
347
21
  0
LAYER
  5
2F
330
1
100
AcDbSymbolTableRecord
100
AcDbLayerTableRecord
  2
MIKRA
 70
0
 62
7
  6
Continuous
370
-3
390
13
347
21
  0
LAYER
  5
30
330
1
100
AcDbSymbolTableRecord
100
AcDbLayerTableRecord
  2
kir
 70
0
 62
7
  6
Continuous
370
-3
390
13
347
21
  0
LAYER
  5
31
330
1
100
AcDbSymbolTableRecord
100
AcDbLayerTableRecord
  2
8
 70
0
 62
7
  6
Continuous
370
-3
390
13
347
21
  0
LAYER
  5
32
330
1
100
AcDbSymbolTableRecord
100
AcDbLayerTableRecord
  2
BAR-GAL
 70
0
 62
7
  6
Continuous
370
-3
390
13
347
21
  0
LAYER
  5
33
330
1
100
AcDbSymbolTableRecord
100
AcDbLayerTableRecord
  2
BAR_GAL
 70
0
 62
7
  6
Continuous
370
-3
390
13
347
21
  0
LAYER
  5
34
330
1
100
AcDbSymbolTableRecord
100
AcDbLayerTableRecord
  2
VP
 70
0
 62
-30
  6
Continuous
370
-3
390
13
347
21
  0
ENDTAB
  0
TABLE
  2
STYLE
  5
5
330
0
100
AcDbSymbolTable
 70
1
  0
STYLE
  5
29
330
5
100
AcDbSymbolTableRecord
100
AcDbTextStyleTableRecord
  2
Standard
 70
0
 40
0.0
 41
1.0
 50
0.0
 71
0
 42
2.5
  3
txt
  4

  0
ENDTAB
  0
TABLE
  2
VIEW
  5
7
330
0
100
AcDbSymbolTable
 70
0
  0
ENDTAB
  0
TABLE
  2
UCS
  5
6
330
0
100
AcDbSymbolTable
 70
0
  0
ENDTAB
  0
TABLE
  2
APPID
  5
3
330
0
100
AcDbSymbolTable
 70
3
  0
APPID
  5
2A
330
3
100
AcDbSymbolTableRecord
100
AcDbRegAppTableRecord
  2
ACAD
 70
0
  0
APPID
  5
1FD
330
3
100
AcDbSymbolTableRecord
100
AcDbRegAppTableRecord
  2
HATCHBACKGROUNDCOLOR
 70
0
  0
APPID
  5
1FE
330
3
100
AcDbSymbolTableRecord
100
AcDbRegAppTableRecord
  2
EZDXF
 70
0
  0
ENDTAB
  0
TABLE
  2
DIMSTYLE
  5
4
330
0
100
AcDbSymbolTable
 70
3
100
AcDbDimStyleTable
  0
DIMSTYLE
105
2B
330
4
100
AcDbSymbolTableRecord
100
AcDbDimStyleTableRecord
  2
Standard
 70
0
 40
1.0
 41
2.5
 42
0.625
 43
3.75
 44
1.25
 45
0.0
 46
0.0
 47
0.0
 48
0.0
 49
2.5
140
2.5
141
2.5
142
0.0
143
0.03937007874
144
1.0
145
0.0
146
1.0
147
0.625
148
0.0
 69
0
 70
0
 71
0
 72
0
 73
0
 74
0
 75
0
 76
0
 77
1
 78
8
 79
3
170
0
171
3
172
1
173
0
174
0
175
0
176
0
177
0
178
0
179
2
271
2
272
2
273
2
274
3
275
0
276
0
277
2
278
44
279
0
280
0
281
0
282
0
283
0
284
8
285
0
286
0
288
0
289
3
290
0
371
-2
372
-2
  0
DIMSTYLE
105
27
330
4
100
AcDbSymbolTableRecord
100
AcDbDimStyleTableRecord
  2
ISO-25
 70
0
 40
1.0
 41
30.0
 42
0.625
 43
3.75
 44
1.25
 45
0.0
 46
0.0
 47
0.0
 48
0.0
 49
2.5
140
30.0
141
2.5
142
0.0
143
0.03937007874016
144
1.0
145
0.0
146
1.0
147
10.0
148
0.0
 69
0
 70
0
 71
0
 72
0
 73
0
 74
0
 75
0
 76
0
 77
1
 78
8
 79
3
170
0
171
3
172
1
173
0
174
0
175
0
176
0
177
0
178
0
179
2
271
0
272
0
273
2
274
3
275
0
276
0
277
2
278
44
279
0
280
0
281
0
282
0
283
0
284
8
285
0
286
0
288
0
289
3
290
0
340
29
371
-2
372
-2
  0
DIMSTYLE
105
24441B
330
4
100
AcDbSymbolTableRecord
100
AcDbDimStyleTableRecord
  2
100A
 70
0
 40
1.0
 41
30.0
 42
0.625
 43
3.75
 44
1.25
 45
0.0
 46
0.0
 47
0.0
 48
0.0
 49
2.5
140
35.0
141
2.5
142
0.0
143
0.03937007874016
144
1.0
145
0.0
146
1.0
147
10.0
148
0.0
 69
0
 70
0
 71
0
 72
0
 73
0
 74
0
 75
0
 76
0
 77
1
 78
8
 79
3
170
0
171
3
172
1
173
0
174
0
175
0
176
0
177
0
178
0
179
2
271
0
272
0
273
2
274
3
275
0
276
0
277
2
278
44
279
0
280
0
281
0
282
0
283
0
284
8
285
0
286
0
288
0
289
3
290
0
340
29
371
-2
372
-2
  0
ENDTAB
  0
TABLE
  2
BLOCK_RECORD
  5
9
330
0
100
AcDbSymbolTable
 70
31
  0
BLOCK_RECORD
  5
17
330
9
100
AcDbSymbolTableRecord
100
AcDbBlockTableRecord
  2
*Model_Space
340
1A
 70
0
280
1
281
0
  0
BLOCK_RECORD
  5
1B
330
9
100
AcDbSymbolTableRecord
100
AcDbBlockTableRecord
  2
*Paper_Space
340
1E
 70
0
280
1
281
0
  0
BLOCK_RECORD
  5
38
330
9
100
AcDbSymbolTableRecord
100
AcDbBlockTableRecord
  2
*D1
340
0
 70
0
280
1
281
0
  0
BLOCK_RECORD
  5
45
330
9
100
AcDbSymbolTableRecord
100
AcDbBlockTableRecord
  2
*D2
340
0
 70
0
280
1
281
0
  0
BLOCK_RECORD
  5
53
330
9
100
AcDbSymbolTableRecord
100
AcDbBlockTableRecord
  2
*D3
340
0
 70
0
280
1
281
0
  0
BLOCK_RECORD
  5
60
330
9
100
AcDbSymbolTableRecord
100
AcDbBlockTableRecord
  2
*D4
340
0
 70
0
280
1
281
0
  0
BLOCK_RECORD
  5
8E
330
9
100
AcDbSymbolTableRecord
100
AcDbBlockTableRecord
  2
*D5
340
0
 70
0
280
1
281
0
  0
BLOCK_RECORD
  5
9B
330
9
100
AcDbSymbolTableRecord
100
AcDbBlockTableRecord
  2
*D6
340
0
 70
0
280
1
281
0
  0
BLOCK_RECORD
  5
AB
330
9
100
AcDbSymbolTableRecord
100
AcDbBlockTableRecord
  2
*D7
340
0
 70
0
280
1
281
0
  0
BLOCK_RECORD
  5
B8
330
9
100
AcDbSymbolTableRecord
100
AcDbBlockTableRecord
  2
*D8
340
0
 70
0
280
1
281
0
  0
BLOCK_RECORD
  5
C5
330
9
100
AcDbSymbolTableRecord
100
AcDbBlockTableRecord
  2
*D9
340
0
 70
0
280
1
281
0
  0
BLOCK_RECORD
  5
D2
330
9
100
AcDbSymbolTableRecord
100
AcDbBlockTableRecord
  2
*D10
340
0
 70
0
280
1
281
0
  0
BLOCK_RECORD
  5
E0
330
9
100
AcDbSymbolTableRecord
100
AcDbBlockTableRecord
  2
*D11
340
0
 70
0
280
1
281
0
  0
BLOCK_RECORD
  5
ED
330
9
100
AcDbSymbolTableRecord
100
AcDbBlockTableRecord
  2
*D12
340
0
 70
0
280
1
281
0
  0
BLOCK_RECORD
  5
FA
330
9
100
AcDbSymbolTableRecord
100
AcDbBlockTableRecord
  2
*D13
340
0
 70
0
280
1
281
0
  0
BLOCK_RECORD
  5
10A
330
9
100
AcDbSymbolTableRecord
100
AcDbBlockTableRecord
  2
*D14
340
0
 70
0
280
1
281
0
  0
BLOCK_RECORD
  5
117
330
9
100
AcDbSymbolTableRecord
100
AcDbBlockTableRecord
  2
*D15
340
0
 70
0
280
1
281
0
  0
BLOCK_RECORD
  5
125
330
9
100
AcDbSymbolTableRecord
100
AcDbBlockTableRecord
  2
*D16
340
0
 70
0
280
1
281
0
  0
BLOCK_RECORD
  5
132
330
9
100
AcDbSymbolTableRecord
100
AcDbBlockTableRecord
  2
*D17
340
0
 70
0
280
1
281
0
  0
BLOCK_RECORD
  5
142
330
9
100
AcDbSymbolTableRecord
100
AcDbBlockTableRecord
  2
*D18
340
0
 70
0
280
1
281
0
  0
BLOCK_RECORD
  5
14F
330
9
100
AcDbSymbolTableRecord
100
AcDbBlockTableRecord
  2
*D19
340
0
 70
0
280
1
281
0
  0
BLOCK_RECORD
  5
15C
330
9
100
AcDbSymbolTableRecord
100
AcDbBlockTableRecord
  2
*D20
340
0
 70
0
280
1
281
0
  0
BLOCK_RECORD
  5
16B
330
9
100
AcDbSymbolTableRecord
100
AcDbBlockTableRecord
  2
*D21
340
0
 70
0
280
1
281
0
  0
BLOCK_RECORD
  5
179
330
9
100
AcDbSymbolTableRecord
100
AcDbBlockTableRecord
  2
*D22
340
0
 70
0
280
1
281
0
  0
BLOCK_RECORD
  5
186
330
9
100
AcDbSymbolTableRecord
100
AcDbBlockTableRecord
  2
*D23
340
0
 70
0
280
1
281
0
  0
BLOCK_RECORD
  5
1A5
330
9
100
AcDbSymbolTableRecord
100
AcDbBlockTableRecord
  2
*D24
340
0
 70
0
280
1
281
0
  0
BLOCK_RECORD
  5
1B2
330
9
100
AcDbSymbolTableRecord
100
AcDbBlockTableRecord
  2
*D25
340
0
 70
0
280
1
281
0
  0
BLOCK_RECORD
  5
1C0
330
9
100
AcDbSymbolTableRecord
100
AcDbBlockTableRecord
  2
*D26
340
0
 70
0
280
1
281
0
  0
BLOCK_RECORD
  5
1CD
330
9
100
AcDbSymbolTableRecord
100
AcDbBlockTableRecord
  2
*D27
340
0
 70
0
280
1
281
0
  0
BLOCK_RECORD
  5
1DC
330
9
100
AcDbSymbolTableRecord
100
AcDbBlockTableRecord
  2
*D28
340
0
 70
0
280
1
281
0
  0
BLOCK_RECORD
  5
1EA
330
9
100
AcDbSymbolTableRecord
100
AcDbBlockTableRecord
  2
*D29
340
0
 70
0
280
1
281
0
  0
ENDTAB
  0
ENDSEC
  0
SECTION
  2
BLOCKS
  0
BLOCK
  5
18
330
17
100
AcDbEntity
  8
0
100
AcDbBlockBegin
  2
*Model_Space
 70
0
 10
0.0
 20
0.0
 30
0.0
  3
*Model_Space
  1

  0
ENDBLK
  5
19
330
17
100
AcDbEntity
  8
0
100
AcDbBlockEnd
  0
BLOCK
  5
1C
330
1B
100
AcDbEntity
  8
0
100
AcDbBlockBegin
  2
*Paper_Space
 70
0
 10
0.0
 20
0.0
 30
0.0
  3
*Paper_Space
  1

  0
ENDBLK
  5
1D
330
1B
100
AcDbEntity
  8
0
100
AcDbBlockEnd
  0
BLOCK
  5
39
330
38
100
AcDbEntity
  8
0
100
AcDbBlockBegin
  2
*D1
 70
1
 10
0.0
 20
0.0
 30
0.0
  3
*D1
  1

  0
LINE
  5
3B
330
38
100
AcDbEntity
  8
BAR-GAL
 62
0
370
-2
440
16777216
100
AcDbLine
 10
1042110.028262575
 20
59690.64053567437
 30
0.0
 11
1042110.028262575
 21
59454.00592877517
 31
0.0
  0
LINE
  5
3C
330
38
100
AcDbEntity
  8
BAR-GAL
 62
0
370
-2
440
16777216
100
AcDbLine
 10
1044443.676391407
 20
59712.44405244076
 30
0.0
 11
1044443.676391407
 21
59454.00592877517
 31
0.0
  0
LINE
  5
3D
330
38
100
AcDbEntity
  8
BAR-GAL
 62
0
370
-2
440
16777216
100
AcDbLine
 10
1042145.028262575
 20
59455.25592877516
 30
0.0
 11
1044408.676391407
 21
59455.25592877516
 31
0.0
  0
SOLID
  5
3E
330
38
100
AcDbEntity
  8
BAR-GAL
 62
0
370
13
440
16777216
100
AcDbTrace
 10
1042145.028262575
 20
59461.08926210849
 30
0.0
 11
1042145.028262575
 21
59449.42259544182
 31
0.0
 12
1042110.028262575
 22
59455.25592877516
 32
0.0
 13
1042110.028262575
 23
59455.25592877516
 33
0.0
  0
SOLID
  5
3F
330
38
100
AcDbEntity
  8
BAR-GAL
 62
0
370
13
440
16777216
100
AcDbTrace
 10
1044408.676391407
 20
59461.08926210849
 30
0.0
 11
1044408.676391407
 21
59449.42259544182
 31
0.0
 12
1044443.676391407
 22
59455.25592877516
 32
0.0
 13
1044443.676391407
 23
59455.25592877516
 33
0.0
  0
MTEXT
  5
40
330
38
100
AcDbEntity
  8
BAR-GAL
 62
0
370
13
440
16777216
100
AcDbMText
 10
1043276.85232699
 20
59483.13792058962
 30
0.0
 40
35.0
 41
0.0
 46
0.0
 71
5
  1
2334
  0
POINT
  5
41
330
38
100
AcDbEntity
  8
Defpoints
 62
0
370
13
440
16777216
100
AcDbPoint
 10
1042110.028262575
 20
59691.26553567438
 30
0.0
  0
POINT
  5
42
330
38
100
AcDbEntity
  8
Defpoints
 62
0
370
13
440
16777216
100
AcDbPoint
 10
1044443.676391407
 20
59713.06905244075
 30
0.0
  0
POINT
  5
43
330
38
100
AcDbEntity
  8
Defpoints
 62
0
370
13
440
16777216
100
AcDbPoint
 10
1044443.676391407
 20
59455.25592877516
 30
0.0
  0
ENDBLK
  5
3A
330
38
100
AcDbEntity
  8
0
100
AcDbBlockEnd
  0
BLOCK
  5
46
330
45
100
AcDbEntity
  8
0
100
AcDbBlockBegin
  2
*D2
 70
1
 10
0.0
 20
0.0
 30
0.0
  3
*D2
  1

  0
LINE
  5
48
330
45
100
AcDbEntity
  8
BAR-GAL
 62
0
370
-2
440
16777216
100
AcDbLine
 10
1042109.403262575
 20
59637.05863240997
 30
0.0
 11
1041897.022348582
 21
59637.05863240997
 31
0.0
  0
LINE
  5
49
330
45
100
AcDbEntity
  8
BAR-GAL
 62
0
370
-2
440
16777216
100
AcDbLine
 10
1042109.403262575
 20
64041.68802994154
 30
0.0
 11
1041897.022348582
 21
64041.68802994154
 31
0.0
  0
LINE
  5
4A
330
45
100
AcDbEntity
  8
BAR-GAL
 62
0
370
-2
440
16777216
100
AcDbLine
 10
1041898.272348582
 20
59672.05863240998
 30
0.0
 11
1041898.272348582
 21
64006.68802994153
 31
0.0
  0
SOLID
  5
4B
330
45
100
AcDbEntity
  8
BAR-GAL
 62
0
370
13
440
16777216
100
AcDbTrace
 10
1041892.439015249
 20
59672.05863240998
 30
0.0
 11
1041904.105681915
 21
59672.05863240998
 31
0.0
 12
1041898.272348582
 22
59637.05863240997
 32
0.0
 13
1041898.272348582
 23
59637.05863240997
 33
0.0
  0
SOLID
  5
4C
330
45
100
AcDbEntity
  8
BAR-GAL
 62
0
370
13
440
16777216
100
AcDbTrace
 10
1041892.439015249
 20
64006.68802994153
 30
0.0
 11
1041904.105681915
 21
64006.68802994153
 31
0.0
 12
1041898.272348582
 22
64041.68802994154
 32
0.0
 13
1041898.272348582
 23
64041.68802994154
 33
0.0
  0
MTEXT
  5
4D
330
45
100
AcDbEntity
  8
BAR-GAL
 62
0
370
13
440
16777216
100
AcDbMText
 10
1041870.402294011
 20
61839.37333117544
 30
0.0
 40
35.0
 41
0.0
 46
0.0
 71
5
  1
4405
 11
1e-16
 21
1.0
 31
0.0
  0
POINT
  5
4E
330
45
100
AcDbEntity
  8
Defpoints
 62
0
370
13
440
16777216
100
AcDbPoint
 10
1042110.028262575
 20
59637.05863240997
 30
0.0
  0
POINT
  5
4F
330
45
100
AcDbEntity
  8
Defpoints
 62
0
370
13
440
16777216
100
AcDbPoint
 10
1042110.028262575
 20
64041.68802994154
 30
0.0
  0
POINT
  5
50
330
45
100
AcDbEntity
  8
Defpoints
 62
0
370
13
440
16777216
100
AcDbPoint
 10
1041898.272348582
 20
64041.68802994154
 30
0.0
  0
ENDBLK
  5
47
330
45
100
AcDbEntity
  8
0
100
AcDbBlockEnd
  0
BLOCK
  5
54
330
53
100
AcDbEntity
  8
0
100
AcDbBlockBegin
  2
*D3
 70
1
 10
0.0
 20
0.0
 30
0.0
  3
*D3
  1

  0
LINE
  5
56
330
53
100
AcDbEntity
  8
BAR-GAL
 62
0
370
-2
440
16777216
100
AcDbLine
 10
1044443.222438902
 20
59638.9515791336
 30
0.0
 11
1044591.586601204
 21
59638.9515791336
 31
0.0
  0
LINE
  5
57
330
53
100
AcDbEntity
  8
BAR-GAL
 62
0
370
-2
440
16777216
100
AcDbLine
 10
1044444.241432035
 20
64044.44394975648
 30
0.0
 11
1044591.586601204
 21
64044.44394975648
 31
0.0
  0
LINE
  5
58
330
53
100
AcDbEntity
  8
BAR-GAL
 62
0
370
-2
440
16777216
100
AcDbLine
 10
1044590.336601205
 20
59673.9515791336
 30
0.0
 11
1044590.336601205
 21
64009.44394975648
 31
0.0
  0
SOLID
  5
59
330
53
100
AcDbEntity
  8
BAR-GAL
 62
0
370
13
440
16777216
100
AcDbTrace
 10
1044584.503267871
 20
59673.9515791336
 30
0.0
 11
1044596.169934538
 21
59673.9515791336
 31
0.0
 12
1044590.336601205
 22
59638.9515791336
 32
0.0
 13
1044590.336601205
 23
59638.9515791336
 33
0.0
  0
SOLID
  5
5A
330
53
100
AcDbEntity
  8
BAR-GAL
 62
0
370
13
440
16777216
100
AcDbTrace
 10
1044584.503267871
 20
64009.44394975648
 30
0.0
 11
1044596.169934538
 21
64009.44394975648
 31
0.0
 12
1044590.336601205
 22
64044.44394975648
 32
0.0
 13
1044590.336601205
 23
64044.44394975648
 33
0.0
  0
MTEXT
  5
5B
330
53
100
AcDbEntity
  8
BAR-GAL
 62
0
370
13
440
16777216
100
AcDbMText
 10
1044562.466546634
 20
61841.69776444472
 30
0.0
 40
35.0
 41
0.0
 46
0.0
 71
5
  1
4405
 11
1e-16
 21
1.0
 31
0.0
  0
POINT
  5
5C
330
53
100
AcDbEntity
  8
Defpoints
 62
0
370
13
440
16777216
100
AcDbPoint
 10
1044442.597438902
 20
59638.9515791336
 30
0.0
  0
POINT
  5
5D
330
53
100
AcDbEntity
  8
Defpoints
 62
0
370
13
440
16777216
100
AcDbPoint
 10
1044443.616432035
 20
64044.44394975648
 30
0.0
  0
POINT
  5
5E
330
53
100
AcDbEntity
  8
Defpoints
 62
0
370
13
440
16777216
100
AcDbPoint
 10
1044590.336601205
 20
64044.44394975648
 30
0.0
  0
ENDBLK
  5
55
330
53
100
AcDbEntity
  8
0
100
AcDbBlockEnd
  0
BLOCK
  5
61
330
60
100
AcDbEntity
  8
0
100
AcDbBlockBegin
  2
*D4
 70
1
 10
0.0
 20
0.0
 30
0.0
  3
*D4
  1

  0
LINE
  5
63
330
60
100
AcDbEntity
  8
BAR-GAL
 62
0
370
-2
440
16777216
100
AcDbLine
 10
1042110.028262575
 20
64042.3130299415
 30
0.0
 11
1042110.028262575
 21
64136.66334564767
 31
0.0
  0
LINE
  5
64
330
60
100
AcDbEntity
  8
BAR-GAL
 62
0
370
-2
440
16777216
100
AcDbLine
 10
1044442.830635563
 20
64038.10047989066
 30
0.0
 11
1044442.830635563
 21
64136.66334564767
 31
0.0
  0
LINE
  5
65
330
60
100
AcDbEntity
  8
BAR-GAL
 62
0
370
-2
440
16777216
100
AcDbLine
 10
1042145.028262575
 20
64135.41334564768
 30
0.0
 11
1044407.830635563
 21
64135.41334564768
 31
0.0
  0
SOLID
  5
66
330
60
100
AcDbEntity
  8
BAR-GAL
 62
0
370
13
440
16777216
100
AcDbTrace
 10
1042145.028262575
 20
64141.24667898101
 30
0.0
 11
1042145.028262575
 21
64129.58001231434
 31
0.0
 12
1042110.028262575
 22
64135.41334564768
 32
0.0
 13
1042110.028262575
 23
64135.41334564768
 33
0.0
  0
SOLID
  5
67
330
60
100
AcDbEntity
  8
BAR-GAL
 62
0
370
13
440
16777216
100
AcDbTrace
 10
1044407.830635563
 20
64141.24667898101
 30
0.0
 11
1044407.830635563
 21
64129.58001231434
 31
0.0
 12
1044442.830635563
 22
64135.41334564768
 32
0.0
 13
1044442.830635563
 23
64135.41334564768
 33
0.0
  0
MTEXT
  5
68
330
60
100
AcDbEntity
  8
BAR-GAL
 62
0
370
13
440
16777216
100
AcDbMText
 10
1043276.429449069
 20
64163.29533746213
 30
0.0
 40
35.0
 41
0.0
 46
0.0
 71
5
  1
2333
  0
POINT
  5
69
330
60
100
AcDbEntity
  8
Defpoints
 62
0
370
13
440
16777216
100
AcDbPoint
 10
1042110.028262575
 20
64041.6880299415
 30
0.0
  0
POINT
  5
6A
330
60
100
AcDbEntity
  8
Defpoints
 62
0
370
13
440
16777216
100
AcDbPoint
 10
1044442.830635563
 20
64037.47547989066
 30
0.0
  0
POINT
  5
6B
330
60
100
AcDbEntity
  8
Defpoints
 62
0
370
13
440
16777216
100
AcDbPoint
 10
1044442.830635563
 20
64135.41334564768
 30
0.0
  0
ENDBLK
  5
62
330
60
100
AcDbEntity
  8
0
100
AcDbBlockEnd
  0
BLOCK
  5
8F
330
8E
100
AcDbEntity
  8
0
100
AcDbBlockBegin
  2
*D5
 70
1
 10
0.0
 20
0.0
 30
0.0
  3
*D5
  1

  0
LINE
  5
91
330
8E
100
AcDbEntity
  8
BAR-GAL
 62
0
370
-2
440
16777216
100
AcDbLine
 10
1043340.20722237
 20
61522.16398060889
 30
0.0
 11
1043394.956420102
 21
61522.16398060889
 31
0.0
  0
LINE
  5
92
330
8E
100
AcDbEntity
  8
BAR-GAL
 62
0
370
-2
440
16777216
100
AcDbLine
 10
1043340.20722237
 20
61912.15060950929
 30
0.0
 11
1043394.956420102
 21
61912.15060950929
 31
0.0
  0
LINE
  5
93
330
8E
100
AcDbEntity
  8
BAR-GAL
 62
0
370
-2
440
16777216
100
AcDbLine
 10
1043393.706420102
 20
61557.16398060889
 30
0.0
 11
1043393.706420102
 21
61877.15060950929
 31
0.0
  0
SOLID
  5
94
330
8E
100
AcDbEntity
  8
BAR-GAL
 62
0
370
13
440
16777216
100
AcDbTrace
 10
1043387.873086769
 20
61557.16398060889
 30
0.0
 11
1043399.539753435
 21
61557.16398060889
 31
0.0
 12
1043393.706420102
 22
61522.16398060889
 32
0.0
 13
1043393.706420102
 23
61522.16398060889
 33
0.0
  0
SOLID
  5
95
330
8E
100
AcDbEntity
  8
BAR-GAL
 62
0
370
13
440
16777216
100
AcDbTrace
 10
1043387.873086769
 20
61877.15060950929
 30
0.0
 11
1043399.539753435
 21
61877.15060950929
 31
0.0
 12
1043393.706420102
 22
61912.15060950929
 32
0.0
 13
1043393.706420102
 23
61912.15060950929
 33
0.0
  0
MTEXT
  5
96
330
8E
100
AcDbEntity
  8
BAR-GAL
 62
0
370
13
440
16777216
100
AcDbMText
 10
1043365.824428287
 20
61717.15729505878
 30
0.0
 40
35.0
 41
0.0
 46
0.0
 71
5
  1
390
 11
1e-16
 21
1.0
 31
0.0
  0
POINT
  5
97
330
8E
100
AcDbEntity
  8
Defpoints
 62
0
370
13
440
16777216
100
AcDbPoint
 10
1043339.58222237
 20
61522.16398060889
 30
0.0
  0
POINT
  5
98
330
8E
100
AcDbEntity
  8
Defpoints
 62
0
370
13
440
16777216
100
AcDbPoint
 10
1043339.58222237
 20
61912.15060950929
 30
0.0
  0
POINT
  5
99
330
8E
100
AcDbEntity
  8
Defpoints
 62
0
370
13
440
16777216
100
AcDbPoint
 10
1043393.706420102
 20
61912.15060950929
 30
0.0
  0
ENDBLK
  5
90
330
8E
100
AcDbEntity
  8
0
100
AcDbBlockEnd
  0
BLOCK
  5
9C
330
9B
100
AcDbEntity
  8
0
100
AcDbBlockBegin
  2
*D6
 70
1
 10
0.0
 20
0.0
 30
0.0
  3
*D6
  1

  0
LINE
  5
9E
330
9B
100
AcDbEntity
  8
BAR-GAL
 62
0
370
-2
440
16777216
100
AcDbLine
 10
1043059.091527966
 20
61859.32071353101
 30
0.0
 11
1043059.091527966
 21
61962.78665913824
 31
0.0
  0
LINE
  5
9F
330
9B
100
AcDbEntity
  8
BAR-GAL
 62
0
370
-2
440
16777216
100
AcDbLine
 10
1043339.582222369
 20
61858.36553452786
 30
0.0
 11
1043339.582222369
 21
61962.78665913824
 31
0.0
  0
LINE
  5
A0
330
9B
100
AcDbEntity
  8
BAR-GAL
 62
0
370
-2
440
16777216
100
AcDbLine
 10
1043094.091527966
 20
61961.53665913824
 30
0.0
 11
1043304.582222369
 21
61961.53665913824
 31
0.0
  0
SOLID
  5
A1
330
9B
100
AcDbEntity
  8
BAR-GAL
 62
0
370
13
440
16777216
100
AcDbTrace
 10
1043094.091527966
 20
61967.36999247158
 30
0.0
 11
1043094.091527966
 21
61955.70332580491
 31
0.0
 12
1043059.091527966
 22
61961.53665913824
 32
0.0
 13
1043059.091527966
 23
61961.53665913824
 33
0.0
  0
SOLID
  5
A2
330
9B
100
AcDbEntity
  8
BAR-GAL
 62
0
370
13
440
16777216
100
AcDbTrace
 10
1043304.582222369
 20
61967.36999247158
 30
0.0
 11
1043304.582222369
 21
61955.70332580491
 31
0.0
 12
1043339.582222369
 22
61961.53665913824
 32
0.0
 13
1043339.582222369
 23
61961.53665913824
 33
0.0
  0
MTEXT
  5
A3
330
9B
100
AcDbEntity
  8
BAR-GAL
 62
0
370
13
440
16777216
100
AcDbMText
 10
1043199.336875167
 20
61989.40671370849
 30
0.0
 40
35.0
 41
0.0
 46
0.0
 71
5
  1
280
  0
POINT
  5
A4
330
9B
100
AcDbEntity
  8
Defpoints
 62
0
370
13
440
16777216
100
AcDbPoint
 10
1043059.091527966
 20
61858.69571353102
 30
0.0
  0
POINT
  5
A5
330
9B
100
AcDbEntity
  8
Defpoints
 62
0
370
13
440
16777216
100
AcDbPoint
 10
1043339.582222369
 20
61857.74053452787
 30
0.0
  0
POINT
  5
A6
330
9B
100
AcDbEntity
  8
Defpoints
 62
0
370
13
440
16777216
100
AcDbPoint
 10
1043339.582222369
 20
61961.53665913824
 30
0.0
  0
ENDBLK
  5
9D
330
9B
100
AcDbEntity
  8
0
100
AcDbBlockEnd
  0
BLOCK
  5
AC
330
AB
100
AcDbEntity
  8
0
100
AcDbBlockBegin
  2
*D7
 70
1
 10
0.0
 20
0.0
 30
0.0
  3
*D7
  1

  0
LINE
  5
AE
330
AB
100
AcDbEntity
  8
BAR-GAL
 62
0
370
-2
440
16777216
100
AcDbLine
 10
1043059.976150769
 20
62308.74110940873
 30
0.0
 11
1043059.976150769
 21
62355.74232907487
 31
0.0
  0
LINE
  5
AF
330
AB
100
AcDbEntity
  8
BAR-GAL
 62
0
370
-2
440
16777216
100
AcDbLine
 10
1043439.943724611
 20
62307.06907360992
 30
0.0
 11
1043439.943724611
 21
62355.74232907487
 31
0.0
  0
LINE
  5
B0
330
AB
100
AcDbEntity
  8
BAR-GAL
 62
0
370
-2
440
16777216
100
AcDbLine
 10
1043094.976150769
 20
62354.49232907487
 30
0.0
 11
1043404.943724611
 21
62354.49232907487
 31
0.0
  0
SOLID
  5
B1
330
AB
100
AcDbEntity
  8
BAR-GAL
 62
0
370
13
440
16777216
100
AcDbTrace
 10
1043094.976150769
 20
62360.32566240821
 30
0.0
 11
1043094.976150769
 21
62348.65899574153
 31
0.0
 12
1043059.976150769
 22
62354.49232907487
 32
0.0
 13
1043059.976150769
 23
62354.49232907487
 33
0.0
  0
SOLID
  5
B2
330
AB
100
AcDbEntity
  8
BAR-GAL
 62
0
370
13
440
16777216
100
AcDbTrace
 10
1043404.943724611
 20
62360.32566240821
 30
0.0
 11
1043404.943724611
 21
62348.65899574153
 31
0.0
 12
1043439.943724611
 22
62354.49232907487
 32
0.0
 13
1043439.943724611
 23
62354.49232907487
 33
0.0
  0
MTEXT
  5
B3
330
AB
100
AcDbEntity
  8
BAR-GAL
 62
0
370
13
440
16777216
100
AcDbMText
 10
1043249.95993769
 20
62382.37432088933
 30
0.0
 40
35.0
 41
0.0
 46
0.0
 71
5
  1
380
  0
POINT
  5
B4
330
AB
100
AcDbEntity
  8
Defpoints
 62
0
370
13
440
16777216
100
AcDbPoint
 10
1043059.976150769
 20
62308.11610940873
 30
0.0
  0
POINT
  5
B5
330
AB
100
AcDbEntity
  8
Defpoints
 62
0
370
13
440
16777216
100
AcDbPoint
 10
1043439.943724611
 20
62306.44407360992
 30
0.0
  0
POINT
  5
B6
330
AB
100
AcDbEntity
  8
Defpoints
 62
0
370
13
440
16777216
100
AcDbPoint
 10
1043439.943724611
 20
62354.49232907487
 30
0.0
  0
ENDBLK
  5
AD
330
AB
100
AcDbEntity
  8
0
100
AcDbBlockEnd
  0
BLOCK
  5
B9
330
B8
100
AcDbEntity
  8
0
100
AcDbBlockBegin
  2
*D8
 70
1
 10
0.0
 20
0.0
 30
0.0
  3
*D8
  1

  0
LINE
  5
BB
330
B8
100
AcDbEntity
  8
BAR-GAL
 62
0
370
-2
440
16777216
100
AcDbLine
 10
1043059.351150769
 20
62308.11610940875
 30
0.0
 11
1043008.829940121
 21
62308.11610940875
 31
0.0
  0
LINE
  5
BC
330
B8
100
AcDbEntity
  8
BAR-GAL
 62
0
370
-2
440
16777216
100
AcDbLine
 10
1043056.370092797
 20
62128.39363500461
 30
0.0
 11
1043008.829940121
 21
62128.39363500461
 31
0.0
  0
LINE
  5
BD
330
B8
100
AcDbEntity
  8
BAR-GAL
 62
0
370
-2
440
16777216
100
AcDbLine
 10
1043010.07994012
 20
62273.11610940875
 30
0.0
 11
1043010.07994012
 21
62163.39363500461
 31
0.0
  0
SOLID
  5
BE
330
B8
100
AcDbEntity
  8
BAR-GAL
 62
0
370
13
440
16777216
100
AcDbTrace
 10
1043004.246606787
 20
62273.11610940875
 30
0.0
 11
1043015.913273454
 21
62273.11610940875
 31
0.0
 12
1043010.07994012
 22
62308.11610940875
 32
0.0
 13
1043010.07994012
 23
62308.11610940875
 33
0.0
  0
SOLID
  5
BF
330
B8
100
AcDbEntity
  8
BAR-GAL
 62
0
370
13
440
16777216
100
AcDbTrace
 10
1043004.246606787
 20
62163.39363500461
 30
0.0
 11
1043015.913273454
 21
62163.39363500461
 31
0.0
 12
1043010.07994012
 22
62128.39363500461
 32
0.0
 13
1043010.07994012
 23
62128.39363500461
 33
0.0
  0
MTEXT
  5
C0
330
B8
100
AcDbEntity
  8
BAR-GAL
 62
0
370
13
440
16777216
100
AcDbMText
 10
1042982.20988555
 20
62218.25487220637
 30
0.0
 40
35.0
 41
0.0
 46
0.0
 71
5
  1
180
 11
1e-16
 21
1.0
 31
0.0
  0
POINT
  5
C1
330
B8
100
AcDbEntity
  8
Defpoints
 62
0
370
13
440
16777216
100
AcDbPoint
 10
1043059.976150769
 20
62308.11610940875
 30
0.0
  0
POINT
  5
C2
330
B8
100
AcDbEntity
  8
Defpoints
 62
0
370
13
440
16777216
100
AcDbPoint
 10
1043056.995092797
 20
62128.39363500461
 30
0.0
  0
POINT
  5
C3
330
B8
100
AcDbEntity
  8
Defpoints
 62
0
370
13
440
16777216
100
AcDbPoint
 10
1043010.07994012
 20
62128.39363500461
 30
0.0
  0
ENDBLK
  5
BA
330
B8
100
AcDbEntity
  8
0
100
AcDbBlockEnd
  0
BLOCK
  5
C6
330
C5
100
AcDbEntity
  8
0
100
AcDbBlockBegin
  2
*D9
 70
1
 10
0.0
 20
0.0
 30
0.0
  3
*D9
  1

  0
LINE
  5
C8
330
C5
100
AcDbEntity
  8
BAR-GAL
 62
0
370
-2
440
16777216
100
AcDbLine
 10
1043412.648662304
 20
62316.92037893416
 30
0.0
 11
1043482.694195799
 21
62316.92037893416
 31
0.0
  0
LINE
  5
C9
330
C5
100
AcDbEntity
  8
BAR-GAL
 62
0
370
-2
440
16777216
100
AcDbLine
 10
1043414.552607488
 20
61401.87752981429
 30
0.0
 11
1043482.694195799
 21
61401.87752981429
 31
0.0
  0
LINE
  5
CA
330
C5
100
AcDbEntity
  8
BAR-GAL
 62
0
370
-2
440
16777216
100
AcDbLine
 10
1043481.4441958
 20
62281.92037893415
 30
0.0
 11
1043481.4441958
 21
61436.87752981429
 31
0.0
  0
SOLID
  5
CB
330
C5
100
AcDbEntity
  8
BAR-GAL
 62
0
370
13
440
16777216
100
AcDbTrace
 10
1043475.610862466
 20
62281.92037893415
 30
0.0
 11
1043487.277529133
 21
62281.92037893415
 31
0.0
 12
1043481.4441958
 22
62316.92037893416
 32
0.0
 13
1043481.4441958
 23
62316.92037893416
 33
0.0
  0
SOLID
  5
CC
330
C5
100
AcDbEntity
  8
BAR-GAL
 62
0
370
13
440
16777216
100
AcDbTrace
 10
1043475.610862466
 20
61436.87752981429
 30
0.0
 11
1043487.277529133
 21
61436.87752981429
 31
0.0
 12
1043481.4441958
 22
61401.87752981429
 32
0.0
 13
1043481.4441958
 23
61401.87752981429
 33
0.0
  0
MTEXT
  5
CD
330
C5
100
AcDbEntity
  8
BAR-GAL
 62
0
370
13
440
16777216
100
AcDbMText
 10
1043453.574141229
 20
61859.39895437391
 30
0.0
 40
35.0
 41
0.0
 46
0.0
 71
5
  1
915
 11
1e-16
 21
1.0
 31
0.0
  0
POINT
  5
CE
330
C5
100
AcDbEntity
  8
Defpoints
 62
0
370
13
440
16777216
100
AcDbPoint
 10
1043412.023662304
 20
62316.92037893416
 30
0.0
  0
POINT
  5
CF
330
C5
100
AcDbEntity
  8
Defpoints
 62
0
370
13
440
16777216
100
AcDbPoint
 10
1043413.927607488
 20
61401.87752981429
 30
0.0
  0
POINT
  5
D0
330
C5
100
AcDbEntity
  8
Defpoints
 62
0
370
13
440
16777216
100
AcDbPoint
 10
1043481.4441958
 20
61401.87752981429
 30
0.0
  0
ENDBLK
  5
C7
330
C5
100
AcDbEntity
  8
0
100
AcDbBlockEnd
  0
BLOCK
  5
D3
330
D2
100
AcDbEntity
  8
0
100
AcDbBlockBegin
  2
*D10
 70
1
 10
0.0
 20
0.0
 30
0.0
  3
*D10
  1

  0
LINE
  5
D5
330
D2
100
AcDbEntity
  8
BAR-GAL
 62
0
370
-2
440
16777216
100
AcDbLine
 10
1043510.006318358
 20
61391.09436177744
 30
0.0
 11
1043510.006318358
 21
61339.14130773088
 31
0.0
  0
LINE
  5
D6
330
D2
100
AcDbEntity
  8
BAR-GAL
 62
0
370
-2
440
16777216
100
AcDbLine
 10
1043299.926098229
 20
61393.39514097512
 30
0.0
 11
1043299.926098229
 21
61339.14130773088
 31
0.0
  0
LINE
  5
D7
330
D2
100
AcDbEntity
  8
BAR-GAL
 62
0
370
-2
440
16777216
100
AcDbLine
 10
1043475.006318358
 20
61340.39130773088
 30
0.0
 11
1043334.926098229
 21
61340.39130773088
 31
0.0
  0
SOLID
  5
D8
330
D2
100
AcDbEntity
  8
BAR-GAL
 62
0
370
13
440
16777216
100
AcDbTrace
 10
1043475.006318358
 20
61346.22464106421
 30
0.0
 11
1043475.006318358
 21
61334.55797439754
 31
0.0
 12
1043510.006318358
 22
61340.39130773088
 32
0.0
 13
1043510.006318358
 23
61340.39130773088
 33
0.0
  0
SOLID
  5
D9
330
D2
100
AcDbEntity
  8
BAR-GAL
 62
0
370
13
440
16777216
100
AcDbTrace
 10
1043334.926098229
 20
61346.22464106421
 30
0.0
 11
1043334.926098229
 21
61334.55797439754
 31
0.0
 12
1043299.926098229
 22
61340.39130773088
 32
0.0
 13
1043299.926098229
 23
61340.39130773088
 33
0.0
  0
MTEXT
  5
DA
330
D2
100
AcDbEntity
  8
BAR-GAL
 62
0
370
13
440
16777216
100
AcDbMText
 10
1043404.966208294
 20
61368.26136230114
 30
0.0
 40
35.0
 41
0.0
 46
0.0
 71
5
  1
210
  0
POINT
  5
DB
330
D2
100
AcDbEntity
  8
Defpoints
 62
0
370
13
440
16777216
100
AcDbPoint
 10
1043510.006318358
 20
61391.71936177745
 30
0.0
  0
POINT
  5
DC
330
D2
100
AcDbEntity
  8
Defpoints
 62
0
370
13
440
16777216
100
AcDbPoint
 10
1043299.926098229
 20
61394.02014097512
 30
0.0
  0
POINT
  5
DD
330
D2
100
AcDbEntity
  8
Defpoints
 62
0
370
13
440
16777216
100
AcDbPoint
 10
1043299.926098229
 20
61340.39130773088
 30
0.0
  0
ENDBLK
  5
D4
330
D2
100
AcDbEntity
  8
0
100
AcDbBlockEnd
  0
BLOCK
  5
E1
330
E0
100
AcDbEntity
  8
0
100
AcDbBlockBegin
  2
*D11
 70
1
 10
0.0
 20
0.0
 30
0.0
  3
*D11
  1

  0
LINE
  5
E3
330
E0
100
AcDbEntity
  8
BAR-GAL
 62
0
370
-2
440
16777216
100
AcDbLine
 10
1043347.959230911
 20
60130.69379556256
 30
0.0
 11
1043347.959230911
 21
60183.68721658194
 31
0.0
  0
LINE
  5
E4
330
E0
100
AcDbEntity
  8
BAR-GAL
 62
0
370
-2
440
16777216
100
AcDbLine
 10
1043833.222372268
 20
60126.2500336121
 30
0.0
 11
1043833.222372268
 21
60183.68721658194
 31
0.0
  0
LINE
  5
E5
330
E0
100
AcDbEntity
  8
BAR-GAL
 62
0
370
-2
440
16777216
100
AcDbLine
 10
1043377.959230911
 20
60182.43721658193
 30
0.0
 11
1043803.222372268
 21
60182.43721658193
 31
0.0
  0
SOLID
  5
E6
330
E0
100
AcDbEntity
  8
BAR-GAL
 62
0
370
13
440
16777216
100
AcDbTrace
 10
1043377.959230911
 20
60187.43721658194
 30
0.0
 11
1043377.959230911
 21
60177.43721658193
 31
0.0
 12
1043347.959230911
 22
60182.43721658193
 32
0.0
 13
1043347.959230911
 23
60182.43721658193
 33
0.0
  0
SOLID
  5
E7
330
E0
100
AcDbEntity
  8
BAR-GAL
 62
0
370
13
440
16777216
100
AcDbTrace
 10
1043803.222372268
 20
60187.43721658194
 30
0.0
 11
1043803.222372268
 21
60177.43721658193
 31
0.0
 12
1043833.222372268
 22
60182.43721658193
 32
0.0
 13
1043833.222372268
 23
60182.43721658193
 33
0.0
  0
MTEXT
  5
E8
330
E0
100
AcDbEntity
  8
BAR-GAL
 62
0
370
13
440
16777216
100
AcDbMText
 10
1043590.590801589
 20
60207.75440621358
 30
0.0
 40
30.0
 41
0.0
 46
0.0
 71
5
  1
485
  0
POINT
  5
E9
330
E0
100
AcDbEntity
  8
Defpoints
 62
0
370
13
440
16777216
100
AcDbPoint
 10
1043347.959230911
 20
60130.06879556256
 30
0.0
  0
POINT
  5
EA
330
E0
100
AcDbEntity
  8
Defpoints
 62
0
370
13
440
16777216
100
AcDbPoint
 10
1043833.222372268
 20
60125.6250336121
 30
0.0
  0
POINT
  5
EB
330
E0
100
AcDbEntity
  8
Defpoints
 62
0
370
13
440
16777216
100
AcDbPoint
 10
1043833.222372268
 20
60182.43721658193
 30
0.0
  0
ENDBLK
  5
E2
330
E0
100
AcDbEntity
  8
0
100
AcDbBlockEnd
  0
BLOCK
  5
EE
330
ED
100
AcDbEntity
  8
0
100
AcDbBlockBegin
  2
*D12
 70
1
 10
0.0
 20
0.0
 30
0.0
  3
*D12
  1

  0
LINE
  5
F0
330
ED
100
AcDbEntity
  8
BAR-GAL
 62
0
370
-2
440
16777216
100
AcDbLine
 10
1043348.130351177
 20
60128.9342996367
 30
0.0
 11
1043348.130351177
 21
60183.68721658194
 31
0.0
  0
LINE
  5
F1
330
ED
100
AcDbEntity
  8
BAR-GAL
 62
0
370
-2
440
16777216
100
AcDbLine
 10
1043158.212518975
 20
60127.73340427747
 30
0.0
 11
1043158.212518975
 21
60183.68721658194
 31
0.0
  0
LINE
  5
F2
330
ED
100
AcDbEntity
  8
BAR-GAL
 62
0
370
-2
440
16777216
100
AcDbLine
 10
1043318.130351177
 20
60182.43721658193
 30
0.0
 11
1043188.212518975
 21
60182.43721658193
 31
0.0
  0
SOLID
  5
F3
330
ED
100
AcDbEntity
  8
BAR-GAL
 62
0
370
13
440
16777216
100
AcDbTrace
 10
1043318.130351177
 20
60187.43721658194
 30
0.0
 11
1043318.130351177
 21
60177.43721658193
 31
0.0
 12
1043348.130351177
 22
60182.43721658193
 32
0.0
 13
1043348.130351177
 23
60182.43721658193
 33
0.0
  0
SOLID
  5
F4
330
ED
100
AcDbEntity
  8
BAR-GAL
 62
0
370
13
440
16777216
100
AcDbTrace
 10
1043188.212518975
 20
60187.43721658194
 30
0.0
 11
1043188.212518975
 21
60177.43721658193
 31
0.0
 12
1043158.212518975
 22
60182.43721658193
 32
0.0
 13
1043158.212518975
 23
60182.43721658193
 33
0.0
  0
MTEXT
  5
F5
330
ED
100
AcDbEntity
  8
BAR-GAL
 62
0
370
13
440
16777216
100
AcDbMText
 10
1043253.171435076
 20
60207.75440621358
 30
0.0
 40
30.0
 41
0.0
 46
0.0
 71
5
  1
190
  0
POINT
  5
F6
330
ED
100
AcDbEntity
  8
Defpoints
 62
0
370
13
440
16777216
100
AcDbPoint
 10
1043348.130351177
 20
60128.3092996367
 30
0.0
  0
POINT
  5
F7
330
ED
100
AcDbEntity
  8
Defpoints
 62
0
370
13
440
16777216
100
AcDbPoint
 10
1043158.212518975
 20
60127.10840427748
 30
0.0
  0
POINT
  5
F8
330
ED
100
AcDbEntity
  8
Defpoints
 62
0
370
13
440
16777216
100
AcDbPoint
 10
1043158.212518975
 20
60182.43721658193
 30
0.0
  0
ENDBLK
  5
EF
330
ED
100
AcDbEntity
  8
0
100
AcDbBlockEnd
  0
BLOCK
  5
FB
330
FA
100
AcDbEntity
  8
0
100
AcDbBlockBegin
  2
*D13
 70
1
 10
0.0
 20
0.0
 30
0.0
  3
*D13
  1

  0
LINE
  5
FD
330
FA
100
AcDbEntity
  8
BAR-GAL
 62
0
370
-2
440
16777216
100
AcDbLine
 10
1043833.847372268
 20
60130.07133558085
 30
0.0
 11
1043917.082353448
 21
60130.07133558085
 31
0.0
  0
LINE
  5
FE
330
FA
100
AcDbEntity
  8
BAR-GAL
 62
0
370
-2
440
16777216
100
AcDbLine
 10
1043834.322603004
 20
59635.03524348197
 30
0.0
 11
1043917.082353448
 21
59635.03524348197
 31
0.0
  0
LINE
  5
FF
330
FA
100
AcDbEntity
  8
BAR-GAL
 62
0
370
-2
440
16777216
100
AcDbLine
 10
1043915.832353448
 20
60100.07133558085
 30
0.0
 11
1043915.832353448
 21
59665.03524348198
 31
0.0
  0
SOLID
  5
100
330
FA
100
AcDbEntity
  8
BAR-GAL
 62
0
370
13
440
16777216
100
AcDbTrace
 10
1043910.832353448
 20
60100.07133558085
 30
0.0
 11
1043920.832353448
 21
60100.07133558085
 31
0.0
 12
1043915.832353448
 22
60130.07133558085
 32
0.0
 13
1043915.832353448
 23
60130.07133558085
 33
0.0
  0
SOLID
  5
101
330
FA
100
AcDbEntity
  8
BAR-GAL
 62
0
370
13
440
16777216
100
AcDbTrace
 10
1043910.832353448
 20
59665.03524348198
 30
0.0
 11
1043920.832353448
 21
59665.03524348198
 31
0.0
 12
1043915.832353448
 22
59635.03524348197
 32
0.0
 13
1043915.832353448
 23
59635.03524348197
 33
0.0
  0
MTEXT
  5
102
330
FA
100
AcDbEntity
  8
BAR-GAL
 62
0
370
13
440
16777216
100
AcDbMText
 10
1043890.515163816
 20
59882.5532895311
 30
0.0
 40
30.0
 41
0.0
 46
0.0
 71
5
  1
495
 11
1e-16
 21
1.0
 31
0.0
  0
POINT
  5
103
330
FA
100
AcDbEntity
  8
Defpoints
 62
0
370
13
440
16777216
100
AcDbPoint
 10
1043833.222372268
 20
60130.07133558085
 30
0.0
  0
POINT
  5
104
330
FA
100
AcDbEntity
  8
Defpoints
 62
0
370
13
440
16777216
100
AcDbPoint
 10
1043833.697603004
 20
59635.03524348197
 30
0.0
  0
POINT
  5
105
330
FA
100
AcDbEntity
  8
Defpoints
 62
0
370
13
440
16777216
100
AcDbPoint
 10
1043915.832353448
 20
59635.03524348197
 30
0.0
  0
ENDBLK
  5
FC
330
FA
100
AcDbEntity
  8
0
100
AcDbBlockEnd
  0
BLOCK
  5
10B
330
10A
100
AcDbEntity
  8
0
100
AcDbBlockBegin
  2
*D14
 70
1
 10
0.0
 20
0.0
 30
0.0
  3
*D14
  1

  0
LINE
  5
10D
330
10A
100
AcDbEntity
  8
BAR-GAL
 62
0
370
-2
440
16777216
100
AcDbLine
 10
1042960.304456025
 20
60697.96750423684
 30
0.0
 11
1042960.304456025
 21
60742.47863545076
 31
0.0
  0
LINE
  5
10E
330
10A
100
AcDbEntity
  8
BAR-GAL
 62
0
370
-2
440
16777216
100
AcDbLine
 10
1043238.223094248
 20
60697.96750423684
 30
0.0
 11
1043238.223094248
 21
60742.47863545076
 31
0.0
  0
LINE
  5
10F
330
10A
100
AcDbEntity
  8
BAR-GAL
 62
0
370
-2
440
16777216
100
AcDbLine
 10
1042990.304456025
 20
60741.22863545076
 30
0.0
 11
1043208.223094248
 21
60741.22863545076
 31
0.0
  0
SOLID
  5
110
330
10A
100
AcDbEntity
  8
BAR-GAL
 62
0
370
13
440
16777216
100
AcDbTrace
 10
1042990.304456025
 20
60746.22863545076
 30
0.0
 11
1042990.304456025
 21
60736.22863545076
 31
0.0
 12
1042960.304456025
 22
60741.22863545076
 32
0.0
 13
1042960.304456025
 23
60741.22863545076
 33
0.0
  0
SOLID
  5
111
330
10A
100
AcDbEntity
  8
BAR-GAL
 62
0
370
13
440
16777216
100
AcDbTrace
 10
1043208.223094248
 20
60746.22863545076
 30
0.0
 11
1043208.223094248
 21
60736.22863545076
 31
0.0
 12
1043238.223094248
 22
60741.22863545076
 32
0.0
 13
1043238.223094248
 23
60741.22863545076
 33
0.0
  0
MTEXT
  5
112
330
10A
100
AcDbEntity
  8
BAR-GAL
 62
0
370
13
440
16777216
100
AcDbMText
 10
1043099.263775136
 20
60766.54582508241
 30
0.0
 40
30.0
 41
0.0
 46
0.0
 71
5
  1
278
  0
POINT
  5
113
330
10A
100
AcDbEntity
  8
Defpoints
 62
0
370
13
440
16777216
100
AcDbPoint
 10
1042960.304456025
 20
60697.34250423683
 30
0.0
  0
POINT
  5
114
330
10A
100
AcDbEntity
  8
Defpoints
 62
0
370
13
440
16777216
100
AcDbPoint
 10
1043238.223094248
 20
60697.34250423683
 30
0.0
  0
POINT
  5
115
330
10A
100
AcDbEntity
  8
Defpoints
 62
0
370
13
440
16777216
100
AcDbPoint
 10
1043238.223094248
 20
60741.22863545076
 30
0.0
  0
ENDBLK
  5
10C
330
10A
100
AcDbEntity
  8
0
100
AcDbBlockEnd
  0
BLOCK
  5
118
330
117
100
AcDbEntity
  8
0
100
AcDbBlockBegin
  2
*D15
 70
1
 10
0.0
 20
0.0
 30
0.0
  3
*D15
  1

  0
LINE
  5
11A
330
117
100
AcDbEntity
  8
BAR-GAL
 62
0
370
-2
440
16777216
100
AcDbLine
 10
1042959.679456025
 20
60699.67297099283
 30
0.0
 11
1042888.564789348
 21
60699.67297099283
 31
0.0
  0
LINE
  5
11B
330
117
100
AcDbEntity
  8
BAR-GAL
 62
0
370
-2
440
16777216
100
AcDbLine
 10
1042959.679456025
 20
60292.34250423686
 30
0.0
 11
1042888.564789348
 21
60292.34250423686
 31
0.0
  0
LINE
  5
11C
330
117
100
AcDbEntity
  8
BAR-GAL
 62
0
370
-2
440
16777216
100
AcDbLine
 10
1042889.814789348
 20
60669.67297099282
 30
0.0
 11
1042889.814789348
 21
60322.34250423686
 31
0.0
  0
SOLID
  5
11D
330
117
100
AcDbEntity
  8
BAR-GAL
 62
0
370
13
440
16777216
100
AcDbTrace
 10
1042884.814789348
 20
60669.67297099282
 30
0.0
 11
1042894.814789348
 21
60669.67297099282
 31
0.0
 12
1042889.814789348
 22
60699.67297099283
 32
0.0
 13
1042889.814789348
 23
60699.67297099283
 33
0.0
  0
SOLID
  5
11E
330
117
100
AcDbEntity
  8
BAR-GAL
 62
0
370
13
440
16777216
100
AcDbTrace
 10
1042884.814789348
 20
60322.34250423686
 30
0.0
 11
1042894.814789348
 21
60322.34250423686
 31
0.0
 12
1042889.814789348
 22
60292.34250423686
 32
0.0
 13
1042889.814789348
 23
60292.34250423686
 33
0.0
  0
MTEXT
  5
11F
330
117
100
AcDbEntity
  8
BAR-GAL
 62
0
370
13
440
16777216
100
AcDbMText
 10
1042864.497599716
 20
60496.00773761453
 30
0.0
 40
30.0
 41
0.0
 46
0.0
 71
5
  1
407
 11
1e-16
 21
1.0
 31
0.0
  0
POINT
  5
120
330
117
100
AcDbEntity
  8
Defpoints
 62
0
370
13
440
16777216
100
AcDbPoint
 10
1042960.304456025
 20
60699.67297099283
 30
0.0
  0
POINT
  5
121
330
117
100
AcDbEntity
  8
Defpoints
 62
0
370
13
440
16777216
100
AcDbPoint
 10
1042960.304456025
 20
60292.34250423686
 30
0.0
  0
POINT
  5
122
330
117
100
AcDbEntity
  8
Defpoints
 62
0
370
13
440
16777216
100
AcDbPoint
 10
1042889.814789348
 20
60292.34250423686
 30
0.0
  0
ENDBLK
  5
119
330
117
100
AcDbEntity
  8
0
100
AcDbBlockEnd
  0
BLOCK
  5
126
330
125
100
AcDbEntity
  8
0
100
AcDbBlockBegin
  2
*D16
 70
1
 10
0.0
 20
0.0
 30
0.0
  3
*D16
  1

  0
LINE
  5
128
330
125
100
AcDbEntity
  8
BAR-GAL
 62
0
370
-2
440
16777216
100
AcDbLine
 10
1043507.887943127
 20
62307.7053481847
 30
0.0
 11
1043507.887943127
 21
62355.74232907487
 31
0.0
  0
LINE
  5
129
330
125
100
AcDbEntity
  8
BAR-GAL
 62
0
370
-2
440
16777216
100
AcDbLine
 10
1043717.924090468
 20
62307.7053481847
 30
0.0
 11
1043717.924090468
 21
62355.74232907487
 31
0.0
  0
LINE
  5
12A
330
125
100
AcDbEntity
  8
BAR-GAL
 62
0
370
-2
440
16777216
100
AcDbLine
 10
1043542.887943127
 20
62354.49232907487
 30
0.0
 11
1043682.924090468
 21
62354.49232907487
 31
0.0
  0
SOLID
  5
12B
330
125
100
AcDbEntity
  8
BAR-GAL
 62
0
370
13
440
16777216
100
AcDbTrace
 10
1043542.887943127
 20
62360.32566240821
 30
0.0
 11
1043542.887943127
 21
62348.65899574153
 31
0.0
 12
1043507.887943127
 22
62354.49232907487
 32
0.0
 13
1043507.887943127
 23
62354.49232907487
 33
0.0
  0
SOLID
  5
12C
330
125
100
AcDbEntity
  8
BAR-GAL
 62
0
370
13
440
16777216
100
AcDbTrace
 10
1043682.924090468
 20
62360.32566240821
 30
0.0
 11
1043682.924090468
 21
62348.65899574153
 31
0.0
 12
1043717.924090468
 22
62354.49232907487
 32
0.0
 13
1043717.924090468
 23
62354.49232907487
 33
0.0
  0
MTEXT
  5
12D
330
125
100
AcDbEntity
  8
BAR-GAL
 62
0
370
13
440
16777216
100
AcDbMText
 10
1043612.906016798
 20
62382.36238364513
 30
0.0
 40
35.0
 41
0.0
 46
0.0
 71
5
  1
210
  0
POINT
  5
12E
330
125
100
AcDbEntity
  8
Defpoints
 62
0
370
13
440
16777216
100
AcDbPoint
 10
1043507.887943127
 20
62307.08034818471
 30
0.0
  0
POINT
  5
12F
330
125
100
AcDbEntity
  8
Defpoints
 62
0
370
13
440
16777216
100
AcDbPoint
 10
1043717.924090468
 20
62307.08034818471
 30
0.0
  0
POINT
  5
130
330
125
100
AcDbEntity
  8
Defpoints
 62
0
370
13
440
16777216
100
AcDbPoint
 10
1043717.924090468
 20
62354.49232907487
 30
0.0
  0
ENDBLK
  5
127
330
125
100
AcDbEntity
  8
0
100
AcDbBlockEnd
  0
BLOCK
  5
133
330
132
100
AcDbEntity
  8
0
100
AcDbBlockBegin
  2
*D17
 70
1
 10
0.0
 20
0.0
 30
0.0
  3
*D17
  1

  0
LINE
  5
135
330
132
100
AcDbEntity
  8
BAR-GAL
 62
0
370
-2
440
16777216
100
AcDbLine
 10
1043717.218623712
 20
62307.08034818474
 30
0.0
 11
1043789.177424413
 21
62307.08034818474
 31
0.0
  0
LINE
  5
136
330
132
100
AcDbEntity
  8
BAR-GAL
 62
0
370
-2
440
16777216
100
AcDbLine
 10
1043717.218623712
 20
62071.58864062928
 30
0.0
 11
1043789.177424413
 21
62071.58864062928
 31
0.0
  0
LINE
  5
137
330
132
100
AcDbEntity
  8
BAR-GAL
 62
0
370
-2
440
16777216
100
AcDbLine
 10
1043787.927424413
 20
62272.08034818474
 30
0.0
 11
1043787.927424413
 21
62106.58864062929
 31
0.0
  0
SOLID
  5
138
330
132
100
AcDbEntity
  8
BAR-GAL
 62
0
370
13
440
16777216
100
AcDbTrace
 10
1043782.09409108
 20
62272.08034818474
 30
0.0
 11
1043793.760757746
 21
62272.08034818474
 31
0.0
 12
1043787.927424413
 22
62307.08034818474
 32
0.0
 13
1043787.927424413
 23
62307.08034818474
 33
0.0
  0
SOLID
  5
139
330
132
100
AcDbEntity
  8
BAR-GAL
 62
0
370
13
440
16777216
100
AcDbTrace
 10
1043782.09409108
 20
62106.58864062929
 30
0.0
 11
1043793.760757746
 21
62106.58864062929
 31
0.0
 12
1043787.927424413
 22
62071.58864062928
 32
0.0
 13
1043787.927424413
 23
62071.58864062928
 33
0.0
  0
MTEXT
  5
13A
330
132
100
AcDbEntity
  8
BAR-GAL
 62
0
370
13
440
16777216
100
AcDbMText
 10
1043760.045432598
 20
62189.3344944067
 30
0.0
 40
35.0
 41
0.0
 46
0.0
 71
5
  1
235
 11
1e-16
 21
1.0
 31
0.0
  0
POINT
  5
13B
330
132
100
AcDbEntity
  8
Defpoints
 62
0
370
13
440
16777216
100
AcDbPoint
 10
1043716.593623712
 20
62307.08034818474
 30
0.0
  0
POINT
  5
13C
330
132
100
AcDbEntity
  8
Defpoints
 62
0
370
13
440
16777216
100
AcDbPoint
 10
1043716.593623712
 20
62071.58864062928
 30
0.0
  0
POINT
  5
13D
330
132
100
AcDbEntity
  8
Defpoints
 62
0
370
13
440
16777216
100
AcDbPoint
 10
1043787.927424413
 20
62071.58864062928
 30
0.0
  0
ENDBLK
  5
134
330
132
100
AcDbEntity
  8
0
100
AcDbBlockEnd
  0
BLOCK
  5
143
330
142
100
AcDbEntity
  8
0
100
AcDbBlockBegin
  2
*D18
 70
1
 10
0.0
 20
0.0
 30
0.0
  3
*D18
  1

  0
LINE
  5
145
330
142
100
AcDbEntity
  8
BAR-GAL
 62
0
370
-2
440
16777216
100
AcDbLine
 10
1043508.944590724
 20
61955.06445271139
 30
0.0
 11
1043508.944590724
 21
61986.27298175227
 31
0.0
  0
LINE
  5
146
330
142
100
AcDbEntity
  8
BAR-GAL
 62
0
370
-2
440
16777216
100
AcDbLine
 10
1043718.605318176
 20
61953.79380857551
 30
0.0
 11
1043718.605318176
 21
61986.27298175227
 31
0.0
  0
LINE
  5
147
330
142
100
AcDbEntity
  8
BAR-GAL
 62
0
370
-2
440
16777216
100
AcDbLine
 10
1043543.944590724
 20
61985.02298175228
 30
0.0
 11
1043683.605318176
 21
61985.02298175228
 31
0.0
  0
SOLID
  5
148
330
142
100
AcDbEntity
  8
BAR-GAL
 62
0
370
13
440
16777216
100
AcDbTrace
 10
1043543.944590724
 20
61990.85631508562
 30
0.0
 11
1043543.944590724
 21
61979.18964841894
 31
0.0
 12
1043508.944590724
 22
61985.02298175228
 32
0.0
 13
1043508.944590724
 23
61985.02298175228
 33
0.0
  0
SOLID
  5
149
330
142
100
AcDbEntity
  8
BAR-GAL
 62
0
370
13
440
16777216
100
AcDbTrace
 10
1043683.605318176
 20
61990.85631508562
 30
0.0
 11
1043683.605318176
 21
61979.18964841894
 31
0.0
 12
1043718.605318176
 22
61985.02298175228
 32
0.0
 13
1043718.605318176
 23
61985.02298175228
 33
0.0
  0
MTEXT
  5
14A
330
142
100
AcDbEntity
  8
BAR-GAL
 62
0
370
13
440
16777216
100
AcDbMText
 10
1043613.77495445
 20
62012.89303632253
 30
0.0
 40
35.0
 41
0.0
 46
0.0
 71
5
  1
210
  0
POINT
  5
14B
330
142
100
AcDbEntity
  8
Defpoints
 62
0
370
13
440
16777216
100
AcDbPoint
 10
1043508.944590724
 20
61954.4394527114
 30
0.0
  0
POINT
  5
14C
330
142
100
AcDbEntity
  8
Defpoints
 62
0
370
13
440
16777216
100
AcDbPoint
 10
1043718.605318176
 20
61953.16880857552
 30
0.0
  0
POINT
  5
14D
330
142
100
AcDbEntity
  8
Defpoints
 62
0
370
13
440
16777216
100
AcDbPoint
 10
1043718.605318176
 20
61985.02298175228
 30
0.0
  0
ENDBLK
  5
144
330
142
100
AcDbEntity
  8
0
100
AcDbBlockEnd
  0
BLOCK
  5
150
330
14F
100
AcDbEntity
  8
0
100
AcDbBlockBegin
  2
*D19
 70
1
 10
0.0
 20
0.0
 30
0.0
  3
*D19
  1

  0
LINE
  5
152
330
14F
100
AcDbEntity
  8
BAR-GAL
 62
0
370
-2
440
16777216
100
AcDbLine
 10
1043737.520037865
 20
61954.44072272056
 30
0.0
 11
1043791.61973123
 21
61954.44072272056
 31
0.0
  0
LINE
  5
153
330
14F
100
AcDbEntity
  8
BAR-GAL
 62
0
370
-2
440
16777216
100
AcDbLine
 10
1043740.272252376
 20
61709.53978189302
 30
0.0
 11
1043791.61973123
 21
61709.53978189302
 31
0.0
  0
LINE
  5
154
330
14F
100
AcDbEntity
  8
BAR-GAL
 62
0
370
-2
440
16777216
100
AcDbLine
 10
1043790.36973123
 20
61919.44072272056
 30
0.0
 11
1043790.36973123
 21
61744.53978189302
 31
0.0
  0
SOLID
  5
155
330
14F
100
AcDbEntity
  8
BAR-GAL
 62
0
370
13
440
16777216
100
AcDbTrace
 10
1043784.536397896
 20
61919.44072272056
 30
0.0
 11
1043796.203064563
 21
61919.44072272056
 31
0.0
 12
1043790.36973123
 22
61954.44072272056
 32
0.0
 13
1043790.36973123
 23
61954.44072272056
 33
0.0
  0
SOLID
  5
156
330
14F
100
AcDbEntity
  8
BAR-GAL
 62
0
370
13
440
16777216
100
AcDbTrace
 10
1043784.536397896
 20
61744.53978189302
 30
0.0
 11
1043796.203064563
 21
61744.53978189302
 31
0.0
 12
1043790.36973123
 22
61709.53978189302
 32
0.0
 13
1043790.36973123
 23
61709.53978189302
 33
0.0
  0
MTEXT
  5
157
330
14F
100
AcDbEntity
  8
BAR-GAL
 62
0
370
13
440
16777216
100
AcDbMText
 10
1043762.499676659
 20
61831.99025230647
 30
0.0
 40
35.0
 41
0.0
 46
0.0
 71
5
  1
245
 11
1e-16
 21
1.0
 31
0.0
  0
POINT
  5
158
330
14F
100
AcDbEntity
  8
Defpoints
 62
0
370
13
440
16777216
100
AcDbPoint
 10
1043736.895037865
 20
61954.44072272056
 30
0.0
  0
POINT
  5
159
330
14F
100
AcDbEntity
  8
Defpoints
 62
0
370
13
440
16777216
100
AcDbPoint
 10
1043739.647252376
 20
61709.53978189302
 30
0.0
  0
POINT
  5
15A
330
14F
100
AcDbEntity
  8
Defpoints
 62
0
370
13
440
16777216
100
AcDbPoint
 10
1043790.36973123
 20
61709.53978189302
 30
0.0
  0
ENDBLK
  5
151
330
14F
100
AcDbEntity
  8
0
100
AcDbBlockEnd
  0
BLOCK
  5
15D
330
15C
100
AcDbEntity
  8
0
100
AcDbBlockBegin
  2
*D20
 70
1
 10
0.0
 20
0.0
 30
0.0
  3
*D20
  1

  0
LINE
  5
15F
330
15C
100
AcDbEntity
  8
BAR-GAL
 62
0
370
-2
440
16777216
100
AcDbLine
 10
1043739.236105035
 20
61709.43945271143
 30
0.0
 11
1043791.619731231
 21
61709.43945271143
 31
0.0
  0
LINE
  5
160
330
15C
100
AcDbEntity
  8
BAR-GAL
 62
0
370
-2
440
16777216
100
AcDbLine
 10
1043738.419895519
 20
61474.65561710578
 30
0.0
 11
1043791.619731231
 21
61474.65561710578
 31
0.0
  0
LINE
  5
161
330
15C
100
AcDbEntity
  8
BAR-GAL
 62
0
370
-2
440
16777216
100
AcDbLine
 10
1043790.369731231
 20
61674.43945271142
 30
0.0
 11
1043790.369731231
 21
61509.65561710579
 31
0.0
  0
SOLID
  5
162
330
15C
100
AcDbEntity
  8
BAR-GAL
 62
0
370
13
440
16777216
100
AcDbTrace
 10
1043784.536397898
 20
61674.43945271142
 30
0.0
 11
1043796.203064565
 21
61674.43945271142
 31
0.0
 12
1043790.369731231
 22
61709.43945271143
 32
0.0
 13
1043790.369731231
 23
61709.43945271143
 33
0.0
  0
SOLID
  5
163
330
15C
100
AcDbEntity
  8
BAR-GAL
 62
0
370
13
440
16777216
100
AcDbTrace
 10
1043784.536397898
 20
61509.65561710579
 30
0.0
 11
1043796.203064565
 21
61509.65561710579
 31
0.0
 12
1043790.369731231
 22
61474.65561710578
 32
0.0
 13
1043790.369731231
 23
61474.65561710578
 33
0.0
  0
MTEXT
  5
164
330
15C
100
AcDbEntity
  8
BAR-GAL
 62
0
370
13
440
16777216
100
AcDbMText
 10
1043762.487739417
 20
61592.04753490829
 30
0.0
 40
35.0
 41
0.0
 46
0.0
 71
5
  1
235
 11
1e-16
 21
1.0
 31
0.0
  0
POINT
  5
165
330
15C
100
AcDbEntity
  8
Defpoints
 62
0
370
13
440
16777216
100
AcDbPoint
 10
1043738.611105035
 20
61709.43945271143
 30
0.0
  0
POINT
  5
166
330
15C
100
AcDbEntity
  8
Defpoints
 62
0
370
13
440
16777216
100
AcDbPoint
 10
1043737.794895519
 20
61474.65561710578
 30
0.0
  0
POINT
  5
167
330
15C
100
AcDbEntity
  8
Defpoints
 62
0
370
13
440
16777216
100
AcDbPoint
 10
1043790.369731231
 20
61474.65561710578
 30
0.0
  0
ENDBLK
  5
15E
330
15C
100
AcDbEntity
  8
0
100
AcDbBlockEnd
  0
BLOCK
  5
16C
330
16B
100
AcDbEntity
  8
0
100
AcDbBlockBegin
  2
*D21
 70
1
 10
0.0
 20
0.0
 30
0.0
  3
*D21
  1

  0
LINE
  5
16E
330
16B
100
AcDbEntity
  8
BAR-GAL
 62
0
370
-2
440
16777216
100
AcDbLine
 10
1043902.642496902
 20
61474.37854109353
 30
0.0
 11
1043970.447994724
 21
61474.37854109353
 31
0.0
  0
LINE
  5
16F
330
16B
100
AcDbEntity
  8
BAR-GAL
 62
0
370
-2
440
16777216
100
AcDbLine
 10
1043902.631318359
 20
61204.80268502674
 30
0.0
 11
1043970.447994724
 21
61204.80268502674
 31
0.0
  0
LINE
  5
170
330
16B
100
AcDbEntity
  8
BAR-GAL
 62
0
370
-2
440
16777216
100
AcDbLine
 10
1043969.197994724
 20
61439.37854109352
 30
0.0
 11
1043969.197994724
 21
61239.80268502674
 31
0.0
  0
SOLID
  5
171
330
16B
100
AcDbEntity
  8
BAR-GAL
 62
0
370
13
440
16777216
100
AcDbTrace
 10
1043963.36466139
 20
61439.37854109352
 30
0.0
 11
1043975.031328057
 21
61439.37854109352
 31
0.0
 12
1043969.197994724
 22
61474.37854109353
 32
0.0
 13
1043969.197994724
 23
61474.37854109353
 33
0.0
  0
SOLID
  5
172
330
16B
100
AcDbEntity
  8
BAR-GAL
 62
0
370
13
440
16777216
100
AcDbTrace
 10
1043963.36466139
 20
61239.80268502674
 30
0.0
 11
1043975.031328057
 21
61239.80268502674
 31
0.0
 12
1043969.197994724
 22
61204.80268502674
 32
0.0
 13
1043969.197994724
 23
61204.80268502674
 33
0.0
  0
MTEXT
  5
173
330
16B
100
AcDbEntity
  8
BAR-GAL
 62
0
370
13
440
16777216
100
AcDbMText
 10
1043941.327940153
 20
61339.59061305982
 30
0.0
 40
35.0
 41
0.0
 46
0.0
 71
5
  1
270
 11
1e-16
 21
1.0
 31
0.0
  0
POINT
  5
174
330
16B
100
AcDbEntity
  8
Defpoints
 62
0
370
13
440
16777216
100
AcDbPoint
 10
1043902.017496902
 20
61474.37854109353
 30
0.0
  0
POINT
  5
175
330
16B
100
AcDbEntity
  8
Defpoints
 62
0
370
13
440
16777216
100
AcDbPoint
 10
1043902.006318359
 20
61204.80268502674
 30
0.0
  0
POINT
  5
176
330
16B
100
AcDbEntity
  8
Defpoints
 62
0
370
13
440
16777216
100
AcDbPoint
 10
1043969.197994724
 20
61204.80268502674
 30
0.0
  0
ENDBLK
  5
16D
330
16B
100
AcDbEntity
  8
0
100
AcDbBlockEnd
  0
BLOCK
  5
17A
330
179
100
AcDbEntity
  8
0
100
AcDbBlockBegin
  2
*D22
 70
1
 10
0.0
 20
0.0
 30
0.0
  3
*D22
  1

  0
LINE
  5
17C
330
179
100
AcDbEntity
  8
BAR-GAL
 62
0
370
-2
440
16777216
100
AcDbLine
 10
1043510.006318358
 20
61205.56782513083
 30
0.0
 11
1043510.006318358
 21
61138.45703903998
 31
0.0
  0
LINE
  5
17D
330
179
100
AcDbEntity
  8
BAR-GAL
 62
0
370
-2
440
16777216
100
AcDbLine
 10
1043705.566738995
 20
61206.60680125794
 30
0.0
 11
1043705.566738995
 21
61138.45703903998
 31
0.0
  0
LINE
  5
17E
330
179
100
AcDbEntity
  8
BAR-GAL
 62
0
370
-2
440
16777216
100
AcDbLine
 10
1043545.006318358
 20
61139.70703903998
 30
0.0
 11
1043670.566738995
 21
61139.70703903998
 31
0.0
  0
SOLID
  5
17F
330
179
100
AcDbEntity
  8
BAR-GAL
 62
0
370
13
440
16777216
100
AcDbTrace
 10
1043545.006318358
 20
61145.54037237332
 30
0.0
 11
1043545.006318358
 21
61133.87370570665
 31
0.0
 12
1043510.006318358
 22
61139.70703903998
 32
0.0
 13
1043510.006318358
 23
61139.70703903998
 33
0.0
  0
SOLID
  5
180
330
179
100
AcDbEntity
  8
BAR-GAL
 62
0
370
13
440
16777216
100
AcDbTrace
 10
1043670.566738995
 20
61145.54037237332
 30
0.0
 11
1043670.566738995
 21
61133.87370570665
 31
0.0
 12
1043705.566738995
 22
61139.70703903998
 32
0.0
 13
1043705.566738995
 23
61139.70703903998
 33
0.0
  0
MTEXT
  5
181
330
179
100
AcDbEntity
  8
BAR-GAL
 62
0
370
13
440
16777216
100
AcDbMText
 10
1043607.786528676
 20
61167.57709361024
 30
0.0
 40
35.0
 41
0.0
 46
0.0
 71
5
  1
196
  0
POINT
  5
182
330
179
100
AcDbEntity
  8
Defpoints
 62
0
370
13
440
16777216
100
AcDbPoint
 10
1043510.006318358
 20
61206.19282513083
 30
0.0
  0
POINT
  5
183
330
179
100
AcDbEntity
  8
Defpoints
 62
0
370
13
440
16777216
100
AcDbPoint
 10
1043705.566738995
 20
61207.23180125794
 30
0.0
  0
POINT
  5
184
330
179
100
AcDbEntity
  8
Defpoints
 62
0
370
13
440
16777216
100
AcDbPoint
 10
1043705.566738995
 20
61139.70703903998
 30
0.0
  0
ENDBLK
  5
17B
330
179
100
AcDbEntity
  8
0
100
AcDbBlockEnd
  0
BLOCK
  5
187
330
186
100
AcDbEntity
  8
0
100
AcDbBlockBegin
  2
*D23
 70
1
 10
0.0
 20
0.0
 30
0.0
  3
*D23
  1

  0
LINE
  5
189
330
186
100
AcDbEntity
  8
BAR-GAL
 62
0
370
-2
440
16777216
100
AcDbLine
 10
1043705.566738995
 20
61206.60680125794
 30
0.0
 11
1043705.566738995
 21
61138.45703903998
 31
0.0
  0
LINE
  5
18A
330
186
100
AcDbEntity
  8
BAR-GAL
 62
0
370
-2
440
16777216
100
AcDbLine
 10
1043902.017496902
 20
61205.14152978435
 30
0.0
 11
1043902.017496902
 21
61138.45703903998
 31
0.0
  0
LINE
  5
18B
330
186
100
AcDbEntity
  8
BAR-GAL
 62
0
370
-2
440
16777216
100
AcDbLine
 10
1043740.566738995
 20
61139.70703903998
 30
0.0
 11
1043867.017496902
 21
61139.70703903998
 31
0.0
  0
SOLID
  5
18C
330
186
100
AcDbEntity
  8
BAR-GAL
 62
0
370
13
440
16777216
100
AcDbTrace
 10
1043740.566738995
 20
61145.54037237332
 30
0.0
 11
1043740.566738995
 21
61133.87370570665
 31
0.0
 12
1043705.566738995
 22
61139.70703903998
 32
0.0
 13
1043705.566738995
 23
61139.70703903998
 33
0.0
  0
SOLID
  5
18D
330
186
100
AcDbEntity
  8
BAR-GAL
 62
0
370
13
440
16777216
100
AcDbTrace
 10
1043867.017496902
 20
61145.54037237332
 30
0.0
 11
1043867.017496902
 21
61133.87370570665
 31
0.0
 12
1043902.017496902
 22
61139.70703903998
 32
0.0
 13
1043902.017496902
 23
61139.70703903998
 33
0.0
  0
MTEXT
  5
18E
330
186
100
AcDbEntity
  8
BAR-GAL
 62
0
370
13
440
16777216
100
AcDbMText
 10
1043803.792117948
 20
61167.57709361024
 30
0.0
 40
35.0
 41
0.0
 46
0.0
 71
5
  1
196
  0
POINT
  5
18F
330
186
100
AcDbEntity
  8
Defpoints
 62
0
370
13
440
16777216
100
AcDbPoint
 10
1043705.566738995
 20
61207.23180125794
 30
0.0
  0
POINT
  5
190
330
186
100
AcDbEntity
  8
Defpoints
 62
0
370
13
440
16777216
100
AcDbPoint
 10
1043902.017496902
 20
61205.76652978435
 30
0.0
  0
POINT
  5
191
330
186
100
AcDbEntity
  8
Defpoints
 62
0
370
13
440
16777216
100
AcDbPoint
 10
1043902.017496902
 20
61139.70703903998
 30
0.0
  0
ENDBLK
  5
188
330
186
100
AcDbEntity
  8
0
100
AcDbBlockEnd
  0
BLOCK
  5
1A6
330
1A5
100
AcDbEntity
  8
0
100
AcDbBlockBegin
  2
*D24
 70
1
 10
0.0
 20
0.0
 30
0.0
  3
*D24
  1

  0
LINE
  5
1A8
330
1A5
100
AcDbEntity
  8
BAR-GAL
 62
0
370
-2
440
16777216
100
AcDbLine
 10
1042110.028262575
 20
60091.12528293985
 30
0.0
 11
1042110.028262575
 21
60138.01655241094
 31
0.0
  0
LINE
  5
1A9
330
1A5
100
AcDbEntity
  8
BAR-GAL
 62
0
370
-2
440
16777216
100
AcDbLine
 10
1042455.028262575
 20
60091.54321820418
 30
0.0
 11
1042455.028262575
 21
60138.01655241094
 31
0.0
  0
LINE
  5
1AA
330
1A5
100
AcDbEntity
  8
BAR-GAL
 62
0
370
-2
440
16777216
100
AcDbLine
 10
1042140.028262575
 20
60136.76655241094
 30
0.0
 11
1042425.028262575
 21
60136.76655241094
 31
0.0
  0
SOLID
  5
1AB
330
1A5
100
AcDbEntity
  8
BAR-GAL
 62
0
370
13
440
16777216
100
AcDbTrace
 10
1042140.028262575
 20
60141.76655241094
 30
0.0
 11
1042140.028262575
 21
60131.76655241093
 31
0.0
 12
1042110.028262575
 22
60136.76655241094
 32
0.0
 13
1042110.028262575
 23
60136.76655241094
 33
0.0
  0
SOLID
  5
1AC
330
1A5
100
AcDbEntity
  8
BAR-GAL
 62
0
370
13
440
16777216
100
AcDbTrace
 10
1042425.028262575
 20
60141.76655241094
 30
0.0
 11
1042425.028262575
 21
60131.76655241093
 31
0.0
 12
1042455.028262575
 22
60136.76655241094
 32
0.0
 13
1042455.028262575
 23
60136.76655241094
 33
0.0
  0
MTEXT
  5
1AD
330
1A5
100
AcDbEntity
  8
BAR-GAL
 62
0
370
13
440
16777216
100
AcDbMText
 10
1042282.528262574
 20
60162.09397396619
 30
0.0
 40
30.0
 41
0.0
 46
0.0
 71
5
  1
345
  0
POINT
  5
1AE
330
1A5
100
AcDbEntity
  8
Defpoints
 62
0
370
13
440
16777216
100
AcDbPoint
 10
1042110.028262575
 20
60090.50028293985
 30
0.0
  0
POINT
  5
1AF
330
1A5
100
AcDbEntity
  8
Defpoints
 62
0
370
13
440
16777216
100
AcDbPoint
 10
1042455.028262575
 20
60090.91821820418
 30
0.0
  0
POINT
  5
1B0
330
1A5
100
AcDbEntity
  8
Defpoints
 62
0
370
13
440
16777216
100
AcDbPoint
 10
1042455.028262575
 20
60136.76655241094
 30
0.0
  0
ENDBLK
  5
1A7
330
1A5
100
AcDbEntity
  8
0
100
AcDbBlockEnd
  0
BLOCK
  5
1B3
330
1B2
100
AcDbEntity
  8
0
100
AcDbBlockBegin
  2
*D25
 70
1
 10
0.0
 20
0.0
 30
0.0
  3
*D25
  1

  0
LINE
  5
1B5
330
1B2
100
AcDbEntity
  8
BAR-GAL
 62
0
370
-2
440
16777216
100
AcDbLine
 10
1042110.028262575
 20
59634.77660368515
 30
0.0
 11
1042110.028262575
 21
59673.02146768316
 31
0.0
  0
LINE
  5
1B6
330
1B2
100
AcDbEntity
  8
BAR-GAL
 62
0
370
-2
440
16777216
100
AcDbLine
 10
1042558.028262575
 20
59634.77660368515
 30
0.0
 11
1042558.028262575
 21
59673.02146768316
 31
0.0
  0
LINE
  5
1B7
330
1B2
100
AcDbEntity
  8
BAR-GAL
 62
0
370
-2
440
16777216
100
AcDbLine
 10
1042140.028262575
 20
59671.77146768317
 30
0.0
 11
1042528.028262575
 21
59671.77146768317
 31
0.0
  0
SOLID
  5
1B8
330
1B2
100
AcDbEntity
  8
BAR-GAL
 62
0
370
13
440
16777216
100
AcDbTrace
 10
1042140.028262575
 20
59676.77146768316
 30
0.0
 11
1042140.028262575
 21
59666.77146768317
 31
0.0
 12
1042110.028262575
 22
59671.77146768317
 32
0.0
 13
1042110.028262575
 23
59671.77146768317
 33
0.0
  0
SOLID
  5
1B9
330
1B2
100
AcDbEntity
  8
BAR-GAL
 62
0
370
13
440
16777216
100
AcDbTrace
 10
1042528.028262575
 20
59676.77146768316
 30
0.0
 11
1042528.028262575
 21
59666.77146768317
 31
0.0
 12
1042558.028262575
 22
59671.77146768317
 32
0.0
 13
1042558.028262575
 23
59671.77146768317
 33
0.0
  0
MTEXT
  5
1BA
330
1B2
100
AcDbEntity
  8
BAR-GAL
 62
0
370
13
440
16777216
100
AcDbMText
 10
1042334.028262575
 20
59697.08865731481
 30
0.0
 40
30.0
 41
0.0
 46
0.0
 71
5
  1
448
  0
POINT
  5
1BB
330
1B2
100
AcDbEntity
  8
Defpoints
 62
0
370
13
440
16777216
100
AcDbPoint
 10
1042110.028262575
 20
59634.15160368515
 30
0.0
  0
POINT
  5
1BC
330
1B2
100
AcDbEntity
  8
Defpoints
 62
0
370
13
440
16777216
100
AcDbPoint
 10
1042558.028262575
 20
59634.15160368515
 30
0.0
  0
POINT
  5
1BD
330
1B2
100
AcDbEntity
  8
Defpoints
 62
0
370
13
440
16777216
100
AcDbPoint
 10
1042558.028262575
 20
59671.77146768317
 30
0.0
  0
ENDBLK
  5
1B4
330
1B2
100
AcDbEntity
  8
0
100
AcDbBlockEnd
  0
BLOCK
  5
1C1
330
1C0
100
AcDbEntity
  8
0
100
AcDbBlockBegin
  2
*D26
 70
1
 10
0.0
 20
0.0
 30
0.0
  3
*D26
  1

  0
LINE
  5
1C3
330
1C0
100
AcDbEntity
  8
BAR-GAL
 62
0
370
-2
440
16777216
100
AcDbLine
 10
1042558.653262575
 20
59634.15160368518
 30
0.0
 11
1042621.190103821
 21
59634.15160368518
 31
0.0
  0
LINE
  5
1C4
330
1C0
100
AcDbEntity
  8
BAR-GAL
 62
0
370
-2
440
16777216
100
AcDbLine
 10
1042558.653262575
 20
59864.35364326459
 30
0.0
 11
1042621.190103821
 21
59864.35364326459
 31
0.0
  0
LINE
  5
1C5
330
1C0
100
AcDbEntity
  8
BAR-GAL
 62
0
370
-2
440
16777216
100
AcDbLine
 10
1042619.940103821
 20
59664.15160368518
 30
0.0
 11
1042619.940103821
 21
59834.35364326459
 31
0.0
  0
SOLID
  5
1C6
330
1C0
100
AcDbEntity
  8
BAR-GAL
 62
0
370
13
440
16777216
100
AcDbTrace
 10
1042614.940103821
 20
59664.15160368518
 30
0.0
 11
1042624.940103821
 21
59664.15160368518
 31
0.0
 12
1042619.940103821
 22
59634.15160368518
 32
0.0
 13
1042619.940103821
 23
59634.15160368518
 33
0.0
  0
SOLID
  5
1C7
330
1C0
100
AcDbEntity
  8
BAR-GAL
 62
0
370
13
440
16777216
100
AcDbTrace
 10
1042614.940103821
 20
59834.35364326459
 30
0.0
 11
1042624.940103821
 21
59834.35364326459
 31
0.0
 12
1042619.940103821
 22
59864.35364326459
 32
0.0
 13
1042619.940103821
 23
59864.35364326459
 33
0.0
  0
MTEXT
  5
1C8
330
1C0
100
AcDbEntity
  8
BAR-GAL
 62
0
370
13
440
16777216
100
AcDbMText
 10
1042594.612682265
 20
59749.25262347457
 30
0.0
 40
30.0
 41
0.0
 46
0.0
 71
5
  1
230
 11
1e-16
 21
1.0
 31
0.0
  0
POINT
  5
1C9
330
1C0
100
AcDbEntity
  8
Defpoints
 62
0
370
13
440
16777216
100
AcDbPoint
 10
1042558.028262575
 20
59634.15160368518
 30
0.0
  0
POINT
  5
1CA
330
1C0
100
AcDbEntity
  8
Defpoints
 62
0
370
13
440
16777216
100
AcDbPoint
 10
1042558.028262575
 20
59864.35364326459
 30
0.0
  0
POINT
  5
1CB
330
1C0
100
AcDbEntity
  8
Defpoints
 62
0
370
13
440
16777216
100
AcDbPoint
 10
1042619.940103821
 20
59864.35364326459
 30
0.0
  0
ENDBLK
  5
1C2
330
1C0
100
AcDbEntity
  8
0
100
AcDbBlockEnd
  0
BLOCK
  5
1CE
330
1CD
100
AcDbEntity
  8
0
100
AcDbBlockBegin
  2
*D27
 70
1
 10
0.0
 20
0.0
 30
0.0
  3
*D27
  1

  0
LINE
  5
1D0
330
1CD
100
AcDbEntity
  8
BAR-GAL
 62
0
370
-2
440
16777216
100
AcDbLine
 10
1042558.653262575
 20
59864.35364326459
 30
0.0
 11
1042621.190103822
 21
59864.35364326459
 31
0.0
  0
LINE
  5
1D1
330
1CD
100
AcDbEntity
  8
BAR-GAL
 62
0
370
-2
440
16777216
100
AcDbLine
 10
1042455.653262575
 20
60088.91821820421
 30
0.0
 11
1042621.190103822
 21
60088.91821820421
 31
0.0
  0
LINE
  5
1D2
330
1CD
100
AcDbEntity
  8
BAR-GAL
 62
0
370
-2
440
16777216
100
AcDbLine
 10
1042619.940103822
 20
59894.35364326459
 30
0.0
 11
1042619.940103822
 21
60058.91821820421
 31
0.0
  0
SOLID
  5
1D3
330
1CD
100
AcDbEntity
  8
BAR-GAL
 62
0
370
13
440
16777216
100
AcDbTrace
 10
1042614.940103822
 20
59894.35364326459
 30
0.0
 11
1042624.940103822
 21
59894.35364326459
 31
0.0
 12
1042619.940103822
 22
59864.35364326459
 32
0.0
 13
1042619.940103822
 23
59864.35364326459
 33
0.0
  0
SOLID
  5
1D4
330
1CD
100
AcDbEntity
  8
BAR-GAL
 62
0
370
13
440
16777216
100
AcDbTrace
 10
1042614.940103822
 20
60058.91821820421
 30
0.0
 11
1042624.940103822
 21
60058.91821820421
 31
0.0
 12
1042619.940103822
 22
60088.91821820421
 32
0.0
 13
1042619.940103822
 23
60088.91821820421
 33
0.0
  0
MTEXT
  5
1D5
330
1CD
100
AcDbEntity
  8
BAR-GAL
 62
0
370
13
440
16777216
100
AcDbMText
 10
1042594.62291419
 20
59976.63593073409
 30
0.0
 40
30.0
 41
0.0
 46
0.0
 71
5
  1
225
 11
1e-16
 21
1.0
 31
0.0
  0
POINT
  5
1D6
330
1CD
100
AcDbEntity
  8
Defpoints
 62
0
370
13
440
16777216
100
AcDbPoint
 10
1042558.028262575
 20
59864.35364326459
 30
0.0
  0
POINT
  5
1D7
330
1CD
100
AcDbEntity
  8
Defpoints
 62
0
370
13
440
16777216
100
AcDbPoint
 10
1042455.028262575
 20
60088.91821820421
 30
0.0
  0
POINT
  5
1D8
330
1CD
100
AcDbEntity
  8
Defpoints
 62
0
370
13
440
16777216
100
AcDbPoint
 10
1042619.940103822
 20
60088.91821820421
 30
0.0
  0
ENDBLK
  5
1CF
330
1CD
100
AcDbEntity
  8
0
100
AcDbBlockEnd
  0
BLOCK
  5
1DD
330
1DC
100
AcDbEntity
  8
0
100
AcDbBlockBegin
  2
*D28
 70
1
 10
0.0
 20
0.0
 30
0.0
  3
*D28
  1

  0
LINE
  5
1DF
330
1DC
100
AcDbEntity
  8
BAR-GAL
 62
0
370
-2
440
16777216
100
AcDbLine
 10
1042959.679456025
 20
60288.54252878844
 30
0.0
 11
1042888.564789347
 21
60288.54252878844
 31
0.0
  0
LINE
  5
1E0
330
1DC
100
AcDbEntity
  8
BAR-GAL
 62
0
370
-2
440
16777216
100
AcDbLine
 10
1042959.679456025
 20
59976.19692110348
 30
0.0
 11
1042888.564789347
 21
59976.19692110348
 31
0.0
  0
LINE
  5
1E1
330
1DC
100
AcDbEntity
  8
BAR-GAL
 62
0
370
-2
440
16777216
100
AcDbLine
 10
1042889.814789347
 20
60258.54252878845
 30
0.0
 11
1042889.814789347
 21
60006.19692110348
 31
0.0
  0
SOLID
  5
1E2
330
1DC
100
AcDbEntity
  8
BAR-GAL
 62
0
370
13
440
16777216
100
AcDbTrace
 10
1042884.814789347
 20
60258.54252878845
 30
0.0
 11
1042894.814789347
 21
60258.54252878845
 31
0.0
 12
1042889.814789347
 22
60288.54252878844
 32
0.0
 13
1042889.814789347
 23
60288.54252878844
 33
0.0
  0
SOLID
  5
1E3
330
1DC
100
AcDbEntity
  8
BAR-GAL
 62
0
370
13
440
16777216
100
AcDbTrace
 10
1042884.814789347
 20
60006.19692110348
 30
0.0
 11
1042894.814789347
 21
60006.19692110348
 31
0.0
 12
1042889.814789347
 22
59976.19692110348
 32
0.0
 13
1042889.814789347
 23
59976.19692110348
 33
0.0
  0
MTEXT
  5
1E4
330
1DC
100
AcDbEntity
  8
BAR-GAL
 62
0
370
13
440
16777216
100
AcDbMText
 10
1042864.487367791
 20
60132.36972494565
 30
0.0
 40
30.0
 41
0.0
 46
0.0
 71
5
  1
312
 11
1e-16
 21
1.0
 31
0.0
  0
POINT
  5
1E5
330
1DC
100
AcDbEntity
  8
Defpoints
 62
0
370
13
440
16777216
100
AcDbPoint
 10
1042960.304456025
 20
60288.54252878844
 30
0.0
  0
POINT
  5
1E6
330
1DC
100
AcDbEntity
  8
Defpoints
 62
0
370
13
440
16777216
100
AcDbPoint
 10
1042960.304456025
 20
59976.19692110348
 30
0.0
  0
POINT
  5
1E7
330
1DC
100
AcDbEntity
  8
Defpoints
 62
0
370
13
440
16777216
100
AcDbPoint
 10
1042889.814789347
 20
59976.19692110348
 30
0.0
  0
ENDBLK
  5
1DE
330
1DC
100
AcDbEntity
  8
0
100
AcDbBlockEnd
  0
BLOCK
  5
1EB
330
1EA
100
AcDbEntity
  8
0
100
AcDbBlockBegin
  2
*D29
 70
1
 10
0.0
 20
0.0
 30
0.0
  3
*D29
  1

  0
LINE
  5
1ED
330
1EA
100
AcDbEntity
  8
BAR-GAL
 62
0
370
-2
440
16777216
100
AcDbLine
 10
1042960.304456025
 20
59974.63116283346
 30
0.0
 11
1042960.304456025
 21
59914.1998443345
 31
0.0
  0
LINE
  5
1EE
330
1EA
100
AcDbEntity
  8
BAR-GAL
 62
0
370
-2
440
16777216
100
AcDbLine
 10
1043158.212518975
 20
59975.57192110345
 30
0.0
 11
1043158.212518975
 21
59914.1998443345
 31
0.0
  0
LINE
  5
1EF
330
1EA
100
AcDbEntity
  8
BAR-GAL
 62
0
370
-2
440
16777216
100
AcDbLine
 10
1042990.304456025
 20
59915.44984433451
 30
0.0
 11
1043128.212518975
 21
59915.44984433451
 31
0.0
  0
SOLID
  5
1F0
330
1EA
100
AcDbEntity
  8
BAR-GAL
 62
0
370
13
440
16777216
100
AcDbTrace
 10
1042990.304456025
 20
59920.44984433451
 30
0.0
 11
1042990.304456025
 21
59910.4498443345
 31
0.0
 12
1042960.304456025
 22
59915.44984433451
 32
0.0
 13
1042960.304456025
 23
59915.44984433451
 33
0.0
  0
SOLID
  5
1F1
330
1EA
100
AcDbEntity
  8
BAR-GAL
 62
0
370
13
440
16777216
100
AcDbTrace
 10
1043128.212518975
 20
59920.44984433451
 30
0.0
 11
1043128.212518975
 21
59910.4498443345
 31
0.0
 12
1043158.212518975
 22
59915.44984433451
 32
0.0
 13
1043158.212518975
 23
59915.44984433451
 33
0.0
  0
MTEXT
  5
1F2
330
1EA
100
AcDbEntity
  8
BAR-GAL
 62
0
370
13
440
16777216
100
AcDbMText
 10
1043059.2584875
 20
59940.76703396616
 30
0.0
 40
30.0
 41
0.0
 46
0.0
 71
5
  1
198
  0
POINT
  5
1F3
330
1EA
100
AcDbEntity
  8
Defpoints
 62
0
370
13
440
16777216
100
AcDbPoint
 10
1042960.304456025
 20
59975.25616283346
 30
0.0
  0
POINT
  5
1F4
330
1EA
100
AcDbEntity
  8
Defpoints
 62
0
370
13
440
16777216
100
AcDbPoint
 10
1043158.212518975
 20
59976.19692110346
 30
0.0
  0
POINT
  5
1F5
330
1EA
100
AcDbEntity
  8
Defpoints
 62
0
370
13
440
16777216
100
AcDbPoint
 10
1043158.212518975
 20
59915.44984433451
 30
0.0
  0
ENDBLK
  5
1EC
330
1EA
100
AcDbEntity
  8
0
100
AcDbBlockEnd
  0
ENDSEC
  0
SECTION
  2
ENTITIES
  0
LWPOLYLINE
  5
35
330
17
100
AcDbEntity
  8
0
370
13
100
AcDbPolyline
 90
4
 70
1
 43
4.114242282453472
 10
1046219.293554302
 20
59337.5176859031
 10
1039978.019814054
 20
59337.5176859031
 10
1039978.019814054
 20
64276.62252337301
 10
1046219.293554302
 20
64276.62252337301
  0
LWPOLYLINE
  5
36
330
17
100
AcDbEntity
  8
BAR-GAL
 62
7
370
13
100
AcDbPolyline
 90
4
 70
1
 43
17.0
 10
1044443.616432034
 20
59637.95157913357
 10
1042110.028262575
 20
59637.95157913357
 10
1042110.028262575
 20
64044.44394975645
 10
1044443.616432034
 20
64044.44394975645
  0
DIMENSION
  5
37
330
17
100
AcDbEntity
  8
BAR-GAL
 62
7
370
13
100
AcDbDimension
280
0
  2
*D1
  3
ISO-25
 10
1044443.676391407
 20
59455.25592877516
 30
0.0
 11
1043276.85232699
 21
59483.13792058962
 31
0.0
 70
32
 71
5
 42
2333.648128831992
 73
0
 74
0
 75
0
100
AcDbAlignedDimension
 13
1042110.028262575
 23
59691.26553567438
 33
0.0
 14
1044443.676391407
 24
59713.06905244075
 34
0.0
 50
0.0
100
AcDbRotatedDimension
1001
ACAD
1000
DSTYLE
1002
{
1070
41
1040
35.0
1070
140
1040
35.0
1002
}
  0
DIMENSION
  5
44
330
17
100
AcDbEntity
  8
BAR-GAL
 62
7
370
13
100
AcDbDimension
280
0
  2
*D2
  3
ISO-25
 10
1041898.272348582
 20
64041.68802994154
 30
0.0
 11
1041870.402294011
 21
61839.37333117544
 31
0.0
 70
32
 71
5
 42
4404.629397531556
 73
0
 74
0
 75
0
100
AcDbAlignedDimension
 13
1042110.028262575
 23
59637.05863240995
 33
0.0
 14
1042110.028262575
 24
64041.6880299415
 34
0.0
 50
90.0
100
AcDbRotatedDimension
1001
ACAD
1000
DSTYLE
1002
{
1070
41
1040
35.0
1070
140
1040
35.0
1002
}
  0
DIMENSION
  5
51
102
{ACAD_XDICTIONARY
360
52
102
}
330
17
100
AcDbEntity
  8
BAR-GAL
 62
7
370
13
100
AcDbDimension
280
0
  2
*D3
  3
ISO-25
 10
1044590.336601205
 20
64044.44394975648
 30
0.0
 11
1044562.466546634
 21
61841.69776444472
 31
0.0
 70
32
 71
5
 42
4405.492370622879
 73
0
 74
0
 75
0
100
AcDbAlignedDimension
 13
1044442.597438901
 23
59638.95157913357
 33
0.0
 14
1044443.616432034
 24
64044.44394975645
 34
0.0
 50
90.0
100
AcDbRotatedDimension
1001
ACAD
1000
DSTYLE
1002
{
1070
41
1040
35.0
1070
140
1040
35.0
1002
}
  0
DIMENSION
  5
5F
330
17
100
AcDbEntity
  8
BAR-GAL
 62
7
370
13
100
AcDbDimension
280
0
  2
*D4
  3
ISO-25
 10
1044442.830635563
 20
64135.41334564768
 30
0.0
 11
1043276.429449069
 21
64163.29533746213
 31
0.0
 70
32
 71
5
 42
2332.802372988314
 73
0
 74
0
 75
0
100
AcDbAlignedDimension
 13
1042110.028262575
 23
64041.6880299415
 33
0.0
 14
1044442.830635563
 24
64037.47547989066
 34
0.0
 50
0.0
100
AcDbRotatedDimension
1001
ACAD
1000
DSTYLE
1002
{
1070
140
1040
35.0
1070
41
1040
35.0
1002
}
  0
LWPOLYLINE
  5
6C
330
17
100
AcDbEntity
  8
BAR-GAL
 62
7
370
13
100
AcDbPolyline
 90
5
 70
0
 43
17.0
 10
1043059.5531142
 20
62308.11610940873
 10
1043059.5531142
 20
61523.27008262163
 10
1043339.156781321
 20
61523.27008262163
 10
1043339.582222369
 20
61913.15060950926
 10
1043059.5531142
 20
61911.88190620287
  0
LWPOLYLINE
  5
6D
330
17
100
AcDbEntity
  8
BAR-GAL
 62
7
370
13
100
AcDbPolyline
 90
4
 70
1
 43
5.0
 10
1043088.112048313
 20
62289.22872941554
 10
1043240.933311865
 20
62289.22872941554
 10
1043240.933311865
 20
62149.13580049357
 10
1043088.112048313
 20
62149.13580049357
  0
LWPOLYLINE
  5
6E
330
17
100
AcDbEntity
  8
BAR-GAL
 62
7
370
13
100
AcDbPolyline
 90
4
 70
1
 43
5.0
 10
1043259.253191328
 20
62289.22872941554
 10
1043412.074455118
 20
62289.22872941554
 10
1043412.074455118
 20
62149.13580049357
 10
1043259.253191328
 20
62149.13580049357
  0
LINE
  5
6F
330
17
100
AcDbEntity
  8
BAR-GAL
 62
7
370
13
100
AcDbLine
 10
1043088.112048313
 20
62289.22872941554
 30
0.0
 11
1043240.933311865
 21
62149.13580049357
 31
0.0
  0
LINE
  5
70
330
17
100
AcDbEntity
  8
BAR-GAL
 62
7
370
13
100
AcDbLine
 10
1043240.933311865
 20
62289.22872941554
 30
0.0
 11
1043088.112048313
 21
62149.13580049357
 31
0.0
  0
LINE
  5
71
330
17
100
AcDbEntity
  8
BAR-GAL
 62
7
370
13
100
AcDbLine
 10
1043259.253191328
 20
62289.22872941554
 30
0.0
 11
1043412.074455118
 21
62149.13580049357
 31
0.0
  0
LINE
  5
72
330
17
100
AcDbEntity
  8
BAR-GAL
 62
7
370
13
100
AcDbLine
 10
1043412.074455118
 20
62289.22872941554
 30
0.0
 11
1043259.253191328
 21
62149.13580049357
 31
0.0
  0
LWPOLYLINE
  5
73
330
17
100
AcDbEntity
  8
BAR-GAL
 62
7
370
13
100
AcDbPolyline
 90
4
 70
1
 43
5.0
 10
1043168.93181124
 20
61795.70840596614
 10
1043229.423561481
 20
61795.70840596614
 10
1043229.423561481
 20
61633.32796562476
 10
1043168.93181124
 20
61633.32796562476
  0
LINE
  5
74
330
17
100
AcDbEntity
  8
BAR-GAL
 62
7
370
13
100
AcDbLine
 10
1043168.93181124
 20
61795.70840596614
 30
0.0
 11
1043168.93181124
 21
61913.15060950926
 31
0.0
  0
LINE
  5
75
330
17
100
AcDbEntity
  8
BAR-GAL
 62
7
370
13
100
AcDbLine
 10
1043198.93181124
 20
61795.70840596614
 30
0.0
 11
1043198.93181124
 21
61913.15060950926
 31
0.0
  0
LINE
  5
76
330
17
100
AcDbEntity
  8
BAR-GAL
 62
7
370
13
100
AcDbLine
 10
1043228.93181124
 20
61795.70840596614
 30
0.0
 11
1043228.93181124
 21
61913.15060950926
 31
0.0
  0
LINE
  5
77
330
17
100
AcDbEntity
  8
BAR-GAL
 62
7
370
13
100
AcDbLine
 10
1043168.93181124
 20
61789.14491671628
 30
0.0
 11
1043059.757436572
 21
61789.14491671628
 31
0.0
  0
LINE
  5
78
330
17
100
AcDbEntity
  8
BAR-GAL
 62
7
370
13
100
AcDbLine
 10
1043168.93181124
 20
61759.14491671628
 30
0.0
 11
1043059.757436572
 21
61759.14491671628
 31
0.0
  0
LINE
  5
79
330
17
100
AcDbEntity
  8
BAR-GAL
 62
7
370
13
100
AcDbLine
 10
1043168.93181124
 20
61729.14491671628
 30
0.0
 11
1043059.757436572
 21
61729.14491671628
 31
0.0
  0
LINE
  5
7A
330
17
100
AcDbEntity
  8
BAR-GAL
 62
7
370
13
100
AcDbLine
 10
1043168.93181124
 20
61699.14491671628
 30
0.0
 11
1043059.757436572
 21
61699.14491671628
 31
0.0
  0
LINE
  5
7B
330
17
100
AcDbEntity
  8
BAR-GAL
 62
7
370
13
100
AcDbLine
 10
1043168.93181124
 20
61669.14491671628
 30
0.0
 11
1043059.757436572
 21
61669.14491671628
 31
0.0
  0
LINE
  5
7C
330
17
100
AcDbEntity
  8
BAR-GAL
 62
7
370
13
100
AcDbLine
 10
1043168.93181124
 20
61639.14491671627
 30
0.0
 11
1043059.757436572
 21
61639.14491671627
 31
0.0
  0
LINE
  5
7D
330
17
100
AcDbEntity
  8
BAR-GAL
 62
7
370
13
100
AcDbLine
 10
1043168.93181124
 20
61515.88576208165
 30
0.0
 11
1043168.93181124
 21
61633.32796562476
 31
0.0
  0
LINE
  5
7E
330
17
100
AcDbEntity
  8
BAR-GAL
 62
7
370
13
100
AcDbLine
 10
1043198.93181124
 20
61515.88576208165
 30
0.0
 11
1043198.93181124
 21
61633.32796562476
 31
0.0
  0
LINE
  5
7F
330
17
100
AcDbEntity
  8
BAR-GAL
 62
7
370
13
100
AcDbLine
 10
1043228.93181124
 20
61515.88576208165
 30
0.0
 11
1043228.93181124
 21
61633.32796562476
 31
0.0
  0
LINE
  5
80
330
17
100
AcDbEntity
  8
BAR-GAL
 62
7
370
13
100
AcDbLine
 10
1043339.582222369
 20
61789.14491671628
 30
0.0
 11
1043230.407847701
 21
61789.14491671628
 31
0.0
  0
LINE
  5
81
330
17
100
AcDbEntity
  8
BAR-GAL
 62
7
370
13
100
AcDbLine
 10
1043339.582222369
 20
61759.14491671628
 30
0.0
 11
1043230.407847701
 21
61759.14491671628
 31
0.0
  0
LINE
  5
82
330
17
100
AcDbEntity
  8
BAR-GAL
 62
7
370
13
100
AcDbLine
 10
1043339.582222369
 20
61729.14491671628
 30
0.0
 11
1043230.407847701
 21
61729.14491671628
 31
0.0
  0
LINE
  5
83
330
17
100
AcDbEntity
  8
BAR-GAL
 62
7
370
13
100
AcDbLine
 10
1043339.582222369
 20
61699.14491671628
 30
0.0
 11
1043230.407847701
 21
61699.14491671628
 31
0.0
  0
LINE
  5
84
330
17
100
AcDbEntity
  8
BAR-GAL
 62
7
370
13
100
AcDbLine
 10
1043339.582222369
 20
61669.14491671628
 30
0.0
 11
1043230.407847701
 21
61669.14491671628
 31
0.0
  0
LINE
  5
85
330
17
100
AcDbEntity
  8
BAR-GAL
 62
7
370
13
100
AcDbLine
 10
1043339.582222369
 20
61639.14491671627
 30
0.0
 11
1043230.407847701
 21
61639.14491671627
 31
0.0
  0
LWPOLYLINE
  5
86
330
17
100
AcDbEntity
  8
BAR-GAL
 62
7
370
13
100
AcDbPolyline
 90
4
 70
1
 43
5.0
 10
1043059.5531142
 20
61522.82807581142
 10
1043301.54032945
 20
61522.82807581142
 10
1043301.54032945
 20
61462.58675861001
 10
1043059.5531142
 20
61462.58675861001
  0
LWPOLYLINE
  5
87
330
17
100
AcDbEntity
  8
BAR-GAL
 62
7
370
13
100
AcDbPolyline
 90
2
 70
0
 43
5.0
 10
1043176.716082969
 20
61522.82807581142
 10
1043176.716082969
 20
61463.58675861002
  0
LWPOLYLINE
  5
88
330
17
100
AcDbEntity
  8
BAR-GAL
 62
7
370
13
100
AcDbPolyline
 90
2
 70
0
 43
20.0
 10
1043301.54032945
 20
61522.17107434101
 10
1043301.54032945
 20
61462.58675861001
  0
LINE
  5
89
330
17
100
AcDbEntity
  8
BAR-GAL
 62
7
370
13
100
AcDbLine
 10
1043059.5531142
 20
61522.82807581142
 30
0.0
 11
1043176.716082969
 21
61463.58675861002
 31
0.0
  0
LINE
  5
8A
330
17
100
AcDbEntity
  8
BAR-GAL
 62
7
370
13
100
AcDbLine
 10
1043176.716082969
 20
61463.58675861002
 30
0.0
 11
1043301.54032945
 21
61522.17107434101
 31
0.0
  0
LINE
  5
8B
330
17
100
AcDbEntity
  8
BAR-GAL
 62
7
370
13
100
AcDbLine
 10
1043301.54032945
 20
61463.58675861001
 30
0.0
 11
1043176.716082969
 21
61522.82807581142
 31
0.0
  0
LINE
  5
8C
330
17
100
AcDbEntity
  8
BAR-GAL
 62
7
370
13
100
AcDbLine
 10
1043176.716082969
 20
61522.82807581142
 30
0.0
 11
1043060.846839184
 21
61462.58675861001
 31
0.0
  0
DIMENSION
  5
8D
330
17
100
AcDbEntity
  8
BAR-GAL
 62
7
370
13
100
AcDbDimension
280
0
  2
*D5
  3
ISO-25
 10
1043393.706420102
 20
61912.15060950929
 30
0.0
 11
1043365.824428287
 21
61717.15729505878
 31
0.0
 70
32
 71
5
 42
389.9866289004058
 73
0
 74
0
 75
0
100
AcDbAlignedDimension
 13
1043339.582222369
 23
61522.16398060885
 33
0.0
 14
1043339.582222369
 24
61912.15060950926
 34
0.0
 50
90.0
100
AcDbRotatedDimension
1001
ACAD
1000
DSTYLE
1002
{
1070
41
1040
35.0
1070
140
1040
35.0
1002
}
  0
DIMENSION
  5
9A
330
17
100
AcDbEntity
  8
BAR-GAL
 62
7
370
13
100
AcDbDimension
280
0
  2
*D6
  3
ISO-25
 10
1043339.582222369
 20
61961.53665913824
 30
0.0
 11
1043199.336875167
 21
61989.40671370849
 31
0.0
 70
32
 71
5
 42
280.4906944036484
 73
0
 74
0
 75
0
100
AcDbAlignedDimension
 13
1043059.091527966
 23
61858.69571353102
 33
0.0
 14
1043339.582222369
 24
61857.74053452787
 34
0.0
 50
0.0
100
AcDbRotatedDimension
1001
ACAD
1000
DSTYLE
1002
{
1070
41
1040
35.0
1070
140
1040
35.0
1002
}
  0
LWPOLYLINE
  5
A7
330
17
100
AcDbEntity
  8
BAR-GAL
 62
7
370
13
100
AcDbPolyline
 90
2
 70
0
 43
15.0
 10
1043059.5531142
 20
61523.27008262163
 10
1043059.997632814
 20
61461.04090519641
  0
LWPOLYLINE
  5
A8
330
17
100
AcDbEntity
  8
BAR-GAL
 62
7
370
13
100
AcDbPolyline
 90
4
 70
0
 43
17.0
 10
1043059.5531142
 20
62308.11610940873
 10
1043439.485940389
 20
62308.11610940873
 10
1043439.485940389
 20
62129.48989131674
 10
1043059.5531142
 20
62129.48989131674
  0
LWPOLYLINE
  5
A9
330
17
100
AcDbEntity
  8
BAR-GAL
 62
7
370
13
100
AcDbPolyline
 90
6
 70
0
 43
17.0
 10
1043438.352048257
 20
62308.11610940873
 10
1043507.887943127
 20
62308.11610940873
 10
1043510.001439817
 20
61392.03749906484
 10
1043301.936912348
 20
61392.03749906484
 10
1043301.54032945
 20
61464.74632404061
 10
1043056.29221397
 20
61464.74632404061
  0
DIMENSION
  5
AA
330
17
100
AcDbEntity
  8
BAR-GAL
 62
7
370
13
100
AcDbDimension
280
0
  2
*D7
  3
ISO-25
 10
1043439.943724611
 20
62354.49232907487
 30
0.0
 11
1043249.95993769
 21
62382.37432088933
 31
0.0
 70
32
 71
5
 42
379.9675738422666
 73
0
 74
0
 75
0
100
AcDbAlignedDimension
 13
1043059.976150769
 23
62308.11610940873
 33
0.0
 14
1043439.943724611
 24
62306.44407360992
 34
0.0
 50
0.0
100
AcDbRotatedDimension
1001
ACAD
1000
DSTYLE
1002
{
1070
41
1040
35.0
1070
140
1040
35.0
1002
}
  0
DIMENSION
  5
B7
330
17
100
AcDbEntity
  8
BAR-GAL
 62
7
370
13
100
AcDbDimension
280
0
  2
*D8
  3
ISO-25
 10
1043010.07994012
 20
62128.39363500461
 30
0.0
 11
1042982.20988555
 21
62218.25487220637
 31
0.0
 70
32
 71
5
 42
179.722474404145
 73
0
 74
0
 75
0
100
AcDbAlignedDimension
 13
1043059.976150769
 23
62308.11610940873
 33
0.0
 14
1043056.995092796
 24
62128.39363500458
 34
0.0
 50
90.0
100
AcDbRotatedDimension
1001
ACAD
1000
DSTYLE
1002
{
1070
41
1040
35.0
1070
140
1040
35.0
1002
}
  0
DIMENSION
  5
C4
330
17
100
AcDbEntity
  8
BAR-GAL
 62
7
370
13
100
AcDbDimension
280
0
  2
*D9
  3
ISO-25
 10
1043481.4441958
 20
61401.87752981429
 30
0.0
 11
1043453.574141229
 21
61859.39895437391
 31
0.0
 70
32
 71
5
 42
915.042849119869
 73
0
 74
0
 75
0
100
AcDbAlignedDimension
 13
1043412.023662304
 23
62316.92037893412
 33
0.0
 14
1043413.927607488
 24
61401.87752981425
 34
0.0
 50
90.0
100
AcDbRotatedDimension
1001
ACAD
1000
DSTYLE
1002
{
1070
41
1040
35.0
1070
140
1040
35.0
1002
}
  0
DIMENSION
  5
D1
330
17
100
AcDbEntity
  8
BAR-GAL
 62
7
370
13
100
AcDbDimension
280
0
  2
*D10
  3
ISO-25
 10
1043299.926098229
 20
61340.39130773088
 30
0.0
 11
1043404.966208294
 21
61368.26136230114
 31
0.0
 70
32
 71
5
 42
210.080220129108
 73
0
 74
0
 75
0
100
AcDbAlignedDimension
 13
1043510.006318358
 23
61391.71936177745
 33
0.0
 14
1043299.926098229
 24
61394.02014097512
 34
0.0
 50
0.0
100
AcDbRotatedDimension
1001
ACAD
1000
DSTYLE
1002
{
1070
41
1040
35.0
1070
140
1040
35.0
1002
}
  0
LWPOLYLINE
  5
DE
330
17
100
AcDbEntity
  8
BAR-GAL
 62
7
370
13
100
AcDbPolyline
 90
4
 70
1
 43
17.0
 10
1043833.222372268
 20
60130.07133558082
 10
1043348.130351177
 20
60130.07133558082
 10
1043348.130351177
 20
59636.03524348195
 10
1043833.222372268
 20
59636.03524348195
  0
DIMENSION
  5
DF
330
17
100
AcDbEntity
  8
BAR-GAL
 62
7
370
13
100
AcDbDimension
280
0
  2
*D11
  3
ISO-25
 10
1043833.222372268
 20
60182.43721658193
 30
0.0
 11
1043590.590801589
 21
60207.75440621358
 31
0.0
 70
32
 71
5
 42
485.2631413566414
 73
0
 74
0
 75
0
100
AcDbAlignedDimension
 13
1043347.959230911
 23
60130.06879556256
 33
0.0
 14
1043833.222372268
 24
60125.6250336121
 34
0.0
 50
0.0
100
AcDbRotatedDimension
  0
DIMENSION
  5
EC
330
17
100
AcDbEntity
  8
BAR-GAL
 62
7
370
13
100
AcDbDimension
280
0
  2
*D12
  3
ISO-25
 10
1043158.212518975
 20
60182.43721658193
 30
0.0
 11
1043253.171435076
 21
60207.75440621358
 31
0.0
 70
32
 71
5
 42
189.9178322018124
 73
0
 74
0
 75
0
100
AcDbAlignedDimension
 13
1043348.130351177
 23
60128.3092996367
 33
0.0
 14
1043158.212518975
 24
60127.10840427748
 34
0.0
 50
0.0
100
AcDbRotatedDimension
  0
DIMENSION
  5
F9
330
17
100
AcDbEntity
  8
BAR-GAL
 62
7
370
13
100
AcDbDimension
280
0
  2
*D13
  3
ISO-25
 10
1043915.832353448
 20
59635.03524348197
 30
0.0
 11
1043890.515163816
 21
59882.5532895311
 31
0.0
 70
32
 71
5
 42
495.036092098875
 73
0
 74
0
 75
0
100
AcDbAlignedDimension
 13
1043833.222372268
 23
60130.07133558082
 33
0.0
 14
1043833.697603003
 24
59635.03524348195
 34
0.0
 50
90.0
100
AcDbRotatedDimension
  0
LWPOLYLINE
  5
106
330
17
100
AcDbEntity
  8
BAR-GAL
 62
7
370
13
100
AcDbPolyline
 90
4
 70
1
 43
17.0
 10
1043348.130351177
 20
60130.06879556256
 10
1043158.130351177
 20
60130.06879556256
 10
1043158.130351177
 20
59636.03524348195
 10
1043348.130351177
 20
59636.03524348195
  0
LWPOLYLINE
  5
107
330
17
100
AcDbEntity
  8
BAR-GAL
 62
7
370
13
100
AcDbPolyline
 90
4
 70
1
 43
17.0
 10
1042960.304456025
 20
60697.34250423683
 10
1043240.304456025
 20
60697.34250423683
 10
1043240.304456025
 20
60290.34250423684
 10
1042960.304456025
 20
60290.34250423684
  0
DIMENSION
  5
108
102
{ACAD_XDICTIONARY
360
109
102
}
330
17
100
AcDbEntity
  8
BAR-GAL
 62
7
370
13
100
AcDbDimension
280
0
  2
*D14
  3
ISO-25
 10
1043238.223094248
 20
60741.22863545076
 30
0.0
 11
1043099.263775136
 21
60766.54582508241
 31
0.0
 70
32
 71
5
 42
277.9186382233165
 73
0
 74
0
 75
0
100
AcDbAlignedDimension
 13
1042960.304456025
 23
60697.34250423683
 33
0.0
 14
1043238.223094248
 24
60697.34250423683
 34
0.0
 50
0.0
100
AcDbRotatedDimension
  0
DIMENSION
  5
116
330
17
100
AcDbEntity
  8
BAR-GAL
 62
7
370
13
100
AcDbDimension
280
0
  2
*D15
  3
ISO-25
 10
1042889.814789348
 20
60292.34250423686
 30
0.0
 11
1042864.497599716
 21
60496.00773761453
 31
0.0
 70
32
 71
5
 42
407.3304667559568
 73
0
 74
0
 75
0
100
AcDbAlignedDimension
 13
1042960.304456025
 23
60699.6729709928
 33
0.0
 14
1042960.304456025
 24
60292.34250423684
 34
0.0
 50
90.0
100
AcDbRotatedDimension
  0
LWPOLYLINE
  5
123
330
17
100
AcDbEntity
  8
BAR-GAL
 62
7
370
13
100
AcDbPolyline
 90
4
 70
1
 43
17.0
 10
1043508.097494634
 20
62307.08034818471
 10
1043718.924090468
 20
62307.08034818471
 10
1043718.924090468
 20
62069.58864062926
 10
1043508.097494634
 20
62069.58864062926
  0
DIMENSION
  5
124
330
17
100
AcDbEntity
  8
BAR-GAL
 62
7
370
13
100
AcDbDimension
280
0
  2
*D16
  3
ISO-25
 10
1043717.924090468
 20
62354.49232907487
 30
0.0
 11
1043612.906016798
 21
62382.36238364513
 31
0.0
 70
32
 71
5
 42
210.0361473411322
 73
0
 74
0
 75
0
100
AcDbAlignedDimension
 13
1043507.887943127
 23
62307.08034818471
 33
0.0
 14
1043717.924090468
 24
62307.08034818471
 34
0.0
 50
0.0
100
AcDbRotatedDimension
1001
ACAD
1000
DSTYLE
1002
{
1070
41
1040
35.0
1070
140
1040
35.0
1002
}
  0
DIMENSION
  5
131
330
17
100
AcDbEntity
  8
BAR-GAL
 62
7
370
13
100
AcDbDimension
280
0
  2
*D17
  3
ISO-25
 10
1043787.927424413
 20
62071.58864062928
 30
0.0
 11
1043760.045432598
 21
62189.3344944067
 31
0.0
 70
32
 71
5
 42
235.4917075554549
 73
0
 74
0
 75
0
100
AcDbAlignedDimension
 13
1043716.593623712
 23
62307.08034818471
 33
0.0
 14
1043716.593623712
 24
62071.58864062925
 34
0.0
 50
90.0
100
AcDbRotatedDimension
1001
ACAD
1000
DSTYLE
1002
{
1070
41
1040
35.0
1070
140
1040
35.0
1002
}
  0
LWPOLYLINE
  5
13E
330
17
100
AcDbEntity
  8
BAR-GAL
 62
7
370
13
100
AcDbPolyline
 90
4
 70
1
 43
17.0
 10
1043508.944590724
 20
61954.4394527114
 10
1043718.944590724
 20
61954.4394527114
 10
1043718.944590724
 20
61709.43945271139
 10
1043508.944590724
 20
61709.43945271139
  0
LWPOLYLINE
  5
13F
330
17
100
AcDbEntity
  8
BAR-GAL
 62
7
370
13
100
AcDbPolyline
 90
4
 70
1
 43
17.0
 10
1043510.006318358
 20
61711.65561710576
 10
1043720.006318358
 20
61711.65561710576
 10
1043720.006318358
 20
61473.65561710576
 10
1043510.006318358
 20
61473.65561710576
  0
DIMENSION
  5
140
102
{ACAD_XDICTIONARY
360
141
102
}
330
17
100
AcDbEntity
  8
BAR-GAL
 62
7
370
13
100
AcDbDimension
280
0
  2
*D18
  3
ISO-25
 10
1043718.605318176
 20
61985.02298175228
 30
0.0
 11
1043613.77495445
 21
62012.89303632253
 31
0.0
 70
32
 71
5
 42
209.6607274515554
 73
0
 74
0
 75
0
100
AcDbAlignedDimension
 13
1043508.944590724
 23
61954.4394527114
 33
0.0
 14
1043718.605318176
 24
61953.16880857552
 34
0.0
 50
0.0
100
AcDbRotatedDimension
1001
ACAD
1000
DSTYLE
1002
{
1070
41
1040
35.0
1070
140
1040
35.0
1002
}
  0
DIMENSION
  5
14E
330
17
100
AcDbEntity
  8
BAR-GAL
 62
7
370
13
100
AcDbDimension
280
0
  2
*D19
  3
ISO-25
 10
1043790.36973123
 20
61709.53978189302
 30
0.0
 11
1043762.499676659
 21
61831.99025230647
 31
0.0
 70
32
 71
5
 42
244.9009408275379
 73
0
 74
0
 75
0
100
AcDbAlignedDimension
 13
1043736.895037865
 23
61954.44072272053
 33
0.0
 14
1043739.647252376
 24
61709.53978189299
 34
0.0
 50
90.0
100
AcDbRotatedDimension
1001
ACAD
1000
DSTYLE
1002
{
1070
41
1040
35.0
1070
140
1040
35.0
1002
}
  0
DIMENSION
  5
15B
330
17
100
AcDbEntity
  8
BAR-GAL
 62
7
370
13
100
AcDbDimension
280
0
  2
*D20
  3
ISO-25
 10
1043790.369731231
 20
61474.65561710578
 30
0.0
 11
1043762.487739417
 21
61592.04753490829
 31
0.0
 70
32
 71
5
 42
234.7838356056382
 73
0
 74
0
 75
0
100
AcDbAlignedDimension
 13
1043738.611105035
 23
61709.43945271139
 33
0.0
 14
1043737.794895519
 24
61474.65561710576
 34
0.0
 50
90.0
100
AcDbRotatedDimension
1001
ACAD
1000
DSTYLE
1002
{
1070
41
1040
35.0
1070
140
1040
35.0
1002
}
  0
LWPOLYLINE
  5
168
330
17
100
AcDbEntity
  8
BAR-GAL
 62
7
370
13
100
AcDbPolyline
 90
4
 70
1
 43
17.0
 10
1043510.006318358
 20
61474.80268502672
 10
1043902.006318358
 20
61474.80268502672
 10
1043902.006318358
 20
61204.80268502672
 10
1043510.006318358
 20
61204.80268502672
  0
DIMENSION
  5
169
102
{ACAD_XDICTIONARY
360
16A
102
}
330
17
100
AcDbEntity
  8
BAR-GAL
 62
7
370
13
100
AcDbDimension
280
0
  2
*D21
  3
ISO-25
 10
1043969.197994724
 20
61204.80268502674
 30
0.0
 11
1043941.327940153
 21
61339.59061305982
 31
0.0
 70
32
 71
5
 42
269.5758560667746
 73
0
 74
0
 75
0
100
AcDbAlignedDimension
 13
1043902.017496902
 23
61474.37854109349
 33
0.0
 14
1043902.006318358
 24
61204.80268502672
 34
0.0
 50
90.0
100
AcDbRotatedDimension
1001
ACAD
1000
DSTYLE
1002
{
1070
41
1040
35.0
1070
140
1040
35.0
1002
}
  0
LWPOLYLINE
  5
177
330
17
100
AcDbEntity
  8
BAR-GAL
 62
7
370
13
100
AcDbPolyline
 90
2
 70
0
 43
17.0
 10
1043705.849929566
 20
61201.74695088374
 10
1043705.849929566
 20
61474.80268502672
  0
DIMENSION
  5
178
330
17
100
AcDbEntity
  8
BAR-GAL
 62
7
370
13
100
AcDbDimension
280
0
  2
*D22
  3
ISO-25
 10
1043705.566738995
 20
61139.70703903998
 30
0.0
 11
1043607.786528676
 21
61167.57709361024
 31
0.0
 70
32
 71
5
 42
195.5604206367861
 73
0
 74
0
 75
0
100
AcDbAlignedDimension
 13
1043510.006318358
 23
61206.19282513083
 33
0.0
 14
1043705.566738995
 24
61207.23180125794
 34
0.0
 50
0.0
100
AcDbRotatedDimension
1001
ACAD
1000
DSTYLE
1002
{
1070
41
1040
35.0
1070
140
1040
35.0
1002
}
  0
DIMENSION
  5
185
330
17
100
AcDbEntity
  8
BAR-GAL
 62
7
370
13
100
AcDbDimension
280
0
  2
*D23
  3
ISO-25
 10
1043902.017496902
 20
61139.70703903998
 30
0.0
 11
1043803.792117948
 21
61167.57709361024
 31
0.0
 70
32
 71
5
 42
196.450757907005
 73
0
 74
0
 75
0
100
AcDbAlignedDimension
 13
1043705.566738995
 23
61207.23180125794
 33
0.0
 14
1043902.017496902
 24
61205.76652978435
 34
0.0
 50
0.0
100
AcDbRotatedDimension
1001
ACAD
1000
DSTYLE
1002
{
1070
41
1040
35.0
1070
140
1040
35.0
1002
}
  0
TEXT
  5
192
330
17
100
AcDbEntity
  8
0
 62
7
100
AcDbText
 10
1042984.177892237
 20
60472.7803190375
 30
0.0
 40
59.201694284898
  1
מחסן 5
100
AcDbText
  0
TEXT
  5
193
330
17
100
AcDbEntity
  8
0
 62
7
100
AcDbText
 10
1043419.688880744
 20
59856.13655536563
 30
0.0
 40
59.201694284898
  1
חדר אשפה
100
AcDbText
  0
TEXT
  5
194
330
17
100
AcDbEntity
  8
0
 62
7
100
AcDbText
 10
1043192.434640519
 20
59934.27414743427
 30
0.0
 40
59.201694284898
  1
חדר 
100
AcDbText
  0
TEXT
  5
195
330
17
100
AcDbEntity
  8
0
 62
7
100
AcDbText
 10
1043225.265997335
 20
59797.68418334739
 30
0.0
 40
59.201694284898
  1
גז
100
AcDbText
  0
TEXT
  5
196
330
17
100
AcDbEntity
  8
0
 62
7
100
AcDbText
 10
1043556.79967757
 20
61611.54728380206
 30
0.0
 40
59.201694284898
  1
מוני
100
AcDbText
  0
TEXT
  5
197
330
17
100
AcDbEntity
  8
0
 62
7
100
AcDbText
 10
1043519.554206871
 20
61518.65627534373
 30
0.0
 40
59.201694284898
  1
חשמל
100
AcDbText
  0
TEXT
  5
198
330
17
100
AcDbEntity
  8
0
 62
7
100
AcDbText
 10
1043524.322828508
 20
61347.33268842951
 30
0.0
 40
59.201694284898
  1
מחסן 
100
AcDbText
  0
TEXT
  5
199
330
17
100
AcDbEntity
  8
0
 62
7
100
AcDbText
 10
1043593.252429548
 20
61247.9079363473
 30
0.0
 40
59.201694284898
  1
7
100
AcDbText
  0
TEXT
  5
19A
330
17
100
AcDbEntity
  8
0
 62
7
100
AcDbText
 10
1043720.451780474
 20
61348.75333467579
 30
0.0
 40
59.201694284898
  1
מחסן 
100
AcDbText
  0
TEXT
  5
19B
330
17
100
AcDbEntity
  8
0
 62
7
100
AcDbText
 10
1043789.381381515
 20
61249.32858259358
 30
0.0
 40
59.201694284898
  1
6
100
AcDbText
  0
TEXT
  5
19C
330
17
100
AcDbEntity
  8
0
 62
7
100
AcDbText
 10
1043530.999391171
 20
61848.81671637471
 30
0.0
 40
59.201694284898
  1
מחסן 
100
AcDbText
  0
TEXT
  5
19D
330
17
100
AcDbEntity
  8
0
 62
7
100
AcDbText
 10
1043599.928992212
 20
61749.3919642925
 30
0.0
 40
59.201694284898
  1
9
100
AcDbText
  0
TEXT
  5
19E
330
17
100
AcDbEntity
  8
0
 62
7
100
AcDbText
 10
1043526.939785039
 20
62209.38328896358
 30
0.0
 40
59.201694284898
  1
מחסן 
100
AcDbText
  0
TEXT
  5
19F
330
17
100
AcDbEntity
  8
0
 62
7
100
AcDbText
 10
1043595.869386079
 20
62109.95853688137
 30
0.0
 40
59.201694284898
  1
8
100
AcDbText
  0
LWPOLYLINE
  5
1A0
330
17
100
AcDbEntity
  8
BAR-GAL
 62
3
370
13
100
AcDbPolyline
 90
17
 70
1
 10
1043339.582222369
 20
61913.15060950893
 10
1043339.156781321
 20
61523.27008262163
 10
1043301.54032945
 20
61523.27008262163
 10
1043301.54032945
 20
61464.74632406443
 10
1043301.936912348
 20
61392.03749906483
 10
1043510.001439818
 20
61392.03749906484
 10
1043509.269157707
 20
61709.43945271138
 10
1043508.944590724
 20
61709.4394527114
 10
1043508.944590724
 20
61850.12047264055
 10
1043508.438252904
 20
62069.58864062926
 10
1043508.097494634
 20
62069.58864062925
 10
1043508.097494634
 20
62217.28764778726
 10
1043507.887943127
 20
62308.11610940873
 10
1043439.485940389
 20
62308.11610940873
 10
1043439.485940388
 20
62129.48989131673
 10
1043059.5531142
 20
62129.48989131675
 10
1043059.5531142
 20
61911.88190620287
  0
LWPOLYLINE
  5
1A1
330
17
100
AcDbEntity
  8
BAR-GAL
 62
5
370
13
100
AcDbPolyline
 90
4
 70
1
 43
15.0
 10
1042110.028262575
 20
59634.35364326456
 10
1042558.028262575
 20
59634.35364326456
 10
1042558.028262575
 20
59864.35364326456
 10
1042110.028262575
 20
59864.35364326456
  0
LWPOLYLINE
  5
1A2
330
17
100
AcDbEntity
  8
BAR-GAL
 62
5
370
13
100
AcDbPolyline
 90
4
 70
1
 43
15.0
 10
1042110.028262575
 20
59865.91821820418
 10
1042455.028262575
 20
59865.91821820418
 10
1042455.028262575
 20
60090.91821820418
 10
1042110.028262575
 20
60090.91821820418
  0
DIMENSION
  5
1A3
102
{ACAD_XDICTIONARY
360
1A4
102
}
330
17
100
AcDbEntity
  8
BAR-GAL
 62
5
370
13
100
AcDbDimension
280
0
  2
*D24
  3
ISO-25
 10
1042455.028262575
 20
60136.76655241094
 30
0.0
 11
1042282.528262574
 21
60162.09397396619
 31
0.0
 70
32
 71
5
 42
345.0
 73
0
 74
0
 75
0
100
AcDbAlignedDimension
 13
1042110.028262575
 23
60090.50028293985
 33
0.0
 14
1042455.028262575
 24
60090.91821820418
 34
0.0
 50
0.0
100
AcDbRotatedDimension
  0
DIMENSION
  5
1B1
330
17
100
AcDbEntity
  8
BAR-GAL
 62
5
370
13
100
AcDbDimension
280
0
  2
*D25
  3
ISO-25
 10
1042558.028262575
 20
59671.77146768317
 30
0.0
 11
1042334.028262575
 21
59697.08865731481
 31
0.0
 70
32
 71
5
 42
448.0
 73
0
 74
0
 75
0
100
AcDbAlignedDimension
 13
1042110.028262575
 23
59634.15160368515
 33
0.0
 14
1042558.028262575
 24
59634.15160368515
 34
0.0
 50
0.0
100
AcDbRotatedDimension
  0
DIMENSION
  5
1BE
102
{ACAD_XDICTIONARY
360
1BF
102
}
330
17
100
AcDbEntity
  8
BAR-GAL
 62
5
370
13
100
AcDbDimension
280
0
  2
*D26
  3
ISO-25
 10
1042619.940103821
 20
59864.35364326459
 30
0.0
 11
1042594.612682265
 21
59749.25262347457
 31
0.0
 70
32
 71
5
 42
230.2020395794098
 73
0
 74
0
 75
0
100
AcDbAlignedDimension
 13
1042558.028262575
 23
59634.15160368515
 33
0.0
 14
1042558.028262575
 24
59864.35364326456
 34
0.0
 50
90.0
100
AcDbRotatedDimension
  0
DIMENSION
  5
1CC
330
17
100
AcDbEntity
  8
BAR-GAL
 62
5
370
13
100
AcDbDimension
280
0
  2
*D27
  3
ISO-25
 10
1042619.940103822
 20
60088.91821820421
 30
0.0
 11
1042594.62291419
 21
59976.63593073409
 31
0.0
 70
32
 71
5
 42
224.5645749396208
 73
0
 74
0
 75
0
100
AcDbAlignedDimension
 13
1042558.028262575
 23
59864.35364326456
 33
0.0
 14
1042455.028262575
 24
60088.91821820419
 34
0.0
 50
90.0
100
AcDbRotatedDimension
  0
LWPOLYLINE
  5
1D9
330
17
100
AcDbEntity
  8
BAR-GAL
 62
5
370
13
100
AcDbPolyline
 90
5
 70
1
 43
15.0
 10
1043158.212518975
 20
60123.30842882906
 10
1043157.405538893
 20
60287.52476643465
 10
1042960.304456025
 20
60288.54252878842
 10
1042960.304456025
 20
59976.19692110346
 10
1043158.212518975
 20
59974.92818198128
  0
DIMENSION
  5
1DA
102
{ACAD_XDICTIONARY
360
1DB
102
}
330
17
100
AcDbEntity
  8
BAR-GAL
 62
5
370
13
100
AcDbDimension
280
0
  2
*D28
  3
ISO-25
 10
1042889.814789347
 20
59976.19692110348
 30
0.0
 11
1042864.487367791
 21
60132.36972494565
 31
0.0
 70
32
 71
5
 42
312.3456076849616
 73
0
 74
0
 75
0
100
AcDbAlignedDimension
 13
1042960.304456025
 23
60288.54252878842
 33
0.0
 14
1042960.304456025
 24
59976.19692110346
 34
0.0
 50
90.0
100
AcDbRotatedDimension
  0
DIMENSION
  5
1E8
102
{ACAD_XDICTIONARY
360
1E9
102
}
330
17
100
AcDbEntity
  8
BAR-GAL
 62
5
370
13
100
AcDbDimension
280
0
  2
*D29
  3
ISO-25
 10
1043158.212518975
 20
59915.44984433451
 30
0.0
 11
1043059.2584875
 21
59940.76703396616
 31
0.0
 70
32
 71
5
 42
197.9080629505915
 73
0
 74
0
 75
0
100
AcDbAlignedDimension
 13
1042960.304456025
 23
59975.25616283346
 33
0.0
 14
1043158.212518975
 24
59976.19692110346
 34
0.0
 50
0.0
100
AcDbRotatedDimension
  0
TEXT
  5
1F6
330
17
100
AcDbEntity
  8
0
100
AcDbText
 10
1042148.697688088
 20
59948.86737893638
 30
0.0
 40
63.93782982768984
  1
? מחסן
100
AcDbText
  0
TEXT
  5
1F7
330
17
100
AcDbEntity
  8
0
100
AcDbText
 10
1042181.942299791
 20
59749.55056976341
 30
0.0
 40
63.93782982768984
  1
? מחסן
100
AcDbText
  0
TEXT
  5
1F8
330
17
100
AcDbEntity
  8
0
 62
7
100
AcDbText
 10
1042968.655725459
 20
60163.56024285277
 30
0.0
 40
59.201694284898
  1
מחסן 
100
AcDbText
  0
TEXT
  5
1F9
330
17
100
AcDbEntity
  8
0
 62
7
100
AcDbText
 10
1043037.585326499
 20
60064.13549077056
 30
0.0
 40
59.201694284898
  1
?
100
AcDbText
  0
LWPOLYLINE
  5
1FA
330
17
100
AcDbEntity
  8
BAR-GAL
 62
6
370
13
100
AcDbPolyline
 90
14
 70
1
 10
1043059.5531142
 20
62308.11610940873
 10
1043717.924090468
 20
62307.08034818471
 10
1043718.924090468
 20
62069.58864062926
 10
1043508.439373266
 20
62069.10302864349
 10
1043508.944590724
 20
61954.4394527114
 10
1043718.605318176
 20
61953.16880857552
 10
1043720.006318358
 20
61473.65561710576
 10
1043902.006318358
 20
61473.65561710576
 10
1043902.006318358
 20
61204.80268502672
 10
1043510.006318358
 20
61206.19282513083
 10
1043510.001439817
 20
61392.03749906484
 10
1043301.936912348
 20
61392.03749906484
 10
1043299.097070456
 20
61464.74632404061
 10
1043059.5531142
 20
61462.58675861001
  0
LWPOLYLINE
  5
1FB
330
17
100
AcDbEntity
  8
BAR-GAL
 62
1
370
13
100
AcDbPolyline
 90
18
 70
1
 10
1042110.028262575
 20
60090.50028293985
 10
1042110.028262575
 20
64044.44394975645
 10
1044443.616432034
 20
64044.44394975645
 10
1044443.616432034
 20
59637.95157913357
 10
1043833.222372268
 20
59637.95157913357
 10
1043833.222372268
 20
60130.07133558082
 10
1043158.130351177
 20
60130.06879556256
 10
1043157.405538893
 20
60287.52476643465
 10
1043240.304456025
 20
60290.34250423684
 10
1043240.304456025
 20
60697.34250423683
 10
1042960.304456025
 20
60699.6729709928
 10
1042960.304456025
 20
59975.25616283346
 10
1043158.212518975
 20
59976.19692110346
 10
1043158.212518975
 20
59636.03524348195
 10
1042558.028262575
 20
59636.03524348195
 10
1042558.028262575
 20
59864.35364326459
 10
1042455.028262575
 20
59865.91821820418
 10
1042455.028262575
 20
60088.91821820419
  0
TEXT
  5
1FC
330
17
100
AcDbEntity
  8
0
100
AcDbText
 10
1043245.787674702
 20
63184.31139272791
 30
0.0
 40
63.93782982768984
  1
חניון
100
AcDbText
  0
ENDSEC
  0
SECTION
  2
OBJECTS
  0
DICTIONARY
  5
A
330
0
100
AcDbDictionary
281
1
  3
ACAD_COLOR
350
B
  3
ACAD_GROUP
350
C
  3
ACAD_LAYOUT
350
D
  3
ACAD_MATERIAL
350
E
  3
ACAD_MLEADERSTYLE
350
F
  3
ACAD_MLINESTYLE
350
10
  3
ACAD_PLOTSETTINGS
350
11
  3
ACAD_PLOTSTYLENAME
350
12
  3
ACAD_SCALELIST
350
14
  3
ACAD_TABLESTYLE
350
15
  3
ACAD_VISUALSTYLE
350
16
  3
EZDXF_META
350
2D
  0
DICTIONARY
  5
B
330
A
100
AcDbDictionary
281
1
  0
DICTIONARY
  5
C
330
A
100
AcDbDictionary
281
1
  0
DICTIONARY
  5
D
330
A
100
AcDbDictionary
281
1
  3
Model
350
1A
  3
Layout1
350
1E
  0
DICTIONARY
  5
E
330
A
100
AcDbDictionary
281
1
  3
ByBlock
350
1F
  3
ByLayer
350
20
  3
Global
350
21
  0
DICTIONARY
  5
F
330
A
100
AcDbDictionary
281
1
  3
Standard
350
2C
  0
DICTIONARY
  5
10
330
A
100
AcDbDictionary
281
1
  3
Standard
350
22
  0
DICTIONARY
  5
11
330
A
100
AcDbDictionary
281
1
  0
ACDBDICTIONARYWDFLT
  5
12
330
A
100
AcDbDictionary
281
1
  3
Normal
350
13
100
AcDbDictionaryWithDefault
340
13
  0
ACDBPLACEHOLDER
  5
13
330
12
  0
DICTIONARY
  5
14
330
A
100
AcDbDictionary
281
1
  0
DICTIONARY
  5
15
330
A
100
AcDbDictionary
281
1
  0
DICTIONARY
  5
16
330
A
100
AcDbDictionary
281
1
  0
LAYOUT
  5
1A
330
D
100
AcDbPlotSettings
  1

  4
A3
  6

 40
7.5
 41
20.0
 42
7.5
 43
20.0
 44
420.0
 45
297.0
 46
0.0
 47
0.0
 48
0.0
 49
0.0
140
0.0
141
0.0
142
1.0
143
1.0
 70
1024
 72
1
 73
0
 74
5
  7

 75
16
 76
0
 77
2
 78
300
147
1.0
148
0.0
149
0.0
100
AcDbLayout
  1
Model
 70
1
 71
0
 10
0.0
 20
0.0
 11
420.0
 21
297.0
 12
0.0
 22
0.0
 32
0.0
 14
1e+20
 24
1e+20
 34
1e+20
 15
-1e+20
 25
-1e+20
 35
-1e+20
146
0.0
 13
0.0
 23
0.0
 33
0.0
 16
1.0
 26
0.0
 36
0.0
 17
0.0
 27
1.0
 37
0.0
 76
1
330
17
  0
LAYOUT
  5
1E
330
D
100
AcDbPlotSettings
  1

  4
A3
  6

 40
7.5
 41
20.0
 42
7.5
 43
20.0
 44
420.0
 45
297.0
 46
0.0
 47
0.0
 48
0.0
 49
0.0
140
0.0
141
0.0
142
1.0
143
1.0
 70
0
 72
1
 73
0
 74
5
  7

 75
16
 76
0
 77
2
 78
300
147
1.0
148
0.0
149
0.0
100
AcDbLayout
  1
Layout1
 70
1
 71
1
 10
0.0
 20
0.0
 11
420.0
 21
297.0
 12
0.0
 22
0.0
 32
0.0
 14
1e+20
 24
1e+20
 34
1e+20
 15
-1e+20
 25
-1e+20
 35
-1e+20
146
0.0
 13
0.0
 23
0.0
 33
0.0
 16
1.0
 26
0.0
 36
0.0
 17
0.0
 27
1.0
 37
0.0
 76
1
330
1B
  0
MATERIAL
  5
1F
102
{ACAD_REACTORS
330
E
102
}
330
E
100
AcDbMaterial
  1
ByBlock
  2

 70
0
 40
1.0
 71
1
 41
1.0
 91
-1023410177
 42
1.0
 72
1
  3

 73
1
 74
1
 75
1
 44
0.5
 73
0
 45
1.0
 46
1.0
 77
1
  4

 78
1
 79
1
170
1
 48
1.0
171
1
  6

172
1
173
1
174
1
140
1.0
141
1.0
175
1
  7

176
1
177
1
178
1
143
1.0
179
1
  8

270
1
271
1
272
1
145
1.0
146
1.0
273
1
  9

274
1
275
1
276
1
 42
1.0
 72
1
  3

 73
1
 74
1
 75
1
 94
63
  0
MATERIAL
  5
20
102
{ACAD_REACTORS
330
E
102
}
330
E
100
AcDbMaterial
  1
ByLayer
  2

 70
0
 40
1.0
 71
1
 41
1.0
 91
-1023410177
 42
1.0
 72
1
  3

 73
1
 74
1
 75
1
 44
0.5
 73
0
 45
1.0
 46
1.0
 77
1
  4

 78
1
 79
1
170
1
 48
1.0
171
1
  6

172
1
173
1
174
1
140
1.0
141
1.0
175
1
  7

176
1
177
1
178
1
143
1.0
179
1
  8

270
1
271
1
272
1
145
1.0
146
1.0
273
1
  9

274
1
275
1
276
1
 42
1.0
 72
1
  3

 73
1
 74
1
 75
1
 94
63
  0
MATERIAL
  5
21
102
{ACAD_REACTORS
330
E
102
}
330
E
100
AcDbMaterial
  1
Global
  2

 70
0
 40
1.0
 71
1
 41
1.0
 91
-1023410177
 42
1.0
 72
1
  3

 73
1
 74
1
 75
1
 44
0.5
 73
0
 45
1.0
 46
1.0
 77
1
  4

 78
1
 79
1
170
1
 48
1.0
171
1
  6

172
1
173
1
174
1
140
1.0
141
1.0
175
1
  7

176
1
177
1
178
1
143
1.0
179
1
  8

270
1
271
1
272
1
145
1.0
146
1.0
273
1
  9

274
1
275
1
276
1
 42
1.0
 72
1
  3

 73
1
 74
1
 75
1
 94
63
  0
MLINESTYLE
  5
22
102
{ACAD_REACTORS
330
10
102
}
330
10
100
AcDbMlineStyle
  2
Standard
 70
0
  3

 62
256
 51
90.0
 52
90.0
 71
2
 49
0.5
 62
256
  6
BYLAYER
 49
-0.5
 62
256
  6
BYLAYER
  0
MLEADERSTYLE
  5
2C
102
{ACAD_REACTORS
330
F
102
}
330
F
100
AcDbMLeaderStyle
179
2
170
2
171
1
172
0
 90
2
 40
0.0
 41
0.0
173
1
 91
-1056964608
 92
-2
290
1
 42
2.0
291
1
 43
8.0
  3
Standard
 44
4.0
300

342
29
174
1
175
1
176
0
178
1
 93
-1056964608
 45
4.0
292
0
297
0
 46
4.0
 94
-1056964608
 47
1.0
 49
1.0
140
1.0
294
1
141
0.0
177
0
142
1.0
295
0
296
0
143
3.75
271
0
272
9
273
9
  0
DICTIONARY
  5
2D
330
A
100
AcDbDictionary
280
1
281
1
  3
CREATED_BY_EZDXF
350
2E
  3
WRITTEN_BY_EZDXF
350
1FF
  0
DICTIONARYVAR
  5
2E
330
2D
100
DictionaryVariables
280
0
  1
1.4.3 @ 2026-05-05T23:16:51.132912+00:00
  0
DICTIONARY
  5
52
330
51
100
AcDbDictionary
280
1
281
1
  0
DICTIONARY
  5
109
330
108
100
AcDbDictionary
280
1
281
1
  0
DICTIONARY
  5
141
330
140
100
AcDbDictionary
280
1
281
1
  0
DICTIONARY
  5
16A
330
169
100
AcDbDictionary
280
1
281
1
  0
DICTIONARY
  5
1A4
330
1A3
100
AcDbDictionary
280
1
281
1
  0
DICTIONARY
  5
1BF
330
1BE
100
AcDbDictionary
280
1
281
1
  0
DICTIONARY
  5
1DB
330
1DA
100
AcDbDictionary
280
1
281
1
  0
DICTIONARY
  5
1E9
330
1E8
100
AcDbDictionary
280
1
281
1
  0
DICTIONARYVAR
  5
1FF
330
2D
100
DictionaryVariables
280
0
  1
1.4.3 @ 2026-05-05T23:16:51.153478+00:00
  0
ENDSEC
  0
EOF
