  0
SECTION
  2
HEADER
  9
$ACADVER
  1
AC1032
  9
$ACADMAINTVER
 90
4
  9
$DWGCODEPAGE
  3
ANSI_1252
  9
$LASTSAVEDBY
  1
ezdxf
  9
$REQUIREDVERSIONS
160
0
  9
$INSBASE
 10
0.0
 20
0.0
 30
0.0
  9
$EXTMIN
 10
1e+20
 20
1e+20
 30
1e+20
  9
$EXTMAX
 10
-1e+20
 20
-1e+20
 30
-1e+20
  9
$LIMMIN
 10
0.0
 20
0.0
  9
$LIMMAX
 10
420.0
 20
297.0
  9
$ORTHOMODE
 70
0
  9
$REGENMODE
 70
1
  9
$FILLMODE
 70
1
  9
$QTEXTMODE
 70
0
  9
$MIRRTEXT
 70
1
  9
$LTSCALE
 40
1.0
  9
$ATTMODE
 70
1
  9
$TEXTSIZE
 40
2.5
  9
$TRACEWID
 40
1.0
  9
$TEXTSTYLE
  7
Standard
  9
$CLAYER
  8
0
  9
$CELTYPE
  6
ByLayer
  9
$CECOLOR
 62
256
  9
$CELTSCALE
 40
1.0
  9
$DISPSILH
 70
0
  9
$DIMSCALE
 40
1.0
  9
$DIMASZ
 40
2.5
  9
$DIMEXO
 40
0.625
  9
$DIMDLI
 40
3.75
  9
$DIMRND
 40
0.0
  9
$DIMDLE
 40
0.0
  9
$DIMEXE
 40
1.25
  9
$DIMTP
 40
0.0
  9
$DIMTM
 40
0.0
  9
$DIMTXT
 40
2.5
  9
$DIMCEN
 40
2.5
  9
$DIMTSZ
 40
0.0
  9
$DIMTOL
 70
0
  9
$DIMLIM
 70
0
  9
$DIMTIH
 70
0
  9
$DIMTOH
 70
0
  9
$DIMSE1
 70
0
  9
$DIMSE2
 70
0
  9
$DIMTAD
 70
1
  9
$DIMZIN
 70
8
  9
$DIMBLK
  1

  9
$DIMASO
 70
1
  9
$DIMSHO
 70
1
  9
$DIMPOST
  1

  9
$DIMAPOST
  1

  9
$DIMALT
 70
0
  9
$DIMALTD
 70
3
  9
$DIMALTF
 40
0.03937007874
  9
$DIMLFAC
 40
1.0
  9
$DIMTOFL
 70
1
  9
$DIMTVP
 40
0.0
  9
$DIMTIX
 70
0
  9
$DIMSOXD
 70
0
  9
$DIMSAH
 70
0
  9
$DIMBLK1
  1

  9
$DIMBLK2
  1

  9
$DIMSTYLE
  2
ISO-25
  9
$DIMCLRD
 70
0
  9
$DIMCLRE
 70
0
  9
$DIMCLRT
 70
0
  9
$DIMTFAC
 40
1.0
  9
$DIMGAP
 40
0.625
  9
$DIMJUST
 70
0
  9
$DIMSD1
 70
0
  9
$DIMSD2
 70
0
  9
$DIMTOLJ
 70
0
  9
$DIMTZIN
 70
8
  9
$DIMALTZ
 70
0
  9
$DIMALTTZ
 70
0
  9
$DIMUPT
 70
0
  9
$DIMDEC
 70
2
  9
$DIMTDEC
 70
2
  9
$DIMALTU
 70
2
  9
$DIMALTTD
 70
3
  9
$DIMTXSTY
  7
Standard
  9
$DIMAUNIT
 70
0
  9
$DIMADEC
 70
0
  9
$DIMALTRND
 40
0.0
  9
$DIMAZIN
 70
0
  9
$DIMDSEP
 70
44
  9
$DIMATFIT
 70
3
  9
$DIMFRAC
 70
0
  9
$DIMLDRBLK
  1

  9
$DIMLUNIT
 70
2
  9
$DIMLWD
 70
-2
  9
$DIMLWE
 70
-2
  9
$DIMTMOVE
 70
0
  9
$DIMFXL
 40
1.0
  9
$DIMFXLON
 70
0
  9
$DIMJOGANG
 40
0.785398163397
  9
$DIMTFILL
 70
0
  9
$DIMTFILLCLR
 70
0
  9
$DIMARCSYM
 70
0
  9
$DIMLTYPE
  6

  9
$DIMLTEX1
  6

  9
$DIMLTEX2
  6

  9
$DIMTXTDIRECTION
 70
0
  9
$LUNITS
 70
2
  9
$LUPREC
 70
4
  9
$SKETCHINC
 40
1.0
  9
$FILLETRAD
 40
10.0
  9
$AUNITS
 70
0
  9
$AUPREC
 70
2
  9
$MENU
  1
.
  9
$ELEVATION
 40
0.0
  9
$PELEVATION
 40
0.0
  9
$THICKNESS
 40
0.0
  9
$LIMCHECK
 70
0
  9
$CHAMFERA
 40
0.0
  9
$CHAMFERB
 40
0.0
  9
$CHAMFERC
 40
0.0
  9
$CHAMFERD
 40
0.0
  9
$SKPOLY
 70
0
  9
$TDCREATE
 40
2461167.095023148
  9
$TDUCREATE
 40
2458532.153996898
  9
$TDUPDATE
 40
2461167.095023148
  9
$TDUUPDATE
 40
2458532.1544311
  9
$TDINDWG
 40
0.0
  9
$TDUSRTIMER
 40
0.0
  9
$USRTIMER
 70
1
  9
$ANGBASE
 50
0.0
  9
$ANGDIR
 70
0
  9
$PDMODE
 70
0
  9
$PDSIZE
 40
0.0
  9
$PLINEWID
 40
0.0
  9
$SPLFRAME
 70
0
  9
$SPLINETYPE
 70
6
  9
$SPLINESEGS
 70
8
  9
$HANDSEED
  5
146
  9
$SURFTAB1
 70
6
  9
$SURFTAB2
 70
6
  9
$SURFTYPE
 70
6
  9
$SURFU
 70
6
  9
$SURFV
 70
6
  9
$UCSBASE
  2

  9
$UCSNAME
  2

  9
$UCSORG
 10
0.0
 20
0.0
 30
0.0
  9
$UCSXDIR
 10
1.0
 20
0.0
 30
0.0
  9
$UCSYDIR
 10
0.0
 20
1.0
 30
0.0
  9
$UCSORTHOREF
  2

  9
$UCSORTHOVIEW
 70
0
  9
$UCSORGTOP
 10
0.0
 20
0.0
 30
0.0
  9
$UCSORGBOTTOM
 10
0.0
 20
0.0
 30
0.0
  9
$UCSORGLEFT
 10
0.0
 20
0.0
 30
0.0
  9
$UCSORGRIGHT
 10
0.0
 20
0.0
 30
0.0
  9
$UCSORGFRONT
 10
0.0
 20
0.0
 30
0.0
  9
$UCSORGBACK
 10
0.0
 20
0.0
 30
0.0
  9
$PUCSBASE
  2

  9
$PUCSNAME
  2

  9
$PUCSORG
 10
0.0
 20
0.0
 30
0.0
  9
$PUCSXDIR
 10
1.0
 20
0.0
 30
0.0
  9
$PUCSYDIR
 10
0.0
 20
1.0
 30
0.0
  9
$PUCSORTHOREF
  2

  9
$PUCSORTHOVIEW
 70
0
  9
$PUCSORGTOP
 10
0.0
 20
0.0
 30
0.0
  9
$PUCSORGBOTTOM
 10
0.0
 20
0.0
 30
0.0
  9
$PUCSORGLEFT
 10
0.0
 20
0.0
 30
0.0
  9
$PUCSORGRIGHT
 10
0.0
 20
0.0
 30
0.0
  9
$PUCSORGFRONT
 10
0.0
 20
0.0
 30
0.0
  9
$PUCSORGBACK
 10
0.0
 20
0.0
 30
0.0
  9
$USERI1
 70
0
  9
$USERI2
 70
0
  9
$USERI3
 70
0
  9
$USERI4
 70
0
  9
$USERI5
 70
0
  9
$USERR1
 40
0.0
  9
$USERR2
 40
0.0
  9
$USERR3
 40
0.0
  9
$USERR4
 40
0.0
  9
$USERR5
 40
0.0
  9
$WORLDVIEW
 70
1
  9
$SHADEDGE
 70
3
  9
$SHADEDIF
 70
70
  9
$TILEMODE
 70
1
  9
$MAXACTVP
 70
64
  9
$PINSBASE
 10
0.0
 20
0.0
 30
0.0
  9
$PLIMCHECK
 70
0
  9
$PEXTMIN
 10
1e+20
 20
1e+20
 30
1e+20
  9
$PEXTMAX
 10
-1e+20
 20
-1e+20
 30
-1e+20
  9
$PLIMMIN
 10
0.0
 20
0.0
  9
$PLIMMAX
 10
420.0
 20
297.0
  9
$UNITMODE
 70
0
  9
$VISRETAIN
 70
1
  9
$PLINEGEN
 70
0
  9
$PSLTSCALE
 70
1
  9
$TREEDEPTH
 70
3020
  9
$CMLSTYLE
  2
Standard
  9
$CMLJUST
 70
0
  9
$CMLSCALE
 40
20.0
  9
$PROXYGRAPHICS
 70
1
  9
$MEASUREMENT
 70
1
  9
$CELWEIGHT
370
-1
  9
$ENDCAPS
280
0
  9
$JOINSTYLE
280
0
  9
$LWDISPLAY
290
0
  9
$INSUNITS
 70
6
  9
$HYPERLINKBASE
  1

  9
$STYLESHEET
  1

  9
$XEDIT
290
1
  9
$CEPSNTYPE
380
0
  9
$PSTYLEMODE
290
1
  9
$FINGERPRINTGUID
  2
{A5CAF318-9550-4A19-BE33-E45AA8260149}
  9
$VERSIONGUID
  2
{80EA398E-0E3D-4468-811E-87760E9A9A99}
  9
$EXTNAMES
290
1
  9
$PSVPSCALE
 40
0.0
  9
$OLESTARTUP
290
0
  9
$SORTENTS
280
127
  9
$INDEXCTL
280
0
  9
$HIDETEXT
280
1
  9
$XCLIPFRAME
280
1
  9
$HALOGAP
280
0
  9
$OBSCOLOR
 70
257
  9
$OBSLTYPE
280
0
  9
$INTERSECTIONDISPLAY
280
0
  9
$INTERSECTIONCOLOR
 70
257
  9
$DIMASSOC
280
2
  9
$PROJECTNAME
  1

  9
$CAMERADISPLAY
290
0
  9
$LENSLENGTH
 40
50.0
  9
$CAMERAHEIGHT
 40
0.0
  9
$STEPSPERSEC
 40
24.0
  9
$STEPSIZE
 40
100.0
  9
$3DDWFPREC
 40
2.0
  9
$PSOLWIDTH
 40
0.005
  9
$PSOLHEIGHT
 40
0.08
  9
$LOFTANG1
 40
1.570796326795
  9
$LOFTANG2
 40
1.570796326795
  9
$LOFTMAG1
 40
0.0
  9
$LOFTMAG2
 40
0.0
  9
$LOFTPARAM
 70
7
  9
$LOFTNORMALS
280
1
  9
$LATITUDE
 40
37.795
  9
$LONGITUDE
 40
-122.394
  9
$NORTHDIRECTION
 40
0.0
  9
$TIMEZONE
 70
-8000
  9
$LIGHTGLYPHDISPLAY
280
1
  9
$TILEMODELIGHTSYNCH
280
1
  9
$CMATERIAL
347
20
  9
$SOLIDHIST
280
0
  9
$SHOWHIST
280
1
  9
$DWFFRAME
280
2
  9
$DGNFRAME
280
2
  9
$REALWORLDSCALE
290
1
  9
$INTERFERECOLOR
 62
256
  9
$CSHADOW
280
0
  9
$SHADOWPLANELOCATION
 40
0.0
  0
ENDSEC
  0
SECTION
  2
CLASSES
  0
CLASS
  1
ACDBDICTIONARYWDFLT
  2
AcDbDictionaryWithDefault
  3
ObjectDBX Classes
 90
0
 91
0
280
0
281
0
  0
CLASS
  1
SUN
  2
AcDbSun
  3
SCENEOE
 90
1153
 91
0
280
0
281
0
  0
CLASS
  1
VISUALSTYLE
  2
AcDbVisualStyle
  3
ObjectDBX Classes
 90
4095
 91
0
280
0
281
0
  0
CLASS
  1
MATERIAL
  2
AcDbMaterial
  3
ObjectDBX Classes
 90
1153
 91
0
280
0
281
0
  0
CLASS
  1
SCALE
  2
AcDbScale
  3
ObjectDBX Classes
 90
1153
 91
0
280
0
281
0
  0
CLASS
  1
TABLESTYLE
  2
AcDbTableStyle
  3
ObjectDBX Classes
 90
4095
 91
0
280
0
281
0
  0
CLASS
  1
MLEADERSTYLE
  2
AcDbMLeaderStyle
  3
ACDB_MLEADERSTYLE_CLASS
 90
4095
 91
0
280
0
281
0
  0
CLASS
  1
DICTIONARYVAR
  2
AcDbDictionaryVar
  3
ObjectDBX Classes
 90
0
 91
0
280
0
281
0
  0
CLASS
  1
CELLSTYLEMAP
  2
AcDbCellStyleMap
  3
ObjectDBX Classes
 90
1152
 91
0
280
0
281
0
  0
CLASS
  1
MENTALRAYRENDERSETTINGS
  2
AcDbMentalRayRenderSettings
  3
SCENEOE
 90
1024
 91
0
280
0
281
0
  0
CLASS
  1
ACDBDETAILVIEWSTYLE
  2
AcDbDetailViewStyle
  3
ObjectDBX Classes
 90
1025
 91
0
280
0
281
0
  0
CLASS
  1
ACDBSECTIONVIEWSTYLE
  2
AcDbSectionViewStyle
  3
ObjectDBX Classes
 90
1025
 91
0
280
0
281
0
  0
CLASS
  1
RASTERVARIABLES
  2
AcDbRasterVariables
  3
ISM
 90
0
 91
0
280
0
281
0
  0
CLASS
  1
ACDBPLACEHOLDER
  2
AcDbPlaceHolder
  3
ObjectDBX Classes
 90
0
 91
0
280
0
281
0
  0
CLASS
  1
LAYOUT
  2
AcDbLayout
  3
ObjectDBX Classes
 90
0
 91
0
280
0
281
0
  0
ENDSEC
  0
SECTION
  2
TABLES
  0
TABLE
  2
VPORT
  5
8
330
0
100
AcDbSymbolTable
 70
1
  0
VPORT
  5
23
330
8
100
AcDbSymbolTableRecord
100
AcDbViewportTableRecord
  2
*Active
 70
0
 10
0.0
 20
0.0
 11
1.0
 21
1.0
 12
0.0
 22
0.0
 13
0.0
 23
0.0
 14
0.5
 24
0.5
 15
0.5
 25
0.5
 16
0.0
 26
0.0
 36
1.0
 17
0.0
 27
0.0
 37
0.0
 40
1000.0
 41
1.34
 42
50.0
 43
0.0
 44
0.0
 50
0.0
 51
0.0
 71
0
 72
1000
 73
1
 74
3
 75
0
 76
0
 77
0
 78
0
281
0
 65
0
146
0.0
  0
ENDTAB
  0
TABLE
  2
LTYPE
  5
2
330
0
100
AcDbSymbolTable
 70
3
  0
LTYPE
  5
24
330
2
100
AcDbSymbolTableRecord
100
AcDbLinetypeTableRecord
  2
ByBlock
 70
0
  3

 72
65
 73
0
 40
0.0
  0
LTYPE
  5
25
330
2
100
AcDbSymbolTableRecord
100
AcDbLinetypeTableRecord
  2
ByLayer
 70
0
  3

 72
65
 73
0
 40
0.0
  0
LTYPE
  5
26
330
2
100
AcDbSymbolTableRecord
100
AcDbLinetypeTableRecord
  2
Continuous
 70
0
  3

 72
65
 73
0
 40
0.0
  0
ENDTAB
  0
TABLE
  2
LAYER
  5
1
330
0
100
AcDbSymbolTable
 70
8
  0
LAYER
  5
27
330
1
100
AcDbSymbolTableRecord
100
AcDbLayerTableRecord
  2
0
 70
0
 62
7
  6
Continuous
370
-3
390
13
347
21
  0
LAYER
  5
28
330
1
100
AcDbSymbolTableRecord
100
AcDbLayerTableRecord
  2
Defpoints
 70
0
 62
7
  6
Continuous
290
0
370
-3
390
13
347
21
  0
LAYER
  5
2F
330
1
100
AcDbSymbolTableRecord
100
AcDbLayerTableRecord
  2
MIKRA
 70
0
 62
7
  6
Continuous
370
-3
390
13
347
21
  0
LAYER
  5
30
330
1
100
AcDbSymbolTableRecord
100
AcDbLayerTableRecord
  2
kir
 70
0
 62
7
  6
Continuous
370
-3
390
13
347
21
  0
LAYER
  5
31
330
1
100
AcDbSymbolTableRecord
100
AcDbLayerTableRecord
  2
8
 70
0
 62
7
  6
Continuous
370
-3
390
13
347
21
  0
LAYER
  5
32
330
1
100
AcDbSymbolTableRecord
100
AcDbLayerTableRecord
  2
BAR-GAL
 70
0
 62
7
  6
Continuous
370
-3
390
13
347
21
  0
LAYER
  5
33
330
1
100
AcDbSymbolTableRecord
100
AcDbLayerTableRecord
  2
BAR_GAL
 70
0
 62
7
  6
Continuous
370
-3
390
13
347
21
  0
LAYER
  5
34
330
1
100
AcDbSymbolTableRecord
100
AcDbLayerTableRecord
  2
VP
 70
0
 62
-30
  6
Continuous
370
-3
390
13
347
21
  0
ENDTAB
  0
TABLE
  2
STYLE
  5
5
330
0
100
AcDbSymbolTable
 70
1
  0
STYLE
  5
29
330
5
100
AcDbSymbolTableRecord
100
AcDbTextStyleTableRecord
  2
Standard
 70
0
 40
0.0
 41
1.0
 50
0.0
 71
0
 42
2.5
  3
txt
  4

  0
ENDTAB
  0
TABLE
  2
VIEW
  5
7
330
0
100
AcDbSymbolTable
 70
0
  0
ENDTAB
  0
TABLE
  2
UCS
  5
6
330
0
100
AcDbSymbolTable
 70
0
  0
ENDTAB
  0
TABLE
  2
APPID
  5
3
330
0
100
AcDbSymbolTable
 70
3
  0
APPID
  5
2A
330
3
100
AcDbSymbolTableRecord
100
AcDbRegAppTableRecord
  2
ACAD
 70
0
  0
APPID
  5
143
330
3
100
AcDbSymbolTableRecord
100
AcDbRegAppTableRecord
  2
HATCHBACKGROUNDCOLOR
 70
0
  0
APPID
  5
144
330
3
100
AcDbSymbolTableRecord
100
AcDbRegAppTableRecord
  2
EZDXF
 70
0
  0
ENDTAB
  0
TABLE
  2
DIMSTYLE
  5
4
330
0
100
AcDbSymbolTable
 70
3
100
AcDbDimStyleTable
  0
DIMSTYLE
105
2B
330
4
100
AcDbSymbolTableRecord
100
AcDbDimStyleTableRecord
  2
Standard
 70
0
 40
1.0
 41
2.5
 42
0.625
 43
3.75
 44
1.25
 45
0.0
 46
0.0
 47
0.0
 48
0.0
 49
2.5
140
2.5
141
2.5
142
0.0
143
0.03937007874
144
1.0
145
0.0
146
1.0
147
0.625
148
0.0
 69
0
 70
0
 71
0
 72
0
 73
0
 74
0
 75
0
 76
0
 77
1
 78
8
 79
3
170
0
171
3
172
1
173
0
174
0
175
0
176
0
177
0
178
0
179
2
271
2
272
2
273
2
274
3
275
0
276
0
277
2
278
44
279
0
280
0
281
0
282
0
283
0
284
8
285
0
286
0
288
0
289
3
290
0
371
-2
372
-2
  0
DIMSTYLE
105
27
330
4
100
AcDbSymbolTableRecord
100
AcDbDimStyleTableRecord
  2
ISO-25
 70
0
 40
1.0
 41
30.0
 42
0.625
 43
3.75
 44
1.25
 45
0.0
 46
0.0
 47
0.0
 48
0.0
 49
2.5
140
30.0
141
2.5
142
0.0
143
0.03937007874016
144
1.0
145
0.0
146
1.0
147
10.0
148
0.0
 69
0
 70
0
 71
0
 72
0
 73
0
 74
0
 75
0
 76
0
 77
1
 78
8
 79
3
170
0
171
3
172
1
173
0
174
0
175
0
176
0
177
0
178
0
179
2
271
0
272
0
273
2
274
3
275
0
276
0
277
2
278
44
279
0
280
0
281
0
282
0
283
0
284
8
285
0
286
0
288
0
289
3
290
0
340
29
371
-2
372
-2
  0
DIMSTYLE
105
24441B
330
4
100
AcDbSymbolTableRecord
100
AcDbDimStyleTableRecord
  2
100A
 70
0
 40
1.0
 41
30.0
 42
0.625
 43
3.75
 44
1.25
 45
0.0
 46
0.0
 47
0.0
 48
0.0
 49
2.5
140
35.0
141
2.5
142
0.0
143
0.03937007874016
144
1.0
145
0.0
146
1.0
147
10.0
148
0.0
 69
0
 70
0
 71
0
 72
0
 73
0
 74
0
 75
0
 76
0
 77
1
 78
8
 79
3
170
0
171
3
172
1
173
0
174
0
175
0
176
0
177
0
178
0
179
2
271
0
272
0
273
2
274
3
275
0
276
0
277
2
278
44
279
0
280
0
281
0
282
0
283
0
284
8
285
0
286
0
288
0
289
3
290
0
340
29
371
-2
372
-2
  0
ENDTAB
  0
TABLE
  2
BLOCK_RECORD
  5
9
330
0
100
AcDbSymbolTable
 70
18
  0
BLOCK_RECORD
  5
17
330
9
100
AcDbSymbolTableRecord
100
AcDbBlockTableRecord
  2
*Model_Space
340
1A
 70
0
280
1
281
0
  0
BLOCK_RECORD
  5
1B
330
9
100
AcDbSymbolTableRecord
100
AcDbBlockTableRecord
  2
*Paper_Space
340
1E
 70
0
280
1
281
0
  0
BLOCK_RECORD
  5
3D
330
9
100
AcDbSymbolTableRecord
100
AcDbBlockTableRecord
  2
*D1
340
0
 70
0
280
1
281
0
  0
BLOCK_RECORD
  5
4D
330
9
100
AcDbSymbolTableRecord
100
AcDbBlockTableRecord
  2
*D2
340
0
 70
0
280
1
281
0
  0
BLOCK_RECORD
  5
5B
330
9
100
AcDbSymbolTableRecord
100
AcDbBlockTableRecord
  2
*D3
340
0
 70
0
280
1
281
0
  0
BLOCK_RECORD
  5
6B
330
9
100
AcDbSymbolTableRecord
100
AcDbBlockTableRecord
  2
*D4
340
0
 70
0
280
1
281
0
  0
BLOCK_RECORD
  5
78
330
9
100
AcDbSymbolTableRecord
100
AcDbBlockTableRecord
  2
*D5
340
0
 70
0
280
1
281
0
  0
BLOCK_RECORD
  5
8D
330
9
100
AcDbSymbolTableRecord
100
AcDbBlockTableRecord
  2
*D6
340
0
 70
0
280
1
281
0
  0
BLOCK_RECORD
  5
9F
330
9
100
AcDbSymbolTableRecord
100
AcDbBlockTableRecord
  2
*D7
340
0
 70
0
280
1
281
0
  0
BLOCK_RECORD
  5
C5
330
9
100
AcDbSymbolTableRecord
100
AcDbBlockTableRecord
  2
*D8
340
0
 70
0
280
1
281
0
  0
BLOCK_RECORD
  5
D2
330
9
100
AcDbSymbolTableRecord
100
AcDbBlockTableRecord
  2
*D9
340
0
 70
0
280
1
281
0
  0
BLOCK_RECORD
  5
DF
330
9
100
AcDbSymbolTableRecord
100
AcDbBlockTableRecord
  2
*D10
340
0
 70
0
280
1
281
0
  0
BLOCK_RECORD
  5
ED
330
9
100
AcDbSymbolTableRecord
100
AcDbBlockTableRecord
  2
*D11
340
0
 70
0
280
1
281
0
  0
BLOCK_RECORD
  5
FA
330
9
100
AcDbSymbolTableRecord
100
AcDbBlockTableRecord
  2
*D12
340
0
 70
0
280
1
281
0
  0
BLOCK_RECORD
  5
10A
330
9
100
AcDbSymbolTableRecord
100
AcDbBlockTableRecord
  2
*D13
340
0
 70
0
280
1
281
0
  0
BLOCK_RECORD
  5
11A
330
9
100
AcDbSymbolTableRecord
100
AcDbBlockTableRecord
  2
*D14
340
0
 70
0
280
1
281
0
  0
BLOCK_RECORD
  5
127
330
9
100
AcDbSymbolTableRecord
100
AcDbBlockTableRecord
  2
*D15
340
0
 70
0
280
1
281
0
  0
BLOCK_RECORD
  5
135
330
9
100
AcDbSymbolTableRecord
100
AcDbBlockTableRecord
  2
*D16
340
0
 70
0
280
1
281
0
  0
ENDTAB
  0
ENDSEC
  0
SECTION
  2
BLOCKS
  0
BLOCK
  5
18
330
17
100
AcDbEntity
  8
0
100
AcDbBlockBegin
  2
*Model_Space
 70
0
 10
0.0
 20
0.0
 30
0.0
  3
*Model_Space
  1

  0
ENDBLK
  5
19
330
17
100
AcDbEntity
  8
0
100
AcDbBlockEnd
  0
BLOCK
  5
1C
330
1B
100
AcDbEntity
  8
0
100
AcDbBlockBegin
  2
*Paper_Space
 70
0
 10
0.0
 20
0.0
 30
0.0
  3
*Paper_Space
  1

  0
ENDBLK
  5
1D
330
1B
100
AcDbEntity
  8
0
100
AcDbBlockEnd
  0
BLOCK
  5
3E
330
3D
100
AcDbEntity
  8
0
100
AcDbBlockBegin
  2
*D1
 70
1
 10
0.0
 20
0.0
 30
0.0
  3
*D1
  1

  0
LINE
  5
40
330
3D
100
AcDbEntity
  8
BAR-GAL
 62
0
370
-2
440
16777216
100
AcDbLine
 10
998110.5846144684
 20
62225.8941566094
 30
0.0
 11
998110.5846144684
 21
62151.68966239779
 31
0.0
  0
LINE
  5
41
330
3D
100
AcDbEntity
  8
BAR-GAL
 62
0
370
-2
440
16777216
100
AcDbLine
 10
998570.5846144682
 20
62225.8941566094
 30
0.0
 11
998570.5846144682
 21
62151.68966239779
 31
0.0
  0
LINE
  5
42
330
3D
100
AcDbEntity
  8
BAR-GAL
 62
0
370
-2
440
16777216
100
AcDbLine
 10
998140.5846144683
 20
62152.93966239778
 30
0.0
 11
998540.5846144683
 21
62152.93966239778
 31
0.0
  0
SOLID
  5
43
330
3D
100
AcDbEntity
  8
BAR-GAL
 62
0
370
13
440
16777216
100
AcDbTrace
 10
998140.5846144683
 20
62157.93966239779
 30
0.0
 11
998140.5846144683
 21
62147.93966239779
 31
0.0
 12
998110.5846144684
 22
62152.93966239778
 32
0.0
 13
998110.5846144684
 23
62152.93966239778
 33
0.0
  0
SOLID
  5
44
330
3D
100
AcDbEntity
  8
BAR-GAL
 62
0
370
13
440
16777216
100
AcDbTrace
 10
998540.5846144683
 20
62157.93966239779
 30
0.0
 11
998540.5846144683
 21
62147.93966239779
 31
0.0
 12
998570.5846144682
 22
62152.93966239778
 32
0.0
 13
998570.5846144682
 23
62152.93966239778
 33
0.0
  0
MTEXT
  5
45
330
3D
100
AcDbEntity
  8
BAR-GAL
 62
0
370
13
440
16777216
100
AcDbMText
 10
998340.5846144684
 20
62178.25685202943
 30
0.0
 40
30.0
 41
0.0
 46
0.0
 71
5
  1
460
  0
POINT
  5
46
330
3D
100
AcDbEntity
  8
Defpoints
 62
0
370
13
440
16777216
100
AcDbPoint
 10
998110.5846144684
 20
62226.51915660939
 30
0.0
  0
POINT
  5
47
330
3D
100
AcDbEntity
  8
Defpoints
 62
0
370
13
440
16777216
100
AcDbPoint
 10
998570.5846144682
 20
62226.51915660939
 30
0.0
  0
POINT
  5
48
330
3D
100
AcDbEntity
  8
Defpoints
 62
0
370
13
440
16777216
100
AcDbPoint
 10
998570.5846144682
 20
62152.93966239778
 30
0.0
  0
ENDBLK
  5
3F
330
3D
100
AcDbEntity
  8
0
100
AcDbBlockEnd
  0
BLOCK
  5
4E
330
4D
100
AcDbEntity
  8
0
100
AcDbBlockBegin
  2
*D2
 70
1
 10
0.0
 20
0.0
 30
0.0
  3
*D2
  1

  0
LINE
  5
50
330
4D
100
AcDbEntity
  8
BAR-GAL
 62
0
370
-2
440
16777216
100
AcDbLine
 10
998851.0186864864
 20
62277.03210322567
 30
0.0
 11
998905.767884222
 21
62277.03210322567
 31
0.0
  0
LINE
  5
51
330
4D
100
AcDbEntity
  8
BAR-GAL
 62
0
370
-2
440
16777216
100
AcDbLine
 10
998851.0186864864
 20
62667.01873212607
 30
0.0
 11
998905.767884222
 21
62667.01873212607
 31
0.0
  0
LINE
  5
52
330
4D
100
AcDbEntity
  8
BAR-GAL
 62
0
370
-2
440
16777216
100
AcDbLine
 10
998904.517884222
 20
62307.03210322567
 30
0.0
 11
998904.517884222
 21
62637.01873212608
 31
0.0
  0
SOLID
  5
53
330
4D
100
AcDbEntity
  8
BAR-GAL
 62
0
370
13
440
16777216
100
AcDbTrace
 10
998899.517884222
 20
62307.03210322567
 30
0.0
 11
998909.5178842219
 21
62307.03210322567
 31
0.0
 12
998904.517884222
 22
62277.03210322567
 32
0.0
 13
998904.517884222
 23
62277.03210322567
 33
0.0
  0
SOLID
  5
54
330
4D
100
AcDbEntity
  8
BAR-GAL
 62
0
370
13
440
16777216
100
AcDbTrace
 10
998899.517884222
 20
62637.01873212608
 30
0.0
 11
998909.5178842219
 21
62637.01873212608
 31
0.0
 12
998904.517884222
 22
62667.01873212607
 32
0.0
 13
998904.517884222
 23
62667.01873212607
 33
0.0
  0
MTEXT
  5
55
330
4D
100
AcDbEntity
  8
BAR-GAL
 62
0
370
13
440
16777216
100
AcDbMText
 10
998879.1904626664
 20
62472.02541767558
 30
0.0
 40
30.0
 41
0.0
 46
0.0
 71
5
  1
390
 11
1e-16
 21
1.0
 31
0.0
  0
POINT
  5
56
330
4D
100
AcDbEntity
  8
Defpoints
 62
0
370
13
440
16777216
100
AcDbPoint
 10
998850.3936864866
 20
62277.03210322567
 30
0.0
  0
POINT
  5
57
330
4D
100
AcDbEntity
  8
Defpoints
 62
0
370
13
440
16777216
100
AcDbPoint
 10
998850.3936864866
 20
62667.01873212607
 30
0.0
  0
POINT
  5
58
330
4D
100
AcDbEntity
  8
Defpoints
 62
0
370
13
440
16777216
100
AcDbPoint
 10
998904.517884222
 20
62667.01873212607
 30
0.0
  0
ENDBLK
  5
4F
330
4D
100
AcDbEntity
  8
0
100
AcDbBlockEnd
  0
BLOCK
  5
5C
330
5B
100
AcDbEntity
  8
0
100
AcDbBlockBegin
  2
*D3
 70
1
 10
0.0
 20
0.0
 30
0.0
  3
*D3
  1

  0
LINE
  5
5E
330
5B
100
AcDbEntity
  8
BAR-GAL
 62
0
370
-2
440
16777216
100
AcDbLine
 10
998569.9029920823
 20
62669.59891112919
 30
0.0
 11
998569.9029920823
 21
62773.06485673642
 31
0.0
  0
LINE
  5
5F
330
5B
100
AcDbEntity
  8
BAR-GAL
 62
0
370
-2
440
16777216
100
AcDbLine
 10
998850.393686486
 20
62668.64373212604
 30
0.0
 11
998850.393686486
 21
62773.06485673642
 31
0.0
  0
LINE
  5
60
330
5B
100
AcDbEntity
  8
BAR-GAL
 62
0
370
-2
440
16777216
100
AcDbLine
 10
998599.9029920824
 20
62771.81485673642
 30
0.0
 11
998820.3936864861
 21
62771.81485673642
 31
0.0
  0
SOLID
  5
61
330
5B
100
AcDbEntity
  8
BAR-GAL
 62
0
370
13
440
16777216
100
AcDbTrace
 10
998599.9029920824
 20
62776.81485673642
 30
0.0
 11
998599.9029920824
 21
62766.81485673642
 31
0.0
 12
998569.9029920823
 22
62771.81485673642
 32
0.0
 13
998569.9029920823
 23
62771.81485673642
 33
0.0
  0
SOLID
  5
62
330
5B
100
AcDbEntity
  8
BAR-GAL
 62
0
370
13
440
16777216
100
AcDbTrace
 10
998820.3936864861
 20
62776.81485673642
 30
0.0
 11
998820.3936864861
 21
62766.81485673642
 31
0.0
 12
998850.393686486
 22
62771.81485673642
 32
0.0
 13
998850.393686486
 23
62771.81485673642
 33
0.0
  0
MTEXT
  5
63
330
5B
100
AcDbEntity
  8
BAR-GAL
 62
0
370
13
440
16777216
100
AcDbMText
 10
998710.1483392841
 20
62797.13204636807
 30
0.0
 40
30.0
 41
0.0
 46
0.0
 71
5
  1
280
  0
POINT
  5
64
330
5B
100
AcDbEntity
  8
Defpoints
 62
0
370
13
440
16777216
100
AcDbPoint
 10
998569.9029920823
 20
62668.97391112919
 30
0.0
  0
POINT
  5
65
330
5B
100
AcDbEntity
  8
Defpoints
 62
0
370
13
440
16777216
100
AcDbPoint
 10
998850.393686486
 20
62668.01873212604
 30
0.0
  0
POINT
  5
66
330
5B
100
AcDbEntity
  8
Defpoints
 62
0
370
13
440
16777216
100
AcDbPoint
 10
998850.393686486
 20
62771.81485673642
 30
0.0
  0
ENDBLK
  5
5D
330
5B
100
AcDbEntity
  8
0
100
AcDbBlockEnd
  0
BLOCK
  5
6C
330
6B
100
AcDbEntity
  8
0
100
AcDbBlockBegin
  2
*D4
 70
1
 10
0.0
 20
0.0
 30
0.0
  3
*D4
  1

  0
LINE
  5
6E
330
6B
100
AcDbEntity
  8
BAR-GAL
 62
0
370
-2
440
16777216
100
AcDbLine
 10
998952.9230396282
 20
62878.15812550904
 30
0.0
 11
998921.7337867884
 21
62878.15812550904
 31
0.0
  0
LINE
  5
6F
330
6B
100
AcDbEntity
  8
BAR-GAL
 62
0
370
-2
440
16777216
100
AcDbLine
 10
998949.7392632497
 20
63062.82607726981
 30
0.0
 11
998921.7337867884
 21
63062.82607726981
 31
0.0
  0
LINE
  5
70
330
6B
100
AcDbEntity
  8
BAR-GAL
 62
0
370
-2
440
16777216
100
AcDbLine
 10
998922.9837867883
 20
62908.15812550904
 30
0.0
 11
998922.9837867883
 21
63032.82607726981
 31
0.0
  0
SOLID
  5
71
330
6B
100
AcDbEntity
  8
BAR-GAL
 62
0
370
13
440
16777216
100
AcDbTrace
 10
998917.9837867883
 20
62908.15812550904
 30
0.0
 11
998927.9837867883
 21
62908.15812550904
 31
0.0
 12
998922.9837867883
 22
62878.15812550904
 32
0.0
 13
998922.9837867883
 23
62878.15812550904
 33
0.0
  0
SOLID
  5
72
330
6B
100
AcDbEntity
  8
BAR-GAL
 62
0
370
13
440
16777216
100
AcDbTrace
 10
998917.9837867883
 20
63032.82607726981
 30
0.0
 11
998927.9837867883
 21
63032.82607726981
 31
0.0
 12
998922.9837867883
 22
63062.82607726981
 32
0.0
 13
998922.9837867883
 23
63062.82607726981
 33
0.0
  0
MTEXT
  5
73
330
6B
100
AcDbEntity
  8
BAR-GAL
 62
0
370
13
440
16777216
100
AcDbMText
 10
998897.6665971566
 20
62970.49210138912
 30
0.0
 40
30.0
 41
0.0
 46
0.0
 71
5
  1
185
 11
1e-16
 21
1.0
 31
0.0
  0
POINT
  5
74
330
6B
100
AcDbEntity
  8
Defpoints
 62
0
370
13
440
16777216
100
AcDbPoint
 10
998953.5480396282
 20
62878.15812550904
 30
0.0
  0
POINT
  5
75
330
6B
100
AcDbEntity
  8
Defpoints
 62
0
370
13
440
16777216
100
AcDbPoint
 10
998950.3642632497
 20
63062.82607726981
 30
0.0
  0
POINT
  5
76
330
6B
100
AcDbEntity
  8
Defpoints
 62
0
370
13
440
16777216
100
AcDbPoint
 10
998922.9837867883
 20
63062.82607726981
 30
0.0
  0
ENDBLK
  5
6D
330
6B
100
AcDbEntity
  8
0
100
AcDbBlockEnd
  0
BLOCK
  5
79
330
78
100
AcDbEntity
  8
0
100
AcDbBlockBegin
  2
*D5
 70
1
 10
0.0
 20
0.0
 30
0.0
  3
*D5
  1

  0
LINE
  5
7B
330
78
100
AcDbEntity
  8
BAR-GAL
 62
0
370
-2
440
16777216
100
AcDbLine
 10
998569.5846144684
 20
62878.16991154955
 30
0.0
 11
998569.5846144684
 21
62824.05488414299
 31
0.0
  0
LINE
  5
7C
330
78
100
AcDbEntity
  8
BAR-GAL
 62
0
370
-2
440
16777216
100
AcDbLine
 10
998949.3642632492
 20
62878.16991154955
 30
0.0
 11
998949.3642632492
 21
62824.05488414299
 31
0.0
  0
LINE
  5
7D
330
78
100
AcDbEntity
  8
BAR-GAL
 62
0
370
-2
440
16777216
100
AcDbLine
 10
998599.5846144684
 20
62825.30488414299
 30
0.0
 11
998919.3642632493
 21
62825.30488414299
 31
0.0
  0
SOLID
  5
7E
330
78
100
AcDbEntity
  8
BAR-GAL
 62
0
370
13
440
16777216
100
AcDbTrace
 10
998599.5846144684
 20
62830.30488414299
 30
0.0
 11
998599.5846144684
 21
62820.30488414299
 31
0.0
 12
998569.5846144684
 22
62825.30488414299
 32
0.0
 13
998569.5846144684
 23
62825.30488414299
 33
0.0
  0
SOLID
  5
7F
330
78
100
AcDbEntity
  8
BAR-GAL
 62
0
370
13
440
16777216
100
AcDbTrace
 10
998919.3642632493
 20
62830.30488414299
 30
0.0
 11
998919.3642632493
 21
62820.30488414299
 31
0.0
 12
998949.3642632492
 22
62825.30488414299
 32
0.0
 13
998949.3642632492
 23
62825.30488414299
 33
0.0
  0
MTEXT
  5
80
330
78
100
AcDbEntity
  8
BAR-GAL
 62
0
370
13
440
16777216
100
AcDbMText
 10
998759.4744388587
 20
62850.63230569824
 30
0.0
 40
30.0
 41
0.0
 46
0.0
 71
5
  1
380
  0
POINT
  5
81
330
78
100
AcDbEntity
  8
Defpoints
 62
0
370
13
440
16777216
100
AcDbPoint
 10
998569.5846144684
 20
62878.79491154956
 30
0.0
  0
POINT
  5
82
330
78
100
AcDbEntity
  8
Defpoints
 62
0
370
13
440
16777216
100
AcDbPoint
 10
998949.3642632492
 20
62878.79491154956
 30
0.0
  0
POINT
  5
83
330
78
100
AcDbEntity
  8
Defpoints
 62
0
370
13
440
16777216
100
AcDbPoint
 10
998949.3642632492
 20
62825.30488414299
 30
0.0
  0
ENDBLK
  5
7A
330
78
100
AcDbEntity
  8
0
100
AcDbBlockEnd
  0
BLOCK
  5
8E
330
8D
100
AcDbEntity
  8
0
100
AcDbBlockBegin
  2
*D6
 70
1
 10
0.0
 20
0.0
 30
0.0
  3
*D6
  1

  0
LINE
  5
90
330
8D
100
AcDbEntity
  8
BAR-GAL
 62
0
370
-2
440
16777216
100
AcDbLine
 10
998851.3319963939
 20
62277.65710322564
 30
0.0
 11
998851.3319963939
 21
62330.88035853347
 31
0.0
  0
LINE
  5
91
330
8D
100
AcDbEntity
  8
BAR-GAL
 62
0
370
-2
440
16777216
100
AcDbLine
 10
998850.393686486
 20
62277.65710322564
 30
0.0
 11
998850.393686486
 21
62330.88035853347
 31
0.0
  0
LINE
  5
92
330
8D
100
AcDbEntity
  8
BAR-GAL
 62
0
370
-2
440
16777216
100
AcDbLine
 10
998881.3319963939
 20
62329.63035853346
 30
0.0
 11
998911.3319963939
 21
62329.63035853346
 31
0.0
  0
LINE
  5
93
330
8D
100
AcDbEntity
  8
BAR-GAL
 62
0
370
-2
440
16777216
100
AcDbLine
 10
998820.3936864861
 20
62329.63035853346
 30
0.0
 11
998759.3432089963
 21
62329.63035853346
 31
0.0
  0
LINE
  5
94
330
8D
100
AcDbEntity
  8
BAR-GAL
 62
0
370
-2
440
16777216
100
AcDbLine
 10
998851.3319963939
 20
62329.63035853346
 30
0.0
 11
998850.393686486
 21
62329.63035853346
 31
0.0
  0
SOLID
  5
95
330
8D
100
AcDbEntity
  8
BAR-GAL
 62
0
370
13
440
16777216
100
AcDbTrace
 10
998881.3319963939
 20
62334.63035853347
 30
0.0
 11
998881.3319963939
 21
62324.63035853347
 31
0.0
 12
998851.3319963939
 22
62329.63035853346
 32
0.0
 13
998851.3319963939
 23
62329.63035853346
 33
0.0
  0
SOLID
  5
96
330
8D
100
AcDbEntity
  8
BAR-GAL
 62
0
370
13
440
16777216
100
AcDbTrace
 10
998820.3936864861
 20
62334.63035853347
 30
0.0
 11
998820.3936864861
 21
62324.63035853347
 31
0.0
 12
998850.393686486
 22
62329.63035853346
 32
0.0
 13
998850.393686486
 23
62329.63035853346
 33
0.0
  0
MTEXT
  5
97
330
8D
100
AcDbEntity
  8
BAR-GAL
 62
0
370
13
440
16777216
100
AcDbMText
 10
998774.8684477411
 20
62354.69175007508
 30
0.0
 40
30.0
 41
0.0
 46
0.0
 71
5
  1
1
  0
POINT
  5
98
330
8D
100
AcDbEntity
  8
Defpoints
 62
0
370
13
440
16777216
100
AcDbPoint
 10
998851.3319963939
 20
62277.03210322564
 30
0.0
  0
POINT
  5
99
330
8D
100
AcDbEntity
  8
Defpoints
 62
0
370
13
440
16777216
100
AcDbPoint
 10
998850.393686486
 20
62277.03210322564
 30
0.0
  0
POINT
  5
9A
330
8D
100
AcDbEntity
  8
Defpoints
 62
0
370
13
440
16777216
100
AcDbPoint
 10
998850.393686486
 20
62329.63035853346
 30
0.0
  0
ENDBLK
  5
8F
330
8D
100
AcDbEntity
  8
0
100
AcDbBlockEnd
  0
BLOCK
  5
A0
330
9F
100
AcDbEntity
  8
0
100
AcDbBlockBegin
  2
*D7
 70
1
 10
0.0
 20
0.0
 30
0.0
  3
*D7
  1

  0
LINE
  5
A2
330
9F
100
AcDbEntity
  8
BAR-GAL
 62
0
370
-2
440
16777216
100
AcDbLine
 10
997738.675458789
 20
62602.8874951579
 30
0.0
 11
997448.3296250408
 21
62602.8874951579
 31
0.0
  0
LINE
  5
A3
330
9F
100
AcDbEntity
  8
BAR-GAL
 62
0
370
-2
440
16777216
100
AcDbLine
 10
997738.675458789
 20
61962.88749515793
 30
0.0
 11
997448.3296250408
 21
61962.88749515793
 31
0.0
  0
LINE
  5
A4
330
9F
100
AcDbEntity
  8
BAR-GAL
 62
0
370
-2
440
16777216
100
AcDbLine
 10
997449.5796250408
 20
62572.8874951579
 30
0.0
 11
997449.5796250408
 21
61992.88749515793
 31
0.0
  0
SOLID
  5
A5
330
9F
100
AcDbEntity
  8
BAR-GAL
 62
0
370
13
440
16777216
100
AcDbTrace
 10
997444.5796250408
 20
62572.8874951579
 30
0.0
 11
997454.5796250408
 21
62572.8874951579
 31
0.0
 12
997449.5796250408
 22
62602.8874951579
 32
0.0
 13
997449.5796250408
 23
62602.8874951579
 33
0.0
  0
SOLID
  5
A6
330
9F
100
AcDbEntity
  8
BAR-GAL
 62
0
370
13
440
16777216
100
AcDbTrace
 10
997444.5796250408
 20
61992.88749515793
 30
0.0
 11
997454.5796250408
 21
61992.88749515793
 31
0.0
 12
997449.5796250408
 22
61962.88749515793
 32
0.0
 13
997449.5796250408
 23
61962.88749515793
 33
0.0
  0
MTEXT
  5
A7
330
9F
100
AcDbEntity
  8
BAR-GAL
 62
0
370
13
440
16777216
100
AcDbMText
 10
997424.262435409
 20
62282.88749515763
 30
0.0
 40
30.0
 41
0.0
 46
0.0
 71
5
  1
640
 11
1e-16
 21
1.0
 31
0.0
  0
POINT
  5
A8
330
9F
100
AcDbEntity
  8
Defpoints
 62
0
370
13
440
16777216
100
AcDbPoint
 10
997739.300458789
 20
62602.8874951579
 30
0.0
  0
POINT
  5
A9
330
9F
100
AcDbEntity
  8
Defpoints
 62
0
370
13
440
16777216
100
AcDbPoint
 10
997739.300458789
 20
61962.88749515793
 30
0.0
  0
POINT
  5
AA
330
9F
100
AcDbEntity
  8
Defpoints
 62
0
370
13
440
16777216
100
AcDbPoint
 10
997449.5796250408
 20
61962.88749515793
 30
0.0
  0
ENDBLK
  5
A1
330
9F
100
AcDbEntity
  8
0
100
AcDbBlockEnd
  0
BLOCK
  5
C6
330
C5
100
AcDbEntity
  8
0
100
AcDbBlockBegin
  2
*D8
 70
1
 10
0.0
 20
0.0
 30
0.0
  3
*D8
  1

  0
LINE
  5
C8
330
C5
100
AcDbEntity
  8
BAR-GAL
 62
0
370
-2
440
16777216
100
AcDbLine
 10
997617.9370469578
 20
62602.26249515787
 30
0.0
 11
997617.9370469578
 21
62501.65001118161
 31
0.0
  0
LINE
  5
C9
330
C5
100
AcDbEntity
  8
BAR-GAL
 62
0
370
-2
440
16777216
100
AcDbLine
 10
997937.5498856276
 20
62602.26249515787
 30
0.0
 11
997937.5498856276
 21
62501.65001118161
 31
0.0
  0
LINE
  5
CA
330
C5
100
AcDbEntity
  8
BAR-GAL
 62
0
370
-2
440
16777216
100
AcDbLine
 10
997647.9370469578
 20
62502.90001118161
 30
0.0
 11
997907.5498856275
 21
62502.90001118161
 31
0.0
  0
SOLID
  5
CB
330
C5
100
AcDbEntity
  8
BAR-GAL
 62
0
370
13
440
16777216
100
AcDbTrace
 10
997647.9370469578
 20
62507.90001118161
 30
0.0
 11
997647.9370469578
 21
62497.90001118161
 31
0.0
 12
997617.9370469578
 22
62502.90001118161
 32
0.0
 13
997617.9370469578
 23
62502.90001118161
 33
0.0
  0
SOLID
  5
CC
330
C5
100
AcDbEntity
  8
BAR-GAL
 62
0
370
13
440
16777216
100
AcDbTrace
 10
997907.5498856275
 20
62507.90001118161
 30
0.0
 11
997907.5498856275
 21
62497.90001118161
 31
0.0
 12
997937.5498856276
 22
62502.90001118161
 32
0.0
 13
997937.5498856276
 23
62502.90001118161
 33
0.0
  0
MTEXT
  5
CD
330
C5
100
AcDbEntity
  8
BAR-GAL
 62
0
370
13
440
16777216
100
AcDbMText
 10
997777.7434662925
 20
62528.22743273687
 30
0.0
 40
30.0
 41
0.0
 46
0.0
 71
5
  1
320
  0
POINT
  5
CE
330
C5
100
AcDbEntity
  8
Defpoints
 62
0
370
13
440
16777216
100
AcDbPoint
 10
997617.9370469578
 20
62602.88749515788
 30
0.0
  0
POINT
  5
CF
330
C5
100
AcDbEntity
  8
Defpoints
 62
0
370
13
440
16777216
100
AcDbPoint
 10
997937.5498856276
 20
62602.88749515788
 30
0.0
  0
POINT
  5
D0
330
C5
100
AcDbEntity
  8
Defpoints
 62
0
370
13
440
16777216
100
AcDbPoint
 10
997937.5498856276
 20
62502.90001118161
 30
0.0
  0
ENDBLK
  5
C7
330
C5
100
AcDbEntity
  8
0
100
AcDbBlockEnd
  0
BLOCK
  5
D3
330
D2
100
AcDbEntity
  8
0
100
AcDbBlockBegin
  2
*D9
 70
1
 10
0.0
 20
0.0
 30
0.0
  3
*D9
  1

  0
LINE
  5
D5
330
D2
100
AcDbEntity
  8
BAR-GAL
 62
0
370
-2
440
16777216
100
AcDbLine
 10
997937.5498856276
 20
62602.26249515788
 30
0.0
 11
997937.5498856276
 21
62501.65001118161
 31
0.0
  0
LINE
  5
D6
330
D2
100
AcDbEntity
  8
BAR-GAL
 62
0
370
-2
440
16777216
100
AcDbLine
 10
998107.9370469577
 20
62602.26249515787
 30
0.0
 11
998107.9370469577
 21
62501.65001118161
 31
0.0
  0
LINE
  5
D7
330
D2
100
AcDbEntity
  8
BAR-GAL
 62
0
370
-2
440
16777216
100
AcDbLine
 10
997967.5498856275
 20
62502.90001118161
 30
0.0
 11
998077.9370469576
 21
62502.90001118161
 31
0.0
  0
SOLID
  5
D8
330
D2
100
AcDbEntity
  8
BAR-GAL
 62
0
370
13
440
16777216
100
AcDbTrace
 10
997967.5498856275
 20
62507.90001118161
 30
0.0
 11
997967.5498856275
 21
62497.90001118161
 31
0.0
 12
997937.5498856276
 22
62502.90001118161
 32
0.0
 13
997937.5498856276
 23
62502.90001118161
 33
0.0
  0
SOLID
  5
D9
330
D2
100
AcDbEntity
  8
BAR-GAL
 62
0
370
13
440
16777216
100
AcDbTrace
 10
998077.9370469576
 20
62507.90001118161
 30
0.0
 11
998077.9370469576
 21
62497.90001118161
 31
0.0
 12
998107.9370469577
 22
62502.90001118161
 32
0.0
 13
998107.9370469577
 23
62502.90001118161
 33
0.0
  0
MTEXT
  5
DA
330
D2
100
AcDbEntity
  8
BAR-GAL
 62
0
370
13
440
16777216
100
AcDbMText
 10
998022.7434662927
 20
62528.21720081326
 30
0.0
 40
30.0
 41
0.0
 46
0.0
 71
5
  1
170
  0
POINT
  5
DB
330
D2
100
AcDbEntity
  8
Defpoints
 62
0
370
13
440
16777216
100
AcDbPoint
 10
997937.5498856276
 20
62602.88749515789
 30
0.0
  0
POINT
  5
DC
330
D2
100
AcDbEntity
  8
Defpoints
 62
0
370
13
440
16777216
100
AcDbPoint
 10
998107.9370469577
 20
62602.88749515788
 30
0.0
  0
POINT
  5
DD
330
D2
100
AcDbEntity
  8
Defpoints
 62
0
370
13
440
16777216
100
AcDbPoint
 10
998107.9370469577
 20
62502.90001118161
 30
0.0
  0
ENDBLK
  5
D4
330
D2
100
AcDbEntity
  8
0
100
AcDbBlockEnd
  0
BLOCK
  5
E0
330
DF
100
AcDbEntity
  8
0
100
AcDbBlockBegin
  2
*D10
 70
1
 10
0.0
 20
0.0
 30
0.0
  3
*D10
  1

  0
LINE
  5
E2
330
DF
100
AcDbEntity
  8
BAR-GAL
 62
0
370
-2
440
16777216
100
AcDbLine
 10
997616.0351234142
 20
63419.28466503847
 30
0.0
 11
997616.0351234142
 21
63809.9319780155
 31
0.0
  0
LINE
  5
E3
330
DF
100
AcDbEntity
  8
BAR-GAL
 62
0
370
-2
440
16777216
100
AcDbLine
 10
999016.0351234142
 20
63419.28466503847
 30
0.0
 11
999016.0351234142
 21
63809.9319780155
 31
0.0
  0
LINE
  5
E4
330
DF
100
AcDbEntity
  8
BAR-GAL
 62
0
370
-2
440
16777216
100
AcDbLine
 10
997646.0351234142
 20
63808.68197801549
 30
0.0
 11
998986.0351234142
 21
63808.68197801549
 31
0.0
  0
SOLID
  5
E5
330
DF
100
AcDbEntity
  8
BAR-GAL
 62
0
370
13
440
16777216
100
AcDbTrace
 10
997646.0351234142
 20
63813.6819780155
 30
0.0
 11
997646.0351234142
 21
63803.6819780155
 31
0.0
 12
997616.0351234142
 22
63808.68197801549
 32
0.0
 13
997616.0351234142
 23
63808.68197801549
 33
0.0
  0
SOLID
  5
E6
330
DF
100
AcDbEntity
  8
BAR-GAL
 62
0
370
13
440
16777216
100
AcDbTrace
 10
998986.0351234142
 20
63813.6819780155
 30
0.0
 11
998986.0351234142
 21
63803.6819780155
 31
0.0
 12
999016.0351234142
 22
63808.68197801549
 32
0.0
 13
999016.0351234142
 23
63808.68197801549
 33
0.0
  0
MTEXT
  5
E7
330
DF
100
AcDbEntity
  8
BAR-GAL
 62
0
370
13
440
16777216
100
AcDbMText
 10
998316.0351234142
 20
63833.99916764714
 30
0.0
 40
30.0
 41
0.0
 46
0.0
 71
5
  1
1400
  0
POINT
  5
E8
330
DF
100
AcDbEntity
  8
Defpoints
 62
0
370
13
440
16777216
100
AcDbPoint
 10
997616.0351234142
 20
63418.65966503847
 30
0.0
  0
POINT
  5
E9
330
DF
100
AcDbEntity
  8
Defpoints
 62
0
370
13
440
16777216
100
AcDbPoint
 10
999016.0351234142
 20
63418.65966503847
 30
0.0
  0
POINT
  5
EA
330
DF
100
AcDbEntity
  8
Defpoints
 62
0
370
13
440
16777216
100
AcDbPoint
 10
999016.0351234142
 20
63808.68197801549
 30
0.0
  0
ENDBLK
  5
E1
330
DF
100
AcDbEntity
  8
0
100
AcDbBlockEnd
  0
BLOCK
  5
EE
330
ED
100
AcDbEntity
  8
0
100
AcDbBlockBegin
  2
*D11
 70
1
 10
0.0
 20
0.0
 30
0.0
  3
*D11
  1

  0
LINE
  5
F0
330
ED
100
AcDbEntity
  8
BAR-GAL
 62
0
370
-2
440
16777216
100
AcDbLine
 10
998850.3319963939
 20
62222.91721430932
 30
0.0
 11
998850.3319963939
 21
62151.68966239779
 31
0.0
  0
LINE
  5
F1
330
ED
100
AcDbEntity
  8
BAR-GAL
 62
0
370
-2
440
16777216
100
AcDbLine
 10
998570.5846144682
 20
62228.57987559324
 30
0.0
 11
998570.5846144682
 21
62151.68966239779
 31
0.0
  0
LINE
  5
F2
330
ED
100
AcDbEntity
  8
BAR-GAL
 62
0
370
-2
440
16777216
100
AcDbLine
 10
998820.331996394
 20
62152.93966239778
 30
0.0
 11
998600.5846144683
 21
62152.93966239778
 31
0.0
  0
SOLID
  5
F3
330
ED
100
AcDbEntity
  8
BAR-GAL
 62
0
370
13
440
16777216
100
AcDbTrace
 10
998820.331996394
 20
62157.93966239779
 30
0.0
 11
998820.331996394
 21
62147.93966239779
 31
0.0
 12
998850.3319963939
 22
62152.93966239778
 32
0.0
 13
998850.3319963939
 23
62152.93966239778
 33
0.0
  0
SOLID
  5
F4
330
ED
100
AcDbEntity
  8
BAR-GAL
 62
0
370
13
440
16777216
100
AcDbTrace
 10
998600.5846144683
 20
62157.93966239779
 30
0.0
 11
998600.5846144683
 21
62147.93966239779
 31
0.0
 12
998570.5846144682
 22
62152.93966239778
 32
0.0
 13
998570.5846144682
 23
62152.93966239778
 33
0.0
  0
MTEXT
  5
F5
330
ED
100
AcDbEntity
  8
BAR-GAL
 62
0
370
13
440
16777216
100
AcDbMText
 10
998710.4583054311
 20
62178.25685202943
 30
0.0
 40
30.0
 41
0.0
 46
0.0
 71
5
  1
280
  0
POINT
  5
F6
330
ED
100
AcDbEntity
  8
Defpoints
 62
0
370
13
440
16777216
100
AcDbPoint
 10
998850.3319963939
 20
62223.54221430931
 30
0.0
  0
POINT
  5
F7
330
ED
100
AcDbEntity
  8
Defpoints
 62
0
370
13
440
16777216
100
AcDbPoint
 10
998570.5846144682
 20
62229.20487559324
 30
0.0
  0
POINT
  5
F8
330
ED
100
AcDbEntity
  8
Defpoints
 62
0
370
13
440
16777216
100
AcDbPoint
 10
998570.5846144682
 20
62152.93966239778
 30
0.0
  0
ENDBLK
  5
EF
330
ED
100
AcDbEntity
  8
0
100
AcDbBlockEnd
  0
BLOCK
  5
FB
330
FA
100
AcDbEntity
  8
0
100
AcDbBlockBegin
  2
*D12
 70
1
 10
0.0
 20
0.0
 30
0.0
  3
*D12
  1

  0
LINE
  5
FD
330
FA
100
AcDbEntity
  8
BAR-GAL
 62
0
370
-2
440
16777216
100
AcDbLine
 10
998107.9370469577
 20
61962.26249515788
 30
0.0
 11
998107.9370469577
 21
61895.5253729844
 31
0.0
  0
LINE
  5
FE
330
FA
100
AcDbEntity
  8
BAR-GAL
 62
0
370
-2
440
16777216
100
AcDbLine
 10
998231.4917695163
 20
61960.5613656009
 30
0.0
 11
998231.4917695163
 21
61895.5253729844
 31
0.0
  0
LINE
  5
FF
330
FA
100
AcDbEntity
  8
BAR-GAL
 62
0
370
-2
440
16777216
100
AcDbLine
 10
998137.9370469577
 20
61896.7753729844
 30
0.0
 11
998201.4917695161
 21
61896.7753729844
 31
0.0
  0
SOLID
  5
100
330
FA
100
AcDbEntity
  8
BAR-GAL
 62
0
370
13
440
16777216
100
AcDbTrace
 10
998137.9370469577
 20
61901.7753729844
 30
0.0
 11
998137.9370469577
 21
61891.7753729844
 31
0.0
 12
998107.9370469577
 22
61896.7753729844
 32
0.0
 13
998107.9370469577
 23
61896.7753729844
 33
0.0
  0
SOLID
  5
101
330
FA
100
AcDbEntity
  8
BAR-GAL
 62
0
370
13
440
16777216
100
AcDbTrace
 10
998201.4917695161
 20
61901.7753729844
 30
0.0
 11
998201.4917695161
 21
61891.7753729844
 31
0.0
 12
998231.4917695163
 22
61896.7753729844
 32
0.0
 13
998231.4917695163
 23
61896.7753729844
 33
0.0
  0
MTEXT
  5
102
330
FA
100
AcDbEntity
  8
BAR-GAL
 62
0
370
13
440
16777216
100
AcDbMText
 10
998169.7144082369
 20
61921.83676452601
 30
0.0
 40
30.0
 41
0.0
 46
0.0
 71
5
  1
124
  0
POINT
  5
103
330
FA
100
AcDbEntity
  8
Defpoints
 62
0
370
13
440
16777216
100
AcDbPoint
 10
998107.9370469577
 20
61962.88749515789
 30
0.0
  0
POINT
  5
104
330
FA
100
AcDbEntity
  8
Defpoints
 62
0
370
13
440
16777216
100
AcDbPoint
 10
998231.4917695163
 20
61961.1863656009
 30
0.0
  0
POINT
  5
105
330
FA
100
AcDbEntity
  8
Defpoints
 62
0
370
13
440
16777216
100
AcDbPoint
 10
998231.4917695163
 20
61896.7753729844
 30
0.0
  0
ENDBLK
  5
FC
330
FA
100
AcDbEntity
  8
0
100
AcDbBlockEnd
  0
BLOCK
  5
10B
330
10A
100
AcDbEntity
  8
0
100
AcDbBlockBegin
  2
*D13
 70
1
 10
0.0
 20
0.0
 30
0.0
  3
*D13
  1

  0
LINE
  5
10D
330
10A
100
AcDbEntity
  8
BAR-GAL
 62
0
370
-2
440
16777216
100
AcDbLine
 10
998851.6931398249
 20
62226.46650839489
 30
0.0
 11
998851.6931398249
 21
62151.68966239779
 31
0.0
  0
LINE
  5
10E
330
10A
100
AcDbEntity
  8
BAR-GAL
 62
0
370
-2
440
16777216
100
AcDbLine
 10
999016.5234783541
 20
62220.41455975193
 30
0.0
 11
999016.5234783541
 21
62151.68966239779
 31
0.0
  0
LINE
  5
10F
330
10A
100
AcDbEntity
  8
BAR-GAL
 62
0
370
-2
440
16777216
100
AcDbLine
 10
998881.6931398249
 20
62152.93966239778
 30
0.0
 11
998986.5234783541
 21
62152.93966239778
 31
0.0
  0
SOLID
  5
110
330
10A
100
AcDbEntity
  8
BAR-GAL
 62
0
370
13
440
16777216
100
AcDbTrace
 10
998881.6931398249
 20
62157.93966239779
 30
0.0
 11
998881.6931398249
 21
62147.93966239779
 31
0.0
 12
998851.6931398249
 22
62152.93966239778
 32
0.0
 13
998851.6931398249
 23
62152.93966239778
 33
0.0
  0
SOLID
  5
111
330
10A
100
AcDbEntity
  8
BAR-GAL
 62
0
370
13
440
16777216
100
AcDbTrace
 10
998986.5234783541
 20
62157.93966239779
 30
0.0
 11
998986.5234783541
 21
62147.93966239779
 31
0.0
 12
999016.5234783541
 22
62152.93966239778
 32
0.0
 13
999016.5234783541
 23
62152.93966239778
 33
0.0
  0
MTEXT
  5
112
330
10A
100
AcDbEntity
  8
BAR-GAL
 62
0
370
13
440
16777216
100
AcDbMText
 10
998934.1083090896
 20
62178.25685202943
 30
0.0
 40
30.0
 41
0.0
 46
0.0
 71
5
  1
165
  0
POINT
  5
113
330
10A
100
AcDbEntity
  8
Defpoints
 62
0
370
13
440
16777216
100
AcDbPoint
 10
998851.6931398249
 20
62227.09150839489
 30
0.0
  0
POINT
  5
114
330
10A
100
AcDbEntity
  8
Defpoints
 62
0
370
13
440
16777216
100
AcDbPoint
 10
999016.5234783541
 20
62221.03955975193
 30
0.0
  0
POINT
  5
115
330
10A
100
AcDbEntity
  8
Defpoints
 62
0
370
13
440
16777216
100
AcDbPoint
 10
999016.5234783541
 20
62152.93966239778
 30
0.0
  0
ENDBLK
  5
10C
330
10A
100
AcDbEntity
  8
0
100
AcDbBlockEnd
  0
BLOCK
  5
11B
330
11A
100
AcDbEntity
  8
0
100
AcDbBlockBegin
  2
*D14
 70
1
 10
0.0
 20
0.0
 30
0.0
  3
*D14
  1

  0
LINE
  5
11D
330
11A
100
AcDbEntity
  8
BAR-GAL
 62
0
370
-2
440
16777216
100
AcDbLine
 10
999015.7793173786
 20
63535.73263273934
 30
0.0
 11
999449.3944700327
 21
63535.73263273935
 31
0.0
  0
LINE
  5
11E
330
11A
100
AcDbEntity
  8
BAR-GAL
 62
0
370
-2
440
16777216
100
AcDbLine
 10
999020.2244350278
 20
61650.48487875012
 30
0.0
 11
999449.3944700327
 21
61650.48487875012
 31
0.0
  0
LINE
  5
11F
330
11A
100
AcDbEntity
  8
BAR-GAL
 62
0
370
-2
440
16777216
100
AcDbLine
 10
999448.1444700327
 20
63505.73263273934
 30
0.0
 11
999448.1444700327
 21
61680.48487875013
 31
0.0
  0
SOLID
  5
120
330
11A
100
AcDbEntity
  8
BAR-GAL
 62
0
370
13
440
16777216
100
AcDbTrace
 10
999443.1444700327
 20
63505.73263273934
 30
0.0
 11
999453.1444700328
 21
63505.73263273934
 31
0.0
 12
999448.1444700327
 22
63535.73263273935
 32
0.0
 13
999448.1444700327
 23
63535.73263273935
 33
0.0
  0
SOLID
  5
121
330
11A
100
AcDbEntity
  8
BAR-GAL
 62
0
370
13
440
16777216
100
AcDbTrace
 10
999443.1444700327
 20
61680.48487875013
 30
0.0
 11
999453.1444700328
 21
61680.48487875013
 31
0.0
 12
999448.1444700327
 22
61650.48487875012
 32
0.0
 13
999448.1444700327
 23
61650.48487875012
 33
0.0
  0
MTEXT
  5
122
330
11A
100
AcDbEntity
  8
BAR-GAL
 62
0
370
13
440
16777216
100
AcDbMText
 10
999422.8272804008
 20
62593.10875574444
 30
0.0
 40
30.0
 41
0.0
 46
0.0
 71
5
  1
1885
 11
1e-16
 21
1.0
 31
0.0
  0
POINT
  5
123
330
11A
100
AcDbEntity
  8
Defpoints
 62
0
370
13
440
16777216
100
AcDbPoint
 10
999015.1543173786
 20
63535.73263273934
 30
0.0
  0
POINT
  5
124
330
11A
100
AcDbEntity
  8
Defpoints
 62
0
370
13
440
16777216
100
AcDbPoint
 10
999019.599435028
 20
61650.48487875012
 30
0.0
  0
POINT
  5
125
330
11A
100
AcDbEntity
  8
Defpoints
 62
0
370
13
440
16777216
100
AcDbPoint
 10
999448.1444700327
 20
61650.48487875012
 30
0.0
  0
ENDBLK
  5
11C
330
11A
100
AcDbEntity
  8
0
100
AcDbBlockEnd
  0
BLOCK
  5
128
330
127
100
AcDbEntity
  8
0
100
AcDbBlockBegin
  2
*D15
 70
1
 10
0.0
 20
0.0
 30
0.0
  3
*D15
  1

  0
LINE
  5
12A
330
127
100
AcDbEntity
  8
BAR-GAL
 62
0
370
-2
440
16777216
100
AcDbLine
 10
997738.675458789
 20
61962.88749515793
 30
0.0
 11
997448.3296250413
 21
61962.88749515793
 31
0.0
  0
LINE
  5
12B
330
127
100
AcDbEntity
  8
BAR-GAL
 62
0
370
-2
440
16777216
100
AcDbLine
 10
997738.675458789
 20
61651.88749515793
 30
0.0
 11
997448.3296250413
 21
61651.88749515793
 31
0.0
  0
LINE
  5
12C
330
127
100
AcDbEntity
  8
BAR-GAL
 62
0
370
-2
440
16777216
100
AcDbLine
 10
997449.5796250415
 20
61932.88749515793
 30
0.0
 11
997449.5796250415
 21
61681.88749515794
 31
0.0
  0
SOLID
  5
12D
330
127
100
AcDbEntity
  8
BAR-GAL
 62
0
370
13
440
16777216
100
AcDbTrace
 10
997444.5796250415
 20
61932.88749515793
 30
0.0
 11
997454.5796250415
 21
61932.88749515793
 31
0.0
 12
997449.5796250415
 22
61962.88749515793
 32
0.0
 13
997449.5796250415
 23
61962.88749515793
 33
0.0
  0
SOLID
  5
12E
330
127
100
AcDbEntity
  8
BAR-GAL
 62
0
370
13
440
16777216
100
AcDbTrace
 10
997444.5796250415
 20
61681.88749515794
 30
0.0
 11
997454.5796250415
 21
61681.88749515794
 31
0.0
 12
997449.5796250415
 22
61651.88749515793
 32
0.0
 13
997449.5796250415
 23
61651.88749515793
 33
0.0
  0
MTEXT
  5
12F
330
127
100
AcDbEntity
  8
BAR-GAL
 62
0
370
13
440
16777216
100
AcDbMText
 10
997424.2522034858
 20
61807.38749515764
 30
0.0
 40
30.0
 41
0.0
 46
0.0
 71
5
  1
311
 11
1e-16
 21
1.0
 31
0.0
  0
POINT
  5
130
330
127
100
AcDbEntity
  8
Defpoints
 62
0
370
13
440
16777216
100
AcDbPoint
 10
997739.300458789
 20
61962.88749515793
 30
0.0
  0
POINT
  5
131
330
127
100
AcDbEntity
  8
Defpoints
 62
0
370
13
440
16777216
100
AcDbPoint
 10
997739.300458789
 20
61651.88749515793
 30
0.0
  0
POINT
  5
132
330
127
100
AcDbEntity
  8
Defpoints
 62
0
370
13
440
16777216
100
AcDbPoint
 10
997449.5796250415
 20
61651.88749515793
 30
0.0
  0
ENDBLK
  5
129
330
127
100
AcDbEntity
  8
0
100
AcDbBlockEnd
  0
BLOCK
  5
136
330
135
100
AcDbEntity
  8
0
100
AcDbBlockBegin
  2
*D16
 70
1
 10
0.0
 20
0.0
 30
0.0
  3
*D16
  1

  0
LINE
  5
138
330
135
100
AcDbEntity
  8
BAR-GAL
 62
0
370
-2
440
16777216
100
AcDbLine
 10
998233.7624157864
 20
61648.42689538391
 30
0.0
 11
998233.7624157864
 21
61683.88038173067
 31
0.0
  0
LINE
  5
139
330
135
100
AcDbEntity
  8
BAR-GAL
 62
0
370
-2
440
16777216
100
AcDbLine
 10
997973.6374399621
 20
61648.42542957477
 30
0.0
 11
997973.6374399621
 21
61683.88038173067
 31
0.0
  0
LINE
  5
13A
330
135
100
AcDbEntity
  8
BAR-GAL
 62
0
370
-2
440
16777216
100
AcDbLine
 10
998203.7624157864
 20
61682.63038173066
 30
0.0
 11
998003.6374399622
 21
61682.63038173066
 31
0.0
  0
SOLID
  5
13B
330
135
100
AcDbEntity
  8
BAR-GAL
 62
0
370
13
440
16777216
100
AcDbTrace
 10
998203.7624157864
 20
61687.63038173067
 30
0.0
 11
998203.7624157864
 21
61677.63038173067
 31
0.0
 12
998233.7624157864
 22
61682.63038173066
 32
0.0
 13
998233.7624157864
 23
61682.63038173066
 33
0.0
  0
SOLID
  5
13C
330
135
100
AcDbEntity
  8
BAR-GAL
 62
0
370
13
440
16777216
100
AcDbTrace
 10
998003.6374399622
 20
61687.63038173067
 30
0.0
 11
998003.6374399622
 21
61677.63038173067
 31
0.0
 12
997973.6374399621
 22
61682.63038173066
 32
0.0
 13
997973.6374399621
 23
61682.63038173066
 33
0.0
  0
MTEXT
  5
13D
330
135
100
AcDbEntity
  8
BAR-GAL
 62
0
370
13
440
16777216
100
AcDbMText
 10
998103.6999278741
 20
61707.94757136231
 30
0.0
 40
30.0
 41
0.0
 46
0.0
 71
5
  1
260
  0
POINT
  5
13E
330
135
100
AcDbEntity
  8
Defpoints
 62
0
370
13
440
16777216
100
AcDbPoint
 10
998233.7624157864
 20
61647.80189538392
 30
0.0
  0
POINT
  5
13F
330
135
100
AcDbEntity
  8
Defpoints
 62
0
370
13
440
16777216
100
AcDbPoint
 10
997973.6374399621
 20
61647.80042957477
 30
0.0
  0
POINT
  5
140
330
135
100
AcDbEntity
  8
Defpoints
 62
0
370
13
440
16777216
100
AcDbPoint
 10
997973.6374399621
 20
61682.63038173066
 30
0.0
  0
ENDBLK
  5
137
330
135
100
AcDbEntity
  8
0
100
AcDbBlockEnd
  0
ENDSEC
  0
SECTION
  2
ENTITIES
  0
LWPOLYLINE
  5
35
330
17
100
AcDbEntity
  8
0
370
13
100
AcDbPolyline
 90
4
 70
1
 43
3.428535235377893
 10
1000584.931009956
 20
60156.51927490788
 10
995492.718451598
 20
60156.51927490788
 10
995492.718451598
 20
64272.43997279946
 10
1000587.606062364
 20
64272.43997279946
  0
LWPOLYLINE
  5
36
330
17
100
AcDbEntity
  8
BAR-GAL
 62
8
370
13
100
AcDbPolyline
 90
4
 70
1
 10
998850.393686486
 20
62278.30567530675
 10
998569.5846144684
 20
62277.66888926619
 10
998569.5846144684
 20
62223.54221430931
 10
998587.7195014703
 20
62251.45495734015
  0
LWPOLYLINE
  5
37
330
17
100
AcDbEntity
  8
BAR-GAL
 62
7
370
13
100
AcDbPolyline
 90
2
 70
0
 43
15.0
 10
998232.1837656533
 20
61647.79896376562
 10
998233.7624157864
 20
61647.80189538392
  0
LWPOLYLINE
  5
38
330
17
100
AcDbEntity
  8
BAR-GAL
 62
7
370
13
100
AcDbPolyline
 90
10
 70
0
 43
15.0
 10
998231.5986332761
 20
61962.88749515788
 10
998107.9370469577
 20
61962.88749515788
 10
998107.9370469577
 20
62602.88749515788
 10
997937.5498856273
 20
62602.88749515788
 10
997937.5498856273
 20
62722.88749515787
 10
997637.9370469578
 20
62722.88749515787
 10
997617.9370469578
 20
62722.88749515787
 10
997617.9370469578
 20
63532.45592066891
 10
997614.1331998706
 20
63532.45592066891
 10
999016.0351234142
 20
63532.45592066891
  0
LWPOLYLINE
  5
39
330
17
100
AcDbEntity
  8
BAR-GAL
 62
7
370
13
100
AcDbPolyline
 90
4
 70
1
 43
15.0
 10
998950.3642632492
 20
62878.158125509
 10
999015.6442782409
 20
62878.158125509
 10
999015.6442782409
 20
63062.18929122923
 10
998950.3642632492
 20
63062.18929122923
  0
LWPOLYLINE
  5
3A
330
17
100
AcDbEntity
  8
BAR-GAL
 62
8
370
13
100
AcDbPolyline
 90
4
 70
1
 10
999015.6442782409
 20
63062.18929122923
 10
998949.3642632492
 20
63062.18929122923
 10
998949.3642632492
 20
62878.79491154956
 10
998967.4991502512
 20
63035.97535930319
  0
LWPOLYLINE
  5
3B
330
17
100
AcDbEntity
  8
BAR-GAL
 62
7
370
13
100
AcDbPolyline
 90
4
 70
1
 43
5.0
 10
997617.9370469578
 20
62722.88749515787
 10
997937.5498856273
 20
62722.88749515787
 10
997937.5498856273
 20
62602.88749515788
 10
997617.9370469578
 20
62602.88749515788
  0
DIMENSION
  5
3C
330
17
100
AcDbEntity
  8
BAR-GAL
 62
7
370
13
100
AcDbDimension
280
0
  2
*D1
  3
ISO-25
 10
998570.5846144682
 20
62152.93966239778
 30
0.0
 11
998340.5846144684
 21
62178.25685202943
 31
0.0
 70
32
 71
5
 42
460.0
 73
0
 74
0
 75
0
100
AcDbAlignedDimension
 13
998110.5846144684
 23
62226.51915660939
 33
0.0
 14
998570.5846144682
 24
62226.51915660939
 34
0.0
 50
0.0
100
AcDbRotatedDimension
  0
LWPOLYLINE
  5
49
330
17
100
AcDbEntity
  8
BAR-GAL
 62
7
370
13
100
AcDbPolyline
 90
5
 70
0
 43
15.0
 10
998851.3319963939
 20
62277.03210322564
 10
998569.5846144684
 20
62277.03210322564
 10
998569.5846144684
 20
63062.82607726978
 10
999015.6442782409
 20
63062.18929122923
 10
999015.6442782409
 20
62096.40911089433
  0
LWPOLYLINE
  5
4A
330
17
100
AcDbEntity
  8
BAR-GAL
 62
7
370
13
100
AcDbPolyline
 90
3
 70
0
 43
15.0
 10
998850.393686486
 20
62277.03210322564
 10
998850.393686486
 20
62668.01873212604
 10
998567.6127271954
 20
62668.01873212607
  0
DIMENSION
  5
4B
102
{ACAD_XDICTIONARY
360
4C
102
}
330
17
100
AcDbEntity
  8
BAR-GAL
 62
7
370
13
100
AcDbDimension
280
0
  2
*D2
  3
ISO-25
 10
998904.517884222
 20
62667.01873212607
 30
0.0
 11
998879.1904626664
 21
62472.02541767558
 31
0.0
 70
32
 71
5
 42
389.9866289004058
 73
0
 74
0
 75
0
100
AcDbAlignedDimension
 13
998850.393686486
 23
62277.03210322564
 33
0.0
 14
998850.393686486
 24
62667.01873212604
 34
0.0
 50
90.0
100
AcDbRotatedDimension
  0
DIMENSION
  5
59
102
{ACAD_XDICTIONARY
360
5A
102
}
330
17
100
AcDbEntity
  8
BAR-GAL
 62
7
370
13
100
AcDbDimension
280
0
  2
*D3
  3
ISO-25
 10
998850.393686486
 20
62771.81485673642
 30
0.0
 11
998710.1483392841
 21
62797.13204636807
 31
0.0
 70
32
 71
5
 42
280.4906944036484
 73
0
 74
0
 75
0
100
AcDbAlignedDimension
 13
998569.9029920823
 23
62668.97391112919
 33
0.0
 14
998850.393686486
 24
62668.01873212604
 34
0.0
 50
0.0
100
AcDbRotatedDimension
  0
LWPOLYLINE
  5
67
330
17
100
AcDbEntity
  8
BAR-GAL
 62
7
370
13
100
AcDbPolyline
 90
4
 70
1
 43
5.0
 10
998568.2908894849
 20
62727.26004932747
 10
998850.393686486
 20
62727.26004932747
 10
998850.393686486
 20
62667.01873212604
 10
998568.2908894849
 20
62667.01873212604
  0
LWPOLYLINE
  5
68
330
17
100
AcDbEntity
  8
BAR-GAL
 62
7
370
13
100
AcDbPolyline
 90
4
 70
1
 43
15.0
 10
998569.5846144684
 20
63062.82607726978
 10
998950.3642632492
 20
63062.82607726978
 10
998950.3642632492
 20
62878.158125509
 10
998569.5846144684
 20
62878.158125509
  0
DIMENSION
  5
69
102
{ACAD_XDICTIONARY
360
6A
102
}
330
17
100
AcDbEntity
  8
BAR-GAL
 62
7
370
13
100
AcDbDimension
280
0
  2
*D4
  3
ISO-25
 10
998922.9837867883
 20
63062.82607726981
 30
0.0
 11
998897.6665971566
 21
62970.49210138912
 31
0.0
 70
32
 71
5
 42
184.6679517607772
 73
0
 74
0
 75
0
100
AcDbAlignedDimension
 13
998953.5480396277
 23
62878.158125509
 33
0.0
 14
998950.3642632492
 24
63062.82607726978
 34
0.0
 50
90.0
100
AcDbRotatedDimension
  0
DIMENSION
  5
77
330
17
100
AcDbEntity
  8
BAR-GAL
 62
7
370
13
100
AcDbDimension
280
0
  2
*D5
  3
ISO-25
 10
998949.3642632492
 20
62825.30488414299
 30
0.0
 11
998759.4744388587
 21
62850.63230569824
 31
0.0
 70
32
 71
5
 42
379.7796487808227
 73
0
 74
0
 75
0
100
AcDbAlignedDimension
 13
998569.5846144684
 23
62878.79491154956
 33
0.0
 14
998949.3642632492
 24
62878.79491154956
 34
0.0
 50
0.0
100
AcDbRotatedDimension
  0
LWPOLYLINE
  5
84
330
17
100
AcDbEntity
  8
BAR-GAL
 62
7
370
13
100
AcDbPolyline
 90
4
 70
1
 43
5.0
 10
998584.8667408951
 20
63039.73516240567
 10
998737.6880044468
 20
63039.73516240567
 10
998737.6880044468
 20
62899.6422334837
 10
998584.8667408951
 20
62899.6422334837
  0
LWPOLYLINE
  5
85
330
17
100
AcDbEntity
  8
BAR-GAL
 62
7
370
13
100
AcDbPolyline
 90
4
 70
1
 43
5.0
 10
998756.0078839097
 20
63039.73516240567
 10
998908.8291476998
 20
63039.73516240567
 10
998908.8291476998
 20
62899.6422334837
 10
998756.0078839097
 20
62899.6422334837
  0
LINE
  5
86
330
17
100
AcDbEntity
  8
BAR-GAL
 62
7
370
13
100
AcDbLine
 10
998584.8667408951
 20
63039.73516240567
 30
0.0
 11
998737.6880044468
 21
62899.6422334837
 31
0.0
  0
LINE
  5
87
330
17
100
AcDbEntity
  8
BAR-GAL
 62
7
370
13
100
AcDbLine
 10
998737.6880044468
 20
63039.73516240567
 30
0.0
 11
998584.8667408951
 21
62899.6422334837
 31
0.0
  0
LINE
  5
88
330
17
100
AcDbEntity
  8
BAR-GAL
 62
7
370
13
100
AcDbLine
 10
998756.0078839097
 20
63039.73516240567
 30
0.0
 11
998908.8291476998
 21
62899.6422334837
 31
0.0
  0
LINE
  5
89
330
17
100
AcDbEntity
  8
BAR-GAL
 62
7
370
13
100
AcDbLine
 10
998908.8291476998
 20
63039.73516240567
 30
0.0
 11
998756.0078839097
 21
62899.6422334837
 31
0.0
  0
LWPOLYLINE
  5
8A
330
17
100
AcDbEntity
  8
BAR-GAL
 62
7
370
13
100
AcDbPolyline
 90
2
 70
0
 43
15.0
 10
998569.5846144684
 20
62278.30567530675
 10
998569.5846144684
 20
62277.03210322563
  0
DIMENSION
  5
8B
102
{ACAD_XDICTIONARY
360
8C
102
}
330
17
100
AcDbEntity
  8
BAR-GAL
 62
7
370
13
100
AcDbDimension
280
0
  2
*D6
  3
ISO-25
 10
998850.393686486
 20
62329.63035853346
 30
0.0
 11
998774.8684477411
 21
62354.69175007508
 31
0.0
 70
32
 71
5
 42
0.938309907913208
 73
0
 74
0
 75
0
100
AcDbAlignedDimension
 13
998851.3319963939
 23
62277.03210322564
 33
0.0
 14
998850.393686486
 24
62277.03210322564
 34
0.0
 50
0.0
100
AcDbRotatedDimension
  0
LWPOLYLINE
  5
9B
330
17
100
AcDbEntity
  8
BAR-GAL
 62
7
370
13
100
AcDbPolyline
 90
4
 70
1
 43
5.0
 10
998679.743275357
 20
62549.57652858292
 10
998740.2350255974
 20
62549.57652858292
 10
998740.2350255974
 20
62387.19608824155
 10
998679.743275357
 20
62387.19608824155
  0
LWPOLYLINE
  5
9C
330
17
100
AcDbEntity
  8
BAR-GAL
 62
7
370
13
100
AcDbPolyline
 90
2
 70
0
 43
5.0
 10
998685.4538582539
 20
62727.26004932747
 10
998685.4538582539
 20
62668.01873212606
  0
LWPOLYLINE
  5
9D
330
17
100
AcDbEntity
  8
BAR-GAL
 62
7
370
13
100
AcDbPolyline
 90
2
 70
0
 43
5.0
 10
998810.2781047352
 20
62726.60304785705
 10
998810.2781047352
 20
62667.01873212604
  0
DIMENSION
  5
9E
330
17
100
AcDbEntity
  8
BAR-GAL
 62
7
370
13
100
AcDbDimension
280
0
  2
*D7
  3
ISO-25
 10
997449.5796250408
 20
61962.88749515793
 30
0.0
 11
997424.262435409
 21
62282.88749515763
 31
0.0
 70
32
 71
5
 42
639.9999999999709
 73
0
 74
0
 75
0
100
AcDbAlignedDimension
 13
997739.3004587884
 23
62602.88749515788
 33
0.0
 14
997739.3004587884
 24
61962.8874951579
 34
0.0
 50
90.0
100
AcDbRotatedDimension
  0
LINE
  5
AB
330
17
100
AcDbEntity
  8
BAR-GAL
 62
7
370
13
100
AcDbLine
 10
998679.743275357
 20
62549.57652858292
 30
0.0
 11
998679.743275357
 21
62667.01873212604
 31
0.0
  0
LINE
  5
AC
330
17
100
AcDbEntity
  8
BAR-GAL
 62
7
370
13
100
AcDbLine
 10
998709.7432753571
 20
62549.57652858292
 30
0.0
 11
998709.7432753571
 21
62667.01873212604
 31
0.0
  0
LINE
  5
AD
330
17
100
AcDbEntity
  8
BAR-GAL
 62
7
370
13
100
AcDbLine
 10
998739.7432753571
 20
62549.57652858292
 30
0.0
 11
998739.7432753571
 21
62667.01873212604
 31
0.0
  0
LINE
  5
AE
330
17
100
AcDbEntity
  8
BAR-GAL
 62
7
370
13
100
AcDbLine
 10
998679.743275357
 20
62543.01303933306
 30
0.0
 11
998570.5689006886
 21
62543.01303933306
 31
0.0
  0
LINE
  5
AF
330
17
100
AcDbEntity
  8
BAR-GAL
 62
7
370
13
100
AcDbLine
 10
998679.743275357
 20
62513.01303933306
 30
0.0
 11
998570.5689006886
 21
62513.01303933306
 31
0.0
  0
LINE
  5
B0
330
17
100
AcDbEntity
  8
BAR-GAL
 62
7
370
13
100
AcDbLine
 10
998679.743275357
 20
62483.01303933306
 30
0.0
 11
998570.5689006886
 21
62483.01303933306
 31
0.0
  0
LINE
  5
B1
330
17
100
AcDbEntity
  8
BAR-GAL
 62
7
370
13
100
AcDbLine
 10
998679.743275357
 20
62453.01303933306
 30
0.0
 11
998570.5689006886
 21
62453.01303933306
 31
0.0
  0
LINE
  5
B2
330
17
100
AcDbEntity
  8
BAR-GAL
 62
7
370
13
100
AcDbLine
 10
998679.743275357
 20
62423.01303933306
 30
0.0
 11
998570.5689006886
 21
62423.01303933306
 31
0.0
  0
LINE
  5
B3
330
17
100
AcDbEntity
  8
BAR-GAL
 62
7
370
13
100
AcDbLine
 10
998679.743275357
 20
62393.01303933306
 30
0.0
 11
998570.5689006886
 21
62393.01303933306
 31
0.0
  0
LINE
  5
B4
330
17
100
AcDbEntity
  8
BAR-GAL
 62
7
370
13
100
AcDbLine
 10
998679.743275357
 20
62269.75388469843
 30
0.0
 11
998679.743275357
 21
62387.19608824155
 31
0.0
  0
LINE
  5
B5
330
17
100
AcDbEntity
  8
BAR-GAL
 62
7
370
13
100
AcDbLine
 10
998709.7432753571
 20
62269.75388469843
 30
0.0
 11
998709.7432753571
 21
62387.19608824155
 31
0.0
  0
LINE
  5
B6
330
17
100
AcDbEntity
  8
BAR-GAL
 62
7
370
13
100
AcDbLine
 10
998739.7432753571
 20
62269.75388469843
 30
0.0
 11
998739.7432753571
 21
62387.19608824155
 31
0.0
  0
LINE
  5
B7
330
17
100
AcDbEntity
  8
BAR-GAL
 62
7
370
13
100
AcDbLine
 10
998850.393686486
 20
62543.01303933306
 30
0.0
 11
998741.2193118175
 21
62543.01303933306
 31
0.0
  0
LINE
  5
B8
330
17
100
AcDbEntity
  8
BAR-GAL
 62
7
370
13
100
AcDbLine
 10
998850.393686486
 20
62513.01303933306
 30
0.0
 11
998741.2193118175
 21
62513.01303933306
 31
0.0
  0
LINE
  5
B9
330
17
100
AcDbEntity
  8
BAR-GAL
 62
7
370
13
100
AcDbLine
 10
998850.393686486
 20
62483.01303933306
 30
0.0
 11
998741.2193118175
 21
62483.01303933306
 31
0.0
  0
LINE
  5
BA
330
17
100
AcDbEntity
  8
BAR-GAL
 62
7
370
13
100
AcDbLine
 10
998850.393686486
 20
62453.01303933306
 30
0.0
 11
998741.2193118175
 21
62453.01303933306
 31
0.0
  0
LINE
  5
BB
330
17
100
AcDbEntity
  8
BAR-GAL
 62
7
370
13
100
AcDbLine
 10
998850.393686486
 20
62423.01303933306
 30
0.0
 11
998741.2193118175
 21
62423.01303933306
 31
0.0
  0
LINE
  5
BC
330
17
100
AcDbEntity
  8
BAR-GAL
 62
7
370
13
100
AcDbLine
 10
998850.393686486
 20
62393.01303933306
 30
0.0
 11
998741.2193118175
 21
62393.01303933306
 31
0.0
  0
LINE
  5
BD
330
17
100
AcDbEntity
  8
BAR-GAL
 62
7
370
13
100
AcDbLine
 10
998568.2908894849
 20
62727.26004932747
 30
0.0
 11
998685.4538582539
 21
62668.01873212606
 31
0.0
  0
LINE
  5
BE
330
17
100
AcDbEntity
  8
BAR-GAL
 62
7
370
13
100
AcDbLine
 10
998685.4538582539
 20
62668.01873212606
 30
0.0
 11
998810.2781047352
 21
62726.60304785705
 31
0.0
  0
LINE
  5
BF
330
17
100
AcDbEntity
  8
BAR-GAL
 62
7
370
13
100
AcDbLine
 10
998810.2781047352
 20
62726.60304785705
 30
0.0
 11
998850.393686486
 21
62668.01873212604
 31
0.0
  0
LINE
  5
C0
330
17
100
AcDbEntity
  8
BAR-GAL
 62
7
370
13
100
AcDbLine
 10
998850.393686486
 20
62727.26004932747
 30
0.0
 11
998810.2781047352
 21
62668.01873212604
 31
0.0
  0
LINE
  5
C1
330
17
100
AcDbEntity
  8
BAR-GAL
 62
7
370
13
100
AcDbLine
 10
998810.2781047352
 20
62668.01873212604
 30
0.0
 11
998685.4538582539
 21
62727.26004932747
 31
0.0
  0
LINE
  5
C2
330
17
100
AcDbEntity
  8
BAR-GAL
 62
7
370
13
100
AcDbLine
 10
998685.4538582539
 20
62727.26004932747
 30
0.0
 11
998569.5846144684
 21
62667.01873212604
 31
0.0
  0
DIMENSION
  5
C3
102
{ACAD_XDICTIONARY
360
C4
102
}
330
17
100
AcDbEntity
  8
BAR-GAL
 62
7
370
13
100
AcDbDimension
280
0
  2
*D8
  3
ISO-25
 10
997937.5498856276
 20
62502.90001118161
 30
0.0
 11
997777.7434662925
 21
62528.22743273687
 31
0.0
 70
32
 71
5
 42
319.6128386697965
 73
0
 74
0
 75
0
100
AcDbAlignedDimension
 13
997617.9370469578
 23
62602.88749515788
 33
0.0
 14
997937.5498856276
 24
62602.88749515788
 34
0.0
 50
0.0
100
AcDbRotatedDimension
  0
DIMENSION
  5
D1
330
17
100
AcDbEntity
  8
BAR-GAL
 62
7
370
13
100
AcDbDimension
280
0
  2
*D9
  3
ISO-25
 10
998107.9370469577
 20
62502.90001118161
 30
0.0
 11
998022.7434662927
 21
62528.21720081326
 31
0.0
 70
32
 71
5
 42
170.3871613302035
 73
0
 74
0
 75
0
100
AcDbAlignedDimension
 13
997937.5498856276
 23
62602.88749515789
 33
0.0
 14
998107.9370469577
 24
62602.88749515788
 34
0.0
 50
0.0
100
AcDbRotatedDimension
  0
DIMENSION
  5
DE
330
17
100
AcDbEntity
  8
BAR-GAL
 62
7
370
13
100
AcDbDimension
280
0
  2
*D10
  3
ISO-25
 10
999016.0351234142
 20
63808.68197801549
 30
0.0
 11
998316.0351234142
 21
63833.99916764714
 31
0.0
 70
32
 71
5
 42
1400.0
 73
0
 74
0
 75
0
100
AcDbAlignedDimension
 13
997616.0351234142
 23
63418.65966503847
 33
0.0
 14
999016.0351234142
 24
63418.65966503847
 34
0.0
 50
0.0
100
AcDbRotatedDimension
  0
LWPOLYLINE
  5
EB
330
17
100
AcDbEntity
  8
BAR-GAL
 62
7
370
13
100
AcDbPolyline
 90
2
 70
0
 43
15.0
 10
999016.0351234142
 20
63532.45592066891
 10
999018.3388418572
 20
62789.08883679436
  0
DIMENSION
  5
EC
330
17
100
AcDbEntity
  8
BAR-GAL
 62
7
370
13
100
AcDbDimension
280
0
  2
*D11
  3
ISO-25
 10
998570.5846144682
 20
62152.93966239778
 30
0.0
 11
998710.4583054311
 21
62178.25685202943
 31
0.0
 70
32
 71
5
 42
279.7473819255829
 73
0
 74
0
 75
0
100
AcDbAlignedDimension
 13
998850.3319963939
 23
62223.54221430931
 33
0.0
 14
998570.5846144682
 24
62229.20487559324
 34
0.0
 50
0.0
100
AcDbRotatedDimension
  0
DIMENSION
  5
F9
330
17
100
AcDbEntity
  8
BAR-GAL
 62
7
370
13
100
AcDbDimension
280
0
  2
*D12
  3
ISO-25
 10
998231.4917695163
 20
61896.7753729844
 30
0.0
 11
998169.7144082369
 21
61921.83676452601
 31
0.0
 70
32
 71
5
 42
123.5547225584741
 73
0
 74
0
 75
0
100
AcDbAlignedDimension
 13
998107.9370469577
 23
61962.88749515789
 33
0.0
 14
998231.4917695163
 24
61961.1863656009
 34
0.0
 50
0.0
100
AcDbRotatedDimension
  0
LWPOLYLINE
  5
106
330
17
100
AcDbEntity
  8
BAR-GAL
 62
7
370
13
100
AcDbPolyline
 90
2
 70
0
 43
15.0
 10
998231.5986332761
 20
61962.88749515789
 10
998232.1837656533
 20
61647.79896376562
  0
LWPOLYLINE
  5
107
330
17
100
AcDbEntity
  8
BAR-GAL
 62
7
370
13
100
AcDbPolyline
 90
4
 70
1
 43
15.0
 10
998569.5846144684
 20
62278.30567530675
 10
998851.3319963939
 20
62278.30567530675
 10
998851.3319963939
 20
62223.54221430931
 10
998569.5846144684
 20
62223.54221430931
  0
LWPOLYLINE
  5
108
330
17
100
AcDbEntity
  8
BAR-GAL
 62
7
370
13
100
AcDbPolyline
 90
2
 70
0
 43
15.0
 10
999015.6148551353
 20
62529.1995137783
 10
998850.0584859378
 20
62529.19951377544
  0
DIMENSION
  5
109
330
17
100
AcDbEntity
  8
BAR-GAL
 62
7
370
13
100
AcDbDimension
280
0
  2
*D13
  3
ISO-25
 10
999016.5234783541
 20
62152.93966239778
 30
0.0
 11
998934.1083090896
 21
62178.25685202943
 31
0.0
 70
32
 71
5
 42
164.8303385291947
 73
0
 74
0
 75
0
100
AcDbAlignedDimension
 13
998851.6931398249
 23
62227.09150839489
 33
0.0
 14
999016.5234783541
 24
62221.03955975193
 34
0.0
 50
0.0
100
AcDbRotatedDimension
  0
LWPOLYLINE
  5
116
330
17
100
AcDbEntity
  8
BAR-GAL
 62
7
370
13
100
AcDbPolyline
 90
3
 70
0
 43
15.0
 10
999015.6442782409
 20
62096.40911089432
 10
999015.5959588507
 20
61647.79896376562
 10
998232.1837656533
 20
61647.79896376562
  0
LWPOLYLINE
  5
117
330
17
100
AcDbEntity
  8
BAR-GAL
 62
3
370
13
100
AcDbPolyline
 90
8
 70
1
 10
999015.6442782409
 20
62878.158125509
 10
998950.3642632492
 20
62878.158125509
 10
998569.5846144684
 20
62878.158125509
 10
998569.5846144684
 20
62727.26004932747
 10
998850.393686486
 20
62727.26004932747
 10
998850.393686486
 20
62667.01873212604
 10
998850.393686486
 20
62529.19951377544
 10
999015.6442782409
 20
62529.19951377831
  0
LWPOLYLINE
  5
118
330
17
100
AcDbEntity
  8
BAR-GAL
 62
1
370
13
100
AcDbPolyline
 90
29
 70
1
 10
998569.5846144684
 20
63062.82607726978
 10
998950.3642632492
 20
63062.82607726978
 10
999017.4925506602
 20
63062.17126191236
 10
999016.0351234142
 20
63532.45592066891
 10
998376.5752665526
 20
63532.45592066891
 10
998376.5752665526
 20
63531.81913462836
 10
997916.5752665529
 20
63531.81913462836
 10
997617.9370469578
 20
63532.44791174095
 10
997617.9370469578
 20
62722.88749515787
 10
997937.5498856273
 20
62722.88749515787
 10
997937.5498856273
 20
62602.88749515788
 10
998107.9370469577
 20
62602.88749515788
 10
998107.9370469577
 20
61962.88749515788
 10
998231.5986332761
 20
61962.88749515788
 10
998232.1837656533
 20
61647.79896376562
 10
999015.5959588509
 20
61647.79896376562
 10
999015.6442782409
 20
62096.40911089432
 10
999015.6442782409
 20
62529.19951377831
 10
998850.393686486
 20
62529.19951377544
 10
998850.393686486
 20
62278.30567530675
 10
998851.3319963939
 20
62278.30567530675
 10
998851.3319963939
 20
62223.54221430931
 10
998569.5846144684
 20
62223.54221430931
 10
998569.5846144684
 20
62278.30567530675
 10
998569.5846144684
 20
62667.01873212604
 10
998568.2908894849
 20
62667.01873212604
 10
998567.6127271954
 20
62668.01873212607
 10
998568.2908894849
 20
62668.01873212607
 10
998568.2908894849
 20
62727.26004932747
  0
DIMENSION
  5
119
330
17
100
AcDbEntity
  8
BAR-GAL
 62
7
370
13
100
AcDbDimension
280
0
  2
*D14
  3
ISO-25
 10
999448.1444700327
 20
61650.48487875012
 30
0.0
 11
999422.8272804008
 21
62593.10875574444
 31
0.0
 70
32
 71
5
 42
1885.24775398922
 73
0
 74
0
 75
0
100
AcDbAlignedDimension
 13
999015.1543173782
 23
63535.73263273931
 33
0.0
 14
999019.5994350273
 24
61650.48487875009
 34
0.0
 50
90.0
100
AcDbRotatedDimension
  0
DIMENSION
  5
126
330
17
100
AcDbEntity
  8
BAR-GAL
 62
7
370
13
100
AcDbDimension
280
0
  2
*D15
  3
ISO-25
 10
997449.5796250415
 20
61651.88749515793
 30
0.0
 11
997424.2522034858
 21
61807.38749515764
 31
0.0
 70
32
 71
5
 42
311.0
 73
0
 74
0
 75
0
100
AcDbAlignedDimension
 13
997739.3004587884
 23
61962.8874951579
 33
0.0
 14
997739.3004587884
 24
61651.8874951579
 34
0.0
 50
90.0
100
AcDbRotatedDimension
  0
DIMENSION
  5
133
102
{ACAD_XDICTIONARY
360
134
102
}
330
17
100
AcDbEntity
  8
BAR-GAL
 62
5
370
13
100
AcDbDimension
280
0
  2
*D16
  3
ISO-25
 10
997973.6374399621
 20
61682.63038173066
 30
0.0
 11
998103.6999278741
 21
61707.94757136231
 31
0.0
 70
32
 71
5
 42
260.124975824263
 73
0
 74
0
 75
0
100
AcDbAlignedDimension
 13
998233.7624157864
 23
61647.80189538392
 33
0.0
 14
997973.6374399621
 24
61647.80042957477
 34
0.0
 50
0.0
100
AcDbRotatedDimension
  0
MTEXT
  5
141
330
17
100
AcDbEntity
  8
VP
370
13
100
AcDbMText
 10
998317.7621358786
 20
63279.49710104959
 30
0.0
 40
59.201694284898
 41
262.1310489581865
 46
0.0
 71
1
  1
17647
  0
TEXT
  5
142
330
17
100
AcDbEntity
  8
0
100
AcDbText
 10
998115.7972275504
 20
62925.94157885485
 30
0.0
 40
59.201694284898
  1
21 דירה
100
AcDbText
  0
ENDSEC
  0
SECTION
  2
OBJECTS
  0
DICTIONARY
  5
A
330
0
100
AcDbDictionary
281
1
  3
ACAD_COLOR
350
B
  3
ACAD_GROUP
350
C
  3
ACAD_LAYOUT
350
D
  3
ACAD_MATERIAL
350
E
  3
ACAD_MLEADERSTYLE
350
F
  3
ACAD_MLINESTYLE
350
10
  3
ACAD_PLOTSETTINGS
350
11
  3
ACAD_PLOTSTYLENAME
350
12
  3
ACAD_SCALELIST
350
14
  3
ACAD_TABLESTYLE
350
15
  3
ACAD_VISUALSTYLE
350
16
  3
EZDXF_META
350
2D
  0
DICTIONARY
  5
B
330
A
100
AcDbDictionary
281
1
  0
DICTIONARY
  5
C
330
A
100
AcDbDictionary
281
1
  0
DICTIONARY
  5
D
330
A
100
AcDbDictionary
281
1
  3
Model
350
1A
  3
Layout1
350
1E
  0
DICTIONARY
  5
E
330
A
100
AcDbDictionary
281
1
  3
ByBlock
350
1F
  3
ByLayer
350
20
  3
Global
350
21
  0
DICTIONARY
  5
F
330
A
100
AcDbDictionary
281
1
  3
Standard
350
2C
  0
DICTIONARY
  5
10
330
A
100
AcDbDictionary
281
1
  3
Standard
350
22
  0
DICTIONARY
  5
11
330
A
100
AcDbDictionary
281
1
  0
ACDBDICTIONARYWDFLT
  5
12
330
A
100
AcDbDictionary
281
1
  3
Normal
350
13
100
AcDbDictionaryWithDefault
340
13
  0
ACDBPLACEHOLDER
  5
13
330
12
  0
DICTIONARY
  5
14
330
A
100
AcDbDictionary
281
1
  0
DICTIONARY
  5
15
330
A
100
AcDbDictionary
281
1
  0
DICTIONARY
  5
16
330
A
100
AcDbDictionary
281
1
  0
LAYOUT
  5
1A
330
D
100
AcDbPlotSettings
  1

  4
A3
  6

 40
7.5
 41
20.0
 42
7.5
 43
20.0
 44
420.0
 45
297.0
 46
0.0
 47
0.0
 48
0.0
 49
0.0
140
0.0
141
0.0
142
1.0
143
1.0
 70
1024
 72
1
 73
0
 74
5
  7

 75
16
 76
0
 77
2
 78
300
147
1.0
148
0.0
149
0.0
100
AcDbLayout
  1
Model
 70
1
 71
0
 10
0.0
 20
0.0
 11
420.0
 21
297.0
 12
0.0
 22
0.0
 32
0.0
 14
1e+20
 24
1e+20
 34
1e+20
 15
-1e+20
 25
-1e+20
 35
-1e+20
146
0.0
 13
0.0
 23
0.0
 33
0.0
 16
1.0
 26
0.0
 36
0.0
 17
0.0
 27
1.0
 37
0.0
 76
1
330
17
  0
LAYOUT
  5
1E
330
D
100
AcDbPlotSettings
  1

  4
A3
  6

 40
7.5
 41
20.0
 42
7.5
 43
20.0
 44
420.0
 45
297.0
 46
0.0
 47
0.0
 48
0.0
 49
0.0
140
0.0
141
0.0
142
1.0
143
1.0
 70
0
 72
1
 73
0
 74
5
  7

 75
16
 76
0
 77
2
 78
300
147
1.0
148
0.0
149
0.0
100
AcDbLayout
  1
Layout1
 70
1
 71
1
 10
0.0
 20
0.0
 11
420.0
 21
297.0
 12
0.0
 22
0.0
 32
0.0
 14
1e+20
 24
1e+20
 34
1e+20
 15
-1e+20
 25
-1e+20
 35
-1e+20
146
0.0
 13
0.0
 23
0.0
 33
0.0
 16
1.0
 26
0.0
 36
0.0
 17
0.0
 27
1.0
 37
0.0
 76
1
330
1B
  0
MATERIAL
  5
1F
102
{ACAD_REACTORS
330
E
102
}
330
E
100
AcDbMaterial
  1
ByBlock
  2

 70
0
 40
1.0
 71
1
 41
1.0
 91
-1023410177
 42
1.0
 72
1
  3

 73
1
 74
1
 75
1
 44
0.5
 73
0
 45
1.0
 46
1.0
 77
1
  4

 78
1
 79
1
170
1
 48
1.0
171
1
  6

172
1
173
1
174
1
140
1.0
141
1.0
175
1
  7

176
1
177
1
178
1
143
1.0
179
1
  8

270
1
271
1
272
1
145
1.0
146
1.0
273
1
  9

274
1
275
1
276
1
 42
1.0
 72
1
  3

 73
1
 74
1
 75
1
 94
63
  0
MATERIAL
  5
20
102
{ACAD_REACTORS
330
E
102
}
330
E
100
AcDbMaterial
  1
ByLayer
  2

 70
0
 40
1.0
 71
1
 41
1.0
 91
-1023410177
 42
1.0
 72
1
  3

 73
1
 74
1
 75
1
 44
0.5
 73
0
 45
1.0
 46
1.0
 77
1
  4

 78
1
 79
1
170
1
 48
1.0
171
1
  6

172
1
173
1
174
1
140
1.0
141
1.0
175
1
  7

176
1
177
1
178
1
143
1.0
179
1
  8

270
1
271
1
272
1
145
1.0
146
1.0
273
1
  9

274
1
275
1
276
1
 42
1.0
 72
1
  3

 73
1
 74
1
 75
1
 94
63
  0
MATERIAL
  5
21
102
{ACAD_REACTORS
330
E
102
}
330
E
100
AcDbMaterial
  1
Global
  2

 70
0
 40
1.0
 71
1
 41
1.0
 91
-1023410177
 42
1.0
 72
1
  3

 73
1
 74
1
 75
1
 44
0.5
 73
0
 45
1.0
 46
1.0
 77
1
  4

 78
1
 79
1
170
1
 48
1.0
171
1
  6

172
1
173
1
174
1
140
1.0
141
1.0
175
1
  7

176
1
177
1
178
1
143
1.0
179
1
  8

270
1
271
1
272
1
145
1.0
146
1.0
273
1
  9

274
1
275
1
276
1
 42
1.0
 72
1
  3

 73
1
 74
1
 75
1
 94
63
  0
MLINESTYLE
  5
22
102
{ACAD_REACTORS
330
10
102
}
330
10
100
AcDbMlineStyle
  2
Standard
 70
0
  3

 62
256
 51
90.0
 52
90.0
 71
2
 49
0.5
 62
256
  6
BYLAYER
 49
-0.5
 62
256
  6
BYLAYER
  0
MLEADERSTYLE
  5
2C
102
{ACAD_REACTORS
330
F
102
}
330
F
100
AcDbMLeaderStyle
179
2
170
2
171
1
172
0
 90
2
 40
0.0
 41
0.0
173
1
 91
-1056964608
 92
-2
290
1
 42
2.0
291
1
 43
8.0
  3
Standard
 44
4.0
300

342
29
174
1
175
1
176
0
178
1
 93
-1056964608
 45
4.0
292
0
297
0
 46
4.0
 94
-1056964608
 47
1.0
 49
1.0
140
1.0
294
1
141
0.0
177
0
142
1.0
295
0
296
0
143
3.75
271
0
272
9
273
9
  0
DICTIONARY
  5
2D
330
A
100
AcDbDictionary
280
1
281
1
  3
CREATED_BY_EZDXF
350
2E
  3
WRITTEN_BY_EZDXF
350
145
  0
DICTIONARYVAR
  5
2E
330
2D
100
DictionaryVariables
280
0
  1
1.4.3 @ 2026-05-05T23:16:50.817140+00:00
  0
DICTIONARY
  5
4C
330
4B
100
AcDbDictionary
280
1
281
1
  0
DICTIONARY
  5
5A
330
59
100
AcDbDictionary
280
1
281
1
  0
DICTIONARY
  5
6A
330
69
100
AcDbDictionary
280
1
281
1
  0
DICTIONARY
  5
8C
330
8B
100
AcDbDictionary
280
1
281
1
  0
DICTIONARY
  5
C4
330
C3
100
AcDbDictionary
280
1
281
1
  0
DICTIONARY
  5
134
330
133
100
AcDbDictionary
280
1
281
1
  0
DICTIONARYVAR
  5
145
330
2D
100
DictionaryVariables
280
0
  1
1.4.3 @ 2026-05-05T23:16:50.832660+00:00
  0
ENDSEC
  0
EOF
