  0
SECTION
  2
HEADER
  9
$ACADVER
  1
AC1032
  9
$ACADMAINTVER
 90
4
  9
$DWGCODEPAGE
  3
ANSI_1252
  9
$LASTSAVEDBY
  1
ezdxf
  9
$REQUIREDVERSIONS
160
0
  9
$INSBASE
 10
0.0
 20
0.0
 30
0.0
  9
$EXTMIN
 10
1e+20
 20
1e+20
 30
1e+20
  9
$EXTMAX
 10
-1e+20
 20
-1e+20
 30
-1e+20
  9
$LIMMIN
 10
0.0
 20
0.0
  9
$LIMMAX
 10
420.0
 20
297.0
  9
$ORTHOMODE
 70
0
  9
$REGENMODE
 70
1
  9
$FILLMODE
 70
1
  9
$QTEXTMODE
 70
0
  9
$MIRRTEXT
 70
1
  9
$LTSCALE
 40
1.0
  9
$ATTMODE
 70
1
  9
$TEXTSIZE
 40
2.5
  9
$TRACEWID
 40
1.0
  9
$TEXTSTYLE
  7
Standard
  9
$CLAYER
  8
0
  9
$CELTYPE
  6
ByLayer
  9
$CECOLOR
 62
256
  9
$CELTSCALE
 40
1.0
  9
$DISPSILH
 70
0
  9
$DIMSCALE
 40
1.0
  9
$DIMASZ
 40
2.5
  9
$DIMEXO
 40
0.625
  9
$DIMDLI
 40
3.75
  9
$DIMRND
 40
0.0
  9
$DIMDLE
 40
0.0
  9
$DIMEXE
 40
1.25
  9
$DIMTP
 40
0.0
  9
$DIMTM
 40
0.0
  9
$DIMTXT
 40
2.5
  9
$DIMCEN
 40
2.5
  9
$DIMTSZ
 40
0.0
  9
$DIMTOL
 70
0
  9
$DIMLIM
 70
0
  9
$DIMTIH
 70
0
  9
$DIMTOH
 70
0
  9
$DIMSE1
 70
0
  9
$DIMSE2
 70
0
  9
$DIMTAD
 70
1
  9
$DIMZIN
 70
8
  9
$DIMBLK
  1

  9
$DIMASO
 70
1
  9
$DIMSHO
 70
1
  9
$DIMPOST
  1

  9
$DIMAPOST
  1

  9
$DIMALT
 70
0
  9
$DIMALTD
 70
3
  9
$DIMALTF
 40
0.03937007874
  9
$DIMLFAC
 40
1.0
  9
$DIMTOFL
 70
1
  9
$DIMTVP
 40
0.0
  9
$DIMTIX
 70
0
  9
$DIMSOXD
 70
0
  9
$DIMSAH
 70
0
  9
$DIMBLK1
  1

  9
$DIMBLK2
  1

  9
$DIMSTYLE
  2
ISO-25
  9
$DIMCLRD
 70
0
  9
$DIMCLRE
 70
0
  9
$DIMCLRT
 70
0
  9
$DIMTFAC
 40
1.0
  9
$DIMGAP
 40
0.625
  9
$DIMJUST
 70
0
  9
$DIMSD1
 70
0
  9
$DIMSD2
 70
0
  9
$DIMTOLJ
 70
0
  9
$DIMTZIN
 70
8
  9
$DIMALTZ
 70
0
  9
$DIMALTTZ
 70
0
  9
$DIMUPT
 70
0
  9
$DIMDEC
 70
2
  9
$DIMTDEC
 70
2
  9
$DIMALTU
 70
2
  9
$DIMALTTD
 70
3
  9
$DIMTXSTY
  7
Standard
  9
$DIMAUNIT
 70
0
  9
$DIMADEC
 70
0
  9
$DIMALTRND
 40
0.0
  9
$DIMAZIN
 70
0
  9
$DIMDSEP
 70
44
  9
$DIMATFIT
 70
3
  9
$DIMFRAC
 70
0
  9
$DIMLDRBLK
  1

  9
$DIMLUNIT
 70
2
  9
$DIMLWD
 70
-2
  9
$DIMLWE
 70
-2
  9
$DIMTMOVE
 70
0
  9
$DIMFXL
 40
1.0
  9
$DIMFXLON
 70
0
  9
$DIMJOGANG
 40
0.785398163397
  9
$DIMTFILL
 70
0
  9
$DIMTFILLCLR
 70
0
  9
$DIMARCSYM
 70
0
  9
$DIMLTYPE
  6

  9
$DIMLTEX1
  6

  9
$DIMLTEX2
  6

  9
$DIMTXTDIRECTION
 70
0
  9
$LUNITS
 70
2
  9
$LUPREC
 70
4
  9
$SKETCHINC
 40
1.0
  9
$FILLETRAD
 40
10.0
  9
$AUNITS
 70
0
  9
$AUPREC
 70
2
  9
$MENU
  1
.
  9
$ELEVATION
 40
0.0
  9
$PELEVATION
 40
0.0
  9
$THICKNESS
 40
0.0
  9
$LIMCHECK
 70
0
  9
$CHAMFERA
 40
0.0
  9
$CHAMFERB
 40
0.0
  9
$CHAMFERC
 40
0.0
  9
$CHAMFERD
 40
0.0
  9
$SKPOLY
 70
0
  9
$TDCREATE
 40
2461167.095023148
  9
$TDUCREATE
 40
2458532.153996898
  9
$TDUPDATE
 40
2461167.095023148
  9
$TDUUPDATE
 40
2458532.1544311
  9
$TDINDWG
 40
0.0
  9
$TDUSRTIMER
 40
0.0
  9
$USRTIMER
 70
1
  9
$ANGBASE
 50
0.0
  9
$ANGDIR
 70
0
  9
$PDMODE
 70
0
  9
$PDSIZE
 40
0.0
  9
$PLINEWID
 40
0.0
  9
$SPLFRAME
 70
0
  9
$SPLINETYPE
 70
6
  9
$SPLINESEGS
 70
8
  9
$HANDSEED
  5
1B5
  9
$SURFTAB1
 70
6
  9
$SURFTAB2
 70
6
  9
$SURFTYPE
 70
6
  9
$SURFU
 70
6
  9
$SURFV
 70
6
  9
$UCSBASE
  2

  9
$UCSNAME
  2

  9
$UCSORG
 10
0.0
 20
0.0
 30
0.0
  9
$UCSXDIR
 10
1.0
 20
0.0
 30
0.0
  9
$UCSYDIR
 10
0.0
 20
1.0
 30
0.0
  9
$UCSORTHOREF
  2

  9
$UCSORTHOVIEW
 70
0
  9
$UCSORGTOP
 10
0.0
 20
0.0
 30
0.0
  9
$UCSORGBOTTOM
 10
0.0
 20
0.0
 30
0.0
  9
$UCSORGLEFT
 10
0.0
 20
0.0
 30
0.0
  9
$UCSORGRIGHT
 10
0.0
 20
0.0
 30
0.0
  9
$UCSORGFRONT
 10
0.0
 20
0.0
 30
0.0
  9
$UCSORGBACK
 10
0.0
 20
0.0
 30
0.0
  9
$PUCSBASE
  2

  9
$PUCSNAME
  2

  9
$PUCSORG
 10
0.0
 20
0.0
 30
0.0
  9
$PUCSXDIR
 10
1.0
 20
0.0
 30
0.0
  9
$PUCSYDIR
 10
0.0
 20
1.0
 30
0.0
  9
$PUCSORTHOREF
  2

  9
$PUCSORTHOVIEW
 70
0
  9
$PUCSORGTOP
 10
0.0
 20
0.0
 30
0.0
  9
$PUCSORGBOTTOM
 10
0.0
 20
0.0
 30
0.0
  9
$PUCSORGLEFT
 10
0.0
 20
0.0
 30
0.0
  9
$PUCSORGRIGHT
 10
0.0
 20
0.0
 30
0.0
  9
$PUCSORGFRONT
 10
0.0
 20
0.0
 30
0.0
  9
$PUCSORGBACK
 10
0.0
 20
0.0
 30
0.0
  9
$USERI1
 70
0
  9
$USERI2
 70
0
  9
$USERI3
 70
0
  9
$USERI4
 70
0
  9
$USERI5
 70
0
  9
$USERR1
 40
0.0
  9
$USERR2
 40
0.0
  9
$USERR3
 40
0.0
  9
$USERR4
 40
0.0
  9
$USERR5
 40
0.0
  9
$WORLDVIEW
 70
1
  9
$SHADEDGE
 70
3
  9
$SHADEDIF
 70
70
  9
$TILEMODE
 70
1
  9
$MAXACTVP
 70
64
  9
$PINSBASE
 10
0.0
 20
0.0
 30
0.0
  9
$PLIMCHECK
 70
0
  9
$PEXTMIN
 10
1e+20
 20
1e+20
 30
1e+20
  9
$PEXTMAX
 10
-1e+20
 20
-1e+20
 30
-1e+20
  9
$PLIMMIN
 10
0.0
 20
0.0
  9
$PLIMMAX
 10
420.0
 20
297.0
  9
$UNITMODE
 70
0
  9
$VISRETAIN
 70
1
  9
$PLINEGEN
 70
0
  9
$PSLTSCALE
 70
1
  9
$TREEDEPTH
 70
3020
  9
$CMLSTYLE
  2
Standard
  9
$CMLJUST
 70
0
  9
$CMLSCALE
 40
20.0
  9
$PROXYGRAPHICS
 70
1
  9
$MEASUREMENT
 70
1
  9
$CELWEIGHT
370
-1
  9
$ENDCAPS
280
0
  9
$JOINSTYLE
280
0
  9
$LWDISPLAY
290
0
  9
$INSUNITS
 70
6
  9
$HYPERLINKBASE
  1

  9
$STYLESHEET
  1

  9
$XEDIT
290
1
  9
$CEPSNTYPE
380
0
  9
$PSTYLEMODE
290
1
  9
$FINGERPRINTGUID
  2
{BC8C8363-C57F-4874-B0ED-43A01D15F7DF}
  9
$VERSIONGUID
  2
{25904DC1-D156-4775-BFBD-CD25A9D834ED}
  9
$EXTNAMES
290
1
  9
$PSVPSCALE
 40
0.0
  9
$OLESTARTUP
290
0
  9
$SORTENTS
280
127
  9
$INDEXCTL
280
0
  9
$HIDETEXT
280
1
  9
$XCLIPFRAME
280
1
  9
$HALOGAP
280
0
  9
$OBSCOLOR
 70
257
  9
$OBSLTYPE
280
0
  9
$INTERSECTIONDISPLAY
280
0
  9
$INTERSECTIONCOLOR
 70
257
  9
$DIMASSOC
280
2
  9
$PROJECTNAME
  1

  9
$CAMERADISPLAY
290
0
  9
$LENSLENGTH
 40
50.0
  9
$CAMERAHEIGHT
 40
0.0
  9
$STEPSPERSEC
 40
24.0
  9
$STEPSIZE
 40
100.0
  9
$3DDWFPREC
 40
2.0
  9
$PSOLWIDTH
 40
0.005
  9
$PSOLHEIGHT
 40
0.08
  9
$LOFTANG1
 40
1.570796326795
  9
$LOFTANG2
 40
1.570796326795
  9
$LOFTMAG1
 40
0.0
  9
$LOFTMAG2
 40
0.0
  9
$LOFTPARAM
 70
7
  9
$LOFTNORMALS
280
1
  9
$LATITUDE
 40
37.795
  9
$LONGITUDE
 40
-122.394
  9
$NORTHDIRECTION
 40
0.0
  9
$TIMEZONE
 70
-8000
  9
$LIGHTGLYPHDISPLAY
280
1
  9
$TILEMODELIGHTSYNCH
280
1
  9
$CMATERIAL
347
20
  9
$SOLIDHIST
280
0
  9
$SHOWHIST
280
1
  9
$DWFFRAME
280
2
  9
$DGNFRAME
280
2
  9
$REALWORLDSCALE
290
1
  9
$INTERFERECOLOR
 62
256
  9
$CSHADOW
280
0
  9
$SHADOWPLANELOCATION
 40
0.0
  0
ENDSEC
  0
SECTION
  2
CLASSES
  0
CLASS
  1
ACDBDICTIONARYWDFLT
  2
AcDbDictionaryWithDefault
  3
ObjectDBX Classes
 90
0
 91
0
280
0
281
0
  0
CLASS
  1
SUN
  2
AcDbSun
  3
SCENEOE
 90
1153
 91
0
280
0
281
0
  0
CLASS
  1
VISUALSTYLE
  2
AcDbVisualStyle
  3
ObjectDBX Classes
 90
4095
 91
0
280
0
281
0
  0
CLASS
  1
MATERIAL
  2
AcDbMaterial
  3
ObjectDBX Classes
 90
1153
 91
0
280
0
281
0
  0
CLASS
  1
SCALE
  2
AcDbScale
  3
ObjectDBX Classes
 90
1153
 91
0
280
0
281
0
  0
CLASS
  1
TABLESTYLE
  2
AcDbTableStyle
  3
ObjectDBX Classes
 90
4095
 91
0
280
0
281
0
  0
CLASS
  1
MLEADERSTYLE
  2
AcDbMLeaderStyle
  3
ACDB_MLEADERSTYLE_CLASS
 90
4095
 91
0
280
0
281
0
  0
CLASS
  1
DICTIONARYVAR
  2
AcDbDictionaryVar
  3
ObjectDBX Classes
 90
0
 91
0
280
0
281
0
  0
CLASS
  1
CELLSTYLEMAP
  2
AcDbCellStyleMap
  3
ObjectDBX Classes
 90
1152
 91
0
280
0
281
0
  0
CLASS
  1
MENTALRAYRENDERSETTINGS
  2
AcDbMentalRayRenderSettings
  3
SCENEOE
 90
1024
 91
0
280
0
281
0
  0
CLASS
  1
ACDBDETAILVIEWSTYLE
  2
AcDbDetailViewStyle
  3
ObjectDBX Classes
 90
1025
 91
0
280
0
281
0
  0
CLASS
  1
ACDBSECTIONVIEWSTYLE
  2
AcDbSectionViewStyle
  3
ObjectDBX Classes
 90
1025
 91
0
280
0
281
0
  0
CLASS
  1
RASTERVARIABLES
  2
AcDbRasterVariables
  3
ISM
 90
0
 91
0
280
0
281
0
  0
CLASS
  1
ACDBPLACEHOLDER
  2
AcDbPlaceHolder
  3
ObjectDBX Classes
 90
0
 91
0
280
0
281
0
  0
CLASS
  1
LAYOUT
  2
AcDbLayout
  3
ObjectDBX Classes
 90
0
 91
0
280
0
281
0
  0
ENDSEC
  0
SECTION
  2
TABLES
  0
TABLE
  2
VPORT
  5
8
330
0
100
AcDbSymbolTable
 70
1
  0
VPORT
  5
23
330
8
100
AcDbSymbolTableRecord
100
AcDbViewportTableRecord
  2
*Active
 70
0
 10
0.0
 20
0.0
 11
1.0
 21
1.0
 12
0.0
 22
0.0
 13
0.0
 23
0.0
 14
0.5
 24
0.5
 15
0.5
 25
0.5
 16
0.0
 26
0.0
 36
1.0
 17
0.0
 27
0.0
 37
0.0
 40
1000.0
 41
1.34
 42
50.0
 43
0.0
 44
0.0
 50
0.0
 51
0.0
 71
0
 72
1000
 73
1
 74
3
 75
0
 76
0
 77
0
 78
0
281
0
 65
0
146
0.0
  0
ENDTAB
  0
TABLE
  2
LTYPE
  5
2
330
0
100
AcDbSymbolTable
 70
3
  0
LTYPE
  5
24
330
2
100
AcDbSymbolTableRecord
100
AcDbLinetypeTableRecord
  2
ByBlock
 70
0
  3

 72
65
 73
0
 40
0.0
  0
LTYPE
  5
25
330
2
100
AcDbSymbolTableRecord
100
AcDbLinetypeTableRecord
  2
ByLayer
 70
0
  3

 72
65
 73
0
 40
0.0
  0
LTYPE
  5
26
330
2
100
AcDbSymbolTableRecord
100
AcDbLinetypeTableRecord
  2
Continuous
 70
0
  3

 72
65
 73
0
 40
0.0
  0
ENDTAB
  0
TABLE
  2
LAYER
  5
1
330
0
100
AcDbSymbolTable
 70
8
  0
LAYER
  5
27
330
1
100
AcDbSymbolTableRecord
100
AcDbLayerTableRecord
  2
0
 70
0
 62
7
  6
Continuous
370
-3
390
13
347
21
  0
LAYER
  5
28
330
1
100
AcDbSymbolTableRecord
100
AcDbLayerTableRecord
  2
Defpoints
 70
0
 62
7
  6
Continuous
290
0
370
-3
390
13
347
21
  0
LAYER
  5
2F
330
1
100
AcDbSymbolTableRecord
100
AcDbLayerTableRecord
  2
MIKRA
 70
0
 62
7
  6
Continuous
370
-3
390
13
347
21
  0
LAYER
  5
30
330
1
100
AcDbSymbolTableRecord
100
AcDbLayerTableRecord
  2
kir
 70
0
 62
7
  6
Continuous
370
-3
390
13
347
21
  0
LAYER
  5
31
330
1
100
AcDbSymbolTableRecord
100
AcDbLayerTableRecord
  2
8
 70
0
 62
7
  6
Continuous
370
-3
390
13
347
21
  0
LAYER
  5
32
330
1
100
AcDbSymbolTableRecord
100
AcDbLayerTableRecord
  2
BAR-GAL
 70
0
 62
7
  6
Continuous
370
-3
390
13
347
21
  0
LAYER
  5
33
330
1
100
AcDbSymbolTableRecord
100
AcDbLayerTableRecord
  2
BAR_GAL
 70
0
 62
7
  6
Continuous
370
-3
390
13
347
21
  0
LAYER
  5
34
330
1
100
AcDbSymbolTableRecord
100
AcDbLayerTableRecord
  2
VP
 70
0
 62
-30
  6
Continuous
370
-3
390
13
347
21
  0
ENDTAB
  0
TABLE
  2
STYLE
  5
5
330
0
100
AcDbSymbolTable
 70
1
  0
STYLE
  5
29
330
5
100
AcDbSymbolTableRecord
100
AcDbTextStyleTableRecord
  2
Standard
 70
0
 40
0.0
 41
1.0
 50
0.0
 71
0
 42
2.5
  3
txt
  4

  0
ENDTAB
  0
TABLE
  2
VIEW
  5
7
330
0
100
AcDbSymbolTable
 70
0
  0
ENDTAB
  0
TABLE
  2
UCS
  5
6
330
0
100
AcDbSymbolTable
 70
0
  0
ENDTAB
  0
TABLE
  2
APPID
  5
3
330
0
100
AcDbSymbolTable
 70
3
  0
APPID
  5
2A
330
3
100
AcDbSymbolTableRecord
100
AcDbRegAppTableRecord
  2
ACAD
 70
0
  0
APPID
  5
1B2
330
3
100
AcDbSymbolTableRecord
100
AcDbRegAppTableRecord
  2
HATCHBACKGROUNDCOLOR
 70
0
  0
APPID
  5
1B3
330
3
100
AcDbSymbolTableRecord
100
AcDbRegAppTableRecord
  2
EZDXF
 70
0
  0
ENDTAB
  0
TABLE
  2
DIMSTYLE
  5
4
330
0
100
AcDbSymbolTable
 70
3
100
AcDbDimStyleTable
  0
DIMSTYLE
105
2B
330
4
100
AcDbSymbolTableRecord
100
AcDbDimStyleTableRecord
  2
Standard
 70
0
 40
1.0
 41
2.5
 42
0.625
 43
3.75
 44
1.25
 45
0.0
 46
0.0
 47
0.0
 48
0.0
 49
2.5
140
2.5
141
2.5
142
0.0
143
0.03937007874
144
1.0
145
0.0
146
1.0
147
0.625
148
0.0
 69
0
 70
0
 71
0
 72
0
 73
0
 74
0
 75
0
 76
0
 77
1
 78
8
 79
3
170
0
171
3
172
1
173
0
174
0
175
0
176
0
177
0
178
0
179
2
271
2
272
2
273
2
274
3
275
0
276
0
277
2
278
44
279
0
280
0
281
0
282
0
283
0
284
8
285
0
286
0
288
0
289
3
290
0
371
-2
372
-2
  0
DIMSTYLE
105
27
330
4
100
AcDbSymbolTableRecord
100
AcDbDimStyleTableRecord
  2
ISO-25
 70
0
 40
1.0
 41
30.0
 42
0.625
 43
3.75
 44
1.25
 45
0.0
 46
0.0
 47
0.0
 48
0.0
 49
2.5
140
30.0
141
2.5
142
0.0
143
0.03937007874016
144
1.0
145
0.0
146
1.0
147
10.0
148
0.0
 69
0
 70
0
 71
0
 72
0
 73
0
 74
0
 75
0
 76
0
 77
1
 78
8
 79
3
170
0
171
3
172
1
173
0
174
0
175
0
176
0
177
0
178
0
179
2
271
0
272
0
273
2
274
3
275
0
276
0
277
2
278
44
279
0
280
0
281
0
282
0
283
0
284
8
285
0
286
0
288
0
289
3
290
0
340
29
371
-2
372
-2
  0
DIMSTYLE
105
24441B
330
4
100
AcDbSymbolTableRecord
100
AcDbDimStyleTableRecord
  2
100A
 70
0
 40
1.0
 41
30.0
 42
0.625
 43
3.75
 44
1.25
 45
0.0
 46
0.0
 47
0.0
 48
0.0
 49
2.5
140
35.0
141
2.5
142
0.0
143
0.03937007874016
144
1.0
145
0.0
146
1.0
147
10.0
148
0.0
 69
0
 70
0
 71
0
 72
0
 73
0
 74
0
 75
0
 76
0
 77
1
 78
8
 79
3
170
0
171
3
172
1
173
0
174
0
175
0
176
0
177
0
178
0
179
2
271
0
272
0
273
2
274
3
275
0
276
0
277
2
278
44
279
0
280
0
281
0
282
0
283
0
284
8
285
0
286
0
288
0
289
3
290
0
340
29
371
-2
372
-2
  0
ENDTAB
  0
TABLE
  2
BLOCK_RECORD
  5
9
330
0
100
AcDbSymbolTable
 70
26
  0
BLOCK_RECORD
  5
17
330
9
100
AcDbSymbolTableRecord
100
AcDbBlockTableRecord
  2
*Model_Space
340
1A
 70
0
280
1
281
0
  0
BLOCK_RECORD
  5
1B
330
9
100
AcDbSymbolTableRecord
100
AcDbBlockTableRecord
  2
*Paper_Space
340
1E
 70
0
280
1
281
0
  0
BLOCK_RECORD
  5
3B
330
9
100
AcDbSymbolTableRecord
100
AcDbBlockTableRecord
  2
*D1
340
0
 70
0
280
1
281
0
  0
BLOCK_RECORD
  5
4A
330
9
100
AcDbSymbolTableRecord
100
AcDbBlockTableRecord
  2
*D2
340
0
 70
0
280
1
281
0
  0
BLOCK_RECORD
  5
57
330
9
100
AcDbSymbolTableRecord
100
AcDbBlockTableRecord
  2
*D3
340
0
 70
0
280
1
281
0
  0
BLOCK_RECORD
  5
64
330
9
100
AcDbSymbolTableRecord
100
AcDbBlockTableRecord
  2
*D4
340
0
 70
0
280
1
281
0
  0
BLOCK_RECORD
  5
73
330
9
100
AcDbSymbolTableRecord
100
AcDbBlockTableRecord
  2
*D5
340
0
 70
0
280
1
281
0
  0
BLOCK_RECORD
  5
81
330
9
100
AcDbSymbolTableRecord
100
AcDbBlockTableRecord
  2
*D6
340
0
 70
0
280
1
281
0
  0
BLOCK_RECORD
  5
91
330
9
100
AcDbSymbolTableRecord
100
AcDbBlockTableRecord
  2
*D7
340
0
 70
0
280
1
281
0
  0
BLOCK_RECORD
  5
9E
330
9
100
AcDbSymbolTableRecord
100
AcDbBlockTableRecord
  2
*D8
340
0
 70
0
280
1
281
0
  0
BLOCK_RECORD
  5
B2
330
9
100
AcDbSymbolTableRecord
100
AcDbBlockTableRecord
  2
*D9
340
0
 70
0
280
1
281
0
  0
BLOCK_RECORD
  5
C3
330
9
100
AcDbSymbolTableRecord
100
AcDbBlockTableRecord
  2
*D10
340
0
 70
0
280
1
281
0
  0
BLOCK_RECORD
  5
E9
330
9
100
AcDbSymbolTableRecord
100
AcDbBlockTableRecord
  2
*D11
340
0
 70
0
280
1
281
0
  0
BLOCK_RECORD
  5
F6
330
9
100
AcDbSymbolTableRecord
100
AcDbBlockTableRecord
  2
*D12
340
0
 70
0
280
1
281
0
  0
BLOCK_RECORD
  5
103
330
9
100
AcDbSymbolTableRecord
100
AcDbBlockTableRecord
  2
*D13
340
0
 70
0
280
1
281
0
  0
BLOCK_RECORD
  5
110
330
9
100
AcDbSymbolTableRecord
100
AcDbBlockTableRecord
  2
*D14
340
0
 70
0
280
1
281
0
  0
BLOCK_RECORD
  5
11D
330
9
100
AcDbSymbolTableRecord
100
AcDbBlockTableRecord
  2
*D15
340
0
 70
0
280
1
281
0
  0
BLOCK_RECORD
  5
12C
330
9
100
AcDbSymbolTableRecord
100
AcDbBlockTableRecord
  2
*D16
340
0
 70
0
280
1
281
0
  0
BLOCK_RECORD
  5
13B
330
9
100
AcDbSymbolTableRecord
100
AcDbBlockTableRecord
  2
*D17
340
0
 70
0
280
1
281
0
  0
BLOCK_RECORD
  5
14B
330
9
100
AcDbSymbolTableRecord
100
AcDbBlockTableRecord
  2
*D18
340
0
 70
0
280
1
281
0
  0
BLOCK_RECORD
  5
158
330
9
100
AcDbSymbolTableRecord
100
AcDbBlockTableRecord
  2
*D19
340
0
 70
0
280
1
281
0
  0
BLOCK_RECORD
  5
166
330
9
100
AcDbSymbolTableRecord
100
AcDbBlockTableRecord
  2
*D20
340
0
 70
0
280
1
281
0
  0
BLOCK_RECORD
  5
174
330
9
100
AcDbSymbolTableRecord
100
AcDbBlockTableRecord
  2
*D21
340
0
 70
0
280
1
281
0
  0
BLOCK_RECORD
  5
181
330
9
100
AcDbSymbolTableRecord
100
AcDbBlockTableRecord
  2
*D22
340
0
 70
0
280
1
281
0
  0
BLOCK_RECORD
  5
195
330
9
100
AcDbSymbolTableRecord
100
AcDbBlockTableRecord
  2
*D23
340
0
 70
0
280
1
281
0
  0
BLOCK_RECORD
  5
1A3
330
9
100
AcDbSymbolTableRecord
100
AcDbBlockTableRecord
  2
*D24
340
0
 70
0
280
1
281
0
  0
ENDTAB
  0
ENDSEC
  0
SECTION
  2
BLOCKS
  0
BLOCK
  5
18
330
17
100
AcDbEntity
  8
0
100
AcDbBlockBegin
  2
*Model_Space
 70
0
 10
0.0
 20
0.0
 30
0.0
  3
*Model_Space
  1

  0
ENDBLK
  5
19
330
17
100
AcDbEntity
  8
0
100
AcDbBlockEnd
  0
BLOCK
  5
1C
330
1B
100
AcDbEntity
  8
0
100
AcDbBlockBegin
  2
*Paper_Space
 70
0
 10
0.0
 20
0.0
 30
0.0
  3
*Paper_Space
  1

  0
ENDBLK
  5
1D
330
1B
100
AcDbEntity
  8
0
100
AcDbBlockEnd
  0
BLOCK
  5
3C
330
3B
100
AcDbEntity
  8
0
100
AcDbBlockBegin
  2
*D1
 70
1
 10
0.0
 20
0.0
 30
0.0
  3
*D1
  1

  0
LINE
  5
3E
330
3B
100
AcDbEntity
  8
BAR-GAL
 62
0
370
-2
440
16777216
100
AcDbLine
 10
1012272.101508937
 20
61632.03762363781
 30
0.0
 11
1012248.553319537
 21
61632.03762363781
 31
0.0
  0
LINE
  5
3F
330
3B
100
AcDbEntity
  8
BAR-GAL
 62
0
370
-2
440
16777216
100
AcDbLine
 10
1012272.101508937
 20
61572.0376236378
 30
0.0
 11
1012248.553319537
 21
61572.0376236378
 31
0.0
  0
LINE
  5
40
330
3B
100
AcDbEntity
  8
BAR-GAL
 62
0
370
-2
440
16777216
100
AcDbLine
 10
1012249.803319537
 20
61662.03762363781
 30
0.0
 11
1012249.803319537
 21
61692.03762363781
 31
0.0
  0
LINE
  5
41
330
3B
100
AcDbEntity
  8
BAR-GAL
 62
0
370
-2
440
16777216
100
AcDbLine
 10
1012249.803319537
 20
61542.0376236378
 30
0.0
 11
1012249.803319537
 21
61512.0376236378
 31
0.0
  0
LINE
  5
42
330
3B
100
AcDbEntity
  8
BAR-GAL
 62
0
370
-2
440
16777216
100
AcDbLine
 10
1012249.803319537
 20
61632.03762363781
 30
0.0
 11
1012249.803319537
 21
61572.0376236378
 31
0.0
  0
SOLID
  5
43
330
3B
100
AcDbEntity
  8
BAR-GAL
 62
0
370
13
440
16777216
100
AcDbTrace
 10
1012244.803319537
 20
61662.03762363781
 30
0.0
 11
1012254.803319537
 21
61662.03762363781
 31
0.0
 12
1012249.803319537
 22
61632.03762363781
 32
0.0
 13
1012249.803319537
 23
61632.03762363781
 33
0.0
  0
SOLID
  5
44
330
3B
100
AcDbEntity
  8
BAR-GAL
 62
0
370
13
440
16777216
100
AcDbTrace
 10
1012244.803319537
 20
61542.0376236378
 30
0.0
 11
1012254.803319537
 21
61542.0376236378
 31
0.0
 12
1012249.803319537
 22
61572.0376236378
 32
0.0
 13
1012249.803319537
 23
61572.0376236378
 33
0.0
  0
MTEXT
  5
45
330
3B
100
AcDbEntity
  8
BAR-GAL
 62
0
370
13
440
16777216
100
AcDbMText
 10
1012224.486129905
 20
61602.0376236375
 30
0.0
 40
30.0
 41
0.0
 46
0.0
 71
5
  1
60
 11
1e-16
 21
1.0
 31
0.0
  0
POINT
  5
46
330
3B
100
AcDbEntity
  8
Defpoints
 62
0
370
13
440
16777216
100
AcDbPoint
 10
1012272.726508937
 20
61632.03762363781
 30
0.0
  0
POINT
  5
47
330
3B
100
AcDbEntity
  8
Defpoints
 62
0
370
13
440
16777216
100
AcDbPoint
 10
1012272.726508937
 20
61572.0376236378
 30
0.0
  0
POINT
  5
48
330
3B
100
AcDbEntity
  8
Defpoints
 62
0
370
13
440
16777216
100
AcDbPoint
 10
1012249.803319537
 20
61572.0376236378
 30
0.0
  0
ENDBLK
  5
3D
330
3B
100
AcDbEntity
  8
0
100
AcDbBlockEnd
  0
BLOCK
  5
4B
330
4A
100
AcDbEntity
  8
0
100
AcDbBlockBegin
  2
*D2
 70
1
 10
0.0
 20
0.0
 30
0.0
  3
*D2
  1

  0
LINE
  5
4D
330
4A
100
AcDbEntity
  8
BAR-GAL
 62
0
370
-2
440
16777216
100
AcDbLine
 10
1011927.05325699
 20
61631.16941355532
 30
0.0
 11
1011487.383334863
 21
61631.16941355532
 31
0.0
  0
LINE
  5
4E
330
4A
100
AcDbEntity
  8
BAR-GAL
 62
0
370
-2
440
16777216
100
AcDbLine
 10
1012076.479168618
 20
61945.73783906635
 30
0.0
 11
1011487.383334863
 21
61945.73783906635
 31
0.0
  0
LINE
  5
4F
330
4A
100
AcDbEntity
  8
BAR-GAL
 62
0
370
-2
440
16777216
100
AcDbLine
 10
1011488.633334863
 20
61661.16941355532
 30
0.0
 11
1011488.633334863
 21
61915.73783906635
 31
0.0
  0
SOLID
  5
50
330
4A
100
AcDbEntity
  8
BAR-GAL
 62
0
370
13
440
16777216
100
AcDbTrace
 10
1011483.633334863
 20
61661.16941355532
 30
0.0
 11
1011493.633334863
 21
61661.16941355532
 31
0.0
 12
1011488.633334863
 22
61631.16941355532
 32
0.0
 13
1011488.633334863
 23
61631.16941355532
 33
0.0
  0
SOLID
  5
51
330
4A
100
AcDbEntity
  8
BAR-GAL
 62
0
370
13
440
16777216
100
AcDbTrace
 10
1011483.633334863
 20
61915.73783906635
 30
0.0
 11
1011493.633334863
 21
61915.73783906635
 31
0.0
 12
1011488.633334863
 22
61945.73783906635
 32
0.0
 13
1011488.633334863
 23
61945.73783906635
 33
0.0
  0
MTEXT
  5
52
330
4A
100
AcDbEntity
  8
BAR-GAL
 62
0
370
13
440
16777216
100
AcDbMText
 10
1011463.305913308
 20
61788.45362631053
 30
0.0
 40
30.0
 41
0.0
 46
0.0
 71
5
  1
315
 11
1e-16
 21
1.0
 31
0.0
  0
POINT
  5
53
330
4A
100
AcDbEntity
  8
Defpoints
 62
0
370
13
440
16777216
100
AcDbPoint
 10
1011927.67825699
 20
61631.16941355532
 30
0.0
  0
POINT
  5
54
330
4A
100
AcDbEntity
  8
Defpoints
 62
0
370
13
440
16777216
100
AcDbPoint
 10
1012077.104168618
 20
61945.73783906635
 30
0.0
  0
POINT
  5
55
330
4A
100
AcDbEntity
  8
Defpoints
 62
0
370
13
440
16777216
100
AcDbPoint
 10
1011488.633334863
 20
61945.73783906635
 30
0.0
  0
ENDBLK
  5
4C
330
4A
100
AcDbEntity
  8
0
100
AcDbBlockEnd
  0
BLOCK
  5
58
330
57
100
AcDbEntity
  8
0
100
AcDbBlockBegin
  2
*D3
 70
1
 10
0.0
 20
0.0
 30
0.0
  3
*D3
  1

  0
LINE
  5
5A
330
57
100
AcDbEntity
  8
BAR-GAL
 62
0
370
-2
440
16777216
100
AcDbLine
 10
1012149.287537276
 20
61945.11283906632
 30
0.0
 11
1012149.287537276
 21
61884.64083112244
 31
0.0
  0
LINE
  5
5B
330
57
100
AcDbEntity
  8
BAR-GAL
 62
0
370
-2
440
16777216
100
AcDbLine
 10
1012489.335897005
 20
61945.11283906632
 30
0.0
 11
1012489.335897005
 21
61884.64083112244
 31
0.0
  0
LINE
  5
5C
330
57
100
AcDbEntity
  8
BAR-GAL
 62
0
370
-2
440
16777216
100
AcDbLine
 10
1012179.287537276
 20
61885.89083112244
 30
0.0
 11
1012459.335897005
 21
61885.89083112244
 31
0.0
  0
SOLID
  5
5D
330
57
100
AcDbEntity
  8
BAR-GAL
 62
0
370
13
440
16777216
100
AcDbTrace
 10
1012179.287537276
 20
61890.89083112244
 30
0.0
 11
1012179.287537276
 21
61880.89083112244
 31
0.0
 12
1012149.287537276
 22
61885.89083112244
 32
0.0
 13
1012149.287537276
 23
61885.89083112244
 33
0.0
  0
SOLID
  5
5E
330
57
100
AcDbEntity
  8
BAR-GAL
 62
0
370
13
440
16777216
100
AcDbTrace
 10
1012459.335897005
 20
61890.89083112244
 30
0.0
 11
1012459.335897005
 21
61880.89083112244
 31
0.0
 12
1012489.335897005
 22
61885.89083112244
 32
0.0
 13
1012489.335897005
 23
61885.89083112244
 33
0.0
  0
MTEXT
  5
5F
330
57
100
AcDbEntity
  8
BAR-GAL
 62
0
370
13
440
16777216
100
AcDbMText
 10
1012319.311717141
 20
61911.21825267769
 30
0.0
 40
30.0
 41
0.0
 46
0.0
 71
5
  1
340
  0
POINT
  5
60
330
57
100
AcDbEntity
  8
Defpoints
 62
0
370
13
440
16777216
100
AcDbPoint
 10
1012149.287537276
 20
61945.73783906632
 30
0.0
  0
POINT
  5
61
330
57
100
AcDbEntity
  8
Defpoints
 62
0
370
13
440
16777216
100
AcDbPoint
 10
1012489.335897005
 20
61945.73783906632
 30
0.0
  0
POINT
  5
62
330
57
100
AcDbEntity
  8
Defpoints
 62
0
370
13
440
16777216
100
AcDbPoint
 10
1012489.335897005
 20
61885.89083112244
 30
0.0
  0
ENDBLK
  5
59
330
57
100
AcDbEntity
  8
0
100
AcDbBlockEnd
  0
BLOCK
  5
65
330
64
100
AcDbEntity
  8
0
100
AcDbBlockBegin
  2
*D4
 70
1
 10
0.0
 20
0.0
 30
0.0
  3
*D4
  1

  0
LINE
  5
67
330
64
100
AcDbEntity
  8
BAR-GAL
 62
0
370
-2
440
16777216
100
AcDbLine
 10
1011999.421263994
 20
60880.11283906634
 30
0.0
 11
1011999.421263994
 21
60581.13280476217
 31
0.0
  0
LINE
  5
68
330
64
100
AcDbEntity
  8
BAR-GAL
 62
0
370
-2
440
16777216
100
AcDbLine
 10
1012532.9369097
 20
60879.68126457736
 30
0.0
 11
1012532.9369097
 21
60581.13280476217
 31
0.0
  0
LINE
  5
69
330
64
100
AcDbEntity
  8
BAR-GAL
 62
0
370
-2
440
16777216
100
AcDbLine
 10
1012029.421263994
 20
60582.38280476218
 30
0.0
 11
1012502.9369097
 21
60582.38280476218
 31
0.0
  0
SOLID
  5
6A
330
64
100
AcDbEntity
  8
BAR-GAL
 62
0
370
13
440
16777216
100
AcDbTrace
 10
1012029.421263994
 20
60587.38280476218
 30
0.0
 11
1012029.421263994
 21
60577.38280476217
 31
0.0
 12
1011999.421263994
 22
60582.38280476218
 32
0.0
 13
1011999.421263994
 23
60582.38280476218
 33
0.0
  0
SOLID
  5
6B
330
64
100
AcDbEntity
  8
BAR-GAL
 62
0
370
13
440
16777216
100
AcDbTrace
 10
1012502.9369097
 20
60587.38280476218
 30
0.0
 11
1012502.9369097
 21
60577.38280476217
 31
0.0
 12
1012532.9369097
 22
60582.38280476218
 32
0.0
 13
1012532.9369097
 23
60582.38280476218
 33
0.0
  0
MTEXT
  5
6C
330
64
100
AcDbEntity
  8
BAR-GAL
 62
0
370
13
440
16777216
100
AcDbMText
 10
1012266.179086847
 20
60607.71022631743
 30
0.0
 40
30.0
 41
0.0
 46
0.0
 71
5
  1
534
  0
POINT
  5
6D
330
64
100
AcDbEntity
  8
Defpoints
 62
0
370
13
440
16777216
100
AcDbPoint
 10
1011999.421263994
 20
60880.73783906634
 30
0.0
  0
POINT
  5
6E
330
64
100
AcDbEntity
  8
Defpoints
 62
0
370
13
440
16777216
100
AcDbPoint
 10
1012532.9369097
 20
60880.30626457736
 30
0.0
  0
POINT
  5
6F
330
64
100
AcDbEntity
  8
Defpoints
 62
0
370
13
440
16777216
100
AcDbPoint
 10
1012532.9369097
 20
60582.38280476218
 30
0.0
  0
ENDBLK
  5
66
330
64
100
AcDbEntity
  8
0
100
AcDbBlockEnd
  0
BLOCK
  5
74
330
73
100
AcDbEntity
  8
0
100
AcDbBlockBegin
  2
*D5
 70
1
 10
0.0
 20
0.0
 30
0.0
  3
*D5
  1

  0
LINE
  5
76
330
73
100
AcDbEntity
  8
BAR-GAL
 62
0
370
-2
440
16777216
100
AcDbLine
 10
1012893.822396315
 20
62259.88244713411
 30
0.0
 11
1012948.571594047
 21
62259.88244713411
 31
0.0
  0
LINE
  5
77
330
73
100
AcDbEntity
  8
BAR-GAL
 62
0
370
-2
440
16777216
100
AcDbLine
 10
1012893.822396315
 20
62649.86907603452
 30
0.0
 11
1012948.571594047
 21
62649.86907603452
 31
0.0
  0
LINE
  5
78
330
73
100
AcDbEntity
  8
BAR-GAL
 62
0
370
-2
440
16777216
100
AcDbLine
 10
1012947.321594047
 20
62289.88244713411
 30
0.0
 11
1012947.321594047
 21
62619.86907603452
 31
0.0
  0
SOLID
  5
79
330
73
100
AcDbEntity
  8
BAR-GAL
 62
0
370
13
440
16777216
100
AcDbTrace
 10
1012942.321594047
 20
62289.88244713411
 30
0.0
 11
1012952.321594047
 21
62289.88244713411
 31
0.0
 12
1012947.321594047
 22
62259.88244713411
 32
0.0
 13
1012947.321594047
 23
62259.88244713411
 33
0.0
  0
SOLID
  5
7A
330
73
100
AcDbEntity
  8
BAR-GAL
 62
0
370
13
440
16777216
100
AcDbTrace
 10
1012942.321594047
 20
62619.86907603452
 30
0.0
 11
1012952.321594047
 21
62619.86907603452
 31
0.0
 12
1012947.321594047
 22
62649.86907603452
 32
0.0
 13
1012947.321594047
 23
62649.86907603452
 33
0.0
  0
MTEXT
  5
7B
330
73
100
AcDbEntity
  8
BAR-GAL
 62
0
370
13
440
16777216
100
AcDbMText
 10
1012921.994172491
 20
62454.875761584
 30
0.0
 40
30.0
 41
0.0
 46
0.0
 71
5
  1
390
 11
1e-16
 21
1.0
 31
0.0
  0
POINT
  5
7C
330
73
100
AcDbEntity
  8
Defpoints
 62
0
370
13
440
16777216
100
AcDbPoint
 10
1012893.197396316
 20
62259.88244713411
 30
0.0
  0
POINT
  5
7D
330
73
100
AcDbEntity
  8
Defpoints
 62
0
370
13
440
16777216
100
AcDbPoint
 10
1012893.197396316
 20
62649.86907603452
 30
0.0
  0
POINT
  5
7E
330
73
100
AcDbEntity
  8
Defpoints
 62
0
370
13
440
16777216
100
AcDbPoint
 10
1012947.321594047
 20
62649.86907603452
 30
0.0
  0
ENDBLK
  5
75
330
73
100
AcDbEntity
  8
0
100
AcDbBlockEnd
  0
BLOCK
  5
82
330
81
100
AcDbEntity
  8
0
100
AcDbBlockBegin
  2
*D6
 70
1
 10
0.0
 20
0.0
 30
0.0
  3
*D6
  1

  0
LINE
  5
84
330
81
100
AcDbEntity
  8
BAR-GAL
 62
0
370
-2
440
16777216
100
AcDbLine
 10
1012612.706701911
 20
62652.44925503764
 30
0.0
 11
1012612.706701911
 21
62755.91520064486
 31
0.0
  0
LINE
  5
85
330
81
100
AcDbEntity
  8
BAR-GAL
 62
0
370
-2
440
16777216
100
AcDbLine
 10
1012893.197396315
 20
62651.49407603449
 30
0.0
 11
1012893.197396315
 21
62755.91520064486
 31
0.0
  0
LINE
  5
86
330
81
100
AcDbEntity
  8
BAR-GAL
 62
0
370
-2
440
16777216
100
AcDbLine
 10
1012642.706701911
 20
62754.66520064486
 30
0.0
 11
1012863.197396315
 21
62754.66520064486
 31
0.0
  0
SOLID
  5
87
330
81
100
AcDbEntity
  8
BAR-GAL
 62
0
370
13
440
16777216
100
AcDbTrace
 10
1012642.706701911
 20
62759.66520064486
 30
0.0
 11
1012642.706701911
 21
62749.66520064486
 31
0.0
 12
1012612.706701911
 22
62754.66520064486
 32
0.0
 13
1012612.706701911
 23
62754.66520064486
 33
0.0
  0
SOLID
  5
88
330
81
100
AcDbEntity
  8
BAR-GAL
 62
0
370
13
440
16777216
100
AcDbTrace
 10
1012863.197396315
 20
62759.66520064486
 30
0.0
 11
1012863.197396315
 21
62749.66520064486
 31
0.0
 12
1012893.197396315
 22
62754.66520064486
 32
0.0
 13
1012893.197396315
 23
62754.66520064486
 33
0.0
  0
MTEXT
  5
89
330
81
100
AcDbEntity
  8
BAR-GAL
 62
0
370
13
440
16777216
100
AcDbMText
 10
1012752.952049113
 20
62779.98239027651
 30
0.0
 40
30.0
 41
0.0
 46
0.0
 71
5
  1
280
  0
POINT
  5
8A
330
81
100
AcDbEntity
  8
Defpoints
 62
0
370
13
440
16777216
100
AcDbPoint
 10
1012612.706701911
 20
62651.82425503764
 30
0.0
  0
POINT
  5
8B
330
81
100
AcDbEntity
  8
Defpoints
 62
0
370
13
440
16777216
100
AcDbPoint
 10
1012893.197396315
 20
62650.86907603449
 30
0.0
  0
POINT
  5
8C
330
81
100
AcDbEntity
  8
Defpoints
 62
0
370
13
440
16777216
100
AcDbPoint
 10
1012893.197396315
 20
62754.66520064486
 30
0.0
  0
ENDBLK
  5
83
330
81
100
AcDbEntity
  8
0
100
AcDbBlockEnd
  0
BLOCK
  5
92
330
91
100
AcDbEntity
  8
0
100
AcDbBlockBegin
  2
*D7
 70
1
 10
0.0
 20
0.0
 30
0.0
  3
*D7
  1

  0
LINE
  5
94
330
91
100
AcDbEntity
  8
BAR-GAL
 62
0
370
-2
440
16777216
100
AcDbLine
 10
1012995.726749457
 20
62861.00846941748
 30
0.0
 11
1012964.537496613
 21
62861.00846941748
 31
0.0
  0
LINE
  5
95
330
91
100
AcDbEntity
  8
BAR-GAL
 62
0
370
-2
440
16777216
100
AcDbLine
 10
1012992.542973079
 20
63045.67642117826
 30
0.0
 11
1012964.537496613
 21
63045.67642117826
 31
0.0
  0
LINE
  5
96
330
91
100
AcDbEntity
  8
BAR-GAL
 62
0
370
-2
440
16777216
100
AcDbLine
 10
1012965.787496613
 20
62891.00846941748
 30
0.0
 11
1012965.787496613
 21
63015.67642117825
 31
0.0
  0
SOLID
  5
97
330
91
100
AcDbEntity
  8
BAR-GAL
 62
0
370
13
440
16777216
100
AcDbTrace
 10
1012960.787496613
 20
62891.00846941748
 30
0.0
 11
1012970.787496613
 21
62891.00846941748
 31
0.0
 12
1012965.787496613
 22
62861.00846941748
 32
0.0
 13
1012965.787496613
 23
62861.00846941748
 33
0.0
  0
SOLID
  5
98
330
91
100
AcDbEntity
  8
BAR-GAL
 62
0
370
13
440
16777216
100
AcDbTrace
 10
1012960.787496613
 20
63015.67642117825
 30
0.0
 11
1012970.787496613
 21
63015.67642117825
 31
0.0
 12
1012965.787496613
 22
63045.67642117826
 32
0.0
 13
1012965.787496613
 23
63045.67642117826
 33
0.0
  0
MTEXT
  5
99
330
91
100
AcDbEntity
  8
BAR-GAL
 62
0
370
13
440
16777216
100
AcDbMText
 10
1012940.470306981
 20
62953.34244529756
 30
0.0
 40
30.0
 41
0.0
 46
0.0
 71
5
  1
185
 11
1e-16
 21
1.0
 31
0.0
  0
POINT
  5
9A
330
91
100
AcDbEntity
  8
Defpoints
 62
0
370
13
440
16777216
100
AcDbPoint
 10
1012996.351749457
 20
62861.00846941748
 30
0.0
  0
POINT
  5
9B
330
91
100
AcDbEntity
  8
Defpoints
 62
0
370
13
440
16777216
100
AcDbPoint
 10
1012993.167973079
 20
63045.67642117826
 30
0.0
  0
POINT
  5
9C
330
91
100
AcDbEntity
  8
Defpoints
 62
0
370
13
440
16777216
100
AcDbPoint
 10
1012965.787496613
 20
63045.67642117826
 30
0.0
  0
ENDBLK
  5
93
330
91
100
AcDbEntity
  8
0
100
AcDbBlockEnd
  0
BLOCK
  5
9F
330
9E
100
AcDbEntity
  8
0
100
AcDbBlockBegin
  2
*D8
 70
1
 10
0.0
 20
0.0
 30
0.0
  3
*D8
  1

  0
LINE
  5
A1
330
9E
100
AcDbEntity
  8
BAR-GAL
 62
0
370
-2
440
16777216
100
AcDbLine
 10
1012612.388324297
 20
62861.020255458
 30
0.0
 11
1012612.388324297
 21
62806.90522805143
 31
0.0
  0
LINE
  5
A2
330
9E
100
AcDbEntity
  8
BAR-GAL
 62
0
370
-2
440
16777216
100
AcDbLine
 10
1012992.167973078
 20
62861.020255458
 30
0.0
 11
1012992.167973078
 21
62806.90522805143
 31
0.0
  0
LINE
  5
A3
330
9E
100
AcDbEntity
  8
BAR-GAL
 62
0
370
-2
440
16777216
100
AcDbLine
 10
1012642.388324297
 20
62808.15522805143
 30
0.0
 11
1012962.167973078
 21
62808.15522805143
 31
0.0
  0
SOLID
  5
A4
330
9E
100
AcDbEntity
  8
BAR-GAL
 62
0
370
13
440
16777216
100
AcDbTrace
 10
1012642.388324297
 20
62813.15522805144
 30
0.0
 11
1012642.388324297
 21
62803.15522805143
 31
0.0
 12
1012612.388324297
 22
62808.15522805143
 32
0.0
 13
1012612.388324297
 23
62808.15522805143
 33
0.0
  0
SOLID
  5
A5
330
9E
100
AcDbEntity
  8
BAR-GAL
 62
0
370
13
440
16777216
100
AcDbTrace
 10
1012962.167973078
 20
62813.15522805144
 30
0.0
 11
1012962.167973078
 21
62803.15522805143
 31
0.0
 12
1012992.167973078
 22
62808.15522805143
 32
0.0
 13
1012992.167973078
 23
62808.15522805143
 33
0.0
  0
MTEXT
  5
A6
330
9E
100
AcDbEntity
  8
BAR-GAL
 62
0
370
13
440
16777216
100
AcDbMText
 10
1012802.278148688
 20
62833.48264960669
 30
0.0
 40
30.0
 41
0.0
 46
0.0
 71
5
  1
380
  0
POINT
  5
A7
330
9E
100
AcDbEntity
  8
Defpoints
 62
0
370
13
440
16777216
100
AcDbPoint
 10
1012612.388324297
 20
62861.645255458
 30
0.0
  0
POINT
  5
A8
330
9E
100
AcDbEntity
  8
Defpoints
 62
0
370
13
440
16777216
100
AcDbPoint
 10
1012992.167973078
 20
62861.645255458
 30
0.0
  0
POINT
  5
A9
330
9E
100
AcDbEntity
  8
Defpoints
 62
0
370
13
440
16777216
100
AcDbPoint
 10
1012992.167973078
 20
62808.15522805143
 30
0.0
  0
ENDBLK
  5
A0
330
9E
100
AcDbEntity
  8
0
100
AcDbBlockEnd
  0
BLOCK
  5
B3
330
B2
100
AcDbEntity
  8
0
100
AcDbBlockBegin
  2
*D9
 70
1
 10
0.0
 20
0.0
 30
0.0
  3
*D9
  1

  0
LINE
  5
B5
330
B2
100
AcDbEntity
  8
BAR-GAL
 62
0
370
-2
440
16777216
100
AcDbLine
 10
1013058.377597011
 20
62260.50744713409
 30
0.0
 11
1013058.377597011
 21
62313.73070244192
 31
0.0
  0
LINE
  5
B6
330
B2
100
AcDbEntity
  8
BAR-GAL
 62
0
370
-2
440
16777216
100
AcDbLine
 10
1012893.197396315
 20
62260.50744713409
 30
0.0
 11
1012893.197396315
 21
62313.73070244192
 31
0.0
  0
LINE
  5
B7
330
B2
100
AcDbEntity
  8
BAR-GAL
 62
0
370
-2
440
16777216
100
AcDbLine
 10
1013028.377597011
 20
62312.48070244192
 30
0.0
 11
1012923.197396315
 21
62312.48070244192
 31
0.0
  0
SOLID
  5
B8
330
B2
100
AcDbEntity
  8
BAR-GAL
 62
0
370
13
440
16777216
100
AcDbTrace
 10
1013028.377597011
 20
62317.48070244192
 30
0.0
 11
1013028.377597011
 21
62307.48070244191
 31
0.0
 12
1013058.377597011
 22
62312.48070244192
 32
0.0
 13
1013058.377597011
 23
62312.48070244192
 33
0.0
  0
SOLID
  5
B9
330
B2
100
AcDbEntity
  8
BAR-GAL
 62
0
370
13
440
16777216
100
AcDbTrace
 10
1012923.197396315
 20
62317.48070244192
 30
0.0
 11
1012923.197396315
 21
62307.48070244191
 31
0.0
 12
1012893.197396315
 22
62312.48070244192
 32
0.0
 13
1012893.197396315
 23
62312.48070244192
 33
0.0
  0
MTEXT
  5
BA
330
B2
100
AcDbEntity
  8
BAR-GAL
 62
0
370
13
440
16777216
100
AcDbMText
 10
1012975.787496663
 20
62337.79789207357
 30
0.0
 40
30.0
 41
0.0
 46
0.0
 71
5
  1
165
  0
POINT
  5
BB
330
B2
100
AcDbEntity
  8
Defpoints
 62
0
370
13
440
16777216
100
AcDbPoint
 10
1013058.377597011
 20
62259.88244713408
 30
0.0
  0
POINT
  5
BC
330
B2
100
AcDbEntity
  8
Defpoints
 62
0
370
13
440
16777216
100
AcDbPoint
 10
1012893.197396315
 20
62259.88244713408
 30
0.0
  0
POINT
  5
BD
330
B2
100
AcDbEntity
  8
Defpoints
 62
0
370
13
440
16777216
100
AcDbPoint
 10
1012893.197396315
 20
62312.48070244192
 30
0.0
  0
ENDBLK
  5
B4
330
B2
100
AcDbEntity
  8
0
100
AcDbBlockEnd
  0
BLOCK
  5
C4
330
C3
100
AcDbEntity
  8
0
100
AcDbBlockBegin
  2
*D10
 70
1
 10
0.0
 20
0.0
 30
0.0
  3
*D10
  1

  0
LINE
  5
C6
330
C3
100
AcDbEntity
  8
BAR-GAL
 62
0
370
-2
440
16777216
100
AcDbLine
 10
1013057.82298807
 20
62861.00846941748
 30
0.0
 11
1012998.365818798
 21
62861.00846941748
 31
0.0
  0
LINE
  5
C7
330
C3
100
AcDbEntity
  8
BAR-GAL
 62
0
370
-2
440
16777216
100
AcDbLine
 10
1013056.479086436
 20
62260.88244713412
 30
0.0
 11
1012998.365818798
 21
62260.88244713412
 31
0.0
  0
LINE
  5
C8
330
C3
100
AcDbEntity
  8
BAR-GAL
 62
0
370
-2
440
16777216
100
AcDbLine
 10
1012999.615818798
 20
62831.00846941747
 30
0.0
 11
1012999.615818798
 21
62290.88244713411
 31
0.0
  0
SOLID
  5
C9
330
C3
100
AcDbEntity
  8
BAR-GAL
 62
0
370
13
440
16777216
100
AcDbTrace
 10
1012994.615818798
 20
62831.00846941747
 30
0.0
 11
1013004.615818798
 21
62831.00846941747
 31
0.0
 12
1012999.615818798
 22
62861.00846941748
 32
0.0
 13
1012999.615818798
 23
62861.00846941748
 33
0.0
  0
SOLID
  5
CA
330
C3
100
AcDbEntity
  8
BAR-GAL
 62
0
370
13
440
16777216
100
AcDbTrace
 10
1012994.615818798
 20
62290.88244713411
 30
0.0
 11
1013004.615818798
 21
62290.88244713411
 31
0.0
 12
1012999.615818798
 22
62260.88244713412
 32
0.0
 13
1012999.615818798
 23
62260.88244713412
 33
0.0
  0
MTEXT
  5
CB
330
C3
100
AcDbEntity
  8
BAR-GAL
 62
0
370
13
440
16777216
100
AcDbMText
 10
1012974.298629166
 20
62560.94545827549
 30
0.0
 40
30.0
 41
0.0
 46
0.0
 71
5
  1
600
 11
1e-16
 21
1.0
 31
0.0
  0
POINT
  5
CC
330
C3
100
AcDbEntity
  8
Defpoints
 62
0
370
13
440
16777216
100
AcDbPoint
 10
1013058.44798807
 20
62861.00846941748
 30
0.0
  0
POINT
  5
CD
330
C3
100
AcDbEntity
  8
Defpoints
 62
0
370
13
440
16777216
100
AcDbPoint
 10
1013057.104086436
 20
62260.88244713412
 30
0.0
  0
POINT
  5
CE
330
C3
100
AcDbEntity
  8
Defpoints
 62
0
370
13
440
16777216
100
AcDbPoint
 10
1012999.615818798
 20
62260.88244713412
 30
0.0
  0
ENDBLK
  5
C5
330
C3
100
AcDbEntity
  8
0
100
AcDbBlockEnd
  0
BLOCK
  5
EA
330
E9
100
AcDbEntity
  8
0
100
AcDbBlockBegin
  2
*D11
 70
1
 10
0.0
 20
0.0
 30
0.0
  3
*D11
  1

  0
LINE
  5
EC
330
E9
100
AcDbEntity
  8
BAR-GAL
 62
0
370
-2
440
16777216
100
AcDbLine
 10
1011855.740756787
 20
62585.11283906632
 30
0.0
 11
1011855.740756787
 21
62484.50035509006
 31
0.0
  0
LINE
  5
ED
330
E9
100
AcDbEntity
  8
BAR-GAL
 62
0
370
-2
440
16777216
100
AcDbLine
 10
1012150.740756787
 20
62585.11283906632
 30
0.0
 11
1012150.740756787
 21
62484.50035509006
 31
0.0
  0
LINE
  5
EE
330
E9
100
AcDbEntity
  8
BAR-GAL
 62
0
370
-2
440
16777216
100
AcDbLine
 10
1011885.740756787
 20
62485.75035509006
 30
0.0
 11
1012120.740756787
 21
62485.75035509006
 31
0.0
  0
SOLID
  5
EF
330
E9
100
AcDbEntity
  8
BAR-GAL
 62
0
370
13
440
16777216
100
AcDbTrace
 10
1011885.740756787
 20
62490.75035509005
 30
0.0
 11
1011885.740756787
 21
62480.75035509006
 31
0.0
 12
1011855.740756787
 22
62485.75035509006
 32
0.0
 13
1011855.740756787
 23
62485.75035509006
 33
0.0
  0
SOLID
  5
F0
330
E9
100
AcDbEntity
  8
BAR-GAL
 62
0
370
13
440
16777216
100
AcDbTrace
 10
1012120.740756787
 20
62490.75035509005
 30
0.0
 11
1012120.740756787
 21
62480.75035509006
 31
0.0
 12
1012150.740756787
 22
62485.75035509006
 32
0.0
 13
1012150.740756787
 23
62485.75035509006
 33
0.0
  0
MTEXT
  5
F1
330
E9
100
AcDbEntity
  8
BAR-GAL
 62
0
370
13
440
16777216
100
AcDbMText
 10
1012003.240756787
 20
62511.06754472171
 30
0.0
 40
30.0
 41
0.0
 46
0.0
 71
5
  1
295
  0
POINT
  5
F2
330
E9
100
AcDbEntity
  8
Defpoints
 62
0
370
13
440
16777216
100
AcDbPoint
 10
1011855.740756787
 20
62585.73783906633
 30
0.0
  0
POINT
  5
F3
330
E9
100
AcDbEntity
  8
Defpoints
 62
0
370
13
440
16777216
100
AcDbPoint
 10
1012150.740756787
 20
62585.73783906632
 30
0.0
  0
POINT
  5
F4
330
E9
100
AcDbEntity
  8
Defpoints
 62
0
370
13
440
16777216
100
AcDbPoint
 10
1012150.740756787
 20
62485.75035509006
 30
0.0
  0
ENDBLK
  5
EB
330
E9
100
AcDbEntity
  8
0
100
AcDbBlockEnd
  0
BLOCK
  5
F7
330
F6
100
AcDbEntity
  8
0
100
AcDbBlockBegin
  2
*D12
 70
1
 10
0.0
 20
0.0
 30
0.0
  3
*D12
  1

  0
LINE
  5
F9
330
F6
100
AcDbEntity
  8
BAR-GAL
 62
0
370
-2
440
16777216
100
AcDbLine
 10
1012532.9369097
 20
61019.68126457736
 30
0.0
 11
1012532.9369097
 21
60581.13280476217
 31
0.0
  0
LINE
  5
FA
330
F6
100
AcDbEntity
  8
BAR-GAL
 62
0
370
-2
440
16777216
100
AcDbLine
 10
1012828.9369097
 20
61019.68126457736
 30
0.0
 11
1012828.9369097
 21
60581.13280476217
 31
0.0
  0
LINE
  5
FB
330
F6
100
AcDbEntity
  8
BAR-GAL
 62
0
370
-2
440
16777216
100
AcDbLine
 10
1012562.9369097
 20
60582.38280476218
 30
0.0
 11
1012798.9369097
 21
60582.38280476218
 31
0.0
  0
SOLID
  5
FC
330
F6
100
AcDbEntity
  8
BAR-GAL
 62
0
370
13
440
16777216
100
AcDbTrace
 10
1012562.9369097
 20
60587.38280476218
 30
0.0
 11
1012562.9369097
 21
60577.38280476217
 31
0.0
 12
1012532.9369097
 22
60582.38280476218
 32
0.0
 13
1012532.9369097
 23
60582.38280476218
 33
0.0
  0
SOLID
  5
FD
330
F6
100
AcDbEntity
  8
BAR-GAL
 62
0
370
13
440
16777216
100
AcDbTrace
 10
1012798.9369097
 20
60587.38280476218
 30
0.0
 11
1012798.9369097
 21
60577.38280476217
 31
0.0
 12
1012828.9369097
 22
60582.38280476218
 32
0.0
 13
1012828.9369097
 23
60582.38280476218
 33
0.0
  0
MTEXT
  5
FE
330
F6
100
AcDbEntity
  8
BAR-GAL
 62
0
370
13
440
16777216
100
AcDbMText
 10
1012680.9369097
 20
60607.69999439383
 30
0.0
 40
30.0
 41
0.0
 46
0.0
 71
5
  1
296
  0
POINT
  5
FF
330
F6
100
AcDbEntity
  8
Defpoints
 62
0
370
13
440
16777216
100
AcDbPoint
 10
1012532.9369097
 20
61020.30626457736
 30
0.0
  0
POINT
  5
100
330
F6
100
AcDbEntity
  8
Defpoints
 62
0
370
13
440
16777216
100
AcDbPoint
 10
1012828.9369097
 20
61020.30626457736
 30
0.0
  0
POINT
  5
101
330
F6
100
AcDbEntity
  8
Defpoints
 62
0
370
13
440
16777216
100
AcDbPoint
 10
1012828.9369097
 20
60582.38280476218
 30
0.0
  0
ENDBLK
  5
F8
330
F6
100
AcDbEntity
  8
0
100
AcDbBlockEnd
  0
BLOCK
  5
104
330
103
100
AcDbEntity
  8
0
100
AcDbBlockBegin
  2
*D13
 70
1
 10
0.0
 20
0.0
 30
0.0
  3
*D13
  1

  0
LINE
  5
106
330
103
100
AcDbEntity
  8
BAR-GAL
 62
0
370
-2
440
16777216
100
AcDbLine
 10
1012828.9369097
 20
61019.68126457736
 30
0.0
 11
1012828.9369097
 21
60581.13280476217
 31
0.0
  0
LINE
  5
107
330
103
100
AcDbEntity
  8
BAR-GAL
 62
0
370
-2
440
16777216
100
AcDbLine
 10
1013292.9369097
 20
61019.68126457736
 30
0.0
 11
1013292.9369097
 21
60581.13280476217
 31
0.0
  0
LINE
  5
108
330
103
100
AcDbEntity
  8
BAR-GAL
 62
0
370
-2
440
16777216
100
AcDbLine
 10
1012858.9369097
 20
60582.38280476218
 30
0.0
 11
1013262.9369097
 21
60582.38280476218
 31
0.0
  0
SOLID
  5
109
330
103
100
AcDbEntity
  8
BAR-GAL
 62
0
370
13
440
16777216
100
AcDbTrace
 10
1012858.9369097
 20
60587.38280476218
 30
0.0
 11
1012858.9369097
 21
60577.38280476217
 31
0.0
 12
1012828.9369097
 22
60582.38280476218
 32
0.0
 13
1012828.9369097
 23
60582.38280476218
 33
0.0
  0
SOLID
  5
10A
330
103
100
AcDbEntity
  8
BAR-GAL
 62
0
370
13
440
16777216
100
AcDbTrace
 10
1013262.9369097
 20
60587.38280476218
 30
0.0
 11
1013262.9369097
 21
60577.38280476217
 31
0.0
 12
1013292.9369097
 22
60582.38280476218
 32
0.0
 13
1013292.9369097
 23
60582.38280476218
 33
0.0
  0
MTEXT
  5
10B
330
103
100
AcDbEntity
  8
BAR-GAL
 62
0
370
13
440
16777216
100
AcDbMText
 10
1013060.9369097
 20
60607.69999439383
 30
0.0
 40
30.0
 41
0.0
 46
0.0
 71
5
  1
464
  0
POINT
  5
10C
330
103
100
AcDbEntity
  8
Defpoints
 62
0
370
13
440
16777216
100
AcDbPoint
 10
1012828.9369097
 20
61020.30626457736
 30
0.0
  0
POINT
  5
10D
330
103
100
AcDbEntity
  8
Defpoints
 62
0
370
13
440
16777216
100
AcDbPoint
 10
1013292.9369097
 20
61020.30626457736
 30
0.0
  0
POINT
  5
10E
330
103
100
AcDbEntity
  8
Defpoints
 62
0
370
13
440
16777216
100
AcDbPoint
 10
1013292.9369097
 20
60582.38280476218
 30
0.0
  0
ENDBLK
  5
105
330
103
100
AcDbEntity
  8
0
100
AcDbBlockEnd
  0
BLOCK
  5
111
330
110
100
AcDbEntity
  8
0
100
AcDbBlockBegin
  2
*D14
 70
1
 10
0.0
 20
0.0
 30
0.0
  3
*D14
  1

  0
LINE
  5
113
330
110
100
AcDbEntity
  8
BAR-GAL
 62
0
370
-2
440
16777216
100
AcDbLine
 10
1013318.945370116
 20
62038.79308049465
 30
0.0
 11
1013318.945370116
 21
62084.7300121163
 31
0.0
  0
LINE
  5
114
330
110
100
AcDbEntity
  8
BAR-GAL
 62
0
370
-2
440
16777216
100
AcDbLine
 10
1013058.44798807
 20
62038.79308049465
 30
0.0
 11
1013058.44798807
 21
62084.7300121163
 31
0.0
  0
LINE
  5
115
330
110
100
AcDbEntity
  8
BAR-GAL
 62
0
370
-2
440
16777216
100
AcDbLine
 10
1013288.945370116
 20
62083.48001211629
 30
0.0
 11
1013088.44798807
 21
62083.48001211629
 31
0.0
  0
SOLID
  5
116
330
110
100
AcDbEntity
  8
BAR-GAL
 62
0
370
13
440
16777216
100
AcDbTrace
 10
1013288.945370116
 20
62088.4800121163
 30
0.0
 11
1013288.945370116
 21
62078.4800121163
 31
0.0
 12
1013318.945370116
 22
62083.48001211629
 32
0.0
 13
1013318.945370116
 23
62083.48001211629
 33
0.0
  0
SOLID
  5
117
330
110
100
AcDbEntity
  8
BAR-GAL
 62
0
370
13
440
16777216
100
AcDbTrace
 10
1013088.44798807
 20
62088.4800121163
 30
0.0
 11
1013088.44798807
 21
62078.4800121163
 31
0.0
 12
1013058.44798807
 22
62083.48001211629
 32
0.0
 13
1013058.44798807
 23
62083.48001211629
 33
0.0
  0
MTEXT
  5
118
330
110
100
AcDbEntity
  8
BAR-GAL
 62
0
370
13
440
16777216
100
AcDbMText
 10
1013188.696679093
 20
62108.79720174794
 30
0.0
 40
30.0
 41
0.0
 46
0.0
 71
5
  1
260
  0
POINT
  5
119
330
110
100
AcDbEntity
  8
Defpoints
 62
0
370
13
440
16777216
100
AcDbPoint
 10
1013318.945370116
 20
62038.16808049465
 30
0.0
  0
POINT
  5
11A
330
110
100
AcDbEntity
  8
Defpoints
 62
0
370
13
440
16777216
100
AcDbPoint
 10
1013058.44798807
 20
62038.16808049465
 30
0.0
  0
POINT
  5
11B
330
110
100
AcDbEntity
  8
Defpoints
 62
0
370
13
440
16777216
100
AcDbPoint
 10
1013058.44798807
 20
62083.48001211629
 30
0.0
  0
ENDBLK
  5
112
330
110
100
AcDbEntity
  8
0
100
AcDbBlockEnd
  0
BLOCK
  5
11E
330
11D
100
AcDbEntity
  8
0
100
AcDbBlockBegin
  2
*D15
 70
1
 10
0.0
 20
0.0
 30
0.0
  3
*D15
  1

  0
LINE
  5
120
330
11D
100
AcDbEntity
  8
BAR-GAL
 62
0
370
-2
440
16777216
100
AcDbLine
 10
1011998.726508937
 20
61715.38246594883
 30
0.0
 11
1011998.726508937
 21
61815.07260892481
 31
0.0
  0
LINE
  5
121
330
11D
100
AcDbEntity
  8
BAR-GAL
 62
0
370
-2
440
16777216
100
AcDbLine
 10
1012272.726508937
 20
61715.38246594883
 30
0.0
 11
1012272.726508937
 21
61815.07260892481
 31
0.0
  0
LINE
  5
122
330
11D
100
AcDbEntity
  8
BAR-GAL
 62
0
370
-2
440
16777216
100
AcDbLine
 10
1012028.726508937
 20
61813.82260892481
 30
0.0
 11
1012242.726508937
 21
61813.82260892481
 31
0.0
  0
SOLID
  5
123
330
11D
100
AcDbEntity
  8
BAR-GAL
 62
0
370
13
440
16777216
100
AcDbTrace
 10
1012028.726508937
 20
61818.82260892481
 30
0.0
 11
1012028.726508937
 21
61808.82260892481
 31
0.0
 12
1011998.726508937
 22
61813.82260892481
 32
0.0
 13
1011998.726508937
 23
61813.82260892481
 33
0.0
  0
SOLID
  5
124
330
11D
100
AcDbEntity
  8
BAR-GAL
 62
0
370
13
440
16777216
100
AcDbTrace
 10
1012242.726508937
 20
61818.82260892481
 30
0.0
 11
1012242.726508937
 21
61808.82260892481
 31
0.0
 12
1012272.726508937
 22
61813.82260892481
 32
0.0
 13
1012272.726508937
 23
61813.82260892481
 33
0.0
  0
MTEXT
  5
125
330
11D
100
AcDbEntity
  8
BAR-GAL
 62
0
370
13
440
16777216
100
AcDbMText
 10
1012135.726508937
 20
61838.88400046642
 30
0.0
 40
30.0
 41
0.0
 46
0.0
 71
5
  1
274
  0
POINT
  5
126
330
11D
100
AcDbEntity
  8
Defpoints
 62
0
370
13
440
16777216
100
AcDbPoint
 10
1011998.726508937
 20
61714.75746594883
 30
0.0
  0
POINT
  5
127
330
11D
100
AcDbEntity
  8
Defpoints
 62
0
370
13
440
16777216
100
AcDbPoint
 10
1012272.726508937
 20
61714.75746594883
 30
0.0
  0
POINT
  5
128
330
11D
100
AcDbEntity
  8
Defpoints
 62
0
370
13
440
16777216
100
AcDbPoint
 10
1012272.726508937
 20
61813.82260892481
 30
0.0
  0
ENDBLK
  5
11F
330
11D
100
AcDbEntity
  8
0
100
AcDbBlockEnd
  0
BLOCK
  5
12D
330
12C
100
AcDbEntity
  8
0
100
AcDbBlockBegin
  2
*D16
 70
1
 10
0.0
 20
0.0
 30
0.0
  3
*D16
  1

  0
LINE
  5
12F
330
12C
100
AcDbEntity
  8
BAR-GAL
 62
0
370
-2
440
16777216
100
AcDbLine
 10
1012272.005822969
 20
61777.61279474553
 30
0.0
 11
1012272.005822969
 21
61814.95249459676
 31
0.0
  0
LINE
  5
130
330
12C
100
AcDbEntity
  8
BAR-GAL
 62
0
370
-2
440
16777216
100
AcDbLine
 10
1012423.005822969
 20
61777.61279474553
 30
0.0
 11
1012423.005822969
 21
61814.95249459676
 31
0.0
  0
LINE
  5
131
330
12C
100
AcDbEntity
  8
BAR-GAL
 62
0
370
-2
440
16777216
100
AcDbLine
 10
1012302.005822969
 20
61813.70249459676
 30
0.0
 11
1012393.005822969
 21
61813.70249459676
 31
0.0
  0
SOLID
  5
132
330
12C
100
AcDbEntity
  8
BAR-GAL
 62
0
370
13
440
16777216
100
AcDbTrace
 10
1012302.005822969
 20
61818.70249459676
 30
0.0
 11
1012302.005822969
 21
61808.70249459676
 31
0.0
 12
1012272.005822969
 22
61813.70249459676
 32
0.0
 13
1012272.005822969
 23
61813.70249459676
 33
0.0
  0
SOLID
  5
133
330
12C
100
AcDbEntity
  8
BAR-GAL
 62
0
370
13
440
16777216
100
AcDbTrace
 10
1012393.005822969
 20
61818.70249459676
 30
0.0
 11
1012393.005822969
 21
61808.70249459676
 31
0.0
 12
1012423.005822969
 22
61813.70249459676
 32
0.0
 13
1012423.005822969
 23
61813.70249459676
 33
0.0
  0
MTEXT
  5
134
330
12C
100
AcDbEntity
  8
BAR-GAL
 62
0
370
13
440
16777216
100
AcDbMText
 10
1012347.505822969
 20
61839.01968422842
 30
0.0
 40
30.0
 41
0.0
 46
0.0
 71
5
  1
151
  0
POINT
  5
135
330
12C
100
AcDbEntity
  8
Defpoints
 62
0
370
13
440
16777216
100
AcDbPoint
 10
1012272.005822969
 20
61776.98779474553
 30
0.0
  0
POINT
  5
136
330
12C
100
AcDbEntity
  8
Defpoints
 62
0
370
13
440
16777216
100
AcDbPoint
 10
1012423.005822969
 20
61776.98779474553
 30
0.0
  0
POINT
  5
137
330
12C
100
AcDbEntity
  8
Defpoints
 62
0
370
13
440
16777216
100
AcDbPoint
 10
1012423.005822969
 20
61813.70249459676
 30
0.0
  0
ENDBLK
  5
12E
330
12C
100
AcDbEntity
  8
0
100
AcDbBlockEnd
  0
BLOCK
  5
13C
330
13B
100
AcDbEntity
  8
0
100
AcDbBlockBegin
  2
*D17
 70
1
 10
0.0
 20
0.0
 30
0.0
  3
*D17
  1

  0
LINE
  5
13E
330
13B
100
AcDbEntity
  8
BAR-GAL
 62
0
370
-2
440
16777216
100
AcDbLine
 10
1012423.005822969
 20
61782.74442917429
 30
0.0
 11
1012423.005822969
 21
61814.95249459676
 31
0.0
  0
LINE
  5
13F
330
13B
100
AcDbEntity
  8
BAR-GAL
 62
0
370
-2
440
16777216
100
AcDbLine
 10
1012488.005822969
 20
61782.74442917429
 30
0.0
 11
1012488.005822969
 21
61814.95249459676
 31
0.0
  0
LINE
  5
140
330
13B
100
AcDbEntity
  8
BAR-GAL
 62
0
370
-2
440
16777216
100
AcDbLine
 10
1012393.005822969
 20
61813.70249459676
 30
0.0
 11
1012363.005822969
 21
61813.70249459676
 31
0.0
  0
LINE
  5
141
330
13B
100
AcDbEntity
  8
BAR-GAL
 62
0
370
-2
440
16777216
100
AcDbLine
 10
1012518.005822969
 20
61813.70249459676
 30
0.0
 11
1012548.005822969
 21
61813.70249459676
 31
0.0
  0
LINE
  5
142
330
13B
100
AcDbEntity
  8
BAR-GAL
 62
0
370
-2
440
16777216
100
AcDbLine
 10
1012423.005822969
 20
61813.70249459676
 30
0.0
 11
1012488.005822969
 21
61813.70249459676
 31
0.0
  0
SOLID
  5
143
330
13B
100
AcDbEntity
  8
BAR-GAL
 62
0
370
13
440
16777216
100
AcDbTrace
 10
1012393.005822969
 20
61818.70249459676
 30
0.0
 11
1012393.005822969
 21
61808.70249459676
 31
0.0
 12
1012423.005822969
 22
61813.70249459676
 32
0.0
 13
1012423.005822969
 23
61813.70249459676
 33
0.0
  0
SOLID
  5
144
330
13B
100
AcDbEntity
  8
BAR-GAL
 62
0
370
13
440
16777216
100
AcDbTrace
 10
1012518.005822969
 20
61818.70249459676
 30
0.0
 11
1012518.005822969
 21
61808.70249459676
 31
0.0
 12
1012488.005822969
 22
61813.70249459676
 32
0.0
 13
1012488.005822969
 23
61813.70249459676
 33
0.0
  0
MTEXT
  5
145
330
13B
100
AcDbEntity
  8
BAR-GAL
 62
0
370
13
440
16777216
100
AcDbMText
 10
1012455.505822969
 20
61839.01968422842
 30
0.0
 40
30.0
 41
0.0
 46
0.0
 71
5
  1
65
  0
POINT
  5
146
330
13B
100
AcDbEntity
  8
Defpoints
 62
0
370
13
440
16777216
100
AcDbPoint
 10
1012423.005822969
 20
61782.11942917429
 30
0.0
  0
POINT
  5
147
330
13B
100
AcDbEntity
  8
Defpoints
 62
0
370
13
440
16777216
100
AcDbPoint
 10
1012488.005822969
 20
61782.11942917429
 30
0.0
  0
POINT
  5
148
330
13B
100
AcDbEntity
  8
Defpoints
 62
0
370
13
440
16777216
100
AcDbPoint
 10
1012488.005822969
 20
61813.70249459676
 30
0.0
  0
ENDBLK
  5
13D
330
13B
100
AcDbEntity
  8
0
100
AcDbBlockEnd
  0
BLOCK
  5
14C
330
14B
100
AcDbEntity
  8
0
100
AcDbBlockBegin
  2
*D18
 70
1
 10
0.0
 20
0.0
 30
0.0
  3
*D18
  1

  0
LINE
  5
14E
330
14B
100
AcDbEntity
  8
BAR-GAL
 62
0
370
-2
440
16777216
100
AcDbLine
 10
1012533.634455711
 20
60880.30626457738
 30
0.0
 11
1012602.207584331
 21
60880.30626457738
 31
0.0
  0
LINE
  5
14F
330
14B
100
AcDbEntity
  8
BAR-GAL
 62
0
370
-2
440
16777216
100
AcDbLine
 10
1012533.5619097
 20
61020.30626457739
 30
0.0
 11
1012602.207584331
 21
61020.30626457739
 31
0.0
  0
LINE
  5
150
330
14B
100
AcDbEntity
  8
BAR-GAL
 62
0
370
-2
440
16777216
100
AcDbLine
 10
1012600.957584331
 20
60910.30626457738
 30
0.0
 11
1012600.957584331
 21
60990.30626457738
 31
0.0
  0
SOLID
  5
151
330
14B
100
AcDbEntity
  8
BAR-GAL
 62
0
370
13
440
16777216
100
AcDbTrace
 10
1012595.957584331
 20
60910.30626457738
 30
0.0
 11
1012605.957584332
 21
60910.30626457738
 31
0.0
 12
1012600.957584331
 22
60880.30626457738
 32
0.0
 13
1012600.957584331
 23
60880.30626457738
 33
0.0
  0
SOLID
  5
152
330
14B
100
AcDbEntity
  8
BAR-GAL
 62
0
370
13
440
16777216
100
AcDbTrace
 10
1012595.957584331
 20
60990.30626457738
 30
0.0
 11
1012605.957584332
 21
60990.30626457738
 31
0.0
 12
1012600.957584331
 22
61020.30626457739
 32
0.0
 13
1012600.957584331
 23
61020.30626457739
 33
0.0
  0
MTEXT
  5
153
330
14B
100
AcDbEntity
  8
BAR-GAL
 62
0
370
13
440
16777216
100
AcDbMText
 10
1012575.6403947
 20
60950.30626457708
 30
0.0
 40
30.0
 41
0.0
 46
0.0
 71
5
  1
140
 11
1e-16
 21
1.0
 31
0.0
  0
POINT
  5
154
330
14B
100
AcDbEntity
  8
Defpoints
 62
0
370
13
440
16777216
100
AcDbPoint
 10
1012533.009455711
 20
60880.30626457738
 30
0.0
  0
POINT
  5
155
330
14B
100
AcDbEntity
  8
Defpoints
 62
0
370
13
440
16777216
100
AcDbPoint
 10
1012532.9369097
 20
61020.30626457739
 30
0.0
  0
POINT
  5
156
330
14B
100
AcDbEntity
  8
Defpoints
 62
0
370
13
440
16777216
100
AcDbPoint
 10
1012600.957584331
 20
61020.30626457739
 30
0.0
  0
ENDBLK
  5
14D
330
14B
100
AcDbEntity
  8
0
100
AcDbBlockEnd
  0
BLOCK
  5
159
330
158
100
AcDbEntity
  8
0
100
AcDbBlockBegin
  2
*D19
 70
1
 10
0.0
 20
0.0
 30
0.0
  3
*D19
  1

  0
LINE
  5
15B
330
158
100
AcDbEntity
  8
BAR-GAL
 62
0
370
-2
440
16777216
100
AcDbLine
 10
1013058.823494251
 20
62041.20489059647
 30
0.0
 11
1013058.823494251
 21
62085.9800121163
 31
0.0
  0
LINE
  5
15C
330
158
100
AcDbEntity
  8
BAR-GAL
 62
0
370
-2
440
16777216
100
AcDbLine
 10
1012610.909948595
 20
62041.20489059647
 30
0.0
 11
1012610.909948595
 21
62085.9800121163
 31
0.0
  0
LINE
  5
15D
330
158
100
AcDbEntity
  8
BAR-GAL
 62
0
370
-2
440
16777216
100
AcDbLine
 10
1013028.823494251
 20
62084.7300121163
 30
0.0
 11
1012640.909948595
 21
62084.7300121163
 31
0.0
  0
SOLID
  5
15E
330
158
100
AcDbEntity
  8
BAR-GAL
 62
0
370
13
440
16777216
100
AcDbTrace
 10
1013028.823494251
 20
62089.7300121163
 30
0.0
 11
1013028.823494251
 21
62079.73001211629
 31
0.0
 12
1013058.823494251
 22
62084.7300121163
 32
0.0
 13
1013058.823494251
 23
62084.7300121163
 33
0.0
  0
SOLID
  5
15F
330
158
100
AcDbEntity
  8
BAR-GAL
 62
0
370
13
440
16777216
100
AcDbTrace
 10
1012640.909948595
 20
62089.7300121163
 30
0.0
 11
1012640.909948595
 21
62079.73001211629
 31
0.0
 12
1012610.909948595
 22
62084.7300121163
 32
0.0
 13
1012610.909948595
 23
62084.7300121163
 33
0.0
  0
MTEXT
  5
160
330
158
100
AcDbEntity
  8
BAR-GAL
 62
0
370
13
440
16777216
100
AcDbMText
 10
1012834.866721423
 20
62110.04720174795
 30
0.0
 40
30.0
 41
0.0
 46
0.0
 71
5
  1
448
  0
POINT
  5
161
330
158
100
AcDbEntity
  8
Defpoints
 62
0
370
13
440
16777216
100
AcDbPoint
 10
1013058.823494251
 20
62040.57989059648
 30
0.0
  0
POINT
  5
162
330
158
100
AcDbEntity
  8
Defpoints
 62
0
370
13
440
16777216
100
AcDbPoint
 10
1012610.909948595
 20
62040.57989059648
 30
0.0
  0
POINT
  5
163
330
158
100
AcDbEntity
  8
Defpoints
 62
0
370
13
440
16777216
100
AcDbPoint
 10
1012610.909948595
 20
62084.7300121163
 30
0.0
  0
ENDBLK
  5
15A
330
158
100
AcDbEntity
  8
0
100
AcDbBlockEnd
  0
BLOCK
  5
167
330
166
100
AcDbEntity
  8
0
100
AcDbBlockBegin
  2
*D20
 70
1
 10
0.0
 20
0.0
 30
0.0
  3
*D20
  1

  0
LINE
  5
169
330
166
100
AcDbEntity
  8
BAR-GAL
 62
0
370
-2
440
16777216
100
AcDbLine
 10
1012610.909948595
 20
62041.20489059647
 30
0.0
 11
1012610.909948595
 21
62086.07193460249
 31
0.0
  0
LINE
  5
16A
330
166
100
AcDbEntity
  8
BAR-GAL
 62
0
370
-2
440
16777216
100
AcDbLine
 10
1012150.740756787
 20
62041.20489059647
 30
0.0
 11
1012150.740756787
 21
62086.07193460249
 31
0.0
  0
LINE
  5
16B
330
166
100
AcDbEntity
  8
BAR-GAL
 62
0
370
-2
440
16777216
100
AcDbLine
 10
1012580.909948595
 20
62084.82193460249
 30
0.0
 11
1012180.740756787
 21
62084.82193460249
 31
0.0
  0
SOLID
  5
16C
330
166
100
AcDbEntity
  8
BAR-GAL
 62
0
370
13
440
16777216
100
AcDbTrace
 10
1012580.909948595
 20
62089.82193460249
 30
0.0
 11
1012580.909948595
 21
62079.82193460249
 31
0.0
 12
1012610.909948595
 22
62084.82193460249
 32
0.0
 13
1012610.909948595
 23
62084.82193460249
 33
0.0
  0
SOLID
  5
16D
330
166
100
AcDbEntity
  8
BAR-GAL
 62
0
370
13
440
16777216
100
AcDbTrace
 10
1012180.740756787
 20
62089.82193460249
 30
0.0
 11
1012180.740756787
 21
62079.82193460249
 31
0.0
 12
1012150.740756787
 22
62084.82193460249
 32
0.0
 13
1012150.740756787
 23
62084.82193460249
 33
0.0
  0
MTEXT
  5
16E
330
166
100
AcDbEntity
  8
BAR-GAL
 62
0
370
13
440
16777216
100
AcDbMText
 10
1012380.825352691
 20
62110.13912423414
 30
0.0
 40
30.0
 41
0.0
 46
0.0
 71
5
  1
460
  0
POINT
  5
16F
330
166
100
AcDbEntity
  8
Defpoints
 62
0
370
13
440
16777216
100
AcDbPoint
 10
1012610.909948595
 20
62040.57989059648
 30
0.0
  0
POINT
  5
170
330
166
100
AcDbEntity
  8
Defpoints
 62
0
370
13
440
16777216
100
AcDbPoint
 10
1012150.740756787
 20
62040.57989059648
 30
0.0
  0
POINT
  5
171
330
166
100
AcDbEntity
  8
Defpoints
 62
0
370
13
440
16777216
100
AcDbPoint
 10
1012150.740756787
 20
62084.82193460249
 30
0.0
  0
ENDBLK
  5
168
330
166
100
AcDbEntity
  8
0
100
AcDbBlockEnd
  0
BLOCK
  5
175
330
174
100
AcDbEntity
  8
0
100
AcDbBlockBegin
  2
*D21
 70
1
 10
0.0
 20
0.0
 30
0.0
  3
*D21
  1

  0
LINE
  5
177
330
174
100
AcDbEntity
  8
BAR-GAL
 62
0
370
-2
440
16777216
100
AcDbLine
 10
1013058.44798807
 20
62351.78933523523
 30
0.0
 11
1013058.44798807
 21
62394.49108009703
 31
0.0
  0
LINE
  5
178
330
174
100
AcDbEntity
  8
BAR-GAL
 62
0
370
-2
440
16777216
100
AcDbLine
 10
1013430.9369097
 20
62353.72966867728
 30
0.0
 11
1013430.9369097
 21
62394.49108009703
 31
0.0
  0
LINE
  5
179
330
174
100
AcDbEntity
  8
BAR-GAL
 62
0
370
-2
440
16777216
100
AcDbLine
 10
1013088.44798807
 20
62393.24108009704
 30
0.0
 11
1013400.9369097
 21
62393.24108009704
 31
0.0
  0
SOLID
  5
17A
330
174
100
AcDbEntity
  8
BAR-GAL
 62
0
370
13
440
16777216
100
AcDbTrace
 10
1013088.44798807
 20
62398.24108009703
 30
0.0
 11
1013088.44798807
 21
62388.24108009704
 31
0.0
 12
1013058.44798807
 22
62393.24108009704
 32
0.0
 13
1013058.44798807
 23
62393.24108009704
 33
0.0
  0
SOLID
  5
17B
330
174
100
AcDbEntity
  8
BAR-GAL
 62
0
370
13
440
16777216
100
AcDbTrace
 10
1013400.9369097
 20
62398.24108009703
 30
0.0
 11
1013400.9369097
 21
62388.24108009704
 31
0.0
 12
1013430.9369097
 22
62393.24108009704
 32
0.0
 13
1013430.9369097
 23
62393.24108009704
 33
0.0
  0
MTEXT
  5
17C
330
174
100
AcDbEntity
  8
BAR-GAL
 62
0
370
13
440
16777216
100
AcDbMText
 10
1013244.692448885
 20
62418.56850165229
 30
0.0
 40
30.0
 41
0.0
 46
0.0
 71
5
  1
372
  0
POINT
  5
17D
330
174
100
AcDbEntity
  8
Defpoints
 62
0
370
13
440
16777216
100
AcDbPoint
 10
1013058.44798807
 20
62351.16433523523
 30
0.0
  0
POINT
  5
17E
330
174
100
AcDbEntity
  8
Defpoints
 62
0
370
13
440
16777216
100
AcDbPoint
 10
1013430.9369097
 20
62353.10466867727
 30
0.0
  0
POINT
  5
17F
330
174
100
AcDbEntity
  8
Defpoints
 62
0
370
13
440
16777216
100
AcDbPoint
 10
1013430.9369097
 20
62393.24108009704
 30
0.0
  0
ENDBLK
  5
176
330
174
100
AcDbEntity
  8
0
100
AcDbBlockEnd
  0
BLOCK
  5
182
330
181
100
AcDbEntity
  8
0
100
AcDbBlockBegin
  2
*D22
 70
1
 10
0.0
 20
0.0
 30
0.0
  3
*D22
  1

  0
LINE
  5
184
330
181
100
AcDbEntity
  8
BAR-GAL
 62
0
370
-2
440
16777216
100
AcDbLine
 10
1011660.9369097
 20
60879.68126457736
 30
0.0
 11
1011660.9369097
 21
60438.22140195866
 31
0.0
  0
LINE
  5
185
330
181
100
AcDbEntity
  8
BAR-GAL
 62
0
370
-2
440
16777216
100
AcDbLine
 10
1013320.945370116
 20
61577.47966867727
 30
0.0
 11
1013320.945370116
 21
60438.22140195866
 31
0.0
  0
LINE
  5
186
330
181
100
AcDbEntity
  8
BAR-GAL
 62
0
370
-2
440
16777216
100
AcDbLine
 10
1011690.9369097
 20
60439.47140195866
 30
0.0
 11
1013290.945370116
 21
60439.47140195866
 31
0.0
  0
SOLID
  5
187
330
181
100
AcDbEntity
  8
BAR-GAL
 62
0
370
13
440
16777216
100
AcDbTrace
 10
1011690.9369097
 20
60444.47140195866
 30
0.0
 11
1011690.9369097
 21
60434.47140195866
 31
0.0
 12
1011660.9369097
 22
60439.47140195866
 32
0.0
 13
1011660.9369097
 23
60439.47140195866
 33
0.0
  0
SOLID
  5
188
330
181
100
AcDbEntity
  8
BAR-GAL
 62
0
370
13
440
16777216
100
AcDbTrace
 10
1013290.945370116
 20
60444.47140195866
 30
0.0
 11
1013290.945370116
 21
60434.47140195866
 31
0.0
 12
1013320.945370116
 22
60439.47140195866
 32
0.0
 13
1013320.945370116
 23
60439.47140195866
 33
0.0
  0
MTEXT
  5
189
330
181
100
AcDbEntity
  8
BAR-GAL
 62
0
370
13
440
16777216
100
AcDbMText
 10
1012490.941139908
 20
60464.78859159031
 30
0.0
 40
30.0
 41
0.0
 46
0.0
 71
5
  1
1660
  0
POINT
  5
18A
330
181
100
AcDbEntity
  8
Defpoints
 62
0
370
13
440
16777216
100
AcDbPoint
 10
1011660.9369097
 20
60880.30626457736
 30
0.0
  0
POINT
  5
18B
330
181
100
AcDbEntity
  8
Defpoints
 62
0
370
13
440
16777216
100
AcDbPoint
 10
1013320.945370116
 20
61578.10466867728
 30
0.0
  0
POINT
  5
18C
330
181
100
AcDbEntity
  8
Defpoints
 62
0
370
13
440
16777216
100
AcDbPoint
 10
1013320.945370116
 20
60439.47140195866
 30
0.0
  0
ENDBLK
  5
183
330
181
100
AcDbEntity
  8
0
100
AcDbBlockEnd
  0
BLOCK
  5
196
330
195
100
AcDbEntity
  8
0
100
AcDbBlockBegin
  2
*D23
 70
1
 10
0.0
 20
0.0
 30
0.0
  3
*D23
  1

  0
LINE
  5
198
330
195
100
AcDbEntity
  8
BAR-GAL
 62
0
370
-2
440
16777216
100
AcDbLine
 10
1012424.61694847
 20
61782.11942917432
 30
0.0
 11
1012552.331132124
 21
61782.11942917432
 31
0.0
  0
LINE
  5
199
330
195
100
AcDbEntity
  8
BAR-GAL
 62
0
370
-2
440
16777216
100
AcDbLine
 10
1012424.61694847
 20
61570.73783906634
 30
0.0
 11
1012552.331132124
 21
61570.73783906634
 31
0.0
  0
LINE
  5
19A
330
195
100
AcDbEntity
  8
BAR-GAL
 62
0
370
-2
440
16777216
100
AcDbLine
 10
1012551.081132124
 20
61752.11942917433
 30
0.0
 11
1012551.081132124
 21
61600.73783906634
 31
0.0
  0
SOLID
  5
19B
330
195
100
AcDbEntity
  8
BAR-GAL
 62
0
370
13
440
16777216
100
AcDbTrace
 10
1012546.081132124
 20
61752.11942917433
 30
0.0
 11
1012556.081132124
 21
61752.11942917433
 31
0.0
 12
1012551.081132124
 22
61782.11942917432
 32
0.0
 13
1012551.081132124
 23
61782.11942917432
 33
0.0
  0
SOLID
  5
19C
330
195
100
AcDbEntity
  8
BAR-GAL
 62
0
370
13
440
16777216
100
AcDbTrace
 10
1012546.081132124
 20
61600.73783906634
 30
0.0
 11
1012556.081132124
 21
61600.73783906634
 31
0.0
 12
1012551.081132124
 22
61570.73783906634
 32
0.0
 13
1012551.081132124
 23
61570.73783906634
 33
0.0
  0
MTEXT
  5
19D
330
195
100
AcDbEntity
  8
BAR-GAL
 62
0
370
13
440
16777216
100
AcDbMText
 10
1012526.019740582
 20
61676.42863412003
 30
0.0
 40
30.0
 41
0.0
 46
0.0
 71
5
  1
211
 11
1e-16
 21
1.0
 31
0.0
  0
POINT
  5
19E
330
195
100
AcDbEntity
  8
Defpoints
 62
0
370
13
440
16777216
100
AcDbPoint
 10
1012423.99194847
 20
61782.11942917432
 30
0.0
  0
POINT
  5
19F
330
195
100
AcDbEntity
  8
Defpoints
 62
0
370
13
440
16777216
100
AcDbPoint
 10
1012423.99194847
 20
61570.73783906634
 30
0.0
  0
POINT
  5
1A0
330
195
100
AcDbEntity
  8
Defpoints
 62
0
370
13
440
16777216
100
AcDbPoint
 10
1012551.081132124
 20
61570.73783906634
 30
0.0
  0
ENDBLK
  5
197
330
195
100
AcDbEntity
  8
0
100
AcDbBlockEnd
  0
BLOCK
  5
1A4
330
1A3
100
AcDbEntity
  8
0
100
AcDbBlockBegin
  2
*D24
 70
1
 10
0.0
 20
0.0
 30
0.0
  3
*D24
  1

  0
LINE
  5
1A6
330
1A3
100
AcDbEntity
  8
BAR-GAL
 62
0
370
-2
440
16777216
100
AcDbLine
 10
1012488.630822969
 20
61782.11942917432
 30
0.0
 11
1012552.331132125
 21
61782.11942917432
 31
0.0
  0
LINE
  5
1A7
330
1A3
100
AcDbEntity
  8
BAR-GAL
 62
0
370
-2
440
16777216
100
AcDbLine
 10
1012489.960897006
 20
61945.73783906635
 30
0.0
 11
1012552.331132125
 21
61945.73783906635
 31
0.0
  0
LINE
  5
1A8
330
1A3
100
AcDbEntity
  8
BAR-GAL
 62
0
370
-2
440
16777216
100
AcDbLine
 10
1012551.081132125
 20
61812.11942917432
 30
0.0
 11
1012551.081132125
 21
61915.73783906635
 31
0.0
  0
SOLID
  5
1A9
330
1A3
100
AcDbEntity
  8
BAR-GAL
 62
0
370
13
440
16777216
100
AcDbTrace
 10
1012546.081132125
 20
61812.11942917432
 30
0.0
 11
1012556.081132125
 21
61812.11942917432
 31
0.0
 12
1012551.081132125
 22
61782.11942917432
 32
0.0
 13
1012551.081132125
 23
61782.11942917432
 33
0.0
  0
SOLID
  5
1AA
330
1A3
100
AcDbEntity
  8
BAR-GAL
 62
0
370
13
440
16777216
100
AcDbTrace
 10
1012546.081132125
 20
61915.73783906635
 30
0.0
 11
1012556.081132125
 21
61915.73783906635
 31
0.0
 12
1012551.081132125
 22
61945.73783906635
 32
0.0
 13
1012551.081132125
 23
61945.73783906635
 33
0.0
  0
MTEXT
  5
1AB
330
1A3
100
AcDbEntity
  8
BAR-GAL
 62
0
370
13
440
16777216
100
AcDbMText
 10
1012525.763942493
 20
61863.92863412002
 30
0.0
 40
30.0
 41
0.0
 46
0.0
 71
5
  1
164
 11
1e-16
 21
1.0
 31
0.0
  0
POINT
  5
1AC
330
1A3
100
AcDbEntity
  8
Defpoints
 62
0
370
13
440
16777216
100
AcDbPoint
 10
1012488.005822969
 20
61782.11942917432
 30
0.0
  0
POINT
  5
1AD
330
1A3
100
AcDbEntity
  8
Defpoints
 62
0
370
13
440
16777216
100
AcDbPoint
 10
1012489.335897006
 20
61945.73783906635
 30
0.0
  0
POINT
  5
1AE
330
1A3
100
AcDbEntity
  8
Defpoints
 62
0
370
13
440
16777216
100
AcDbPoint
 10
1012551.081132125
 20
61945.73783906635
 30
0.0
  0
ENDBLK
  5
1A5
330
1A3
100
AcDbEntity
  8
0
100
AcDbBlockEnd
  0
ENDSEC
  0
SECTION
  2
ENTITIES
  0
LWPOLYLINE
  5
35
330
17
100
AcDbEntity
  8
0
370
13
100
AcDbPolyline
 90
4
 70
1
 43
3.428535235377893
 10
1015121.715684078
 20
60156.51927490788
 10
1010029.50312572
 20
60156.51927490788
 10
1010029.50312572
 20
64272.43997279946
 10
1015124.390736486
 20
64272.43997279946
  0
LWPOLYLINE
  5
36
330
17
100
AcDbEntity
  8
BAR-GAL
 62
7
370
13
100
AcDbPolyline
 90
17
 70
0
 43
15.0
 10
1013058.377597011
 20
62259.88244713408
 10
1012612.388324297
 20
62259.88244713408
 10
1012612.388324297
 20
63045.67642117823
 10
1013058.44798807
 20
63045.03963513767
 10
1013058.44798807
 20
62038.16808049465
 10
1013318.945370116
 20
62038.16808049465
 10
1013318.945370116
 20
61578.10466867728
 10
1013310.945370116
 20
61578.10466867728
 10
1013292.945370116
 20
61578.10466867728
 10
1013292.945370116
 20
60984.29378698008
 10
1012828.9369097
 20
60984.29378698008
 10
1012828.9369097
 20
61020.30626457736
 10
1012532.9369097
 20
61020.30626457736
 10
1012532.9369097
 20
60880.30626457736
 10
1011999.421263994
 20
60880.73783906634
 10
1011999.421263994
 20
61630.73783906633
 10
1012272.726508937
 20
61630.73783906632
  0
LWPOLYLINE
  5
37
330
17
100
AcDbEntity
  8
BAR-GAL
 62
7
370
13
100
AcDbPolyline
 90
4
 70
1
 43
15.0
 10
1012993.167973078
 20
62861.00846941745
 10
1013058.44798807
 20
62861.00846941745
 10
1013058.44798807
 20
63045.03963513767
 10
1012993.167973078
 20
63045.03963513767
  0
LWPOLYLINE
  5
38
330
17
100
AcDbEntity
  8
BAR-GAL
 62
8
370
13
100
AcDbPolyline
 90
4
 70
1
 10
1013058.44798807
 20
63045.03963513767
 10
1012992.167973078
 20
63045.03963513767
 10
1012992.167973078
 20
62861.645255458
 10
1013010.30286008
 20
63018.82570321164
  0
LWPOLYLINE
  5
39
330
17
100
AcDbEntity
  8
BAR-GAL
 62
7
370
13
100
AcDbPolyline
 90
4
 70
1
 43
5.0
 10
1012272.005822969
 20
61572.57947572756
 10
1012423.005822969
 20
61572.57947572756
 10
1012423.005822969
 20
61776.98779474553
 10
1012272.005822969
 20
61776.98779474553
  0
DIMENSION
  5
3A
330
17
100
AcDbEntity
  8
BAR-GAL
 62
7
370
13
100
AcDbDimension
280
0
  2
*D1
  3
ISO-25
 10
1012249.803319537
 20
61572.0376236378
 30
0.0
 11
1012249.803319536
 21
61602.0376236375
 31
0.0
 70
160
 71
5
 42
60.0
 73
0
 74
0
 75
0
100
AcDbAlignedDimension
 13
1012272.726508937
 23
61632.03762363777
 33
0.0
 14
1012272.726508937
 24
61572.03762363778
 34
0.0
 50
90.0
100
AcDbRotatedDimension
  0
DIMENSION
  5
49
330
17
100
AcDbEntity
  8
BAR-GAL
 62
7
370
13
100
AcDbDimension
280
0
  2
*D2
  3
ISO-25
 10
1011488.633334863
 20
61945.73783906635
 30
0.0
 11
1011463.305913308
 21
61788.45362631053
 31
0.0
 70
32
 71
5
 42
314.5684255110245
 73
0
 74
0
 75
0
100
AcDbAlignedDimension
 13
1011927.67825699
 23
61631.1694135553
 33
0.0
 14
1012077.104168618
 24
61945.73783906632
 34
0.0
 50
90.0
100
AcDbRotatedDimension
  0
DIMENSION
  5
56
330
17
100
AcDbEntity
  8
BAR-GAL
 62
7
370
13
100
AcDbDimension
280
0
  2
*D3
  3
ISO-25
 10
1012489.335897005
 20
61885.89083112244
 30
0.0
 11
1012319.311717141
 21
61911.21825267769
 31
0.0
 70
32
 71
5
 42
340.0483597293496
 73
0
 74
0
 75
0
100
AcDbAlignedDimension
 13
1012149.287537276
 23
61945.73783906632
 33
0.0
 14
1012489.335897005
 24
61945.73783906632
 34
0.0
 50
0.0
100
AcDbRotatedDimension
  0
DIMENSION
  5
63
330
17
100
AcDbEntity
  8
BAR-GAL
 62
7
370
13
100
AcDbDimension
280
0
  2
*D4
  3
ISO-25
 10
1012532.9369097
 20
60582.38280476218
 30
0.0
 11
1012266.179086847
 21
60607.71022631743
 31
0.0
 70
32
 71
5
 42
533.5156457051635
 73
0
 74
0
 75
0
100
AcDbAlignedDimension
 13
1011999.421263994
 23
60880.73783906634
 33
0.0
 14
1012532.9369097
 24
60880.30626457736
 34
0.0
 50
0.0
100
AcDbRotatedDimension
  0
LWPOLYLINE
  5
70
330
17
100
AcDbEntity
  8
BAR-GAL
 62
7
370
13
100
AcDbPolyline
 90
3
 70
0
 43
15.0
 10
1012893.197396315
 20
62259.88244713408
 10
1012893.197396315
 20
62650.86907603449
 10
1012610.416437024
 20
62650.86907603451
  0
DIMENSION
  5
71
102
{ACAD_XDICTIONARY
360
72
102
}
330
17
100
AcDbEntity
  8
BAR-GAL
 62
7
370
13
100
AcDbDimension
280
0
  2
*D5
  3
ISO-25
 10
1012947.321594047
 20
62649.86907603452
 30
0.0
 11
1012921.994172491
 21
62454.875761584
 31
0.0
 70
32
 71
5
 42
389.9866289004058
 73
0
 74
0
 75
0
100
AcDbAlignedDimension
 13
1012893.197396315
 23
62259.88244713408
 33
0.0
 14
1012893.197396315
 24
62649.86907603449
 34
0.0
 50
90.0
100
AcDbRotatedDimension
  0
DIMENSION
  5
7F
102
{ACAD_XDICTIONARY
360
80
102
}
330
17
100
AcDbEntity
  8
BAR-GAL
 62
7
370
13
100
AcDbDimension
280
0
  2
*D6
  3
ISO-25
 10
1012893.197396315
 20
62754.66520064486
 30
0.0
 11
1012752.952049113
 21
62779.98239027651
 31
0.0
 70
32
 71
5
 42
280.4906944036484
 73
0
 74
0
 75
0
100
AcDbAlignedDimension
 13
1012612.706701911
 23
62651.82425503764
 33
0.0
 14
1012893.197396315
 24
62650.86907603449
 34
0.0
 50
0.0
100
AcDbRotatedDimension
  0
LWPOLYLINE
  5
8D
330
17
100
AcDbEntity
  8
BAR-GAL
 62
7
370
13
100
AcDbPolyline
 90
4
 70
1
 43
5.0
 10
1012611.094599314
 20
62710.11039323591
 10
1012893.197396315
 20
62710.11039323591
 10
1012893.197396315
 20
62649.86907603449
 10
1012611.094599314
 20
62649.86907603449
  0
LWPOLYLINE
  5
8E
330
17
100
AcDbEntity
  8
BAR-GAL
 62
7
370
13
100
AcDbPolyline
 90
4
 70
1
 43
15.0
 10
1012612.388324297
 20
63045.67642117823
 10
1012993.167973078
 20
63045.67642117823
 10
1012993.167973078
 20
62861.00846941745
 10
1012612.388324297
 20
62861.00846941745
  0
DIMENSION
  5
8F
102
{ACAD_XDICTIONARY
360
90
102
}
330
17
100
AcDbEntity
  8
BAR-GAL
 62
7
370
13
100
AcDbDimension
280
0
  2
*D7
  3
ISO-25
 10
1012965.787496613
 20
63045.67642117826
 30
0.0
 11
1012940.470306981
 21
62953.34244529756
 31
0.0
 70
32
 71
5
 42
184.6679517607772
 73
0
 74
0
 75
0
100
AcDbAlignedDimension
 13
1012996.351749457
 23
62861.00846941745
 33
0.0
 14
1012993.167973078
 24
63045.67642117823
 34
0.0
 50
90.0
100
AcDbRotatedDimension
  0
DIMENSION
  5
9D
330
17
100
AcDbEntity
  8
BAR-GAL
 62
7
370
13
100
AcDbDimension
280
0
  2
*D8
  3
ISO-25
 10
1012992.167973078
 20
62808.15522805143
 30
0.0
 11
1012802.278148688
 21
62833.48264960669
 31
0.0
 70
32
 71
5
 42
379.7796487808227
 73
0
 74
0
 75
0
100
AcDbAlignedDimension
 13
1012612.388324297
 23
62861.645255458
 33
0.0
 14
1012992.167973078
 24
62861.645255458
 34
0.0
 50
0.0
100
AcDbRotatedDimension
  0
LWPOLYLINE
  5
AA
330
17
100
AcDbEntity
  8
BAR-GAL
 62
7
370
13
100
AcDbPolyline
 90
4
 70
1
 43
5.0
 10
1012627.670450724
 20
63022.58550631412
 10
1012780.491714276
 20
63022.58550631412
 10
1012780.491714276
 20
62882.49257739215
 10
1012627.670450724
 20
62882.49257739215
  0
LWPOLYLINE
  5
AB
330
17
100
AcDbEntity
  8
BAR-GAL
 62
7
370
13
100
AcDbPolyline
 90
4
 70
1
 43
5.0
 10
1012798.811593739
 20
63022.58550631412
 10
1012951.632857529
 20
63022.58550631412
 10
1012951.632857529
 20
62882.49257739215
 10
1012798.811593739
 20
62882.49257739215
  0
LINE
  5
AC
330
17
100
AcDbEntity
  8
BAR-GAL
 62
7
370
13
100
AcDbLine
 10
1012627.670450724
 20
63022.58550631412
 30
0.0
 11
1012780.491714276
 21
62882.49257739215
 31
0.0
  0
LINE
  5
AD
330
17
100
AcDbEntity
  8
BAR-GAL
 62
7
370
13
100
AcDbLine
 10
1012780.491714276
 20
63022.58550631412
 30
0.0
 11
1012627.670450724
 21
62882.49257739215
 31
0.0
  0
LINE
  5
AE
330
17
100
AcDbEntity
  8
BAR-GAL
 62
7
370
13
100
AcDbLine
 10
1012798.811593739
 20
63022.58550631412
 30
0.0
 11
1012951.632857529
 21
62882.49257739215
 31
0.0
  0
LINE
  5
AF
330
17
100
AcDbEntity
  8
BAR-GAL
 62
7
370
13
100
AcDbLine
 10
1012951.632857529
 20
63022.58550631412
 30
0.0
 11
1012798.811593739
 21
62882.49257739215
 31
0.0
  0
LWPOLYLINE
  5
B0
330
17
100
AcDbEntity
  8
BAR-GAL
 62
7
370
13
100
AcDbPolyline
 90
3
 70
0
 43
15.0
 10
1012612.388324297
 20
62261.15601921519
 10
1012612.388324297
 20
61945.73783906632
 10
1012489.335897005
 20
61945.73783906632
  0
DIMENSION
  5
B1
330
17
100
AcDbEntity
  8
BAR-GAL
 62
7
370
13
100
AcDbDimension
280
0
  2
*D9
  3
ISO-25
 10
1012893.197396315
 20
62312.48070244192
 30
0.0
 11
1012975.787496663
 21
62337.79789207357
 31
0.0
 70
32
 71
5
 42
165.1802006959915
 73
0
 74
0
 75
0
100
AcDbAlignedDimension
 13
1013058.377597011
 23
62259.88244713408
 33
0.0
 14
1012893.197396315
 24
62259.88244713408
 34
0.0
 50
0.0
100
AcDbRotatedDimension
  0
LWPOLYLINE
  5
BE
330
17
100
AcDbEntity
  8
BAR-GAL
 62
7
370
13
100
AcDbPolyline
 90
4
 70
1
 43
5.0
 10
1012722.546985186
 20
62532.42687249137
 10
1012783.038735426
 20
62532.42687249137
 10
1012783.038735426
 20
62370.04643215
 10
1012722.546985186
 20
62370.04643215
  0
LWPOLYLINE
  5
BF
330
17
100
AcDbEntity
  8
BAR-GAL
 62
7
370
13
100
AcDbPolyline
 90
2
 70
0
 43
5.0
 10
1012728.257568083
 20
62710.11039323591
 10
1012728.257568083
 20
62650.86907603451
  0
LWPOLYLINE
  5
C0
330
17
100
AcDbEntity
  8
BAR-GAL
 62
7
370
13
100
AcDbPolyline
 90
2
 70
0
 43
5.0
 10
1012853.081814564
 20
62709.4533917655
 10
1012853.081814564
 20
62649.86907603449
  0
DIMENSION
  5
C1
102
{ACAD_XDICTIONARY
360
C2
102
}
330
17
100
AcDbEntity
  8
BAR-GAL
 62
7
370
13
100
AcDbDimension
280
0
  2
*D10
  3
ISO-25
 10
1012999.615818798
 20
62260.88244713412
 30
0.0
 11
1012974.298629166
 21
62560.94545827549
 31
0.0
 70
32
 71
5
 42
600.1260222833662
 73
0
 74
0
 75
0
100
AcDbAlignedDimension
 13
1013058.44798807
 23
62861.00846941745
 33
0.0
 14
1013057.104086436
 24
62260.88244713408
 34
0.0
 50
90.0
100
AcDbRotatedDimension
  0
LINE
  5
CF
330
17
100
AcDbEntity
  8
BAR-GAL
 62
7
370
13
100
AcDbLine
 10
1012722.546985186
 20
62532.42687249137
 30
0.0
 11
1012722.546985186
 21
62649.86907603449
 31
0.0
  0
LINE
  5
D0
330
17
100
AcDbEntity
  8
BAR-GAL
 62
7
370
13
100
AcDbLine
 10
1012752.546985186
 20
62532.42687249137
 30
0.0
 11
1012752.546985186
 21
62649.86907603449
 31
0.0
  0
LINE
  5
D1
330
17
100
AcDbEntity
  8
BAR-GAL
 62
7
370
13
100
AcDbLine
 10
1012782.546985186
 20
62532.42687249137
 30
0.0
 11
1012782.546985186
 21
62649.86907603449
 31
0.0
  0
LINE
  5
D2
330
17
100
AcDbEntity
  8
BAR-GAL
 62
7
370
13
100
AcDbLine
 10
1012722.546985186
 20
62525.8633832415
 30
0.0
 11
1012613.372610517
 21
62525.8633832415
 31
0.0
  0
LINE
  5
D3
330
17
100
AcDbEntity
  8
BAR-GAL
 62
7
370
13
100
AcDbLine
 10
1012722.546985186
 20
62495.8633832415
 30
0.0
 11
1012613.372610517
 21
62495.8633832415
 31
0.0
  0
LINE
  5
D4
330
17
100
AcDbEntity
  8
BAR-GAL
 62
7
370
13
100
AcDbLine
 10
1012722.546985186
 20
62465.8633832415
 30
0.0
 11
1012613.372610517
 21
62465.8633832415
 31
0.0
  0
LINE
  5
D5
330
17
100
AcDbEntity
  8
BAR-GAL
 62
7
370
13
100
AcDbLine
 10
1012722.546985186
 20
62435.86338324151
 30
0.0
 11
1012613.372610517
 21
62435.86338324151
 31
0.0
  0
LINE
  5
D6
330
17
100
AcDbEntity
  8
BAR-GAL
 62
7
370
13
100
AcDbLine
 10
1012722.546985186
 20
62405.86338324151
 30
0.0
 11
1012613.372610517
 21
62405.86338324151
 31
0.0
  0
LINE
  5
D7
330
17
100
AcDbEntity
  8
BAR-GAL
 62
7
370
13
100
AcDbLine
 10
1012722.546985186
 20
62375.86338324151
 30
0.0
 11
1012613.372610517
 21
62375.86338324151
 31
0.0
  0
LINE
  5
D8
330
17
100
AcDbEntity
  8
BAR-GAL
 62
7
370
13
100
AcDbLine
 10
1012722.546985186
 20
62252.60422860688
 30
0.0
 11
1012722.546985186
 21
62370.04643215
 31
0.0
  0
LINE
  5
D9
330
17
100
AcDbEntity
  8
BAR-GAL
 62
7
370
13
100
AcDbLine
 10
1012752.546985186
 20
62252.60422860688
 30
0.0
 11
1012752.546985186
 21
62370.04643215
 31
0.0
  0
LINE
  5
DA
330
17
100
AcDbEntity
  8
BAR-GAL
 62
7
370
13
100
AcDbLine
 10
1012782.546985186
 20
62252.60422860688
 30
0.0
 11
1012782.546985186
 21
62370.04643215
 31
0.0
  0
LINE
  5
DB
330
17
100
AcDbEntity
  8
BAR-GAL
 62
7
370
13
100
AcDbLine
 10
1012893.197396315
 20
62525.8633832415
 30
0.0
 11
1012784.023021646
 21
62525.8633832415
 31
0.0
  0
LINE
  5
DC
330
17
100
AcDbEntity
  8
BAR-GAL
 62
7
370
13
100
AcDbLine
 10
1012893.197396315
 20
62495.8633832415
 30
0.0
 11
1012784.023021646
 21
62495.8633832415
 31
0.0
  0
LINE
  5
DD
330
17
100
AcDbEntity
  8
BAR-GAL
 62
7
370
13
100
AcDbLine
 10
1012893.197396315
 20
62465.8633832415
 30
0.0
 11
1012784.023021646
 21
62465.8633832415
 31
0.0
  0
LINE
  5
DE
330
17
100
AcDbEntity
  8
BAR-GAL
 62
7
370
13
100
AcDbLine
 10
1012893.197396315
 20
62435.86338324151
 30
0.0
 11
1012784.023021646
 21
62435.86338324151
 31
0.0
  0
LINE
  5
DF
330
17
100
AcDbEntity
  8
BAR-GAL
 62
7
370
13
100
AcDbLine
 10
1012893.197396315
 20
62405.86338324151
 30
0.0
 11
1012784.023021646
 21
62405.86338324151
 31
0.0
  0
LINE
  5
E0
330
17
100
AcDbEntity
  8
BAR-GAL
 62
7
370
13
100
AcDbLine
 10
1012893.197396315
 20
62375.86338324151
 30
0.0
 11
1012784.023021646
 21
62375.86338324151
 31
0.0
  0
LWPOLYLINE
  5
E1
330
17
100
AcDbEntity
  8
BAR-GAL
 62
7
370
13
100
AcDbPolyline
 90
8
 70
1
 10
1012612.388324297
 20
62861.00846941745
 10
1012612.388324297
 20
62710.1103932359
 10
1012893.197396315
 20
62710.11039323591
 10
1012893.197396315
 20
62649.86907603449
 10
1012893.197396315
 20
62259.88244713407
 10
1013058.44798807
 20
62259.88244713408
 10
1013058.44798807
 20
62861.00846941744
 10
1012993.167973078
 20
62861.00846941745
  0
LINE
  5
E2
330
17
100
AcDbEntity
  8
BAR-GAL
 62
7
370
13
100
AcDbLine
 10
1012611.094599314
 20
62710.11039323591
 30
0.0
 11
1012728.257568083
 21
62650.86907603451
 31
0.0
  0
LINE
  5
E3
330
17
100
AcDbEntity
  8
BAR-GAL
 62
7
370
13
100
AcDbLine
 10
1012728.257568083
 20
62650.86907603451
 30
0.0
 11
1012853.081814564
 21
62709.4533917655
 31
0.0
  0
LINE
  5
E4
330
17
100
AcDbEntity
  8
BAR-GAL
 62
7
370
13
100
AcDbLine
 10
1012853.081814564
 20
62709.4533917655
 30
0.0
 11
1012893.197396315
 21
62650.86907603449
 31
0.0
  0
LINE
  5
E5
330
17
100
AcDbEntity
  8
BAR-GAL
 62
7
370
13
100
AcDbLine
 10
1012893.197396315
 20
62710.11039323591
 30
0.0
 11
1012853.081814564
 21
62650.86907603449
 31
0.0
  0
LINE
  5
E6
330
17
100
AcDbEntity
  8
BAR-GAL
 62
7
370
13
100
AcDbLine
 10
1012853.081814564
 20
62650.86907603449
 30
0.0
 11
1012728.257568083
 21
62710.11039323591
 31
0.0
  0
LINE
  5
E7
330
17
100
AcDbEntity
  8
BAR-GAL
 62
7
370
13
100
AcDbLine
 10
1012728.257568083
 20
62710.11039323591
 30
0.0
 11
1012612.388324297
 21
62649.86907603449
 31
0.0
  0
DIMENSION
  5
E8
330
17
100
AcDbEntity
  8
BAR-GAL
 62
7
370
13
100
AcDbDimension
280
0
  2
*D11
  3
ISO-25
 10
1012150.740756787
 20
62485.75035509006
 30
0.0
 11
1012003.240756787
 21
62511.06754472171
 31
0.0
 70
32
 71
5
 42
294.9999999998836
 73
0
 74
0
 75
0
100
AcDbAlignedDimension
 13
1011855.740756787
 23
62585.73783906633
 33
0.0
 14
1012150.740756787
 24
62585.73783906632
 34
0.0
 50
0.0
100
AcDbRotatedDimension
  0
DIMENSION
  5
F5
330
17
100
AcDbEntity
  8
BAR-GAL
 62
7
370
13
100
AcDbDimension
280
0
  2
*D12
  3
ISO-25
 10
1012828.9369097
 20
60582.38280476218
 30
0.0
 11
1012680.9369097
 21
60607.69999439383
 31
0.0
 70
32
 71
5
 42
296.0
 73
0
 74
0
 75
0
100
AcDbAlignedDimension
 13
1012532.9369097
 23
61020.30626457736
 33
0.0
 14
1012828.9369097
 24
61020.30626457736
 34
0.0
 50
0.0
100
AcDbRotatedDimension
  0
DIMENSION
  5
102
330
17
100
AcDbEntity
  8
BAR-GAL
 62
7
370
13
100
AcDbDimension
280
0
  2
*D13
  3
ISO-25
 10
1013292.9369097
 20
60582.38280476218
 30
0.0
 11
1013060.9369097
 21
60607.69999439383
 31
0.0
 70
32
 71
5
 42
464.0
 73
0
 74
0
 75
0
100
AcDbAlignedDimension
 13
1012828.9369097
 23
61020.30626457736
 33
0.0
 14
1013292.9369097
 24
61020.30626457736
 34
0.0
 50
0.0
100
AcDbRotatedDimension
  0
DIMENSION
  5
10F
330
17
100
AcDbEntity
  8
BAR-GAL
 62
7
370
13
100
AcDbDimension
280
0
  2
*D14
  3
ISO-25
 10
1013058.44798807
 20
62083.48001211629
 30
0.0
 11
1013188.696679093
 21
62108.79720174794
 31
0.0
 70
32
 71
5
 42
260.497382046422
 73
0
 74
0
 75
0
100
AcDbAlignedDimension
 13
1013318.945370116
 23
62038.16808049465
 33
0.0
 14
1013058.44798807
 24
62038.16808049465
 34
0.0
 50
0.0
100
AcDbRotatedDimension
  0
DIMENSION
  5
11C
330
17
100
AcDbEntity
  8
BAR-GAL
 62
7
370
13
100
AcDbDimension
280
0
  2
*D15
  3
ISO-25
 10
1012272.726508937
 20
61813.82260892481
 30
0.0
 11
1012135.726508937
 21
61838.88400046642
 31
0.0
 70
32
 71
5
 42
274.0
 73
0
 74
0
 75
0
100
AcDbAlignedDimension
 13
1011998.726508937
 23
61714.75746594883
 33
0.0
 14
1012272.726508937
 24
61714.75746594883
 34
0.0
 50
0.0
100
AcDbRotatedDimension
  0
LWPOLYLINE
  5
129
330
17
100
AcDbEntity
  8
BAR-GAL
 62
7
370
13
100
AcDbPolyline
 90
13
 70
0
 43
15.0
 10
1012423.005822969
 20
61782.11942917429
 10
1012489.335897005
 20
61782.11942917429
 10
1012489.335897005
 20
61945.73783906632
 10
1012150.740756787
 20
61945.73783906632
 10
1012150.740756787
 20
62585.73783906632
 10
1011855.740756787
 20
62585.73783906632
 10
1011855.740756787
 20
62705.73783906632
 10
1011680.740756787
 20
62705.73783906632
 10
1011660.740756787
 20
62705.73783906632
 10
1011660.740756787
 20
63515.30626457736
 10
1011656.9369097
 20
63515.30626457736
 10
1013058.44798807
 20
63515.30626457736
 10
1013058.44798807
 20
63045.03963513767
  0
DIMENSION
  5
12A
102
{ACAD_XDICTIONARY
360
12B
102
}
330
17
100
AcDbEntity
  8
BAR-GAL
 62
7
370
13
100
AcDbDimension
280
0
  2
*D16
  3
ISO-25
 10
1012423.005822969
 20
61813.70249459676
 30
0.0
 11
1012347.505822969
 21
61839.01968422842
 31
0.0
 70
32
 71
5
 42
151.0
 73
0
 74
0
 75
0
100
AcDbAlignedDimension
 13
1012272.005822969
 23
61776.98779474553
 33
0.0
 14
1012423.005822969
 24
61776.98779474553
 34
0.0
 50
0.0
100
AcDbRotatedDimension
  0
LWPOLYLINE
  5
138
330
17
100
AcDbEntity
  8
BAR-GAL
 62
7
370
13
100
AcDbPolyline
 90
4
 70
0
 43
15.0
 10
1012423.991948469
 20
61782.11942917429
 10
1012423.991948469
 20
61570.73783906632
 10
1012272.726508937
 20
61570.73783906632
 10
1012272.726508937
 20
61632.03762363777
  0
DIMENSION
  5
139
102
{ACAD_XDICTIONARY
360
13A
102
}
330
17
100
AcDbEntity
  8
BAR-GAL
 62
7
370
13
100
AcDbDimension
280
0
  2
*D17
  3
ISO-25
 10
1012488.005822969
 20
61813.70249459676
 30
0.0
 11
1012455.505822969
 21
61839.01968422842
 31
0.0
 70
32
 71
5
 42
65.0
 73
0
 74
0
 75
0
100
AcDbAlignedDimension
 13
1012423.005822969
 23
61782.11942917429
 33
0.0
 14
1012488.005822969
 24
61782.11942917429
 34
0.0
 50
0.0
100
AcDbRotatedDimension
  0
LWPOLYLINE
  5
149
330
17
100
AcDbEntity
  8
BAR-GAL
 62
7
370
13
100
AcDbPolyline
 90
4
 70
0
 43
5.0
 10
1013058.44798807
 20
62353.10466867727
 10
1013430.9369097
 20
62353.10466867727
 10
1013430.9369097
 20
61578.10466867728
 10
1013318.945370116
 20
61578.10466867728
  0
DIMENSION
  5
14A
330
17
100
AcDbEntity
  8
BAR-GAL
 62
7
370
13
100
AcDbDimension
280
0
  2
*D18
  3
ISO-25
 10
1012600.957584331
 20
61020.30626457739
 30
0.0
 11
1012575.6403947
 21
60950.30626457708
 31
0.0
 70
32
 71
5
 42
140.0
 73
0
 74
0
 75
0
100
AcDbAlignedDimension
 13
1012533.009455711
 23
60880.30626457736
 33
0.0
 14
1012532.9369097
 24
61020.30626457736
 34
0.0
 50
90.0
100
AcDbRotatedDimension
  0
DIMENSION
  5
157
330
17
100
AcDbEntity
  8
BAR-GAL
 62
7
370
13
100
AcDbDimension
280
0
  2
*D19
  3
ISO-25
 10
1012610.909948595
 20
62084.7300121163
 30
0.0
 11
1012834.866721423
 21
62110.04720174795
 31
0.0
 70
32
 71
5
 42
447.9135456561343
 73
0
 74
0
 75
0
100
AcDbAlignedDimension
 13
1013058.823494251
 23
62040.57989059648
 33
0.0
 14
1012610.909948595
 24
62040.57989059648
 34
0.0
 50
0.0
100
AcDbRotatedDimension
  0
DIMENSION
  5
164
102
{ACAD_XDICTIONARY
360
165
102
}
330
17
100
AcDbEntity
  8
BAR-GAL
 62
7
370
13
100
AcDbDimension
280
0
  2
*D20
  3
ISO-25
 10
1012150.740756787
 20
62084.82193460249
 30
0.0
 11
1012380.825352691
 21
62110.13912423414
 31
0.0
 70
32
 71
5
 42
460.1691918080905
 73
0
 74
0
 75
0
100
AcDbAlignedDimension
 13
1012610.909948595
 23
62040.57989059648
 33
0.0
 14
1012150.740756787
 24
62040.57989059648
 34
0.0
 50
0.0
100
AcDbRotatedDimension
  0
DIMENSION
  5
172
102
{ACAD_XDICTIONARY
360
173
102
}
330
17
100
AcDbEntity
  8
BAR-GAL
 62
7
370
13
100
AcDbDimension
280
0
  2
*D21
  3
ISO-25
 10
1013430.9369097
 20
62393.24108009704
 30
0.0
 11
1013244.692448885
 21
62418.56850165229
 31
0.0
 70
32
 71
5
 42
372.4889216299634
 73
0
 74
0
 75
0
100
AcDbAlignedDimension
 13
1013058.44798807
 23
62351.16433523523
 33
0.0
 14
1013430.9369097
 24
62353.10466867727
 34
0.0
 50
0.0
100
AcDbRotatedDimension
  0
DIMENSION
  5
180
330
17
100
AcDbEntity
  8
BAR-GAL
 62
7
370
13
100
AcDbDimension
280
0
  2
*D22
  3
ISO-25
 10
1013320.945370116
 20
60439.47140195866
 30
0.0
 11
1012490.941139908
 21
60464.78859159031
 31
0.0
 70
32
 71
5
 42
1660.008460416691
 73
0
 74
0
 75
0
100
AcDbAlignedDimension
 13
1011660.9369097
 23
60880.30626457736
 33
0.0
 14
1013320.945370116
 24
61578.10466867728
 34
0.0
 50
0.0
100
AcDbRotatedDimension
  0
TEXT
  5
18D
330
17
100
AcDbEntity
  8
0
100
AcDbText
 10
1012065.655281344
 20
62984.41036851775
 30
0.0
 40
59.201694284898
  1
17 דירה
100
AcDbText
  0
TEXT
  5
18E
330
17
100
AcDbEntity
  8
0
100
AcDbText
 10
1012681.995884757
 20
61503.07689170122
 30
0.0
 40
59.201694284898
  1
18 דירה
100
AcDbText
  0
LWPOLYLINE
  5
18F
330
17
100
AcDbEntity
  8
BAR-GAL
 62
1
370
13
100
AcDbPolyline
 90
19
 70
1
 10
1011660.740756787
 20
63515.30626457736
 10
1011660.740756787
 20
62705.73783906631
 10
1011680.740756787
 20
62705.73783906632
 10
1011855.740756787
 20
62705.73783906632
 10
1011855.740756787
 20
62585.73783906632
 10
1012150.740756787
 20
62585.73783906632
 10
1012150.740756787
 20
61945.73783906632
 10
1012489.335897005
 20
61945.73783906632
 10
1012612.388324297
 20
61945.73783906632
 10
1012612.388324297
 20
62261.15601921519
 10
1012612.388324297
 20
62649.86907603449
 10
1012611.094599314
 20
62649.86907603449
 10
1012610.416437024
 20
62650.86907603451
 10
1012611.094599314
 20
62650.86907603451
 10
1012611.094599314
 20
62710.11039323591
 10
1012612.388324297
 20
63045.67642117822
 10
1012993.167973078
 20
63045.67642117823
 10
1013058.44798807
 20
63045.03963513766
 10
1013058.44798807
 20
63515.30626457734
  0
LWPOLYLINE
  5
190
330
17
100
AcDbEntity
  8
BAR-GAL
 62
1
370
13
100
AcDbPolyline
 90
22
 70
1
 10
1013058.44798807
 20
62038.16808049464
 10
1013058.44798807
 20
62259.88244713407
 10
1012893.197396315
 20
62259.88244713407
 10
1012612.388324297
 20
62259.88244713406
 10
1012612.388324297
 20
61945.73783906632
 10
1012489.335897006
 20
61945.73783906632
 10
1012489.335897005
 20
61782.11942917429
 10
1012423.991948469
 20
61782.11942917429
 10
1012423.991948469
 20
61570.73783906631
 10
1012272.005822969
 20
61570.73783906632
 10
1012272.005822969
 20
61630.73783906633
 10
1011999.421263994
 20
61630.73783906633
 10
1011999.421263994
 20
60880.73783906634
 10
1012532.9369097
 20
60880.30626457735
 10
1012532.9369097
 20
61020.30626457735
 10
1012828.936909699
 20
61020.30626457735
 10
1012828.9369097
 20
60984.29378698008
 10
1013292.945370116
 20
60984.29378698008
 10
1013292.945370116
 20
61578.10466867728
 10
1013310.945370116
 20
61578.10466867728
 10
1013318.945370116
 20
61578.10466867728
 10
1013318.945370116
 20
62038.16808049465
  0
LWPOLYLINE
  5
191
330
17
100
AcDbEntity
  8
BAR-GAL
 62
3
370
13
100
AcDbPolyline
 90
7
 70
1
 10
1013058.447988069
 20
62353.10466867727
 10
1013058.44798807
 20
62259.88244713408
 10
1013058.44798807
 20
62038.16808049464
 10
1013318.945370116
 20
62038.16808049466
 10
1013318.945370116
 20
61578.10466867728
 10
1013430.9369097
 20
61578.10466867728
 10
1013430.9369097
 20
62353.10466867726
  0
LWPOLYLINE
  5
192
330
17
100
AcDbEntity
  8
BAR-GAL
 62
3
370
13
100
AcDbPolyline
 90
7
 70
1
 10
1013292.945370116
 20
60704.29378698007
 10
1013292.945370116
 20
60984.29378698007
 10
1012828.9369097
 20
60984.29378698008
 10
1012828.9369097
 20
61020.30626457736
 10
1012775.945370116
 20
61020.30626457736
 10
1012775.945370116
 20
60704.29378698008
 10
1012795.945370116
 20
60704.29378698008
  0
DIMENSION
  5
193
102
{ACAD_XDICTIONARY
360
194
102
}
330
17
100
AcDbEntity
  8
BAR-GAL
 62
7
370
13
100
AcDbDimension
280
0
  2
*D23
  3
ISO-25
 10
1012551.081132124
 20
61570.73783906634
 30
0.0
 11
1012526.019740582
 21
61676.42863412003
 31
0.0
 70
32
 71
5
 42
211.3815901079797
 73
0
 74
0
 75
0
100
AcDbAlignedDimension
 13
1012423.991948469
 23
61782.11942917429
 33
0.0
 14
1012423.991948469
 24
61570.73783906631
 34
0.0
 50
90.0
100
AcDbRotatedDimension
  0
DIMENSION
  5
1A1
102
{ACAD_XDICTIONARY
360
1A2
102
}
330
17
100
AcDbEntity
  8
BAR-GAL
 62
7
370
13
100
AcDbDimension
280
0
  2
*D24
  3
ISO-25
 10
1012551.081132125
 20
61945.73783906635
 30
0.0
 11
1012525.763942493
 21
61863.92863412002
 31
0.0
 70
32
 71
5
 42
163.6184098920275
 73
0
 74
0
 75
0
100
AcDbAlignedDimension
 13
1012488.005822969
 23
61782.11942917429
 33
0.0
 14
1012489.335897006
 24
61945.73783906632
 34
0.0
 50
90.0
100
AcDbRotatedDimension
  0
MTEXT
  5
1AF
330
17
100
AcDbEntity
  8
VP
370
13
100
AcDbMText
 10
1012729.566564243
 20
61263.76641152691
 30
0.0
 40
59.201694284898
 41
262.1310489581865
 46
0.0
 71
1
  1
 13085
  0
MTEXT
  5
1B0
330
17
100
AcDbEntity
  8
VP
370
13
100
AcDbMText
 10
1013217.263798925
 20
62887.67037478022
 30
0.0
 40
59.201694284898
 41
262.1310489581865
 46
0.0
 71
1
  1
  7539
  0
MTEXT
  5
1B1
330
17
100
AcDbEntity
  8
VP
370
13
100
AcDbMText
 10
1013163.853301614
 20
62219.23246571674
 30
0.0
 40
59.201694284898
 41
262.1310489581865
 46
0.0
 71
1
  1
  1688
  0
ENDSEC
  0
SECTION
  2
OBJECTS
  0
DICTIONARY
  5
A
330
0
100
AcDbDictionary
281
1
  3
ACAD_COLOR
350
B
  3
ACAD_GROUP
350
C
  3
ACAD_LAYOUT
350
D
  3
ACAD_MATERIAL
350
E
  3
ACAD_MLEADERSTYLE
350
F
  3
ACAD_MLINESTYLE
350
10
  3
ACAD_PLOTSETTINGS
350
11
  3
ACAD_PLOTSTYLENAME
350
12
  3
ACAD_SCALELIST
350
14
  3
ACAD_TABLESTYLE
350
15
  3
ACAD_VISUALSTYLE
350
16
  3
EZDXF_META
350
2D
  0
DICTIONARY
  5
B
330
A
100
AcDbDictionary
281
1
  0
DICTIONARY
  5
C
330
A
100
AcDbDictionary
281
1
  0
DICTIONARY
  5
D
330
A
100
AcDbDictionary
281
1
  3
Model
350
1A
  3
Layout1
350
1E
  0
DICTIONARY
  5
E
330
A
100
AcDbDictionary
281
1
  3
ByBlock
350
1F
  3
ByLayer
350
20
  3
Global
350
21
  0
DICTIONARY
  5
F
330
A
100
AcDbDictionary
281
1
  3
Standard
350
2C
  0
DICTIONARY
  5
10
330
A
100
AcDbDictionary
281
1
  3
Standard
350
22
  0
DICTIONARY
  5
11
330
A
100
AcDbDictionary
281
1
  0
ACDBDICTIONARYWDFLT
  5
12
330
A
100
AcDbDictionary
281
1
  3
Normal
350
13
100
AcDbDictionaryWithDefault
340
13
  0
ACDBPLACEHOLDER
  5
13
330
12
  0
DICTIONARY
  5
14
330
A
100
AcDbDictionary
281
1
  0
DICTIONARY
  5
15
330
A
100
AcDbDictionary
281
1
  0
DICTIONARY
  5
16
330
A
100
AcDbDictionary
281
1
  0
LAYOUT
  5
1A
330
D
100
AcDbPlotSettings
  1

  4
A3
  6

 40
7.5
 41
20.0
 42
7.5
 43
20.0
 44
420.0
 45
297.0
 46
0.0
 47
0.0
 48
0.0
 49
0.0
140
0.0
141
0.0
142
1.0
143
1.0
 70
1024
 72
1
 73
0
 74
5
  7

 75
16
 76
0
 77
2
 78
300
147
1.0
148
0.0
149
0.0
100
AcDbLayout
  1
Model
 70
1
 71
0
 10
0.0
 20
0.0
 11
420.0
 21
297.0
 12
0.0
 22
0.0
 32
0.0
 14
1e+20
 24
1e+20
 34
1e+20
 15
-1e+20
 25
-1e+20
 35
-1e+20
146
0.0
 13
0.0
 23
0.0
 33
0.0
 16
1.0
 26
0.0
 36
0.0
 17
0.0
 27
1.0
 37
0.0
 76
1
330
17
  0
LAYOUT
  5
1E
330
D
100
AcDbPlotSettings
  1

  4
A3
  6

 40
7.5
 41
20.0
 42
7.5
 43
20.0
 44
420.0
 45
297.0
 46
0.0
 47
0.0
 48
0.0
 49
0.0
140
0.0
141
0.0
142
1.0
143
1.0
 70
0
 72
1
 73
0
 74
5
  7

 75
16
 76
0
 77
2
 78
300
147
1.0
148
0.0
149
0.0
100
AcDbLayout
  1
Layout1
 70
1
 71
1
 10
0.0
 20
0.0
 11
420.0
 21
297.0
 12
0.0
 22
0.0
 32
0.0
 14
1e+20
 24
1e+20
 34
1e+20
 15
-1e+20
 25
-1e+20
 35
-1e+20
146
0.0
 13
0.0
 23
0.0
 33
0.0
 16
1.0
 26
0.0
 36
0.0
 17
0.0
 27
1.0
 37
0.0
 76
1
330
1B
  0
MATERIAL
  5
1F
102
{ACAD_REACTORS
330
E
102
}
330
E
100
AcDbMaterial
  1
ByBlock
  2

 70
0
 40
1.0
 71
1
 41
1.0
 91
-1023410177
 42
1.0
 72
1
  3

 73
1
 74
1
 75
1
 44
0.5
 73
0
 45
1.0
 46
1.0
 77
1
  4

 78
1
 79
1
170
1
 48
1.0
171
1
  6

172
1
173
1
174
1
140
1.0
141
1.0
175
1
  7

176
1
177
1
178
1
143
1.0
179
1
  8

270
1
271
1
272
1
145
1.0
146
1.0
273
1
  9

274
1
275
1
276
1
 42
1.0
 72
1
  3

 73
1
 74
1
 75
1
 94
63
  0
MATERIAL
  5
20
102
{ACAD_REACTORS
330
E
102
}
330
E
100
AcDbMaterial
  1
ByLayer
  2

 70
0
 40
1.0
 71
1
 41
1.0
 91
-1023410177
 42
1.0
 72
1
  3

 73
1
 74
1
 75
1
 44
0.5
 73
0
 45
1.0
 46
1.0
 77
1
  4

 78
1
 79
1
170
1
 48
1.0
171
1
  6

172
1
173
1
174
1
140
1.0
141
1.0
175
1
  7

176
1
177
1
178
1
143
1.0
179
1
  8

270
1
271
1
272
1
145
1.0
146
1.0
273
1
  9

274
1
275
1
276
1
 42
1.0
 72
1
  3

 73
1
 74
1
 75
1
 94
63
  0
MATERIAL
  5
21
102
{ACAD_REACTORS
330
E
102
}
330
E
100
AcDbMaterial
  1
Global
  2

 70
0
 40
1.0
 71
1
 41
1.0
 91
-1023410177
 42
1.0
 72
1
  3

 73
1
 74
1
 75
1
 44
0.5
 73
0
 45
1.0
 46
1.0
 77
1
  4

 78
1
 79
1
170
1
 48
1.0
171
1
  6

172
1
173
1
174
1
140
1.0
141
1.0
175
1
  7

176
1
177
1
178
1
143
1.0
179
1
  8

270
1
271
1
272
1
145
1.0
146
1.0
273
1
  9

274
1
275
1
276
1
 42
1.0
 72
1
  3

 73
1
 74
1
 75
1
 94
63
  0
MLINESTYLE
  5
22
102
{ACAD_REACTORS
330
10
102
}
330
10
100
AcDbMlineStyle
  2
Standard
 70
0
  3

 62
256
 51
90.0
 52
90.0
 71
2
 49
0.5
 62
256
  6
BYLAYER
 49
-0.5
 62
256
  6
BYLAYER
  0
MLEADERSTYLE
  5
2C
102
{ACAD_REACTORS
330
F
102
}
330
F
100
AcDbMLeaderStyle
179
2
170
2
171
1
172
0
 90
2
 40
0.0
 41
0.0
173
1
 91
-1056964608
 92
-2
290
1
 42
2.0
291
1
 43
8.0
  3
Standard
 44
4.0
300

342
29
174
1
175
1
176
0
178
1
 93
-1056964608
 45
4.0
292
0
297
0
 46
4.0
 94
-1056964608
 47
1.0
 49
1.0
140
1.0
294
1
141
0.0
177
0
142
1.0
295
0
296
0
143
3.75
271
0
272
9
273
9
  0
DICTIONARY
  5
2D
330
A
100
AcDbDictionary
280
1
281
1
  3
CREATED_BY_EZDXF
350
2E
  3
WRITTEN_BY_EZDXF
350
1B4
  0
DICTIONARYVAR
  5
2E
330
2D
100
DictionaryVariables
280
0
  1
1.4.3 @ 2026-05-05T23:16:50.913320+00:00
  0
DICTIONARY
  5
72
330
71
100
AcDbDictionary
280
1
281
1
  0
DICTIONARY
  5
80
330
7F
100
AcDbDictionary
280
1
281
1
  0
DICTIONARY
  5
90
330
8F
100
AcDbDictionary
280
1
281
1
  0
DICTIONARY
  5
C2
330
C1
100
AcDbDictionary
280
1
281
1
  0
DICTIONARY
  5
12B
330
12A
100
AcDbDictionary
280
1
281
1
  0
DICTIONARY
  5
13A
330
139
100
AcDbDictionary
280
1
281
1
  0
DICTIONARY
  5
165
330
164
100
AcDbDictionary
280
1
281
1
  0
DICTIONARY
  5
173
330
172
100
AcDbDictionary
280
1
281
1
  0
DICTIONARY
  5
194
330
193
100
AcDbDictionary
280
1
281
1
  0
DICTIONARY
  5
1A2
330
1A1
100
AcDbDictionary
280
1
281
1
  0
DICTIONARYVAR
  5
1B4
330
2D
100
DictionaryVariables
280
0
  1
1.4.3 @ 2026-05-05T23:16:50.931267+00:00
  0
ENDSEC
  0
EOF
